<?xml version="1.0" encoding="utf-8"?>
<!-- Generator: Adobe Illustrator 25.2.0, SVG Export Plug-In . SVG Version: 6.00 Build 0)  -->
<svg version="1.1" id="Capa_1" xmlns="http://www.w3.org/2000/svg" xmlns:xlink="http://www.w3.org/1999/xlink" x="0px" y="0px"
	 viewBox="0 0 60.7 70.8" style="enable-background:new 0 0 60.7 70.8;" xml:space="preserve">
<style type="text/css">
	.st0{fill:#FFCD0D;}
	.st1{fill:#FFFFFF;}
	.st2{enable-background:new    ;}
	.st3{fill:#002B45;}
</style>
<g id="Grupo_14992" transform="translate(-379 -4857.836)">
	<g id="Grupo_14873" transform="translate(-885.285 4588.969)">
		<path id="Trazado_16389" class="st0" d="M1325,299.2c0-16.8-13.6-30.4-30.4-30.4s-30.4,13.6-30.4,30.4c0,14.4,10.1,26.8,24.2,29.7
			l3,5.3l3.2,5.5l3.2-5.5l3-5.3C1314.9,326,1325,313.6,1325,299.2z"/>
		<circle id="Elipse_816" class="st1" cx="1294.7" cy="299.2" r="21.9"/>
	</g>
	<g class="st2">
		<path class="st3" d="M401.8,4897.4c-4,0-6-2.8-6-8.4c0-2.9,0.5-5.1,1.6-6.7s2.7-2.3,4.7-2.3c3.9,0,5.9,2.9,5.9,8.6
			c0,2.8-0.5,5-1.6,6.5C405.3,4896.6,403.8,4897.4,401.8,4897.4z M402,4882.8c-1.6,0-2.4,2-2.4,6c0,3.8,0.8,5.7,2.4,5.7
			c1.5,0,2.3-2,2.3-5.9S403.5,4882.8,402,4882.8z"/>
		<path class="st3" d="M420,4880.3v10.6h2v2.8h-2v3.4h-3.4v-3.4h-7.3v-2.9c0.6-0.7,1.3-1.5,2-2.4s1.4-1.8,2-2.7s1.3-1.8,1.8-2.8
			s1-1.8,1.4-2.7H420z M412.6,4890.9h4v-5.9c-0.3,0.5-0.6,1-0.9,1.5s-0.7,1-1,1.5s-0.7,1-1.1,1.5S412.9,4890.5,412.6,4890.9z"/>
	</g>
</g>
</svg>
