<svg xmlns="http://www.w3.org/2000/svg" width="216.321" height="202" viewBox="0 0 216.321 202">
  <g id="Grupo_11821" data-name="Grupo 11821" transform="translate(-1468.819 -1356.571)">
    <path id="Trazado_11423" data-name="Trazado 11423" d="M1579.319,1419.753c-2.6,8.829,9.493,15.181,16.3,17.072,11.616,3.226,23.287,2.282,33.611,9.775,9.114,6.615,14.338,17.72,15.421,28.929,1.023,10.584-1.231,21.765,2.874,31.574,3.371,8.054,10.485,13.808,17.154,19.444,6.744,5.7,12.63,11.631,15.669,20.071,3.379,9.384,3.93,19.165,2.826,29.031q-.242,2.16-.566,4.31h-213.7s-2.584-41.723,19.829-51.355c9.8-4.209,18.8-10.714,23.564-20.5,5.53-11.352,3.31-24.711,6.415-36.707a45.531,45.531,0,0,1,32.021-32c4.926-1.272,10.067-1.7,14.874-3.369C1573.3,1433.358,1577.1,1427.269,1579.319,1419.753Z" transform="translate(0 -34.708)" fill="#f3f7fa"/>
    <path id="Trazado_11424" data-name="Trazado 11424" d="M1587.434,1785.864s32.134-2.317,43.985-1.037,49.012-2.074,53.1,3.111-48.384,3.63-53.411,5.186-56.552-1.037-61.58-1.556S1565.756,1785.345,1587.434,1785.864Z" transform="translate(-53.978 -235.044)" fill="#7dd3e9"/>
    <g id="Grupo_11799" data-name="Grupo 11799" transform="translate(1519.523 1417.492)">
      <path id="Trazado_11425" data-name="Trazado 11425" d="M1597.948,1560.157c-1-2.388-1.672-4.54-3.492-2.7-2.851,2.881-8.962,17.586-12.217,22.735-5.224,8.262,13.659,16.407,15.945,17.325,1.573.631,4.226-1.923,5.729-3.579a3.6,3.6,0,0,0,.893-2.948C1604.007,1585.571,1601.256,1568.076,1597.948,1560.157Z" transform="translate(-1581.329 -1527.466)" fill="#e9be8f"/>
      <path id="Trazado_11426" data-name="Trazado 11426" d="M1631.564,1522.121s-.555,8.714.711,11.733,12.755.539,14.826,9.161c2.457,10.225,1.445,32.5-.612,33.2s-32.234,3.068-33.661,3.366c-4.431.926-4.948-40.231-3.366-41.158s13.578-2.769,14.37-3.672.137-10.332.137-10.332Z" transform="translate(-1596.335 -1508.435)" fill="#f0bf9c"/>
      <path id="Trazado_11427" data-name="Trazado 11427" d="M1650.759,1609.582s-2.014,76.119-2.61,78.385c-1.263,4.8-5.192-.22-6.8.238s-8.952-62.559-8.952-62.559-4.589,61.861-6.2,62.32-5.311,2.516-6.918-.239-6.395-75.622-6.624-76.77S1650.759,1609.582,1650.759,1609.582Z" transform="translate(-1598.541 -1556.48)" fill="#f0bf9c"/>
      <path id="Trazado_11428" data-name="Trazado 11428" d="M1646.881,1510.247s-5.26-1.1-7.764.374-1.379,4.381-1.933,6.864a5.538,5.538,0,0,0,1.037,4.511s2.816,2.329,4.848,2.484c.805.062,7.014-2.372,6.147-5.972C1648.312,1514.757,1649.136,1510.519,1646.881,1510.247Z" transform="translate(-1611.943 -1501.696)" fill="#f0bf9c"/>
      <path id="Trazado_11429" data-name="Trazado 11429" d="M1642.6,1522.958a9.611,9.611,0,0,0,1.3.016c.8-.036-.225-.589-.72-.606S1642.142,1522.933,1642.6,1522.958Z" transform="translate(-1614.891 -1508.571)" fill="#f4dfd1"/>
      <path id="Trazado_11430" data-name="Trazado 11430" d="M1655.814,1522.876a9.525,9.525,0,0,1-1.287.15c-.8.046.163-.609.653-.677S1656.263,1522.8,1655.814,1522.876Z" transform="translate(-1621.372 -1508.557)" fill="#f4dfd1"/>
      <path id="Trazado_11431" data-name="Trazado 11431" d="M1660.5,1527.929s.677-2.02,2.03-1.847,1.347,2.773-.52,3.165S1660.5,1527.929,1660.5,1527.929Z" transform="translate(-1624.805 -1510.605)" fill="#f0bf9c"/>
      <path id="Trazado_11432" data-name="Trazado 11432" d="M1635.94,1527.929s-.678-2.02-2.031-1.847-1.347,2.773.52,3.165S1635.94,1527.929,1635.94,1527.929Z" transform="translate(-1609.688 -1510.605)" fill="#f0bf9c"/>
      <path id="Trazado_11433" data-name="Trazado 11433" d="M1643.114,1527.881a1.333,1.333,0,0,1-.629-.165l.181-.3a.922.922,0,0,0,.641.091.947.947,0,0,0,.561-.494l.307.173a1.286,1.286,0,0,1-.781.662A1.1,1.1,0,0,1,1643.114,1527.881Z" transform="translate(-1614.924 -1511.121)" fill="#b75162"/>
      <path id="Trazado_11434" data-name="Trazado 11434" d="M1655.667,1527.517a1.164,1.164,0,0,1-.7-.209,1.28,1.28,0,0,1-.478-.783l.348-.053a.932.932,0,0,0,.339.552.948.948,0,0,0,.738.118l.062.346A1.8,1.8,0,0,1,1655.667,1527.517Z" transform="translate(-1621.521 -1510.825)" fill="#b75162"/>
      <path id="Trazado_11435" data-name="Trazado 11435" d="M1645.817,1518.3l0-.351c.03,0,2.95-.018,4.632,0l0,.351C1648.765,1518.283,1645.845,1518.3,1645.817,1518.3Z" transform="translate(-1616.753 -1506.14)" fill="#b75162"/>
      <path id="Trazado_11436" data-name="Trazado 11436" d="M1646.969,1520.548c-.117,0-.229,0-.333-.008a14.441,14.441,0,0,1-1.985-.238l.071-.344a14.579,14.579,0,0,0,1.932.231,22.076,22.076,0,0,0,3.126-.233l.05.348A25.189,25.189,0,0,1,1646.969,1520.548Z" transform="translate(-1616.114 -1507.246)" fill="#b75162"/>
      <g id="Grupo_11794" data-name="Grupo 11794" transform="translate(30.381 15.719)">
        <path id="Trazado_11437" data-name="Trazado 11437" d="M1649.728,1526.783a7.207,7.207,0,0,1,.5,1.939c-.121.272-1.382-.038-1.382-.038" transform="translate(-1648.8 -1526.715)" fill="#f0bf9c"/>
        <path id="Trazado_11438" data-name="Trazado 11438" d="M1649.775,1528.947a4.528,4.528,0,0,1-1.032-.158l.093-.378a2.93,2.93,0,0,0,1.181.119,10.478,10.478,0,0,0-.528-1.762l.365-.136a5.336,5.336,0,0,1,.5,2.086Q1650.247,1528.947,1649.775,1528.947Z" transform="translate(-1648.743 -1526.632)" fill="#312a45"/>
      </g>
      <path id="Trazado_11439" data-name="Trazado 11439" d="M1635.4,1514.851c.983.295.086-4.392,1.511-6.019s2.766.348,4.548.276,2.44-2.033,3.715-.92,1.027,5.866,1.766,6.28.783.225,1.267-1.68.264-5.869-2.11-7.381-8.755-1.53-10.752.961C1632.687,1509.676,1634.413,1514.555,1635.4,1514.851Z" transform="translate(-1610.225 -1498.681)" fill="#fffdf0"/>
      <path id="Trazado_11440" data-name="Trazado 11440" d="M1641.762,1529.409s3.3-1.768,4.185-1.533,3.183.708,3.714,1.238.118,3.183-.354,3.714a8.119,8.119,0,0,1-3.124,1.474c-1.238.354-4.3-1-4.657-1.651A4.9,4.9,0,0,1,1641.762,1529.409Z" transform="translate(-1614.302 -1511.585)" fill="#fffdf0"/>
      <path id="Trazado_11441" data-name="Trazado 11441" d="M1638.54,1531.313a.259.259,0,0,1-.2-.092l-1.886-2.24.4-.334,1.531,1.818a12.922,12.922,0,0,1,.662-2.548,18.925,18.925,0,0,0-3.13-2.546l.3-.425c1.225.858,3.292,2.38,3.367,2.938a.345.345,0,0,1-.074.27,15.226,15.226,0,0,0-.711,2.944.259.259,0,0,1-.187.206A.268.268,0,0,1,1638.54,1531.313Z" transform="translate(-1611.315 -1509.987)" fill="#fffdf0"/>
      <path id="Trazado_11442" data-name="Trazado 11442" d="M1658.711,1531.188a.335.335,0,0,1-.236-.1c-.44-.434-.013-3.355-.009-3.385.13-.842,1.792-2.193,1.981-2.344l.324.405c-.653.523-1.718,1.533-1.792,2.018a14.469,14.469,0,0,0-.16,2.814,7.764,7.764,0,0,0,1.727-1.76l.516.007c.026.533-1.9,2.272-2.3,2.339A.326.326,0,0,1,1658.711,1531.188Z" transform="translate(-1623.599 -1510.214)" fill="#fffdf0"/>
      <path id="Trazado_11443" data-name="Trazado 11443" d="M1594.138,1606.122l-.084-.38a5.131,5.131,0,0,0,3.209-2.018,6.187,6.187,0,0,1,1-1.008c.015-.012.028-.022.038-.031a21.024,21.024,0,0,0-5.105.075l-.036-.387c2.411-.229,5.33-.383,5.55.187.042.109.04.279-.213.468a5.919,5.919,0,0,0-.937.949A5.522,5.522,0,0,1,1594.138,1606.122Z" transform="translate(-1587.828 -1552.407)" fill="#312a45"/>
      <path id="Trazado_11444" data-name="Trazado 11444" d="M1679.109,1562.15c1-2.388,1.672-4.541,3.492-2.7,2.851,2.881,8.961,17.586,12.217,22.735,5.224,8.262-13.659,16.407-15.944,17.325-1.572.631-4.226-1.923-5.73-3.579a3.6,3.6,0,0,1-.892-2.948C1673.049,1587.564,1675.8,1570.069,1679.109,1562.15Z" transform="translate(-1631.254 -1528.561)" fill="#e9be8f"/>
      <path id="Trazado_11445" data-name="Trazado 11445" d="M1704.792,1608.115a5.525,5.525,0,0,1-3.422-2.146,5.912,5.912,0,0,0-.937-.949c-.253-.19-.255-.359-.213-.469.221-.57,3.14-.416,5.55-.186l-.037.387a20.893,20.893,0,0,0-5.106-.074l.039.031a6.187,6.187,0,0,1,1,1.008,5.13,5.13,0,0,0,3.21,2.018Z" transform="translate(-1646.629 -1553.501)" fill="#312a45"/>
      <g id="Grupo_11795" data-name="Grupo 11795" transform="translate(27.587 14.978)">
        <path id="Trazado_11446" data-name="Trazado 11446" d="M1642.8,1525.639a1.289,1.289,0,0,1,1.509.044" transform="translate(-1642.685 -1525.222)" fill="#f0bf9c"/>
        <path id="Trazado_11447" data-name="Trazado 11447" d="M1644.054,1525.606a1.1,1.1,0,0,0-1.279-.047l-.233-.311a1.483,1.483,0,0,1,1.739.042Z" transform="translate(-1642.543 -1524.988)" fill="#312a45"/>
      </g>
      <g id="Grupo_11796" data-name="Grupo 11796" transform="translate(33 14.734)">
        <path id="Trazado_11448" data-name="Trazado 11448" d="M1654.813,1525.1a1.287,1.287,0,0,1,1.508.044" transform="translate(-1654.696 -1524.681)" fill="#f0bf9c"/>
        <path id="Trazado_11449" data-name="Trazado 11449" d="M1656.065,1525.065a1.092,1.092,0,0,0-1.278-.046l-.233-.312a1.482,1.482,0,0,1,1.74.042Z" transform="translate(-1654.554 -1524.446)" fill="#312a45"/>
      </g>
      <path id="Trazado_11450" data-name="Trazado 11450" d="M1654.23,1641.368a.374.374,0,0,1-.191-.054c-.8-.477-1.019-5.334-1.066-6.811l.389-.012c.1,2.982.459,6.311.878,6.49.762-.389,1.727-5.024,1.49-6.452l.384-.064c.221,1.326-.645,6.328-1.712,6.861A.377.377,0,0,1,1654.23,1641.368Z" transform="translate(-1620.685 -1570.149)" fill="#312a45"/>
      <path id="Trazado_11451" data-name="Trazado 11451" d="M1691.768,1645.008a39.887,39.887,0,0,1-4.155-9.465l.378-.094a39.432,39.432,0,0,0,4.108,9.354Z" transform="translate(-1639.714 -1570.69)" fill="#312a45"/>
      <path id="Trazado_11452" data-name="Trazado 11452" d="M1613.651,1643.705l-.283-.267c.038-.041,3.856-4.125,4.079-7.911l.388.023C1617.6,1639.478,1613.812,1643.534,1613.651,1643.705Z" transform="translate(-1598.929 -1570.733)" fill="#312a45"/>
      <circle id="Elipse_650" data-name="Elipse 650" cx="3.009" cy="3.009" r="3.009" transform="translate(27.496 0)" fill="#fffdf0"/>
      <path id="Trazado_11453" data-name="Trazado 11453" d="M1649.325,1618.354s3.952,50.212,3.054,56.133-40.06,4.5-42.575,3.079-.359-53.055.359-55.66S1648.606,1616.7,1649.325,1618.354Z" transform="translate(-1596.32 -1561.013)" fill="#ff4a69"/>
      <path id="Trazado_11454" data-name="Trazado 11454" d="M1624.448,1551.345s2.768,5.626,6.077,5.79c4.312.214,4.491-6.634,6.826-6.206s8.443-.428,10.419,3.638,3.773,30.817,2.335,32.744-29.281,4.066-34.491,3.852-1.078-35.526-1.078-37.024S1623.909,1550.7,1624.448,1551.345Z" transform="translate(-1598.718 -1524.25)" fill="#fffdf0"/>
      <path id="Trazado_11455" data-name="Trazado 11455" d="M1607.1,1606.363s8.263,2.156,10.419,1.258.359-53.533-.718-54.97-8.263,0-9.341,2.874S1604.941,1606.543,1607.1,1606.363Z" transform="translate(-1594.87 -1524.896)" fill="#e9be8f"/>
      <path id="Trazado_11456" data-name="Trazado 11456" d="M1673.035,1551.835s2.156,53.712,4.67,54.97,8.982,0,9.7-1.8-3.593-47.784-5.569-50.12S1675.909,1550.937,1673.035,1551.835Z" transform="translate(-1631.706 -1524.62)" fill="#e9be8f"/>
      <path id="Trazado_11457" data-name="Trazado 11457" d="M1643.806,1561.754c-3.156,0-6.886-3.851-7.39-4.524l.311-.233c.536.714,5.329,5.6,8.38,4.075,3.115-1.558,4.02-5.4,4.03-5.438l.379.086c-.037.165-.956,4.061-4.234,5.7A3.262,3.262,0,0,1,1643.806,1561.754Z" transform="translate(-1611.59 -1526.845)" fill="#312a45"/>
      <g id="Grupo_11797" data-name="Grupo 11797" transform="translate(42.774 122.603)">
        <path id="Trazado_11458" data-name="Trazado 11458" d="M1682.972,1764.578s-.336,6.791.395,7.446c2.593,2.328,4.635,3.4,3.774,4.5s-11.271-.8-10.875-3.309c1.006-6.372.639-8.3.5-9.138S1682.972,1764.578,1682.972,1764.578Z" transform="translate(-1676.249 -1763.801)" fill="#f0bf9c"/>
        <path id="Trazado_11459" data-name="Trazado 11459" d="M1685.563,1785.122s-.231.877-2.012,1.509-7.282-2.914-7.294-2.1-.206,3.17,1.09,3.6a49.637,49.637,0,0,0,10.982.671c3.438-.493.643-1.739.084-2.1S1685.563,1785.122,1685.563,1785.122Z" transform="translate(-1676.241 -1775.124)" fill="#312a45"/>
      </g>
      <g id="Grupo_11798" data-name="Grupo 11798" transform="translate(14.172 122.603)">
        <path id="Trazado_11460" data-name="Trazado 11460" d="M1623.1,1764.578s.335,6.791-.4,7.446c-2.593,2.328-4.636,3.4-3.774,4.5s11.271-.8,10.876-3.309c-1.006-6.372-.639-8.3-.5-9.138S1623.1,1764.578,1623.1,1764.578Z" transform="translate(-1616.045 -1763.801)" fill="#f0bf9c"/>
        <path id="Trazado_11461" data-name="Trazado 11461" d="M1617.229,1785.122s.231.877,2.012,1.509,7.282-2.914,7.293-2.1.206,3.17-1.09,3.6a49.644,49.644,0,0,1-10.983.671c-3.438-.493-.642-1.739-.084-2.1S1617.229,1785.122,1617.229,1785.122Z" transform="translate(-1612.777 -1775.124)" fill="#312a45"/>
      </g>
      <path id="Trazado_11462" data-name="Trazado 11462" d="M1608.411,1593.838l-.389-.014c.079-2.115.2-3.905.313-5.485.246-3.547.409-5.89-.3-7.659-1.05-2.623,1.94-13.656,2.068-14.125l.375.1c-.031.114-3.083,11.375-2.081,13.878.74,1.853.576,4.231.325,7.831C1608.614,1589.943,1608.489,1591.73,1608.411,1593.838Z" transform="translate(-1595.878 -1532.844)" fill="#312a45"/>
      <path id="Trazado_11463" data-name="Trazado 11463" d="M1693.972,1596.763c-.531-.354-.993-5.248-1.827-16.081-.233-3.031-.434-5.648-.592-7.137a91.512,91.512,0,0,0-1.5-9.272l.38-.086a92.237,92.237,0,0,1,1.507,9.317c.157,1.494.359,4.115.593,7.148.467,6.066,1.173,15.233,1.668,15.8Z" transform="translate(-1641.055 -1531.544)" fill="#312a45"/>
      <path id="Trazado_11464" data-name="Trazado 11464" d="M1638.023,1742.521c-.772,0-1.551-.021-2.332-.069-8.454-.512-16.934-.689-17.019-.691l.008-.389c.084,0,8.572.179,17.034.692a60.861,60.861,0,0,0,15.589-1.563,21.7,21.7,0,0,1,3.068-.512v.389a21.867,21.867,0,0,0-2.991.5A67.079,67.079,0,0,1,1638.023,1742.521Z" transform="translate(-1601.843 -1628.118)" fill="#312a45"/>
    </g>
    <g id="Grupo_11800" data-name="Grupo 11800" transform="translate(1482.437 1417.786)">
      <path id="Trazado_11465" data-name="Trazado 11465" d="M1523.335,1498.361c-1.118.522.81,1.357-4.156,2.827a9.462,9.462,0,0,0-.578-.838c.485-.7.983-1.291,1.266-1.271.838.059,1.548-.449.768-1.52,0,0-1.314-1.276-2.028-.17-.474.734.6.705-.475,2.4a8.715,8.715,0,0,0-2.109-1.719c.324-1.311.908-3.362,1.413-3.48.919-.213,1.515-.992.324-1.884,0,0-1.831-.938-2.234.485-.323,1.141,1.411.343-.347,4.465a5.481,5.481,0,0,0-2.412-.434c-.072-.929-.067-1.822.186-2,.693-.475.934-1.314-.343-1.667,0,0-1.823-.183-1.695,1.128.091.93,1.026.074,1.157,2.632a4.328,4.328,0,0,0-.437.12,13.524,13.524,0,0,0-1.829.759c-.708-1.114-1.931-3.168-1.647-3.641.486-.808.34-1.778-1.128-1.543,0,0-1.947.664-1.2,1.943.613,1.055,1.264-.882,3.12,3.722a9.068,9.068,0,0,0-1.856,1.506c-.827-.694-1.68-1.506-1.61-1.856.163-.824-.251-1.593-1.411-.953,0,0-1.432,1.143-.424,1.991.752.633.793-.8,2.975,1.371a6.368,6.368,0,0,0-1.063,1.992c-.918-.184-4.191-.883-4.352-1.521-.232-.915-1.023-1.494-1.891-.286,0,0-.9,1.85.531,2.224,1.238.323.168-1.7,5.553.717a11.732,11.732,0,0,0,.052,1.707c-1.03.01-2.1-.053-2.264-.347-.417-.729-1.234-1.037-1.69.206,0,0-.33,1.8.987,1.781.975-.016.089-1.1,3.068-.923a8.771,8.771,0,0,0,.455,1.635c-.869.467-3.765,1.972-4.289,1.589-.762-.556-1.741-.5-1.638.987,0,0,.488,2,1.828,1.373,1.148-.536-.915-1.4,4.569-2.946a7.322,7.322,0,0,0,.392.622c-.55.833-1.166,1.63-1.493,1.607-.838-.059-1.548.449-.768,1.52,0,0,1.314,1.276,2.028.169.5-.777-.73-.7.686-2.718a6.993,6.993,0,0,0,2.005,1.59c-.286,1.22-.953,3.794-1.521,3.925-.919.213-1.514.992-.324,1.884,0,0,1.831.938,2.233-.485.334-1.181-1.534-.285.543-4.912a7.662,7.662,0,0,0,2.46.45c.116,1.106.173,2.368-.133,2.578-.693.475-.933,1.315.343,1.668,0,0,1.823.183,1.695-1.128-.1-.987-1.141.032-1.171-3.137a7.9,7.9,0,0,0,2.359-.547c.662,1.173,1.669,3.108,1.378,3.545-.524.785-.424,1.76,1.055,1.595,0,0,1.976-.571,1.295-1.884-.554-1.067-1.282.768-2.869-3.665a7.523,7.523,0,0,0,2-1.6c.814.581,1.589,1.224,1.555,1.551-.089.835.394,1.563,1.491.822,0,0,1.323-1.267.242-2.021-.778-.543-.723.767-2.846-.9.026-.036.054-.073.081-.11a6.915,6.915,0,0,0,.9-1.753c1.228.261,3.809.873,3.951,1.439.232.914,1.023,1.493,1.891.285,0,0,.9-1.85-.531-2.223-1.2-.313-.234,1.576-5.056-.5a6.932,6.932,0,0,0,.058-1.922c.809.02,1.521.107,1.657.343.417.729,1.234,1.037,1.69-.207,0,0,.33-1.8-.987-1.78-.9.014-.21.948-2.467.943a8.368,8.368,0,0,0-.629-1.881c1.148-.6,3.4-1.7,3.862-1.363.762.556,1.741.5,1.638-.987C1525.163,1499.733,1524.675,1497.735,1523.335,1498.361Z" transform="translate(-1499.036 -1492.403)" fill="#471e89"/>
      <path id="Trazado_11466" data-name="Trazado 11466" d="M1524.97,1508.052a1.955,1.955,0,0,1,2.747.815c1.143,1.811-1.021,2.605-2.533,1.579S1524.3,1508.292,1524.97,1508.052Z" transform="translate(-1512.889 -1500.849)" fill="#6637bf"/>
      <path id="Trazado_11467" data-name="Trazado 11467" d="M1520.437,1524.4a1.955,1.955,0,0,1,2.747.815c1.143,1.811-1.021,2.605-2.533,1.579S1519.772,1524.635,1520.437,1524.4Z" transform="translate(-1510.399 -1509.828)" fill="#6637bf"/>
      <path id="Trazado_11468" data-name="Trazado 11468" d="M1525.833,1519.752a1.132,1.132,0,0,1,1.591.472c.662,1.049-.591,1.509-1.467.914S1525.449,1519.891,1525.833,1519.752Z" transform="translate(-1513.529 -1507.34)" fill="#6637bf"/>
      <path id="Trazado_11469" data-name="Trazado 11469" d="M1532.465,1506.481a1.132,1.132,0,0,1,1.591.472c.662,1.049-.592,1.509-1.467.914S1532.08,1506.62,1532.465,1506.481Z" transform="translate(-1517.172 -1500.049)" fill="#6637bf"/>
      <path id="Trazado_11470" data-name="Trazado 11470" d="M1539.7,1527.215a1.132,1.132,0,0,1-.7,1.5c-1.135.5-1.406-.807-.689-1.585S1539.622,1526.813,1539.7,1527.215Z" transform="translate(-1520.395 -1511.25)" fill="#6637bf"/>
      <path id="Trazado_11471" data-name="Trazado 11471" d="M1536.247,1511.275a2.515,2.515,0,0,1,1.541,3.348c-.783,2.641-3.386,1.221-3.675-1.111S1535.451,1510.835,1536.247,1511.275Z" transform="translate(-1518.286 -1502.68)" fill="#6637bf"/>
    </g>
    <g id="Grupo_11801" data-name="Grupo 11801" transform="translate(1543.535 1365.859)">
      <path id="Trazado_11472" data-name="Trazado 11472" d="M1658.909,1383.138c-1.118.522.81,1.357-4.156,2.827a9.564,9.564,0,0,0-.578-.838c.485-.7.983-1.291,1.266-1.271.838.059,1.549-.449.768-1.52,0,0-1.314-1.276-2.028-.17-.474.734.6.706-.475,2.4a8.713,8.713,0,0,0-2.109-1.719c.324-1.311.908-3.362,1.413-3.479.919-.213,1.515-.992.324-1.885,0,0-1.831-.937-2.234.486-.323,1.141,1.411.343-.347,4.464a5.48,5.48,0,0,0-2.412-.434c-.072-.929-.067-1.822.186-2,.693-.475.934-1.315-.343-1.668,0,0-1.823-.183-1.695,1.128.091.931,1.026.074,1.157,2.632a4.307,4.307,0,0,0-.437.12,13.579,13.579,0,0,0-1.829.758c-.708-1.114-1.931-3.168-1.647-3.641.486-.808.34-1.778-1.128-1.543,0,0-1.947.663-1.2,1.943.613,1.055,1.264-.883,3.12,3.722a9.069,9.069,0,0,0-1.856,1.506c-.827-.694-1.68-1.506-1.61-1.857.163-.824-.251-1.593-1.411-.953,0,0-1.432,1.143-.424,1.991.753.633.793-.8,2.975,1.371a6.367,6.367,0,0,0-1.063,1.992c-.918-.184-4.191-.883-4.352-1.521-.232-.914-1.023-1.494-1.891-.285,0,0-.9,1.85.531,2.223,1.238.323.168-1.7,5.553.717a11.73,11.73,0,0,0,.052,1.707c-1.03.011-2.1-.052-2.264-.346-.417-.729-1.234-1.037-1.69.207,0,0-.33,1.8.987,1.78.975-.016.089-1.1,3.068-.923a8.8,8.8,0,0,0,.455,1.636c-.869.466-3.765,1.972-4.289,1.589-.762-.556-1.741-.5-1.638.987,0,0,.488,2,1.828,1.372,1.148-.536-.915-1.4,4.569-2.946a7.243,7.243,0,0,0,.392.621c-.55.833-1.166,1.63-1.493,1.608-.838-.059-1.548.449-.768,1.52,0,0,1.314,1.276,2.028.17.5-.777-.73-.7.687-2.718a6.985,6.985,0,0,0,2,1.59c-.286,1.221-.953,3.794-1.521,3.926-.919.213-1.514.992-.324,1.884,0,0,1.831.938,2.234-.485.334-1.181-1.534-.285.543-4.912a7.657,7.657,0,0,0,2.46.45c.116,1.106.174,2.368-.133,2.578-.693.474-.933,1.315.343,1.668,0,0,1.823.183,1.695-1.128-.1-.986-1.141.032-1.17-3.137a7.894,7.894,0,0,0,2.359-.547c.662,1.173,1.669,3.109,1.378,3.545-.524.785-.424,1.76,1.055,1.595,0,0,1.976-.571,1.295-1.884-.554-1.067-1.282.768-2.869-3.664a7.519,7.519,0,0,0,2-1.6c.813.58,1.589,1.225,1.555,1.551-.089.836.394,1.564,1.491.822,0,0,1.323-1.267.242-2.021-.778-.543-.723.767-2.846-.9.027-.037.054-.073.081-.11a6.916,6.916,0,0,0,.895-1.753c1.228.261,3.809.874,3.952,1.439.232.914,1.023,1.494,1.891.285,0,0,.9-1.85-.531-2.223-1.2-.313-.234,1.576-5.056-.5a6.933,6.933,0,0,0,.058-1.922c.809.02,1.521.107,1.657.343.417.729,1.234,1.037,1.69-.206,0,0,.33-1.8-.987-1.781-.9.015-.21.949-2.467.943a8.368,8.368,0,0,0-.629-1.881c1.148-.6,3.4-1.7,3.862-1.363.762.557,1.741.5,1.638-.986C1660.737,1384.511,1660.249,1382.512,1658.909,1383.138Z" transform="translate(-1634.61 -1377.181)" fill="#471e89"/>
      <path id="Trazado_11473" data-name="Trazado 11473" d="M1660.544,1392.829a1.955,1.955,0,0,1,2.747.815c1.143,1.811-1.021,2.605-2.533,1.579S1659.879,1393.069,1660.544,1392.829Z" transform="translate(-1648.463 -1385.627)" fill="#6637bf"/>
      <path id="Trazado_11474" data-name="Trazado 11474" d="M1656.011,1409.173a1.955,1.955,0,0,1,2.747.815c1.143,1.811-1.021,2.605-2.533,1.579S1655.346,1409.413,1656.011,1409.173Z" transform="translate(-1645.973 -1394.605)" fill="#6637bf"/>
      <path id="Trazado_11475" data-name="Trazado 11475" d="M1661.407,1404.529A1.132,1.132,0,0,1,1663,1405c.662,1.049-.591,1.509-1.467.915S1661.022,1404.668,1661.407,1404.529Z" transform="translate(-1649.103 -1392.117)" fill="#6637bf"/>
      <path id="Trazado_11476" data-name="Trazado 11476" d="M1668.039,1391.258a1.132,1.132,0,0,1,1.591.472c.662,1.049-.592,1.509-1.467.914S1667.654,1391.4,1668.039,1391.258Z" transform="translate(-1652.745 -1384.827)" fill="#6637bf"/>
      <path id="Trazado_11477" data-name="Trazado 11477" d="M1675.277,1411.992a1.132,1.132,0,0,1-.7,1.5c-1.135.5-1.406-.807-.689-1.585S1675.2,1411.591,1675.277,1411.992Z" transform="translate(-1655.969 -1396.027)" fill="#6637bf"/>
      <path id="Trazado_11478" data-name="Trazado 11478" d="M1671.821,1396.052a2.515,2.515,0,0,1,1.541,3.348c-.783,2.641-3.386,1.221-3.675-1.111S1671.025,1395.613,1671.821,1396.052Z" transform="translate(-1653.86 -1387.457)" fill="#6637bf"/>
    </g>
    <g id="Grupo_11802" data-name="Grupo 11802" transform="translate(1657.968 1455.21)">
      <path id="Trazado_11479" data-name="Trazado 11479" d="M1912.829,1581.4c-1.118.522.81,1.357-4.156,2.827a9.417,9.417,0,0,0-.578-.838c.485-.7.983-1.291,1.266-1.271.838.059,1.548-.449.768-1.52,0,0-1.314-1.276-2.028-.17-.474.734.6.706-.475,2.4a8.715,8.715,0,0,0-2.11-1.719c.324-1.311.908-3.362,1.413-3.479.919-.213,1.515-.992.324-1.885,0,0-1.831-.938-2.234.485-.323,1.141,1.411.343-.347,4.465a5.486,5.486,0,0,0-2.412-.434c-.072-.929-.067-1.822.186-2,.693-.475.933-1.315-.343-1.668,0,0-1.823-.183-1.695,1.128.091.93,1.026.074,1.157,2.632a4.433,4.433,0,0,0-.437.12,13.668,13.668,0,0,0-1.829.758c-.708-1.114-1.932-3.168-1.647-3.64.486-.808.34-1.778-1.129-1.543,0,0-1.947.663-1.2,1.943.612,1.055,1.264-.883,3.119,3.722a9.063,9.063,0,0,0-1.856,1.506c-.827-.694-1.68-1.506-1.611-1.857.164-.824-.25-1.593-1.411-.953,0,0-1.432,1.143-.424,1.991.752.633.793-.8,2.975,1.371a6.371,6.371,0,0,0-1.062,1.992c-.918-.184-4.191-.883-4.352-1.521-.232-.914-1.023-1.493-1.891-.285,0,0-.9,1.849.531,2.223,1.238.323.169-1.7,5.553.717a11.8,11.8,0,0,0,.052,1.707c-1.03.011-2.1-.053-2.263-.347-.417-.729-1.234-1.037-1.69.207,0,0-.33,1.8.987,1.781.975-.016.089-1.1,3.068-.923a8.83,8.83,0,0,0,.454,1.636c-.868.467-3.764,1.971-4.288,1.589-.762-.557-1.741-.5-1.638.987,0,0,.488,2,1.828,1.373,1.148-.536-.915-1.4,4.569-2.946a7.34,7.34,0,0,0,.392.621c-.55.833-1.166,1.631-1.493,1.608-.838-.059-1.549.449-.768,1.52,0,0,1.314,1.276,2.028.17.5-.777-.73-.7.686-2.719a6.991,6.991,0,0,0,2,1.591c-.286,1.22-.952,3.794-1.521,3.925-.919.213-1.514.992-.324,1.885,0,0,1.831.938,2.233-.485.334-1.181-1.534-.285.543-4.912a7.669,7.669,0,0,0,2.46.45c.116,1.106.173,2.368-.133,2.578-.693.475-.934,1.314.343,1.668,0,0,1.823.183,1.694-1.128-.1-.987-1.141.032-1.17-3.138a7.9,7.9,0,0,0,2.359-.547c.662,1.173,1.669,3.109,1.378,3.545-.524.785-.424,1.76,1.055,1.595,0,0,1.976-.571,1.295-1.884-.554-1.067-1.283.768-2.87-3.665a7.51,7.51,0,0,0,2-1.6c.813.581,1.589,1.225,1.555,1.551-.089.835.394,1.564,1.491.822,0,0,1.323-1.267.242-2.021-.778-.543-.723.767-2.846-.9.027-.037.055-.073.081-.11a6.921,6.921,0,0,0,.9-1.753c1.228.261,3.809.874,3.951,1.438.232.914,1.023,1.493,1.891.285,0,0,.9-1.849-.531-2.223-1.2-.313-.234,1.576-5.055-.5a6.933,6.933,0,0,0,.058-1.922c.808.02,1.521.107,1.657.343.417.729,1.234,1.037,1.69-.207,0,0,.33-1.8-.987-1.78-.9.014-.209.949-2.467.943a8.361,8.361,0,0,0-.629-1.881c1.148-.6,3.4-1.7,3.862-1.363.762.556,1.741.5,1.638-.987C1914.658,1582.776,1914.17,1580.778,1912.829,1581.4Z" transform="translate(-1888.531 -1575.446)" fill="#471e89"/>
      <path id="Trazado_11480" data-name="Trazado 11480" d="M1914.465,1591.095a1.955,1.955,0,0,1,2.747.815c1.143,1.811-1.021,2.605-2.533,1.579S1913.8,1591.335,1914.465,1591.095Z" transform="translate(-1902.383 -1583.892)" fill="#6637bf"/>
      <path id="Trazado_11481" data-name="Trazado 11481" d="M1909.932,1607.439a1.955,1.955,0,0,1,2.747.815c1.142,1.811-1.021,2.605-2.533,1.579S1909.267,1607.679,1909.932,1607.439Z" transform="translate(-1899.894 -1592.871)" fill="#6637bf"/>
      <path id="Trazado_11482" data-name="Trazado 11482" d="M1915.328,1602.8a1.132,1.132,0,0,1,1.591.472c.662,1.049-.591,1.509-1.467.914S1914.943,1602.934,1915.328,1602.8Z" transform="translate(-1903.024 -1590.383)" fill="#6637bf"/>
      <path id="Trazado_11483" data-name="Trazado 11483" d="M1921.959,1589.524a1.133,1.133,0,0,1,1.591.472c.662,1.049-.592,1.509-1.467.914S1921.574,1589.663,1921.959,1589.524Z" transform="translate(-1906.667 -1583.093)" fill="#6637bf"/>
      <path id="Trazado_11484" data-name="Trazado 11484" d="M1929.2,1610.258a1.132,1.132,0,0,1-.7,1.5c-1.135.5-1.406-.807-.689-1.585S1929.117,1609.857,1929.2,1610.258Z" transform="translate(-1909.889 -1594.293)" fill="#6637bf"/>
      <path id="Trazado_11485" data-name="Trazado 11485" d="M1925.741,1594.318a2.514,2.514,0,0,1,1.541,3.348c-.783,2.641-3.386,1.221-3.675-1.111S1924.946,1593.879,1925.741,1594.318Z" transform="translate(-1907.781 -1585.723)" fill="#6637bf"/>
    </g>
    <g id="Grupo_11803" data-name="Grupo 11803" transform="translate(1640.289 1392.048)">
      <path id="Trazado_11486" data-name="Trazado 11486" d="M1867.554,1439.768c-.84.392.609,1.019-3.122,2.123a7.106,7.106,0,0,0-.434-.63c.365-.525.738-.97.951-.955.629.044,1.163-.338.577-1.141,0,0-.987-.959-1.524-.128-.357.551.449.53-.357,1.8a6.551,6.551,0,0,0-1.585-1.291c.243-.984.682-2.526,1.061-2.614.691-.16,1.138-.745.244-1.416,0,0-1.375-.7-1.678.365-.242.857,1.06.257-.26,3.354a4.11,4.11,0,0,0-1.813-.326c-.054-.7-.05-1.369.14-1.5.521-.357.7-.988-.258-1.253,0,0-1.369-.137-1.273.848.068.7.771.055.869,1.978a3.2,3.2,0,0,0-.328.09,10.163,10.163,0,0,0-1.374.57c-.532-.837-1.451-2.38-1.237-2.735.365-.608.255-1.336-.848-1.16,0,0-1.462.5-.9,1.46.46.792.949-.663,2.344,2.8a6.812,6.812,0,0,0-1.394,1.131c-.621-.521-1.262-1.131-1.21-1.394.123-.619-.188-1.2-1.06-.716,0,0-1.075.858-.318,1.5.565.475.6-.6,2.234,1.03a4.8,4.8,0,0,0-.8,1.5c-.689-.138-3.148-.664-3.269-1.143-.174-.687-.769-1.122-1.421-.214,0,0-.676,1.389.4,1.67.93.243.126-1.28,4.171.539a8.882,8.882,0,0,0,.039,1.282c-.774.008-1.574-.04-1.7-.26-.313-.548-.927-.779-1.27.155,0,0-.248,1.354.741,1.338.732-.012.066-.829,2.3-.693a6.678,6.678,0,0,0,.342,1.229c-.653.351-2.828,1.481-3.222,1.193-.572-.418-1.308-.373-1.23.741,0,0,.366,1.5,1.373,1.031.863-.4-.687-1.053,3.432-2.213q.138.244.295.467c-.414.626-.876,1.225-1.122,1.208-.63-.044-1.163.338-.577,1.142,0,0,.987.958,1.524.127.377-.584-.548-.525.516-2.042a5.256,5.256,0,0,0,1.506,1.195c-.215.917-.716,2.85-1.142,2.949-.69.16-1.138.745-.243,1.416,0,0,1.375.7,1.678-.365.251-.887-1.153-.214.408-3.69a5.748,5.748,0,0,0,1.848.338c.087.831.13,1.779-.1,1.937-.521.357-.7.988.258,1.253,0,0,1.369.137,1.273-.847-.073-.741-.857.024-.879-2.357a5.94,5.94,0,0,0,1.772-.41c.5.881,1.254,2.335,1.035,2.663-.394.589-.319,1.322.792,1.2,0,0,1.484-.429.972-1.415-.416-.8-.963.577-2.156-2.753a5.646,5.646,0,0,0,1.5-1.2c.611.436,1.194.92,1.168,1.165-.067.628.3,1.174,1.12.617,0,0,.994-.952.182-1.518-.584-.408-.543.576-2.138-.678.02-.027.041-.055.061-.083a5.189,5.189,0,0,0,.672-1.317c.922.2,2.861.656,2.969,1.081.174.687.768,1.122,1.42.215,0,0,.676-1.39-.4-1.67-.9-.235-.176,1.183-3.8-.375a5.2,5.2,0,0,0,.044-1.444c.608.015,1.143.08,1.245.258.313.548.927.779,1.27-.155,0,0,.248-1.353-.741-1.338-.678.011-.158.713-1.854.709a6.257,6.257,0,0,0-.472-1.414c.863-.448,2.558-1.275,2.9-1.024.572.418,1.308.374,1.23-.741C1868.927,1440.8,1868.561,1439.3,1867.554,1439.768Z" transform="translate(-1849.301 -1435.292)" fill="#471e89"/>
      <path id="Trazado_11487" data-name="Trazado 11487" d="M1868.782,1447.047a1.468,1.468,0,0,1,2.064.612c.858,1.36-.767,1.957-1.9,1.186S1868.283,1447.227,1868.782,1447.047Z" transform="translate(-1859.707 -1441.637)" fill="#6637bf"/>
      <path id="Trazado_11488" data-name="Trazado 11488" d="M1865.378,1459.325a1.469,1.469,0,0,1,2.064.612c.858,1.36-.768,1.957-1.9,1.186S1864.878,1459.505,1865.378,1459.325Z" transform="translate(-1857.837 -1448.381)" fill="#6637bf"/>
      <path id="Trazado_11489" data-name="Trazado 11489" d="M1869.431,1455.837a.85.85,0,0,1,1.2.354c.5.788-.444,1.133-1.1.687S1869.142,1455.941,1869.431,1455.837Z" transform="translate(-1860.188 -1446.513)" fill="#6637bf"/>
      <path id="Trazado_11490" data-name="Trazado 11490" d="M1874.413,1445.867a.85.85,0,0,1,1.2.355c.5.788-.444,1.133-1.1.687S1874.124,1445.972,1874.413,1445.867Z" transform="translate(-1862.924 -1441.036)" fill="#6637bf"/>
      <path id="Trazado_11491" data-name="Trazado 11491" d="M1879.85,1461.443a.85.85,0,0,1-.526,1.13c-.852.376-1.056-.606-.517-1.191S1879.789,1461.142,1879.85,1461.443Z" transform="translate(-1865.345 -1449.45)" fill="#6637bf"/>
      <path id="Trazado_11492" data-name="Trazado 11492" d="M1877.254,1449.469a1.889,1.889,0,0,1,1.157,2.515c-.588,1.984-2.544.917-2.76-.835S1876.656,1449.138,1877.254,1449.469Z" transform="translate(-1863.762 -1443.012)" fill="#6637bf"/>
    </g>
    <g id="Grupo_11804" data-name="Grupo 11804" transform="translate(1579.251 1356.571)">
      <path id="Trazado_11493" data-name="Trazado 11493" d="M1745.48,1402.859s-34.21,8.307-31.461,8.287,32.029-5.725,32.029-5.725Z" transform="translate(-1713.861 -1381.998)" fill="#ededed"/>
      <path id="Trazado_11494" data-name="Trazado 11494" d="M1791.837,1392.042l-9.8,2.177,1.981,7.556,10.122-1.837Z" transform="translate(-1751.312 -1376.056)" fill="#22253e"/>
      <path id="Trazado_11495" data-name="Trazado 11495" d="M1838.435,1367.856s-41.771,7.316-41.89,8.189,1.487,12.593,2.614,13.457,42.016-7.558,42.016-7.558Z" transform="translate(-1759.279 -1362.77)" fill="#ededed"/>
      <path id="Trazado_11496" data-name="Trazado 11496" d="M1888.5,1357.491s6.5,20.266,3.4,22.781S1881.845,1350.809,1888.5,1357.491Z" transform="translate(-1808.266 -1356.571)" fill="#ededed"/>
      <path id="Trazado_11497" data-name="Trazado 11497" d="M1880.166,1369.93s13.562-2.963,14.435-2.844-.019-8.252,2.466-3.756c.972,1.759,3.327,12.189,1.831,12.075s-3.142-3.716-3.142-3.716l-13.8,4.086Z" transform="translate(-1805.218 -1359.554)" fill="#ededed"/>
      <path id="Trazado_11498" data-name="Trazado 11498" d="M1805.436,1396.254s-2.821-14.454-3.322-14.437-7.973,1.6-7.789,2.1,2.637,13.959,3.138,13.942S1805.436,1396.254,1805.436,1396.254Z" transform="translate(-1758.061 -1370.439)" fill="#ff4a69"/>
      <rect id="Rectángulo_2982" data-name="Rectángulo 2982" width="1.746" height="5.936" transform="matrix(0.984, -0.178, 0.178, 0.984, 47.128, 11.014)" fill="#22253e"/>
      <rect id="Rectángulo_2983" data-name="Rectángulo 2983" width="1.746" height="5.937" transform="matrix(0.984, -0.178, 0.178, 0.984, 52.834, 9.848)" fill="#22253e"/>
      <rect id="Rectángulo_2984" data-name="Rectángulo 2984" width="1.746" height="5.936" transform="matrix(0.984, -0.178, 0.178, 0.984, 58.448, 8.771)" fill="#22253e"/>
      <rect id="Rectángulo_2985" data-name="Rectángulo 2985" width="1.746" height="5.938" transform="matrix(0.984, -0.178, 0.178, 0.984, 63.968, 7.874)" fill="#22253e"/>
      <rect id="Rectángulo_2986" data-name="Rectángulo 2986" width="1.746" height="5.938" transform="matrix(0.984, -0.178, 0.178, 0.984, 69.855, 6.711)" fill="#22253e"/>
    </g>
    <g id="Grupo_11806" data-name="Grupo 11806" transform="translate(1493.117 1408.999)">
      <g id="Grupo_11805" data-name="Grupo 11805" transform="translate(0)">
        <path id="Trazado_11499" data-name="Trazado 11499" d="M1800.265,1517.807s.588-1.989.813-1.718.588,1.492.723,1.582,1.537.316,1.537.542-1.537.678-1.537.678-.5,1.943-.678,1.763a14.354,14.354,0,0,1-.813-1.808s-1.446-.181-1.536-.362C1798.651,1518.239,1800.265,1517.807,1800.265,1517.807Z" transform="translate(-1674.37 -1496.614)" fill="#7dd3e9"/>
        <path id="Trazado_11500" data-name="Trazado 11500" d="M1574.234,1656.218s.588-1.989.814-1.718.587,1.491.723,1.582,1.537.316,1.537.542-1.537.678-1.537.678-.5,1.943-.678,1.763a14.347,14.347,0,0,1-.813-1.808s-1.447-.181-1.537-.361C1572.62,1656.649,1574.234,1656.218,1574.234,1656.218Z" transform="translate(-1550.203 -1572.648)" fill="#7dd3e9"/>
        <path id="Trazado_11501" data-name="Trazado 11501" d="M1650.13,1474.649s.588-1.988.813-1.717.588,1.492.723,1.582,1.536.316,1.536.542-1.536.678-1.536.678-.5,1.944-.678,1.762a14.351,14.351,0,0,1-.813-1.808s-1.446-.181-1.537-.361C1648.515,1475.081,1650.13,1474.649,1650.13,1474.649Z" transform="translate(-1591.895 -1472.906)" fill="#7dd3e9"/>
        <path id="Trazado_11502" data-name="Trazado 11502" d="M1851.159,1680.12s.588-1.988.814-1.718.587,1.492.723,1.582,1.537.316,1.537.543-1.537.678-1.537.678-.5,1.944-.678,1.762a14.354,14.354,0,0,1-.813-1.808s-1.447-.181-1.537-.361C1849.545,1680.552,1851.159,1680.12,1851.159,1680.12Z" transform="translate(-1702.327 -1585.778)" fill="#7dd3e9"/>
        <path id="Trazado_11503" data-name="Trazado 11503" d="M1524.234,1745.218s.588-1.989.814-1.718.587,1.491.723,1.582,1.537.316,1.537.542-1.537.678-1.537.678-.5,1.943-.678,1.763a14.347,14.347,0,0,1-.813-1.808s-1.447-.181-1.537-.361C1522.62,1745.649,1524.234,1745.218,1524.234,1745.218Z" transform="translate(-1522.736 -1621.539)" fill="#7dd3e9"/>
        <path id="Trazado_11504" data-name="Trazado 11504" d="M1699.566,1501.63s.588-1.989.813-1.718.588,1.491.723,1.582,1.537.316,1.537.542-1.537.678-1.537.678-.5,1.943-.678,1.763a14.3,14.3,0,0,1-.814-1.808s-1.446-.181-1.536-.361C1697.952,1502.062,1699.566,1501.63,1699.566,1501.63Z" transform="translate(-1619.052 -1487.728)" fill="#7dd3e9"/>
        <path id="Trazado_11505" data-name="Trazado 11505" d="M1894.159,1742.12s.588-1.988.814-1.718.587,1.492.723,1.582,1.537.316,1.537.543-1.537.678-1.537.678-.5,1.944-.678,1.762a14.354,14.354,0,0,1-.813-1.808s-1.447-.181-1.537-.361C1892.545,1742.552,1894.159,1742.12,1894.159,1742.12Z" transform="translate(-1725.949 -1619.837)" fill="#7dd3e9"/>
        <path id="Trazado_11506" data-name="Trazado 11506" d="M1571.8,1709.906s.4-1.343.549-1.16.4,1.007.489,1.068,1.038.214,1.038.366-1.038.458-1.038.458-.336,1.312-.458,1.19a9.688,9.688,0,0,1-.549-1.221s-.977-.122-1.038-.244C1570.707,1710.2,1571.8,1709.906,1571.8,1709.906Z" transform="translate(-1549.131 -1602.452)" fill="#7dd3e9"/>
        <path id="Trazado_11507" data-name="Trazado 11507" d="M1639.723,1494.339s.4-1.343.549-1.16.4,1.007.488,1.068,1.038.214,1.038.366-1.038.458-1.038.458-.336,1.312-.458,1.19a9.688,9.688,0,0,1-.549-1.221s-.977-.122-1.038-.244C1638.633,1494.631,1639.723,1494.339,1639.723,1494.339Z" transform="translate(-1586.445 -1484.033)" fill="#7dd3e9"/>
        <path id="Trazado_11508" data-name="Trazado 11508" d="M1716.856,1522.523s.4-1.343.55-1.16.4,1.007.488,1.068,1.038.214,1.038.366-1.038.458-1.038.458-.336,1.312-.458,1.191a9.681,9.681,0,0,1-.549-1.221s-.977-.122-1.038-.244C1715.766,1522.815,1716.856,1522.523,1716.856,1522.523Z" transform="translate(-1628.817 -1499.516)" fill="#7dd3e9"/>
        <path id="Trazado_11509" data-name="Trazado 11509" d="M1818.662,1499.586s.4-1.343.549-1.16.4,1.007.488,1.068,1.038.214,1.038.366-1.038.458-1.038.458-.336,1.312-.458,1.19a9.7,9.7,0,0,1-.549-1.221s-.977-.122-1.038-.244C1817.572,1499.878,1818.662,1499.586,1818.662,1499.586Z" transform="translate(-1684.743 -1486.916)" fill="#7dd3e9"/>
        <path id="Trazado_11510" data-name="Trazado 11510" d="M1864.752,1664.81s.4-1.343.549-1.16.4,1.007.489,1.068,1.038.214,1.038.366-1.038.458-1.038.458-.336,1.313-.458,1.19a9.681,9.681,0,0,1-.549-1.221s-.977-.122-1.038-.244C1863.662,1665.1,1864.752,1664.81,1864.752,1664.81Z" transform="translate(-1710.061 -1577.679)" fill="#7dd3e9"/>
        <path id="Trazado_11511" data-name="Trazado 11511" d="M1843.752,1726.81s.4-1.343.549-1.16.4,1.007.489,1.068,1.038.214,1.038.366-1.038.458-1.038.458-.336,1.312-.458,1.19a9.678,9.678,0,0,1-.549-1.221s-.977-.122-1.038-.244C1842.662,1727.1,1843.752,1726.81,1843.752,1726.81Z" transform="translate(-1698.525 -1611.738)" fill="#7dd3e9"/>
        <path id="Trazado_11512" data-name="Trazado 11512" d="M1585.344,1746.309s.4-1.343.549-1.16.4,1.007.488,1.069,1.038.214,1.038.366-1.038.458-1.038.458-.336,1.312-.458,1.191a9.671,9.671,0,0,1-.549-1.221s-.977-.122-1.037-.244C1584.253,1746.6,1585.344,1746.309,1585.344,1746.309Z" transform="translate(-1556.573 -1622.449)" fill="#7dd3e9"/>
      </g>
    </g>
    <g id="Grupo_11820" data-name="Grupo 11820" transform="translate(1534.057 1411.363)">
      <path id="Trazado_11513" data-name="Trazado 11513" d="M1710.421,1555.936s5.226-13.6,7.022-14.319,2.874,17.245,2.515,19.58S1709.686,1561.093,1710.421,1555.936Z" transform="translate(-1666.756 -1513.004)" fill="#0f94a5"/>
      <g id="Grupo_11812" data-name="Grupo 11812" transform="translate(41.15 0)">
        <path id="Trazado_11514" data-name="Trazado 11514" d="M1750.582,1491.785s-.938-.134-.8-2.77.085-4.169.894-5.765c1.728-3.409,8.088-3.843,9.16-4.871s2.056,1.7,1.251,2.368c0,0,1.608-1.877,2.056-1.3a3.794,3.794,0,0,1-.045,2.9s1.072-1.206,1.474-.581.357,2.457-.581,3.038c0,0,.224,2.1.536,4.156s-1.7,5.317-3.62,5.362S1751.342,1494.02,1750.582,1491.785Z" transform="translate(-1729.54 -1478.151)" fill="#312a45"/>
        <g id="Grupo_11807" data-name="Grupo 11807" transform="translate(3.82 136.204)">
          <path id="Trazado_11515" data-name="Trazado 11515" d="M1727.315,1781.7s-.319,4.246-.787,5.019-11.831.8-13.018.4,5.158-3.651,5.824-4.485a3.57,3.57,0,0,0,.515-2.253Z" transform="translate(-1713.363 -1780.379)" fill="#78a5a3"/>
          <path id="Trazado_11516" data-name="Trazado 11516" d="M1720.619,1790.18a4.559,4.559,0,0,0-1.243-2.119l.356-.377a5.014,5.014,0,0,1,1.4,2.41Z" transform="translate(-1716.666 -1784.392)" fill="#312a45"/>
          <path id="Trazado_11517" data-name="Trazado 11517" d="M1724.039,1788.985a11.917,11.917,0,0,0-1.743-2.159l.365-.369a12.147,12.147,0,0,1,1.84,2.292Z" transform="translate(-1718.27 -1783.718)" fill="#312a45"/>
          <path id="Trazado_11518" data-name="Trazado 11518" d="M1726.994,1787.125a7.63,7.63,0,0,0-1.77-2.215l.342-.389a7.931,7.931,0,0,1,1.919,2.436Z" transform="translate(-1719.879 -1782.655)" fill="#312a45"/>
        </g>
        <g id="Grupo_11808" data-name="Grupo 11808" transform="translate(29.221 136.204)">
          <path id="Trazado_11519" data-name="Trazado 11519" d="M1783.678,1781.7s-.319,4.246-.786,5.019-11.831.8-13.018.4,5.158-3.651,5.824-4.485a3.572,3.572,0,0,0,.515-2.253Z" transform="translate(-1769.726 -1780.379)" fill="#78a5a3"/>
          <path id="Trazado_11520" data-name="Trazado 11520" d="M1776.982,1790.18a4.555,4.555,0,0,0-1.242-2.119l.356-.377a5.015,5.015,0,0,1,1.4,2.41Z" transform="translate(-1773.03 -1784.392)" fill="#312a45"/>
          <path id="Trazado_11521" data-name="Trazado 11521" d="M1780.4,1788.985a11.911,11.911,0,0,0-1.743-2.159l.365-.369a12.119,12.119,0,0,1,1.84,2.292Z" transform="translate(-1774.634 -1783.718)" fill="#312a45"/>
          <path id="Trazado_11522" data-name="Trazado 11522" d="M1783.357,1787.125a7.627,7.627,0,0,0-1.77-2.215l.342-.389a7.928,7.928,0,0,1,1.919,2.436Z" transform="translate(-1776.242 -1782.655)" fill="#312a45"/>
        </g>
        <path id="Trazado_11523" data-name="Trazado 11523" d="M1739.219,1503.13s1.2,9.792-.068,12.812-11.43-1.16-13.961,9.047,8.828,11.033,10.885,11.735,11.426-.3,12.853,0c4.432.926,12.292-14.68,10.71-15.607s-11.542-4.048-12.333-4.952-.491-10.736-.491-10.736Z" transform="translate(-1715.84 -1491.873)" fill="#f0bf9c"/>
        <path id="Trazado_11524" data-name="Trazado 11524" d="M1754.462,1491.256s5.26-1.1,7.764.374,1.379,4.381,1.933,6.864a5.537,5.537,0,0,1-1.037,4.511s-2.816,2.329-4.848,2.485c-.806.061-7.014-2.372-6.147-5.972C1753.031,1495.766,1752.208,1491.528,1754.462,1491.256Z" transform="translate(-1730.792 -1485.133)" fill="#f0bf9c"/>
        <path id="Trazado_11525" data-name="Trazado 11525" d="M1772.073,1503.251a12.322,12.322,0,0,1-1.67-.074c-1.023-.1.333-.742.97-.727S1772.659,1503.252,1772.073,1503.251Z" transform="translate(-1740.674 -1491.499)" fill="#312a45"/>
        <path id="Trazado_11526" data-name="Trazado 11526" d="M1756.871,1503.01a12.277,12.277,0,0,0,1.671-.027c1.025-.076-.312-.751-.95-.754S1756.285,1502.995,1756.871,1503.01Z" transform="translate(-1733.32 -1491.378)" fill="#312a45"/>
        <path id="Trazado_11527" data-name="Trazado 11527" d="M1752.093,1508.938s-.677-2.02-2.031-1.847-1.347,2.773.52,3.165S1752.093,1508.938,1752.093,1508.938Z" transform="translate(-1729.179 -1494.043)" fill="#f0bf9c"/>
        <path id="Trazado_11528" data-name="Trazado 11528" d="M1776.652,1508.938s.678-2.02,2.031-1.847,1.347,2.773-.52,3.165S1776.652,1508.938,1776.652,1508.938Z" transform="translate(-1744.295 -1494.043)" fill="#f0bf9c"/>
        <g id="Grupo_11809" data-name="Grupo 11809" transform="translate(26.594 13.29)">
          <path id="Trazado_11529" data-name="Trazado 11529" d="M1764.833,1507.792a7.2,7.2,0,0,0-.5,1.939c.121.272,1.382-.038,1.382-.038" transform="translate(-1764.128 -1507.724)" fill="#f0bf9c"/>
          <path id="Trazado_11530" data-name="Trazado 11530" d="M1764.5,1509.956c-.314,0-.506-.076-.574-.229a5.336,5.336,0,0,1,.5-2.086l.365.136a7.363,7.363,0,0,0-.5,1.8,4.479,4.479,0,0,0,1.155-.158l.093.378A4.556,4.556,0,0,1,1764.5,1509.956Z" transform="translate(-1763.897 -1507.641)" fill="#312a45"/>
        </g>
        <path id="Trazado_11531" data-name="Trazado 11531" d="M1764.07,1510.418s-3.3-1.768-4.185-1.533-3.183.707-3.714,1.238-.118,3.183.354,3.714a8.122,8.122,0,0,0,3.125,1.474c1.237.354,4.3-1,4.657-1.651A4.895,4.895,0,0,0,1764.07,1510.418Z" transform="translate(-1732.922 -1495.023)" fill="#fffdf0"/>
        <path id="Trazado_11532" data-name="Trazado 11532" d="M1773.254,1512.322a.27.27,0,0,1-.068-.009.259.259,0,0,1-.187-.207,15.155,15.155,0,0,0-.711-2.944.347.347,0,0,1-.074-.27c.074-.558,2.142-2.08,3.367-2.938l.3.425a18.94,18.94,0,0,0-3.129,2.546,12.912,12.912,0,0,1,.662,2.548l1.531-1.819.4.334-1.886,2.24A.261.261,0,0,1,1773.254,1512.322Z" transform="translate(-1741.87 -1493.425)" fill="#fffdf0"/>
        <path id="Trazado_11533" data-name="Trazado 11533" d="M1754.158,1512.2a.377.377,0,0,1-.055,0c-.4-.067-2.323-1.807-2.3-2.339l.518.026a8.2,8.2,0,0,0,1.726,1.726,14.247,14.247,0,0,0-.16-2.812c-.075-.485-1.139-1.5-1.792-2.018l.324-.405c.189.151,1.851,1.5,1.981,2.344,0,.03.43,2.951-.009,3.385A.334.334,0,0,1,1754.158,1512.2Z" transform="translate(-1730.661 -1493.652)" fill="#fffdf0"/>
        <g id="Grupo_11810" data-name="Grupo 11810" transform="translate(29.282 12.549)">
          <path id="Trazado_11534" data-name="Trazado 11534" d="M1771.624,1506.648a1.287,1.287,0,0,0-1.508.044" transform="translate(-1770.002 -1506.231)" fill="#f0bf9c"/>
          <path id="Trazado_11535" data-name="Trazado 11535" d="M1770.091,1506.615l-.228-.315a1.484,1.484,0,0,1,1.739-.042l-.233.312A1.089,1.089,0,0,0,1770.091,1506.615Z" transform="translate(-1769.863 -1505.997)" fill="#312a45"/>
        </g>
        <g id="Grupo_11811" data-name="Grupo 11811" transform="translate(23.869 12.305)">
          <path id="Trazado_11536" data-name="Trazado 11536" d="M1759.613,1506.106a1.288,1.288,0,0,0-1.509.045" transform="translate(-1757.99 -1505.69)" fill="#f0bf9c"/>
          <path id="Trazado_11537" data-name="Trazado 11537" d="M1758.08,1506.074l-.228-.315a1.482,1.482,0,0,1,1.739-.042l-.232.312A1.09,1.09,0,0,0,1758.08,1506.074Z" transform="translate(-1757.852 -1505.455)" fill="#312a45"/>
        </g>
        <path id="Trazado_11538" data-name="Trazado 11538" d="M1748.556,1627.3s7.006,66.116,3.413,68.44-19.76.775-19.76.775-2.874-55.778-3.952-56.165-3.234,24.016-3.234,28.276c0,5.05,2.155,25.565.359,26.727s-14.73,2.324-16.168.775-3.952-21.691-4.312-27.889,5.39-37.573,6.467-40.671S1748.556,1627.3,1748.556,1627.3Z" transform="translate(-1704.887 -1559.432)" fill="#ffcd0d"/>
        <path id="Trazado_11539" data-name="Trazado 11539" d="M1751.961,1494.724s.323-5.174,2.069-5.044,2.651,1.488,4.527.97,2.522-1.423,3.492-.712,1.358,2.845,1.617,3.622,1.94-2.134-.194-4.591-4.333-2.975-7.567-2.069S1749.956,1491.749,1751.961,1494.724Z" transform="translate(-1730.37 -1482.728)" fill="#312a45"/>
        <path id="Trazado_11540" data-name="Trazado 11540" d="M1733.452,1534.084s.674,5.524,4.042,6.2,5.658-6.736,7.545-6.332,10.1,2.2,12.126,3.279.674,38.488-.539,40.24-33.413-.4-37.994,0,0-35.165,1.078-38.263S1724.1,1535.083,1733.452,1534.084Z" transform="translate(-1711.34 -1508.794)" fill="#0f94a5"/>
        <path id="Trazado_11541" data-name="Trazado 11541" d="M1799.573,1709.654c-.143-1.817-3.5-44.552-2.693-49.909l.512.077c-.795,5.3,2.662,49.347,2.7,49.791Z" transform="translate(-1755.354 -1577.907)" fill="#312a45"/>
        <path id="Trazado_11542" data-name="Trazado 11542" d="M1782.706,1771.927c-5.487,0-13.726-.34-13.83-.344l.022-.519c.129.006,12.971.536,17.219.27l.032.518C1785.29,1771.906,1784.085,1771.927,1782.706,1771.927Z" transform="translate(-1740.038 -1639.059)" fill="#312a45"/>
        <path id="Trazado_11543" data-name="Trazado 11543" d="M1725.212,1772.349c-4.219,0-9.007-.264-9.309-.281l.029-.517c.111.006,11.2.618,14.588,0l.093.51A35.921,35.921,0,0,1,1725.212,1772.349Z" transform="translate(-1710.939 -1639.325)" fill="#312a45"/>
        <path id="Trazado_11544" data-name="Trazado 11544" d="M1741.786,1707.422c-.015-.156-1.576-15.671-2.093-22.294-.533-6.817,4.4-21.914,5.49-23.4l.418.307c-1.073,1.464-5.917,16.33-5.392,23.056.518,6.618,2.077,22.127,2.093,22.283Z" transform="translate(-1723.985 -1578.994)" fill="#312a45"/>
        <path id="Trazado_11545" data-name="Trazado 11545" d="M1754.22,1646.549c-.613-.2-2.461-5.375-1.844-7.843l.5.126c-.508,2.032.82,5.857,1.39,6.973.315-.987.944-3.966,1.453-6.665l.509.1c-1.323,7.021-1.663,7.222-1.776,7.287Z" transform="translate(-1730.906 -1566.349)" fill="#312a45"/>
        <path id="Trazado_11546" data-name="Trazado 11546" d="M1795.618,1646c-6.84-2.138-5.424-9.744-5.409-9.821l.509.1a10.6,10.6,0,0,0,.107,3.886,6.854,6.854,0,0,0,4.947,5.339Z" transform="translate(-1751.686 -1564.962)" fill="#312a45"/>
      </g>
      <g id="Grupo_11819" data-name="Grupo 11819" transform="translate(0 38.958)">
        <path id="Trazado_11547" data-name="Trazado 11547" d="M1687.671,1564.8s2.541-.552,5.855,2.32.663,8.065,2.32,9.722,2.651,2.431,2.21,4.419,1.657.332,2.983,4.309.994,5.966-5.966,8.507a22.76,22.76,0,0,1-20.218-2.21c-5.745-3.756,1.436-6.518,1.215-8.4s-.994-4.53.221-6.3,2.43-2.983,2.21-5.193S1680.932,1563.368,1687.671,1564.8Z" transform="translate(-1646.013 -1564.596)" fill="#312a45"/>
        <path id="Trazado_11548" data-name="Trazado 11548" d="M1638.855,1599.641s-8.641,4.248-9.911,4.2-6.4-15.8-7.082-17.021,0-4.933-.452-4.468-1.282,3.965-1.282,3.965-.662-4.324-1.289-3.892-.156,3.808-.156,3.808-2.382-3.912-2.787-2.708.891,3.087.891,3.087-3.462-3.015-3.193-1.5,2.179,2.047,2.736,3.977,3.484,16.721,6.2,21.791,15.334-1.914,17.166-1.94S1638.855,1599.641,1638.855,1599.641Z" transform="translate(-1613.578 -1574.326)" fill="#f0bf9c"/>
        <g id="Grupo_11813" data-name="Grupo 11813" transform="translate(59.715 94.059)">
          <path id="Trazado_11549" data-name="Trazado 11549" d="M1751.2,1773.307a20.282,20.282,0,0,1,2.477,3.325c.184.714-6.289,7.357-7.2,7.818s.818-5.093.712-5.958a2.916,2.916,0,0,0-1.02-1.587Z" transform="translate(-1746.125 -1773.307)" fill="#ce5a71"/>
          <path id="Trazado_11550" data-name="Trazado 11550" d="M1748.018,1790.778a3.689,3.689,0,0,0-1.916-.477l-.02-.519a4.178,4.178,0,0,1,2.233.57Z" transform="translate(-1746.081 -1782.357)" fill="#312a45"/>
          <path id="Trazado_11551" data-name="Trazado 11551" d="M1749.3,1788.1a9.694,9.694,0,0,0-2.239-.214l-.008-.519a10.09,10.09,0,0,1,2.4.238Z" transform="translate(-1746.612 -1781.032)" fill="#312a45"/>
          <path id="Trazado_11552" data-name="Trazado 11552" d="M1749.874,1785.308a5.894,5.894,0,0,0-2.279-.228l-.038-.517a6.551,6.551,0,0,1,2.541.278Z" transform="translate(-1746.892 -1779.479)" fill="#312a45"/>
        </g>
        <g id="Grupo_11814" data-name="Grupo 11814" transform="translate(20.189 98.548)">
          <path id="Trazado_11553" data-name="Trazado 11553" d="M1669.765,1784.346a20.289,20.289,0,0,1-.642,4.1c-.382.631-9.657.656-10.626.326s4.21-2.981,4.754-3.661a2.913,2.913,0,0,0,.42-1.839Z" transform="translate(-1658.377 -1783.268)" fill="#ce5a71"/>
          <path id="Trazado_11554" data-name="Trazado 11554" d="M1664.213,1791.234a3.671,3.671,0,0,0-1-1.7l.356-.377a4.146,4.146,0,0,1,1.156,1.994Z" transform="translate(-1661.033 -1786.501)" fill="#312a45"/>
          <path id="Trazado_11555" data-name="Trazado 11555" d="M1667.008,1790.274a9.663,9.663,0,0,0-1.414-1.75l.365-.369a9.958,9.958,0,0,1,1.511,1.883Z" transform="translate(-1662.341 -1785.953)" fill="#312a45"/>
          <path id="Trazado_11556" data-name="Trazado 11556" d="M1669.419,1788.746a5.931,5.931,0,0,0-1.431-1.787l.342-.389a6.532,6.532,0,0,1,1.58,2.009Z" transform="translate(-1663.656 -1785.082)" fill="#312a45"/>
        </g>
        <path id="Trazado_11557" data-name="Trazado 11557" d="M1667.866,1685.142s-.991,43.992.539,44.91,4.869,1.308,6.4.39,4.9-39.079,2.763-41.527S1667.866,1685.142,1667.866,1685.142Z" transform="translate(-1643.227 -1630.816)" fill="#f0bf9c"/>
        <path id="Trazado_11558" data-name="Trazado 11558" d="M1699.343,1670.744s.385,17.306,2.227,23.269,16.773,25.794,18.873,25.271,4.948-1.3,5.128-2.553-12.419-21.66-12.4-24.431-1.5-20.348-2.695-22.994S1699.343,1670.744,1699.343,1670.744Z" transform="translate(-1660.692 -1621.627)" fill="#f0bf9c"/>
        <path id="Trazado_11559" data-name="Trazado 11559" d="M1677.983,1583.1s1.1,8.981-.062,11.751-10.483-1.064-12.8,8.3,8.1,10.119,9.984,10.763,10.479-.273,11.787,0c4.065.85,11.274-13.464,9.823-14.313s-10.586-3.713-11.311-4.542-.45-9.847-.45-9.847Z" transform="translate(-1641.706 -1574.763)" fill="#f0bf9c"/>
        <path id="Trazado_11560" data-name="Trazado 11560" d="M1691.963,1572.214s4.824-1.009,7.121.343,1.265,4.019,1.772,6.3a5.079,5.079,0,0,1-.951,4.137s-2.583,2.136-4.446,2.279c-.739.056-6.433-2.175-5.638-5.477C1690.651,1576.35,1689.9,1572.463,1691.963,1572.214Z" transform="translate(-1655.419 -1568.582)" fill="#f0bf9c"/>
        <path id="Trazado_11561" data-name="Trazado 11561" d="M1707.769,1583.632a8.751,8.751,0,0,1-1.189.015c-.73-.033.207-.54.66-.556S1708.185,1583.609,1707.769,1583.632Z" transform="translate(-1664.519 -1574.756)" fill="#312a45"/>
        <path id="Trazado_11562" data-name="Trazado 11562" d="M1695.3,1583.306a8.792,8.792,0,0,0,1.181.137c.73.042-.15-.559-.6-.621S1694.892,1583.24,1695.3,1583.306Z" transform="translate(-1658.392 -1574.605)" fill="#312a45"/>
        <path id="Trazado_11563" data-name="Trazado 11563" d="M1689.791,1588.431s-.622-1.853-1.863-1.694-1.235,2.543.477,2.9S1689.791,1588.431,1689.791,1588.431Z" transform="translate(-1653.94 -1576.754)" fill="#f0bf9c"/>
        <path id="Trazado_11564" data-name="Trazado 11564" d="M1712.315,1588.431s.621-1.853,1.863-1.694,1.235,2.543-.477,2.9S1712.315,1588.431,1712.315,1588.431Z" transform="translate(-1667.804 -1576.754)" fill="#f0bf9c"/>
        <g id="Grupo_11815" data-name="Grupo 11815" transform="translate(39.209 10.2)">
          <path id="Trazado_11565" data-name="Trazado 11565" d="M1701.475,1587.38a6.6,6.6,0,0,0-.458,1.778c.11.249,1.267-.036,1.267-.036" transform="translate(-1700.812 -1587.312)" fill="#f0bf9c"/>
          <path id="Trazado_11566" data-name="Trazado 11566" d="M1701.151,1589.373c-.3,0-.479-.073-.544-.219a4.62,4.62,0,0,1,.454-1.925l.365.136a7.945,7.945,0,0,0-.462,1.607,3.127,3.127,0,0,0,1.042-.12l.093.378A4.213,4.213,0,0,1,1701.151,1589.373Z" transform="translate(-1700.58 -1587.229)" fill="#312a45"/>
        </g>
        <path id="Trazado_11567" data-name="Trazado 11567" d="M1700.775,1589.788s-3.028-1.622-3.838-1.406-2.92.648-3.407,1.135-.108,2.919.324,3.406a7.437,7.437,0,0,0,2.866,1.352c1.135.324,3.946-.919,4.271-1.514A4.49,4.49,0,0,0,1700.775,1589.788Z" transform="translate(-1657.373 -1577.652)" fill="#fffdf0"/>
        <path id="Trazado_11568" data-name="Trazado 11568" d="M1708.532,1591.722a.255.255,0,0,1-.118-.028.258.258,0,0,1-.141-.251,11.362,11.362,0,0,0-.012-2.823.327.327,0,0,1-.065-.254c.07-.52,1.97-1.921,3.1-2.709l.3.425a17.537,17.537,0,0,0-2.861,2.325,7.971,7.971,0,0,1,.1,2.459l2.007-1.716.338.394-2.476,2.117A.261.261,0,0,1,1708.532,1591.722Z" transform="translate(-1665.553 -1576.165)" fill="#fffdf0"/>
        <path id="Trazado_11569" data-name="Trazado 11569" d="M1691.658,1591.42a.319.319,0,0,1-.054,0c-.4-.068-2.149-1.665-2.124-2.167l.517.025a7.474,7.474,0,0,0,1.545,1.542,13.869,13.869,0,0,0-.152-2.535c-.064-.417-1-1.325-1.636-1.838l.324-.405c.284.228,1.707,1.4,1.824,2.164,0,.026.4,2.716-.014,3.123A.327.327,0,0,1,1691.658,1591.42Z" transform="translate(-1655.273 -1576.374)" fill="#fffdf0"/>
        <g id="Grupo_11816" data-name="Grupo 11816" transform="translate(41.682 9.689)">
          <path id="Trazado_11570" data-name="Trazado 11570" d="M1707.7,1586.728a1.182,1.182,0,0,0-1.384.041" transform="translate(-1706.206 -1586.33)" fill="#f0bf9c"/>
          <path id="Trazado_11571" data-name="Trazado 11571" d="M1706.3,1586.691l-.228-.315a1.376,1.376,0,0,1,1.614-.038l-.233.312A.984.984,0,0,0,1706.3,1586.691Z" transform="translate(-1706.068 -1586.095)" fill="#312a45"/>
        </g>
        <g id="Grupo_11817" data-name="Grupo 11817" transform="translate(36.717 9.465)">
          <path id="Trazado_11572" data-name="Trazado 11572" d="M1696.688,1586.231a1.181,1.181,0,0,0-1.384.041" transform="translate(-1695.19 -1585.833)" fill="#f0bf9c"/>
          <path id="Trazado_11573" data-name="Trazado 11573" d="M1695.279,1586.195l-.228-.315a1.376,1.376,0,0,1,1.614-.039l-.232.312A.984.984,0,0,0,1695.279,1586.195Z" transform="translate(-1695.051 -1585.599)" fill="#312a45"/>
        </g>
        <path id="Trazado_11574" data-name="Trazado 11574" d="M1692.732,1568.29s-1.379.414-1.976,2.941.046,2.16,1.1,2.482,1.516-1.608,1.884-2.068-.46,1.471-.046,2.114,3.263,1.379,4.182.827,1.195-3.631,1.195-3.217-.275,2.528.414,3.263.873.413,1.792.505-.184-2.8-1.011-4.963S1694.662,1567.693,1692.732,1568.29Z" transform="translate(-1655.849 -1566.48)" fill="#312a45"/>
        <path id="Trazado_11575" data-name="Trazado 11575" d="M1736.538,1766.368s4.918-5.86,6.2-5.12,2.56,3.5,3.571,5.187-3.3,4.513-4.783,4.918S1736.2,1766.907,1736.538,1766.368Z" transform="translate(-1681.113 -1672.588)" fill="#f4dfd1"/>
        <path id="Trazado_11576" data-name="Trazado 11576" d="M1746.858,1776.618l-.176-.489c1.144-.413,4.192-1.755,4.552-2.985l.5.146C1751.234,1774.994,1747.3,1776.456,1746.858,1776.618Z" transform="translate(-1686.697 -1679.159)" fill="#312a45"/>
        <path id="Trazado_11577" data-name="Trazado 11577" d="M1667.162,1772.771s8.429-.923,8.757.471c.27,1.145-1.482,6.4-1.617,7.073s-5.871-.806-6.535-1.616C1667.162,1777.958,1666.488,1773.242,1667.162,1772.771Z" transform="translate(-1642.859 -1678.789)" fill="#f4dfd1"/>
        <path id="Trazado_11578" data-name="Trazado 11578" d="M1675.961,1785.6c-1.794-.4-4.946-1-4.977-1.009l.1-.51c.032.006,3.191.612,4.993,1.012Z" transform="translate(-1645.113 -1685.166)" fill="#312a45"/>
        <path id="Trazado_11579" data-name="Trazado 11579" d="M1678.1,1610.583s.6,4.193,2.874,4.76c3.952.988,5.3-5.12,6.916-4.76s6.108,1.617,8.263,3.593-2.245,18.683-2.066,21.2-23.443,4.491-25.6,3.593-1.437-19.85-.718-23.982S1677.284,1611.738,1678.1,1610.583Z" transform="translate(-1642.955 -1589.85)" fill="#fffdf0"/>
        <path id="Trazado_11580" data-name="Trazado 11580" d="M1727.8,1615.386s16.74,9.042,18,11.376-15.033,21.826-16.47,20.748-1.707-2.844-2.785-4.1,1.976-3.593,2.694-3.413,7.191-7.767,6.293-9.383-10.065-3.73-9.886-5.347S1727.8,1615.386,1727.8,1615.386Z" transform="translate(-1675.141 -1592.497)" fill="#f0bf9c"/>
        <g id="Grupo_11818" data-name="Grupo 11818" transform="translate(5.964 12.617)">
          <path id="Trazado_11581" data-name="Trazado 11581" d="M1627.92,1596.409s-1.519-2.294-.051-3.48" transform="translate(-1627.041 -1592.778)" fill="#f0bf9c"/>
          <path id="Trazado_11582" data-name="Trazado 11582" d="M1627.528,1596.332c-.56-.845-1.282-2.714-.011-3.739l.244.3c-1.316,1.062.077,3.2.091,3.222Z" transform="translate(-1626.811 -1592.593)" fill="#312a45"/>
        </g>
        <path id="Trazado_11583" data-name="Trazado 11583" d="M1722.8,1613.373s7.432,2.412,10.778,4.491c2.33,1.447-3.413,9.88-3.952,10.958s-6.467-1.078-8.623-1.976S1721.183,1612.834,1722.8,1613.373Z" transform="translate(-1672.113 -1591.382)" fill="#fffdf0"/>
        <path id="Trazado_11584" data-name="Trazado 11584" d="M1652.32,1617.446s-.188,11.781,1.788,12.858,11.5-.359,11.677-2.694-1.1-12.8-1.643-13.7S1652.141,1616.547,1652.32,1617.446Z" transform="translate(-1634.858 -1591.607)" fill="#fffdf0"/>
        <path id="Trazado_11585" data-name="Trazado 11585" d="M1671.716,1611.99s-1.542,6.912-.644,8.17,13.069.705,14.865.346,1.587-8.695,1.587-8.695c.9-.18,2.246-.808,2.785.449s-.569,8.938-.569,8.938,2.766,7.112,2.766,8.729c0,4.792-.476,7.886-.2,9.244.539,2.695,5.193,21.682,3.935,23.479s-13.383,4.312-15,3.054-3.593-11.677-3.593-11.677.539,10.06-.539,11.856-11.677-.179-14.012.539.273-31.965.632-35.2,2.113-6.36,3.371-9.594.848-7.483,1.925-9.1A1.9,1.9,0,0,1,1671.716,1611.99Z" transform="translate(-1640.25 -1590.359)" fill="#471e89"/>
      </g>
      <path id="Trazado_11586" data-name="Trazado 11586" d="M1729.862,1607.376s-3.054,1.976-3.952,4.132,3.773-.718,3.773-.718-2.515,2.335-1.976,2.694,3.593-1.617,3.593-1.617-1.437,1.258-1.078,1.976.719-.9,3.234-1.257,3.772-.9,3.952-2.515S1732.736,1606.119,1729.862,1607.376Z" transform="translate(-1675.223 -1548.942)" fill="#f0bf9c"/>
      <path id="Trazado_11587" data-name="Trazado 11587" d="M1665.189,1606.561a8.022,8.022,0,0,0-1.767,4.493c.037,2.335,2.752-2.266,2.752-2.266s-1.009,3.28-.362,3.321,2.3-3.2,2.3-3.2-.615,1.808.055,2.25.518-.661,1.771-2.87a4.878,4.878,0,0,0,1.076-3.21C1670.868,1602.909,1667.048,1604.034,1665.189,1606.561Z" transform="translate(-1640.958 -1547.245)" fill="#f0bf9c"/>
      <path id="Trazado_11588" data-name="Trazado 11588" d="M1773.851,1541.63s6.467,14.551,7.186,29.1c.153,3.1-29.281,7.724-31.8,6.467s-2.335-5.928-2.874-8.623,19.94-6.467,19.76-7.9.539-8.443-.539-10.419S1773.672,1539.474,1773.851,1541.63Z" transform="translate(-1686.517 -1512.837)" fill="#0f94a5"/>
      <path id="Trazado_11589" data-name="Trazado 11589" d="M1795.742,1600.053l-3.209-8.494.434.062c1.323.189,6.444,3.836,7.2,5.35l-.464.232c-.6-1.206-4.669-4.2-6.343-4.919l2.866,7.585Z" transform="translate(-1711.884 -1540.45)" fill="#312a45"/>
      <path id="Trazado_11590" data-name="Trazado 11590" d="M1788.973,1550.015h-.518c0-3.828,4.544-8.94,4.737-9.155l.386.346C1793.532,1541.257,1788.973,1546.386,1788.973,1550.015Z" transform="translate(-1709.644 -1512.599)" fill="#312a45"/>
      <path id="Trazado_11591" data-name="Trazado 11591" d="M1757.749,1545.191a3.263,3.263,0,0,1-.757-.09c-4.546-1.083-5.03-3.641-5.35-5.334a6.109,6.109,0,0,0-.222-.935l.485-.182a6.3,6.3,0,0,1,.246,1.02c.313,1.655.741,3.922,4.961,4.927,3.516.842,6.5-5.716,6.53-5.782l.473.212C1764,1539.295,1761.315,1545.191,1757.749,1545.191Z" transform="translate(-1689.3 -1511.385)" fill="#312a45"/>
      <path id="Trazado_11592" data-name="Trazado 11592" d="M1726.574,1569.491c0-.061-.177-6.172,0-10.976.18-4.846,2.694-10.285,2.719-10.339l.47.219a31.487,31.487,0,0,0-2.67,10.139c-.178,4.786,0,10.88,0,10.941Z" transform="translate(-1675.607 -1516.618)" fill="#312a45"/>
      <path id="Trazado_11593" data-name="Trazado 11593" d="M1743.19,1600.484s20.12-7.006,20.838-6.288,1.976,5.928,1.257,7.724-18.5,4.132-20.3,3.233S1743.19,1600.484,1743.19,1600.484Z" transform="translate(-1684.778 -1541.87)" fill="#f0bf9c"/>
      <path id="Trazado_11594" data-name="Trazado 11594" d="M1789.038,1577.765l-.515-.052c.174-1.741-1.241-10.086-1.256-10.17l.512-.087C1787.837,1567.8,1789.219,1575.954,1789.038,1577.765Z" transform="translate(-1708.991 -1527.209)" fill="#312a45"/>
      <path id="Trazado_11595" data-name="Trazado 11595" d="M1757.726,1625.433c-1.358,0-2.655-.037-3.817-.127l.039-.516c6.9.528,18.695-.8,18.813-.809l.059.516C1772.721,1624.508,1764.489,1625.433,1757.726,1625.433Z" transform="translate(-1690.667 -1558.26)" fill="#312a45"/>
      <path id="Trazado_11596" data-name="Trazado 11596" d="M1722.719,1601.179a2.47,2.47,0,0,1-2.258-2.149,6.919,6.919,0,0,1,.061-2,2.809,2.809,0,0,0-.362-2.353l.416-.311a3.29,3.29,0,0,1,.46,2.733,6.413,6.413,0,0,0-.061,1.853,1.925,1.925,0,0,0,1.771,1.7Z" transform="translate(-1672.127 -1541.995)" fill="#fffdf0"/>
      <path id="Trazado_11597" data-name="Trazado 11597" d="M1714.245,1603.533c-1.044-1.045-.7-3.365-.686-3.463l.513.079c0,.021-.319,2.159.54,3.018Z" transform="translate(-1668.465 -1545.125)" fill="#fffdf0"/>
      <path id="Trazado_11598" data-name="Trazado 11598" d="M1687.565,1604.133l-.171-.489c1.539-.538,1.233-3.463,1.229-3.492l.516-.058C1689.154,1600.231,1689.49,1603.46,1687.565,1604.133Z" transform="translate(-1654.128 -1545.138)" fill="#fffdf0"/>
      <path id="Trazado_11599" data-name="Trazado 11599" d="M1684.807,1598.016h-.519a7.625,7.625,0,0,1,.908-3.191l.454.251A7.226,7.226,0,0,0,1684.807,1598.016Z" transform="translate(-1652.422 -1542.244)" fill="#fffdf0"/>
      <path id="Trazado_11600" data-name="Trazado 11600" d="M1690.171,1716.277c-.051-.337-1.2-8.269.923-10.751l.394.338c-1.974,2.3-.816,10.257-.8,10.337Z" transform="translate(-1655.457 -1603.056)" fill="#fffdf0"/>
      <path id="Trazado_11601" data-name="Trazado 11601" d="M1729.843,1705.27c-.163-.446-3.988-10.94-4.334-13.186l.512-.079c.339,2.2,4.269,12.979,4.309,13.087Z" transform="translate(-1675.066 -1595.628)" fill="#fffdf0"/>
      <path id="Trazado_11602" data-name="Trazado 11602" d="M1690.433,1650.925c-3.849,0-10.017-.413-10.923-1.06-.4-.287-.55-1.007-.456-2.2.163-2.092,1.245-6.136,1.7-6.365a.217.217,0,0,1,.119-.027c3.774.053,12.609.232,13.144.768.6.6.985,7.679.173,8.49C1694.073,1650.647,1693.8,1650.925,1690.433,1650.925Zm-9.435-9.134c-.368.692-1.686,5.149-1.42,7.063.056.408.17.544.233.589.713.51,6.534.964,10.621.964,2.96,0,3.363-.225,3.4-.251.489-.49.338-7.09-.184-7.755C1693.085,1642.085,1685.645,1641.857,1681,1641.791Z" transform="translate(-1649.531 -1567.757)" fill="#fffdf0"/>
      <path id="Trazado_11603" data-name="Trazado 11603" d="M1695.558,1651.489c-.175-.876.443-7.762.515-8.544l.516.047c-.277,3.043-.644,7.789-.523,8.4Z" transform="translate(-1658.595 -1568.678)" fill="#fffdf0"/>
      <path id="Trazado_11604" data-name="Trazado 11604" d="M1677.73,1680.267a66.861,66.861,0,0,1-10.053-.888l.09-.51a63.57,63.57,0,0,0,11.182.86c3.6-.116,8.641-.39,11.654-.555,1.52-.083,2.525-.137,2.7-.137v.519c-.163,0-1.216.057-2.673.137-3.016.164-8.062.438-11.666.555C1678.557,1680.261,1678.143,1680.267,1677.73,1680.267Z" transform="translate(-1643.297 -1588.412)" fill="#fffdf0"/>
      <path id="Trazado_11605" data-name="Trazado 11605" d="M1675.8,1630.994c-.495,0-.8-.11-.918-.335a3.144,3.144,0,0,1,.068-2.091.43.43,0,0,1,.33-.232,3.293,3.293,0,0,1,.6-.057,1.558,1.558,0,0,1,1.1.351,1.78,1.78,0,0,1,.286,2.005A2.625,2.625,0,0,1,1675.8,1630.994Zm-.413-2.151a2.932,2.932,0,0,0-.05,1.568,1.111,1.111,0,0,0,.463.065,2.8,2.8,0,0,0,1.095-.2,1.39,1.39,0,0,0-.266-1.271,1.139,1.139,0,0,0-.748-.21A2.775,2.775,0,0,0,1675.39,1628.843Z" transform="translate(-1647.175 -1560.621)" fill="#fffdf0"/>
      <path id="Trazado_11606" data-name="Trazado 11606" d="M1718.518,1632.243c-.495,0-.8-.11-.918-.335a3.142,3.142,0,0,1,.068-2.092.429.429,0,0,1,.329-.232,3.256,3.256,0,0,1,.6-.057,1.558,1.558,0,0,1,1.1.351,1.781,1.781,0,0,1,.286,2.005A2.628,2.628,0,0,1,1718.518,1632.243Zm-.413-2.151a2.925,2.925,0,0,0-.05,1.568,1.113,1.113,0,0,0,.463.065,2.789,2.789,0,0,0,1.095-.2,1.389,1.389,0,0,0-.266-1.27,1.135,1.135,0,0,0-.748-.21A2.759,2.759,0,0,0,1718.105,1630.092Z" transform="translate(-1670.64 -1561.307)" fill="#fffdf0"/>
    </g>
  </g>
</svg>
