<?xml version="1.0" encoding="utf-8"?>
<!-- Generator: Adobe Illustrator 25.2.0, SVG Export Plug-In . SVG Version: 6.00 Build 0)  -->
<svg version="1.1" id="Capa_1" xmlns="http://www.w3.org/2000/svg" xmlns:xlink="http://www.w3.org/1999/xlink" x="0px" y="0px"
	 viewBox="0 0 664.2 270.3" style="enable-background:new 0 0 664.2 270.3;" xml:space="preserve">
<style type="text/css">
	.st0{fill:#F2F2F2;}
	.st1{fill:#29C1CC;}
	.st2{fill:#7DD3E9;}
	.st3{fill:#FFCD0D;}
	.st4{enable-background:new    ;}
	.st5{fill:#00223D;}
</style>
<g id="Grupo_14887" transform="translate(-334.167 -5921.627)">
	<g id="Grupo_14878" transform="translate(-578.394 5846.691)">
		<path id="Trazado_16390" class="st0" d="M1164.2,215.4c0-46.5-20.5-90.6-56-120.7c0.2-0.5,0.2-1,0.2-1.5c0-2.9-2.4-5.3-5.3-5.3
			s-5.2,2.4-5.3,5.3c0,2.9,2.3,5.3,5.2,5.3c1.6,0,3.2-0.7,4.2-2c65.7,55.9,73.6,154.5,17.7,220.1c-5.5,6.5-11.6,12.5-18.1,18.1
			c-2.1-2.1-5.5-2.1-7.6,0s-2.1,5.5,0,7.6s5.5,2.1,7.6,0c1.6-1.6,2-4,1.1-6C1143.7,306.2,1164.2,262,1164.2,215.4z"/>
		<g id="Grupo_14877">
			<path id="Trazado_16391" class="st0" d="M1150.9,164.2c5,0,9.1-4.1,9.1-9.1c0-1-0.2-2-0.5-2.9l46.9-19.7l-0.7-1.8l-47,19.7
				c-2.6-4.3-8.2-5.7-12.5-3.2c-4.3,2.6-5.7,8.2-3.2,12.5C1144.8,162.5,1147.7,164.2,1150.9,164.2L1150.9,164.2z"/>
			<path id="Trazado_16392" class="st0" d="M1172.1,214.7c-0.6-5-5.2-8.5-10.2-7.9s-8.5,5.2-7.9,10.2s5.2,8.5,10.2,7.9
				c4.3-0.5,7.6-4,7.9-8.2h46.1v-1.9h-46.1V214.7z"/>
			<path id="Trazado_16393" class="st0" d="M1159.7,277.6c0-5.1-4.1-9.2-9.1-9.2c-5.1,0-9.2,4.1-9.2,9.1c0,5.1,4.1,9.2,9.1,9.2
				c3.5,0,6.7-2,8.2-5.1l46.9,19.7l0.7-1.8l-47-19.8C1159.6,279.1,1159.7,278.3,1159.7,277.6z"/>
		</g>
		<circle id="Elipse_817" class="st1" cx="1150.9" cy="155.1" r="5.3"/>
		<path id="Trazado_16394" class="st2" d="M1157.8,215.9c0-2.9,2.4-5.3,5.3-5.3s5.3,2.4,5.3,5.3c0,2.9-2.4,5.3-5.3,5.3l0,0
			C1160.2,221.1,1157.8,218.8,1157.8,215.9z"/>
		<circle id="Elipse_818" class="st3" cx="1150.6" cy="277.6" r="5.3"/>
		<path id="Trazado_16395" class="st1" d="M1103.2,182.9c-0.7-2.1-1.5-4.2-2.3-6.3c-9.6-23.7-27.7-42.9-50.7-53.9l-41.7,98.6
			L1103.2,182.9z"/>
		<path id="Trazado_16396" class="st2" d="M1008.5,221.3l89.9,38c11.4-23.9,13.1-51.3,4.8-76.4L1008.5,221.3L1008.5,221.3z"/>
		<path id="Trazado_16397" class="st3" d="M1008.5,221.3L1008.5,221.3l36.1,88.9c23.7-9.6,42.9-27.8,53.8-50.9L1008.5,221.3z"/>
		<circle id="Elipse_819" class="st0" cx="1004.7" cy="215" r="92.1"/>
		<path id="Trazado_16398" class="st1" d="M1236.3,155.1V127c0-0.8-0.3-1.6-0.9-2.2l-5.2-5.3c-1.2-1.2-1.2-3.2,0-4.4l5.2-5.3
			c0.6-0.6,0.9-1.4,0.9-2.2V78.1c0-1.8,1.4-3.2,3.2-3.2l0,0h334.1c1.8,0,3.2,1.4,3.2,3.2l0,0V155c0,1.8-1.4,3.2-3.2,3.2l0,0h-334.1
			C1237.8,158.2,1236.3,156.8,1236.3,155.1L1236.3,155.1z"/>
		<path id="Trazado_16399" class="st2" d="M1236.3,247v-23.1c0-0.8-0.3-1.6-0.9-2.2l-5.2-5.3c-1.2-1.2-1.2-3.2,0-4.4l5.2-5.3
			c0.6-0.6,0.9-1.4,0.9-2.2V183c0-1.8,1.4-3.2,3.2-3.2l0,0h325.1c1.8,0,3.2,1.4,3.2,3.2l0,0v64c0,1.8-1.4,3.2-3.2,3.2l0,0h-325.1
			C1237.8,250.2,1236.3,248.7,1236.3,247L1236.3,247z"/>
		<path id="Trazado_16400" class="st3" d="M1236.3,333.3v-23.1c0-0.8-0.3-1.6-0.9-2.2l-5.2-5.3c-1.2-1.2-1.2-3.2,0-4.4l5.2-5.3
			c0.6-0.6,0.9-1.4,0.9-2.2v-21.4c0-1.8,1.4-3.2,3.2-3.2l0,0h240.1c1.8,0,3.2,1.4,3.2,3.2l0,0v63.9c0,1.8-1.4,3.2-3.2,3.2l0,0
			h-240.1C1237.8,336.5,1236.3,335,1236.3,333.3z"/>
	</g>
	<g class="st4">
		<path d="M677.6,5945.9v-12.6h3.5c4.4,0,6.7,2,6.7,6.1c0,1.9-0.6,3.5-1.9,4.7c-1.2,1.2-2.9,1.8-5,1.8H677.6z M679,5934.6v9.9h1.9
			c1.7,0,2.9-0.4,3.9-1.3s1.4-2.1,1.4-3.8c0-3.2-1.7-4.8-5.2-4.8L679,5934.6L679,5934.6z"/>
		<path d="M690.7,5934.6c-0.3,0-0.5-0.1-0.7-0.3s-0.3-0.4-0.3-0.7s0.1-0.5,0.3-0.7s0.4-0.3,0.7-0.3s0.5,0.1,0.7,0.3
			c0.2,0.2,0.3,0.4,0.3,0.7c0,0.3-0.1,0.5-0.3,0.7C691.2,5934.5,691,5934.6,690.7,5934.6z M691.4,5945.9H690v-9h1.4V5945.9z"/>
		<path d="M693.8,5945.6v-1.5c0.8,0.6,1.6,0.9,2.6,0.9c1.3,0,1.9-0.4,1.9-1.3c0-0.2-0.1-0.4-0.2-0.6c-0.1-0.2-0.3-0.3-0.4-0.4
			c-0.2-0.1-0.4-0.2-0.7-0.3c-0.2-0.1-0.5-0.2-0.8-0.3c-0.4-0.2-0.7-0.3-1.1-0.5c-0.3-0.2-0.6-0.3-0.8-0.5s-0.4-0.4-0.5-0.7
			c-0.1-0.3-0.2-0.6-0.2-0.9c0-0.4,0.1-0.8,0.3-1.1c0.2-0.3,0.5-0.6,0.8-0.8c0.3-0.2,0.7-0.4,1.1-0.5c0.4-0.1,0.8-0.2,1.3-0.2
			c0.8,0,1.5,0.1,2.1,0.4v1.5c-0.7-0.4-1.4-0.7-2.3-0.7c-0.3,0-0.5,0-0.7,0.1s-0.4,0.1-0.6,0.3c-0.2,0.1-0.3,0.2-0.4,0.4
			c-0.1,0.2-0.1,0.3-0.1,0.5s0,0.4,0.1,0.6s0.2,0.3,0.4,0.4s0.4,0.2,0.6,0.3s0.5,0.2,0.8,0.3c0.4,0.2,0.8,0.3,1.1,0.5
			s0.6,0.3,0.8,0.5s0.4,0.4,0.5,0.7c0.1,0.3,0.2,0.6,0.2,0.9c0,0.4-0.1,0.8-0.3,1.2c-0.2,0.3-0.5,0.6-0.8,0.8s-0.7,0.4-1.1,0.5
			s-0.9,0.2-1.3,0.2C695.3,5946.1,694.5,5945.9,693.8,5945.6z"/>
		<path d="M703.5,5944.6L703.5,5944.6v5.4h-1.4v-13.1h1.4v1.6l0,0c0.7-1.2,1.7-1.8,3.1-1.8c1.2,0,2.1,0.4,2.7,1.2s1,1.9,1,3.2
			c0,1.5-0.4,2.7-1.1,3.6c-0.7,0.9-1.7,1.4-3,1.4C705,5946.1,704.1,5945.6,703.5,5944.6z M703.4,5941v1.3c0,0.7,0.2,1.4,0.7,1.9
			s1.1,0.8,1.8,0.8c0.9,0,1.6-0.3,2.1-1s0.7-1.6,0.7-2.8c0-1-0.2-1.8-0.7-2.4s-1.1-0.9-1.9-0.9c-0.8,0-1.5,0.3-2,0.9
			S703.4,5940.1,703.4,5941z"/>
		<path d="M716.3,5946.1c-1.3,0-2.4-0.4-3.2-1.3c-0.8-0.8-1.2-2-1.2-3.3c0-1.5,0.4-2.7,1.2-3.5s1.9-1.3,3.3-1.3
			c1.3,0,2.4,0.4,3.1,1.2c0.8,0.8,1.1,2,1.1,3.4s-0.4,2.6-1.2,3.4C718.8,5945.7,717.7,5946.1,716.3,5946.1z M716.4,5937.9
			c-0.9,0-1.7,0.3-2.2,0.9s-0.8,1.5-0.8,2.6s0.3,1.9,0.8,2.5s1.3,0.9,2.2,0.9s1.6-0.3,2.1-0.9s0.8-1.5,0.8-2.6s-0.2-2-0.8-2.6
			C718.1,5938.2,717.4,5937.9,716.4,5937.9z"/>
		<path d="M722.6,5945.6v-1.5c0.8,0.6,1.6,0.9,2.6,0.9c1.3,0,1.9-0.4,1.9-1.3c0-0.2-0.1-0.4-0.2-0.6c-0.1-0.2-0.3-0.3-0.4-0.4
			c-0.2-0.1-0.4-0.2-0.7-0.3c-0.2-0.1-0.5-0.2-0.8-0.3c-0.4-0.2-0.7-0.3-1-0.5s-0.6-0.3-0.8-0.5s-0.4-0.4-0.5-0.7
			c-0.1-0.3-0.2-0.6-0.2-0.9c0-0.4,0.1-0.8,0.3-1.1c0.2-0.3,0.5-0.6,0.8-0.8c0.3-0.2,0.7-0.4,1.1-0.5c0.4-0.1,0.8-0.2,1.3-0.2
			c0.8,0,1.5,0.1,2.1,0.4v1.5c-0.7-0.4-1.4-0.7-2.3-0.7c-0.3,0-0.5,0-0.7,0.1s-0.4,0.1-0.6,0.3c-0.2,0.1-0.3,0.2-0.4,0.4
			c-0.1,0.2-0.1,0.3-0.1,0.5s0,0.4,0.1,0.6s0.2,0.3,0.4,0.4s0.4,0.2,0.6,0.3s0.5,0.2,0.8,0.3c0.4,0.2,0.8,0.3,1.1,0.5
			s0.6,0.3,0.8,0.5s0.4,0.4,0.5,0.7c0.1,0.3,0.2,0.6,0.2,0.9c0,0.4-0.1,0.8-0.3,1.2c-0.2,0.3-0.5,0.6-0.8,0.8s-0.7,0.4-1.1,0.5
			s-0.9,0.2-1.3,0.2C724,5946.1,723.2,5945.9,722.6,5945.6z"/>
		<path d="M731.5,5934.6c-0.3,0-0.5-0.1-0.7-0.3s-0.3-0.4-0.3-0.7s0.1-0.5,0.3-0.7s0.4-0.3,0.7-0.3s0.5,0.1,0.7,0.3
			c0.2,0.2,0.3,0.4,0.3,0.7c0,0.3-0.1,0.5-0.3,0.7C732,5934.5,731.7,5934.6,731.5,5934.6z M732.2,5945.9h-1.4v-9h1.4V5945.9z"/>
		<path d="M741.2,5945.5c-0.7,0.4-1.5,0.6-2.5,0.6c-1.3,0-2.3-0.4-3.1-1.3c-0.8-0.8-1.2-1.9-1.2-3.2c0-1.5,0.4-2.7,1.3-3.6
			s2-1.3,3.4-1.3c0.8,0,1.5,0.1,2.1,0.4v1.5c-0.7-0.5-1.4-0.7-2.1-0.7c-0.9,0-1.7,0.3-2.3,1s-0.9,1.5-0.9,2.6s0.3,1.9,0.8,2.5
			c0.6,0.6,1.3,0.9,2.2,0.9c0.8,0,1.5-0.3,2.2-0.8L741.2,5945.5L741.2,5945.5z"/>
		<path d="M744.2,5934.6c-0.3,0-0.5-0.1-0.7-0.3s-0.3-0.4-0.3-0.7s0.1-0.5,0.3-0.7s0.4-0.3,0.7-0.3s0.5,0.1,0.7,0.3
			c0.2,0.2,0.3,0.4,0.3,0.7c0,0.3-0.1,0.5-0.3,0.7C744.6,5934.5,744.4,5934.6,744.2,5934.6z M744.9,5945.9h-1.4v-9h1.4V5945.9z"/>
		<path d="M751.5,5946.1c-1.3,0-2.4-0.4-3.2-1.3c-0.8-0.8-1.2-2-1.2-3.3c0-1.5,0.4-2.7,1.2-3.5s1.9-1.3,3.3-1.3
			c1.3,0,2.4,0.4,3.1,1.2c0.8,0.8,1.1,2,1.1,3.4s-0.4,2.6-1.2,3.4C754,5945.7,752.9,5946.1,751.5,5946.1z M751.6,5937.9
			c-0.9,0-1.7,0.3-2.2,0.9s-0.8,1.5-0.8,2.6s0.3,1.9,0.8,2.5s1.3,0.9,2.2,0.9s1.6-0.3,2.1-0.9s0.8-1.5,0.8-2.6s-0.3-2-0.8-2.6
			C753.3,5938.2,752.6,5937.9,751.6,5937.9z M753.8,5932.3l-2.3,2.9h-1.1l2-2.9H753.8z"/>
		<path d="M765.8,5945.9h-1.4v-5.1c0-1.9-0.7-2.9-2.1-2.9c-0.7,0-1.3,0.3-1.8,0.8s-0.7,1.2-0.7,2.1v5.1h-1.4v-9h1.4v1.5l0,0
			c0.7-1.1,1.7-1.7,3-1.7c1,0,1.7,0.3,2.3,1c0.5,0.6,0.8,1.6,0.8,2.8L765.8,5945.9L765.8,5945.9z"/>
		<path d="M779.9,5945.9h-1.4v-1.4l0,0c-0.6,1.1-1.5,1.6-2.8,1.6c-0.9,0-1.6-0.2-2.1-0.7s-0.8-1.1-0.8-1.9c0-1.7,1-2.7,3-2.9
			l2.7-0.4c0-1.5-0.6-2.3-1.9-2.3c-1.1,0-2.1,0.4-2.9,1.1v-1.5c0.9-0.6,1.9-0.8,3.1-0.8c2.1,0,3.2,1.1,3.2,3.4L779.9,5945.9
			L779.9,5945.9z M778.4,5941.3l-2.2,0.3c-0.7,0.1-1.2,0.3-1.5,0.5s-0.5,0.7-0.5,1.3c0,0.4,0.2,0.8,0.5,1.1c0.3,0.3,0.7,0.4,1.3,0.4
			c0.7,0,1.3-0.2,1.8-0.8c0.5-0.5,0.7-1.1,0.7-1.9L778.4,5941.3L778.4,5941.3z"/>
		<path d="M790.3,5945.9h-1.4v-1.5l0,0c-0.7,1.2-1.7,1.7-3.1,1.7c-1.1,0-2-0.4-2.7-1.2c-0.7-0.8-1-1.9-1-3.3c0-1.5,0.4-2.7,1.1-3.6
			s1.7-1.3,3-1.3c1.2,0,2.1,0.5,2.7,1.5l0,0v-5.6h1.4V5945.9z M788.8,5941.8v-1.3c0-0.7-0.2-1.3-0.7-1.8s-1.1-0.8-1.8-0.8
			c-0.9,0-1.6,0.3-2.1,1s-0.8,1.5-0.8,2.7c0,1,0.2,1.9,0.7,2.5s1.1,0.9,1.9,0.9c0.8,0,1.5-0.3,2-0.9
			C788.6,5943.4,788.8,5942.7,788.8,5941.8z"/>
		<path d="M800.4,5941.8H794c0,1,0.3,1.8,0.8,2.3s1.2,0.8,2.1,0.8c1,0,1.9-0.3,2.8-1v1.4c-0.8,0.6-1.8,0.9-3.1,0.9s-2.3-0.4-3-1.2
			c-0.7-0.8-1.1-2-1.1-3.4s0.4-2.5,1.2-3.4s1.8-1.3,3-1.3s2.1,0.4,2.7,1.1s1,1.8,1,3.2V5941.8z M799,5940.5c0-0.8-0.2-1.5-0.6-1.9
			c-0.4-0.5-0.9-0.7-1.6-0.7c-0.7,0-1.3,0.2-1.7,0.7s-0.8,1.1-0.9,1.9H799z"/>
		<path d="M808.7,5945.5c-0.7,0.4-1.5,0.6-2.5,0.6c-1.3,0-2.3-0.4-3.1-1.3c-0.8-0.8-1.2-1.9-1.2-3.2c0-1.5,0.4-2.7,1.3-3.6
			s2-1.3,3.4-1.3c0.8,0,1.5,0.1,2.1,0.4v1.5c-0.7-0.5-1.4-0.7-2.1-0.7c-0.9,0-1.7,0.3-2.3,1s-0.9,1.5-0.9,2.6s0.3,1.9,0.8,2.5
			c0.6,0.6,1.3,0.9,2.2,0.9c0.8,0,1.5-0.3,2.2-0.8L808.7,5945.5L808.7,5945.5z"/>
		<path d="M818.2,5945.9h-1.4v-1.4l0,0c-0.6,1.1-1.5,1.6-2.8,1.6c-2.1,0-3.2-1.3-3.2-3.8v-5.4h1.4v5.2c0,1.9,0.7,2.8,2.2,2.8
			c0.7,0,1.3-0.3,1.7-0.8c0.5-0.5,0.7-1.2,0.7-2v-5.2h1.4L818.2,5945.9L818.2,5945.9z"/>
		<path d="M827.6,5945.9h-1.4v-1.4l0,0c-0.6,1.1-1.5,1.6-2.8,1.6c-0.9,0-1.6-0.2-2.1-0.7s-0.8-1.1-0.8-1.9c0-1.7,1-2.7,3-2.9
			l2.7-0.4c0-1.5-0.6-2.3-1.9-2.3c-1.1,0-2.1,0.4-2.9,1.1v-1.5c0.9-0.6,1.9-0.8,3.1-0.8c2.1,0,3.2,1.1,3.2,3.4L827.6,5945.9
			L827.6,5945.9z M826.1,5941.3l-2.2,0.3c-0.7,0.1-1.2,0.3-1.5,0.5s-0.5,0.7-0.5,1.3c0,0.4,0.2,0.8,0.5,1.1c0.3,0.3,0.7,0.4,1.3,0.4
			c0.7,0,1.3-0.2,1.8-0.8c0.5-0.5,0.7-1.1,0.7-1.9L826.1,5941.3L826.1,5941.3z"/>
		<path d="M838,5945.9h-1.4v-1.5l0,0c-0.7,1.2-1.7,1.7-3.1,1.7c-1.1,0-2-0.4-2.7-1.2c-0.7-0.8-1-1.9-1-3.3c0-1.5,0.4-2.7,1.1-3.6
			s1.7-1.3,3-1.3c1.2,0,2.1,0.5,2.7,1.5l0,0v-5.6h1.4V5945.9z M836.5,5941.8v-1.3c0-0.7-0.2-1.3-0.7-1.8s-1.1-0.8-1.8-0.8
			c-0.9,0-1.6,0.3-2.1,1s-0.8,1.5-0.8,2.7c0,1,0.2,1.9,0.7,2.5s1.1,0.9,1.9,0.9c0.8,0,1.5-0.3,2-0.9
			C836.3,5943.4,836.5,5942.7,836.5,5941.8z"/>
		<path d="M847.3,5945.9h-1.4v-1.4l0,0c-0.6,1.1-1.5,1.6-2.8,1.6c-0.9,0-1.6-0.2-2.1-0.7s-0.8-1.1-0.8-1.9c0-1.7,1-2.7,3-2.9
			l2.7-0.4c0-1.5-0.6-2.3-1.9-2.3c-1.1,0-2.1,0.4-2.9,1.1v-1.5c0.9-0.6,1.9-0.8,3.1-0.8c2.1,0,3.2,1.1,3.2,3.4L847.3,5945.9
			L847.3,5945.9z M845.9,5941.3l-2.2,0.3c-0.7,0.1-1.2,0.3-1.5,0.5s-0.5,0.7-0.5,1.3c0,0.4,0.2,0.8,0.5,1.1c0.3,0.3,0.7,0.4,1.3,0.4
			c0.7,0,1.3-0.2,1.8-0.8c0.5-0.5,0.7-1.1,0.7-1.9L845.9,5941.3L845.9,5941.3z"/>
		<path d="M862.6,5945.9h-1.4v-1.5l0,0c-0.7,1.2-1.7,1.7-3.1,1.7c-1.1,0-2-0.4-2.7-1.2c-0.7-0.8-1-1.9-1-3.3c0-1.5,0.4-2.7,1.1-3.6
			s1.7-1.3,3-1.3c1.2,0,2.1,0.5,2.7,1.5l0,0v-5.6h1.4V5945.9z M861.2,5941.8v-1.3c0-0.7-0.2-1.3-0.7-1.8s-1.1-0.8-1.8-0.8
			c-0.9,0-1.6,0.3-2.1,1s-0.8,1.5-0.8,2.7c0,1,0.2,1.9,0.7,2.5s1.1,0.9,1.9,0.9c0.8,0,1.5-0.3,2-0.9
			C860.9,5943.4,861.2,5942.7,861.2,5941.8z"/>
		<path d="M872.8,5941.8h-6.4c0,1,0.3,1.8,0.8,2.3s1.2,0.8,2.1,0.8c1,0,1.9-0.3,2.8-1v1.4c-0.8,0.6-1.8,0.9-3.1,0.9s-2.3-0.4-3-1.2
			c-0.7-0.8-1.1-2-1.1-3.4s0.4-2.5,1.2-3.4s1.8-1.3,3-1.3s2.1,0.4,2.7,1.1s1,1.8,1,3.2V5941.8z M871.3,5940.5c0-0.8-0.2-1.5-0.6-1.9
			c-0.4-0.5-0.9-0.7-1.6-0.7c-0.7,0-1.3,0.2-1.7,0.7s-0.8,1.1-0.9,1.9H871.3z"/>
		<path d="M881.3,5945.9h-1.4v-13.3h1.4V5945.9z"/>
		<path d="M888,5946.1c-1.3,0-2.4-0.4-3.2-1.3c-0.8-0.8-1.2-2-1.2-3.3c0-1.5,0.4-2.7,1.2-3.5s1.9-1.3,3.3-1.3c1.3,0,2.4,0.4,3.1,1.2
			c0.8,0.8,1.1,2,1.1,3.4s-0.4,2.6-1.2,3.4C890.5,5945.7,889.4,5946.1,888,5946.1z M888.1,5937.9c-0.9,0-1.7,0.3-2.2,0.9
			s-0.8,1.5-0.8,2.6s0.3,1.9,0.8,2.5s1.3,0.9,2.2,0.9s1.6-0.3,2.1-0.9s0.8-1.5,0.8-2.6s-0.2-2-0.8-2.6
			C889.8,5938.2,889.1,5937.9,888.1,5937.9z"/>
		<path d="M894.3,5945.6v-1.5c0.8,0.6,1.6,0.9,2.6,0.9c1.3,0,1.9-0.4,1.9-1.3c0-0.2-0.1-0.4-0.2-0.6c-0.1-0.2-0.3-0.3-0.4-0.4
			c-0.2-0.1-0.4-0.2-0.7-0.3c-0.2-0.1-0.5-0.2-0.8-0.3c-0.4-0.2-0.7-0.3-1-0.5s-0.6-0.3-0.8-0.5s-0.4-0.4-0.5-0.7
			c-0.1-0.3-0.2-0.6-0.2-0.9c0-0.4,0.1-0.8,0.3-1.1c0.2-0.3,0.5-0.6,0.8-0.8c0.3-0.2,0.7-0.4,1.1-0.5c0.4-0.1,0.8-0.2,1.3-0.2
			c0.8,0,1.5,0.1,2.1,0.4v1.5c-0.7-0.4-1.4-0.7-2.3-0.7c-0.3,0-0.5,0-0.7,0.1s-0.4,0.1-0.6,0.3c-0.2,0.1-0.3,0.2-0.4,0.4
			c-0.1,0.2-0.1,0.3-0.1,0.5s0,0.4,0.1,0.6s0.2,0.3,0.4,0.4s0.4,0.2,0.6,0.3s0.5,0.2,0.8,0.3c0.4,0.2,0.8,0.3,1.1,0.5
			s0.6,0.3,0.8,0.5s0.4,0.4,0.5,0.7c0.1,0.3,0.2,0.6,0.2,0.9c0,0.4-0.1,0.8-0.3,1.2c-0.2,0.3-0.5,0.6-0.8,0.8s-0.7,0.4-1.1,0.5
			s-0.9,0.2-1.3,0.2C895.7,5946.1,894.9,5945.9,894.3,5945.6z"/>
		<path d="M912.1,5938.3c-0.3-0.2-0.6-0.3-1.1-0.3c-0.6,0-1.1,0.3-1.5,0.9s-0.6,1.4-0.6,2.4v4.6h-1.4v-9h1.4v1.9l0,0
			c0.2-0.6,0.5-1.1,0.9-1.5s0.9-0.5,1.4-0.5c0.4,0,0.7,0,0.9,0.1L912.1,5938.3L912.1,5938.3z"/>
		<path d="M920.9,5941.8h-6.4c0,1,0.3,1.8,0.8,2.3s1.2,0.8,2.1,0.8c1,0,1.9-0.3,2.8-1v1.4c-0.8,0.6-1.8,0.9-3.1,0.9s-2.3-0.4-3-1.2
			c-0.7-0.8-1.1-2-1.1-3.4s0.4-2.5,1.2-3.4s1.8-1.3,3-1.3s2.1,0.4,2.7,1.1s1,1.8,1,3.2V5941.8z M919.4,5940.5c0-0.8-0.2-1.5-0.6-1.9
			c-0.4-0.5-0.9-0.7-1.6-0.7c-0.7,0-1.3,0.2-1.7,0.7s-0.8,1.1-0.9,1.9H919.4z"/>
		<path d="M922.5,5945.6v-1.5c0.8,0.6,1.6,0.9,2.6,0.9c1.3,0,1.9-0.4,1.9-1.3c0-0.2-0.1-0.4-0.2-0.6c-0.1-0.2-0.3-0.3-0.4-0.4
			c-0.2-0.1-0.4-0.2-0.7-0.3c-0.2-0.1-0.5-0.2-0.8-0.3c-0.4-0.2-0.7-0.3-1.1-0.5c-0.3-0.2-0.6-0.3-0.8-0.5s-0.4-0.4-0.5-0.7
			c-0.1-0.3-0.2-0.6-0.2-0.9c0-0.4,0.1-0.8,0.3-1.1c0.2-0.3,0.5-0.6,0.8-0.8c0.3-0.2,0.7-0.4,1.1-0.5c0.4-0.1,0.8-0.2,1.3-0.2
			c0.8,0,1.5,0.1,2.1,0.4v1.5c-0.7-0.4-1.4-0.7-2.3-0.7c-0.3,0-0.5,0-0.7,0.1s-0.4,0.1-0.6,0.3c-0.2,0.1-0.3,0.2-0.4,0.4
			c-0.1,0.2-0.1,0.3-0.1,0.5s0,0.4,0.1,0.6s0.2,0.3,0.4,0.4s0.4,0.2,0.6,0.3s0.5,0.2,0.8,0.3c0.4,0.2,0.8,0.3,1.1,0.5
			s0.6,0.3,0.8,0.5s0.4,0.4,0.5,0.7c0.1,0.3,0.2,0.6,0.2,0.9c0,0.4-0.1,0.8-0.3,1.2c-0.2,0.3-0.5,0.6-0.8,0.8s-0.7,0.4-1.1,0.5
			s-0.9,0.2-1.3,0.2C924,5946.1,923.2,5945.9,922.5,5945.6z"/>
		<path d="M931.4,5934.6c-0.3,0-0.5-0.1-0.7-0.3s-0.3-0.4-0.3-0.7s0.1-0.5,0.3-0.7s0.4-0.3,0.7-0.3s0.5,0.1,0.7,0.3
			c0.2,0.2,0.3,0.4,0.3,0.7c0,0.3-0.1,0.5-0.3,0.7C931.9,5934.5,931.7,5934.6,931.4,5934.6z M932.1,5945.9h-1.4v-9h1.4V5945.9z"/>
		<path d="M942.7,5945.9h-1.4v-1.5l0,0c-0.7,1.2-1.7,1.7-3.1,1.7c-1.1,0-2-0.4-2.7-1.2c-0.7-0.8-1-1.9-1-3.3c0-1.5,0.4-2.7,1.1-3.6
			s1.7-1.3,3-1.3c1.2,0,2.1,0.5,2.7,1.5l0,0v-5.6h1.4V5945.9z M941.3,5941.8v-1.3c0-0.7-0.2-1.3-0.7-1.8s-1.1-0.8-1.8-0.8
			c-0.9,0-1.6,0.3-2.1,1s-0.8,1.5-0.8,2.7c0,1,0.2,1.9,0.7,2.5s1.1,0.9,1.9,0.9c0.8,0,1.5-0.3,2-0.9
			C941,5943.4,941.3,5942.7,941.3,5941.8z"/>
		<path d="M952.9,5945.9h-1.4v-1.4l0,0c-0.6,1.1-1.5,1.6-2.8,1.6c-2.1,0-3.2-1.3-3.2-3.8v-5.4h1.4v5.2c0,1.9,0.7,2.8,2.2,2.8
			c0.7,0,1.3-0.3,1.7-0.8c0.5-0.5,0.7-1.2,0.7-2v-5.2h1.4L952.9,5945.9L952.9,5945.9z"/>
		<path d="M959.6,5946.1c-1.3,0-2.4-0.4-3.2-1.3c-0.8-0.8-1.2-2-1.2-3.3c0-1.5,0.4-2.7,1.2-3.5s1.9-1.3,3.3-1.3
			c1.3,0,2.4,0.4,3.1,1.2c0.8,0.8,1.1,2,1.1,3.4s-0.4,2.6-1.2,3.4C962,5945.7,961,5946.1,959.6,5946.1z M959.7,5937.9
			c-0.9,0-1.7,0.3-2.2,0.9s-0.8,1.5-0.8,2.6s0.3,1.9,0.8,2.5s1.3,0.9,2.2,0.9s1.6-0.3,2.1-0.9s0.8-1.5,0.8-2.6s-0.3-2-0.8-2.6
			C961.3,5938.2,960.6,5937.9,959.7,5937.9z"/>
		<path d="M965.8,5945.6v-1.5c0.8,0.6,1.6,0.9,2.6,0.9c1.3,0,1.9-0.4,1.9-1.3c0-0.2-0.1-0.4-0.2-0.6c-0.1-0.2-0.3-0.3-0.4-0.4
			c-0.2-0.1-0.4-0.2-0.7-0.3c-0.2-0.1-0.5-0.2-0.8-0.3c-0.4-0.2-0.7-0.3-1.1-0.5c-0.3-0.2-0.6-0.3-0.8-0.5s-0.4-0.4-0.5-0.7
			c-0.1-0.3-0.2-0.6-0.2-0.9c0-0.4,0.1-0.8,0.3-1.1c0.2-0.3,0.5-0.6,0.8-0.8c0.3-0.2,0.7-0.4,1.1-0.5c0.4-0.1,0.8-0.2,1.3-0.2
			c0.8,0,1.5,0.1,2.1,0.4v1.5c-0.7-0.4-1.4-0.7-2.3-0.7c-0.3,0-0.5,0-0.7,0.1s-0.4,0.1-0.6,0.3c-0.2,0.1-0.3,0.2-0.4,0.4
			c-0.1,0.2-0.1,0.3-0.1,0.5s0,0.4,0.1,0.6s0.2,0.3,0.4,0.4s0.4,0.2,0.6,0.3s0.5,0.2,0.8,0.3c0.4,0.2,0.8,0.3,1.1,0.5
			s0.6,0.3,0.8,0.5s0.4,0.4,0.5,0.7c0.1,0.3,0.2,0.6,0.2,0.9c0,0.4-0.1,0.8-0.3,1.2c-0.2,0.3-0.5,0.6-0.8,0.8s-0.7,0.4-1.1,0.5
			s-0.9,0.2-1.3,0.2C967.3,5946.1,966.5,5945.9,965.8,5945.6z"/>
		<path d="M975.3,5943.9l-1.4,4.3h-1l1-4.3H975.3z"/>
	</g>
	<g class="st4">
		<path d="M678.1,5958.6c-0.3,0-0.5-0.1-0.7-0.3s-0.3-0.4-0.3-0.7s0.1-0.5,0.3-0.7s0.4-0.3,0.7-0.3s0.5,0.1,0.7,0.3
			c0.2,0.2,0.3,0.4,0.3,0.7c0,0.3-0.1,0.5-0.3,0.7C678.6,5958.5,678.4,5958.6,678.1,5958.6z M678.8,5969.9h-1.4v-9h1.4V5969.9z"/>
		<path d="M689.2,5969.9h-1.4v-5.1c0-1.9-0.7-2.9-2.1-2.9c-0.7,0-1.3,0.3-1.8,0.8s-0.7,1.2-0.7,2.1v5.1h-1.4v-9h1.4v1.5l0,0
			c0.7-1.1,1.7-1.7,3-1.7c1,0,1.7,0.3,2.3,1c0.5,0.6,0.8,1.6,0.8,2.8L689.2,5969.9L689.2,5969.9z"/>
		<path d="M698,5969.5c-0.7,0.4-1.5,0.6-2.5,0.6c-1.3,0-2.3-0.4-3.1-1.3c-0.8-0.8-1.2-1.9-1.2-3.2c0-1.5,0.4-2.7,1.3-3.6
			s2-1.3,3.4-1.3c0.8,0,1.5,0.1,2.1,0.4v1.5c-0.7-0.5-1.4-0.7-2.1-0.7c-0.9,0-1.7,0.3-2.3,1s-0.9,1.5-0.9,2.6s0.3,1.9,0.8,2.5
			c0.6,0.6,1.3,0.9,2.2,0.9c0.8,0,1.5-0.3,2.2-0.8L698,5969.5L698,5969.5z"/>
		<path d="M701.7,5969.9h-1.4v-13.3h1.4V5969.9z"/>
		<path d="M711.9,5969.9h-1.4v-1.4l0,0c-0.6,1.1-1.5,1.6-2.8,1.6c-2.1,0-3.2-1.3-3.2-3.8v-5.4h1.4v5.2c0,1.9,0.7,2.8,2.2,2.8
			c0.7,0,1.3-0.3,1.7-0.8c0.5-0.5,0.7-1.2,0.7-2v-5.2h1.4L711.9,5969.9L711.9,5969.9z"/>
		<path d="M721.9,5960.9l-4.1,10.4c-0.7,1.9-1.8,2.8-3.1,2.8c-0.4,0-0.7,0-0.9-0.1v-1.3c0.3,0.1,0.6,0.2,0.9,0.2
			c0.7,0,1.3-0.4,1.6-1.3l0.7-1.7l-3.5-9h1.6l2.4,6.9c0,0.1,0.1,0.3,0.2,0.7h0.1c0-0.1,0.1-0.4,0.2-0.7l2.6-6.9H721.9z"/>
		<path d="M730.7,5965.8h-6.4c0,1,0.3,1.8,0.8,2.3s1.2,0.8,2.1,0.8c1,0,1.9-0.3,2.8-1v1.4c-0.8,0.6-1.8,0.9-3.1,0.9s-2.3-0.4-3-1.2
			c-0.7-0.8-1.1-2-1.1-3.4s0.4-2.5,1.2-3.4s1.8-1.3,3-1.3s2.1,0.4,2.7,1.1s1,1.8,1,3.2V5965.8z M729.2,5964.5c0-0.8-0.2-1.5-0.6-1.9
			c-0.4-0.5-0.9-0.7-1.6-0.7c-0.7,0-1.3,0.2-1.7,0.7s-0.8,1.1-0.9,1.9H729.2z"/>
		<path d="M739.3,5969.5c0,1.5-0.3,2.6-0.9,3.4c-0.6,0.8-1.4,1.2-2.6,1.2c-0.4,0-0.8-0.1-1.2-0.3v-1.3c0.4,0.3,0.8,0.4,1.2,0.4
			c1.3,0,2-1,2-3.1v-8.9h1.4L739.3,5969.5L739.3,5969.5z M738.6,5958.6c-0.3,0-0.5-0.1-0.7-0.3s-0.3-0.4-0.3-0.7s0.1-0.5,0.3-0.7
			s0.4-0.3,0.7-0.3s0.5,0.1,0.7,0.3c0.2,0.2,0.3,0.4,0.3,0.7c0,0.3-0.1,0.5-0.3,0.7C739,5958.5,738.8,5958.6,738.6,5958.6z"/>
		<path d="M749.4,5965.8H743c0,1,0.3,1.8,0.8,2.3s1.2,0.8,2.1,0.8c1,0,1.9-0.3,2.8-1v1.4c-0.8,0.6-1.8,0.9-3.1,0.9s-2.3-0.4-3-1.2
			c-0.7-0.8-1.1-2-1.1-3.4s0.4-2.5,1.2-3.4s1.8-1.3,3-1.3s2.1,0.4,2.7,1.1s1,1.8,1,3.2V5965.8z M747.9,5964.5c0-0.8-0.2-1.5-0.6-1.9
			c-0.4-0.5-0.9-0.7-1.6-0.7c-0.7,0-1.3,0.2-1.7,0.7s-0.8,1.1-0.9,1.9H747.9z"/>
		<path d="M756.3,5962.3c-0.3-0.2-0.6-0.3-1.1-0.3c-0.6,0-1.1,0.3-1.5,0.9s-0.6,1.4-0.6,2.4v4.6h-1.4v-9h1.4v1.9l0,0
			c0.2-0.6,0.5-1.1,0.9-1.5s0.9-0.5,1.4-0.5c0.4,0,0.7,0,0.9,0.1L756.3,5962.3L756.3,5962.3z"/>
		<path d="M758.6,5958.6c-0.3,0-0.5-0.1-0.7-0.3s-0.3-0.4-0.3-0.7s0.1-0.5,0.3-0.7s0.4-0.3,0.7-0.3s0.5,0.1,0.7,0.3
			c0.2,0.2,0.3,0.4,0.3,0.7c0,0.3-0.1,0.5-0.3,0.7C759.1,5958.5,758.9,5958.6,758.6,5958.6z M759.3,5969.9h-1.4v-9h1.4V5969.9z"/>
		<path d="M769.7,5969.9h-1.4v-5.1c0-1.9-0.7-2.9-2.1-2.9c-0.7,0-1.3,0.3-1.8,0.8s-0.7,1.2-0.7,2.1v5.1h-1.4v-9h1.4v1.5l0,0
			c0.7-1.1,1.7-1.7,3-1.7c1,0,1.7,0.3,2.3,1c0.5,0.6,0.8,1.6,0.8,2.8L769.7,5969.9L769.7,5969.9z"/>
		<path d="M780.1,5969.2c0,3.3-1.6,5-4.7,5c-1.1,0-2.1-0.2-2.9-0.6v-1.4c1,0.6,2,0.8,2.9,0.8c2.2,0,3.3-1.2,3.3-3.5v-1l0,0
			c-0.7,1.1-1.7,1.7-3.1,1.7c-1.1,0-2-0.4-2.7-1.2c-0.7-0.8-1-1.9-1-3.2c0-1.5,0.4-2.7,1.1-3.6c0.7-0.9,1.7-1.4,3-1.4
			c1.2,0,2.1,0.5,2.7,1.5l0,0v-1.2h1.4V5969.2z M778.6,5965.8v-1.3c0-0.7-0.2-1.3-0.7-1.8s-1.1-0.8-1.8-0.8c-0.9,0-1.6,0.3-2.1,1
			c-0.5,0.6-0.8,1.6-0.8,2.7c0,1,0.2,1.8,0.7,2.4s1.1,0.9,1.9,0.9c0.8,0,1.5-0.3,2-0.9C778.4,5967.5,778.6,5966.7,778.6,5965.8z"/>
		<path d="M789.4,5969.9H788v-1.4l0,0c-0.6,1.1-1.5,1.6-2.8,1.6c-0.9,0-1.6-0.2-2.1-0.7s-0.8-1.1-0.8-1.9c0-1.7,1-2.7,3-2.9l2.7-0.4
			c0-1.5-0.6-2.3-1.9-2.3c-1.1,0-2.1,0.4-2.9,1.1v-1.5c0.9-0.6,1.9-0.8,3.1-0.8c2.1,0,3.2,1.1,3.2,3.4L789.4,5969.9L789.4,5969.9z
			 M788,5965.3l-2.2,0.3c-0.7,0.1-1.2,0.3-1.5,0.5s-0.5,0.7-0.5,1.3c0,0.4,0.2,0.8,0.5,1.1c0.3,0.3,0.7,0.4,1.3,0.4
			c0.7,0,1.3-0.2,1.8-0.8c0.5-0.5,0.7-1.1,0.7-1.9L788,5965.3L788,5965.3z"/>
		<path d="M791.6,5969.6v-1.5c0.8,0.6,1.6,0.9,2.6,0.9c1.3,0,1.9-0.4,1.9-1.3c0-0.2-0.1-0.4-0.2-0.6c-0.1-0.2-0.3-0.3-0.4-0.4
			c-0.2-0.1-0.4-0.2-0.7-0.3c-0.2-0.1-0.5-0.2-0.8-0.3c-0.4-0.2-0.7-0.3-1-0.5s-0.6-0.3-0.8-0.5s-0.4-0.4-0.5-0.7
			c-0.1-0.3-0.2-0.6-0.2-0.9c0-0.4,0.1-0.8,0.3-1.1c0.2-0.3,0.5-0.6,0.8-0.8c0.3-0.2,0.7-0.4,1.1-0.5c0.4-0.1,0.8-0.2,1.3-0.2
			c0.8,0,1.5,0.1,2.1,0.4v1.5c-0.7-0.4-1.4-0.7-2.3-0.7c-0.3,0-0.5,0-0.7,0.1s-0.4,0.1-0.6,0.3c-0.2,0.1-0.3,0.2-0.4,0.4
			c-0.1,0.2-0.1,0.3-0.1,0.5s0,0.4,0.1,0.6s0.2,0.3,0.4,0.4s0.4,0.2,0.6,0.3s0.5,0.2,0.8,0.3c0.4,0.2,0.8,0.3,1.1,0.5
			s0.6,0.3,0.8,0.5s0.4,0.4,0.5,0.7c0.1,0.3,0.2,0.6,0.2,0.9c0,0.4-0.1,0.8-0.3,1.2c-0.2,0.3-0.5,0.6-0.8,0.8s-0.7,0.4-1.1,0.5
			s-0.9,0.2-1.3,0.2C793.1,5970.1,792.3,5969.9,791.6,5969.6z"/>
		<path d="M801.1,5967.9l-1.4,4.3h-1l1-4.3H801.1z"/>
		<path d="M815.1,5969.9h-1.4v-1.4l0,0c-0.6,1.1-1.5,1.6-2.8,1.6c-0.9,0-1.6-0.2-2.1-0.7s-0.8-1.1-0.8-1.9c0-1.7,1-2.7,3-2.9
			l2.7-0.4c0-1.5-0.6-2.3-1.9-2.3c-1.1,0-2.1,0.4-2.9,1.1v-1.5c0.9-0.6,1.9-0.8,3.1-0.8c2.1,0,3.2,1.1,3.2,3.4L815.1,5969.9
			L815.1,5969.9z M813.6,5965.3l-2.2,0.3c-0.7,0.1-1.2,0.3-1.5,0.5s-0.5,0.7-0.5,1.3c0,0.4,0.2,0.8,0.5,1.1c0.3,0.3,0.7,0.4,1.3,0.4
			c0.7,0,1.3-0.2,1.8-0.8c0.5-0.5,0.7-1.1,0.7-1.9L813.6,5965.3L813.6,5965.3z"/>
		<path d="M825.5,5969.2c0,3.3-1.6,5-4.7,5c-1.1,0-2.1-0.2-2.9-0.6v-1.4c1,0.6,2,0.8,2.9,0.8c2.2,0,3.3-1.2,3.3-3.5v-1l0,0
			c-0.7,1.1-1.7,1.7-3.1,1.7c-1.1,0-2-0.4-2.7-1.2c-0.7-0.8-1-1.9-1-3.2c0-1.5,0.4-2.7,1.1-3.6c0.7-0.9,1.7-1.4,3-1.4
			c1.2,0,2.1,0.5,2.7,1.5l0,0v-1.2h1.4V5969.2z M824,5965.8v-1.3c0-0.7-0.2-1.3-0.7-1.8s-1.1-0.8-1.8-0.8c-0.9,0-1.6,0.3-2.1,1
			c-0.5,0.6-0.8,1.6-0.8,2.7c0,1,0.2,1.8,0.7,2.4s1.1,0.9,1.9,0.9c0.8,0,1.5-0.3,2-0.9C823.8,5967.5,824,5966.7,824,5965.8z"/>
		<path d="M835.7,5969.9h-1.4v-1.4l0,0c-0.6,1.1-1.5,1.6-2.8,1.6c-2.1,0-3.2-1.3-3.2-3.8v-5.4h1.4v5.2c0,1.9,0.7,2.8,2.2,2.8
			c0.7,0,1.3-0.3,1.7-0.8c0.5-0.5,0.7-1.2,0.7-2v-5.2h1.4L835.7,5969.9L835.7,5969.9z"/>
		<path d="M840,5969.5c0,1.5-0.3,2.6-0.9,3.4c-0.6,0.8-1.4,1.2-2.6,1.2c-0.4,0-0.8-0.1-1.2-0.3v-1.3c0.4,0.3,0.8,0.4,1.2,0.4
			c1.3,0,2-1,2-3.1v-8.9h1.4L840,5969.5L840,5969.5z M839.3,5958.6c-0.3,0-0.5-0.1-0.7-0.3s-0.3-0.4-0.3-0.7s0.1-0.5,0.3-0.7
			s0.4-0.3,0.7-0.3s0.5,0.1,0.7,0.3c0.2,0.2,0.3,0.4,0.3,0.7c0,0.3-0.1,0.5-0.3,0.7C839.8,5958.5,839.6,5958.6,839.3,5958.6z"/>
		<path d="M849.4,5969.9h-1.5v-1.4l0,0c-0.6,1.1-1.5,1.6-2.8,1.6c-0.9,0-1.6-0.2-2.1-0.7s-0.8-1.1-0.8-1.9c0-1.7,1-2.7,3-2.9
			l2.7-0.4c0-1.5-0.6-2.3-1.9-2.3c-1.1,0-2.1,0.4-2.9,1.1v-1.5c0.9-0.6,1.9-0.8,3.1-0.8c2.1,0,3.2,1.1,3.2,3.4V5969.9z
			 M847.9,5965.3l-2.2,0.3c-0.7,0.1-1.2,0.3-1.5,0.5s-0.5,0.7-0.5,1.3c0,0.4,0.2,0.8,0.5,1.1c0.3,0.3,0.7,0.4,1.3,0.4
			c0.7,0,1.3-0.2,1.8-0.8c0.5-0.5,0.7-1.1,0.7-1.9L847.9,5965.3L847.9,5965.3z"/>
		<path d="M851.5,5969.6v-1.5c0.8,0.6,1.6,0.9,2.6,0.9c1.3,0,1.9-0.4,1.9-1.3c0-0.2-0.1-0.4-0.2-0.6c-0.1-0.2-0.3-0.3-0.4-0.4
			c-0.2-0.1-0.4-0.2-0.7-0.3c-0.2-0.1-0.5-0.2-0.8-0.3c-0.4-0.2-0.7-0.3-1.1-0.5c-0.3-0.2-0.6-0.3-0.8-0.5s-0.4-0.4-0.5-0.7
			c-0.1-0.3-0.2-0.6-0.2-0.9c0-0.4,0.1-0.8,0.3-1.1c0.2-0.3,0.5-0.6,0.8-0.8c0.3-0.2,0.7-0.4,1.1-0.5c0.4-0.1,0.8-0.2,1.3-0.2
			c0.8,0,1.5,0.1,2.1,0.4v1.5c-0.7-0.4-1.4-0.7-2.3-0.7c-0.3,0-0.5,0-0.7,0.1s-0.4,0.1-0.6,0.3c-0.2,0.1-0.3,0.2-0.4,0.4
			c-0.1,0.2-0.1,0.3-0.1,0.5s0,0.4,0.1,0.6s0.2,0.3,0.4,0.4s0.4,0.2,0.6,0.3s0.5,0.2,0.8,0.3c0.4,0.2,0.8,0.3,1.1,0.5
			s0.6,0.3,0.8,0.5s0.4,0.4,0.5,0.7c0.1,0.3,0.2,0.6,0.2,0.9c0,0.4-0.1,0.8-0.3,1.2c-0.2,0.3-0.5,0.6-0.8,0.8s-0.7,0.4-1.1,0.5
			s-0.9,0.2-1.3,0.2C853,5970.1,852.2,5969.9,851.5,5969.6z"/>
		<path d="M871.8,5960.9l-4.1,10.4c-0.7,1.9-1.8,2.8-3.1,2.8c-0.4,0-0.7,0-0.9-0.1v-1.3c0.3,0.1,0.6,0.2,0.9,0.2
			c0.7,0,1.3-0.4,1.6-1.3l0.7-1.7l-3.5-9h1.6l2.4,6.9c0,0.1,0.1,0.3,0.2,0.7h0.1c0-0.1,0.1-0.4,0.2-0.7l2.6-6.9H871.8z"/>
		<path d="M885.4,5960.9l-3.6,9h-1.4l-3.4-9h1.6l2.3,6.5c0.2,0.5,0.3,0.9,0.3,1.3l0,0c0.1-0.5,0.2-0.9,0.3-1.2l2.4-6.6L885.4,5960.9
			L885.4,5960.9z"/>
		<path d="M887.7,5958.6c-0.3,0-0.5-0.1-0.7-0.3s-0.3-0.4-0.3-0.7s0.1-0.5,0.3-0.7s0.4-0.3,0.7-0.3s0.5,0.1,0.7,0.3
			c0.2,0.2,0.3,0.4,0.3,0.7c0,0.3-0.1,0.5-0.3,0.7C888.1,5958.5,887.9,5958.6,887.7,5958.6z M888.4,5969.9h-1.5v-9h1.4L888.4,5969.9
			L888.4,5969.9z"/>
		<path d="M897.7,5969.9h-1.4v-1.4l0,0c-0.6,1.1-1.5,1.6-2.8,1.6c-0.9,0-1.6-0.2-2.1-0.7s-0.8-1.1-0.8-1.9c0-1.7,1-2.7,3-2.9
			l2.7-0.4c0-1.5-0.6-2.3-1.9-2.3c-1.1,0-2.1,0.4-2.9,1.1v-1.5c0.9-0.6,1.9-0.8,3.1-0.8c2.1,0,3.2,1.1,3.2,3.4L897.7,5969.9
			L897.7,5969.9z M896.3,5965.3l-2.2,0.3c-0.7,0.1-1.2,0.3-1.5,0.5s-0.5,0.7-0.5,1.3c0,0.4,0.2,0.8,0.5,1.1c0.3,0.3,0.7,0.4,1.3,0.4
			c0.7,0,1.3-0.2,1.8-0.8c0.5-0.5,0.7-1.1,0.7-1.9L896.3,5965.3L896.3,5965.3z"/>
		<path d="M901.9,5969.9h-1.4v-13.3h1.4V5969.9z"/>
		<path d="M912,5965.8h-6.4c0,1,0.3,1.8,0.8,2.3s1.2,0.8,2.1,0.8c1,0,1.9-0.3,2.8-1v1.4c-0.8,0.6-1.8,0.9-3.1,0.9s-2.3-0.4-3-1.2
			c-0.7-0.8-1.1-2-1.1-3.4s0.4-2.5,1.2-3.4s1.8-1.3,3-1.3s2.1,0.4,2.7,1.1s1,1.8,1,3.2V5965.8z M910.6,5964.5c0-0.8-0.2-1.5-0.6-1.9
			c-0.4-0.5-0.9-0.7-1.6-0.7c-0.7,0-1.3,0.2-1.7,0.7s-0.8,1.1-0.9,1.9H910.6z"/>
		<path d="M913.7,5969.6v-1.5c0.8,0.6,1.6,0.9,2.6,0.9c1.3,0,1.9-0.4,1.9-1.3c0-0.2-0.1-0.4-0.2-0.6c-0.1-0.2-0.3-0.3-0.4-0.4
			c-0.2-0.1-0.4-0.2-0.7-0.3c-0.2-0.1-0.5-0.2-0.8-0.3c-0.4-0.2-0.7-0.3-1.1-0.5c-0.3-0.2-0.6-0.3-0.8-0.5s-0.4-0.4-0.5-0.7
			c-0.1-0.3-0.2-0.6-0.2-0.9c0-0.4,0.1-0.8,0.3-1.1c0.2-0.3,0.5-0.6,0.8-0.8c0.3-0.2,0.7-0.4,1.1-0.5c0.4-0.1,0.8-0.2,1.3-0.2
			c0.8,0,1.5,0.1,2.1,0.4v1.5c-0.7-0.4-1.4-0.7-2.3-0.7c-0.3,0-0.5,0-0.7,0.1s-0.4,0.1-0.6,0.3c-0.2,0.1-0.3,0.2-0.4,0.4
			c-0.1,0.2-0.1,0.3-0.1,0.5s0,0.4,0.1,0.6s0.2,0.3,0.4,0.4s0.4,0.2,0.6,0.3s0.5,0.2,0.8,0.3c0.4,0.2,0.8,0.3,1.1,0.5
			s0.6,0.3,0.8,0.5s0.4,0.4,0.5,0.7c0.1,0.3,0.2,0.6,0.2,0.9c0,0.4-0.1,0.8-0.3,1.2c-0.2,0.3-0.5,0.6-0.8,0.8s-0.7,0.4-1.1,0.5
			s-0.9,0.2-1.3,0.2C915.1,5970.1,914.3,5969.9,913.7,5969.6z"/>
	</g>
	<g class="st4">
		<path d="M685,5993.2c0,3.3-1.6,5-4.7,5c-1.1,0-2.1-0.2-2.9-0.6v-1.4c1,0.6,2,0.8,2.9,0.8c2.2,0,3.3-1.2,3.3-3.5v-1l0,0
			c-0.7,1.1-1.7,1.7-3.1,1.7c-1.1,0-2-0.4-2.7-1.2c-0.7-0.8-1-1.9-1-3.2c0-1.5,0.4-2.7,1.1-3.6c0.7-0.9,1.7-1.4,3-1.4
			c1.2,0,2.1,0.5,2.7,1.5l0,0v-1.2h1.4V5993.2z M683.6,5989.8v-1.3c0-0.7-0.2-1.3-0.7-1.8s-1.1-0.8-1.8-0.8c-0.9,0-1.6,0.3-2.1,1
			c-0.5,0.6-0.8,1.6-0.8,2.7c0,1,0.2,1.8,0.7,2.4s1.1,0.9,1.9,0.9c0.8,0,1.5-0.3,2-0.9C683.3,5991.5,683.6,5990.7,683.6,5989.8z"/>
		<path d="M695.2,5989.8h-6.4c0,1,0.3,1.8,0.8,2.3s1.2,0.8,2.1,0.8c1,0,1.9-0.3,2.8-1v1.4c-0.8,0.6-1.8,0.9-3.1,0.9s-2.3-0.4-3-1.2
			c-0.7-0.8-1.1-2-1.1-3.4s0.4-2.5,1.2-3.4s1.8-1.3,3-1.3s2.1,0.4,2.7,1.1s1,1.8,1,3.2V5989.8z M693.7,5988.5c0-0.8-0.2-1.5-0.6-1.9
			c-0.4-0.5-0.9-0.7-1.6-0.7c-0.7,0-1.3,0.2-1.7,0.7s-0.8,1.1-0.9,1.9H693.7z"/>
		<path d="M704.8,5993.9h-1.4v-5.1c0-1.9-0.7-2.9-2.1-2.9c-0.7,0-1.3,0.3-1.8,0.8s-0.7,1.2-0.7,2.1v5.1h-1.4v-9h1.4v1.5l0,0
			c0.7-1.1,1.7-1.7,3-1.7c1,0,1.7,0.3,2.3,1c0.5,0.6,0.8,1.6,0.8,2.8L704.8,5993.9L704.8,5993.9z"/>
		<path d="M714.8,5989.8h-6.4c0,1,0.3,1.8,0.8,2.3s1.2,0.8,2.1,0.8c1,0,1.9-0.3,2.8-1v1.4c-0.8,0.6-1.8,0.9-3.1,0.9s-2.3-0.4-3-1.2
			c-0.7-0.8-1.1-2-1.1-3.4s0.4-2.5,1.2-3.4s1.8-1.3,3-1.3s2.1,0.4,2.7,1.1s1,1.8,1,3.2V5989.8z M713.3,5988.5c0-0.8-0.2-1.5-0.6-1.9
			c-0.4-0.5-0.9-0.7-1.6-0.7c-0.7,0-1.3,0.2-1.7,0.7s-0.8,1.1-0.9,1.9H713.3z"/>
		<path d="M721.7,5986.3c-0.3-0.2-0.6-0.3-1.1-0.3c-0.6,0-1.1,0.3-1.5,0.9s-0.6,1.4-0.6,2.4v4.6h-1.4v-9h1.4v1.9l0,0
			c0.2-0.6,0.5-1.1,0.9-1.5s0.9-0.5,1.4-0.5c0.4,0,0.7,0,0.9,0.1L721.7,5986.3L721.7,5986.3z"/>
		<path d="M729.7,5993.9h-1.4v-1.4l0,0c-0.6,1.1-1.5,1.6-2.8,1.6c-0.9,0-1.6-0.2-2.1-0.7s-0.8-1.1-0.8-1.9c0-1.7,1-2.7,3-2.9
			l2.7-0.4c0-1.5-0.6-2.3-1.9-2.3c-1.1,0-2.1,0.4-2.9,1.1v-1.5c0.9-0.6,1.9-0.8,3.1-0.8c2.1,0,3.2,1.1,3.2,3.4L729.7,5993.9
			L729.7,5993.9z M728.2,5989.3l-2.2,0.3c-0.7,0.1-1.2,0.3-1.5,0.5s-0.5,0.7-0.5,1.3c0,0.4,0.2,0.8,0.5,1.1c0.3,0.3,0.7,0.4,1.3,0.4
			c0.7,0,1.3-0.2,1.8-0.8c0.5-0.5,0.7-1.1,0.7-1.9L728.2,5989.3L728.2,5989.3z"/>
		<path d="M740.1,5993.9h-1.4v-1.5l0,0c-0.7,1.2-1.7,1.7-3.1,1.7c-1.1,0-2-0.4-2.7-1.2c-0.7-0.8-1-1.9-1-3.3c0-1.5,0.4-2.7,1.1-3.6
			s1.7-1.3,3-1.3c1.2,0,2.1,0.5,2.7,1.5l0,0v-5.6h1.4V5993.9z M738.6,5989.8v-1.3c0-0.7-0.2-1.3-0.7-1.8s-1.1-0.8-1.8-0.8
			c-0.9,0-1.6,0.3-2.1,1s-0.8,1.5-0.8,2.7c0,1,0.2,1.9,0.7,2.5s1.1,0.9,1.9,0.9c0.8,0,1.5-0.3,2-0.9
			C738.4,5991.4,738.6,5990.7,738.6,5989.8z"/>
		<path d="M746.7,5994.1c-1.3,0-2.4-0.4-3.2-1.3c-0.8-0.8-1.2-2-1.2-3.3c0-1.5,0.4-2.7,1.2-3.5s1.9-1.3,3.3-1.3
			c1.3,0,2.4,0.4,3.1,1.2c0.8,0.8,1.1,2,1.1,3.4s-0.4,2.6-1.2,3.4C749.2,5993.7,748.1,5994.1,746.7,5994.1z M746.9,5985.9
			c-0.9,0-1.7,0.3-2.2,0.9s-0.8,1.5-0.8,2.6s0.3,1.9,0.8,2.5s1.3,0.9,2.2,0.9s1.6-0.3,2.1-0.9s0.8-1.5,0.8-2.6s-0.2-2-0.8-2.6
			C748.5,5986.2,747.8,5985.9,746.9,5985.9z"/>
		<path d="M753,5993.6v-1.5c0.8,0.6,1.6,0.9,2.6,0.9c1.3,0,1.9-0.4,1.9-1.3c0-0.2-0.1-0.4-0.2-0.6c-0.1-0.2-0.3-0.3-0.4-0.4
			c-0.2-0.1-0.4-0.2-0.7-0.3c-0.2-0.1-0.5-0.2-0.8-0.3c-0.4-0.2-0.7-0.3-1-0.5s-0.6-0.3-0.8-0.5s-0.4-0.4-0.5-0.7
			c-0.1-0.3-0.2-0.6-0.2-0.9c0-0.4,0.1-0.8,0.3-1.1c0.2-0.3,0.5-0.6,0.8-0.8c0.3-0.2,0.7-0.4,1.1-0.5c0.4-0.1,0.8-0.2,1.3-0.2
			c0.8,0,1.5,0.1,2.1,0.4v1.5c-0.7-0.4-1.4-0.7-2.3-0.7c-0.3,0-0.5,0-0.7,0.1s-0.4,0.1-0.6,0.3c-0.2,0.1-0.3,0.2-0.4,0.4
			c-0.1,0.2-0.1,0.3-0.1,0.5s0,0.4,0.1,0.6s0.2,0.3,0.4,0.4s0.4,0.2,0.6,0.3s0.5,0.2,0.8,0.3c0.4,0.2,0.8,0.3,1.1,0.5
			s0.6,0.3,0.8,0.5s0.4,0.4,0.5,0.7c0.1,0.3,0.2,0.6,0.2,0.9c0,0.4-0.1,0.8-0.3,1.2c-0.2,0.3-0.5,0.6-0.8,0.8s-0.7,0.4-1.1,0.5
			s-0.9,0.2-1.3,0.2C754.5,5994.1,753.7,5993.9,753,5993.6z"/>
		<path d="M773.8,5993.9h-1.4v-1.5l0,0c-0.7,1.2-1.7,1.7-3.1,1.7c-1.1,0-2-0.4-2.7-1.2c-0.7-0.8-1-1.9-1-3.3c0-1.5,0.4-2.7,1.1-3.6
			s1.7-1.3,3-1.3c1.2,0,2.1,0.5,2.7,1.5l0,0v-5.6h1.4V5993.9z M772.3,5989.8v-1.3c0-0.7-0.2-1.3-0.7-1.8s-1.1-0.8-1.8-0.8
			c-0.9,0-1.6,0.3-2.1,1s-0.8,1.5-0.8,2.7c0,1,0.2,1.9,0.7,2.5s1.1,0.9,1.9,0.9c0.8,0,1.5-0.3,2-0.9
			C772.1,5991.4,772.3,5990.7,772.3,5989.8z"/>
		<path d="M784,5993.9h-1.4v-1.4l0,0c-0.6,1.1-1.5,1.6-2.8,1.6c-2.1,0-3.2-1.3-3.2-3.8v-5.4h1.4v5.2c0,1.9,0.7,2.8,2.2,2.8
			c0.7,0,1.3-0.3,1.7-0.8c0.5-0.5,0.7-1.2,0.7-2v-5.2h1.4L784,5993.9L784,5993.9z"/>
		<path d="M791.6,5986.3c-0.3-0.2-0.6-0.3-1.1-0.3c-0.6,0-1.1,0.3-1.5,0.9s-0.6,1.4-0.6,2.4v4.6h-1.5v-9h1.4v1.9l0,0
			c0.2-0.6,0.5-1.1,0.9-1.5s0.9-0.5,1.4-0.5c0.4,0,0.7,0,0.9,0.1L791.6,5986.3L791.6,5986.3z"/>
		<path d="M799.6,5993.9h-1.4v-1.4l0,0c-0.6,1.1-1.5,1.6-2.8,1.6c-0.9,0-1.6-0.2-2.1-0.7s-0.8-1.1-0.8-1.9c0-1.7,1-2.7,3-2.9
			l2.7-0.4c0-1.5-0.6-2.3-1.9-2.3c-1.1,0-2.1,0.4-2.9,1.1v-1.5c0.9-0.6,1.9-0.8,3.1-0.8c2.1,0,3.2,1.1,3.2,3.4L799.6,5993.9
			L799.6,5993.9z M798.1,5989.3l-2.2,0.3c-0.7,0.1-1.2,0.3-1.5,0.5s-0.5,0.7-0.5,1.3c0,0.4,0.2,0.8,0.5,1.1c0.3,0.3,0.7,0.4,1.3,0.4
			c0.7,0,1.3-0.2,1.8-0.8c0.5-0.5,0.7-1.1,0.7-1.9L798.1,5989.3L798.1,5989.3z"/>
		<path d="M809.8,5993.9h-1.4v-5.1c0-1.9-0.7-2.9-2.1-2.9c-0.7,0-1.3,0.3-1.8,0.8s-0.7,1.2-0.7,2.1v5.1h-1.4v-9h1.4v1.5l0,0
			c0.7-1.1,1.7-1.7,3-1.7c1,0,1.7,0.3,2.3,1c0.5,0.6,0.8,1.6,0.8,2.8L809.8,5993.9L809.8,5993.9z"/>
		<path d="M816.7,5993.8c-0.3,0.2-0.8,0.3-1.3,0.3c-1.6,0-2.4-0.9-2.4-2.6v-5.3h-1.5v-1.2h1.5v-2.2l1.4-0.5v2.7h2.3v1.2h-2.3v5.1
			c0,0.6,0.1,1,0.3,1.3s0.5,0.4,1,0.4c0.4,0,0.7-0.1,0.9-0.3L816.7,5993.8L816.7,5993.8z"/>
		<path d="M825.8,5989.8h-6.4c0,1,0.3,1.8,0.8,2.3s1.2,0.8,2.1,0.8c1,0,1.9-0.3,2.8-1v1.4c-0.8,0.6-1.8,0.9-3.1,0.9s-2.3-0.4-3-1.2
			c-0.7-0.8-1.1-2-1.1-3.4s0.4-2.5,1.2-3.4s1.8-1.3,3-1.3s2.1,0.4,2.7,1.1s1,1.8,1,3.2V5989.8z M824.3,5988.5c0-0.8-0.2-1.5-0.6-1.9
			c-0.4-0.5-0.9-0.7-1.6-0.7c-0.7,0-1.3,0.2-1.7,0.7s-0.8,1.1-0.9,1.9H824.3z"/>
		<path d="M834.4,5993.9h-1.5v-13.3h1.4L834.4,5993.9L834.4,5993.9z"/>
		<path d="M843.7,5993.9h-1.4v-1.4l0,0c-0.6,1.1-1.5,1.6-2.8,1.6c-0.9,0-1.6-0.2-2.1-0.7s-0.8-1.1-0.8-1.9c0-1.7,1-2.7,3-2.9
			l2.7-0.4c0-1.5-0.6-2.3-1.9-2.3c-1.1,0-2.1,0.4-2.9,1.1v-1.5c0.9-0.6,1.9-0.8,3.1-0.8c2.1,0,3.2,1.1,3.2,3.4L843.7,5993.9
			L843.7,5993.9z M842.3,5989.3l-2.2,0.3c-0.7,0.1-1.2,0.3-1.5,0.5s-0.5,0.7-0.5,1.3c0,0.4,0.2,0.8,0.5,1.1c0.3,0.3,0.7,0.4,1.3,0.4
			c0.7,0,1.3-0.2,1.8-0.8c0.5-0.5,0.7-1.1,0.7-1.9L842.3,5989.3L842.3,5989.3z"/>
		<path d="M858.5,5984.9l-3.6,9h-1.4l-3.4-9h1.6l2.3,6.5c0.2,0.5,0.3,0.9,0.3,1.3l0,0c0.1-0.5,0.2-0.9,0.3-1.2l2.4-6.6L858.5,5984.9
			L858.5,5984.9z"/>
		<path d="M866.4,5993.9H865v-1.4l0,0c-0.6,1.1-1.5,1.6-2.8,1.6c-0.9,0-1.6-0.2-2.1-0.7s-0.8-1.1-0.8-1.9c0-1.7,1-2.7,3-2.9l2.7-0.4
			c0-1.5-0.6-2.3-1.9-2.3c-1.1,0-2.1,0.4-2.9,1.1v-1.5c0.9-0.6,1.9-0.8,3.1-0.8c2.1,0,3.2,1.1,3.2,3.4L866.4,5993.9L866.4,5993.9z
			 M865,5989.3l-2.2,0.3c-0.7,0.1-1.2,0.3-1.5,0.5s-0.5,0.7-0.5,1.3c0,0.4,0.2,0.8,0.5,1.1c0.3,0.3,0.7,0.4,1.3,0.4
			c0.7,0,1.3-0.2,1.8-0.8c0.5-0.5,0.7-1.1,0.7-1.9L865,5989.3L865,5989.3z"/>
		<path d="M875.3,5993.5c-0.7,0.4-1.5,0.6-2.5,0.6c-1.3,0-2.3-0.4-3.1-1.3c-0.8-0.8-1.2-1.9-1.2-3.2c0-1.5,0.4-2.7,1.3-3.6
			s2-1.3,3.4-1.3c0.8,0,1.5,0.1,2.1,0.4v1.5c-0.7-0.5-1.4-0.7-2.1-0.7c-0.9,0-1.7,0.3-2.3,1s-0.9,1.5-0.9,2.6s0.3,1.9,0.8,2.5
			c0.6,0.6,1.3,0.9,2.2,0.9c0.8,0,1.5-0.3,2.2-0.8L875.3,5993.5L875.3,5993.5z"/>
		<path d="M884.8,5993.9h-1.4v-1.4l0,0c-0.6,1.1-1.5,1.6-2.8,1.6c-2.1,0-3.2-1.3-3.2-3.8v-5.4h1.4v5.2c0,1.9,0.7,2.8,2.2,2.8
			c0.7,0,1.3-0.3,1.7-0.8c0.5-0.5,0.7-1.2,0.7-2v-5.2h1.4L884.8,5993.9L884.8,5993.9z"/>
		<path d="M895.1,5993.9h-1.4v-5.1c0-1.9-0.7-2.9-2.1-2.9c-0.7,0-1.3,0.3-1.8,0.8s-0.7,1.2-0.7,2.1v5.1h-1.4v-9h1.4v1.5l0,0
			c0.7-1.1,1.7-1.7,3-1.7c1,0,1.7,0.3,2.3,1c0.5,0.6,0.8,1.6,0.8,2.8L895.1,5993.9L895.1,5993.9z"/>
		<path d="M904.3,5993.9h-1.4v-1.4l0,0c-0.6,1.1-1.5,1.6-2.8,1.6c-0.9,0-1.6-0.2-2.1-0.7s-0.8-1.1-0.8-1.9c0-1.7,1-2.7,3-2.9
			l2.7-0.4c0-1.5-0.6-2.3-1.9-2.3c-1.1,0-2.1,0.4-2.9,1.1v-1.5c0.9-0.6,1.9-0.8,3.1-0.8c2.1,0,3.2,1.1,3.2,3.4L904.3,5993.9
			L904.3,5993.9z M902.9,5989.3l-2.2,0.3c-0.7,0.1-1.2,0.3-1.5,0.5s-0.5,0.7-0.5,1.3c0,0.4,0.2,0.8,0.5,1.1c0.3,0.3,0.7,0.4,1.3,0.4
			c0.7,0,1.3-0.2,1.8-0.8c0.5-0.5,0.7-1.1,0.7-1.9L902.9,5989.3L902.9,5989.3z"/>
		<path d="M913.1,5993.5c-0.7,0.4-1.5,0.6-2.5,0.6c-1.3,0-2.3-0.4-3.1-1.3c-0.8-0.8-1.2-1.9-1.2-3.2c0-1.5,0.4-2.7,1.3-3.6
			s2-1.3,3.4-1.3c0.8,0,1.5,0.1,2.1,0.4v1.5c-0.7-0.5-1.4-0.7-2.1-0.7c-0.9,0-1.7,0.3-2.3,1s-0.9,1.5-0.9,2.6s0.3,1.9,0.8,2.5
			c0.6,0.6,1.3,0.9,2.2,0.9c0.8,0,1.5-0.3,2.2-0.8L913.1,5993.5L913.1,5993.5z"/>
		<path d="M916.1,5982.6c-0.3,0-0.5-0.1-0.7-0.3s-0.3-0.4-0.3-0.7s0.1-0.5,0.3-0.7s0.4-0.3,0.7-0.3s0.5,0.1,0.7,0.3
			c0.2,0.2,0.3,0.4,0.3,0.7c0,0.3-0.1,0.5-0.3,0.7C916.5,5982.5,916.3,5982.6,916.1,5982.6z M916.8,5993.9h-1.4v-9h1.4V5993.9z"/>
		<path d="M923.4,5994.1c-1.3,0-2.4-0.4-3.2-1.3c-0.8-0.8-1.2-2-1.2-3.3c0-1.5,0.4-2.7,1.2-3.5s1.9-1.3,3.3-1.3
			c1.3,0,2.4,0.4,3.1,1.2c0.8,0.8,1.1,2,1.1,3.4s-0.4,2.6-1.2,3.4C925.9,5993.7,924.8,5994.1,923.4,5994.1z M923.5,5985.9
			c-0.9,0-1.7,0.3-2.2,0.9s-0.8,1.5-0.8,2.6s0.3,1.9,0.8,2.5s1.3,0.9,2.2,0.9s1.6-0.3,2.1-0.9s0.8-1.5,0.8-2.6s-0.2-2-0.8-2.6
			C925.2,5986.2,924.5,5985.9,923.5,5985.9z M925.7,5980.3l-2.3,2.9h-1.1l2-2.9H925.7z"/>
		<path d="M937.7,5993.9h-1.4v-5.1c0-1.9-0.7-2.9-2.1-2.9c-0.7,0-1.3,0.3-1.8,0.8s-0.7,1.2-0.7,2.1v5.1h-1.4v-9h1.4v1.5l0,0
			c0.7-1.1,1.7-1.7,3-1.7c1,0,1.7,0.3,2.3,1c0.5,0.6,0.8,1.6,0.8,2.8L937.7,5993.9L937.7,5993.9z"/>
		<path d="M940.9,5994.1c-0.3,0-0.5-0.1-0.7-0.3c-0.2-0.2-0.3-0.4-0.3-0.7s0.1-0.5,0.3-0.7s0.4-0.3,0.7-0.3s0.5,0.1,0.7,0.3
			c0.2,0.2,0.3,0.4,0.3,0.7s-0.1,0.5-0.3,0.7S941.2,5994.1,940.9,5994.1z"/>
	</g>
	<g class="st4">
		<path d="M679,6051.9v4.8h-1.5v-12.6h3.5c1.3,0,2.4,0.3,3.1,1c0.7,0.7,1.1,1.6,1.1,2.8s-0.4,2.2-1.2,2.9c-0.8,0.8-1.9,1.1-3.3,1.1
			L679,6051.9L679,6051.9z M679,6045.4v5.2h1.5c1,0,1.8-0.2,2.3-0.7s0.8-1.1,0.8-2c0-1.7-1-2.5-3-2.5H679z"/>
		<path d="M692.1,6049.2c-0.3-0.2-0.6-0.3-1.1-0.3c-0.6,0-1.1,0.3-1.5,0.9s-0.6,1.4-0.6,2.4v4.6h-1.4v-9h1.4v1.9l0,0
			c0.2-0.6,0.5-1.1,0.9-1.5s0.9-0.5,1.4-0.5c0.4,0,0.7,0,0.9,0.1L692.1,6049.2L692.1,6049.2z"/>
		<path d="M697.5,6056.9c-1.3,0-2.4-0.4-3.2-1.3c-0.8-0.8-1.2-2-1.2-3.3c0-1.5,0.4-2.7,1.2-3.5s1.9-1.3,3.3-1.3
			c1.3,0,2.4,0.4,3.1,1.2c0.8,0.8,1.1,2,1.1,3.4s-0.4,2.6-1.2,3.4C699.9,6056.5,698.8,6056.9,697.5,6056.9z M697.6,6048.7
			c-0.9,0-1.7,0.3-2.2,0.9s-0.8,1.5-0.8,2.6s0.3,1.9,0.8,2.5s1.3,0.9,2.2,0.9s1.6-0.3,2.1-0.9s0.8-1.5,0.8-2.6s-0.2-2-0.8-2.6
			C699.2,6049,698.5,6048.7,697.6,6048.7z"/>
		<path d="M711.3,6047.7l-3.6,9h-1.4l-3.4-9h1.6l2.3,6.5c0.2,0.5,0.3,0.9,0.3,1.3l0,0c0.1-0.5,0.2-0.9,0.3-1.2l2.4-6.6L711.3,6047.7
			L711.3,6047.7z"/>
		<path d="M713.6,6045.4c-0.3,0-0.5-0.1-0.7-0.3s-0.3-0.4-0.3-0.7s0.1-0.5,0.3-0.7s0.4-0.3,0.7-0.3s0.5,0.1,0.7,0.3
			c0.2,0.2,0.3,0.4,0.3,0.7c0,0.3-0.1,0.5-0.3,0.7C714.1,6045.3,713.9,6045.4,713.6,6045.4z M714.3,6056.7h-1.4v-9h1.4V6056.7z"/>
		<path d="M716.7,6056.4v-1.5c0.8,0.6,1.6,0.9,2.6,0.9c1.3,0,1.9-0.4,1.9-1.3c0-0.2-0.1-0.4-0.2-0.6c-0.1-0.2-0.3-0.3-0.4-0.4
			c-0.2-0.1-0.4-0.2-0.7-0.3c-0.2-0.1-0.5-0.2-0.8-0.3c-0.4-0.2-0.7-0.3-1.1-0.5c-0.3-0.2-0.6-0.3-0.8-0.5s-0.4-0.4-0.5-0.7
			c-0.1-0.3-0.2-0.6-0.2-0.9c0-0.4,0.1-0.8,0.3-1.1c0.2-0.3,0.5-0.6,0.8-0.8c0.3-0.2,0.7-0.4,1.1-0.5c0.4-0.1,0.8-0.2,1.3-0.2
			c0.8,0,1.5,0.1,2.1,0.4v1.5c-0.7-0.4-1.4-0.7-2.3-0.7c-0.3,0-0.5,0-0.7,0.1s-0.4,0.1-0.6,0.3c-0.2,0.1-0.3,0.2-0.4,0.4
			c-0.1,0.2-0.1,0.3-0.1,0.5s0,0.4,0.1,0.6s0.2,0.3,0.4,0.4s0.4,0.2,0.6,0.3s0.5,0.2,0.8,0.3c0.4,0.2,0.8,0.3,1.1,0.5
			s0.6,0.3,0.8,0.5s0.4,0.4,0.5,0.7c0.1,0.3,0.2,0.6,0.2,0.9c0,0.4-0.1,0.8-0.3,1.2c-0.2,0.3-0.5,0.6-0.8,0.8s-0.7,0.4-1.1,0.5
			s-0.9,0.2-1.3,0.2C718.2,6056.9,717.4,6056.7,716.7,6056.4z"/>
		<path d="M725.6,6045.4c-0.3,0-0.5-0.1-0.7-0.3s-0.3-0.4-0.3-0.7s0.1-0.5,0.3-0.7s0.4-0.3,0.7-0.3s0.5,0.1,0.7,0.3
			c0.2,0.2,0.3,0.4,0.3,0.7c0,0.3-0.1,0.5-0.3,0.7C726.1,6045.3,725.9,6045.4,725.6,6045.4z M726.3,6056.7h-1.4v-9h1.4V6056.7z"/>
		<path d="M733,6056.9c-1.3,0-2.4-0.4-3.2-1.3c-0.8-0.8-1.2-2-1.2-3.3c0-1.5,0.4-2.7,1.2-3.5s1.9-1.3,3.3-1.3c1.3,0,2.4,0.4,3.1,1.2
			c0.8,0.8,1.1,2,1.1,3.4s-0.4,2.6-1.2,3.4C735.4,6056.5,734.4,6056.9,733,6056.9z M733.1,6048.7c-0.9,0-1.7,0.3-2.2,0.9
			s-0.8,1.5-0.8,2.6s0.3,1.9,0.8,2.5s1.3,0.9,2.2,0.9s1.6-0.3,2.1-0.9s0.8-1.5,0.8-2.6s-0.2-2-0.8-2.6
			C734.7,6049,734,6048.7,733.1,6048.7z M735.2,6043.1l-2.3,2.9h-1.1l2-2.9H735.2z"/>
		<path d="M747.2,6056.7h-1.4v-5.1c0-1.9-0.7-2.9-2.1-2.9c-0.7,0-1.3,0.3-1.8,0.8s-0.7,1.2-0.7,2.1v5.1h-1.4v-9h1.4v1.5l0,0
			c0.7-1.1,1.7-1.7,3-1.7c1,0,1.7,0.3,2.3,1c0.5,0.6,0.8,1.6,0.8,2.8L747.2,6056.7L747.2,6056.7z"/>
		<path d="M762.6,6056.7h-1.4v-1.5l0,0c-0.7,1.2-1.7,1.7-3.1,1.7c-1.1,0-2-0.4-2.7-1.2c-0.7-0.8-1-1.9-1-3.3c0-1.5,0.4-2.7,1.1-3.6
			s1.7-1.3,3-1.3c1.2,0,2.1,0.5,2.7,1.5l0,0v-5.6h1.4V6056.7z M761.1,6052.6v-1.3c0-0.7-0.2-1.3-0.7-1.8s-1.1-0.8-1.8-0.8
			c-0.9,0-1.6,0.3-2.1,1s-0.8,1.5-0.8,2.7c0,1,0.2,1.9,0.7,2.5s1.1,0.9,1.9,0.9c0.8,0,1.5-0.3,2-0.9
			C760.9,6054.2,761.1,6053.5,761.1,6052.6z"/>
		<path d="M772.7,6052.6h-6.4c0,1,0.3,1.8,0.8,2.3s1.2,0.8,2.1,0.8c1,0,1.9-0.3,2.8-1v1.4c-0.8,0.6-1.8,0.9-3.1,0.9s-2.3-0.4-3-1.2
			c-0.7-0.8-1.1-2-1.1-3.4s0.4-2.5,1.2-3.4s1.8-1.3,3-1.3s2.1,0.4,2.7,1.1s1,1.8,1,3.2V6052.6z M771.2,6051.3c0-0.8-0.2-1.5-0.6-1.9
			c-0.4-0.5-0.9-0.7-1.6-0.7c-0.7,0-1.3,0.2-1.7,0.7s-0.8,1.1-0.9,1.9H771.2z"/>
		<path d="M781.3,6056.7h-1.4v-13.3h1.4V6056.7z"/>
		<path d="M788,6056.9c-1.3,0-2.4-0.4-3.2-1.3c-0.8-0.8-1.2-2-1.2-3.3c0-1.5,0.4-2.7,1.2-3.5s1.9-1.3,3.3-1.3c1.3,0,2.4,0.4,3.1,1.2
			c0.8,0.8,1.1,2,1.1,3.4s-0.4,2.6-1.2,3.4C790.4,6056.5,789.3,6056.9,788,6056.9z M788.1,6048.7c-0.9,0-1.7,0.3-2.2,0.9
			s-0.8,1.5-0.8,2.6s0.3,1.9,0.8,2.5s1.3,0.9,2.2,0.9s1.6-0.3,2.1-0.9s0.8-1.5,0.8-2.6s-0.2-2-0.8-2.6
			C789.7,6049,789,6048.7,788.1,6048.7z"/>
		<path d="M794.2,6056.4v-1.5c0.8,0.6,1.6,0.9,2.6,0.9c1.3,0,1.9-0.4,1.9-1.3c0-0.2-0.1-0.4-0.2-0.6c-0.1-0.2-0.3-0.3-0.4-0.4
			c-0.2-0.1-0.4-0.2-0.7-0.3c-0.2-0.1-0.5-0.2-0.8-0.3c-0.4-0.2-0.7-0.3-1-0.5s-0.6-0.3-0.8-0.5s-0.4-0.4-0.5-0.7
			c-0.1-0.3-0.2-0.6-0.2-0.9c0-0.4,0.1-0.8,0.3-1.1c0.2-0.3,0.5-0.6,0.8-0.8c0.3-0.2,0.7-0.4,1.1-0.5c0.4-0.1,0.8-0.2,1.3-0.2
			c0.8,0,1.5,0.1,2.1,0.4v1.5c-0.7-0.4-1.4-0.7-2.3-0.7c-0.3,0-0.5,0-0.7,0.1s-0.4,0.1-0.6,0.3c-0.2,0.1-0.3,0.2-0.4,0.4
			c-0.1,0.2-0.1,0.3-0.1,0.5s0,0.4,0.1,0.6s0.2,0.3,0.4,0.4s0.4,0.2,0.6,0.3s0.5,0.2,0.8,0.3c0.4,0.2,0.8,0.3,1.1,0.5
			s0.6,0.3,0.8,0.5s0.4,0.4,0.5,0.7c0.1,0.3,0.2,0.6,0.2,0.9c0,0.4-0.1,0.8-0.3,1.2c-0.2,0.3-0.5,0.6-0.8,0.8s-0.7,0.4-1.1,0.5
			s-0.9,0.2-1.3,0.2C795.7,6056.9,794.9,6056.7,794.2,6056.4z"/>
		<path d="M814.5,6052.6h-6.4c0,1,0.3,1.8,0.8,2.3s1.2,0.8,2.1,0.8c1,0,1.9-0.3,2.8-1v1.4c-0.8,0.6-1.8,0.9-3.1,0.9s-2.3-0.4-3-1.2
			c-0.7-0.8-1.1-2-1.1-3.4s0.4-2.5,1.2-3.4s1.8-1.3,3-1.3s2.1,0.4,2.7,1.1s1,1.8,1,3.2V6052.6z M813.1,6051.3c0-0.8-0.2-1.5-0.6-1.9
			c-0.4-0.5-0.9-0.7-1.6-0.7c-0.7,0-1.3,0.2-1.7,0.7s-0.8,1.1-0.9,1.9H813.1z"/>
		<path d="M818.2,6056.7h-1.4v-13.3h1.4V6056.7z"/>
		<path d="M828.3,6052.6h-6.4c0,1,0.3,1.8,0.8,2.3s1.2,0.8,2.1,0.8c1,0,1.9-0.3,2.8-1v1.4c-0.8,0.6-1.8,0.9-3.1,0.9s-2.3-0.4-3-1.2
			c-0.7-0.8-1.1-2-1.1-3.4s0.4-2.5,1.2-3.4s1.8-1.3,3-1.3s2.1,0.4,2.7,1.1s1,1.8,1,3.2V6052.6z M826.8,6051.3c0-0.8-0.2-1.5-0.6-1.9
			c-0.4-0.5-0.9-0.7-1.6-0.7c-0.7,0-1.3,0.2-1.7,0.7s-0.8,1.1-0.9,1.9H826.8z"/>
		<path d="M843.3,6056.7h-1.4v-5.2c0-1-0.2-1.7-0.5-2.2c-0.3-0.4-0.8-0.7-1.6-0.7c-0.6,0-1.1,0.3-1.6,0.8c-0.4,0.6-0.6,1.2-0.6,2
			v5.1h-1.4v-5.3c0-1.8-0.7-2.7-2-2.7c-0.6,0-1.2,0.3-1.6,0.8c-0.4,0.5-0.6,1.2-0.6,2.1v5.1h-1.4v-9h1.4v1.4l0,0
			c0.6-1.1,1.6-1.6,2.8-1.6c0.6,0,1.2,0.2,1.6,0.5c0.5,0.3,0.8,0.8,0.9,1.3c0.7-1.2,1.7-1.9,3-1.9c2,0,3,1.2,3,3.7L843.3,6056.7
			L843.3,6056.7z"/>
		<path d="M853.2,6052.6h-6.3c0,1,0.3,1.8,0.8,2.3s1.2,0.8,2.1,0.8c1,0,1.9-0.3,2.8-1v1.4c-0.8,0.6-1.8,0.9-3.1,0.9s-2.3-0.4-3-1.2
			c-0.7-0.8-1.1-2-1.1-3.4s0.4-2.5,1.2-3.4s1.8-1.3,3-1.3s2.1,0.4,2.7,1.1s1,1.8,1,3.2v0.6H853.2z M851.8,6051.3
			c0-0.8-0.2-1.5-0.6-1.9c-0.4-0.5-0.9-0.7-1.6-0.7c-0.7,0-1.3,0.2-1.7,0.7s-0.8,1.1-0.9,1.9H851.8z"/>
		<path d="M862.9,6056.7h-1.4v-5.1c0-1.9-0.7-2.9-2.1-2.9c-0.7,0-1.3,0.3-1.8,0.8s-0.7,1.2-0.7,2.1v5.1h-1.4v-9h1.4v1.5l0,0
			c0.7-1.1,1.7-1.7,3-1.7c1,0,1.7,0.3,2.3,1c0.5,0.6,0.8,1.6,0.8,2.8L862.9,6056.7L862.9,6056.7z"/>
		<path d="M869.8,6056.6c-0.3,0.2-0.8,0.3-1.3,0.3c-1.6,0-2.4-0.9-2.4-2.6v-5.3h-1.5v-1.2h1.5v-2.2l1.4-0.5v2.7h2.3v1.2h-2.3v5.1
			c0,0.6,0.1,1,0.3,1.3s0.5,0.4,1,0.4c0.4,0,0.7-0.1,0.9-0.3L869.8,6056.6L869.8,6056.6z"/>
		<path d="M875.5,6056.9c-1.3,0-2.4-0.4-3.2-1.3c-0.8-0.8-1.2-2-1.2-3.3c0-1.5,0.4-2.7,1.2-3.5s1.9-1.3,3.3-1.3
			c1.3,0,2.4,0.4,3.1,1.2c0.8,0.8,1.1,2,1.1,3.4s-0.4,2.6-1.2,3.4C877.9,6056.5,876.8,6056.9,875.5,6056.9z M875.6,6048.7
			c-0.9,0-1.7,0.3-2.2,0.9s-0.8,1.5-0.8,2.6s0.3,1.9,0.8,2.5s1.3,0.9,2.2,0.9s1.6-0.3,2.1-0.9s0.8-1.5,0.8-2.6s-0.2-2-0.8-2.6
			C877.2,6049,876.5,6048.7,875.6,6048.7z"/>
		<path d="M881.7,6056.4v-1.5c0.8,0.6,1.6,0.9,2.6,0.9c1.3,0,1.9-0.4,1.9-1.3c0-0.2-0.1-0.4-0.2-0.6c-0.1-0.2-0.3-0.3-0.4-0.4
			c-0.2-0.1-0.4-0.2-0.7-0.3c-0.2-0.1-0.5-0.2-0.8-0.3c-0.4-0.2-0.7-0.3-1-0.5s-0.6-0.3-0.8-0.5s-0.4-0.4-0.5-0.7
			c-0.1-0.3-0.2-0.6-0.2-0.9c0-0.4,0.1-0.8,0.3-1.1c0.2-0.3,0.5-0.6,0.8-0.8c0.3-0.2,0.7-0.4,1.1-0.5c0.4-0.1,0.8-0.2,1.3-0.2
			c0.8,0,1.5,0.1,2.1,0.4v1.5c-0.7-0.4-1.4-0.7-2.3-0.7c-0.3,0-0.5,0-0.7,0.1s-0.4,0.1-0.6,0.3c-0.2,0.1-0.3,0.2-0.4,0.4
			c-0.1,0.2-0.1,0.3-0.1,0.5s0,0.4,0.1,0.6s0.2,0.3,0.4,0.4s0.4,0.2,0.6,0.3s0.5,0.2,0.8,0.3c0.4,0.2,0.8,0.3,1.1,0.5
			s0.6,0.3,0.8,0.5s0.4,0.4,0.5,0.7c0.1,0.3,0.2,0.6,0.2,0.9c0,0.4-0.1,0.8-0.3,1.2c-0.2,0.3-0.5,0.6-0.8,0.8s-0.7,0.4-1.1,0.5
			s-0.9,0.2-1.3,0.2C883.2,6056.9,882.4,6056.7,881.7,6056.4z"/>
		<path d="M902,6047.7l-4.1,10.4c-0.7,1.9-1.8,2.8-3.1,2.8c-0.4,0-0.7,0-0.9-0.1v-1.3c0.3,0.1,0.6,0.2,0.9,0.2
			c0.7,0,1.3-0.4,1.6-1.3l0.7-1.7l-3.5-9h1.6l2.4,6.9c0,0.1,0.1,0.3,0.2,0.7h0.1c0-0.1,0.1-0.4,0.2-0.7l2.6-6.9H902z"/>
	</g>
	<g class="st4">
		<path d="M676.8,6081.4v-1.5c0.8,0.6,1.6,0.9,2.6,0.9c1.3,0,1.9-0.4,1.9-1.3c0-0.2-0.1-0.4-0.2-0.6c-0.1-0.2-0.3-0.3-0.4-0.4
			c-0.2-0.1-0.4-0.2-0.7-0.3c-0.2-0.1-0.5-0.2-0.8-0.3c-0.4-0.2-0.7-0.3-1.1-0.5c-0.3-0.2-0.6-0.3-0.8-0.5s-0.4-0.4-0.5-0.7
			c-0.1-0.3-0.2-0.6-0.2-0.9c0-0.4,0.1-0.8,0.3-1.1c0.2-0.3,0.5-0.6,0.8-0.8c0.3-0.2,0.7-0.4,1.1-0.5c0.4-0.1,0.8-0.2,1.3-0.2
			c0.8,0,1.5,0.1,2.1,0.4v1.5c-0.7-0.4-1.4-0.7-2.3-0.7c-0.3,0-0.5,0-0.7,0.1s-0.4,0.1-0.6,0.3c-0.2,0.1-0.3,0.2-0.4,0.4
			c-0.1,0.2-0.1,0.3-0.1,0.5s0,0.4,0.1,0.6s0.2,0.3,0.4,0.4s0.4,0.2,0.6,0.3s0.5,0.2,0.8,0.3c0.4,0.2,0.8,0.3,1.1,0.5
			s0.6,0.3,0.8,0.5s0.4,0.4,0.5,0.7c0.1,0.3,0.2,0.6,0.2,0.9c0,0.4-0.1,0.8-0.3,1.2c-0.2,0.3-0.5,0.6-0.8,0.8s-0.7,0.4-1.1,0.5
			s-0.9,0.2-1.3,0.2C678.3,6081.9,677.5,6081.7,676.8,6081.4z"/>
		<path d="M692.3,6081.7h-1.4v-1.4l0,0c-0.6,1.1-1.5,1.6-2.8,1.6c-2.1,0-3.2-1.3-3.2-3.8v-5.4h1.4v5.2c0,1.9,0.7,2.8,2.2,2.8
			c0.7,0,1.3-0.3,1.7-0.8c0.5-0.5,0.7-1.2,0.7-2v-5.2h1.4L692.3,6081.7L692.3,6081.7z"/>
		<path d="M708,6081.7h-1.4v-5.2c0-1-0.2-1.7-0.5-2.2c-0.3-0.4-0.8-0.7-1.6-0.7c-0.6,0-1.1,0.3-1.6,0.8c-0.4,0.6-0.6,1.2-0.6,2v5.1
			h-1.4v-5.3c0-1.8-0.7-2.7-2-2.7c-0.6,0-1.2,0.3-1.6,0.8c-0.4,0.5-0.6,1.2-0.6,2.1v5.1h-1.4v-9h1.4v1.4l0,0
			c0.6-1.1,1.6-1.6,2.8-1.6c0.6,0,1.2,0.2,1.6,0.5c0.5,0.3,0.8,0.8,0.9,1.3c0.7-1.2,1.7-1.9,3-1.9c2,0,3,1.2,3,3.7L708,6081.7
			L708,6081.7z"/>
		<path d="M711.4,6070.4c-0.3,0-0.5-0.1-0.7-0.3s-0.3-0.4-0.3-0.7s0.1-0.5,0.3-0.7s0.4-0.3,0.7-0.3s0.5,0.1,0.7,0.3
			c0.2,0.2,0.3,0.4,0.3,0.7c0,0.3-0.1,0.5-0.3,0.7C711.9,6070.3,711.7,6070.4,711.4,6070.4z M712.1,6081.7h-1.4v-9h1.4V6081.7z"/>
		<path d="M722.5,6081.7h-1.4v-5.1c0-1.9-0.7-2.9-2.1-2.9c-0.7,0-1.3,0.3-1.8,0.8s-0.7,1.2-0.7,2.1v5.1h-1.4v-9h1.4v1.5l0,0
			c0.7-1.1,1.7-1.7,3-1.7c1,0,1.7,0.3,2.3,1c0.5,0.6,0.8,1.6,0.8,2.8L722.5,6081.7L722.5,6081.7z"/>
		<path d="M726,6070.4c-0.3,0-0.5-0.1-0.7-0.3s-0.3-0.4-0.3-0.7s0.1-0.5,0.3-0.7s0.4-0.3,0.7-0.3s0.5,0.1,0.7,0.3
			c0.2,0.2,0.3,0.4,0.3,0.7c0,0.3-0.1,0.5-0.3,0.7C726.5,6070.3,726.2,6070.4,726,6070.4z M726.7,6081.7h-1.4v-9h1.4V6081.7z"/>
		<path d="M729,6081.4v-1.5c0.8,0.6,1.6,0.9,2.6,0.9c1.3,0,1.9-0.4,1.9-1.3c0-0.2-0.1-0.4-0.2-0.6c-0.1-0.2-0.3-0.3-0.4-0.4
			c-0.2-0.1-0.4-0.2-0.7-0.3c-0.2-0.1-0.5-0.2-0.8-0.3c-0.4-0.2-0.7-0.3-1-0.5s-0.6-0.3-0.8-0.5s-0.4-0.4-0.5-0.7
			c-0.1-0.3-0.2-0.6-0.2-0.9c0-0.4,0.1-0.8,0.3-1.1c0.2-0.3,0.5-0.6,0.8-0.8c0.3-0.2,0.7-0.4,1.1-0.5c0.4-0.1,0.8-0.2,1.3-0.2
			c0.8,0,1.5,0.1,2.1,0.4v1.5c-0.7-0.4-1.4-0.7-2.3-0.7c-0.3,0-0.5,0-0.7,0.1s-0.4,0.1-0.6,0.3c-0.2,0.1-0.3,0.2-0.4,0.4
			c-0.1,0.2-0.1,0.3-0.1,0.5s0,0.4,0.1,0.6s0.2,0.3,0.4,0.4s0.4,0.2,0.6,0.3s0.5,0.2,0.8,0.3c0.4,0.2,0.8,0.3,1.1,0.5
			s0.6,0.3,0.8,0.5s0.4,0.4,0.5,0.7c0.1,0.3,0.2,0.6,0.2,0.9c0,0.4-0.1,0.8-0.3,1.2c-0.2,0.3-0.5,0.6-0.8,0.8s-0.7,0.4-1.1,0.5
			s-0.9,0.2-1.3,0.2C730.5,6081.9,729.7,6081.7,729,6081.4z"/>
		<path d="M741.4,6081.6c-0.3,0.2-0.8,0.3-1.3,0.3c-1.6,0-2.4-0.9-2.4-2.6v-5.3h-1.5v-1.2h1.5v-2.2l1.4-0.5v2.7h2.3v1.2h-2.3v5.1
			c0,0.6,0.1,1,0.3,1.3s0.5,0.4,1,0.4c0.4,0,0.7-0.1,0.9-0.3L741.4,6081.6L741.4,6081.6z"/>
		<path d="M748,6074.2c-0.3-0.2-0.6-0.3-1.1-0.3c-0.6,0-1.1,0.3-1.5,0.9s-0.6,1.4-0.6,2.4v4.6h-1.4v-9h1.4v1.9l0,0
			c0.2-0.6,0.5-1.1,0.9-1.5s0.9-0.5,1.4-0.5c0.4,0,0.7,0,0.9,0.1L748,6074.2L748,6074.2z"/>
		<path d="M753.3,6081.9c-1.3,0-2.4-0.4-3.2-1.3c-0.8-0.8-1.2-2-1.2-3.3c0-1.5,0.4-2.7,1.2-3.5s1.9-1.3,3.3-1.3
			c1.3,0,2.4,0.4,3.1,1.2c0.8,0.8,1.1,2,1.1,3.4s-0.4,2.6-1.2,3.4C755.8,6081.5,754.7,6081.9,753.3,6081.9z M753.5,6073.7
			c-0.9,0-1.7,0.3-2.2,0.9s-0.8,1.5-0.8,2.6s0.3,1.9,0.8,2.5s1.3,0.9,2.2,0.9s1.6-0.3,2.1-0.9s0.8-1.5,0.8-2.6s-0.3-2-0.8-2.6
			C755.1,6074,754.4,6073.7,753.5,6073.7z"/>
		<path d="M759.6,6081.4v-1.5c0.8,0.6,1.6,0.9,2.6,0.9c1.3,0,1.9-0.4,1.9-1.3c0-0.2-0.1-0.4-0.2-0.6c-0.1-0.2-0.3-0.3-0.4-0.4
			c-0.2-0.1-0.4-0.2-0.7-0.3c-0.2-0.1-0.5-0.2-0.8-0.3c-0.4-0.2-0.7-0.3-1.1-0.5c-0.3-0.2-0.6-0.3-0.8-0.5s-0.4-0.4-0.5-0.7
			c-0.1-0.3-0.2-0.6-0.2-0.9c0-0.4,0.1-0.8,0.3-1.1c0.2-0.3,0.5-0.6,0.8-0.8c0.3-0.2,0.7-0.4,1.1-0.5c0.4-0.1,0.8-0.2,1.3-0.2
			c0.8,0,1.5,0.1,2.1,0.4v1.5c-0.7-0.4-1.4-0.7-2.3-0.7c-0.3,0-0.5,0-0.7,0.1s-0.4,0.1-0.6,0.3c-0.2,0.1-0.3,0.2-0.4,0.4
			c-0.1,0.2-0.1,0.3-0.1,0.5s0,0.4,0.1,0.6s0.2,0.3,0.4,0.4s0.4,0.2,0.6,0.3s0.5,0.2,0.8,0.3c0.4,0.2,0.8,0.3,1.1,0.5
			s0.6,0.3,0.8,0.5s0.4,0.4,0.5,0.7c0.1,0.3,0.2,0.6,0.2,0.9c0,0.4-0.1,0.8-0.3,1.2c-0.2,0.3-0.5,0.6-0.8,0.8s-0.7,0.4-1.1,0.5
			s-0.9,0.2-1.3,0.2C761.1,6081.9,760.3,6081.7,759.6,6081.4z"/>
		<path d="M780.2,6081.7h-1.4v-5.1c0-1.9-0.7-2.9-2.1-2.9c-0.7,0-1.3,0.3-1.8,0.8s-0.7,1.2-0.7,2.1v5.1h-1.4v-9h1.4v1.5l0,0
			c0.7-1.1,1.7-1.7,3-1.7c1,0,1.7,0.3,2.3,1c0.5,0.6,0.8,1.6,0.8,2.8L780.2,6081.7L780.2,6081.7z"/>
		<path d="M790.1,6077.6h-6.4c0,1,0.3,1.8,0.8,2.3s1.2,0.8,2.1,0.8c1,0,1.9-0.3,2.8-1v1.4c-0.8,0.6-1.8,0.9-3.1,0.9s-2.3-0.4-3-1.2
			c-0.7-0.8-1.1-2-1.1-3.4s0.4-2.5,1.2-3.4s1.8-1.3,3-1.3s2.1,0.4,2.7,1.1s1,1.8,1,3.2V6077.6z M788.6,6076.3c0-0.8-0.2-1.5-0.6-1.9
			c-0.4-0.5-0.9-0.7-1.6-0.7c-0.7,0-1.3,0.2-1.7,0.7s-0.8,1.1-0.9,1.9H788.6z"/>
		<path d="M798.4,6081.3c-0.7,0.4-1.5,0.6-2.5,0.6c-1.3,0-2.3-0.4-3.1-1.3c-0.8-0.8-1.2-1.9-1.2-3.2c0-1.5,0.4-2.7,1.3-3.6
			s2-1.3,3.4-1.3c0.8,0,1.5,0.1,2.1,0.4v1.5c-0.7-0.5-1.4-0.7-2.1-0.7c-0.9,0-1.7,0.3-2.3,1s-0.9,1.5-0.9,2.6s0.3,1.9,0.8,2.5
			c0.6,0.6,1.3,0.9,2.2,0.9c0.8,0,1.5-0.3,2.2-0.8L798.4,6081.3L798.4,6081.3z"/>
		<path d="M807.9,6077.6h-6.4c0,1,0.3,1.8,0.8,2.3s1.2,0.8,2.1,0.8c1,0,1.9-0.3,2.8-1v1.4c-0.8,0.6-1.8,0.9-3.1,0.9s-2.3-0.4-3-1.2
			c-0.7-0.8-1.1-2-1.1-3.4s0.4-2.5,1.2-3.4s1.8-1.3,3-1.3s2.1,0.4,2.7,1.1s1,1.8,1,3.2V6077.6z M806.4,6076.3c0-0.8-0.2-1.5-0.6-1.9
			c-0.4-0.5-0.9-0.7-1.6-0.7c-0.7,0-1.3,0.2-1.7,0.7s-0.8,1.1-0.9,1.9H806.4z"/>
		<path d="M809.5,6081.4v-1.5c0.8,0.6,1.6,0.9,2.6,0.9c1.3,0,1.9-0.4,1.9-1.3c0-0.2-0.1-0.4-0.2-0.6c-0.1-0.2-0.3-0.3-0.4-0.4
			c-0.2-0.1-0.4-0.2-0.7-0.3c-0.2-0.1-0.5-0.2-0.8-0.3c-0.4-0.2-0.7-0.3-1-0.5s-0.6-0.3-0.8-0.5s-0.4-0.4-0.5-0.7
			c-0.1-0.3-0.2-0.6-0.2-0.9c0-0.4,0.1-0.8,0.3-1.1c0.2-0.3,0.5-0.6,0.8-0.8c0.3-0.2,0.7-0.4,1.1-0.5c0.4-0.1,0.8-0.2,1.3-0.2
			c0.8,0,1.5,0.1,2.1,0.4v1.5c-0.7-0.4-1.4-0.7-2.3-0.7c-0.3,0-0.5,0-0.7,0.1s-0.4,0.1-0.6,0.3c-0.2,0.1-0.3,0.2-0.4,0.4
			c-0.1,0.2-0.1,0.3-0.1,0.5s0,0.4,0.1,0.6s0.2,0.3,0.4,0.4s0.4,0.2,0.6,0.3s0.5,0.2,0.8,0.3c0.4,0.2,0.8,0.3,1.1,0.5
			s0.6,0.3,0.8,0.5s0.4,0.4,0.5,0.7c0.1,0.3,0.2,0.6,0.2,0.9c0,0.4-0.1,0.8-0.3,1.2c-0.2,0.3-0.5,0.6-0.8,0.8s-0.7,0.4-1.1,0.5
			s-0.9,0.2-1.3,0.2C811,6081.9,810.2,6081.7,809.5,6081.4z"/>
		<path d="M824.1,6081.7h-1.4v-1.4l0,0c-0.6,1.1-1.5,1.6-2.8,1.6c-0.9,0-1.6-0.2-2.1-0.7s-0.8-1.1-0.8-1.9c0-1.7,1-2.7,3-2.9
			l2.7-0.4c0-1.5-0.6-2.3-1.9-2.3c-1.1,0-2.1,0.4-2.9,1.1v-1.5c0.9-0.6,1.9-0.8,3.1-0.8c2.1,0,3.2,1.1,3.2,3.4L824.1,6081.7
			L824.1,6081.7z M822.7,6077.1l-2.2,0.3c-0.7,0.1-1.2,0.3-1.5,0.5s-0.5,0.7-0.5,1.3c0,0.4,0.2,0.8,0.5,1.1c0.3,0.3,0.7,0.4,1.3,0.4
			c0.7,0,1.3-0.2,1.8-0.8c0.5-0.5,0.7-1.1,0.7-1.9L822.7,6077.1L822.7,6077.1z"/>
		<path d="M831.5,6074.2c-0.3-0.2-0.6-0.3-1.1-0.3c-0.6,0-1.1,0.3-1.5,0.9s-0.6,1.4-0.6,2.4v4.6h-1.4v-9h1.4v1.9l0,0
			c0.2-0.6,0.5-1.1,0.9-1.5s0.9-0.5,1.4-0.5c0.4,0,0.7,0,0.9,0.1L831.5,6074.2L831.5,6074.2z"/>
		<path d="M833.8,6070.4c-0.3,0-0.5-0.1-0.7-0.3s-0.3-0.4-0.3-0.7s0.1-0.5,0.3-0.7s0.4-0.3,0.7-0.3s0.5,0.1,0.7,0.3
			c0.2,0.2,0.3,0.4,0.3,0.7c0,0.3-0.1,0.5-0.3,0.7C834.3,6070.3,834.1,6070.4,833.8,6070.4z M834.5,6081.7h-1.4v-9h1.4V6081.7z"/>
		<path d="M841.2,6081.9c-1.3,0-2.4-0.4-3.2-1.3c-0.8-0.8-1.2-2-1.2-3.3c0-1.5,0.4-2.7,1.2-3.5s1.9-1.3,3.3-1.3
			c1.3,0,2.4,0.4,3.1,1.2c0.8,0.8,1.1,2,1.1,3.4s-0.4,2.6-1.2,3.4C843.7,6081.5,842.6,6081.9,841.2,6081.9z M841.3,6073.7
			c-0.9,0-1.7,0.3-2.2,0.9s-0.8,1.5-0.8,2.6s0.3,1.9,0.8,2.5s1.3,0.9,2.2,0.9s1.6-0.3,2.1-0.9s0.8-1.5,0.8-2.6s-0.3-2-0.8-2.6
			C843,6074,842.2,6073.7,841.3,6073.7z"/>
		<path d="M847.4,6081.4v-1.5c0.8,0.6,1.6,0.9,2.6,0.9c1.3,0,1.9-0.4,1.9-1.3c0-0.2-0.1-0.4-0.2-0.6c-0.1-0.2-0.3-0.3-0.4-0.4
			c-0.2-0.1-0.4-0.2-0.7-0.3c-0.2-0.1-0.5-0.2-0.8-0.3c-0.4-0.2-0.7-0.3-1.1-0.5c-0.3-0.2-0.6-0.3-0.8-0.5s-0.4-0.4-0.5-0.7
			c-0.1-0.3-0.2-0.6-0.2-0.9c0-0.4,0.1-0.8,0.3-1.1c0.2-0.3,0.5-0.6,0.8-0.8c0.3-0.2,0.7-0.4,1.1-0.5c0.4-0.1,0.8-0.2,1.3-0.2
			c0.8,0,1.5,0.1,2.1,0.4v1.5c-0.7-0.4-1.4-0.7-2.3-0.7c-0.3,0-0.5,0-0.7,0.1s-0.4,0.1-0.6,0.3c-0.2,0.1-0.3,0.2-0.4,0.4
			c-0.1,0.2-0.1,0.3-0.1,0.5s0,0.4,0.1,0.6s0.2,0.3,0.4,0.4s0.4,0.2,0.6,0.3s0.5,0.2,0.8,0.3c0.4,0.2,0.8,0.3,1.1,0.5
			s0.6,0.3,0.8,0.5s0.4,0.4,0.5,0.7c0.1,0.3,0.2,0.6,0.2,0.9c0,0.4-0.1,0.8-0.3,1.2c-0.2,0.3-0.5,0.6-0.8,0.8s-0.7,0.4-1.1,0.5
			s-0.9,0.2-1.3,0.2C848.9,6081.9,848.1,6081.7,847.4,6081.4z"/>
		<path d="M867.7,6072.7l-4.1,10.4c-0.7,1.9-1.8,2.8-3.1,2.8c-0.4,0-0.7,0-0.9-0.1v-1.3c0.3,0.1,0.6,0.2,0.9,0.2
			c0.7,0,1.3-0.4,1.6-1.3l0.7-1.7l-3.5-9h1.6l2.4,6.9c0,0.1,0.1,0.3,0.2,0.7h0.1c0-0.1,0.1-0.4,0.2-0.7l2.6-6.9H867.7z"/>
		<path d="M880.6,6081.7h-1.4v-1.4l0,0c-0.6,1.1-1.5,1.6-2.8,1.6c-0.9,0-1.6-0.2-2.1-0.7s-0.8-1.1-0.8-1.9c0-1.7,1-2.7,3-2.9
			l2.7-0.4c0-1.5-0.6-2.3-1.9-2.3c-1.1,0-2.1,0.4-2.9,1.1v-1.5c0.9-0.6,1.9-0.8,3.1-0.8c2.1,0,3.2,1.1,3.2,3.4L880.6,6081.7
			L880.6,6081.7z M879.2,6077.1l-2.2,0.3c-0.7,0.1-1.2,0.3-1.5,0.5s-0.5,0.7-0.5,1.3c0,0.4,0.2,0.8,0.5,1.1c0.3,0.3,0.7,0.4,1.3,0.4
			c0.7,0,1.3-0.2,1.8-0.8c0.5-0.5,0.7-1.1,0.7-1.9L879.2,6077.1L879.2,6077.1z"/>
		<path d="M891,6081.7h-1.4v-1.5l0,0c-0.7,1.2-1.7,1.7-3.1,1.7c-1.1,0-2-0.4-2.7-1.2c-0.7-0.8-1-1.9-1-3.3c0-1.5,0.4-2.7,1.1-3.6
			s1.7-1.3,3-1.3c1.2,0,2.1,0.5,2.7,1.5l0,0v-5.6h1.4V6081.7z M889.6,6077.6v-1.3c0-0.7-0.2-1.3-0.7-1.8s-1.1-0.8-1.8-0.8
			c-0.9,0-1.6,0.3-2.1,1s-0.8,1.5-0.8,2.7c0,1,0.2,1.9,0.7,2.5s1.1,0.9,1.9,0.9c0.8,0,1.5-0.3,2-0.9
			C889.3,6079.2,889.6,6078.5,889.6,6077.6z"/>
		<path d="M901.2,6077.6h-6.4c0,1,0.3,1.8,0.8,2.3s1.2,0.8,2.1,0.8c1,0,1.9-0.3,2.8-1v1.4c-0.8,0.6-1.8,0.9-3.1,0.9s-2.3-0.4-3-1.2
			c-0.7-0.8-1.1-2-1.1-3.4s0.4-2.5,1.2-3.4s1.8-1.3,3-1.3s2.1,0.4,2.7,1.1s1,1.8,1,3.2V6077.6z M899.7,6076.3c0-0.8-0.2-1.5-0.6-1.9
			c-0.4-0.5-0.9-0.7-1.6-0.7c-0.7,0-1.3,0.2-1.7,0.7s-0.8,1.1-0.9,1.9H899.7z"/>
		<path d="M909.5,6081.3c-0.7,0.4-1.5,0.6-2.5,0.6c-1.3,0-2.3-0.4-3.1-1.3c-0.8-0.8-1.2-1.9-1.2-3.2c0-1.5,0.4-2.7,1.3-3.6
			s2-1.3,3.4-1.3c0.8,0,1.5,0.1,2.1,0.4v1.5c-0.7-0.5-1.4-0.7-2.1-0.7c-0.9,0-1.7,0.3-2.3,1s-0.9,1.5-0.9,2.6s0.3,1.9,0.8,2.5
			c0.6,0.6,1.3,0.9,2.2,0.9c0.8,0,1.5-0.3,2.2-0.8L909.5,6081.3L909.5,6081.3z"/>
		<path d="M919,6081.7h-1.4v-1.4l0,0c-0.6,1.1-1.5,1.6-2.8,1.6c-2.1,0-3.2-1.3-3.2-3.8v-5.4h1.4v5.2c0,1.9,0.7,2.8,2.2,2.8
			c0.7,0,1.3-0.3,1.7-0.8c0.5-0.5,0.7-1.2,0.7-2v-5.2h1.4L919,6081.7L919,6081.7z"/>
		<path d="M928.3,6081.7h-1.4v-1.4l0,0c-0.6,1.1-1.5,1.6-2.8,1.6c-0.9,0-1.6-0.2-2.1-0.7s-0.8-1.1-0.8-1.9c0-1.7,1-2.7,3-2.9
			l2.7-0.4c0-1.5-0.6-2.3-1.9-2.3c-1.1,0-2.1,0.4-2.9,1.1v-1.5c0.9-0.6,1.9-0.8,3.1-0.8c2.1,0,3.2,1.1,3.2,3.4L928.3,6081.7
			L928.3,6081.7z M926.9,6077.1l-2.2,0.3c-0.7,0.1-1.2,0.3-1.5,0.5s-0.5,0.7-0.5,1.3c0,0.4,0.2,0.8,0.5,1.1c0.3,0.3,0.7,0.4,1.3,0.4
			c0.7,0,1.3-0.2,1.8-0.8c0.5-0.5,0.7-1.1,0.7-1.9L926.9,6077.1L926.9,6077.1z"/>
		<path d="M938.7,6081.7h-1.4v-1.5l0,0c-0.7,1.2-1.7,1.7-3.1,1.7c-1.1,0-2-0.4-2.7-1.2c-0.7-0.8-1-1.9-1-3.3c0-1.5,0.4-2.7,1.1-3.6
			s1.7-1.3,3-1.3c1.2,0,2.1,0.5,2.7,1.5l0,0v-5.6h1.4V6081.7z M937.3,6077.6v-1.3c0-0.7-0.2-1.3-0.7-1.8s-1.1-0.8-1.8-0.8
			c-0.9,0-1.6,0.3-2.1,1s-0.8,1.5-0.8,2.7c0,1,0.2,1.9,0.7,2.5s1.1,0.9,1.9,0.9c0.8,0,1.5-0.3,2-0.9
			C937,6079.2,937.3,6078.5,937.3,6077.6z"/>
		<path d="M945.4,6081.9c-1.3,0-2.4-0.4-3.2-1.3c-0.8-0.8-1.2-2-1.2-3.3c0-1.5,0.4-2.7,1.2-3.5s1.9-1.3,3.3-1.3
			c1.3,0,2.4,0.4,3.1,1.2c0.8,0.8,1.1,2,1.1,3.4s-0.4,2.6-1.2,3.4C947.8,6081.5,946.8,6081.9,945.4,6081.9z M945.5,6073.7
			c-0.9,0-1.7,0.3-2.2,0.9s-0.8,1.5-0.8,2.6s0.3,1.9,0.8,2.5s1.3,0.9,2.2,0.9s1.6-0.3,2.1-0.9s0.8-1.5,0.8-2.6s-0.3-2-0.8-2.6
			C947.1,6074,946.4,6073.7,945.5,6073.7z"/>
		<path d="M951.6,6081.4v-1.5c0.8,0.6,1.6,0.9,2.6,0.9c1.3,0,1.9-0.4,1.9-1.3c0-0.2-0.1-0.4-0.2-0.6c-0.1-0.2-0.3-0.3-0.4-0.4
			c-0.2-0.1-0.4-0.2-0.7-0.3c-0.2-0.1-0.5-0.2-0.8-0.3c-0.4-0.2-0.7-0.3-1.1-0.5c-0.3-0.2-0.6-0.3-0.8-0.5s-0.4-0.4-0.5-0.7
			c-0.1-0.3-0.2-0.6-0.2-0.9c0-0.4,0.1-0.8,0.3-1.1c0.2-0.3,0.5-0.6,0.8-0.8c0.3-0.2,0.7-0.4,1.1-0.5c0.4-0.1,0.8-0.2,1.3-0.2
			c0.8,0,1.5,0.1,2.1,0.4v1.5c-0.7-0.4-1.4-0.7-2.3-0.7c-0.3,0-0.5,0-0.7,0.1s-0.4,0.1-0.6,0.3c-0.2,0.1-0.3,0.2-0.4,0.4
			c-0.1,0.2-0.1,0.3-0.1,0.5s0,0.4,0.1,0.6s0.2,0.3,0.4,0.4s0.4,0.2,0.6,0.3s0.5,0.2,0.8,0.3c0.4,0.2,0.8,0.3,1.1,0.5
			s0.6,0.3,0.8,0.5s0.4,0.4,0.5,0.7c0.1,0.3,0.2,0.6,0.2,0.9c0,0.4-0.1,0.8-0.3,1.2c-0.2,0.3-0.5,0.6-0.8,0.8s-0.7,0.4-1.1,0.5
			s-0.9,0.2-1.3,0.2C953.1,6081.9,952.3,6081.7,951.6,6081.4z"/>
		<path d="M960.3,6081.9c-0.3,0-0.5-0.1-0.7-0.3c-0.2-0.2-0.3-0.4-0.3-0.7s0.1-0.5,0.3-0.7s0.4-0.3,0.7-0.3s0.5,0.1,0.7,0.3
			c0.2,0.2,0.3,0.4,0.3,0.7s-0.1,0.5-0.3,0.7S960.6,6081.9,960.3,6081.9z"/>
	</g>
	<g class="st4">
		<path d="M686.1,6142.6c-0.9,0.5-2.1,0.7-3.5,0.7c-1.8,0-3.2-0.6-4.3-1.7s-1.6-2.7-1.6-4.5c0-2,0.6-3.6,1.8-4.9s2.8-1.9,4.6-1.9
			c1.2,0,2.2,0.2,3,0.5v1.6c-0.9-0.5-1.9-0.8-3-0.8c-1.4,0-2.6,0.5-3.5,1.5s-1.3,2.3-1.3,3.9c0,1.5,0.4,2.8,1.3,3.7
			c0.8,0.9,1.9,1.4,3.3,1.4c1.3,0,2.4-0.3,3.3-0.8L686.1,6142.6L686.1,6142.6z"/>
		<path d="M694.9,6143.1h-1.4v-1.4l0,0c-0.6,1.1-1.5,1.6-2.8,1.6c-0.9,0-1.6-0.2-2.1-0.7s-0.8-1.1-0.8-1.9c0-1.7,1-2.7,3-2.9
			l2.7-0.4c0-1.5-0.6-2.3-1.9-2.3c-1.1,0-2.1,0.4-2.9,1.1v-1.5c0.9-0.6,1.9-0.8,3.1-0.8c2.1,0,3.2,1.1,3.2,3.4L694.9,6143.1
			L694.9,6143.1z M693.5,6138.6l-2.2,0.3c-0.7,0.1-1.2,0.3-1.5,0.5s-0.5,0.7-0.5,1.3c0,0.4,0.2,0.8,0.5,1.1c0.3,0.3,0.7,0.4,1.3,0.4
			c0.7,0,1.3-0.2,1.8-0.8c0.5-0.5,0.7-1.1,0.7-1.9L693.5,6138.6L693.5,6138.6z"/>
		<path d="M699.1,6141.8L699.1,6141.8v5.4h-1.4v-13.1h1.4v1.6l0,0c0.7-1.2,1.7-1.8,3.1-1.8c1.2,0,2.1,0.4,2.7,1.2s1,1.9,1,3.2
			c0,1.5-0.4,2.7-1.1,3.6c-0.7,0.9-1.7,1.4-3,1.4C700.7,6143.3,699.8,6142.8,699.1,6141.8z M699.1,6138.2v1.3c0,0.7,0.2,1.4,0.7,1.9
			s1.1,0.8,1.8,0.8c0.9,0,1.6-0.3,2.1-1s0.7-1.6,0.7-2.8c0-1-0.2-1.8-0.7-2.4s-1.1-0.9-1.9-0.9c-0.8,0-1.5,0.3-2,0.9
			S699.1,6137.3,699.1,6138.2z"/>
		<path d="M714.7,6143.1h-1.4v-1.4l0,0c-0.6,1.1-1.5,1.6-2.8,1.6c-0.9,0-1.6-0.2-2.1-0.7s-0.8-1.1-0.8-1.9c0-1.7,1-2.7,3-2.9
			l2.7-0.4c0-1.5-0.6-2.3-1.9-2.3c-1.1,0-2.1,0.4-2.9,1.1v-1.5c0.9-0.6,1.9-0.8,3.1-0.8c2.1,0,3.2,1.1,3.2,3.4L714.7,6143.1
			L714.7,6143.1z M713.2,6138.6l-2.2,0.3c-0.7,0.1-1.2,0.3-1.5,0.5s-0.5,0.7-0.5,1.3c0,0.4,0.2,0.8,0.5,1.1c0.3,0.3,0.7,0.4,1.3,0.4
			c0.7,0,1.3-0.2,1.8-0.8c0.5-0.5,0.7-1.1,0.7-1.9L713.2,6138.6L713.2,6138.6z"/>
		<path d="M723.5,6142.7c-0.7,0.4-1.5,0.6-2.5,0.6c-1.3,0-2.3-0.4-3.1-1.3c-0.8-0.8-1.2-1.9-1.2-3.2c0-1.5,0.4-2.7,1.3-3.6
			s2-1.3,3.4-1.3c0.8,0,1.5,0.1,2.1,0.4v1.5c-0.7-0.5-1.4-0.7-2.1-0.7c-0.9,0-1.7,0.3-2.3,1s-0.9,1.5-0.9,2.6s0.3,1.9,0.8,2.5
			c0.6,0.6,1.3,0.9,2.2,0.9c0.8,0,1.5-0.3,2.2-0.8L723.5,6142.7L723.5,6142.7z"/>
		<path d="M726.5,6131.8c-0.3,0-0.5-0.1-0.7-0.3s-0.3-0.4-0.3-0.7s0.1-0.5,0.3-0.7s0.4-0.3,0.7-0.3s0.5,0.1,0.7,0.3
			c0.2,0.2,0.3,0.4,0.3,0.7c0,0.3-0.1,0.5-0.3,0.7C726.9,6131.7,726.7,6131.8,726.5,6131.8z M727.2,6143.1h-1.4v-9h1.4V6143.1z"/>
		<path d="M734.3,6143c-0.3,0.2-0.8,0.3-1.3,0.3c-1.6,0-2.4-0.9-2.4-2.6v-5.3h-1.5v-1.2h1.5v-2.2l1.4-0.5v2.7h2.3v1.2H732v5.1
			c0,0.6,0.1,1,0.3,1.3s0.5,0.4,1,0.4c0.4,0,0.7-0.1,0.9-0.3L734.3,6143L734.3,6143z"/>
		<path d="M742.6,6143.1h-1.4v-1.4l0,0c-0.6,1.1-1.5,1.6-2.8,1.6c-0.9,0-1.6-0.2-2.1-0.7s-0.8-1.1-0.8-1.9c0-1.7,1-2.7,3-2.9
			l2.7-0.4c0-1.5-0.6-2.3-1.9-2.3c-1.1,0-2.1,0.4-2.9,1.1v-1.5c0.9-0.6,1.9-0.8,3.1-0.8c2.1,0,3.2,1.1,3.2,3.4L742.6,6143.1
			L742.6,6143.1z M741.2,6138.6l-2.2,0.3c-0.7,0.1-1.2,0.3-1.5,0.5s-0.5,0.7-0.5,1.3c0,0.4,0.2,0.8,0.5,1.1c0.3,0.3,0.7,0.4,1.3,0.4
			c0.7,0,1.3-0.2,1.8-0.8c0.5-0.5,0.7-1.1,0.7-1.9L741.2,6138.6L741.2,6138.6z"/>
		<path d="M751.5,6142.7c-0.7,0.4-1.5,0.6-2.5,0.6c-1.3,0-2.3-0.4-3.1-1.3c-0.8-0.8-1.2-1.9-1.2-3.2c0-1.5,0.4-2.7,1.3-3.6
			s2-1.3,3.4-1.3c0.8,0,1.5,0.1,2.1,0.4v1.5c-0.7-0.5-1.4-0.7-2.1-0.7c-0.9,0-1.7,0.3-2.3,1s-0.9,1.5-0.9,2.6s0.3,1.9,0.8,2.5
			c0.6,0.6,1.3,0.9,2.2,0.9c0.8,0,1.5-0.3,2.2-0.8L751.5,6142.7L751.5,6142.7z"/>
		<path d="M754.4,6131.8c-0.3,0-0.5-0.1-0.7-0.3s-0.3-0.4-0.3-0.7s0.1-0.5,0.3-0.7s0.4-0.3,0.7-0.3s0.5,0.1,0.7,0.3
			c0.2,0.2,0.3,0.4,0.3,0.7c0,0.3-0.1,0.5-0.3,0.7S754.7,6131.8,754.4,6131.8z M755.1,6143.1h-1.4v-9h1.4V6143.1z"/>
		<path d="M761.8,6143.3c-1.3,0-2.4-0.4-3.2-1.3c-0.8-0.8-1.2-2-1.2-3.3c0-1.5,0.4-2.7,1.2-3.5s1.9-1.3,3.3-1.3
			c1.3,0,2.4,0.4,3.1,1.2c0.8,0.8,1.1,2,1.1,3.4s-0.4,2.6-1.2,3.4C764.2,6142.9,763.1,6143.3,761.8,6143.3z M761.9,6135.1
			c-0.9,0-1.7,0.3-2.2,0.9s-0.8,1.5-0.8,2.6s0.3,1.9,0.8,2.5s1.3,0.9,2.2,0.9s1.6-0.3,2.1-0.9s0.8-1.5,0.8-2.6s-0.3-2-0.8-2.6
			C763.5,6135.4,762.8,6135.1,761.9,6135.1z M764,6129.5l-2.3,2.9h-1.1l2-2.9H764z"/>
		<path d="M776,6143.1h-1.4v-5.1c0-1.9-0.7-2.9-2.1-2.9c-0.7,0-1.3,0.3-1.8,0.8s-0.7,1.2-0.7,2.1v5.1h-1.4v-9h1.4v1.5l0,0
			c0.7-1.1,1.7-1.7,3-1.7c1,0,1.7,0.3,2.3,1c0.5,0.6,0.8,1.6,0.8,2.8L776,6143.1L776,6143.1z"/>
		<path d="M791.4,6143.1h-1.5v-1.5l0,0c-0.7,1.2-1.7,1.7-3.1,1.7c-1.1,0-2-0.4-2.7-1.2c-0.7-0.8-1-1.9-1-3.3c0-1.5,0.4-2.7,1.1-3.6
			s1.7-1.3,3-1.3c1.2,0,2.1,0.5,2.7,1.5l0,0v-5.6h1.4L791.4,6143.1L791.4,6143.1z M789.9,6139v-1.3c0-0.7-0.2-1.3-0.7-1.8
			s-1.1-0.8-1.8-0.8c-0.9,0-1.6,0.3-2.1,1s-0.8,1.5-0.8,2.7c0,1,0.2,1.9,0.7,2.5s1.1,0.9,1.9,0.9c0.8,0,1.5-0.3,2-0.9
			C789.7,6140.7,789.9,6139.9,789.9,6139z"/>
		<path d="M801.5,6139h-6.4c0,1,0.3,1.8,0.8,2.3s1.2,0.8,2.1,0.8c1,0,1.9-0.3,2.8-1v1.4c-0.8,0.6-1.8,0.9-3.1,0.9s-2.3-0.4-3-1.2
			c-0.7-0.8-1.1-2-1.1-3.4s0.4-2.5,1.2-3.4s1.8-1.3,3-1.3s2.1,0.4,2.7,1.1s1,1.8,1,3.2V6139z M800,6137.8c0-0.8-0.2-1.5-0.6-1.9
			c-0.4-0.5-0.9-0.7-1.6-0.7c-0.7,0-1.3,0.2-1.7,0.7s-0.8,1.1-0.9,1.9H800z"/>
		<path d="M805.1,6143.1h-1.4v-13.3h1.4V6143.1z"/>
		<path d="M817.1,6143c-0.3,0.2-0.8,0.3-1.3,0.3c-1.6,0-2.4-0.9-2.4-2.6v-5.3h-1.5v-1.2h1.5v-2.2l1.4-0.5v2.7h2.3v1.2h-2.2v5.1
			c0,0.6,0.1,1,0.3,1.3s0.5,0.4,1,0.4c0.4,0,0.7-0.1,0.9-0.3V6143z"/>
		<path d="M825.5,6143.1h-1.4v-1.4l0,0c-0.6,1.1-1.5,1.6-2.8,1.6c-0.9,0-1.6-0.2-2.1-0.7s-0.8-1.1-0.8-1.9c0-1.7,1-2.7,3-2.9
			l2.7-0.4c0-1.5-0.6-2.3-1.9-2.3c-1.1,0-2.1,0.4-2.9,1.1v-1.5c0.9-0.6,1.9-0.8,3.1-0.8c2.1,0,3.2,1.1,3.2,3.4L825.5,6143.1
			L825.5,6143.1z M824.1,6138.6l-2.2,0.3c-0.7,0.1-1.2,0.3-1.5,0.5s-0.5,0.7-0.5,1.3c0,0.4,0.2,0.8,0.5,1.1c0.3,0.3,0.7,0.4,1.3,0.4
			c0.7,0,1.3-0.2,1.8-0.8c0.5-0.5,0.7-1.1,0.7-1.9L824.1,6138.6L824.1,6138.6z"/>
		<path d="M829.7,6143.1h-1.4v-13.3h1.4V6143.1z"/>
		<path d="M839.8,6139h-6.4c0,1,0.3,1.8,0.8,2.3s1.2,0.8,2.1,0.8c1,0,1.9-0.3,2.8-1v1.4c-0.8,0.6-1.8,0.9-3.1,0.9s-2.3-0.4-3-1.2
			c-0.7-0.8-1.1-2-1.1-3.4s0.4-2.5,1.2-3.4s1.8-1.3,3-1.3s2.1,0.4,2.7,1.1s1,1.8,1,3.2V6139z M838.3,6137.8c0-0.8-0.2-1.5-0.6-1.9
			c-0.4-0.5-0.9-0.7-1.6-0.7c-0.7,0-1.3,0.2-1.7,0.7s-0.8,1.1-0.9,1.9H838.3z"/>
		<path d="M849.5,6143.1h-1.4v-5.1c0-1.9-0.7-2.9-2.1-2.9c-0.7,0-1.3,0.3-1.8,0.8s-0.7,1.2-0.7,2.1v5.1h-1.4v-9h1.4v1.5l0,0
			c0.7-1.1,1.7-1.7,3-1.7c1,0,1.7,0.3,2.3,1c0.5,0.6,0.8,1.6,0.8,2.8L849.5,6143.1L849.5,6143.1z"/>
		<path d="M856.4,6143c-0.3,0.2-0.8,0.3-1.3,0.3c-1.6,0-2.4-0.9-2.4-2.6v-5.3h-1.5v-1.2h1.5v-2.2l1.4-0.5v2.7h2.3v1.2h-2.3v5.1
			c0,0.6,0.1,1,0.3,1.3s0.5,0.4,1,0.4c0.4,0,0.7-0.1,0.9-0.3L856.4,6143L856.4,6143z"/>
		<path d="M862.1,6143.3c-1.3,0-2.4-0.4-3.2-1.3c-0.8-0.8-1.2-2-1.2-3.3c0-1.5,0.4-2.7,1.2-3.5s1.9-1.3,3.3-1.3
			c1.3,0,2.4,0.4,3.1,1.2c0.8,0.8,1.1,2,1.1,3.4s-0.4,2.6-1.2,3.4C864.5,6142.9,863.4,6143.3,862.1,6143.3z M862.2,6135.1
			c-0.9,0-1.7,0.3-2.2,0.9s-0.8,1.5-0.8,2.6s0.3,1.9,0.8,2.5s1.3,0.9,2.2,0.9s1.6-0.3,2.1-0.9s0.8-1.5,0.8-2.6s-0.3-2-0.8-2.6
			C863.8,6135.4,863.1,6135.1,862.2,6135.1z"/>
	</g>
	<g class="st4">
		<path d="M684.8,6167.1h-1.4v-5.2c0-1.9-0.7-2.8-2.1-2.8c-0.7,0-1.3,0.3-1.8,0.8s-0.7,1.2-0.7,2.1v5.1h-1.4v-13.3h1.4v5.8l0,0
			c0.7-1.1,1.7-1.7,3-1.7c2,0,3,1.2,3,3.7V6167.1z"/>
		<path d="M694.8,6167.1h-1.4v-1.4l0,0c-0.6,1.1-1.5,1.6-2.8,1.6c-2.1,0-3.2-1.3-3.2-3.8v-5.4h1.4v5.2c0,1.9,0.7,2.8,2.2,2.8
			c0.7,0,1.3-0.3,1.7-0.8c0.5-0.5,0.7-1.2,0.7-2v-5.2h1.4L694.8,6167.1L694.8,6167.1z"/>
		<path d="M710.5,6167.1h-1.4v-5.2c0-1-0.2-1.7-0.5-2.2c-0.3-0.4-0.8-0.7-1.6-0.7c-0.6,0-1.1,0.3-1.6,0.8c-0.4,0.6-0.6,1.2-0.6,2
			v5.1h-1.4v-5.3c0-1.8-0.7-2.7-2-2.7c-0.6,0-1.2,0.3-1.6,0.8c-0.4,0.5-0.6,1.2-0.6,2.1v5.1h-1.4v-9h1.4v1.4l0,0
			c0.6-1.1,1.6-1.6,2.8-1.6c0.6,0,1.2,0.2,1.6,0.5c0.5,0.3,0.8,0.8,0.9,1.3c0.7-1.2,1.7-1.9,3-1.9c2,0,3,1.2,3,3.7L710.5,6167.1
			L710.5,6167.1z"/>
		<path d="M719.7,6167.1h-1.4v-1.4l0,0c-0.6,1.1-1.5,1.6-2.8,1.6c-0.9,0-1.6-0.2-2.1-0.7s-0.8-1.1-0.8-1.9c0-1.7,1-2.7,3-2.9
			l2.7-0.4c0-1.5-0.6-2.3-1.9-2.3c-1.1,0-2.1,0.4-2.9,1.1v-1.5c0.9-0.6,1.9-0.8,3.1-0.8c2.1,0,3.2,1.1,3.2,3.4L719.7,6167.1
			L719.7,6167.1z M718.2,6162.6l-2.2,0.3c-0.7,0.1-1.2,0.3-1.5,0.5s-0.5,0.7-0.5,1.3c0,0.4,0.2,0.8,0.5,1.1c0.3,0.3,0.7,0.4,1.3,0.4
			c0.7,0,1.3-0.2,1.8-0.8c0.5-0.5,0.7-1.1,0.7-1.9L718.2,6162.6L718.2,6162.6z"/>
		<path d="M729.9,6167.1h-1.4v-5.1c0-1.9-0.7-2.9-2.1-2.9c-0.7,0-1.3,0.3-1.8,0.8s-0.7,1.2-0.7,2.1v5.1h-1.4v-9h1.4v1.5l0,0
			c0.7-1.1,1.7-1.7,3-1.7c1,0,1.7,0.3,2.3,1c0.5,0.6,0.8,1.6,0.8,2.8L729.9,6167.1L729.9,6167.1z"/>
		<path d="M736.3,6167.3c-1.3,0-2.4-0.4-3.2-1.3c-0.8-0.8-1.2-2-1.2-3.3c0-1.5,0.4-2.7,1.2-3.5s1.9-1.3,3.3-1.3
			c1.3,0,2.4,0.4,3.1,1.2c0.8,0.8,1.1,2,1.1,3.4s-0.4,2.6-1.2,3.4C738.8,6166.9,737.7,6167.3,736.3,6167.3z M736.4,6159.1
			c-0.9,0-1.7,0.3-2.2,0.9s-0.8,1.5-0.8,2.6s0.3,1.9,0.8,2.5s1.3,0.9,2.2,0.9s1.6-0.3,2.1-0.9s0.8-1.5,0.8-2.6s-0.2-2-0.8-2.6
			C738.1,6159.4,737.4,6159.1,736.4,6159.1z"/>
		<path d="M755.7,6167.1h-1.4v-1.5l0,0c-0.7,1.2-1.7,1.7-3.1,1.7c-1.1,0-2-0.4-2.7-1.2c-0.7-0.8-1-1.9-1-3.3c0-1.5,0.4-2.7,1.1-3.6
			s1.7-1.3,3-1.3c1.2,0,2.1,0.5,2.7,1.5l0,0v-5.6h1.4V6167.1z M754.3,6163v-1.3c0-0.7-0.2-1.3-0.7-1.8s-1.1-0.8-1.8-0.8
			c-0.9,0-1.6,0.3-2.1,1s-0.8,1.5-0.8,2.7c0,1,0.2,1.9,0.7,2.5s1.1,0.9,1.9,0.9c0.8,0,1.5-0.3,2-0.9
			C754,6164.7,754.3,6163.9,754.3,6163z"/>
		<path d="M765.9,6163h-6.4c0,1,0.3,1.8,0.8,2.3s1.2,0.8,2.1,0.8c1,0,1.9-0.3,2.8-1v1.4c-0.8,0.6-1.8,0.9-3.1,0.9s-2.3-0.4-3-1.2
			c-0.7-0.8-1.1-2-1.1-3.4s0.4-2.5,1.2-3.4s1.8-1.3,3-1.3s2.1,0.4,2.7,1.1s1,1.8,1,3.2V6163z M764.4,6161.8c0-0.8-0.2-1.5-0.6-1.9
			c-0.4-0.5-0.9-0.7-1.6-0.7c-0.7,0-1.3,0.2-1.7,0.7s-0.8,1.1-0.9,1.9H764.4z"/>
		<path d="M772.5,6166.8v-1.5c0.8,0.6,1.6,0.9,2.6,0.9c1.3,0,1.9-0.4,1.9-1.3c0-0.2-0.1-0.4-0.2-0.6c-0.1-0.2-0.3-0.3-0.4-0.4
			c-0.2-0.1-0.4-0.2-0.7-0.3c-0.2-0.1-0.5-0.2-0.8-0.3c-0.4-0.2-0.7-0.3-1.1-0.5c-0.3-0.2-0.6-0.3-0.8-0.5s-0.4-0.4-0.5-0.7
			c-0.1-0.3-0.2-0.6-0.2-0.9c0-0.4,0.1-0.8,0.3-1.1c0.2-0.3,0.5-0.6,0.8-0.8c0.3-0.2,0.7-0.4,1.1-0.5c0.4-0.1,0.8-0.2,1.3-0.2
			c0.8,0,1.5,0.1,2.1,0.4v1.5c-0.7-0.4-1.4-0.7-2.3-0.7c-0.3,0-0.5,0-0.7,0.1s-0.4,0.1-0.6,0.3c-0.2,0.1-0.3,0.2-0.4,0.4
			c-0.1,0.2-0.1,0.3-0.1,0.5s0,0.4,0.1,0.6s0.2,0.3,0.4,0.4s0.4,0.2,0.6,0.3s0.5,0.2,0.8,0.3c0.4,0.2,0.8,0.3,1.1,0.5
			s0.6,0.3,0.8,0.5s0.4,0.4,0.5,0.7c0.1,0.3,0.2,0.6,0.2,0.9c0,0.4-0.1,0.8-0.3,1.2c-0.2,0.3-0.5,0.6-0.8,0.8s-0.7,0.4-1.1,0.5
			s-0.9,0.2-1.3,0.2C773.9,6167.3,773.1,6167.2,772.5,6166.8z"/>
		<path d="M787.1,6167.1h-1.4v-1.4l0,0c-0.6,1.1-1.5,1.6-2.8,1.6c-0.9,0-1.6-0.2-2.1-0.7s-0.8-1.1-0.8-1.9c0-1.7,1-2.7,3-2.9
			l2.7-0.4c0-1.5-0.6-2.3-1.9-2.3c-1.1,0-2.1,0.4-2.9,1.1v-1.5c0.9-0.6,1.9-0.8,3.1-0.8c2.1,0,3.2,1.1,3.2,3.4L787.1,6167.1
			L787.1,6167.1z M785.6,6162.6l-2.2,0.3c-0.7,0.1-1.2,0.3-1.5,0.5s-0.5,0.7-0.5,1.3c0,0.4,0.2,0.8,0.5,1.1c0.3,0.3,0.7,0.4,1.3,0.4
			c0.7,0,1.3-0.2,1.8-0.8c0.5-0.5,0.7-1.1,0.7-1.9L785.6,6162.6L785.6,6162.6z"/>
		<path d="M791.2,6167.1h-1.4v-13.3h1.4V6167.1z"/>
		<path d="M801.4,6167.1H800v-1.4l0,0c-0.6,1.1-1.5,1.6-2.8,1.6c-2.1,0-3.2-1.3-3.2-3.8v-5.4h1.4v5.2c0,1.9,0.7,2.8,2.2,2.8
			c0.7,0,1.3-0.3,1.7-0.8c0.5-0.5,0.7-1.2,0.7-2v-5.2h1.4L801.4,6167.1L801.4,6167.1z"/>
		<path d="M812,6167.1h-1.4v-1.5l0,0c-0.7,1.2-1.7,1.7-3.1,1.7c-1.1,0-2-0.4-2.7-1.2c-0.7-0.8-1-1.9-1-3.3c0-1.5,0.4-2.7,1.1-3.6
			s1.7-1.3,3-1.3c1.2,0,2.1,0.5,2.7,1.5l0,0v-5.6h1.4V6167.1z M810.6,6163v-1.3c0-0.7-0.2-1.3-0.7-1.8s-1.1-0.8-1.8-0.8
			c-0.9,0-1.6,0.3-2.1,1s-0.8,1.5-0.8,2.7c0,1,0.2,1.9,0.7,2.5s1.1,0.9,1.9,0.9c0.8,0,1.5-0.3,2-0.9
			C810.3,6164.7,810.6,6163.9,810.6,6163z"/>
		<path d="M815.4,6167.3c-0.3,0-0.5-0.1-0.7-0.3c-0.2-0.2-0.3-0.4-0.3-0.7s0.1-0.5,0.3-0.7s0.4-0.3,0.7-0.3s0.5,0.1,0.7,0.3
			c0.2,0.2,0.3,0.4,0.3,0.7s-0.1,0.5-0.3,0.7S815.7,6167.3,815.4,6167.3z"/>
	</g>
	<g class="st4">
		<path class="st5" d="M365.2,6056.8c-1.3,0.7-2.8,1.1-4.4,1.1c-1.9,0-3.4-0.6-4.5-1.7s-1.7-2.7-1.7-4.6c0-2,0.6-3.6,1.9-4.8
			s2.9-1.9,4.8-1.9c1.4,0,2.6,0.2,3.5,0.6v2.2c-1-0.6-2.1-1-3.5-1c-1.3,0-2.4,0.4-3.3,1.3s-1.3,2-1.3,3.4s0.4,2.6,1.1,3.4
			s1.7,1.2,3,1.2c0.9,0,1.6-0.2,2.2-0.5v-3h-2.7v-1.8h4.7v6.1H365.2z"/>
		<path class="st5" d="M375.3,6053.8h-6.1c0,0.8,0.3,1.5,0.8,1.9s1.2,0.7,2,0.7c1,0,1.8-0.3,2.6-0.9v1.6c-0.8,0.5-1.9,0.8-3.3,0.8
			c-1.3,0-2.4-0.4-3.1-1.2c-0.8-0.8-1.1-2-1.1-3.4s0.4-2.5,1.2-3.4c0.8-0.9,1.9-1.3,3.1-1.3s2.2,0.4,2.9,1.2s1,1.9,1,3.3V6053.8z
			 M373.3,6052.3c0-0.7-0.2-1.3-0.5-1.7c-0.3-0.4-0.8-0.6-1.4-0.6s-1.1,0.2-1.5,0.6s-0.7,1-0.8,1.7H373.3z"/>
		<path class="st5" d="M376.7,6057.4v-1.9c0.8,0.6,1.6,0.9,2.5,0.9c1.2,0,1.8-0.4,1.8-1.1c0-0.2-0.1-0.4-0.2-0.5s-0.2-0.3-0.4-0.4
			s-0.4-0.2-0.6-0.3s-0.5-0.2-0.8-0.3c-0.4-0.1-0.7-0.3-1-0.5s-0.5-0.3-0.7-0.6c-0.2-0.2-0.3-0.4-0.4-0.7s-0.1-0.6-0.1-0.9
			c0-0.4,0.1-0.8,0.3-1.1c0.2-0.3,0.5-0.6,0.8-0.8s0.7-0.4,1.2-0.5c0.4-0.1,0.9-0.2,1.4-0.2c0.8,0,1.6,0.1,2.2,0.4v1.8
			c-0.6-0.4-1.4-0.7-2.2-0.7c-0.3,0-0.5,0-0.7,0.1s-0.4,0.1-0.5,0.2s-0.3,0.2-0.3,0.3c-0.1,0.1-0.1,0.3-0.1,0.4c0,0.2,0,0.4,0.1,0.5
			s0.2,0.3,0.4,0.4c0.2,0.1,0.4,0.2,0.6,0.3c0.2,0.1,0.5,0.2,0.8,0.3c0.4,0.2,0.7,0.3,1,0.5s0.6,0.4,0.8,0.6
			c0.2,0.2,0.4,0.4,0.5,0.7c0.1,0.3,0.2,0.6,0.2,1c0,0.5-0.1,0.9-0.3,1.2s-0.5,0.6-0.8,0.8s-0.8,0.4-1.2,0.5
			c-0.5,0.1-0.9,0.2-1.5,0.2C378.2,6057.9,377.4,6057.7,376.7,6057.4z"/>
		<path class="st5" d="M389.7,6057.6c-0.4,0.2-0.9,0.3-1.6,0.3c-1.7,0-2.6-0.8-2.6-2.5v-5.1H384v-1.6h1.5v-2.1l2-0.6v2.7h2.2v1.6
			h-2.2v4.5c0,0.5,0.1,0.9,0.3,1.1s0.5,0.3,1,0.3c0.3,0,0.6-0.1,0.9-0.3L389.7,6057.6L389.7,6057.6z"/>
		<path class="st5" d="M392.5,6046.8c-0.3,0-0.6-0.1-0.9-0.3s-0.4-0.5-0.4-0.8s0.1-0.6,0.4-0.8s0.5-0.3,0.9-0.3
			c0.3,0,0.6,0.1,0.9,0.3s0.4,0.5,0.4,0.8s-0.1,0.6-0.4,0.8C393.2,6046.7,392.9,6046.8,392.5,6046.8z M393.5,6057.7h-2v-9h2V6057.7z
			"/>
		<path class="st5" d="M400.2,6057.9c-1.4,0-2.5-0.4-3.3-1.3c-0.8-0.8-1.2-2-1.2-3.3c0-1.5,0.4-2.7,1.3-3.5s2-1.3,3.5-1.3
			c1.4,0,2.5,0.4,3.3,1.2s1.2,2,1.2,3.4s-0.4,2.6-1.3,3.4C402.8,6057.5,401.6,6057.9,400.2,6057.9z M400.3,6050.1
			c-0.8,0-1.4,0.3-1.9,0.8s-0.7,1.3-0.7,2.3c0,0.9,0.2,1.7,0.7,2.2s1.1,0.8,1.9,0.8s1.4-0.3,1.9-0.8s0.6-1.3,0.6-2.3
			s-0.2-1.8-0.6-2.3S401.1,6050.1,400.3,6050.1z M402.9,6044.1l-2.5,2.9h-1.5l2.1-2.9H402.9z"/>
		<path class="st5" d="M415,6057.7h-2v-5.1c0-1.7-0.6-2.5-1.8-2.5c-0.6,0-1.1,0.2-1.5,0.7s-0.6,1.1-0.6,1.8v5.1h-2v-9h2v1.5l0,0
			c0.7-1.1,1.6-1.7,2.9-1.7c1,0,1.7,0.3,2.2,1c0.5,0.6,0.8,1.6,0.8,2.8V6057.7z"/>
		<path class="st5" d="M429.3,6057.7h-2v-1.4l0,0c-0.6,1.1-1.5,1.6-2.7,1.6c-0.9,0-1.6-0.2-2.1-0.7s-0.8-1.1-0.8-1.9
			c0-1.7,1-2.7,2.9-3l2.7-0.4c0-1.3-0.6-1.9-1.8-1.9c-1.1,0-2,0.4-2.9,1.1v-1.8c0.9-0.6,2-0.8,3.3-0.8c2.3,0,3.4,1.1,3.4,3.4V6057.7
			z M427.3,6053.3l-1.9,0.3c-0.6,0.1-1,0.2-1.3,0.4s-0.4,0.6-0.4,1.1c0,0.4,0.1,0.7,0.4,0.9c0.3,0.2,0.6,0.4,1.1,0.4
			c0.6,0,1.1-0.2,1.5-0.7s0.6-1,0.6-1.6L427.3,6053.3L427.3,6053.3z"/>
		<path class="st5" d="M440,6057.7h-2v-1.5l0,0c-0.7,1.2-1.7,1.7-3,1.7c-1.1,0-2-0.4-2.7-1.2c-0.7-0.8-1-1.9-1-3.3
			c0-1.5,0.4-2.7,1.1-3.6s1.7-1.3,2.9-1.3c1.2,0,2.1,0.5,2.6,1.5l0,0v-5.6h2v13.3H440z M438,6053.6v-1.2c0-0.6-0.2-1.2-0.6-1.6
			s-0.9-0.7-1.6-0.7c-0.8,0-1.4,0.3-1.8,0.9s-0.7,1.4-0.7,2.4c0,0.9,0.2,1.6,0.6,2.2s1,0.8,1.7,0.8s1.3-0.3,1.7-0.8
			C437.7,6055,438,6054.4,438,6053.6z"/>
		<path class="st5" d="M450.3,6053.8h-6.1c0,0.8,0.3,1.5,0.8,1.9s1.2,0.7,2,0.7c1,0,1.8-0.3,2.6-0.9v1.6c-0.8,0.5-1.9,0.8-3.3,0.8
			c-1.3,0-2.4-0.4-3.1-1.2c-0.8-0.8-1.1-2-1.1-3.4s0.4-2.5,1.2-3.4c0.8-0.9,1.9-1.3,3.1-1.3s2.2,0.4,2.9,1.2s1,1.9,1,3.3V6053.8z
			 M448.3,6052.3c0-0.7-0.2-1.3-0.5-1.7c-0.3-0.4-0.8-0.6-1.4-0.6s-1.1,0.2-1.5,0.6s-0.7,1-0.8,1.7H448.3z"/>
		<path class="st5" d="M458.6,6057.3c-0.7,0.4-1.6,0.6-2.6,0.6c-1.3,0-2.4-0.4-3.2-1.3c-0.8-0.8-1.2-1.9-1.2-3.2
			c0-1.5,0.4-2.7,1.3-3.6s2.1-1.3,3.5-1.3c0.8,0,1.5,0.1,2.2,0.4v1.9c-0.6-0.5-1.3-0.7-2-0.7c-0.9,0-1.6,0.3-2.1,0.9
			c-0.6,0.6-0.8,1.3-0.8,2.3c0,0.9,0.3,1.7,0.8,2.2s1.2,0.8,2.1,0.8c0.7,0,1.4-0.3,2.1-0.8L458.6,6057.3L458.6,6057.3z"/>
		<path class="st5" d="M468.5,6057.7h-2v-1.4l0,0c-0.6,1.1-1.5,1.6-2.8,1.6c-2.1,0-3.2-1.3-3.2-3.8v-5.4h2v5.2
			c0,1.6,0.6,2.4,1.9,2.4c0.6,0,1.1-0.2,1.5-0.7s0.6-1,0.6-1.7v-5.2h2V6057.7z"/>
		<path class="st5" d="M478.1,6057.7h-2v-1.4l0,0c-0.6,1.1-1.5,1.6-2.7,1.6c-0.9,0-1.6-0.2-2.1-0.7s-0.8-1.1-0.8-1.9
			c0-1.7,1-2.7,2.9-3l2.7-0.4c0-1.3-0.6-1.9-1.8-1.9c-1.1,0-2,0.4-2.9,1.1v-1.8c0.9-0.6,2-0.8,3.3-0.8c2.3,0,3.4,1.1,3.4,3.4
			L478.1,6057.7L478.1,6057.7z M476.1,6053.3l-1.9,0.3c-0.6,0.1-1,0.2-1.3,0.4s-0.4,0.6-0.4,1.1c0,0.4,0.1,0.7,0.4,0.9
			c0.3,0.2,0.6,0.4,1.1,0.4c0.6,0,1.1-0.2,1.5-0.7s0.6-1,0.6-1.6L476.1,6053.3L476.1,6053.3z"/>
		<path class="st5" d="M488.7,6057.7h-2v-1.5l0,0c-0.7,1.2-1.7,1.7-3,1.7c-1.1,0-2-0.4-2.7-1.2c-0.7-0.8-1-1.9-1-3.3
			c0-1.5,0.4-2.7,1.1-3.6s1.7-1.3,2.9-1.3s2.1,0.5,2.6,1.5l0,0v-5.6h2v13.3H488.7z M486.7,6053.6v-1.2c0-0.6-0.2-1.2-0.6-1.6
			s-0.9-0.7-1.6-0.7c-0.8,0-1.4,0.3-1.8,0.9s-0.7,1.4-0.7,2.4c0,0.9,0.2,1.6,0.6,2.2s1,0.8,1.7,0.8s1.3-0.3,1.7-0.8
			C486.5,6055,486.7,6054.4,486.7,6053.6z"/>
		<path class="st5" d="M498.3,6057.7h-2v-1.4l0,0c-0.6,1.1-1.5,1.6-2.7,1.6c-0.9,0-1.6-0.2-2.1-0.7s-0.8-1.1-0.8-1.9
			c0-1.7,1-2.7,2.9-3l2.7-0.4c0-1.3-0.6-1.9-1.8-1.9c-1.1,0-2,0.4-2.9,1.1v-1.8c0.9-0.6,2-0.8,3.3-0.8c2.3,0,3.4,1.1,3.4,3.4
			L498.3,6057.7L498.3,6057.7z M496.4,6053.3l-1.9,0.3c-0.6,0.1-1,0.2-1.3,0.4s-0.4,0.6-0.4,1.1c0,0.4,0.1,0.7,0.4,0.9
			c0.3,0.2,0.6,0.4,1.1,0.4c0.6,0,1.1-0.2,1.5-0.7s0.6-1,0.6-1.6L496.4,6053.3L496.4,6053.3z"/>
	</g>
	<g class="st4">
		<path class="st5" d="M375,6081.7h-2v-1.5l0,0c-0.7,1.2-1.7,1.7-3,1.7c-1.1,0-2-0.4-2.7-1.2c-0.7-0.8-1-1.9-1-3.3
			c0-1.5,0.4-2.7,1.1-3.6s1.7-1.3,2.9-1.3c1.2,0,2.1,0.5,2.6,1.5l0,0v-5.6h2v13.3H375z M373,6077.6v-1.2c0-0.6-0.2-1.2-0.6-1.6
			s-0.9-0.7-1.6-0.7c-0.8,0-1.4,0.3-1.8,0.9s-0.7,1.4-0.7,2.4c0,0.9,0.2,1.6,0.6,2.2s1,0.8,1.7,0.8s1.3-0.3,1.7-0.8
			C372.8,6079,373,6078.4,373,6077.6z"/>
		<path class="st5" d="M385.3,6077.8h-6.1c0,0.8,0.3,1.5,0.8,1.9s1.2,0.7,2,0.7c1,0,1.8-0.3,2.6-0.9v1.6c-0.8,0.5-1.9,0.8-3.3,0.8
			c-1.3,0-2.4-0.4-3.1-1.2c-0.8-0.8-1.1-2-1.1-3.4s0.4-2.5,1.2-3.4c0.8-0.9,1.9-1.3,3.1-1.3s2.2,0.4,2.9,1.2s1,1.9,1,3.3V6077.8z
			 M383.3,6076.3c0-0.7-0.2-1.3-0.5-1.7c-0.3-0.4-0.8-0.6-1.4-0.6s-1.1,0.2-1.5,0.6s-0.7,1-0.8,1.7H383.3z"/>
		<path class="st5" d="M394.2,6081.7h-2v-13.3h2V6081.7z"/>
		<path class="st5" d="M400.9,6081.9c-1.4,0-2.5-0.4-3.3-1.3c-0.8-0.8-1.2-2-1.2-3.3c0-1.5,0.4-2.7,1.3-3.5s2-1.3,3.5-1.3
			c1.4,0,2.5,0.4,3.3,1.2s1.2,2,1.2,3.4s-0.4,2.6-1.3,3.4C403.5,6081.5,402.3,6081.9,400.9,6081.9z M401,6074.1
			c-0.8,0-1.4,0.3-1.9,0.8s-0.7,1.3-0.7,2.3c0,0.9,0.2,1.7,0.7,2.2s1.1,0.8,1.9,0.8s1.4-0.3,1.9-0.8s0.6-1.3,0.6-2.3
			s-0.2-1.8-0.6-2.3S401.8,6074.1,401,6074.1z"/>
		<path class="st5" d="M407.1,6081.4v-1.9c0.8,0.6,1.6,0.9,2.5,0.9c1.2,0,1.8-0.4,1.8-1.1c0-0.2-0.1-0.4-0.2-0.5s-0.2-0.3-0.4-0.4
			s-0.4-0.2-0.6-0.3s-0.5-0.2-0.8-0.3c-0.4-0.1-0.7-0.3-1-0.5s-0.5-0.3-0.7-0.6c-0.2-0.2-0.3-0.4-0.4-0.7s-0.1-0.6-0.1-0.9
			c0-0.4,0.1-0.8,0.3-1.1c0.2-0.3,0.5-0.6,0.8-0.8s0.7-0.4,1.2-0.5c0.4-0.1,0.9-0.2,1.4-0.2c0.8,0,1.6,0.1,2.2,0.4v1.8
			c-0.6-0.4-1.4-0.7-2.2-0.7c-0.3,0-0.5,0-0.7,0.1s-0.4,0.1-0.5,0.2s-0.3,0.2-0.3,0.3c-0.1,0.1-0.1,0.3-0.1,0.4c0,0.2,0,0.4,0.1,0.5
			s0.2,0.3,0.4,0.4c0.2,0.1,0.4,0.2,0.6,0.3c0.2,0.1,0.5,0.2,0.8,0.3c0.4,0.2,0.7,0.3,1,0.5s0.6,0.4,0.8,0.6
			c0.2,0.2,0.4,0.4,0.5,0.7c0.1,0.3,0.2,0.6,0.2,1c0,0.5-0.1,0.9-0.3,1.2s-0.5,0.6-0.8,0.8s-0.8,0.4-1.2,0.5
			c-0.5,0.1-0.9,0.2-1.5,0.2C408.7,6081.9,407.8,6081.7,407.1,6081.4z"/>
		<path class="st5" d="M425.6,6074.6c-0.2-0.2-0.6-0.3-1.1-0.3c-0.6,0-1.1,0.3-1.5,0.8s-0.6,1.3-0.6,2.2v4.3h-2v-9h2v1.9l0,0
			c0.2-0.6,0.5-1.1,0.9-1.5s0.9-0.5,1.4-0.5c0.4,0,0.7,0.1,0.8,0.2v1.9H425.6z"/>
		<path class="st5" d="M434.5,6077.8h-6.1c0,0.8,0.3,1.5,0.8,1.9s1.2,0.7,2,0.7c1,0,1.8-0.3,2.6-0.9v1.6c-0.8,0.5-1.9,0.8-3.3,0.8
			c-1.3,0-2.4-0.4-3.1-1.2c-0.8-0.8-1.1-2-1.1-3.4s0.4-2.5,1.2-3.4c0.8-0.9,1.9-1.3,3.1-1.3s2.2,0.4,2.9,1.2s1,1.9,1,3.3V6077.8z
			 M432.5,6076.3c0-0.7-0.2-1.3-0.5-1.7c-0.3-0.4-0.8-0.6-1.4-0.6s-1.1,0.2-1.5,0.6s-0.7,1-0.8,1.7H432.5z"/>
		<path class="st5" d="M442.9,6081.3c-0.7,0.4-1.6,0.6-2.6,0.6c-1.3,0-2.4-0.4-3.2-1.3c-0.8-0.8-1.2-1.9-1.2-3.2
			c0-1.5,0.4-2.7,1.3-3.6s2.1-1.3,3.5-1.3c0.8,0,1.5,0.1,2.2,0.4v1.9c-0.6-0.5-1.3-0.7-2-0.7c-0.9,0-1.6,0.3-2.1,0.9
			c-0.6,0.6-0.8,1.3-0.8,2.3c0,0.9,0.3,1.7,0.8,2.2s1.2,0.8,2.1,0.8c0.7,0,1.4-0.3,2.1-0.8L442.9,6081.3L442.9,6081.3z"/>
		<path class="st5" d="M452.7,6081.7h-2v-1.4l0,0c-0.6,1.1-1.5,1.6-2.8,1.6c-2.1,0-3.2-1.3-3.2-3.8v-5.4h2v5.2
			c0,1.6,0.6,2.4,1.9,2.4c0.6,0,1.1-0.2,1.5-0.7s0.6-1,0.6-1.7v-5.2h2V6081.7z"/>
		<path class="st5" d="M460.6,6074.6c-0.2-0.2-0.6-0.3-1.1-0.3c-0.6,0-1.1,0.3-1.5,0.8s-0.6,1.3-0.6,2.2v4.3h-2v-9h2v1.9l0,0
			c0.2-0.6,0.5-1.1,0.9-1.5s0.9-0.5,1.4-0.5c0.4,0,0.7,0.1,0.8,0.2v1.9H460.6z"/>
		<path class="st5" d="M461.6,6081.4v-1.9c0.8,0.6,1.6,0.9,2.5,0.9c1.2,0,1.8-0.4,1.8-1.1c0-0.2-0.1-0.4-0.2-0.5s-0.2-0.3-0.4-0.4
			s-0.4-0.2-0.6-0.3s-0.5-0.2-0.8-0.3c-0.4-0.1-0.7-0.3-1-0.5s-0.5-0.3-0.7-0.6c-0.2-0.2-0.3-0.4-0.4-0.7s-0.1-0.6-0.1-0.9
			c0-0.4,0.1-0.8,0.3-1.1c0.2-0.3,0.5-0.6,0.8-0.8s0.7-0.4,1.2-0.5c0.4-0.1,0.9-0.2,1.4-0.2c0.8,0,1.6,0.1,2.2,0.4v1.8
			c-0.6-0.4-1.4-0.7-2.2-0.7c-0.3,0-0.5,0-0.7,0.1s-0.4,0.1-0.5,0.2s-0.3,0.2-0.3,0.3c-0.1,0.1-0.1,0.3-0.1,0.4c0,0.2,0,0.4,0.1,0.5
			s0.2,0.3,0.4,0.4c0.2,0.1,0.4,0.2,0.6,0.3c0.2,0.1,0.5,0.2,0.8,0.3c0.4,0.2,0.7,0.3,1,0.5s0.6,0.4,0.8,0.6
			c0.2,0.2,0.4,0.4,0.5,0.7c0.1,0.3,0.2,0.6,0.2,1c0,0.5-0.1,0.9-0.3,1.2s-0.5,0.6-0.8,0.8s-0.8,0.4-1.2,0.5
			c-0.5,0.1-0.9,0.2-1.5,0.2C463.2,6081.9,462.3,6081.7,461.6,6081.4z"/>
		<path class="st5" d="M473.9,6081.9c-1.4,0-2.5-0.4-3.3-1.3c-0.8-0.8-1.2-2-1.2-3.3c0-1.5,0.4-2.7,1.3-3.5s2-1.3,3.5-1.3
			c1.4,0,2.5,0.4,3.3,1.2s1.2,2,1.2,3.4s-0.4,2.6-1.3,3.4C476.5,6081.5,475.3,6081.9,473.9,6081.9z M474,6074.1
			c-0.8,0-1.4,0.3-1.9,0.8s-0.7,1.3-0.7,2.3c0,0.9,0.2,1.7,0.7,2.2s1.1,0.8,1.9,0.8s1.4-0.3,1.9-0.8s0.6-1.3,0.6-2.3
			s-0.2-1.8-0.6-2.3S474.8,6074.1,474,6074.1z"/>
		<path class="st5" d="M480.1,6081.4v-1.9c0.8,0.6,1.6,0.9,2.5,0.9c1.2,0,1.8-0.4,1.8-1.1c0-0.2-0.1-0.4-0.2-0.5
			c-0.1-0.1-0.2-0.3-0.4-0.4s-0.4-0.2-0.6-0.3s-0.5-0.2-0.8-0.3c-0.4-0.1-0.7-0.3-1-0.5s-0.5-0.3-0.7-0.6c-0.2-0.2-0.3-0.4-0.4-0.7
			s-0.1-0.6-0.1-0.9c0-0.4,0.1-0.8,0.3-1.1c0.2-0.3,0.5-0.6,0.8-0.8s0.7-0.4,1.2-0.5c0.4-0.1,0.9-0.2,1.4-0.2c0.8,0,1.6,0.1,2.2,0.4
			v1.8c-0.6-0.4-1.4-0.7-2.2-0.7c-0.3,0-0.5,0-0.7,0.1s-0.4,0.1-0.5,0.2s-0.3,0.2-0.3,0.3c-0.1,0.1-0.1,0.3-0.1,0.4
			c0,0.2,0,0.4,0.1,0.5s0.2,0.3,0.4,0.4s0.4,0.2,0.6,0.3c0.2,0.1,0.5,0.2,0.8,0.3c0.4,0.2,0.7,0.3,1,0.5s0.6,0.4,0.8,0.6
			s0.4,0.4,0.5,0.7c0.1,0.3,0.2,0.6,0.2,1c0,0.5-0.1,0.9-0.3,1.2s-0.5,0.6-0.8,0.8s-0.8,0.4-1.2,0.5c-0.5,0.1-0.9,0.2-1.5,0.2
			C481.7,6081.9,480.8,6081.7,480.1,6081.4z"/>
	</g>
</g>
</svg>
