<svg xmlns="http://www.w3.org/2000/svg" width="144.082" height="132" viewBox="0 0 144.082 132">
  <g id="Grupo_14885" data-name="Grupo 14885" transform="translate(-536.34 -262.834)">
    <path id="Trazado_16401" data-name="Trazado 16401" d="M615.361,263.123a38.186,38.186,0,0,1,8.16-.131c32.237,2.982,55.312,36.376,55.963,66.954.38,17.832-6.787,35.925-20.067,47.833-14.11,12.654-33.869,17.6-52.813,17.008-14.931-.464-29.981-4.425-42.8-12.195-12.844-7.786-26.682-21.719-27.437-37.646-.71-14.983,13.248-21.464,24.6-27.341,11.426-5.914,20.451-14.21,24.43-26.742C590.175,275.819,598.727,265.163,615.361,263.123Z" fill="#f2f2f2"/>
    <g id="Grupo_14884" data-name="Grupo 14884" transform="translate(539.221 291.391)">
      <path id="Trazado_16402" data-name="Trazado 16402" d="M542.564,325.2l3.848,58.04a3.7,3.7,0,0,0,3.7,3.572h45.405a3.7,3.7,0,0,0,3.7-3.572l3.847-58.04Z" transform="translate(-539.617 -295.356)" fill="#3ab54a"/>
      <rect id="Rectángulo_3387" data-name="Rectángulo 3387" width="66.399" height="8.142" transform="translate(0 21.703)" fill="#21832c"/>
      <path id="Trazado_16403" data-name="Trazado 16403" d="M603.068,315.032h-60.5l4.134-19.121a3.274,3.274,0,0,1,3.2-2.582h45.836a3.274,3.274,0,0,1,3.2,2.582Z" transform="translate(-539.617 -293.33)" fill="#3bb44a"/>
      <path id="Trazado_16404" data-name="Trazado 16404" d="M590.04,311.456H557.048a3.037,3.037,0,0,1-3.037-3.037v-4.6a3.037,3.037,0,0,1,3.037-3.036H590.04a3.037,3.037,0,0,1,3.037,3.036v4.6a3.037,3.037,0,0,1-3.037,3.037" transform="translate(-540.345 -293.804)" fill="#f2f2f2"/>
      <path id="Trazado_16405" data-name="Trazado 16405" d="M584.414,367.193a1.117,1.117,0,0,0-.113-.313c-.056-.108-.224-.418-.446-.828Z" transform="translate(-542.242 -297.954)" fill="#fff"/>
      <g id="Grupo_14879" data-name="Grupo 14879" transform="translate(17.949 45.296)">
        <path id="Trazado_16406" data-name="Trazado 16406" d="M575.295,350.843l2.106.626,2.723.81,2.107.628a1.32,1.32,0,0,0,1.673-1.01l.486-2.189c.171-.777.452-2.051.625-2.829l.485-2.189c.173-.777-.317-1.034-1.088-.569l-1.322.8c-.484-.845-.968-1.685-1.156-1.993-.426-.7-1.244-1.232-2.85-1.223l-6.367.037,2.659,4.777a.908.908,0,0,1,.164.24c.127.262.609,1.165,1.089,2.057l-1.293.78c-.772.464-.789,1.026-.04,1.25" transform="translate(-559.483 -341.702)" fill="#fff"/>
        <path id="Trazado_16407" data-name="Trazado 16407" d="M567.424,343.333c-.683,1.061-2.414,3.885-2.414,3.885a1.333,1.333,0,0,0,.44,1.84l4.246,2.549a1.341,1.341,0,0,0,1.836-.474l2.616-4.4c.228-.388.5-.445.725-.215l-2.659-4.777-1.534.009a3.515,3.515,0,0,0-3.257,1.582" transform="translate(-558.98 -341.704)" fill="#f2f2f2"/>
        <path id="Trazado_16408" data-name="Trazado 16408" d="M559.518,361.793c.479.95,1.8,3.394,2.773,5.185l3.01-5.034c.354-.619,1.011-1.767,1.56-2.718l1.54.876c.782.445,1.265.176,1.075-.6l-.539-2.176c-.191-.773-.5-2.039-.7-2.812l-.537-2.176a1.319,1.319,0,0,0-1.7-.966l-2.091.682-2.7.88-2.09.681c-.744.242-.712.8.07,1.248l1.136.646c-.581,1.148-1.263,2.5-1.435,2.893-.311.7-.119,1.914.625,3.391" transform="translate(-558.584 -342.313)" fill="#fff"/>
        <path id="Trazado_16409" data-name="Trazado 16409" d="M565.551,362.666l-3.009,5.034c.54,1,.972,1.793,1.086,2.013.317.618.773,1.827,3.645,1.811l4.175-.024a1.349,1.349,0,0,0,1.32-1.367l-.028-5.042a1.348,1.348,0,0,0-1.336-1.351l-5.7.034c-.515,0-.581-.346-.4-.67.024-.044.117-.2.249-.437" transform="translate(-558.836 -343.035)" fill="#f2f2f2"/>
        <path id="Trazado_16410" data-name="Trazado 16410" d="M584.267,362.591l2.487,5.084c.871-1.642,2.349-4.491,2.953-5.723.808-1.649,1.037-3.078.665-3.829s-2.215-4.407-2.215-4.407a1.2,1.2,0,0,0-1.741-.5l-4.219,2.655a1.455,1.455,0,0,0-.485,1.9s1.282,2.358,2,3.678c.222.409.39.719.446.828a1.113,1.113,0,0,1,.113.312" transform="translate(-560.044 -342.422)" fill="#f2f2f2"/>
        <path id="Trazado_16411" data-name="Trazado 16411" d="M585.665,369.328c.1-.169.323-.586.615-1.14l-2.487-5.084c.052.3-.094.5-.451.5l-2.572.015-.014-1.576c-.008-.916-.476-1.213-1.039-.66l-1.583,1.553-2.048,2.007-1.583,1.554a1.375,1.375,0,0,0,.016,1.988l1.612,1.524,2.082,1.968,1.611,1.525c.572.541,1.036.236,1.026-.68l-.014-1.5,1.97-.011a3.187,3.187,0,0,0,2.86-1.983" transform="translate(-559.569 -342.936)" fill="#fff"/>
      </g>
      <path id="Trazado_16412" data-name="Trazado 16412" d="M622.445,325.2l3.848,57.695a3.7,3.7,0,0,0,3.7,3.573H675.4a3.7,3.7,0,0,0,3.7-3.573l3.847-57.695Z" transform="translate(-544.696 -295.356)" fill="#ed1b24"/>
      <rect id="Rectángulo_3388" data-name="Rectángulo 3388" width="66.399" height="8.142" transform="translate(74.802 21.703)" fill="#c2151b"/>
      <path id="Trazado_16413" data-name="Trazado 16413" d="M682.949,315.032h-60.5l4.134-19.121a3.274,3.274,0,0,1,3.2-2.582h45.836a3.274,3.274,0,0,1,3.2,2.582Z" transform="translate(-544.696 -293.33)" fill="#ed1b24"/>
      <path id="Trazado_16414" data-name="Trazado 16414" d="M669.921,311.456H636.929a3.037,3.037,0,0,1-3.037-3.037v-4.6a3.037,3.037,0,0,1,3.037-3.036h32.992a3.037,3.037,0,0,1,3.037,3.036v4.6a3.037,3.037,0,0,1-3.037,3.037" transform="translate(-545.424 -293.804)" fill="#f2f2f2"/>
      <g id="Grupo_14883" data-name="Grupo 14883" transform="translate(90.169 41.075)">
        <g id="Grupo_14882" data-name="Grupo 14882">
          <g id="Grupo_14880" data-name="Grupo 14880" transform="translate(0.618 0.618)">
            <rect id="Rectángulo_3389" data-name="Rectángulo 3389" width="33.998" height="33.998" rx="2.682" fill="#ffcd0d"/>
          </g>
          <g id="Grupo_14881" data-name="Grupo 14881">
            <path id="Trazado_16415" data-name="Trazado 16415" d="M667.812,372.429H638.838a3.133,3.133,0,0,1-3.13-3.13V340.324a3.133,3.133,0,0,1,3.13-3.13h28.975a3.134,3.134,0,0,1,3.13,3.13V369.3A3.134,3.134,0,0,1,667.812,372.429Zm-28.975-34a1.9,1.9,0,0,0-1.893,1.893V369.3a1.9,1.9,0,0,0,1.893,1.893h28.975a1.9,1.9,0,0,0,1.894-1.893V340.324a1.9,1.9,0,0,0-1.894-1.893Z" transform="translate(-635.708 -337.194)" fill="#fff"/>
          </g>
        </g>
        <path id="Trazado_16416" data-name="Trazado 16416" d="M653.533,365.654a7.918,7.918,0,0,1-9.905,1.718,5.936,5.936,0,0,0,7.168-3.986,6.807,6.807,0,0,1-4.039-7.47,5.956,5.956,0,0,0-7.145,3.576,7.953,7.953,0,0,1,6.246-6.866,7.954,7.954,0,0,1,1.042-7.734,7.647,7.647,0,0,1,3.879-2.759,5.9,5.9,0,0,0-3.6,5.438,5.671,5.671,0,0,0,1.879,4.346,6.84,6.84,0,0,1,8.369-.3,5.778,5.778,0,0,0,1.328-5.769,5.918,5.918,0,0,0-4.392-4.049,7.962,7.962,0,0,1,6.35,10.747,7.933,7.933,0,0,1,5.707,3.823,7.619,7.619,0,0,1,1.055,4.971,5.962,5.962,0,0,0-2.469-4.252,5.835,5.835,0,0,0-4.806-.973,6.941,6.941,0,0,1-4.352,7.415,5.842,5.842,0,0,0,2.631,3.429,5.905,5.905,0,0,0,4.326.729A7.927,7.927,0,0,1,653.533,365.654Zm.014-10.588a2.059,2.059,0,0,0-.116,4.116,2.06,2.06,0,1,0,.116-4.116Zm5.331,1.547a5.817,5.817,0,0,0-3.228,5.506A5.379,5.379,0,0,0,658.878,356.613Zm-7.836,5.4a5.739,5.739,0,0,0-3.025-5.529A5.372,5.372,0,0,0,651.042,362.016Zm5.35-9.494a5.409,5.409,0,0,0-6.2.229A5.851,5.851,0,0,0,656.392,352.522Z" transform="translate(-635.956 -337.487)"/>
      </g>
    </g>
  </g>
</svg>
