<?xml version="1.0" encoding="utf-8"?>
<!-- Generator: Adobe Illustrator 25.2.0, SVG Export Plug-In . SVG Version: 6.00 Build 0)  -->
<svg version="1.1" id="Capa_1" xmlns="http://www.w3.org/2000/svg" xmlns:xlink="http://www.w3.org/1999/xlink" x="0px" y="0px"
	 viewBox="0 0 56 15.5" style="enable-background:new 0 0 56 15.5;" xml:space="preserve">
<style type="text/css">
	.st0{fill:#F2F2F2;}
	.st1{fill:#FFCD0D;}
</style>
<g id="Grupo_14671" transform="translate(-2311.681 -1299.534)">
	<circle id="Elipse_752" class="st0" cx="2319.4" cy="1307.3" r="7.8"/>
	<path id="Trazado_15642" class="st1" d="M2319.4,1303.8c-2,0-3.5,1.6-3.5,3.5s1.6,3.5,3.5,3.5s3.5-1.6,3.5-3.5c0,0,0,0,0,0
		C2323,1305.3,2321.4,1303.8,2319.4,1303.8z"/>
	<rect id="Rectángulo_3302" x="2324.2" y="1306.2" class="st0" width="36.1" height="2.7"/>
	<path id="Trazado_15643" class="st1" d="M2359.1,1303.7c-2,2-2,5.1,0,7.1s5.1,2,7.1,0c2-2,2-5.1,0-7.1l0,0
		C2364.2,1301.8,2361,1301.8,2359.1,1303.7z"/>
</g>
</svg>
