<?xml version="1.0" encoding="utf-8"?>
<!-- Generator: Adobe Illustrator 25.2.0, SVG Export Plug-In . SVG Version: 6.00 Build 0)  -->
<svg version="1.1" id="Capa_1" xmlns="http://www.w3.org/2000/svg" xmlns:xlink="http://www.w3.org/1999/xlink" x="0px" y="0px"
	 viewBox="0 0 56 15.5" style="enable-background:new 0 0 56 15.5;" xml:space="preserve">
<style type="text/css">
	.st0{fill:#F2F2F2;}
	.st1{fill:#0F94A5;}
</style>
<g id="Grupo_14674" transform="translate(-2311.681 -1174.867)">
	<path id="Trazado_15647" class="st0" d="M2319.4,1174.9c-4.3,0-7.8,3.5-7.8,7.8s3.5,7.8,7.8,7.8c4.3,0,7.8-3.5,7.8-7.8
		C2327.2,1178.3,2323.7,1174.9,2319.4,1174.9L2319.4,1174.9z"/>
	<path id="Trazado_15648" class="st1" d="M2319.4,1179.1c-2,0-3.5,1.6-3.5,3.5s1.6,3.5,3.5,3.5s3.5-1.6,3.5-3.5c0,0,0,0,0,0
		C2323,1180.7,2321.4,1179.1,2319.4,1179.1z"/>
	<rect id="Rectángulo_3305" x="2324.2" y="1181.5" class="st0" width="36.1" height="2.7"/>
	<circle id="Elipse_759" class="st1" cx="2362.6" cy="1182.6" r="5"/>
</g>
</svg>
