<svg xmlns="http://www.w3.org/2000/svg" width="102" height="102" viewBox="0 0 102 102">
  <g id="Grupo_15004" data-name="Grupo 15004" transform="translate(-332 -10663)">
    <g id="Elipse_785" data-name="Elipse 785" transform="translate(332 10663)" fill="#f8f8f8" stroke="#7dd3e9" stroke-width="5">
      <circle cx="51" cy="51" r="51" stroke="none"/>
      <circle cx="51" cy="51" r="48.5" fill="none"/>
    </g>
    <g id="Grupo_14703" data-name="Grupo 14703" transform="translate(-327.521 10596.213)">
      <path id="Trazado_15677" data-name="Trazado 15677" d="M709,86.55a2.879,2.879,0,0,0-2.38-1.23,3,3,0,0,0-2.382,1.23c-5.992,8.292-20.85,30.128-20.85,40.473a23.232,23.232,0,0,0,46.463,0c0-10.345-14.859-32.181-20.852-40.473Zm-12.478,49.832a2.021,2.021,0,0,1-1.56.738,2.187,2.187,0,0,1-1.313-.492c-5.747-4.845-3.776-12.068-3.693-12.314a2.01,2.01,0,0,1,2.545-1.4,1.954,1.954,0,0,1,1.395,2.463c-.082.246-1.312,5.009,2.381,8.128a1.988,1.988,0,0,1,.246,2.873Z" fill="#ff496a" fill-rule="evenodd"/>
      <path id="Trazado_15678" data-name="Trazado 15678" d="M745.073,92.14a15.515,15.515,0,1,1-15.516,15.515A15.556,15.556,0,0,1,745.073,92.14Z" transform="translate(-24.496 -3.619)" fill="#676767" fill-rule="evenodd"/>
      <path id="Trazado_15679" data-name="Trazado 15679" d="M743.218,88.814a17,17,0,0,1,12.067,5.009h0a17.144,17.144,0,0,1,0,24.217h0a17.139,17.139,0,0,1-24.217,0h0a17.118,17.118,0,0,1,12.15-29.226Zm9.768,7.308a13.636,13.636,0,0,0-9.768-4.1,13.829,13.829,0,0,0-9.852,4.1,13.776,13.776,0,0,0,0,19.619h0a13.832,13.832,0,0,0,9.852,4.106,13.873,13.873,0,0,0,9.768-23.725Z" transform="translate(-22.641 -1.854)" fill="#fff"/>
      <path id="Trazado_15680" data-name="Trazado 15680" d="M747.634,122.009l-.41,1.233a3.174,3.174,0,0,1-.492.9,1.455,1.455,0,0,1-.821.329,1.415,1.415,0,0,1-1.313-1.312,1.061,1.061,0,0,1,.082-.495.494.494,0,0,1,.082-.329l3.12-8.453a2.785,2.785,0,0,1,.821-1.315,1.672,1.672,0,0,1,1.232-.492,2.023,2.023,0,0,1,1.232.41,2.709,2.709,0,0,1,.82,1.233l3.037,8.535a1.438,1.438,0,0,1,.083.495.9.9,0,0,1,.082.41.961.961,0,0,1-.41.9,1.316,1.316,0,0,1-.9.41,1.49,1.49,0,0,1-.9-.329,2.605,2.605,0,0,1-.575-1.066l-.329-1.069Zm13.381-.574v-2.381H763.4v-1.558h-2.381v-2.381h-1.56v2.381h-2.3v1.558h2.3v2.381Zm-12.56-1.972h2.791l-1.313-4.431Z" transform="translate(-32.475 -14.196)" fill="#fff" fill-rule="evenodd"/>
    </g>
  </g>
</svg>
