<svg id="Grupo_14155" data-name="Grupo 14155" xmlns="http://www.w3.org/2000/svg" width="88.61" height="90.627" viewBox="0 0 88.61 90.627">
  <path id="Trazado_14333" data-name="Trazado 14333" d="M302.524,614.428a1.934,1.934,0,0,0-1.451.676h-6.914a34.233,34.233,0,0,0-9.068-21.189l4.623-4.623a1.937,1.937,0,0,0,1.505-.547,2.018,2.018,0,0,0-2.852-2.855,1.94,1.94,0,0,0-.55,1.505l-4.623,4.623a34.214,34.214,0,0,0-21.994-9.106v-8.279a1.99,1.99,0,0,0,.676-1.484,2.018,2.018,0,0,0-4.035,0,1.99,1.99,0,0,0,.676,1.484v8.279a34.223,34.223,0,0,0-21.82,8.947l-4.464-4.464a1.94,1.94,0,0,0-.55-1.505,2.018,2.018,0,0,0-2.852,2.855,1.935,1.935,0,0,0,1.5.547l4.451,4.448a34.23,34.23,0,0,0-9.226,21.364h-6.248a1.934,1.934,0,0,0-1.451-.676,2.018,2.018,0,0,0,0,4.035,1.925,1.925,0,0,0,1.451-.676h6.168a34.232,34.232,0,0,0,9.149,22.8L230,645.211a1.925,1.925,0,0,0-1.5.547,2.017,2.017,0,0,0,2.852,2.852,1.937,1.937,0,0,0,.55-1.5l4.623-4.623a34.228,34.228,0,0,0,21.994,9.106v6.667a2.018,2.018,0,1,0,2.683,0v-6.667a34.221,34.221,0,0,0,22.168-9.266l4.781,4.783a1.937,1.937,0,0,0,.55,1.5,2.017,2.017,0,0,0,2.852-2.852,1.927,1.927,0,0,0-1.505-.547l-4.8-4.8a34.216,34.216,0,0,0,8.99-22.625h6.833a1.925,1.925,0,0,0,1.451.676,2.018,2.018,0,0,0,0-4.035Z" transform="translate(-215.886 -571.132)" fill="#ed3c3d"/>
  <path id="Trazado_14334" data-name="Trazado 14334" d="M282.756,606.5h-1.94a28.345,28.345,0,0,0-7.737-17.833l1.612-1.61a1.341,1.341,0,0,0-1.9-1.9l-1.65,1.647a28.329,28.329,0,0,0-17.39-6.989v-2.082a1.341,1.341,0,0,0-2.683,0v2.082a28.342,28.342,0,0,0-18.23,7.753l-1.615-1.612a1.342,1.342,0,0,0-1.894,1.9l1.65,1.645a28.342,28.342,0,0,0-6.973,16.993h-2.262a1.341,1.341,0,0,0,0,2.683h2.221a28.342,28.342,0,0,0,7.01,17.79l-1.647,1.65a1.341,1.341,0,0,0,1.9,1.9l1.61-1.61a28.361,28.361,0,0,0,18.233,7.756v2.4a1.341,1.341,0,0,0,2.683,0v-2.4a28.329,28.329,0,0,0,17.471-7.064l1.569,1.564a1.346,1.346,0,0,0,.947.392,1.322,1.322,0,0,0,.95-.4,1.337,1.337,0,0,0,0-1.9l-1.535-1.529a28.335,28.335,0,0,0,7.7-18.552h1.9a1.341,1.341,0,0,0,0-2.683Z" transform="translate(-208.279 -562.28)" fill="#f58080"/>
</svg>
