<svg xmlns="http://www.w3.org/2000/svg" width="61.707" height="81.124" viewBox="0 0 61.707 81.124">
  <g id="Grupo_14156" data-name="Grupo 14156" transform="translate(0 0.167)">
    <path id="Trazado_14335" data-name="Trazado 14335" d="M268.014,544.229c3.952-1.9,5.2-1.717,7.22,1.352a13.572,13.572,0,0,0,3.343,3.52c2.291,1.671,3.029,4.089,3.831,6.562.445,1.368.18,2.213-1.172,2.613a2.987,2.987,0,0,0-2.471,3.109c-.038,3.182-2.251,4.317-5.03,4.848-.647.123-1.29.276-1.942.338-1.486.14-3.163.1-3.579,1.894-.373,1.607.864,2.637,1.9,3.7,2.849,2.911,2.449,6.876-1.355,8.435-4.668,1.913-4.384,5.865-5.1,9.5-.113.574.338,1.231.432,1.862.808,5.3.142,10.173-3.96,14.214a10.189,10.189,0,0,0-3.391,5.755c-.338,2.391-2.259,2.849-4.3,3.257-2.221.443-2.211-1.489-3.05-2.5-1.747-2.1-2.428-5.46-6.576-4.494-1.451.341-2.122-1.382-2.618-2.525-1.349-3.1-2.576-6.259-3.812-9.406-.939-2.388-3.131-4.453-1.349-7.48.689-1.167-1.033-1.776-2.034-2.256-1.747-.837-1.918-2.007-.971-3.531.341-.547.588-1.151.888-1.725,2.868-5.527.789-9.763-5.441-11.045-.808-.166-1.631-.25-2.449-.354a3.475,3.475,0,0,1-3.289-3.611c-.107-2.9-.555-5.752-.8-8.623a6.033,6.033,0,0,1,2.973-6.122c3.557-2.235,6.222-5.731,10.509-7.032a1.528,1.528,0,0,0,.73-2.688c-1.658-1.937-.459-2.962,1-4.36,2.895-2.771,6.251-3.235,9.975-2.629,1.95.319,1.669,1.567,1.156,2.865-.048.177-.1.357-.14.539-.319.673-.722,1.307-1.084,1.964-.091.169-.193.327-.284.5s-.212.322-.309.485c-.193.335-.394.665-.574,1a3.552,3.552,0,0,0,.035,2.8,23.59,23.59,0,0,0,1.07,2.189,9.738,9.738,0,0,1,.553,1.111c1.014,1.781.37,4.067,1.851,5.7a6.311,6.311,0,0,0,1.591.867,8.6,8.6,0,0,1,1.755.77c2.382.749,2.5,5.454,6.436,3.466,1.741-.724,3.775-.832,5.119-2.364,1.062-2.254.2-4.746.934-7.037a12.136,12.136,0,0,1,1.078-2.474A6.113,6.113,0,0,1,268.014,544.229Z" transform="translate(-220.9 -534.294)" fill="#4ba7bc"/>
    <path id="Trazado_14336" data-name="Trazado 14336" d="M232.909,537.838c2.052-.091,3.955.284,5.264-2.315,1.062-2.111,6.388-.821,6.93,1.752.279,1.315.821,2.189,1.72,2.441,2.307.649,3.225,2.64,4.746,4.04,1.025.692.73,1.631.5,2.557a10.182,10.182,0,0,0-1.84,3.82c-.287,2.372.622,4.834-.6,7.128-1.975,1.419-4.411,1.8-6.578,2.787-3.756.9-3.625-3.407-6.05-4.284q-.64-.213-1.293-.378a26.207,26.207,0,0,0-2.514-.944c-1.763-1.548-.048-3.847-1.258-5.513a3.247,3.247,0,0,1-.518-1.154,17.644,17.644,0,0,0-1.8-3.279,2.693,2.693,0,0,1,.687-2.854,2.455,2.455,0,0,1,.655-1.03l-.03.054a15.284,15.284,0,0,1,.789-1.32c.491-.486.719-1.159,1.24-1.623Z" transform="translate(-206.53 -534.465)" fill="#eb0101" stroke="#fff" stroke-miterlimit="10" stroke-width="0.25"/>
  </g>
</svg>
