<?xml version="1.0" encoding="utf-8"?>
<!-- Generator: Adobe Illustrator 25.2.0, SVG Export Plug-In . SVG Version: 6.00 Build 0)  -->
<svg version="1.1" id="Capa_1" xmlns="http://www.w3.org/2000/svg" xmlns:xlink="http://www.w3.org/1999/xlink" x="0px" y="0px"
	 viewBox="0 0 856 288" style="enable-background:new 0 0 856 288;" xml:space="preserve">
<style type="text/css">
	.st0{fill:#EAEAEA;}
	.st1{fill:#4BA7BC;}
	.st2{fill:#E3F4FC;}
	.st3{fill:#EA0909;}
	.st4{fill:#FFFFFF;}
	.st5{enable-background:new    ;}
	.st6{fill:#00223D;}
	.st7{fill:#002B45;}
	.st8{fill:#EB0101;}
	.st9{fill:none;stroke:#002B45;}
</style>
<path id="Rectángulo_3209" class="st0" d="M20,0h816c11,0,20,9,20,20v248c0,11-9,20-20,20H20c-11,0-20-9-20-20V20C0,9,9,0,20,0z"/>
<g id="Grupo_14163" transform="translate(226.38 1342.75)">
	<g id="Grupo_14161" transform="translate(354.679 137.9)">
		<path id="Trazado_14348" class="st1" d="M-187.5-1385.3c-0.8,0-1.5,0.4-2,0.9h-9.7c-0.7-11.1-5.2-21.6-12.7-29.7l6.5-6.5
			c0.8,0.1,1.5-0.2,2.1-0.8c1.1-1.1,1-2.9-0.1-4c-1.1-1.1-2.8-1.1-3.9,0c-0.5,0.6-0.8,1.3-0.8,2.1l-6.5,6.5
			c-8.4-7.8-19.4-12.3-30.8-12.8v-11.6c0.6-0.5,0.9-1.3,0.9-2.1c0-1.6-1.3-2.8-2.8-2.8c-1.6,0-2.8,1.3-2.8,2.8c0,0,0,0,0,0
			c0,0.8,0.4,1.6,1,2.1v11.6c-11.4,0.4-22.2,4.9-30.6,12.5l-6.3-6.3c0.1-0.8-0.2-1.5-0.8-2.1c-1.1-1.1-2.9-1-4,0.1
			c-1.1,1.1-1.1,2.8,0,3.9c0.6,0.5,1.3,0.8,2.1,0.8l6.2,6.2c-7.7,8.2-12.3,18.8-12.9,30h-8.8c-0.5-0.6-1.3-0.9-2-0.9
			c-1.6,0-2.8,1.3-2.8,2.9c0,1.5,1.3,2.7,2.8,2.8c0.8,0,1.5-0.4,2-0.9h8.6c0.2,11.9,4.7,23.3,12.8,32l-6.5,6.5
			c-0.8-0.1-1.6,0.2-2.1,0.8c-1.1,1.1-1,2.9,0.1,4c1.1,1,2.8,1,3.9,0c0.5-0.6,0.8-1.3,0.8-2.1l6.5-6.5c8.4,7.8,19.4,12.3,30.8,12.8
			v9.3c-1.2,1-1.3,2.8-0.2,4s2.8,1.3,4,0.2s1.3-2.8,0.2-4c-0.1-0.1-0.2-0.2-0.2-0.2v-9.4c11.6-0.4,22.6-5,31.1-13l6.7,6.7
			c-0.1,0.8,0.2,1.6,0.8,2.1c1.1,1.1,2.9,1,4-0.1c1-1.1,1-2.8,0-3.9c-0.6-0.5-1.3-0.8-2.1-0.8l-6.7-6.7c7.9-8.7,12.4-20,12.6-31.7
			h9.6c0.5,0.6,1.3,0.9,2,0.9c1.6,0,2.8-1.3,2.8-2.9C-184.8-1384-186-1385.3-187.5-1385.3L-187.5-1385.3z"/>
		<path id="Trazado_14349" class="st2" d="M-204.6-1384h-2.7c-0.6-9.4-4.4-18.2-10.8-25l2.3-2.3c0.7-0.7,0.7-1.9,0-2.7
			c-0.7-0.7-1.9-0.7-2.6,0l-2.3,2.3c-6.8-5.9-15.4-9.4-24.4-9.8v-2.9c0-1-0.8-1.9-1.9-1.9s-1.9,0.8-1.9,1.9v2.9
			c-9.5,0.4-18.6,4.3-25.6,10.9l-2.3-2.3c-0.7-0.7-1.9-0.7-2.7,0c-0.7,0.7-0.7,1.9,0,2.7l0,0l2.3,2.3c-5.8,6.6-9.3,15-9.8,23.8h-3.2
			c-1,0-1.9,0.8-1.9,1.9c0,1,0.8,1.9,1.9,1.9h3.1c0.3,9.2,3.8,18,9.8,24.9l-2.3,2.3c-0.7,0.7-0.8,1.9,0,2.7c0.7,0.7,1.9,0.8,2.7,0
			c0,0,0,0,0,0l2.3-2.3c6.9,6.6,16,10.4,25.6,10.9v3.4c0,1,0.8,1.9,1.9,1.9s1.9-0.8,1.9-1.9v-3.4c9.1-0.4,17.7-3.9,24.5-9.9l2.2,2.2
			c0.4,0.3,0.8,0.5,1.3,0.5c1,0,1.9-0.8,1.9-1.9c0-0.5-0.2-1-0.6-1.3l-2.2-2.1c6.7-7.1,10.5-16.3,10.8-26h2.7c1,0,1.9-0.8,1.9-1.9
			S-203.5-1384-204.6-1384L-204.6-1384L-204.6-1384z"/>
		<path id="Trazado_14350" class="st3" d="M-228-1375.9c3.5-1.7,7.8-1.7,11.6-5.4c-4.2-2.2-7.6-4-11-5.7l0,0c0.5-0.5,0.9-1,1.5-1.4
			c5.1-4.1,5.1-4.2-0.2-7.4c-1.3-0.8-3.1-1-3.5-2.9c0.9-1.8,3.9-2.8,2.9-5.1c-1.2-2.8-4.1-1.2-6.3-1.2c-1.2,0-2.3,0-3.5,0.2
			c-2.4,0.3-4.1,0.1-5.4-2.8c-1.4-3.2-2-3-4.6,1l0,0c-4.5,5.7-7.2-1.4-11-1.6c-2.5,2.7-1,6.1-1.9,9.1l0,0c-1.6,0-3.2,0-4.8,0
			c-4.3,0.2-4.7,1.1-2.5,5c0.9,1.5,2.6,2.6,2.5,4.5c-1.5,1.9-3.9,1.7-5.5,3.1c-1.8,1.5,0.3,4.1-1.4,5.4c-1.7,0.3-2.8-0.8-4.1-1.1
			c-1.2-0.3-2.4-0.1-2.8,1.2c-0.5,1.3,0.3,2.2,1.4,2.7c2.3,1.1,4.6,2.2,7,3.1c3.6,1.4,4.7,0.6,4.1-3.1c-0.5-3.3-0.6-5.5,3.3-6.9
			c5-1.8,4.9-2.1,2.2-7.1c-0.2-0.6-0.4-1.3-0.4-1.9c2.1-0.6,5.3,0.3,4.2-3.7l0,0c0.5-1.6-0.4-3.5,1.8-5.2c3.1,4.9,6.2,2.6,9.2-0.2
			c0.5,2.1,2.6,3.4,4.7,3c2.4-0.2,5.1-1.3,4.8,3.5c-0.2,2.5,4.6,2.4,6.1,4.8c-0.1,1.7-1.9,1.8-2.6,2.8c-2.1,3-0.7,3.9,2.3,4
			c1.3,2,4.6,1.8,5.7,4.5c-1.7,0.9-3.1,1.6-4.6,2.3l0,0c-2.7-0.2-3.6,1-3.6,3.7c0.1,2.9,1.4,5.8,0.4,8.7c-9.5-1.3-9.5-1.3-13.4,5.8
			c-2-0.9-2.8-3-4.2-4.4c-0.9-0.9-2-1.5-3.1-0.8c-2.8,1.5-5.4,3.6-7.5,6c-0.6,0.8-0.4,1.9,0.3,2.5c0.5,0.5,1.2,0.7,1.9,0.4
			c0.9-0.3,1.7-0.8,2.3-1.4c2.6-2.7,4.7-2.3,6.5,0.9c0.4,0.6,0.8,1.1,1.3,1.6c3.7,4.3,4.7,4.1,6.7-1.2c2.2-5.6,2.2-5.6,7.9-4.8
			c0.7,0.1,1.4,0.2,2.1,0.3c3.9,0.3,4.3-0.1,4.2-4.2C-227.3-1369.1-227.7-1372.5-228-1375.9z"/>
	</g>
	<path id="Trazado_14351" class="st4" d="M344.7-1206c22.5-32,14.8-76.2-17.2-98.7c-0.1-0.1-0.2-0.1-0.3-0.2
		c-40.4-28-95.1-8.3-108.4,38.8c-0.3,1-1,1.8-1.9,2.3c-5.4,2.8-11,5.5-16.5,8.2c-5.8,2.9-11.5,5.7-17.6,8.7c0.9,0.5,1.3,0.7,1.8,1
		c11,5.7,22,11.4,33,17.1c0.9,0.5,1.7,1.4,2.1,2.4c5,15.7,15.3,29.2,29.1,38.1C280.4-1167.5,323.1-1175.5,344.7-1206z"/>
</g>
<g class="st5">
	<path class="st6" d="M74.3,91.1h-6.7V78.5H74v1.3h-4.9V84h4.6v1.3h-4.6v4.4h5.2V91.1z"/>
	<path class="st6" d="M77.9,91.1h-1.4V77.8h1.4V91.1z"/>
	<path class="st6" d="M98.6,91.1h-1.4v-5.2c0-1-0.2-1.7-0.5-2.2s-0.8-0.7-1.6-0.7c-0.6,0-1.1,0.3-1.6,0.8s-0.6,1.2-0.6,2v5.1h-1.4
		v-5.3c0-1.8-0.7-2.7-2-2.7c-0.6,0-1.2,0.3-1.6,0.8c-0.4,0.5-0.6,1.2-0.6,2.1v5.1h-1.4v-9h1.4v1.4h0c0.6-1.1,1.6-1.6,2.8-1.6
		c0.6,0,1.2,0.2,1.6,0.5c0.5,0.3,0.8,0.8,0.9,1.3c0.7-1.2,1.7-1.9,3-1.9c2,0,3,1.2,3,3.7V91.1z"/>
	<path class="st6" d="M107.7,91.1h-1.4v-1.4h0c-0.6,1.1-1.5,1.6-2.8,1.6c-0.9,0-1.6-0.2-2.1-0.7s-0.8-1.1-0.8-1.9c0-1.7,1-2.7,3-2.9
		l2.7-0.4c0-1.5-0.6-2.3-1.9-2.3c-1.1,0-2.1,0.4-2.9,1.1v-1.5c0.9-0.6,1.9-0.8,3.1-0.8c2.1,0,3.2,1.1,3.2,3.4V91.1z M106.3,86.5
		l-2.2,0.3c-0.7,0.1-1.2,0.3-1.5,0.5c-0.3,0.2-0.5,0.7-0.5,1.3c0,0.4,0.2,0.8,0.5,1.1c0.3,0.3,0.7,0.4,1.3,0.4
		c0.7,0,1.3-0.2,1.8-0.8c0.5-0.5,0.7-1.1,0.7-1.9V86.5z"/>
	<path class="st6" d="M114.6,91c-0.3,0.2-0.8,0.3-1.3,0.3c-1.6,0-2.4-0.9-2.4-2.6v-5.3h-1.5v-1.2h1.5v-2.2l1.4-0.5v2.7h2.3v1.2h-2.3
		v5.1c0,0.6,0.1,1,0.3,1.3s0.5,0.4,1,0.4c0.4,0,0.7-0.1,0.9-0.3V91z"/>
	<path class="st6" d="M123.8,87h-6.4c0,1,0.3,1.8,0.8,2.3s1.2,0.8,2.1,0.8c1,0,1.9-0.3,2.8-1v1.4c-0.8,0.6-1.8,0.9-3.1,0.9
		c-1.3,0-2.3-0.4-3-1.2c-0.7-0.8-1.1-2-1.1-3.4c0-1.4,0.4-2.5,1.2-3.4c0.8-0.9,1.8-1.3,3-1.3s2.1,0.4,2.7,1.1s1,1.8,1,3.2V87z
		 M122.3,85.7c0-0.8-0.2-1.5-0.6-1.9s-0.9-0.7-1.6-0.7c-0.7,0-1.3,0.2-1.7,0.7s-0.8,1.1-0.9,1.9H122.3z"/>
	<path class="st6" d="M130.7,83.6c-0.3-0.2-0.6-0.3-1.1-0.3c-0.6,0-1.1,0.3-1.5,0.9s-0.6,1.4-0.6,2.4v4.6H126v-9h1.4V84h0
		c0.2-0.6,0.5-1.1,0.9-1.5c0.4-0.4,0.9-0.5,1.4-0.5c0.4,0,0.7,0,0.9,0.1V83.6z"/>
	<path class="st6" d="M133,79.8c-0.3,0-0.5-0.1-0.7-0.3s-0.3-0.4-0.3-0.7s0.1-0.5,0.3-0.7s0.4-0.3,0.7-0.3c0.3,0,0.5,0.1,0.7,0.3
		s0.3,0.4,0.3,0.7c0,0.3-0.1,0.5-0.3,0.7S133.2,79.8,133,79.8z M133.7,91.1h-1.4v-9h1.4V91.1z"/>
	<path class="st6" d="M143,91.1h-1.4v-1.4h0c-0.6,1.1-1.5,1.6-2.8,1.6c-0.9,0-1.6-0.2-2.1-0.7s-0.8-1.1-0.8-1.9c0-1.7,1-2.7,3-2.9
		l2.7-0.4c0-1.5-0.6-2.3-1.9-2.3c-1.1,0-2.1,0.4-2.9,1.1v-1.5c0.9-0.6,1.9-0.8,3.1-0.8c2.1,0,3.2,1.1,3.2,3.4V91.1z M141.6,86.5
		l-2.2,0.3c-0.7,0.1-1.2,0.3-1.5,0.5c-0.3,0.2-0.5,0.7-0.5,1.3c0,0.4,0.2,0.8,0.5,1.1c0.3,0.3,0.7,0.4,1.3,0.4
		c0.7,0,1.3-0.2,1.8-0.8c0.5-0.5,0.7-1.1,0.7-1.9V86.5z"/>
	<path class="st6" d="M147.2,91.1h-1.4V77.8h1.4V91.1z"/>
	<path class="st6" d="M162.7,90.4c0,3.3-1.6,5-4.7,5c-1.1,0-2.1-0.2-2.9-0.6v-1.4c1,0.6,2,0.8,2.9,0.8c2.2,0,3.3-1.2,3.3-3.5v-1h0
		c-0.7,1.1-1.7,1.7-3.1,1.7c-1.1,0-2-0.4-2.7-1.2c-0.7-0.8-1-1.9-1-3.2c0-1.5,0.4-2.7,1.1-3.6s1.7-1.4,3-1.4c1.2,0,2.1,0.5,2.7,1.5
		h0v-1.2h1.4V90.4z M161.3,87v-1.3c0-0.7-0.2-1.3-0.7-1.8s-1.1-0.8-1.8-0.8c-0.9,0-1.6,0.3-2.1,1c-0.5,0.6-0.8,1.6-0.8,2.7
		c0,1,0.2,1.8,0.7,2.4s1.1,0.9,1.9,0.9c0.8,0,1.5-0.3,2-0.9S161.3,87.9,161.3,87z"/>
	<path class="st6" d="M172.9,87h-6.4c0,1,0.3,1.8,0.8,2.3s1.2,0.8,2.1,0.8c1,0,1.9-0.3,2.8-1v1.4c-0.8,0.6-1.8,0.9-3.1,0.9
		c-1.3,0-2.3-0.4-3-1.2c-0.7-0.8-1.1-2-1.1-3.4c0-1.4,0.4-2.5,1.2-3.4c0.8-0.9,1.8-1.3,3-1.3s2.1,0.4,2.7,1.1s1,1.8,1,3.2V87z
		 M171.4,85.7c0-0.8-0.2-1.5-0.6-1.9s-0.9-0.7-1.6-0.7c-0.7,0-1.3,0.2-1.7,0.7s-0.8,1.1-0.9,1.9H171.4z"/>
	<path class="st6" d="M182.5,91.1h-1.4V86c0-1.9-0.7-2.9-2.1-2.9c-0.7,0-1.3,0.3-1.8,0.8c-0.5,0.5-0.7,1.2-0.7,2.1v5.1H175v-9h1.4
		v1.5h0c0.7-1.1,1.7-1.7,3-1.7c1,0,1.7,0.3,2.3,1c0.5,0.6,0.8,1.6,0.8,2.8V91.1z"/>
	<path class="st6" d="M192.5,87h-6.4c0,1,0.3,1.8,0.8,2.3s1.2,0.8,2.1,0.8c1,0,1.9-0.3,2.8-1v1.4c-0.8,0.6-1.8,0.9-3.1,0.9
		c-1.3,0-2.3-0.4-3-1.2c-0.7-0.8-1.1-2-1.1-3.4c0-1.4,0.4-2.5,1.2-3.4c0.8-0.9,1.8-1.3,3-1.3s2.1,0.4,2.7,1.1s1,1.8,1,3.2V87z
		 M191,85.7c0-0.8-0.2-1.5-0.6-1.9s-0.9-0.7-1.6-0.7c-0.7,0-1.3,0.2-1.7,0.7s-0.8,1.1-0.9,1.9H191z M190.8,77.5l-2.3,2.9h-1.1l2-2.9
		H190.8z"/>
	<path class="st6" d="M198.8,91c-0.3,0.2-0.8,0.3-1.3,0.3c-1.6,0-2.4-0.9-2.4-2.6v-5.3h-1.5v-1.2h1.5v-2.2l1.4-0.5v2.7h2.3v1.2h-2.3
		v5.1c0,0.6,0.1,1,0.3,1.3s0.5,0.4,1,0.4c0.4,0,0.7-0.1,0.9-0.3V91z"/>
	<path class="st6" d="M201.5,79.8c-0.3,0-0.5-0.1-0.7-0.3s-0.3-0.4-0.3-0.7s0.1-0.5,0.3-0.7s0.4-0.3,0.7-0.3c0.3,0,0.5,0.1,0.7,0.3
		s0.3,0.4,0.3,0.7c0,0.3-0.1,0.5-0.3,0.7S201.7,79.8,201.5,79.8z M202.2,91.1h-1.4v-9h1.4V91.1z"/>
	<path class="st6" d="M211.2,90.7c-0.7,0.4-1.5,0.6-2.5,0.6c-1.3,0-2.3-0.4-3.1-1.3c-0.8-0.8-1.2-1.9-1.2-3.2c0-1.5,0.4-2.7,1.3-3.6
		s2-1.3,3.4-1.3c0.8,0,1.5,0.1,2.1,0.4v1.5c-0.7-0.5-1.4-0.7-2.1-0.7c-0.9,0-1.7,0.3-2.3,1c-0.6,0.7-0.9,1.5-0.9,2.6
		c0,1.1,0.3,1.9,0.8,2.5s1.3,0.9,2.2,0.9c0.8,0,1.5-0.3,2.2-0.8V90.7z"/>
	<path class="st6" d="M217.2,91.3c-1.3,0-2.4-0.4-3.2-1.3c-0.8-0.8-1.2-2-1.2-3.3c0-1.5,0.4-2.7,1.2-3.5s1.9-1.3,3.3-1.3
		c1.3,0,2.4,0.4,3.1,1.2s1.1,2,1.1,3.4c0,1.4-0.4,2.6-1.2,3.4C219.6,90.9,218.5,91.3,217.2,91.3z M217.3,83.1
		c-0.9,0-1.7,0.3-2.2,0.9s-0.8,1.5-0.8,2.6c0,1.1,0.3,1.9,0.8,2.5s1.3,0.9,2.2,0.9c0.9,0,1.6-0.3,2.1-0.9s0.8-1.5,0.8-2.6
		c0-1.1-0.3-2-0.8-2.6S218.2,83.1,217.3,83.1z"/>
</g>
<g class="st5">
	<path class="st6" d="M75.9,115.1h-1.4v-13.3h1.4V115.1z"/>
	<path class="st6" d="M79.5,103.8c-0.3,0-0.5-0.1-0.7-0.3s-0.3-0.4-0.3-0.7s0.1-0.5,0.3-0.7s0.4-0.3,0.7-0.3c0.3,0,0.5,0.1,0.7,0.3
		s0.3,0.4,0.3,0.7c0,0.3-0.1,0.5-0.3,0.7S79.8,103.8,79.5,103.8z M80.2,115.1h-1.4v-9h1.4V115.1z"/>
	<path class="st6" d="M84.6,113.8L84.6,113.8l0,1.3h-1.4v-13.3h1.4v5.9h0c0.7-1.2,1.7-1.8,3.1-1.8c1.2,0,2.1,0.4,2.7,1.2
		s1,1.9,1,3.2c0,1.5-0.4,2.7-1.1,3.6c-0.7,0.9-1.7,1.4-3,1.4C86.1,115.3,85.2,114.8,84.6,113.8z M84.6,110.2v1.3
		c0,0.7,0.2,1.4,0.7,1.9c0.5,0.5,1.1,0.8,1.8,0.8c0.9,0,1.6-0.3,2.1-1s0.7-1.6,0.7-2.8c0-1-0.2-1.8-0.7-2.4s-1.1-0.9-1.9-0.9
		c-0.8,0-1.5,0.3-2,0.9S84.6,109.3,84.6,110.2z"/>
	<path class="st6" d="M100.9,111h-6.4c0,1,0.3,1.8,0.8,2.3s1.2,0.8,2.1,0.8c1,0,1.9-0.3,2.8-1v1.4c-0.8,0.6-1.8,0.9-3.1,0.9
		c-1.3,0-2.3-0.4-3-1.2c-0.7-0.8-1.1-2-1.1-3.4c0-1.4,0.4-2.5,1.2-3.4c0.8-0.9,1.8-1.3,3-1.3s2.1,0.4,2.7,1.1s1,1.8,1,3.2V111z
		 M99.5,109.7c0-0.8-0.2-1.5-0.6-1.9s-0.9-0.7-1.6-0.7c-0.7,0-1.3,0.2-1.7,0.7s-0.8,1.1-0.9,1.9H99.5z"/>
	<path class="st6" d="M107.8,107.6c-0.3-0.2-0.6-0.3-1.1-0.3c-0.6,0-1.1,0.3-1.5,0.9s-0.6,1.4-0.6,2.4v4.6h-1.4v-9h1.4v1.9h0
		c0.2-0.6,0.5-1.1,0.9-1.5c0.4-0.4,0.9-0.5,1.4-0.5c0.4,0,0.7,0,0.9,0.1V107.6z"/>
	<path class="st6" d="M115.8,115.1h-1.4v-1.4h0c-0.6,1.1-1.5,1.6-2.8,1.6c-0.9,0-1.6-0.2-2.1-0.7s-0.8-1.1-0.8-1.9
		c0-1.7,1-2.7,3-2.9l2.7-0.4c0-1.5-0.6-2.3-1.9-2.3c-1.1,0-2.1,0.4-2.9,1.1v-1.5c0.9-0.6,1.9-0.8,3.1-0.8c2.1,0,3.2,1.1,3.2,3.4
		V115.1z M114.4,110.5l-2.2,0.3c-0.7,0.1-1.2,0.3-1.5,0.5c-0.3,0.2-0.5,0.7-0.5,1.3c0,0.4,0.2,0.8,0.5,1.1c0.3,0.3,0.7,0.4,1.3,0.4
		c0.7,0,1.3-0.2,1.8-0.8c0.5-0.5,0.7-1.1,0.7-1.9V110.5z"/>
	<path class="st6" d="M126.2,115.1h-1.4v-1.5h0c-0.7,1.2-1.7,1.7-3.1,1.7c-1.1,0-2-0.4-2.7-1.2c-0.7-0.8-1-1.9-1-3.3
		c0-1.5,0.4-2.7,1.1-3.6s1.7-1.3,3-1.3c1.2,0,2.1,0.5,2.7,1.5h0v-5.6h1.4V115.1z M124.8,111v-1.3c0-0.7-0.2-1.3-0.7-1.8
		s-1.1-0.8-1.8-0.8c-0.9,0-1.6,0.3-2.1,1s-0.8,1.5-0.8,2.7c0,1,0.2,1.9,0.7,2.5s1.1,0.9,1.9,0.9c0.8,0,1.5-0.3,2-0.9
		S124.8,111.9,124.8,111z"/>
	<path class="st6" d="M132.9,115.3c-1.3,0-2.4-0.4-3.2-1.3c-0.8-0.8-1.2-2-1.2-3.3c0-1.5,0.4-2.7,1.2-3.5s1.9-1.3,3.3-1.3
		c1.3,0,2.4,0.4,3.1,1.2s1.1,2,1.1,3.4c0,1.4-0.4,2.6-1.2,3.4C135.4,114.9,134.3,115.3,132.9,115.3z M133,107.1
		c-0.9,0-1.7,0.3-2.2,0.9s-0.8,1.5-0.8,2.6c0,1.1,0.3,1.9,0.8,2.5s1.3,0.9,2.2,0.9c0.9,0,1.6-0.3,2.1-0.9s0.8-1.5,0.8-2.6
		c0-1.1-0.3-2-0.8-2.6S133.9,107.1,133,107.1z"/>
	<path class="st6" d="M151.9,115.1h-1.4v-1.4h0c-0.6,1.1-1.5,1.6-2.8,1.6c-2.1,0-3.2-1.3-3.2-3.8v-5.4h1.4v5.2
		c0,1.9,0.7,2.8,2.2,2.8c0.7,0,1.3-0.3,1.7-0.8c0.5-0.5,0.7-1.2,0.7-2v-5.2h1.4V115.1z"/>
	<path class="st6" d="M162.3,115.1h-1.4V110c0-1.9-0.7-2.9-2.1-2.9c-0.7,0-1.3,0.3-1.8,0.8c-0.5,0.5-0.7,1.2-0.7,2.1v5.1h-1.4v-9
		h1.4v1.5h0c0.7-1.1,1.7-1.7,3-1.7c1,0,1.7,0.3,2.3,1c0.5,0.6,0.8,1.6,0.8,2.8V115.1z"/>
	<path class="st6" d="M171.4,115.1H170v-1.4h0c-0.6,1.1-1.5,1.6-2.8,1.6c-0.9,0-1.6-0.2-2.1-0.7s-0.8-1.1-0.8-1.9c0-1.7,1-2.7,3-2.9
		l2.7-0.4c0-1.5-0.6-2.3-1.9-2.3c-1.1,0-2.1,0.4-2.9,1.1v-1.5c0.9-0.6,1.9-0.8,3.1-0.8c2.1,0,3.2,1.1,3.2,3.4V115.1z M170,110.5
		l-2.2,0.3c-0.7,0.1-1.2,0.3-1.5,0.5c-0.3,0.2-0.5,0.7-0.5,1.3c0,0.4,0.2,0.8,0.5,1.1c0.3,0.3,0.7,0.4,1.3,0.4
		c0.7,0,1.3-0.2,1.8-0.8c0.5-0.5,0.7-1.1,0.7-1.9V110.5z"/>
	<path class="st6" d="M186.2,106.1l-3.6,9h-1.4l-3.4-9h1.6l2.3,6.5c0.2,0.5,0.3,0.9,0.3,1.3h0c0.1-0.5,0.2-0.9,0.3-1.2l2.4-6.6
		H186.2z"/>
	<path class="st6" d="M194.9,111h-6.4c0,1,0.3,1.8,0.8,2.3s1.2,0.8,2.1,0.8c1,0,1.9-0.3,2.8-1v1.4c-0.8,0.6-1.8,0.9-3.1,0.9
		c-1.3,0-2.3-0.4-3-1.2c-0.7-0.8-1.1-2-1.1-3.4c0-1.4,0.4-2.5,1.2-3.4c0.8-0.9,1.8-1.3,3-1.3s2.1,0.4,2.7,1.1s1,1.8,1,3.2V111z
		 M193.5,109.7c0-0.8-0.2-1.5-0.6-1.9s-0.9-0.7-1.6-0.7c-0.7,0-1.3,0.2-1.7,0.7s-0.8,1.1-0.9,1.9H193.5z"/>
	<path class="st6" d="M203.4,106.5l-5.3,7.4h5.3v1.2h-7.4v-0.4l5.3-7.3h-4.8v-1.2h6.9V106.5z"/>
	<path class="st6" d="M217.4,111h-6.4c0,1,0.3,1.8,0.8,2.3s1.2,0.8,2.1,0.8c1,0,1.9-0.3,2.8-1v1.4c-0.8,0.6-1.8,0.9-3.1,0.9
		c-1.3,0-2.3-0.4-3-1.2c-0.7-0.8-1.1-2-1.1-3.4c0-1.4,0.4-2.5,1.2-3.4c0.8-0.9,1.8-1.3,3-1.3s2.1,0.4,2.7,1.1s1,1.8,1,3.2V111z
		 M215.9,109.7c0-0.8-0.2-1.5-0.6-1.9s-0.9-0.7-1.6-0.7c-0.7,0-1.3,0.2-1.7,0.7s-0.8,1.1-0.9,1.9H215.9z"/>
	<path class="st6" d="M221,115.1h-1.4v-13.3h1.4V115.1z"/>
</g>
<g class="st5">
	<path class="st6" d="M104.9,130.1l-3.6,9h-1.4l-3.4-9h1.6l2.3,6.5c0.2,0.5,0.3,0.9,0.3,1.3h0c0.1-0.5,0.2-0.9,0.3-1.2l2.4-6.6
		H104.9z"/>
	<path class="st6" d="M107.2,127.8c-0.3,0-0.5-0.1-0.7-0.3s-0.3-0.4-0.3-0.7s0.1-0.5,0.3-0.7s0.4-0.3,0.7-0.3c0.3,0,0.5,0.1,0.7,0.3
		s0.3,0.4,0.3,0.7c0,0.3-0.1,0.5-0.3,0.7S107.5,127.8,107.2,127.8z M107.9,139.1h-1.4v-9h1.4V139.1z"/>
	<path class="st6" d="M115.5,131.6c-0.3-0.2-0.6-0.3-1.1-0.3c-0.6,0-1.1,0.3-1.5,0.9s-0.6,1.4-0.6,2.4v4.6h-1.4v-9h1.4v1.9h0
		c0.2-0.6,0.5-1.1,0.9-1.5c0.4-0.4,0.9-0.5,1.4-0.5c0.4,0,0.7,0,0.9,0.1V131.6z"/>
	<path class="st6" d="M124.4,139.1h-1.4v-1.4h0c-0.6,1.1-1.5,1.6-2.8,1.6c-2.1,0-3.2-1.3-3.2-3.8v-5.4h1.4v5.2
		c0,1.9,0.7,2.8,2.2,2.8c0.7,0,1.3-0.3,1.7-0.8c0.5-0.5,0.7-1.2,0.7-2v-5.2h1.4V139.1z"/>
	<path class="st6" d="M126.7,138.8v-1.5c0.8,0.6,1.6,0.9,2.6,0.9c1.3,0,1.9-0.4,1.9-1.3c0-0.2-0.1-0.4-0.2-0.6
		c-0.1-0.2-0.3-0.3-0.4-0.4s-0.4-0.2-0.7-0.3c-0.2-0.1-0.5-0.2-0.8-0.3c-0.4-0.2-0.7-0.3-1.1-0.5s-0.6-0.3-0.8-0.5
		c-0.2-0.2-0.4-0.4-0.5-0.7s-0.2-0.6-0.2-0.9c0-0.4,0.1-0.8,0.3-1.1c0.2-0.3,0.5-0.6,0.8-0.8c0.3-0.2,0.7-0.4,1.1-0.5
		s0.8-0.2,1.3-0.2c0.8,0,1.5,0.1,2.1,0.4v1.5c-0.7-0.4-1.4-0.7-2.3-0.7c-0.3,0-0.5,0-0.7,0.1c-0.2,0.1-0.4,0.1-0.6,0.3
		s-0.3,0.2-0.4,0.4s-0.1,0.3-0.1,0.5c0,0.2,0,0.4,0.1,0.6s0.2,0.3,0.4,0.4s0.4,0.2,0.6,0.3s0.5,0.2,0.8,0.3c0.4,0.2,0.8,0.3,1.1,0.5
		s0.6,0.3,0.8,0.5c0.2,0.2,0.4,0.4,0.5,0.7s0.2,0.6,0.2,0.9c0,0.4-0.1,0.8-0.3,1.2s-0.5,0.6-0.8,0.8s-0.7,0.4-1.1,0.5
		s-0.9,0.2-1.3,0.2C128.2,139.3,127.4,139.1,126.7,138.8z"/>
	<path class="st6" d="M147.1,135h-6.4c0,1,0.3,1.8,0.8,2.3s1.2,0.8,2.1,0.8c1,0,1.9-0.3,2.8-1v1.4c-0.8,0.6-1.8,0.9-3.1,0.9
		c-1.3,0-2.3-0.4-3-1.2c-0.7-0.8-1.1-2-1.1-3.4c0-1.4,0.4-2.5,1.2-3.4c0.8-0.9,1.8-1.3,3-1.3s2.1,0.4,2.7,1.1s1,1.8,1,3.2V135z
		 M145.6,133.7c0-0.8-0.2-1.5-0.6-1.9s-0.9-0.7-1.6-0.7c-0.7,0-1.3,0.2-1.7,0.7s-0.8,1.1-0.9,1.9H145.6z"/>
	<path class="st6" d="M156.7,139.1h-1.4V134c0-1.9-0.7-2.9-2.1-2.9c-0.7,0-1.3,0.3-1.8,0.8c-0.5,0.5-0.7,1.2-0.7,2.1v5.1h-1.4v-9
		h1.4v1.5h0c0.7-1.1,1.7-1.7,3-1.7c1,0,1.7,0.3,2.3,1c0.5,0.6,0.8,1.6,0.8,2.8V139.1z"/>
	<path class="st6" d="M163.6,139c-0.3,0.2-0.8,0.3-1.3,0.3c-1.6,0-2.4-0.9-2.4-2.6v-5.3h-1.5v-1.2h1.5v-2.2l1.4-0.5v2.7h2.3v1.2
		h-2.3v5.1c0,0.6,0.1,1,0.3,1.3s0.5,0.4,1,0.4c0.4,0,0.7-0.1,0.9-0.3V139z"/>
	<path class="st6" d="M170.3,131.6c-0.3-0.2-0.6-0.3-1.1-0.3c-0.6,0-1.1,0.3-1.5,0.9s-0.6,1.4-0.6,2.4v4.6h-1.4v-9h1.4v1.9h0
		c0.2-0.6,0.5-1.1,0.9-1.5c0.4-0.4,0.9-0.5,1.4-0.5c0.4,0,0.7,0,0.9,0.1V131.6z"/>
	<path class="st6" d="M178.3,139.1h-1.4v-1.4h0c-0.6,1.1-1.5,1.6-2.8,1.6c-0.9,0-1.6-0.2-2.1-0.7s-0.8-1.1-0.8-1.9
		c0-1.7,1-2.7,3-2.9l2.7-0.4c0-1.5-0.6-2.3-1.9-2.3c-1.1,0-2.1,0.4-2.9,1.1v-1.5c0.9-0.6,1.9-0.8,3.1-0.8c2.1,0,3.2,1.1,3.2,3.4
		V139.1z M176.8,134.5l-2.2,0.3c-0.7,0.1-1.2,0.3-1.5,0.5c-0.3,0.2-0.5,0.7-0.5,1.3c0,0.4,0.2,0.8,0.5,1.1c0.3,0.3,0.7,0.4,1.3,0.4
		c0.7,0,1.3-0.2,1.8-0.8c0.5-0.5,0.7-1.1,0.7-1.9V134.5z"/>
	<path class="st6" d="M193.1,135h-6.4c0,1,0.3,1.8,0.8,2.3s1.2,0.8,2.1,0.8c1,0,1.9-0.3,2.8-1v1.4c-0.8,0.6-1.8,0.9-3.1,0.9
		c-1.3,0-2.3-0.4-3-1.2c-0.7-0.8-1.1-2-1.1-3.4c0-1.4,0.4-2.5,1.2-3.4c0.8-0.9,1.8-1.3,3-1.3s2.1,0.4,2.7,1.1s1,1.8,1,3.2V135z
		 M191.7,133.7c0-0.8-0.2-1.5-0.6-1.9s-0.9-0.7-1.6-0.7c-0.7,0-1.3,0.2-1.7,0.7s-0.8,1.1-0.9,1.9H191.7z"/>
	<path class="st6" d="M202.8,139.1h-1.4V134c0-1.9-0.7-2.9-2.1-2.9c-0.7,0-1.3,0.3-1.8,0.8c-0.5,0.5-0.7,1.2-0.7,2.1v5.1h-1.4v-9
		h1.4v1.5h0c0.7-1.1,1.7-1.7,3-1.7c1,0,1.7,0.3,2.3,1c0.5,0.6,0.8,1.6,0.8,2.8V139.1z"/>
	<path class="st6" d="M211.9,139.1h-1.4v-13.3h1.4V139.1z"/>
	<path class="st6" d="M221.2,139.1h-1.4v-1.4h0c-0.6,1.1-1.5,1.6-2.8,1.6c-0.9,0-1.6-0.2-2.1-0.7s-0.8-1.1-0.8-1.9
		c0-1.7,1-2.7,3-2.9l2.7-0.4c0-1.5-0.6-2.3-1.9-2.3c-1.1,0-2.1,0.4-2.9,1.1v-1.5c0.9-0.6,1.9-0.8,3.1-0.8c2.1,0,3.2,1.1,3.2,3.4
		V139.1z M219.8,134.5l-2.2,0.3c-0.7,0.1-1.2,0.3-1.5,0.5c-0.3,0.2-0.5,0.7-0.5,1.3c0,0.4,0.2,0.8,0.5,1.1c0.3,0.3,0.7,0.4,1.3,0.4
		c0.7,0,1.3-0.2,1.8-0.8c0.5-0.5,0.7-1.1,0.7-1.9V134.5z"/>
</g>
<g class="st5">
	<path class="st6" d="M180.4,162.7c-0.7,0.4-1.5,0.6-2.5,0.6c-1.3,0-2.3-0.4-3.1-1.3c-0.8-0.8-1.2-1.9-1.2-3.2
		c0-1.5,0.4-2.7,1.3-3.6s2-1.3,3.4-1.3c0.8,0,1.5,0.1,2.1,0.4v1.5c-0.7-0.5-1.4-0.7-2.1-0.7c-0.9,0-1.7,0.3-2.3,1
		c-0.6,0.7-0.9,1.5-0.9,2.6c0,1.1,0.3,1.9,0.8,2.5s1.3,0.9,2.2,0.9c0.8,0,1.5-0.3,2.2-0.8V162.7z"/>
	<path class="st6" d="M189.8,159h-6.4c0,1,0.3,1.8,0.8,2.3s1.2,0.8,2.1,0.8c1,0,1.9-0.3,2.8-1v1.4c-0.8,0.6-1.8,0.9-3.1,0.9
		c-1.3,0-2.3-0.4-3-1.2c-0.7-0.8-1.1-2-1.1-3.4c0-1.4,0.4-2.5,1.2-3.4c0.8-0.9,1.8-1.3,3-1.3s2.1,0.4,2.7,1.1s1,1.8,1,3.2V159z
		 M188.3,157.7c0-0.8-0.2-1.5-0.6-1.9s-0.9-0.7-1.6-0.7c-0.7,0-1.3,0.2-1.7,0.7s-0.8,1.1-0.9,1.9H188.3z M188.1,149.5l-2.3,2.9h-1.1
		l2-2.9H188.1z"/>
	<path class="st6" d="M193.4,163.1H192v-13.3h1.4V163.1z"/>
	<path class="st6" d="M203.6,163.1h-1.4v-1.4h0c-0.6,1.1-1.5,1.6-2.8,1.6c-2.1,0-3.2-1.3-3.2-3.8v-5.4h1.4v5.2
		c0,1.9,0.7,2.8,2.2,2.8c0.7,0,1.3-0.3,1.7-0.8c0.5-0.5,0.7-1.2,0.7-2v-5.2h1.4V163.1z"/>
	<path class="st6" d="M208,163.1h-1.4v-13.3h1.4V163.1z"/>
	<path class="st6" d="M217.3,163.1h-1.4v-1.4h0c-0.6,1.1-1.5,1.6-2.8,1.6c-0.9,0-1.6-0.2-2.1-0.7s-0.8-1.1-0.8-1.9
		c0-1.7,1-2.7,3-2.9l2.7-0.4c0-1.5-0.6-2.3-1.9-2.3c-1.1,0-2.1,0.4-2.9,1.1v-1.5c0.9-0.6,1.9-0.8,3.1-0.8c2.1,0,3.2,1.1,3.2,3.4
		V163.1z M215.9,158.5l-2.2,0.3c-0.7,0.1-1.2,0.3-1.5,0.5c-0.3,0.2-0.5,0.7-0.5,1.3c0,0.4,0.2,0.8,0.5,1.1c0.3,0.3,0.7,0.4,1.3,0.4
		c0.7,0,1.3-0.2,1.8-0.8c0.5-0.5,0.7-1.1,0.7-1.9V158.5z"/>
	<path class="st6" d="M220.6,163.3c-0.3,0-0.5-0.1-0.7-0.3s-0.3-0.4-0.3-0.7s0.1-0.5,0.3-0.7c0.2-0.2,0.4-0.3,0.7-0.3
		c0.3,0,0.5,0.1,0.7,0.3c0.2,0.2,0.3,0.4,0.3,0.7s-0.1,0.5-0.3,0.7S220.8,163.3,220.6,163.3z"/>
</g>
<g class="st5">
	<path class="st7" d="M159.5,62.1h-3.1l-0.9-2.8h-4.5l-0.9,2.8h-3.1l4.6-12.6h3.4L159.5,62.1z M154.9,57.1l-1.4-4.2
		c-0.1-0.3-0.2-0.7-0.2-1.1h-0.1c0,0.4-0.1,0.7-0.2,1.1l-1.4,4.3H154.9z"/>
	<path class="st7" d="M171.7,62.1h-3.3l-2-3.2c-0.1-0.2-0.3-0.5-0.4-0.7s-0.3-0.4-0.4-0.5s-0.3-0.2-0.4-0.3s-0.3-0.1-0.5-0.1h-0.8
		v4.8h-2.8V49.5h4.5c3.1,0,4.6,1.1,4.6,3.4c0,0.4-0.1,0.8-0.2,1.2c-0.1,0.4-0.3,0.7-0.6,1s-0.5,0.6-0.9,0.8s-0.7,0.4-1.2,0.5v0
		c0.2,0.1,0.4,0.2,0.5,0.3c0.2,0.1,0.3,0.3,0.5,0.5s0.3,0.4,0.5,0.6c0.1,0.2,0.3,0.4,0.4,0.6L171.7,62.1z M163.9,51.6v3.5h1.2
		c0.6,0,1.1-0.2,1.5-0.5c0.4-0.4,0.6-0.8,0.6-1.3c0-1.1-0.7-1.7-2-1.7H163.9z"/>
	<path class="st7" d="M184.2,62.1h-2.9l-5.2-7.9c-0.3-0.5-0.5-0.8-0.6-1h0c0,0.4,0.1,1.1,0.1,2v6.9h-2.7V49.5h3.1l5,7.7
		c0.2,0.3,0.4,0.7,0.6,1h0c0-0.3-0.1-0.9-0.1-1.7v-7h2.7V62.1z"/>
	<path class="st7" d="M200.3,53.1l-3.3,9h-3.2l-3.2-9h3l1.6,5.5c0.2,0.6,0.3,1.2,0.3,1.6h0c0-0.4,0.1-0.9,0.3-1.5l1.6-5.6H200.3z"/>
	<path class="st7" d="M202.9,51.7c-0.5,0-0.9-0.1-1.2-0.4c-0.3-0.3-0.4-0.6-0.4-1c0-0.4,0.1-0.8,0.4-1s0.7-0.4,1.2-0.4
		c0.5,0,0.9,0.1,1.2,0.4s0.4,0.6,0.4,1c0,0.4-0.1,0.8-0.4,1S203.4,51.7,202.9,51.7z M204.3,62.1h-2.8v-9h2.8V62.1z"/>
	<path class="st7" d="M212.5,55.6c-0.3-0.2-0.7-0.3-1.2-0.3c-0.6,0-1.1,0.2-1.4,0.7s-0.5,1-0.5,1.8v4.3h-2.8v-9h2.8v1.7h0
		c0.4-1.2,1.2-1.8,2.4-1.8c0.3,0,0.5,0,0.7,0.1V55.6z"/>
	<path class="st7" d="M221.3,62.1h-2.6v-1.3h0c-0.6,1-1.5,1.5-2.7,1.5c-0.9,0-1.6-0.2-2.1-0.7c-0.5-0.5-0.8-1.2-0.8-2
		c0-1.7,1-2.8,3.1-3l2.4-0.3c0-1-0.5-1.5-1.6-1.5c-1.1,0-2.1,0.3-3.1,1v-2.1c0.4-0.2,0.9-0.4,1.6-0.5s1.3-0.2,1.8-0.2
		c2.6,0,3.8,1.3,3.8,3.8V62.1z M218.7,58.4v-0.6L217,58c-0.9,0.1-1.4,0.5-1.4,1.2c0,0.3,0.1,0.6,0.3,0.8c0.2,0.2,0.5,0.3,0.9,0.3
		c0.5,0,0.9-0.2,1.3-0.5C218.5,59.4,218.7,59,218.7,58.4z"/>
	<path class="st7" d="M226.3,62.1h-2.8V48.8h2.8V62.1z"/>
</g>
<g id="Grupo_14164" transform="translate(66 66.1)">
	<g class="st5">
		<path class="st6" d="M564.2,25h-6.5V12.4h1.5v11.3h5.1V25z"/>
		<path class="st6" d="M572.4,25h-1.4v-1.4h0c-0.6,1.1-1.5,1.6-2.8,1.6c-0.9,0-1.6-0.2-2.1-0.7c-0.5-0.5-0.8-1.1-0.8-1.9
			c0-1.7,1-2.7,3-2.9l2.7-0.4c0-1.5-0.6-2.3-1.9-2.3c-1.1,0-2.1,0.4-2.9,1.1v-1.5c0.9-0.6,1.9-0.8,3.1-0.8c2.1,0,3.2,1.1,3.2,3.4V25
			z M570.9,20.4l-2.2,0.3c-0.7,0.1-1.2,0.3-1.5,0.5c-0.3,0.2-0.5,0.7-0.5,1.3c0,0.4,0.2,0.8,0.5,1.1c0.3,0.3,0.7,0.4,1.3,0.4
			c0.7,0,1.3-0.2,1.8-0.8c0.5-0.5,0.7-1.1,0.7-1.9V20.4z"/>
		<path class="st6" d="M581.5,23.7L581.5,23.7l0,5.4H580V16h1.4v1.6h0c0.7-1.2,1.7-1.8,3.1-1.8c1.2,0,2.1,0.4,2.7,1.2s1,1.9,1,3.2
			c0,1.5-0.4,2.7-1.1,3.6c-0.7,0.9-1.7,1.4-3,1.4C583,25.2,582.1,24.7,581.5,23.7z M581.5,20.1v1.3c0,0.7,0.2,1.4,0.7,1.9
			c0.5,0.5,1.1,0.8,1.8,0.8c0.9,0,1.6-0.3,2.1-1c0.5-0.7,0.7-1.6,0.7-2.8c0-1-0.2-1.8-0.7-2.4S585,17,584.2,17c-0.8,0-1.5,0.3-2,0.9
			S581.5,19.2,581.5,20.1z"/>
		<path class="st6" d="M597,25h-1.4v-1.4h0c-0.6,1.1-1.5,1.6-2.8,1.6c-0.9,0-1.6-0.2-2.1-0.7c-0.5-0.5-0.8-1.1-0.8-1.9
			c0-1.7,1-2.7,3-2.9l2.7-0.4c0-1.5-0.6-2.3-1.9-2.3c-1.1,0-2.1,0.4-2.9,1.1v-1.5c0.9-0.6,1.9-0.8,3.1-0.8c2.1,0,3.2,1.1,3.2,3.4V25
			z M595.6,20.4l-2.2,0.3c-0.7,0.1-1.2,0.3-1.5,0.5c-0.3,0.2-0.5,0.7-0.5,1.3c0,0.4,0.2,0.8,0.5,1.1c0.3,0.3,0.7,0.4,1.3,0.4
			c0.7,0,1.3-0.2,1.8-0.8c0.5-0.5,0.7-1.1,0.7-1.9V20.4z"/>
		<path class="st6" d="M604.5,17.5c-0.3-0.2-0.6-0.3-1.1-0.3c-0.6,0-1.1,0.3-1.5,0.9c-0.4,0.6-0.6,1.4-0.6,2.4V25h-1.4v-9h1.4v1.9h0
			c0.2-0.6,0.5-1.1,0.9-1.5c0.4-0.4,0.9-0.5,1.4-0.5c0.4,0,0.7,0,0.9,0.1V17.5z"/>
		<path class="st6" d="M610.2,24.9c-0.3,0.2-0.8,0.3-1.3,0.3c-1.6,0-2.4-0.9-2.4-2.6v-5.3h-1.5V16h1.5v-2.2l1.4-0.5V16h2.3v1.2h-2.3
			v5.1c0,0.6,0.1,1,0.3,1.3s0.5,0.4,1,0.4c0.4,0,0.7-0.1,0.9-0.3V24.9z"/>
		<path class="st6" d="M619.4,20.9H613c0,1,0.3,1.8,0.8,2.3s1.2,0.8,2.1,0.8c1,0,1.9-0.3,2.8-1v1.4c-0.8,0.6-1.8,0.9-3.1,0.9
			c-1.3,0-2.3-0.4-3-1.2c-0.7-0.8-1.1-2-1.1-3.4c0-1.4,0.4-2.5,1.2-3.4c0.8-0.9,1.8-1.3,3-1.3s2.1,0.4,2.7,1.1s1,1.8,1,3.2V20.9z
			 M617.9,19.6c0-0.8-0.2-1.5-0.6-1.9c-0.4-0.5-0.9-0.7-1.6-0.7c-0.7,0-1.3,0.2-1.7,0.7s-0.8,1.1-0.9,1.9H617.9z"/>
		<path class="st6" d="M634.1,25h-1.4v-1.5h0c-0.7,1.2-1.7,1.7-3.1,1.7c-1.1,0-2-0.4-2.7-1.2c-0.7-0.8-1-1.9-1-3.3
			c0-1.5,0.4-2.7,1.1-3.6s1.7-1.3,3-1.3c1.2,0,2.1,0.5,2.7,1.5h0v-5.6h1.4V25z M632.7,20.9v-1.3c0-0.7-0.2-1.3-0.7-1.8
			s-1.1-0.8-1.8-0.8c-0.9,0-1.6,0.3-2.1,1s-0.8,1.5-0.8,2.7c0,1,0.2,1.9,0.7,2.5c0.5,0.6,1.1,0.9,1.9,0.9c0.8,0,1.5-0.3,2-0.9
			C632.5,22.5,632.7,21.8,632.7,20.9z"/>
		<path class="st6" d="M644.3,20.9h-6.4c0,1,0.3,1.8,0.8,2.3s1.2,0.8,2.1,0.8c1,0,1.9-0.3,2.8-1v1.4c-0.8,0.6-1.8,0.9-3.1,0.9
			c-1.3,0-2.3-0.4-3-1.2c-0.7-0.8-1.1-2-1.1-3.4c0-1.4,0.4-2.5,1.2-3.4c0.8-0.9,1.8-1.3,3-1.3s2.1,0.4,2.7,1.1s1,1.8,1,3.2V20.9z
			 M642.8,19.6c0-0.8-0.2-1.5-0.6-1.9c-0.4-0.5-0.9-0.7-1.6-0.7c-0.7,0-1.3,0.2-1.7,0.7s-0.8,1.1-0.9,1.9H642.8z"/>
		<path class="st6" d="M647.9,25h-1.4V11.7h1.4V25z"/>
		<path class="st6" d="M662.8,16l-3.6,9h-1.4l-3.4-9h1.6l2.3,6.5c0.2,0.5,0.3,0.9,0.3,1.3h0c0.1-0.5,0.2-0.9,0.3-1.2l2.4-6.6H662.8z
			"/>
		<path class="st6" d="M665.1,13.7c-0.3,0-0.5-0.1-0.7-0.3s-0.3-0.4-0.3-0.7s0.1-0.5,0.3-0.7s0.4-0.3,0.7-0.3c0.3,0,0.5,0.1,0.7,0.3
			c0.2,0.2,0.3,0.4,0.3,0.7c0,0.3-0.1,0.5-0.3,0.7C665.6,13.6,665.4,13.7,665.1,13.7z M665.8,25h-1.4v-9h1.4V25z"/>
		<path class="st6" d="M673.4,17.5c-0.3-0.2-0.6-0.3-1.1-0.3c-0.6,0-1.1,0.3-1.5,0.9c-0.4,0.6-0.6,1.4-0.6,2.4V25h-1.4v-9h1.4v1.9h0
			c0.2-0.6,0.5-1.1,0.9-1.5c0.4-0.4,0.9-0.5,1.4-0.5c0.4,0,0.7,0,0.9,0.1V17.5z"/>
		<path class="st6" d="M682.3,25h-1.4v-1.4h0c-0.6,1.1-1.5,1.6-2.8,1.6c-2.1,0-3.2-1.3-3.2-3.8V16h1.4v5.2c0,1.9,0.7,2.8,2.2,2.8
			c0.7,0,1.3-0.3,1.7-0.8c0.5-0.5,0.7-1.2,0.7-2V16h1.4V25z"/>
		<path class="st6" d="M684.6,24.7v-1.5c0.8,0.6,1.6,0.9,2.6,0.9c1.3,0,1.9-0.4,1.9-1.3c0-0.2-0.1-0.4-0.2-0.6
			c-0.1-0.2-0.3-0.3-0.4-0.4c-0.2-0.1-0.4-0.2-0.7-0.3c-0.2-0.1-0.5-0.2-0.8-0.3c-0.4-0.2-0.7-0.3-1.1-0.5c-0.3-0.2-0.6-0.3-0.8-0.5
			c-0.2-0.2-0.4-0.4-0.5-0.7c-0.1-0.3-0.2-0.6-0.2-0.9c0-0.4,0.1-0.8,0.3-1.1c0.2-0.3,0.5-0.6,0.8-0.8c0.3-0.2,0.7-0.4,1.1-0.5
			c0.4-0.1,0.8-0.2,1.3-0.2c0.8,0,1.5,0.1,2.1,0.4v1.5c-0.7-0.4-1.4-0.7-2.3-0.7c-0.3,0-0.5,0-0.7,0.1c-0.2,0.1-0.4,0.1-0.6,0.3
			c-0.2,0.1-0.3,0.2-0.4,0.4c-0.1,0.2-0.1,0.3-0.1,0.5c0,0.2,0,0.4,0.1,0.6c0.1,0.2,0.2,0.3,0.4,0.4s0.4,0.2,0.6,0.3
			s0.5,0.2,0.8,0.3c0.4,0.2,0.8,0.3,1.1,0.5s0.6,0.3,0.8,0.5c0.2,0.2,0.4,0.4,0.5,0.7c0.1,0.3,0.2,0.6,0.2,0.9
			c0,0.4-0.1,0.8-0.3,1.2c-0.2,0.3-0.5,0.6-0.8,0.8s-0.7,0.4-1.1,0.5s-0.9,0.2-1.3,0.2C686.1,25.2,685.3,25,684.6,24.7z"/>
		<path class="st6" d="M705.4,29.1H704v-5.7h0c-0.6,1.2-1.7,1.8-3.1,1.8c-1.1,0-2-0.4-2.7-1.2c-0.7-0.8-1-1.9-1-3.3
			c0-1.5,0.4-2.7,1.1-3.6c0.8-0.9,1.8-1.3,3-1.3c1.2,0,2.1,0.5,2.7,1.5h0V16h1.4V29.1z M704,20.9v-1.3c0-0.7-0.2-1.4-0.7-1.9
			c-0.5-0.5-1.1-0.8-1.8-0.8c-0.9,0-1.6,0.3-2.1,1c-0.5,0.6-0.8,1.5-0.8,2.7c0,1,0.2,1.8,0.7,2.4c0.5,0.6,1.1,0.9,1.9,0.9
			c0.8,0,1.5-0.3,2-0.9C703.7,22.6,704,21.8,704,20.9z"/>
		<path class="st6" d="M715.6,25h-1.4v-1.4h0c-0.6,1.1-1.5,1.6-2.8,1.6c-2.1,0-3.2-1.3-3.2-3.8V16h1.4v5.2c0,1.9,0.7,2.8,2.2,2.8
			c0.7,0,1.3-0.3,1.7-0.8c0.5-0.5,0.7-1.2,0.7-2V16h1.4V25z"/>
		<path class="st6" d="M725.8,20.9h-6.4c0,1,0.3,1.8,0.8,2.3s1.2,0.8,2.1,0.8c1,0,1.9-0.3,2.8-1v1.4c-0.8,0.6-1.8,0.9-3.1,0.9
			c-1.3,0-2.3-0.4-3-1.2c-0.7-0.8-1.1-2-1.1-3.4c0-1.4,0.4-2.5,1.2-3.4c0.8-0.9,1.8-1.3,3-1.3s2.1,0.4,2.7,1.1s1,1.8,1,3.2V20.9z
			 M724.3,19.6c0-0.8-0.2-1.5-0.6-1.9c-0.4-0.5-0.9-0.7-1.6-0.7c-0.7,0-1.3,0.2-1.7,0.7s-0.8,1.1-0.9,1.9H724.3z"/>
	</g>
	<g class="st5">
		<path class="st6" d="M556.9,48.7v-1.5c0.8,0.6,1.6,0.9,2.6,0.9c1.3,0,1.9-0.4,1.9-1.3c0-0.2-0.1-0.4-0.2-0.6
			c-0.1-0.2-0.3-0.3-0.4-0.4c-0.2-0.1-0.4-0.2-0.7-0.3c-0.2-0.1-0.5-0.2-0.8-0.3c-0.4-0.2-0.7-0.3-1-0.5c-0.3-0.2-0.6-0.3-0.8-0.5
			c-0.2-0.2-0.4-0.4-0.5-0.7c-0.1-0.3-0.2-0.6-0.2-0.9c0-0.4,0.1-0.8,0.3-1.1c0.2-0.3,0.5-0.6,0.8-0.8c0.3-0.2,0.7-0.4,1.1-0.5
			c0.4-0.1,0.8-0.2,1.3-0.2c0.8,0,1.5,0.1,2.1,0.4v1.5c-0.7-0.4-1.4-0.7-2.3-0.7c-0.3,0-0.5,0-0.7,0.1c-0.2,0.1-0.4,0.1-0.6,0.3
			c-0.2,0.1-0.3,0.2-0.4,0.4c-0.1,0.2-0.1,0.3-0.1,0.5c0,0.2,0,0.4,0.1,0.6c0.1,0.2,0.2,0.3,0.4,0.4s0.4,0.2,0.6,0.3
			s0.5,0.2,0.8,0.3c0.4,0.2,0.8,0.3,1.1,0.5s0.6,0.3,0.8,0.5c0.2,0.2,0.4,0.4,0.5,0.7c0.1,0.3,0.2,0.6,0.2,0.9
			c0,0.4-0.1,0.8-0.3,1.2c-0.2,0.3-0.5,0.6-0.8,0.8s-0.7,0.4-1.1,0.5s-0.9,0.2-1.3,0.2C558.4,49.2,557.6,49,556.9,48.7z"/>
		<path class="st6" d="M565.8,37.7c-0.3,0-0.5-0.1-0.7-0.3s-0.3-0.4-0.3-0.7s0.1-0.5,0.3-0.7s0.4-0.3,0.7-0.3c0.3,0,0.5,0.1,0.7,0.3
			c0.2,0.2,0.3,0.4,0.3,0.7c0,0.3-0.1,0.5-0.3,0.7C566.3,37.6,566.1,37.7,565.8,37.7z M566.5,49h-1.4v-9h1.4V49z"/>
		<path class="st6" d="M574.1,41.5c-0.3-0.2-0.6-0.3-1.1-0.3c-0.6,0-1.1,0.3-1.5,0.9c-0.4,0.6-0.6,1.4-0.6,2.4V49h-1.4v-9h1.4v1.9h0
			c0.2-0.6,0.5-1.1,0.9-1.5c0.4-0.4,0.9-0.5,1.4-0.5c0.4,0,0.7,0,0.9,0.1V41.5z"/>
		<path class="st6" d="M582.8,40l-3.6,9h-1.4l-3.4-9h1.6l2.3,6.5c0.2,0.5,0.3,0.9,0.3,1.3h0c0.1-0.5,0.2-0.9,0.3-1.2l2.4-6.6H582.8z
			"/>
		<path class="st6" d="M591.6,44.9h-6.4c0,1,0.3,1.8,0.8,2.3s1.2,0.8,2.1,0.8c1,0,1.9-0.3,2.8-1v1.4c-0.8,0.6-1.8,0.9-3.1,0.9
			c-1.3,0-2.3-0.4-3-1.2c-0.7-0.8-1.1-2-1.1-3.4c0-1.4,0.4-2.5,1.2-3.4c0.8-0.9,1.8-1.3,3-1.3s2.1,0.4,2.7,1.1s1,1.8,1,3.2V44.9z
			 M590.1,43.6c0-0.8-0.2-1.5-0.6-1.9c-0.4-0.5-0.9-0.7-1.6-0.7c-0.7,0-1.3,0.2-1.7,0.7s-0.8,1.1-0.9,1.9H590.1z"/>
		<path class="st6" d="M600.2,47.7L600.2,47.7l0,5.4h-1.4V40h1.4v1.6h0c0.7-1.2,1.7-1.8,3.1-1.8c1.2,0,2.1,0.4,2.7,1.2s1,1.9,1,3.2
			c0,1.5-0.4,2.7-1.1,3.6c-0.7,0.9-1.7,1.4-3,1.4C601.7,49.2,600.8,48.7,600.2,47.7z M600.1,44.1v1.3c0,0.7,0.2,1.4,0.7,1.9
			c0.5,0.5,1.1,0.8,1.8,0.8c0.9,0,1.6-0.3,2.1-1c0.5-0.7,0.7-1.6,0.7-2.8c0-1-0.2-1.8-0.7-2.4s-1.1-0.9-1.9-0.9
			c-0.8,0-1.5,0.3-2,0.9S600.1,43.2,600.1,44.1z"/>
		<path class="st6" d="M615.7,49h-1.4v-1.4h0c-0.6,1.1-1.5,1.6-2.8,1.6c-0.9,0-1.6-0.2-2.1-0.7c-0.5-0.5-0.8-1.1-0.8-1.9
			c0-1.7,1-2.7,3-2.9l2.7-0.4c0-1.5-0.6-2.3-1.9-2.3c-1.1,0-2.1,0.4-2.9,1.1v-1.5c0.9-0.6,1.9-0.8,3.1-0.8c2.1,0,3.2,1.1,3.2,3.4V49
			z M614.3,44.4l-2.2,0.3c-0.7,0.1-1.2,0.3-1.5,0.5c-0.3,0.2-0.5,0.7-0.5,1.3c0,0.4,0.2,0.8,0.5,1.1c0.3,0.3,0.7,0.4,1.3,0.4
			c0.7,0,1.3-0.2,1.8-0.8c0.5-0.5,0.7-1.1,0.7-1.9V44.4z"/>
		<path class="st6" d="M623.1,41.5c-0.3-0.2-0.6-0.3-1.1-0.3c-0.6,0-1.1,0.3-1.5,0.9c-0.4,0.6-0.6,1.4-0.6,2.4V49h-1.4v-9h1.4v1.9h0
			c0.2-0.6,0.5-1.1,0.9-1.5c0.4-0.4,0.9-0.5,1.4-0.5c0.4,0,0.7,0,0.9,0.1V41.5z"/>
		<path class="st6" d="M631.1,49h-1.4v-1.4h0c-0.6,1.1-1.5,1.6-2.8,1.6c-0.9,0-1.6-0.2-2.1-0.7c-0.5-0.5-0.8-1.1-0.8-1.9
			c0-1.7,1-2.7,3-2.9l2.7-0.4c0-1.5-0.6-2.3-1.9-2.3c-1.1,0-2.1,0.4-2.9,1.1v-1.5c0.9-0.6,1.9-0.8,3.1-0.8c2.1,0,3.2,1.1,3.2,3.4V49
			z M629.7,44.4l-2.2,0.3c-0.7,0.1-1.2,0.3-1.5,0.5c-0.3,0.2-0.5,0.7-0.5,1.3c0,0.4,0.2,0.8,0.5,1.1c0.3,0.3,0.7,0.4,1.3,0.4
			c0.7,0,1.3-0.2,1.8-0.8c0.5-0.5,0.7-1.1,0.7-1.9V44.4z"/>
		<path class="st6" d="M639.5,37.7c-0.3,0-0.5-0.1-0.7-0.3s-0.3-0.4-0.3-0.7s0.1-0.5,0.3-0.7s0.4-0.3,0.7-0.3c0.3,0,0.5,0.1,0.7,0.3
			c0.2,0.2,0.3,0.4,0.3,0.7c0,0.3-0.1,0.5-0.3,0.7C640,37.6,639.8,37.7,639.5,37.7z M640.2,49h-1.4v-9h1.4V49z"/>
		<path class="st6" d="M650.6,49h-1.4v-5.1c0-1.9-0.7-2.9-2.1-2.9c-0.7,0-1.3,0.3-1.8,0.8c-0.5,0.5-0.7,1.2-0.7,2.1V49h-1.4v-9h1.4
			v1.5h0c0.7-1.1,1.7-1.7,3-1.7c1,0,1.7,0.3,2.3,1c0.5,0.6,0.8,1.6,0.8,2.8V49z"/>
		<path class="st6" d="M657.8,36.9c-0.3-0.2-0.6-0.2-1-0.2c-1,0-1.5,0.6-1.5,1.9V40h2.1v1.2h-2.1V49h-1.4v-7.8h-1.5V40h1.5v-1.5
			c0-0.9,0.3-1.7,0.8-2.2s1.2-0.8,2-0.8c0.4,0,0.8,0.1,1,0.2V36.9z"/>
		<path class="st6" d="M666.2,44.9h-6.4c0,1,0.3,1.8,0.8,2.3s1.2,0.8,2.1,0.8c1,0,1.9-0.3,2.8-1v1.4c-0.8,0.6-1.8,0.9-3.1,0.9
			c-1.3,0-2.3-0.4-3-1.2c-0.7-0.8-1.1-2-1.1-3.4c0-1.4,0.4-2.5,1.2-3.4c0.8-0.9,1.8-1.3,3-1.3s2.1,0.4,2.7,1.1s1,1.8,1,3.2V44.9z
			 M664.7,43.6c0-0.8-0.2-1.5-0.6-1.9c-0.4-0.5-0.9-0.7-1.6-0.7c-0.7,0-1.3,0.2-1.7,0.7s-0.8,1.1-0.9,1.9H664.7z"/>
		<path class="st6" d="M674.5,48.6c-0.7,0.4-1.5,0.6-2.5,0.6c-1.3,0-2.3-0.4-3.1-1.3c-0.8-0.8-1.2-1.9-1.2-3.2
			c0-1.5,0.4-2.7,1.3-3.6s2-1.3,3.4-1.3c0.8,0,1.5,0.1,2.1,0.4v1.5c-0.7-0.5-1.4-0.7-2.1-0.7c-0.9,0-1.7,0.3-2.3,1
			c-0.6,0.7-0.9,1.5-0.9,2.6c0,1.1,0.3,1.9,0.8,2.5c0.6,0.6,1.3,0.9,2.2,0.9c0.8,0,1.5-0.3,2.2-0.8V48.6z"/>
		<path class="st6" d="M680.8,48.9c-0.3,0.2-0.8,0.3-1.3,0.3c-1.6,0-2.4-0.9-2.4-2.6v-5.3h-1.5V40h1.5v-2.2l1.4-0.5V40h2.3v1.2h-2.3
			v5.1c0,0.6,0.1,1,0.3,1.3s0.5,0.4,1,0.4c0.4,0,0.7-0.1,0.9-0.3V48.9z"/>
		<path class="st6" d="M689.2,49h-1.4v-1.4h0c-0.6,1.1-1.5,1.6-2.8,1.6c-0.9,0-1.6-0.2-2.1-0.7c-0.5-0.5-0.8-1.1-0.8-1.9
			c0-1.7,1-2.7,3-2.9l2.7-0.4c0-1.5-0.6-2.3-1.9-2.3c-1.1,0-2.1,0.4-2.9,1.1v-1.5c0.9-0.6,1.9-0.8,3.1-0.8c2.1,0,3.2,1.1,3.2,3.4V49
			z M687.8,44.4l-2.2,0.3c-0.7,0.1-1.2,0.3-1.5,0.5c-0.3,0.2-0.5,0.7-0.5,1.3c0,0.4,0.2,0.8,0.5,1.1c0.3,0.3,0.7,0.4,1.3,0.4
			c0.7,0,1.3-0.2,1.8-0.8c0.5-0.5,0.7-1.1,0.7-1.9V44.4z"/>
		<path class="st6" d="M696.6,41.5c-0.3-0.2-0.6-0.3-1.1-0.3c-0.6,0-1.1,0.3-1.5,0.9c-0.4,0.6-0.6,1.4-0.6,2.4V49h-1.4v-9h1.4v1.9h0
			c0.2-0.6,0.5-1.1,0.9-1.5c0.4-0.4,0.9-0.5,1.4-0.5c0.4,0,0.7,0,0.9,0.1V41.5z"/>
		<path class="st6" d="M704.6,49h-1.4V35.7h1.4V49z"/>
		<path class="st6" d="M713.9,49h-1.4v-1.4h0c-0.6,1.1-1.5,1.6-2.8,1.6c-0.9,0-1.6-0.2-2.1-0.7c-0.5-0.5-0.8-1.1-0.8-1.9
			c0-1.7,1-2.7,3-2.9l2.7-0.4c0-1.5-0.6-2.3-1.9-2.3c-1.1,0-2.1,0.4-2.9,1.1v-1.5c0.9-0.6,1.9-0.8,3.1-0.8c2.1,0,3.2,1.1,3.2,3.4V49
			z M712.5,44.4l-2.2,0.3c-0.7,0.1-1.2,0.3-1.5,0.5c-0.3,0.2-0.5,0.7-0.5,1.3c0,0.4,0.2,0.8,0.5,1.1c0.3,0.3,0.7,0.4,1.3,0.4
			c0.7,0,1.3-0.2,1.8-0.8c0.5-0.5,0.7-1.1,0.7-1.9V44.4z"/>
	</g>
	<g class="st5">
		<path class="st6" d="M563.6,72.6c-0.7,0.4-1.5,0.6-2.5,0.6c-1.3,0-2.3-0.4-3.1-1.3c-0.8-0.8-1.2-1.9-1.2-3.2
			c0-1.5,0.4-2.7,1.3-3.6s2-1.3,3.4-1.3c0.8,0,1.5,0.1,2.1,0.4v1.5c-0.7-0.5-1.4-0.7-2.1-0.7c-0.9,0-1.7,0.3-2.3,1
			c-0.6,0.7-0.9,1.5-0.9,2.6c0,1.1,0.3,1.9,0.8,2.5c0.6,0.6,1.3,0.9,2.2,0.9c0.8,0,1.5-0.3,2.2-0.8V72.6z"/>
		<path class="st6" d="M573,68.9h-6.4c0,1,0.3,1.8,0.8,2.3s1.2,0.8,2.1,0.8c1,0,1.9-0.3,2.8-1v1.4c-0.8,0.6-1.8,0.9-3.1,0.9
			c-1.3,0-2.3-0.4-3-1.2c-0.7-0.8-1.1-2-1.1-3.4c0-1.4,0.4-2.5,1.2-3.4c0.8-0.9,1.8-1.3,3-1.3s2.1,0.4,2.7,1.1s1,1.8,1,3.2V68.9z
			 M571.5,67.6c0-0.8-0.2-1.5-0.6-1.9c-0.4-0.5-0.9-0.7-1.6-0.7c-0.7,0-1.3,0.2-1.7,0.7s-0.8,1.1-0.9,1.9H571.5z M571.3,59.4
			l-2.3,2.9h-1.1l2-2.9H571.3z"/>
		<path class="st6" d="M576.6,73h-1.4V59.7h1.4V73z"/>
		<path class="st6" d="M586.8,73h-1.4v-1.4h0c-0.6,1.1-1.5,1.6-2.8,1.6c-2.1,0-3.2-1.3-3.2-3.8V64h1.4v5.2c0,1.9,0.7,2.8,2.2,2.8
			c0.7,0,1.3-0.3,1.7-0.8c0.5-0.5,0.7-1.2,0.7-2V64h1.4V73z"/>
		<path class="st6" d="M591.2,73h-1.4V59.7h1.4V73z"/>
		<path class="st6" d="M600.5,73h-1.4v-1.4h0c-0.6,1.1-1.5,1.6-2.8,1.6c-0.9,0-1.6-0.2-2.1-0.7c-0.5-0.5-0.8-1.1-0.8-1.9
			c0-1.7,1-2.7,3-2.9l2.7-0.4c0-1.5-0.6-2.3-1.9-2.3c-1.1,0-2.1,0.4-2.9,1.1v-1.5c0.9-0.6,1.9-0.8,3.1-0.8c2.1,0,3.2,1.1,3.2,3.4V73
			z M599.1,68.4l-2.2,0.3c-0.7,0.1-1.2,0.3-1.5,0.5c-0.3,0.2-0.5,0.7-0.5,1.3c0,0.4,0.2,0.8,0.5,1.1c0.3,0.3,0.7,0.4,1.3,0.4
			c0.7,0,1.3-0.2,1.8-0.8c0.5-0.5,0.7-1.1,0.7-1.9V68.4z"/>
		<path class="st6" d="M603.8,73.2c-0.3,0-0.5-0.1-0.7-0.3c-0.2-0.2-0.3-0.4-0.3-0.7s0.1-0.5,0.3-0.7c0.2-0.2,0.4-0.3,0.7-0.3
			c0.3,0,0.5,0.1,0.7,0.3c0.2,0.2,0.3,0.4,0.3,0.7s-0.1,0.5-0.3,0.7S604,73.2,603.8,73.2z"/>
	</g>
	<g class="st5">
		<path class="st7" d="M560.3-8.3V-4h-2.8v-12.6h4.4c3.2,0,4.8,1.3,4.8,4c0,1.3-0.5,2.3-1.4,3.1c-0.9,0.8-2.1,1.2-3.7,1.2H560.3z
			 M560.3-14.4v3.9h1.1c1.5,0,2.3-0.7,2.3-2c0-1.3-0.8-1.9-2.3-1.9H560.3z"/>
		<path class="st7" d="M574.1-10.5c-0.3-0.2-0.7-0.3-1.2-0.3c-0.6,0-1.1,0.2-1.4,0.7s-0.5,1-0.5,1.8V-4h-2.8v-9h2.8v1.7h0
			c0.4-1.2,1.2-1.8,2.4-1.8c0.3,0,0.5,0,0.7,0.1V-10.5z"/>
		<path class="st7" d="M579.6-3.8c-1.5,0-2.7-0.4-3.5-1.3c-0.9-0.8-1.3-2-1.3-3.4c0-1.5,0.4-2.7,1.3-3.5c0.9-0.8,2.1-1.3,3.6-1.3
			c1.5,0,2.7,0.4,3.5,1.3c0.8,0.8,1.3,2,1.3,3.3c0,1.5-0.4,2.7-1.3,3.5C582.3-4.2,581.1-3.8,579.6-3.8z M579.7-11.1
			c-0.7,0-1.2,0.2-1.5,0.7s-0.5,1.1-0.5,1.9c0,1.7,0.7,2.6,2.1,2.6c1.3,0,2-0.9,2-2.7C581.7-10.3,581-11.1,579.7-11.1z"/>
		<path class="st7" d="M591.8-4.1c-0.4,0.2-1,0.3-1.9,0.3c-2,0-2.9-1-2.9-3V-11h-1.5v-2h1.5v-1.9l2.8-0.8v2.7h2v2h-2v3.6
			c0,0.9,0.4,1.4,1.1,1.4c0.3,0,0.6-0.1,0.9-0.3V-4.1z"/>
		<path class="st7" d="M601.3-7.7h-5.9c0.1,1.3,0.9,2,2.5,2c1,0,1.9-0.2,2.6-0.7v2c-0.8,0.4-1.9,0.7-3.2,0.7c-1.5,0-2.6-0.4-3.4-1.2
			s-1.2-1.9-1.2-3.4c0-1.5,0.4-2.7,1.3-3.6s1.9-1.3,3.2-1.3c1.3,0,2.3,0.4,3,1.2c0.7,0.8,1.1,1.8,1.1,3.2V-7.7z M598.8-9.4
			c0-1.3-0.5-1.9-1.6-1.9c-0.4,0-0.8,0.2-1.2,0.6c-0.3,0.4-0.5,0.8-0.6,1.4H598.8z"/>
		<path class="st7" d="M607.2-17.3l-2.8,2.8h-2l2.3-2.8H607.2z M605.8-4H603v-9h2.8V-4z"/>
		<path class="st7" d="M616.8-4H614v-5c0-1.4-0.5-2.1-1.5-2.1c-0.5,0-0.9,0.2-1.2,0.6s-0.5,0.8-0.5,1.4V-4h-2.8v-9h2.8v1.4h0
			c0.7-1.1,1.6-1.6,2.9-1.6c2,0,3,1.2,3,3.7V-4z"/>
		<path class="st7" d="M626.5-4h-2.6v-1.3h0c-0.6,1-1.5,1.5-2.7,1.5c-0.9,0-1.6-0.2-2.1-0.7c-0.5-0.5-0.8-1.2-0.8-2
			c0-1.7,1-2.8,3.1-3l2.4-0.3c0-1-0.5-1.5-1.6-1.5c-1.1,0-2.1,0.3-3.1,1v-2.1c0.4-0.2,0.9-0.4,1.6-0.5c0.7-0.2,1.3-0.2,1.8-0.2
			c2.6,0,3.8,1.3,3.8,3.8V-4z M623.9-7.7v-0.6l-1.6,0.2c-0.9,0.1-1.4,0.5-1.4,1.2c0,0.3,0.1,0.6,0.3,0.8c0.2,0.2,0.5,0.3,0.9,0.3
			c0.5,0,0.9-0.2,1.3-0.5C623.7-6.7,623.9-7.1,623.9-7.7z"/>
		<path class="st7" d="M641.7-7.7h-5.9c0.1,1.3,0.9,2,2.5,2c1,0,1.9-0.2,2.6-0.7v2c-0.8,0.4-1.9,0.7-3.2,0.7c-1.5,0-2.6-0.4-3.4-1.2
			s-1.2-1.9-1.2-3.4c0-1.5,0.4-2.7,1.3-3.6s1.9-1.3,3.2-1.3c1.3,0,2.3,0.4,3,1.2c0.7,0.8,1.1,1.8,1.1,3.2V-7.7z M639.2-9.4
			c0-1.3-0.5-1.9-1.6-1.9c-0.4,0-0.8,0.2-1.2,0.6c-0.3,0.4-0.5,0.8-0.6,1.4H639.2z"/>
		<path class="st7" d="M642.8-4.2v-2.2c0.5,0.3,0.9,0.5,1.4,0.6c0.5,0.1,0.9,0.2,1.3,0.2c0.5,0,0.9-0.1,1.2-0.2
			c0.3-0.1,0.4-0.3,0.4-0.6c0-0.2-0.1-0.3-0.2-0.4s-0.3-0.2-0.5-0.3c-0.2-0.1-0.4-0.2-0.7-0.2s-0.5-0.1-0.7-0.2
			c-0.4-0.1-0.7-0.3-0.9-0.4c-0.3-0.2-0.5-0.3-0.7-0.5c-0.2-0.2-0.3-0.4-0.4-0.7c-0.1-0.3-0.1-0.6-0.1-1c0-0.5,0.1-0.9,0.3-1.3
			c0.2-0.4,0.5-0.7,0.9-0.9c0.4-0.2,0.8-0.4,1.3-0.5c0.5-0.1,1-0.2,1.5-0.2c0.4,0,0.8,0,1.2,0.1c0.4,0.1,0.8,0.2,1.2,0.3v2.1
			c-0.4-0.2-0.7-0.4-1.1-0.5c-0.4-0.1-0.8-0.2-1.2-0.2c-0.2,0-0.4,0-0.5,0c-0.2,0-0.3,0.1-0.4,0.1c-0.1,0.1-0.2,0.1-0.3,0.2
			c-0.1,0.1-0.1,0.2-0.1,0.3c0,0.2,0.1,0.3,0.2,0.4s0.2,0.2,0.4,0.3c0.2,0.1,0.4,0.2,0.6,0.2c0.2,0.1,0.4,0.1,0.6,0.2
			c0.4,0.1,0.7,0.3,1,0.4s0.6,0.3,0.8,0.5c0.2,0.2,0.4,0.4,0.5,0.7c0.1,0.3,0.2,0.6,0.2,1c0,0.5-0.1,1-0.3,1.4
			c-0.2,0.4-0.5,0.7-0.9,0.9c-0.4,0.2-0.8,0.4-1.3,0.5c-0.5,0.1-1,0.2-1.6,0.2C644.6-3.8,643.6-3.9,642.8-4.2z"/>
		<path class="st7" d="M654.1-5L654.1-5l0,5.2h-2.8V-13h2.8v1.4h0c0.7-1,1.6-1.6,2.9-1.6c1.2,0,2.1,0.4,2.7,1.2c0.6,0.8,1,1.9,1,3.3
			c0,1.5-0.4,2.7-1.1,3.6c-0.7,0.9-1.7,1.4-3,1.4C655.5-3.8,654.7-4.2,654.1-5z M654-8.7V-8c0,0.6,0.2,1.1,0.5,1.5s0.8,0.6,1.3,0.6
			c0.6,0,1.1-0.2,1.5-0.7c0.3-0.5,0.5-1.2,0.5-2.1c0-1.6-0.6-2.4-1.8-2.4c-0.6,0-1,0.2-1.4,0.6C654.2-10,654-9.4,654-8.7z"/>
		<path class="st7" d="M663.9-14.4c-0.5,0-0.9-0.1-1.2-0.4c-0.3-0.3-0.4-0.6-0.4-1c0-0.4,0.1-0.8,0.4-1s0.7-0.4,1.2-0.4
			c0.5,0,0.9,0.1,1.2,0.4c0.3,0.3,0.4,0.6,0.4,1c0,0.4-0.1,0.8-0.4,1C664.7-14.6,664.4-14.4,663.9-14.4z M665.2-4h-2.8v-9h2.8V-4z"
			/>
		<path class="st7" d="M676.4-5c0,1.7-0.5,3-1.5,3.9s-2.4,1.4-4.2,1.4c-1.2,0-2.2-0.2-2.9-0.5v-2.3c0.9,0.5,1.9,0.8,2.8,0.8
			c0.9,0,1.7-0.2,2.2-0.7c0.5-0.5,0.8-1.2,0.8-2v-0.7h0c-0.6,1-1.6,1.5-2.8,1.5c-1.1,0-2.1-0.4-2.7-1.2s-1-1.9-1-3.3
			c0-1.5,0.4-2.7,1.1-3.6s1.7-1.3,3-1.3c1.1,0,1.9,0.4,2.5,1.3h0v-1h2.8V-5z M673.7-8.3V-9c0-0.6-0.2-1.1-0.5-1.5
			c-0.3-0.4-0.8-0.6-1.3-0.6c-0.6,0-1.1,0.2-1.5,0.7s-0.5,1.2-0.5,2c0,0.8,0.2,1.3,0.5,1.8c0.3,0.4,0.8,0.7,1.4,0.7
			c0.6,0,1-0.2,1.4-0.7C673.5-7,673.7-7.6,673.7-8.3z"/>
		<path class="st7" d="M686.2-4h-2.6v-1.3h0c-0.6,1-1.5,1.5-2.7,1.5c-0.9,0-1.6-0.2-2.1-0.7c-0.5-0.5-0.8-1.2-0.8-2
			c0-1.7,1-2.8,3.1-3l2.4-0.3c0-1-0.5-1.5-1.6-1.5c-1.1,0-2.1,0.3-3.1,1v-2.1c0.4-0.2,0.9-0.4,1.6-0.5c0.7-0.2,1.3-0.2,1.8-0.2
			c2.6,0,3.8,1.3,3.8,3.8V-4z M683.6-7.7v-0.6L682-8.1c-0.9,0.1-1.4,0.5-1.4,1.2c0,0.3,0.1,0.6,0.3,0.8c0.2,0.2,0.5,0.3,0.9,0.3
			c0.5,0,0.9-0.2,1.3-0.5C683.4-6.7,683.6-7.1,683.6-7.7z"/>
	</g>
</g>
<g class="st5">
	<path class="st6" d="M512.1,210.3v4.8h-1.5v-12.6h3.5c1.3,0,2.4,0.3,3.1,1c0.7,0.7,1.1,1.6,1.1,2.8s-0.4,2.2-1.2,2.9
		c-0.8,0.8-1.9,1.1-3.3,1.1H512.1z M512.1,203.8v5.2h1.5c1,0,1.8-0.2,2.3-0.7c0.5-0.5,0.8-1.1,0.8-2c0-1.7-1-2.5-3-2.5H512.1z"/>
	<path class="st6" d="M526.4,215.1h-1.4v-1.4h0c-0.6,1.1-1.5,1.6-2.8,1.6c-0.9,0-1.6-0.2-2.1-0.7c-0.5-0.5-0.8-1.1-0.8-1.9
		c0-1.7,1-2.7,3-2.9l2.7-0.4c0-1.5-0.6-2.3-1.9-2.3c-1.1,0-2.1,0.4-2.9,1.1v-1.5c0.9-0.6,1.9-0.8,3.1-0.8c2.1,0,3.2,1.1,3.2,3.4
		V215.1z M524.9,210.5l-2.2,0.3c-0.7,0.1-1.2,0.3-1.5,0.5c-0.3,0.2-0.5,0.7-0.5,1.3c0,0.4,0.2,0.8,0.5,1.1c0.3,0.3,0.7,0.4,1.3,0.4
		c0.7,0,1.3-0.2,1.8-0.8c0.5-0.5,0.7-1.1,0.7-1.9V210.5z"/>
	<path class="st6" d="M533.8,207.6c-0.3-0.2-0.6-0.3-1.1-0.3c-0.6,0-1.1,0.3-1.5,0.9c-0.4,0.6-0.6,1.4-0.6,2.4v4.6h-1.4v-9h1.4v1.9
		h0c0.2-0.6,0.5-1.1,0.9-1.5c0.4-0.4,0.9-0.5,1.4-0.5c0.4,0,0.7,0,0.9,0.1V207.6z"/>
	<path class="st6" d="M539.5,215c-0.3,0.2-0.8,0.3-1.3,0.3c-1.6,0-2.4-0.9-2.4-2.6v-5.3h-1.5v-1.2h1.5v-2.2l1.4-0.5v2.7h2.3v1.2
		h-2.3v5.1c0,0.6,0.1,1,0.3,1.3s0.5,0.4,1,0.4c0.4,0,0.7-0.1,0.9-0.3V215z"/>
	<path class="st6" d="M548.7,211h-6.4c0,1,0.3,1.8,0.8,2.3s1.2,0.8,2.1,0.8c1,0,1.9-0.3,2.8-1v1.4c-0.8,0.6-1.8,0.9-3.1,0.9
		c-1.3,0-2.3-0.4-3-1.2c-0.7-0.8-1.1-2-1.1-3.4c0-1.4,0.4-2.5,1.2-3.4c0.8-0.9,1.8-1.3,3-1.3s2.1,0.4,2.7,1.1s1,1.8,1,3.2V211z
		 M547.2,209.7c0-0.8-0.2-1.5-0.6-1.9c-0.4-0.5-0.9-0.7-1.6-0.7c-0.7,0-1.3,0.2-1.7,0.7s-0.8,1.1-0.9,1.9H547.2z"/>
	<path class="st6" d="M563.5,215.1H562v-1.5h0c-0.7,1.2-1.7,1.7-3.1,1.7c-1.1,0-2-0.4-2.7-1.2c-0.7-0.8-1-1.9-1-3.3
		c0-1.5,0.4-2.7,1.1-3.6s1.7-1.3,3-1.3c1.2,0,2.1,0.5,2.7,1.5h0v-5.6h1.4V215.1z M562,211v-1.3c0-0.7-0.2-1.3-0.7-1.8
		s-1.1-0.8-1.8-0.8c-0.9,0-1.6,0.3-2.1,1s-0.8,1.5-0.8,2.7c0,1,0.2,1.9,0.7,2.5c0.5,0.6,1.1,0.9,1.9,0.9c0.8,0,1.5-0.3,2-0.9
		C561.8,212.6,562,211.9,562,211z"/>
	<path class="st6" d="M573.6,211h-6.4c0,1,0.3,1.8,0.8,2.3s1.2,0.8,2.1,0.8c1,0,1.9-0.3,2.8-1v1.4c-0.8,0.6-1.8,0.9-3.1,0.9
		c-1.3,0-2.3-0.4-3-1.2c-0.7-0.8-1.1-2-1.1-3.4c0-1.4,0.4-2.5,1.2-3.4c0.8-0.9,1.8-1.3,3-1.3s2.1,0.4,2.7,1.1s1,1.8,1,3.2V211z
		 M572.1,209.7c0-0.8-0.2-1.5-0.6-1.9c-0.4-0.5-0.9-0.7-1.6-0.7c-0.7,0-1.3,0.2-1.7,0.7s-0.8,1.1-0.9,1.9H572.1z"/>
	<path class="st6" d="M582.2,215.1h-1.4v-13.3h1.4V215.1z"/>
	<path class="st6" d="M591.5,215.1h-1.4v-1.4h0c-0.6,1.1-1.5,1.6-2.8,1.6c-0.9,0-1.6-0.2-2.1-0.7c-0.5-0.5-0.8-1.1-0.8-1.9
		c0-1.7,1-2.7,3-2.9l2.7-0.4c0-1.5-0.6-2.3-1.9-2.3c-1.1,0-2.1,0.4-2.9,1.1v-1.5c0.9-0.6,1.9-0.8,3.1-0.8c2.1,0,3.2,1.1,3.2,3.4
		V215.1z M590.1,210.5l-2.2,0.3c-0.7,0.1-1.2,0.3-1.5,0.5c-0.3,0.2-0.5,0.7-0.5,1.3c0,0.4,0.2,0.8,0.5,1.1c0.3,0.3,0.7,0.4,1.3,0.4
		c0.7,0,1.3-0.2,1.8-0.8c0.5-0.5,0.7-1.1,0.7-1.9V210.5z"/>
	<path class="st6" d="M600.7,213.8L600.7,213.8l0,5.4h-1.4v-13.1h1.4v1.6h0c0.7-1.2,1.7-1.8,3.1-1.8c1.2,0,2.1,0.4,2.7,1.2
		s1,1.9,1,3.2c0,1.5-0.4,2.7-1.1,3.6c-0.7,0.9-1.7,1.4-3,1.4C602.2,215.3,601.3,214.8,600.7,213.8z M600.6,210.2v1.3
		c0,0.7,0.2,1.4,0.7,1.9c0.5,0.5,1.1,0.8,1.8,0.8c0.9,0,1.6-0.3,2.1-1c0.5-0.7,0.7-1.6,0.7-2.8c0-1-0.2-1.8-0.7-2.4
		s-1.1-0.9-1.9-0.9c-0.8,0-1.5,0.3-2,0.9S600.6,209.3,600.6,210.2z"/>
	<path class="st6" d="M614.5,207.6c-0.3-0.2-0.6-0.3-1.1-0.3c-0.6,0-1.1,0.3-1.5,0.9c-0.4,0.6-0.6,1.4-0.6,2.4v4.6h-1.4v-9h1.4v1.9
		h0c0.2-0.6,0.5-1.1,0.9-1.5c0.4-0.4,0.9-0.5,1.4-0.5c0.4,0,0.7,0,0.9,0.1V207.6z"/>
	<path class="st6" d="M619.8,215.3c-1.3,0-2.4-0.4-3.2-1.3c-0.8-0.8-1.2-2-1.2-3.3c0-1.5,0.4-2.7,1.2-3.5s1.9-1.3,3.3-1.3
		c1.3,0,2.4,0.4,3.1,1.2c0.8,0.8,1.1,2,1.1,3.4c0,1.4-0.4,2.6-1.2,3.4C622.2,214.9,621.1,215.3,619.8,215.3z M619.9,207.1
		c-0.9,0-1.7,0.3-2.2,0.9s-0.8,1.5-0.8,2.6c0,1.1,0.3,1.9,0.8,2.5s1.3,0.9,2.2,0.9c0.9,0,1.6-0.3,2.1-0.9c0.5-0.6,0.8-1.5,0.8-2.6
		c0-1.1-0.2-2-0.8-2.6C621.5,207.4,620.8,207.1,619.9,207.1z"/>
	<path class="st6" d="M630.7,215c-0.3,0.2-0.8,0.3-1.3,0.3c-1.6,0-2.4-0.9-2.4-2.6v-5.3h-1.5v-1.2h1.5v-2.2l1.4-0.5v2.7h2.3v1.2
		h-2.3v5.1c0,0.6,0.1,1,0.3,1.3s0.5,0.4,1,0.4c0.4,0,0.7-0.1,0.9-0.3V215z"/>
	<path class="st6" d="M639.9,211h-6.4c0,1,0.3,1.8,0.8,2.3s1.2,0.8,2.1,0.8c1,0,1.9-0.3,2.8-1v1.4c-0.8,0.6-1.8,0.9-3.1,0.9
		c-1.3,0-2.3-0.4-3-1.2c-0.7-0.8-1.1-2-1.1-3.4c0-1.4,0.4-2.5,1.2-3.4c0.8-0.9,1.8-1.3,3-1.3s2.1,0.4,2.7,1.1s1,1.8,1,3.2V211z
		 M638.4,209.7c0-0.8-0.2-1.5-0.6-1.9c-0.4-0.5-0.9-0.7-1.6-0.7c-0.7,0-1.3,0.2-1.7,0.7s-0.8,1.1-0.9,1.9H638.4z"/>
	<path class="st6" d="M644.8,201.5l-2.3,2.9h-1.1l2-2.9H644.8z M643.5,215.1h-1.4v-9h1.4V215.1z"/>
	<path class="st6" d="M653.9,215.1h-1.4V210c0-1.9-0.7-2.9-2.1-2.9c-0.7,0-1.3,0.3-1.8,0.8c-0.5,0.5-0.7,1.2-0.7,2.1v5.1h-1.4v-9
		h1.4v1.5h0c0.7-1.1,1.7-1.7,3-1.7c1,0,1.7,0.3,2.3,1c0.5,0.6,0.8,1.6,0.8,2.8V215.1z"/>
	<path class="st6" d="M663.1,215.1h-1.4v-1.4h0c-0.6,1.1-1.5,1.6-2.8,1.6c-0.9,0-1.6-0.2-2.1-0.7c-0.5-0.5-0.8-1.1-0.8-1.9
		c0-1.7,1-2.7,3-2.9l2.7-0.4c0-1.5-0.6-2.3-1.9-2.3c-1.1,0-2.1,0.4-2.9,1.1v-1.5c0.9-0.6,1.9-0.8,3.1-0.8c2.1,0,3.2,1.1,3.2,3.4
		V215.1z M661.6,210.5l-2.2,0.3c-0.7,0.1-1.2,0.3-1.5,0.5c-0.3,0.2-0.5,0.7-0.5,1.3c0,0.4,0.2,0.8,0.5,1.1c0.3,0.3,0.7,0.4,1.3,0.4
		c0.7,0,1.3-0.2,1.8-0.8c0.5-0.5,0.7-1.1,0.7-1.9V210.5z"/>
	<path class="st6" d="M677.9,211h-6.4c0,1,0.3,1.8,0.8,2.3s1.2,0.8,2.1,0.8c1,0,1.9-0.3,2.8-1v1.4c-0.8,0.6-1.8,0.9-3.1,0.9
		c-1.3,0-2.3-0.4-3-1.2c-0.7-0.8-1.1-2-1.1-3.4c0-1.4,0.4-2.5,1.2-3.4c0.8-0.9,1.8-1.3,3-1.3s2.1,0.4,2.7,1.1s1,1.8,1,3.2V211z
		 M676.5,209.7c0-0.8-0.2-1.5-0.6-1.9c-0.4-0.5-0.9-0.7-1.6-0.7c-0.7,0-1.3,0.2-1.7,0.7s-0.8,1.1-0.9,1.9H676.5z"/>
	<path class="st6" d="M679.6,214.8v-1.5c0.8,0.6,1.6,0.9,2.6,0.9c1.3,0,1.9-0.4,1.9-1.3c0-0.2-0.1-0.4-0.2-0.6
		c-0.1-0.2-0.3-0.3-0.4-0.4c-0.2-0.1-0.4-0.2-0.7-0.3c-0.2-0.1-0.5-0.2-0.8-0.3c-0.4-0.2-0.7-0.3-1-0.5c-0.3-0.2-0.6-0.3-0.8-0.5
		c-0.2-0.2-0.4-0.4-0.5-0.7c-0.1-0.3-0.2-0.6-0.2-0.9c0-0.4,0.1-0.8,0.3-1.1c0.2-0.3,0.5-0.6,0.8-0.8c0.3-0.2,0.7-0.4,1.1-0.5
		c0.4-0.1,0.8-0.2,1.3-0.2c0.8,0,1.5,0.1,2.1,0.4v1.5c-0.7-0.4-1.4-0.7-2.3-0.7c-0.3,0-0.5,0-0.7,0.1c-0.2,0.1-0.4,0.1-0.6,0.3
		c-0.2,0.1-0.3,0.2-0.4,0.4c-0.1,0.2-0.1,0.3-0.1,0.5c0,0.2,0,0.4,0.1,0.6c0.1,0.2,0.2,0.3,0.4,0.4s0.4,0.2,0.6,0.3s0.5,0.2,0.8,0.3
		c0.4,0.2,0.8,0.3,1.1,0.5s0.6,0.3,0.8,0.5c0.2,0.2,0.4,0.4,0.5,0.7c0.1,0.3,0.2,0.6,0.2,0.9c0,0.4-0.1,0.8-0.3,1.2
		c-0.2,0.3-0.5,0.6-0.8,0.8s-0.7,0.4-1.1,0.5s-0.9,0.2-1.3,0.2C681.1,215.3,680.3,215.1,679.6,214.8z"/>
	<path class="st6" d="M689.2,213.8L689.2,213.8l0,5.4h-1.4v-13.1h1.4v1.6h0c0.7-1.2,1.7-1.8,3.1-1.8c1.2,0,2.1,0.4,2.7,1.2
		s1,1.9,1,3.2c0,1.5-0.4,2.7-1.1,3.6c-0.7,0.9-1.7,1.4-3,1.4C690.8,215.3,689.9,214.8,689.2,213.8z M689.2,210.2v1.3
		c0,0.7,0.2,1.4,0.7,1.9c0.5,0.5,1.1,0.8,1.8,0.8c0.9,0,1.6-0.3,2.1-1c0.5-0.7,0.7-1.6,0.7-2.8c0-1-0.2-1.8-0.7-2.4
		s-1.1-0.9-1.9-0.9c-0.8,0-1.5,0.3-2,0.9S689.2,209.3,689.2,210.2z"/>
	<path class="st6" d="M699.1,203.8c-0.3,0-0.5-0.1-0.7-0.3s-0.3-0.4-0.3-0.7s0.1-0.5,0.3-0.7s0.4-0.3,0.7-0.3c0.3,0,0.5,0.1,0.7,0.3
		c0.2,0.2,0.3,0.4,0.3,0.7c0,0.3-0.1,0.5-0.3,0.7C699.6,203.7,699.3,203.8,699.1,203.8z M699.8,215.1h-1.4v-9h1.4V215.1z"/>
	<path class="st6" d="M710.4,214.4c0,3.3-1.6,5-4.7,5c-1.1,0-2.1-0.2-2.9-0.6v-1.4c1,0.6,2,0.8,2.9,0.8c2.2,0,3.3-1.2,3.3-3.5v-1h0
		c-0.7,1.1-1.7,1.7-3.1,1.7c-1.1,0-2-0.4-2.7-1.2c-0.7-0.8-1-1.9-1-3.2c0-1.5,0.4-2.7,1.1-3.6c0.7-0.9,1.7-1.4,3-1.4
		c1.2,0,2.1,0.5,2.7,1.5h0v-1.2h1.4V214.4z M708.9,211v-1.3c0-0.7-0.2-1.3-0.7-1.8c-0.5-0.5-1.1-0.8-1.8-0.8c-0.9,0-1.6,0.3-2.1,1
		c-0.5,0.6-0.8,1.6-0.8,2.7c0,1,0.2,1.8,0.7,2.4c0.5,0.6,1.1,0.9,1.9,0.9c0.8,0,1.5-0.3,2-0.9C708.7,212.7,708.9,211.9,708.9,211z"
		/>
	<path class="st6" d="M719.7,215.1h-1.4v-1.4h0c-0.6,1.1-1.5,1.6-2.8,1.6c-0.9,0-1.6-0.2-2.1-0.7c-0.5-0.5-0.8-1.1-0.8-1.9
		c0-1.7,1-2.7,3-2.9l2.7-0.4c0-1.5-0.6-2.3-1.9-2.3c-1.1,0-2.1,0.4-2.9,1.1v-1.5c0.9-0.6,1.9-0.8,3.1-0.8c2.1,0,3.2,1.1,3.2,3.4
		V215.1z M718.3,210.5l-2.2,0.3c-0.7,0.1-1.2,0.3-1.5,0.5c-0.3,0.2-0.5,0.7-0.5,1.3c0,0.4,0.2,0.8,0.5,1.1c0.3,0.3,0.7,0.4,1.3,0.4
		c0.7,0,1.3-0.2,1.8-0.8c0.5-0.5,0.7-1.1,0.7-1.9V210.5z"/>
	<path class="st6" d="M733.8,215.1h-1.4v-1.4h0c-0.6,1.1-1.5,1.6-2.8,1.6c-0.9,0-1.6-0.2-2.1-0.7c-0.5-0.5-0.8-1.1-0.8-1.9
		c0-1.7,1-2.7,3-2.9l2.7-0.4c0-1.5-0.6-2.3-1.9-2.3c-1.1,0-2.1,0.4-2.9,1.1v-1.5c0.9-0.6,1.9-0.8,3.1-0.8c2.1,0,3.2,1.1,3.2,3.4
		V215.1z M732.4,210.5l-2.2,0.3c-0.7,0.1-1.2,0.3-1.5,0.5c-0.3,0.2-0.5,0.7-0.5,1.3c0,0.4,0.2,0.8,0.5,1.1c0.3,0.3,0.7,0.4,1.3,0.4
		c0.7,0,1.3-0.2,1.8-0.8c0.5-0.5,0.7-1.1,0.7-1.9V210.5z"/>
	<path class="st6" d="M742.7,214.7c-0.7,0.4-1.5,0.6-2.5,0.6c-1.3,0-2.3-0.4-3.1-1.3c-0.8-0.8-1.2-1.9-1.2-3.2
		c0-1.5,0.4-2.7,1.3-3.6s2-1.3,3.4-1.3c0.8,0,1.5,0.1,2.1,0.4v1.5c-0.7-0.5-1.4-0.7-2.1-0.7c-0.9,0-1.7,0.3-2.3,1
		c-0.6,0.7-0.9,1.5-0.9,2.6c0,1.1,0.3,1.9,0.8,2.5c0.6,0.6,1.3,0.9,2.2,0.9c0.8,0,1.5-0.3,2.2-0.8V214.7z"/>
	<path class="st6" d="M749,215c-0.3,0.2-0.8,0.3-1.3,0.3c-1.6,0-2.4-0.9-2.4-2.6v-5.3h-1.5v-1.2h1.5v-2.2l1.4-0.5v2.7h2.3v1.2h-2.3
		v5.1c0,0.6,0.1,1,0.3,1.3s0.5,0.4,1,0.4c0.4,0,0.7-0.1,0.9-0.3V215z"/>
	<path class="st6" d="M758.2,215.1h-1.4v-1.4h0c-0.6,1.1-1.5,1.6-2.8,1.6c-2.1,0-3.2-1.3-3.2-3.8v-5.4h1.4v5.2
		c0,1.9,0.7,2.8,2.2,2.8c0.7,0,1.3-0.3,1.7-0.8c0.5-0.5,0.7-1.2,0.7-2v-5.2h1.4V215.1z M756.9,201.5l-2.3,2.9h-1.1l2-2.9H756.9z"/>
	<path class="st6" d="M767.6,215.1h-1.4v-1.4h0c-0.6,1.1-1.5,1.6-2.8,1.6c-0.9,0-1.6-0.2-2.1-0.7c-0.5-0.5-0.8-1.1-0.8-1.9
		c0-1.7,1-2.7,3-2.9l2.7-0.4c0-1.5-0.6-2.3-1.9-2.3c-1.1,0-2.1,0.4-2.9,1.1v-1.5c0.9-0.6,1.9-0.8,3.1-0.8c2.1,0,3.2,1.1,3.2,3.4
		V215.1z M766.2,210.5l-2.2,0.3c-0.7,0.1-1.2,0.3-1.5,0.5c-0.3,0.2-0.5,0.7-0.5,1.3c0,0.4,0.2,0.8,0.5,1.1c0.3,0.3,0.7,0.4,1.3,0.4
		c0.7,0,1.3-0.2,1.8-0.8c0.5-0.5,0.7-1.1,0.7-1.9V210.5z"/>
</g>
<g class="st5">
	<path class="st6" d="M516.6,238.7c-0.7,0.4-1.5,0.6-2.5,0.6c-1.3,0-2.3-0.4-3.1-1.3c-0.8-0.8-1.2-1.9-1.2-3.2
		c0-1.5,0.4-2.7,1.3-3.6s2-1.3,3.4-1.3c0.8,0,1.5,0.1,2.1,0.4v1.5c-0.7-0.5-1.4-0.7-2.1-0.7c-0.9,0-1.7,0.3-2.3,1
		c-0.6,0.7-0.9,1.5-0.9,2.6c0,1.1,0.3,1.9,0.8,2.5c0.6,0.6,1.3,0.9,2.2,0.9c0.8,0,1.5-0.3,2.2-0.8V238.7z"/>
	<path class="st6" d="M522.5,239.3c-1.3,0-2.4-0.4-3.2-1.3c-0.8-0.8-1.2-2-1.2-3.3c0-1.5,0.4-2.7,1.2-3.5s1.9-1.3,3.3-1.3
		c1.3,0,2.4,0.4,3.1,1.2c0.8,0.8,1.1,2,1.1,3.4c0,1.4-0.4,2.6-1.2,3.4C525,238.9,523.9,239.3,522.5,239.3z M522.6,231.1
		c-0.9,0-1.7,0.3-2.2,0.9s-0.8,1.5-0.8,2.6c0,1.1,0.3,1.9,0.8,2.5s1.3,0.9,2.2,0.9c0.9,0,1.6-0.3,2.1-0.9c0.5-0.6,0.8-1.5,0.8-2.6
		c0-1.1-0.2-2-0.8-2.6C524.3,231.4,523.6,231.1,522.6,231.1z"/>
	<path class="st6" d="M542.1,239.1h-1.4v-5.2c0-1-0.2-1.7-0.5-2.2c-0.3-0.4-0.8-0.7-1.6-0.7c-0.6,0-1.1,0.3-1.6,0.8
		c-0.4,0.6-0.6,1.2-0.6,2v5.1H535v-5.3c0-1.8-0.7-2.7-2-2.7c-0.6,0-1.2,0.3-1.6,0.8c-0.4,0.5-0.6,1.2-0.6,2.1v5.1h-1.4v-9h1.4v1.4h0
		c0.6-1.1,1.6-1.6,2.8-1.6c0.6,0,1.2,0.2,1.6,0.5c0.5,0.3,0.8,0.8,0.9,1.3c0.7-1.2,1.7-1.9,3-1.9c2,0,3,1.2,3,3.7V239.1z"/>
	<path class="st6" d="M548.6,239.3c-1.3,0-2.4-0.4-3.2-1.3c-0.8-0.8-1.2-2-1.2-3.3c0-1.5,0.4-2.7,1.2-3.5s1.9-1.3,3.3-1.3
		c1.3,0,2.4,0.4,3.1,1.2c0.8,0.8,1.1,2,1.1,3.4c0,1.4-0.4,2.6-1.2,3.4C551,238.9,550,239.3,548.6,239.3z M548.7,231.1
		c-0.9,0-1.7,0.3-2.2,0.9s-0.8,1.5-0.8,2.6c0,1.1,0.3,1.9,0.8,2.5s1.3,0.9,2.2,0.9c0.9,0,1.6-0.3,2.1-0.9c0.5-0.6,0.8-1.5,0.8-2.6
		c0-1.1-0.2-2-0.8-2.6C550.3,231.4,549.6,231.1,548.7,231.1z"/>
	<path class="st6" d="M567.6,239.1h-1.4v-1.4h0c-0.6,1.1-1.5,1.6-2.8,1.6c-2.1,0-3.2-1.3-3.2-3.8v-5.4h1.4v5.2
		c0,1.9,0.7,2.8,2.2,2.8c0.7,0,1.3-0.3,1.7-0.8c0.5-0.5,0.7-1.2,0.7-2v-5.2h1.4V239.1z"/>
	<path class="st6" d="M578,239.1h-1.4V234c0-1.9-0.7-2.9-2.1-2.9c-0.7,0-1.3,0.3-1.8,0.8c-0.5,0.5-0.7,1.2-0.7,2.1v5.1h-1.4v-9h1.4
		v1.5h0c0.7-1.1,1.7-1.7,3-1.7c1,0,1.7,0.3,2.3,1c0.5,0.6,0.8,1.6,0.8,2.8V239.1z"/>
	<path class="st6" d="M587.1,239.1h-1.4v-1.4h0c-0.6,1.1-1.5,1.6-2.8,1.6c-0.9,0-1.6-0.2-2.1-0.7c-0.5-0.5-0.8-1.1-0.8-1.9
		c0-1.7,1-2.7,3-2.9l2.7-0.4c0-1.5-0.6-2.3-1.9-2.3c-1.1,0-2.1,0.4-2.9,1.1v-1.5c0.9-0.6,1.9-0.8,3.1-0.8c2.1,0,3.2,1.1,3.2,3.4
		V239.1z M585.7,234.5l-2.2,0.3c-0.7,0.1-1.2,0.3-1.5,0.5c-0.3,0.2-0.5,0.7-0.5,1.3c0,0.4,0.2,0.8,0.5,1.1c0.3,0.3,0.7,0.4,1.3,0.4
		c0.7,0,1.3-0.2,1.8-0.8c0.5-0.5,0.7-1.1,0.7-1.9V234.5z"/>
	<path class="st6" d="M596.2,239.1h-1.4v-13.3h1.4V239.1z"/>
	<path class="st6" d="M600.6,239.1h-1.4v-13.3h1.4V239.1z"/>
	<path class="st6" d="M609.9,239.1h-1.4v-1.4h0c-0.6,1.1-1.5,1.6-2.8,1.6c-0.9,0-1.6-0.2-2.1-0.7c-0.5-0.5-0.8-1.1-0.8-1.9
		c0-1.7,1-2.7,3-2.9l2.7-0.4c0-1.5-0.6-2.3-1.9-2.3c-1.1,0-2.1,0.4-2.9,1.1v-1.5c0.9-0.6,1.9-0.8,3.1-0.8c2.1,0,3.2,1.1,3.2,3.4
		V239.1z M608.5,234.5l-2.2,0.3c-0.7,0.1-1.2,0.3-1.5,0.5c-0.3,0.2-0.5,0.7-0.5,1.3c0,0.4,0.2,0.8,0.5,1.1c0.3,0.3,0.7,0.4,1.3,0.4
		c0.7,0,1.3-0.2,1.8-0.8c0.5-0.5,0.7-1.1,0.7-1.9V234.5z"/>
	<path class="st6" d="M619.7,230.1l-3.6,9h-1.4l-3.4-9h1.6l2.3,6.5c0.2,0.5,0.3,0.9,0.3,1.3h0c0.1-0.5,0.2-0.9,0.3-1.2l2.4-6.6
		H619.7z"/>
	<path class="st6" d="M628.5,235h-6.4c0,1,0.3,1.8,0.8,2.3s1.2,0.8,2.1,0.8c1,0,1.9-0.3,2.8-1v1.4c-0.8,0.6-1.8,0.9-3.1,0.9
		c-1.3,0-2.3-0.4-3-1.2c-0.7-0.8-1.1-2-1.1-3.4c0-1.4,0.4-2.5,1.2-3.4c0.8-0.9,1.8-1.3,3-1.3s2.1,0.4,2.7,1.1s1,1.8,1,3.2V235z
		 M627,233.7c0-0.8-0.2-1.5-0.6-1.9c-0.4-0.5-0.9-0.7-1.6-0.7c-0.7,0-1.3,0.2-1.7,0.7s-0.8,1.1-0.9,1.9H627z"/>
	<path class="st6" d="M643.3,243.2h-1.4v-5.7h0c-0.6,1.2-1.7,1.8-3.1,1.8c-1.1,0-2-0.4-2.7-1.2c-0.7-0.8-1-1.9-1-3.3
		c0-1.5,0.4-2.7,1.1-3.6c0.8-0.9,1.8-1.3,3-1.3c1.2,0,2.1,0.5,2.7,1.5h0v-1.2h1.4V243.2z M641.8,235v-1.3c0-0.7-0.2-1.4-0.7-1.9
		c-0.5-0.5-1.1-0.8-1.8-0.8c-0.9,0-1.6,0.3-2.1,1c-0.5,0.6-0.8,1.5-0.8,2.7c0,1,0.2,1.8,0.7,2.4c0.5,0.6,1.1,0.9,1.9,0.9
		c0.8,0,1.5-0.3,2-0.9C641.6,236.7,641.8,235.9,641.8,235z"/>
	<path class="st6" d="M653.5,239.1H652v-1.4h0c-0.6,1.1-1.5,1.6-2.8,1.6c-2.1,0-3.2-1.3-3.2-3.8v-5.4h1.4v5.2c0,1.9,0.7,2.8,2.2,2.8
		c0.7,0,1.3-0.3,1.7-0.8c0.5-0.5,0.7-1.2,0.7-2v-5.2h1.4V239.1z"/>
	<path class="st6" d="M663.6,235h-6.4c0,1,0.3,1.8,0.8,2.3s1.2,0.8,2.1,0.8c1,0,1.9-0.3,2.8-1v1.4c-0.8,0.6-1.8,0.9-3.1,0.9
		c-1.3,0-2.3-0.4-3-1.2c-0.7-0.8-1.1-2-1.1-3.4c0-1.4,0.4-2.5,1.2-3.4c0.8-0.9,1.8-1.3,3-1.3s2.1,0.4,2.7,1.1s1,1.8,1,3.2V235z
		 M662.1,233.7c0-0.8-0.2-1.5-0.6-1.9c-0.4-0.5-0.9-0.7-1.6-0.7c-0.7,0-1.3,0.2-1.7,0.7s-0.8,1.1-0.9,1.9H662.1z"/>
	<path class="st6" d="M672.2,239.1h-1.4v-13.3h1.4V239.1z"/>
	<path class="st6" d="M682.3,235H676c0,1,0.3,1.8,0.8,2.3s1.2,0.8,2.1,0.8c1,0,1.9-0.3,2.8-1v1.4c-0.8,0.6-1.8,0.9-3.1,0.9
		c-1.3,0-2.3-0.4-3-1.2c-0.7-0.8-1.1-2-1.1-3.4c0-1.4,0.4-2.5,1.2-3.4c0.8-0.9,1.8-1.3,3-1.3s2.1,0.4,2.7,1.1s1,1.8,1,3.2V235z
		 M680.9,233.7c0-0.8-0.2-1.5-0.6-1.9c-0.4-0.5-0.9-0.7-1.6-0.7c-0.7,0-1.3,0.2-1.7,0.7s-0.8,1.1-0.9,1.9H680.9z"/>
	<path class="st6" d="M697.1,239.1h-1.4v-1.5h0c-0.7,1.2-1.7,1.7-3.1,1.7c-1.1,0-2-0.4-2.7-1.2c-0.7-0.8-1-1.9-1-3.3
		c0-1.5,0.4-2.7,1.1-3.6s1.7-1.3,3-1.3c1.2,0,2.1,0.5,2.7,1.5h0v-5.6h1.4V239.1z M695.7,235v-1.3c0-0.7-0.2-1.3-0.7-1.8
		s-1.1-0.8-1.8-0.8c-0.9,0-1.6,0.3-2.1,1s-0.8,1.5-0.8,2.7c0,1,0.2,1.9,0.7,2.5c0.5,0.6,1.1,0.9,1.9,0.9c0.8,0,1.5-0.3,2-0.9
		C695.4,236.6,695.7,235.9,695.7,235z"/>
	<path class="st6" d="M706.5,239.1H705v-1.4h0c-0.6,1.1-1.5,1.6-2.8,1.6c-0.9,0-1.6-0.2-2.1-0.7c-0.5-0.5-0.8-1.1-0.8-1.9
		c0-1.7,1-2.7,3-2.9l2.7-0.4c0-1.5-0.6-2.3-1.9-2.3c-1.1,0-2.1,0.4-2.9,1.1v-1.5c0.9-0.6,1.9-0.8,3.1-0.8c2.1,0,3.2,1.1,3.2,3.4
		V239.1z M705,234.5l-2.2,0.3c-0.7,0.1-1.2,0.3-1.5,0.5c-0.3,0.2-0.5,0.7-0.5,1.3c0,0.4,0.2,0.8,0.5,1.1c0.3,0.3,0.7,0.4,1.3,0.4
		c0.7,0,1.3-0.2,1.8-0.8c0.5-0.5,0.7-1.1,0.7-1.9V234.5z"/>
	<path class="st6" d="M720.6,239.1h-1.4v-1.4h0c-0.6,1.1-1.5,1.6-2.8,1.6c-0.9,0-1.6-0.2-2.1-0.7c-0.5-0.5-0.8-1.1-0.8-1.9
		c0-1.7,1-2.7,3-2.9l2.7-0.4c0-1.5-0.6-2.3-1.9-2.3c-1.1,0-2.1,0.4-2.9,1.1v-1.5c0.9-0.6,1.9-0.8,3.1-0.8c2.1,0,3.2,1.1,3.2,3.4
		V239.1z M719.1,234.5l-2.2,0.3c-0.7,0.1-1.2,0.3-1.5,0.5c-0.3,0.2-0.5,0.7-0.5,1.3c0,0.4,0.2,0.8,0.5,1.1c0.3,0.3,0.7,0.4,1.3,0.4
		c0.7,0,1.3-0.2,1.8-0.8c0.5-0.5,0.7-1.1,0.7-1.9V234.5z"/>
	<path class="st6" d="M729.4,238.7c-0.7,0.4-1.5,0.6-2.5,0.6c-1.3,0-2.3-0.4-3.1-1.3c-0.8-0.8-1.2-1.9-1.2-3.2
		c0-1.5,0.4-2.7,1.3-3.6s2-1.3,3.4-1.3c0.8,0,1.5,0.1,2.1,0.4v1.5c-0.7-0.5-1.4-0.7-2.1-0.7c-0.9,0-1.7,0.3-2.3,1
		c-0.6,0.7-0.9,1.5-0.9,2.6c0,1.1,0.3,1.9,0.8,2.5c0.6,0.6,1.3,0.9,2.2,0.9c0.8,0,1.5-0.3,2.2-0.8V238.7z"/>
	<path class="st6" d="M737.7,238.7c-0.7,0.4-1.5,0.6-2.5,0.6c-1.3,0-2.3-0.4-3.1-1.3c-0.8-0.8-1.2-1.9-1.2-3.2
		c0-1.5,0.4-2.7,1.3-3.6s2-1.3,3.4-1.3c0.8,0,1.5,0.1,2.1,0.4v1.5c-0.7-0.5-1.4-0.7-2.1-0.7c-0.9,0-1.7,0.3-2.3,1
		c-0.6,0.7-0.9,1.5-0.9,2.6c0,1.1,0.3,1.9,0.8,2.5c0.6,0.6,1.3,0.9,2.2,0.9c0.8,0,1.5-0.3,2.2-0.8V238.7z"/>
	<path class="st6" d="M747.1,235h-6.4c0,1,0.3,1.8,0.8,2.3s1.2,0.8,2.1,0.8c1,0,1.9-0.3,2.8-1v1.4c-0.8,0.6-1.8,0.9-3.1,0.9
		c-1.3,0-2.3-0.4-3-1.2c-0.7-0.8-1.1-2-1.1-3.4c0-1.4,0.4-2.5,1.2-3.4c0.8-0.9,1.8-1.3,3-1.3s2.1,0.4,2.7,1.1s1,1.8,1,3.2V235z
		 M745.7,233.7c0-0.8-0.2-1.5-0.6-1.9c-0.4-0.5-0.9-0.7-1.6-0.7c-0.7,0-1.3,0.2-1.7,0.7s-0.8,1.1-0.9,1.9H745.7z"/>
	<path class="st6" d="M748.8,238.8v-1.5c0.8,0.6,1.6,0.9,2.6,0.9c1.3,0,1.9-0.4,1.9-1.3c0-0.2-0.1-0.4-0.2-0.6
		c-0.1-0.2-0.3-0.3-0.4-0.4c-0.2-0.1-0.4-0.2-0.7-0.3c-0.2-0.1-0.5-0.2-0.8-0.3c-0.4-0.2-0.7-0.3-1-0.5c-0.3-0.2-0.6-0.3-0.8-0.5
		c-0.2-0.2-0.4-0.4-0.5-0.7c-0.1-0.3-0.2-0.6-0.2-0.9c0-0.4,0.1-0.8,0.3-1.1c0.2-0.3,0.5-0.6,0.8-0.8c0.3-0.2,0.7-0.4,1.1-0.5
		c0.4-0.1,0.8-0.2,1.3-0.2c0.8,0,1.5,0.1,2.1,0.4v1.5c-0.7-0.4-1.4-0.7-2.3-0.7c-0.3,0-0.5,0-0.7,0.1c-0.2,0.1-0.4,0.1-0.6,0.3
		c-0.2,0.1-0.3,0.2-0.4,0.4c-0.1,0.2-0.1,0.3-0.1,0.5c0,0.2,0,0.4,0.1,0.6c0.1,0.2,0.2,0.3,0.4,0.4s0.4,0.2,0.6,0.3s0.5,0.2,0.8,0.3
		c0.4,0.2,0.8,0.3,1.1,0.5s0.6,0.3,0.8,0.5c0.2,0.2,0.4,0.4,0.5,0.7c0.1,0.3,0.2,0.6,0.2,0.9c0,0.4-0.1,0.8-0.3,1.2
		c-0.2,0.3-0.5,0.6-0.8,0.8s-0.7,0.4-1.1,0.5s-0.9,0.2-1.3,0.2C750.3,239.3,749.5,239.1,748.8,238.8z"/>
	<path class="st6" d="M760.7,239.3c-1.3,0-2.4-0.4-3.2-1.3c-0.8-0.8-1.2-2-1.2-3.3c0-1.5,0.4-2.7,1.2-3.5s1.9-1.3,3.3-1.3
		c1.3,0,2.4,0.4,3.1,1.2c0.8,0.8,1.1,2,1.1,3.4c0,1.4-0.4,2.6-1.2,3.4C763.2,238.9,762.1,239.3,760.7,239.3z M760.8,231.1
		c-0.9,0-1.7,0.3-2.2,0.9s-0.8,1.5-0.8,2.6c0,1.1,0.3,1.9,0.8,2.5s1.3,0.9,2.2,0.9c0.9,0,1.6-0.3,2.1-0.9c0.5-0.6,0.8-1.5,0.8-2.6
		c0-1.1-0.3-2-0.8-2.6C762.5,231.4,761.8,231.1,760.8,231.1z"/>
	<path class="st6" d="M778.9,239.1h-1.4v-1.4h0c-0.6,1.1-1.5,1.6-2.8,1.6c-0.9,0-1.6-0.2-2.1-0.7c-0.5-0.5-0.8-1.1-0.8-1.9
		c0-1.7,1-2.7,3-2.9l2.7-0.4c0-1.5-0.6-2.3-1.9-2.3c-1.1,0-2.1,0.4-2.9,1.1v-1.5c0.9-0.6,1.9-0.8,3.1-0.8c2.1,0,3.2,1.1,3.2,3.4
		V239.1z M777.4,234.5l-2.2,0.3c-0.7,0.1-1.2,0.3-1.5,0.5c-0.3,0.2-0.5,0.7-0.5,1.3c0,0.4,0.2,0.8,0.5,1.1c0.3,0.3,0.7,0.4,1.3,0.4
		c0.7,0,1.3-0.2,1.8-0.8c0.5-0.5,0.7-1.1,0.7-1.9V234.5z"/>
</g>
<g class="st5">
	<path class="st6" d="M511.9,263.1h-1.4v-13.3h1.4V263.1z"/>
	<path class="st6" d="M521.3,263.1h-1.4v-1.4h0c-0.6,1.1-1.5,1.6-2.8,1.6c-0.9,0-1.6-0.2-2.1-0.7c-0.5-0.5-0.8-1.1-0.8-1.9
		c0-1.7,1-2.7,3-2.9l2.7-0.4c0-1.5-0.6-2.3-1.9-2.3c-1.1,0-2.1,0.4-2.9,1.1v-1.5c0.9-0.6,1.9-0.8,3.1-0.8c2.1,0,3.2,1.1,3.2,3.4
		V263.1z M519.8,258.5l-2.2,0.3c-0.7,0.1-1.2,0.3-1.5,0.5c-0.3,0.2-0.5,0.7-0.5,1.3c0,0.4,0.2,0.8,0.5,1.1c0.3,0.3,0.7,0.4,1.3,0.4
		c0.7,0,1.3-0.2,1.8-0.8c0.5-0.5,0.7-1.1,0.7-1.9V258.5z"/>
	<path class="st6" d="M523.4,262.8v-1.5c0.8,0.6,1.6,0.9,2.6,0.9c1.3,0,1.9-0.4,1.9-1.3c0-0.2-0.1-0.4-0.2-0.6
		c-0.1-0.2-0.3-0.3-0.4-0.4c-0.2-0.1-0.4-0.2-0.7-0.3c-0.2-0.1-0.5-0.2-0.8-0.3c-0.4-0.2-0.7-0.3-1-0.5c-0.3-0.2-0.6-0.3-0.8-0.5
		c-0.2-0.2-0.4-0.4-0.5-0.7c-0.1-0.3-0.2-0.6-0.2-0.9c0-0.4,0.1-0.8,0.3-1.1c0.2-0.3,0.5-0.6,0.8-0.8c0.3-0.2,0.7-0.4,1.1-0.5
		c0.4-0.1,0.8-0.2,1.3-0.2c0.8,0,1.5,0.1,2.1,0.4v1.5c-0.7-0.4-1.4-0.7-2.3-0.7c-0.3,0-0.5,0-0.7,0.1c-0.2,0.1-0.4,0.1-0.6,0.3
		c-0.2,0.1-0.3,0.2-0.4,0.4c-0.1,0.2-0.1,0.3-0.1,0.5c0,0.2,0,0.4,0.1,0.6c0.1,0.2,0.2,0.3,0.4,0.4s0.4,0.2,0.6,0.3s0.5,0.2,0.8,0.3
		c0.4,0.2,0.8,0.3,1.1,0.5s0.6,0.3,0.8,0.5c0.2,0.2,0.4,0.4,0.5,0.7c0.1,0.3,0.2,0.6,0.2,0.9c0,0.4-0.1,0.8-0.3,1.2
		c-0.2,0.3-0.5,0.6-0.8,0.8s-0.7,0.4-1.1,0.5s-0.9,0.2-1.3,0.2C524.9,263.3,524.1,263.1,523.4,262.8z"/>
	<path class="st6" d="M542.7,262.7c-0.7,0.4-1.5,0.6-2.5,0.6c-1.3,0-2.3-0.4-3.1-1.3c-0.8-0.8-1.2-1.9-1.2-3.2
		c0-1.5,0.4-2.7,1.3-3.6s2-1.3,3.4-1.3c0.8,0,1.5,0.1,2.1,0.4v1.5c-0.7-0.5-1.4-0.7-2.1-0.7c-0.9,0-1.7,0.3-2.3,1
		c-0.6,0.7-0.9,1.5-0.9,2.6c0,1.1,0.3,1.9,0.8,2.5c0.6,0.6,1.3,0.9,2.2,0.9c0.8,0,1.5-0.3,2.2-0.8V262.7z"/>
	<path class="st6" d="M552.1,259h-6.4c0,1,0.3,1.8,0.8,2.3s1.2,0.8,2.1,0.8c1,0,1.9-0.3,2.8-1v1.4c-0.8,0.6-1.8,0.9-3.1,0.9
		c-1.3,0-2.3-0.4-3-1.2c-0.7-0.8-1.1-2-1.1-3.4c0-1.4,0.4-2.5,1.2-3.4c0.8-0.9,1.8-1.3,3-1.3s2.1,0.4,2.7,1.1s1,1.8,1,3.2V259z
		 M550.6,257.7c0-0.8-0.2-1.5-0.6-1.9c-0.4-0.5-0.9-0.7-1.6-0.7c-0.7,0-1.3,0.2-1.7,0.7s-0.8,1.1-0.9,1.9H550.6z M550.4,249.5
		l-2.3,2.9H547l2-2.9H550.4z"/>
	<path class="st6" d="M555.7,263.1h-1.4v-13.3h1.4V263.1z"/>
	<path class="st6" d="M565.9,263.1h-1.4v-1.4h0c-0.6,1.1-1.5,1.6-2.8,1.6c-2.1,0-3.2-1.3-3.2-3.8v-5.4h1.4v5.2
		c0,1.9,0.7,2.8,2.2,2.8c0.7,0,1.3-0.3,1.7-0.8c0.5-0.5,0.7-1.2,0.7-2v-5.2h1.4V263.1z"/>
	<path class="st6" d="M570.3,263.1h-1.4v-13.3h1.4V263.1z"/>
	<path class="st6" d="M579.6,263.1h-1.4v-1.4h0c-0.6,1.1-1.5,1.6-2.8,1.6c-0.9,0-1.6-0.2-2.1-0.7c-0.5-0.5-0.8-1.1-0.8-1.9
		c0-1.7,1-2.7,3-2.9l2.7-0.4c0-1.5-0.6-2.3-1.9-2.3c-1.1,0-2.1,0.4-2.9,1.1v-1.5c0.9-0.6,1.9-0.8,3.1-0.8c2.1,0,3.2,1.1,3.2,3.4
		V263.1z M578.2,258.5l-2.2,0.3c-0.7,0.1-1.2,0.3-1.5,0.5c-0.3,0.2-0.5,0.7-0.5,1.3c0,0.4,0.2,0.8,0.5,1.1c0.3,0.3,0.7,0.4,1.3,0.4
		c0.7,0,1.3-0.2,1.8-0.8c0.5-0.5,0.7-1.1,0.7-1.9V258.5z"/>
	<path class="st6" d="M581.8,262.8v-1.5c0.8,0.6,1.6,0.9,2.6,0.9c1.3,0,1.9-0.4,1.9-1.3c0-0.2-0.1-0.4-0.2-0.6
		c-0.1-0.2-0.3-0.3-0.4-0.4c-0.2-0.1-0.4-0.2-0.7-0.3c-0.2-0.1-0.5-0.2-0.8-0.3c-0.4-0.2-0.7-0.3-1-0.5c-0.3-0.2-0.6-0.3-0.8-0.5
		c-0.2-0.2-0.4-0.4-0.5-0.7c-0.1-0.3-0.2-0.6-0.2-0.9c0-0.4,0.1-0.8,0.3-1.1c0.2-0.3,0.5-0.6,0.8-0.8c0.3-0.2,0.7-0.4,1.1-0.5
		c0.4-0.1,0.8-0.2,1.3-0.2c0.8,0,1.5,0.1,2.1,0.4v1.5c-0.7-0.4-1.4-0.7-2.3-0.7c-0.3,0-0.5,0-0.7,0.1c-0.2,0.1-0.4,0.1-0.6,0.3
		c-0.2,0.1-0.3,0.2-0.4,0.4c-0.1,0.2-0.1,0.3-0.1,0.5c0,0.2,0,0.4,0.1,0.6c0.1,0.2,0.2,0.3,0.4,0.4s0.4,0.2,0.6,0.3s0.5,0.2,0.8,0.3
		c0.4,0.2,0.8,0.3,1.1,0.5s0.6,0.3,0.8,0.5c0.2,0.2,0.4,0.4,0.5,0.7c0.1,0.3,0.2,0.6,0.2,0.9c0,0.4-0.1,0.8-0.3,1.2
		c-0.2,0.3-0.5,0.6-0.8,0.8s-0.7,0.4-1.1,0.5s-0.9,0.2-1.3,0.2C583.3,263.3,582.5,263.1,581.8,262.8z"/>
	<path class="st6" d="M602.6,263.1h-1.4v-1.5h0c-0.7,1.2-1.7,1.7-3.1,1.7c-1.1,0-2-0.4-2.7-1.2c-0.7-0.8-1-1.9-1-3.3
		c0-1.5,0.4-2.7,1.1-3.6s1.7-1.3,3-1.3c1.2,0,2.1,0.5,2.7,1.5h0v-5.6h1.4V263.1z M601.1,259v-1.3c0-0.7-0.2-1.3-0.7-1.8
		s-1.1-0.8-1.8-0.8c-0.9,0-1.6,0.3-2.1,1s-0.8,1.5-0.8,2.7c0,1,0.2,1.9,0.7,2.5c0.5,0.6,1.1,0.9,1.9,0.9c0.8,0,1.5-0.3,2-0.9
		C600.9,260.6,601.1,259.9,601.1,259z"/>
	<path class="st6" d="M612.7,259h-6.4c0,1,0.3,1.8,0.8,2.3s1.2,0.8,2.1,0.8c1,0,1.9-0.3,2.8-1v1.4c-0.8,0.6-1.8,0.9-3.1,0.9
		c-1.3,0-2.3-0.4-3-1.2c-0.7-0.8-1.1-2-1.1-3.4c0-1.4,0.4-2.5,1.2-3.4c0.8-0.9,1.8-1.3,3-1.3s2.1,0.4,2.7,1.1s1,1.8,1,3.2V259z
		 M611.3,257.7c0-0.8-0.2-1.5-0.6-1.9c-0.4-0.5-0.9-0.7-1.6-0.7c-0.7,0-1.3,0.2-1.7,0.7s-0.8,1.1-0.9,1.9H611.3z"/>
	<path class="st6" d="M616.4,263.1h-1.4v-13.3h1.4V263.1z"/>
	<path class="st6" d="M630.3,262.7c-0.7,0.4-1.5,0.6-2.5,0.6c-1.3,0-2.3-0.4-3.1-1.3c-0.8-0.8-1.2-1.9-1.2-3.2
		c0-1.5,0.4-2.7,1.3-3.6s2-1.3,3.4-1.3c0.8,0,1.5,0.1,2.1,0.4v1.5c-0.7-0.5-1.4-0.7-2.1-0.7c-0.9,0-1.7,0.3-2.3,1
		c-0.6,0.7-0.9,1.5-0.9,2.6c0,1.1,0.3,1.9,0.8,2.5c0.6,0.6,1.3,0.9,2.2,0.9c0.8,0,1.5-0.3,2.2-0.8V262.7z"/>
	<path class="st6" d="M639.8,263.1h-1.4v-1.4h0c-0.6,1.1-1.5,1.6-2.8,1.6c-2.1,0-3.2-1.3-3.2-3.8v-5.4h1.4v5.2
		c0,1.9,0.7,2.8,2.2,2.8c0.7,0,1.3-0.3,1.7-0.8c0.5-0.5,0.7-1.2,0.7-2v-5.2h1.4V263.1z"/>
	<path class="st6" d="M649.9,259h-6.4c0,1,0.3,1.8,0.8,2.3s1.2,0.8,2.1,0.8c1,0,1.9-0.3,2.8-1v1.4c-0.8,0.6-1.8,0.9-3.1,0.9
		c-1.3,0-2.3-0.4-3-1.2c-0.7-0.8-1.1-2-1.1-3.4c0-1.4,0.4-2.5,1.2-3.4c0.8-0.9,1.8-1.3,3-1.3s2.1,0.4,2.7,1.1s1,1.8,1,3.2V259z
		 M648.5,257.7c0-0.8-0.2-1.5-0.6-1.9c-0.4-0.5-0.9-0.7-1.6-0.7c-0.7,0-1.3,0.2-1.7,0.7s-0.8,1.1-0.9,1.9H648.5z"/>
	<path class="st6" d="M656.8,255.6c-0.3-0.2-0.6-0.3-1.1-0.3c-0.6,0-1.1,0.3-1.5,0.9c-0.4,0.6-0.6,1.4-0.6,2.4v4.6h-1.4v-9h1.4v1.9
		h0c0.2-0.6,0.5-1.1,0.9-1.5c0.4-0.4,0.9-0.5,1.4-0.5c0.4,0,0.7,0,0.9,0.1V255.6z"/>
	<path class="st6" d="M659.9,261.8L659.9,261.8l0,5.4h-1.4v-13.1h1.4v1.6h0c0.7-1.2,1.7-1.8,3.1-1.8c1.2,0,2.1,0.4,2.7,1.2
		s1,1.9,1,3.2c0,1.5-0.4,2.7-1.1,3.6c-0.7,0.9-1.7,1.4-3,1.4C661.4,263.3,660.5,262.8,659.9,261.8z M659.8,258.2v1.3
		c0,0.7,0.2,1.4,0.7,1.9c0.5,0.5,1.1,0.8,1.8,0.8c0.9,0,1.6-0.3,2.1-1c0.5-0.7,0.7-1.6,0.7-2.8c0-1-0.2-1.8-0.7-2.4
		s-1.1-0.9-1.9-0.9c-0.8,0-1.5,0.3-2,0.9S659.8,257.3,659.8,258.2z"/>
	<path class="st6" d="M672.7,263.3c-1.3,0-2.4-0.4-3.2-1.3c-0.8-0.8-1.2-2-1.2-3.3c0-1.5,0.4-2.7,1.2-3.5s1.9-1.3,3.3-1.3
		c1.3,0,2.4,0.4,3.1,1.2c0.8,0.8,1.1,2,1.1,3.4c0,1.4-0.4,2.6-1.2,3.4C675.2,262.9,674.1,263.3,672.7,263.3z M672.8,255.1
		c-0.9,0-1.7,0.3-2.2,0.9s-0.8,1.5-0.8,2.6c0,1.1,0.3,1.9,0.8,2.5s1.3,0.9,2.2,0.9c0.9,0,1.6-0.3,2.1-0.9c0.5-0.6,0.8-1.5,0.8-2.6
		c0-1.1-0.2-2-0.8-2.6C674.5,255.4,673.8,255.1,672.8,255.1z"/>
	<path class="st6" d="M680,263.3c-0.3,0-0.5-0.1-0.7-0.3c-0.2-0.2-0.3-0.4-0.3-0.7s0.1-0.5,0.3-0.7c0.2-0.2,0.4-0.3,0.7-0.3
		c0.3,0,0.5,0.1,0.7,0.3c0.2,0.2,0.3,0.4,0.3,0.7s-0.1,0.5-0.3,0.7S680.3,263.3,680,263.3z"/>
</g>
<g class="st5">
	<path class="st7" d="M392.3,211.1v-12.6h4.5c4.5,0,6.7,2,6.7,6.1c0,2-0.6,3.5-1.8,4.7s-2.8,1.8-4.9,1.8H392.3z M395.1,200.8v8h1.4
		c1.2,0,2.2-0.4,2.9-1.1s1.1-1.7,1.1-3c0-1.2-0.3-2.1-1-2.8c-0.7-0.7-1.7-1-2.9-1H395.1z"/>
	<path class="st7" d="M409.5,211.3c-1.5,0-2.7-0.4-3.5-1.3s-1.3-2-1.3-3.4c0-1.5,0.4-2.7,1.3-3.5c0.9-0.8,2.1-1.3,3.6-1.3
		c1.5,0,2.7,0.4,3.5,1.3c0.8,0.8,1.3,2,1.3,3.3c0,1.5-0.4,2.7-1.3,3.5S411.1,211.3,409.5,211.3z M409.6,204c-0.7,0-1.2,0.2-1.5,0.7
		s-0.5,1.1-0.5,1.9c0,1.7,0.7,2.6,2.1,2.6c1.3,0,2-0.9,2-2.7C411.6,204.8,411,204,409.6,204z"/>
	<path class="st7" d="M430.6,211.1h-2.8V206c0-1.3-0.5-2-1.4-2c-0.5,0-0.8,0.2-1.1,0.6s-0.4,0.9-0.4,1.5v5H422v-5.2
		c0-1.3-0.5-1.9-1.4-1.9c-0.5,0-0.9,0.2-1.1,0.6s-0.4,0.9-0.4,1.5v5h-2.8v-9h2.8v1.4h0c0.3-0.5,0.7-0.9,1.2-1.2
		c0.5-0.3,1.1-0.5,1.7-0.5c1.3,0,2.1,0.6,2.6,1.7c0.7-1.1,1.7-1.7,3-1.7c2,0,2.9,1.2,2.9,3.6V211.1z"/>
	<path class="st7" d="M434.2,200.7c-0.5,0-0.9-0.1-1.2-0.4c-0.3-0.3-0.4-0.6-0.4-1c0-0.4,0.1-0.8,0.4-1s0.7-0.4,1.2-0.4
		c0.5,0,0.9,0.1,1.2,0.4s0.4,0.6,0.4,1c0,0.4-0.1,0.8-0.4,1S434.6,200.7,434.2,200.7z M435.5,211.1h-2.8v-9h2.8V211.1z"/>
	<path class="st7" d="M446.6,211.1h-2.8v-5c0-1.4-0.5-2.1-1.5-2.1c-0.5,0-0.9,0.2-1.2,0.6s-0.5,0.8-0.5,1.4v5.1h-2.8v-9h2.8v1.4h0
		c0.7-1.1,1.6-1.6,2.9-1.6c2,0,3,1.2,3,3.7V211.1z"/>
	<path class="st7" d="M450.2,200.7c-0.5,0-0.9-0.1-1.2-0.4c-0.3-0.3-0.4-0.6-0.4-1c0-0.4,0.1-0.8,0.4-1s0.7-0.4,1.2-0.4
		c0.5,0,0.9,0.1,1.2,0.4s0.4,0.6,0.4,1c0,0.4-0.1,0.8-0.4,1S450.6,200.7,450.2,200.7z M451.5,211.1h-2.8v-9h2.8V211.1z"/>
	<path class="st7" d="M458.2,211.3c-1.5,0-2.7-0.4-3.5-1.3s-1.3-2-1.3-3.4c0-1.5,0.4-2.7,1.3-3.5c0.9-0.8,2.1-1.3,3.6-1.3
		c1.5,0,2.7,0.4,3.5,1.3c0.8,0.8,1.3,2,1.3,3.3c0,1.5-0.4,2.7-1.3,3.5S459.7,211.3,458.2,211.3z M458.2,204c-0.7,0-1.2,0.2-1.5,0.7
		s-0.5,1.1-0.5,1.9c0,1.7,0.7,2.6,2.1,2.6c1.3,0,2-0.9,2-2.7C460.2,204.8,459.6,204,458.2,204z"/>
	<path class="st7" d="M478.6,211.1h-2.8v-1.2h0c-0.6,1-1.6,1.5-2.8,1.5c-1.1,0-2-0.4-2.7-1.2s-1-1.9-1-3.3c0-1.5,0.4-2.7,1.1-3.6
		s1.7-1.3,3-1.3c1.2,0,2,0.4,2.4,1.2h0v-5.4h2.8V211.1z M475.9,206.7V206c0-0.6-0.2-1.1-0.5-1.5s-0.8-0.6-1.3-0.6
		c-0.6,0-1.1,0.2-1.4,0.7c-0.3,0.5-0.5,1.1-0.5,2c0,0.8,0.2,1.4,0.5,1.8s0.8,0.6,1.4,0.6c0.6,0,1-0.2,1.4-0.7
		S475.9,207.5,475.9,206.7z"/>
	<path class="st7" d="M489.1,207.4h-5.9c0.1,1.3,0.9,2,2.5,2c1,0,1.9-0.2,2.6-0.7v2c-0.8,0.4-1.9,0.7-3.2,0.7
		c-1.5,0-2.6-0.4-3.4-1.2s-1.2-1.9-1.2-3.4c0-1.5,0.4-2.7,1.3-3.6s1.9-1.3,3.2-1.3c1.3,0,2.3,0.4,3,1.2s1.1,1.8,1.1,3.2V207.4z
		 M486.5,205.7c0-1.3-0.5-1.9-1.6-1.9c-0.4,0-0.8,0.2-1.2,0.6s-0.5,0.8-0.6,1.4H486.5z"/>
</g>
<g class="st5">
	<path class="st7" d="M402.1,233.1h-2.6v-1.3h0c-0.6,1-1.5,1.5-2.7,1.5c-0.9,0-1.6-0.2-2.1-0.7c-0.5-0.5-0.8-1.2-0.8-2
		c0-1.7,1-2.8,3.1-3l2.4-0.3c0-1-0.5-1.5-1.6-1.5c-1.1,0-2.1,0.3-3.1,1v-2.1c0.4-0.2,0.9-0.4,1.6-0.5s1.3-0.2,1.8-0.2
		c2.6,0,3.8,1.3,3.8,3.8V233.1z M399.5,229.4v-0.6l-1.6,0.2c-0.9,0.1-1.4,0.5-1.4,1.2c0,0.3,0.1,0.6,0.3,0.8
		c0.2,0.2,0.5,0.3,0.9,0.3c0.5,0,0.9-0.2,1.3-0.5C399.3,230.4,399.5,230,399.5,229.4z"/>
	<path class="st7" d="M413.1,233.1h-2.8v-1.2h0c-0.6,1-1.6,1.5-2.8,1.5c-1.1,0-2-0.4-2.7-1.2s-1-1.9-1-3.3c0-1.5,0.4-2.7,1.1-3.6
		s1.7-1.3,3-1.3c1.2,0,2,0.4,2.4,1.2h0v-5.4h2.8V233.1z M410.4,228.7V228c0-0.6-0.2-1.1-0.5-1.5s-0.8-0.6-1.3-0.6
		c-0.6,0-1.1,0.2-1.4,0.7c-0.3,0.5-0.5,1.1-0.5,2c0,0.8,0.2,1.4,0.5,1.8s0.8,0.6,1.4,0.6c0.6,0,1-0.2,1.4-0.7
		S410.4,229.5,410.4,228.7z"/>
	<path class="st7" d="M424.1,233.1h-2.8V228c0-1.3-0.5-2-1.4-2c-0.5,0-0.9,0.2-1.2,0.6s-0.5,0.8-0.5,1.4v5.1h-2.8v-13.3h2.8v5.7h0
		c0.7-1,1.6-1.6,2.8-1.6c2,0,3.1,1.2,3.1,3.7V233.1z"/>
	<path class="st7" d="M434.4,229.4h-5.9c0.1,1.3,0.9,2,2.5,2c1,0,1.9-0.2,2.6-0.7v2c-0.8,0.4-1.9,0.7-3.2,0.7
		c-1.5,0-2.6-0.4-3.4-1.2s-1.2-1.9-1.2-3.4c0-1.5,0.4-2.7,1.3-3.6s1.9-1.3,3.2-1.3c1.3,0,2.3,0.4,3,1.2s1.1,1.8,1.1,3.2V229.4z
		 M431.8,227.7c0-1.3-0.5-1.9-1.6-1.9c-0.4,0-0.8,0.2-1.2,0.6s-0.5,0.8-0.6,1.4H431.8z"/>
	<path class="st7" d="M435.5,232.9v-2.2c0.5,0.3,0.9,0.5,1.4,0.6s0.9,0.2,1.3,0.2c0.5,0,0.9-0.1,1.2-0.2s0.4-0.3,0.4-0.6
		c0-0.2-0.1-0.3-0.2-0.4s-0.3-0.2-0.5-0.3s-0.4-0.2-0.7-0.2s-0.5-0.1-0.7-0.2c-0.4-0.1-0.7-0.3-0.9-0.4c-0.3-0.2-0.5-0.3-0.7-0.5
		s-0.3-0.4-0.4-0.7s-0.1-0.6-0.1-1c0-0.5,0.1-0.9,0.3-1.3s0.5-0.7,0.9-0.9s0.8-0.4,1.3-0.5s1-0.2,1.5-0.2c0.4,0,0.8,0,1.2,0.1
		c0.4,0.1,0.8,0.2,1.2,0.3v2.1c-0.4-0.2-0.7-0.4-1.1-0.5s-0.8-0.2-1.2-0.2c-0.2,0-0.4,0-0.5,0s-0.3,0.1-0.4,0.1
		c-0.1,0.1-0.2,0.1-0.3,0.2c-0.1,0.1-0.1,0.2-0.1,0.3c0,0.2,0.1,0.3,0.2,0.4s0.2,0.2,0.4,0.3c0.2,0.1,0.4,0.2,0.6,0.2
		c0.2,0.1,0.4,0.1,0.6,0.2c0.4,0.1,0.7,0.3,1,0.4s0.6,0.3,0.8,0.5s0.4,0.4,0.5,0.7s0.2,0.6,0.2,1c0,0.5-0.1,1-0.3,1.4
		c-0.2,0.4-0.5,0.7-0.9,0.9c-0.4,0.2-0.8,0.4-1.3,0.5c-0.5,0.1-1,0.2-1.6,0.2C437.2,233.3,436.3,233.2,435.5,232.9z"/>
	<path class="st7" d="M445.4,222.7c-0.5,0-0.9-0.1-1.2-0.4c-0.3-0.3-0.4-0.6-0.4-1c0-0.4,0.1-0.8,0.4-1s0.7-0.4,1.2-0.4
		c0.5,0,0.9,0.1,1.2,0.4s0.4,0.6,0.4,1c0,0.4-0.1,0.8-0.4,1S445.8,222.7,445.4,222.7z M446.7,233.1H444v-9h2.8V233.1z"/>
	<path class="st7" d="M453.4,233.3c-1.5,0-2.7-0.4-3.5-1.3s-1.3-2-1.3-3.4c0-1.5,0.4-2.7,1.3-3.5c0.9-0.8,2.1-1.3,3.6-1.3
		c1.5,0,2.7,0.4,3.5,1.3c0.8,0.8,1.3,2,1.3,3.3c0,1.5-0.4,2.7-1.3,3.5S454.9,233.3,453.4,233.3z M453.4,226c-0.7,0-1.2,0.2-1.5,0.7
		s-0.5,1.1-0.5,1.9c0,1.7,0.7,2.6,2.1,2.6c1.3,0,2-0.9,2-2.7C455.4,226.8,454.8,226,453.4,226z M456.4,219.8l-2.8,2.8h-2l2.3-2.8
		H456.4z"/>
	<path class="st7" d="M468.8,233.1H466v-5c0-1.4-0.5-2.1-1.5-2.1c-0.5,0-0.9,0.2-1.2,0.6s-0.5,0.8-0.5,1.4v5.1h-2.8v-9h2.8v1.4h0
		c0.7-1.1,1.6-1.6,2.9-1.6c2,0,3,1.2,3,3.7V233.1z"/>
	<path class="st7" d="M483.4,233.1h-2.6v-1.3h0c-0.6,1-1.5,1.5-2.7,1.5c-0.9,0-1.6-0.2-2.1-0.7c-0.5-0.5-0.8-1.2-0.8-2
		c0-1.7,1-2.8,3.1-3l2.4-0.3c0-1-0.5-1.5-1.6-1.5c-1.1,0-2.1,0.3-3.1,1v-2.1c0.4-0.2,0.9-0.4,1.6-0.5s1.3-0.2,1.8-0.2
		c2.6,0,3.8,1.3,3.8,3.8V233.1z M480.8,229.4v-0.6l-1.6,0.2c-0.9,0.1-1.4,0.5-1.4,1.2c0,0.3,0.1,0.6,0.3,0.8
		c0.2,0.2,0.5,0.3,0.9,0.3c0.5,0,0.9-0.2,1.3-0.5C480.6,230.4,480.8,230,480.8,229.4z"/>
	<path class="st7" d="M488.4,233.1h-2.8v-13.3h2.8V233.1z"/>
</g>
<g class="st5">
	<path class="st7" d="M370.3,248.6c-0.3-0.2-0.7-0.3-1.2-0.3c-0.6,0-1.1,0.2-1.4,0.7s-0.5,1-0.5,1.8v4.3h-2.8v-9h2.8v1.7h0
		c0.4-1.2,1.2-1.8,2.4-1.8c0.3,0,0.5,0,0.7,0.1V248.6z"/>
	<path class="st7" d="M379.6,251.4h-5.9c0.1,1.3,0.9,2,2.5,2c1,0,1.9-0.2,2.6-0.7v2c-0.8,0.4-1.9,0.7-3.2,0.7
		c-1.5,0-2.6-0.4-3.4-1.2s-1.2-1.9-1.2-3.4c0-1.5,0.4-2.7,1.3-3.6s1.9-1.3,3.2-1.3c1.3,0,2.3,0.4,3,1.2s1.1,1.8,1.1,3.2V251.4z
		 M377,249.7c0-1.3-0.5-1.9-1.6-1.9c-0.4,0-0.8,0.2-1.2,0.6s-0.5,0.8-0.6,1.4H377z"/>
	<path class="st7" d="M388.1,254.8c-0.6,0.4-1.5,0.5-2.7,0.5c-1.4,0-2.5-0.4-3.4-1.3s-1.3-1.9-1.3-3.2c0-1.5,0.5-2.7,1.4-3.6
		s2.1-1.3,3.7-1.3c1.1,0,1.8,0.1,2.3,0.4v2.4c-0.6-0.4-1.2-0.7-1.9-0.7c-0.8,0-1.4,0.2-1.9,0.7c-0.5,0.5-0.7,1.1-0.7,1.9
		c0,0.8,0.2,1.4,0.7,1.9s1.1,0.7,1.8,0.7c0.7,0,1.4-0.2,2-0.7V254.8z"/>
	<path class="st7" d="M398,251.4h-5.9c0.1,1.3,0.9,2,2.5,2c1,0,1.9-0.2,2.6-0.7v2c-0.8,0.4-1.9,0.7-3.2,0.7c-1.5,0-2.6-0.4-3.4-1.2
		s-1.2-1.9-1.2-3.4c0-1.5,0.4-2.7,1.3-3.6s1.9-1.3,3.2-1.3c1.3,0,2.3,0.4,3,1.2s1.1,1.8,1.1,3.2V251.4z M395.4,249.7
		c0-1.3-0.5-1.9-1.6-1.9c-0.4,0-0.8,0.2-1.2,0.6s-0.5,0.8-0.6,1.4H395.4z"/>
	<path class="st7" d="M402.5,254.1L402.5,254.1l0,5.2h-2.8v-13.1h2.8v1.4h0c0.7-1,1.6-1.6,2.9-1.6c1.2,0,2.1,0.4,2.7,1.2
		c0.6,0.8,1,1.9,1,3.3c0,1.5-0.4,2.7-1.1,3.6s-1.7,1.4-3,1.4C403.9,255.3,403,254.9,402.5,254.1z M402.4,250.4v0.7
		c0,0.6,0.2,1.1,0.5,1.5s0.8,0.6,1.3,0.6c0.6,0,1.1-0.2,1.5-0.7s0.5-1.2,0.5-2.1c0-1.6-0.6-2.4-1.8-2.4c-0.6,0-1,0.2-1.4,0.6
		C402.6,249.1,402.4,249.7,402.4,250.4z"/>
	<path class="st7" d="M416.2,255c-0.4,0.2-1,0.3-1.9,0.3c-2,0-2.9-1-2.9-3v-4.1H410v-2h1.5v-1.9l2.8-0.8v2.7h2v2h-2v3.6
		c0,0.9,0.4,1.4,1.1,1.4c0.3,0,0.6-0.1,0.9-0.3V255z"/>
	<path class="st7" d="M422,255.3c-1.5,0-2.7-0.4-3.5-1.3s-1.3-2-1.3-3.4c0-1.5,0.4-2.7,1.3-3.5c0.9-0.8,2.1-1.3,3.6-1.3
		c1.5,0,2.7,0.4,3.5,1.3c0.8,0.8,1.3,2,1.3,3.3c0,1.5-0.4,2.7-1.3,3.5S423.6,255.3,422,255.3z M422.1,248c-0.7,0-1.2,0.2-1.5,0.7
		s-0.5,1.1-0.5,1.9c0,1.7,0.7,2.6,2.1,2.6c1.3,0,2-0.9,2-2.7C424.1,248.8,423.4,248,422.1,248z"/>
	<path class="st7" d="M434.6,248.6c-0.3-0.2-0.7-0.3-1.2-0.3c-0.6,0-1.1,0.2-1.4,0.7s-0.5,1-0.5,1.8v4.3h-2.8v-9h2.8v1.7h0
		c0.4-1.2,1.2-1.8,2.4-1.8c0.3,0,0.5,0,0.7,0.1V248.6z"/>
	<path class="st7" d="M446.2,258h-2.3c-1.9-2.1-2.8-4.6-2.8-7.7c0-2.9,0.9-5.5,2.8-7.8h2.2c-1.8,2.4-2.7,4.9-2.7,7.8
		S444.4,255.7,446.2,258z"/>
	<path class="st7" d="M458.4,255.1h-3.3l-2-3.2c-0.1-0.2-0.3-0.5-0.4-0.7s-0.3-0.4-0.4-0.5s-0.3-0.2-0.4-0.3s-0.3-0.1-0.5-0.1h-0.8
		v4.8h-2.8v-12.6h4.5c3.1,0,4.6,1.1,4.6,3.4c0,0.4-0.1,0.8-0.2,1.2c-0.1,0.4-0.3,0.7-0.6,1s-0.5,0.6-0.9,0.8s-0.7,0.4-1.2,0.5v0
		c0.2,0.1,0.4,0.2,0.5,0.3c0.2,0.1,0.3,0.3,0.5,0.5s0.3,0.4,0.5,0.6c0.1,0.2,0.3,0.4,0.4,0.6L458.4,255.1z M450.6,244.6v3.5h1.2
		c0.6,0,1.1-0.2,1.5-0.5c0.4-0.4,0.6-0.8,0.6-1.3c0-1.1-0.7-1.7-2-1.7H450.6z"/>
	<path class="st7" d="M459.5,255.1v-12.6h4.6c1.4,0,2.5,0.3,3.2,0.8s1.1,1.2,1.1,2.2c0,0.7-0.2,1.3-0.7,1.8s-1,0.9-1.8,1.1v0
		c0.9,0.1,1.6,0.4,2.1,1s0.8,1.2,0.8,2c0,1.2-0.4,2.1-1.2,2.7c-0.8,0.7-2,1-3.4,1H459.5z M462.4,244.6v3h1.2c0.6,0,1-0.1,1.4-0.4
		s0.5-0.7,0.5-1.2c0-0.9-0.7-1.4-2.1-1.4H462.4z M462.4,249.7v3.3h1.5c0.7,0,1.2-0.2,1.5-0.5s0.6-0.7,0.6-1.2c0-0.5-0.2-0.9-0.5-1.2
		s-0.9-0.4-1.5-0.4H462.4z"/>
	<path class="st7" d="M471.1,255.1v-12.6h4.5c4.5,0,6.7,2,6.7,6.1c0,2-0.6,3.5-1.8,4.7s-2.8,1.8-4.9,1.8H471.1z M473.9,244.8v8h1.4
		c1.2,0,2.2-0.4,2.9-1.1s1.1-1.7,1.1-3c0-1.2-0.3-2.1-1-2.8c-0.7-0.7-1.7-1-2.9-1H473.9z"/>
	<path class="st7" d="M485.3,258h-2.2c1.8-2.3,2.7-4.8,2.7-7.7c0-2.8-0.9-5.4-2.7-7.8h2.3c1.9,2.3,2.8,4.8,2.8,7.8
		C488.2,253.3,487.2,255.9,485.3,258z"/>
</g>
<g id="Grupo_14169" transform="translate(367.211 1358.289)">
	<g id="Grupo_14167" transform="translate(415.498 135.995)">
		<path id="Trazado_14352" class="st1" d="M-246.2-1433.1c5.3-2.5,6.9-2.3,9.6,1.8c1.2,1.8,2.7,3.4,4.5,4.7c3.1,2.2,4,5.5,5.1,8.8
			c0.6,1.8,0.2,2.9-1.6,3.5c-2.2,0.6-3.3,1.9-3.3,4.1c-0.1,4.2-3,5.8-6.7,6.5c-0.9,0.2-1.7,0.4-2.6,0.5c-2,0.2-4.2,0.1-4.8,2.5
			c-0.5,2.1,1.2,3.5,2.5,4.9c3.8,3.9,3.3,9.2-1.8,11.2c-6.2,2.6-5.8,7.8-6.8,12.7c-0.1,0.8,0.5,1.6,0.6,2.5c1.1,7.1,0.2,13.6-5.3,19
			c-2.2,2.1-4.1,4.5-4.5,7.7c-0.5,3.2-3,3.8-5.7,4.3c-3,0.6-2.9-2-4.1-3.3c-2.3-2.8-3.2-7.3-8.8-6c-1.9,0.5-2.8-1.8-3.5-3.4
			c-1.8-4.1-3.4-8.3-5.1-12.5c-1.3-3.2-4.2-5.9-1.8-10c0.9-1.6-1.4-2.4-2.7-3c-2.3-1.1-2.6-2.7-1.3-4.7c0.5-0.7,0.8-1.5,1.2-2.3
			c3.8-7.4,1.1-13-7.3-14.7c-1.1-0.2-2.2-0.3-3.3-0.5c-2.5-0.1-4.5-2.3-4.4-4.8c-0.1-3.9-0.7-7.7-1.1-11.5c-0.5-3.3,1.1-6.5,4-8.2
			c4.7-3,8.3-7.6,14-9.4c1.7-0.5,2.3-2,1-3.6c-2.2-2.6-0.6-4,1.3-5.8c3.9-3.7,8.3-4.3,13.3-3.5c2.6,0.4,2.2,2.1,1.5,3.8
			c-0.1,0.2-0.1,0.5-0.2,0.7c-0.4,0.9-1,1.7-1.4,2.6c-0.1,0.2-0.3,0.4-0.4,0.7c-0.1,0.2-0.3,0.4-0.4,0.7c-0.3,0.4-0.5,0.9-0.8,1.3
			c-0.5,1.2-0.5,2.5,0,3.7c0.4,1,0.9,2,1.4,2.9c0.3,0.5,0.5,1,0.7,1.5c1.4,2.4,0.5,5.4,2.5,7.6c0.6,0.5,1.4,0.9,2.1,1.2
			c0.8,0.3,1.6,0.6,2.3,1c3.2,1,3.3,7.3,8.6,4.6c2.3-1,5-1.1,6.8-3.1c1.4-3,0.3-6.3,1.2-9.4c0.4-1.2,0.8-2.3,1.4-3.3
			C-249.1-1430.9-247.8-1432.2-246.2-1433.1z"/>
	</g>
	<g id="Grupo_14168" transform="translate(445.151 134.733)">
		<path id="Trazado_14353" class="st8" d="M-303.5-1440.6c2.7-0.1,5.3,0.4,7-3.1c1.4-2.8,8.5-1.1,9.2,2.3c0.4,1.8,1.1,2.9,2.3,3.3
			c3.1,0.9,4.3,3.5,6.3,5.4c1.4,0.9,1,2.2,0.7,3.4c-1.2,1.5-2,3.2-2.5,5.1c-0.4,3.2,0.8,6.4-0.8,9.5c-2.6,1.9-5.9,2.4-8.8,3.7
			c-5,1.2-4.8-4.5-8.1-5.7c-0.6-0.2-1.1-0.4-1.7-0.5c-1.1-0.4-2.2-1-3.4-1.3c-2.4-2.1-0.1-5.1-1.7-7.4c-0.3-0.5-0.6-1-0.7-1.5
			c-0.6-1.5-1.4-3-2.4-4.4c-0.6-1.5,0-2.7,0.9-3.8c0.2-0.5,0.5-1,0.9-1.4l0,0.1c0.3-0.6,0.7-1.2,1.1-1.8c0.7-0.6,1-1.5,1.7-2.2
			L-303.5-1440.6z"/>
		<path id="Trazado_14354" class="st4" d="M-291.2-1410c-2.6,0-3.8-1.9-4.8-3.4c-0.5-1.1-1.3-1.9-2.3-2.5c-0.5-0.2-1.1-0.3-1.6-0.5
			c-0.5-0.2-0.9-0.4-1.3-0.5c-0.7-0.3-1.3-0.5-2-0.7l-0.4-0.2c-1.6-1.4-1.5-3.2-1.4-4.7c0.2-1,0-2-0.4-2.8c-0.4-0.6-0.7-1.2-0.8-1.9
			c-0.2-0.3-0.4-0.7-0.5-1c-0.5-1.1-1-2.1-1.7-3l-0.1-0.2c-0.6-1.6-0.2-3.4,1-4.6c0.2-0.6,0.5-1.1,1-1.5c0.1-0.2,0.2-0.3,0.3-0.5
			c0.2-0.4,0.4-0.8,0.7-1.2c0.3-0.3,0.5-0.6,0.7-0.9c0.3-0.5,0.6-0.9,1-1.3l3.2-2.8l-1.2,2.7c2.1,0,3.6-0.2,4.8-2.6
			c0.7-1.4,2.6-2.1,4.9-1.8c2.6,0.3,5.5,2,6,4.4c0.3,1.5,0.9,2.4,1.7,2.6c2.4,0.7,3.8,2.3,5.1,3.8c0.5,0.6,1,1.2,1.6,1.8
			c1.7,1.1,1.3,2.9,1,4.1l-0.2,0.5c-1.1,1.4-1.9,3-2.3,4.8c-0.1,1.1-0.1,2.2,0,3.2c0.1,2.1,0.3,4.4-0.9,6.5l-0.3,0.3
			c-1.8,1.2-3.7,2-5.7,2.6c-1.1,0.3-2.2,0.7-3.2,1.2C-290.1-1410-290.7-1410-291.2-1410z M-302.6-1419.3c0.7,0.2,1.4,0.5,2,0.8
			c0.4,0.2,0.8,0.3,1.2,0.5c0.5,0.1,1.1,0.3,1.7,0.5c1.4,0.7,2.6,1.8,3.3,3.2c1.2,2,2,3,4.3,2.5c1-0.5,2.1-0.9,3.2-1.2
			c1.8-0.5,3.5-1.3,5.1-2.2c0.8-1.7,0.7-3.5,0.6-5.4c-0.1-1.2-0.1-2.4,0-3.6c0.4-1.9,1.3-3.8,2.5-5.4c0.3-1.4,0.4-1.8-0.3-2.3
			c-0.7-0.6-1.3-1.3-1.9-2c-1.2-1.4-2.3-2.7-4.2-3.2c-1.5-0.4-2.5-1.7-2.9-3.9c-0.3-1.5-2.6-2.7-4.5-3c-1.2-0.2-2.6,0-3,0.9
			c-1.8,3.5-4.4,3.5-6.7,3.6c-0.3,0-0.5,0-0.8,0c-0.1,0.2-0.3,0.4-0.4,0.6c-0.3,0.4-0.6,0.8-0.9,1.2c-0.2,0.2-0.3,0.5-0.5,0.8
			c-0.1,0.3-0.3,0.6-0.5,0.9l-0.4-0.2l0.3,0.3c-0.3,0.3-0.5,0.6-0.6,1l-0.1,0.3c-0.9,1.1-1.1,1.9-0.8,2.8c0.7,1,1.4,2.1,1.9,3.3
			c0.2,0.4,0.4,0.8,0.6,1.2c0.1,0.5,0.3,1,0.6,1.4c0.7,1.2,1,2.6,0.7,4C-303.4-1421-303.4-1420-302.6-1419.3L-302.6-1419.3z"/>
	</g>
</g>
<g id="Grupo_14170" transform="translate(0 72)">
	<path id="Trazado_14355" class="st9" d="M521-9l-63,29v94"/>
	<circle id="Elipse_715" class="st7" cx="519.5" cy="-8.5" r="2.5"/>
	<circle id="Elipse_716" class="st7" cx="458.5" cy="114.5" r="2.5"/>
</g>
</svg>
