<svg id="Capa_1" data-name="Capa 1" xmlns="http://www.w3.org/2000/svg" width="65.954" height="68.086" viewBox="0 0 65.954 68.086">
  <g id="Grupo_14151" data-name="Grupo 14151">
    <path id="Trazado_14327" data-name="Trazado 14327" d="M427.712,381.93a39.29,39.29,0,0,1-11.4-.6,12.773,12.773,0,0,1-5.864-2.846c-5.658-4.687-9.7-16.335-5.46-24.615.334-.652.6-1.346.979-1.972,3.755-6.193,4.181-12.589,1.855-19.465-2.2-6.5.432-12.837,6.274-16.221,3.45-2,7.048-2.392,10.259.4,7.134,6.2,15.273,6,23.736,4.009a21.894,21.894,0,0,0,3.34-1.124c5.269-2.182,9.485-.349,13.059,3.524,5.56,6.024,6.236,13.172,1.7,20.038-2.927,4.426-2.514,8.862-.929,13.487-.389,1.819-1.428,2.328-3.109,1.545-3.175-5.868-2.452-11.539.764-17.156,3.452-6.026,2.636-11.164-2.113-15.889-2.66-2.648-5.5-2.879-8.879-1.7-6.327,2.208-12.768,3.393-19.47,1.633a24.079,24.079,0,0,1-8.776-3.966c-2.519-1.929-5.157-3.049-8.039-.893-2.944,2.2-5.076,4.93-4.6,8.934a13.409,13.409,0,0,0,.68,3.008c2.851,7.755,1.521,15.067-2.411,22.041-2.664,4.72-2.672,9.473-.848,14.435,2.285,6.212,6.625,9.5,13.284,9.681,1.75.05,3.543-.136,5.2.666C428,379.7,428.45,380.667,427.712,381.93Z" transform="translate(-403.228 -314.615)" fill="#1681a1"/>
    <path id="Trazado_14328" data-name="Trazado 14328" d="M413.819,357.563l-.578-2.4c.755-2.125,2.643-2.13,4.357-2.137,3.517-.017,6.976-.485,10.462-.838,10.555-1.07,16.5-6,19.487-16.4.244-.845.427-1.712,1.335-2.132l2.485-1.48a2.97,2.97,0,0,1,1.853,3.163,30.165,30.165,0,0,1-.53,3.908c-2.538,9.435-12.5,17.684-22.294,18.629-4.1.394-8.2.413-12.3.454A8.586,8.586,0,0,1,413.819,357.563Z" transform="translate(-389.334 -290.248)" fill="#eb0304"/>
  </g>
</svg>
