<svg xmlns="http://www.w3.org/2000/svg" width="84.411" height="86.333" viewBox="0 0 84.411 86.333">
  <g id="Grupo_14995" data-name="Grupo 14995" transform="translate(-634.089 -2532.667)">
    <path id="Trazado_14339" data-name="Trazado 14339" d="M261.994,505.445a1.846,1.846,0,0,0-1.383.644h-6.586A32.594,32.594,0,0,0,245.39,485.9l4.4-4.406a1.831,1.831,0,0,0,1.431-.521,1.922,1.922,0,0,0-2.717-2.717,1.834,1.834,0,0,0-.521,1.431L243.58,484.1a32.6,32.6,0,0,0-20.952-8.677v-7.884a1.9,1.9,0,0,0,.644-1.413,1.922,1.922,0,1,0-3.2,1.413v7.884a32.591,32.591,0,0,0-20.786,8.526l-4.253-4.255a1.843,1.843,0,0,0-.521-1.431,1.922,1.922,0,0,0-2.719,2.717,1.836,1.836,0,0,0,1.434.521l4.237,4.24a32.6,32.6,0,0,0-8.787,20.351h-5.955a1.837,1.837,0,0,0-1.38-.644,1.922,1.922,0,0,0,0,3.844,1.837,1.837,0,0,0,1.38-.644H188.6a32.622,32.622,0,0,0,8.715,21.719l-4.4,4.4a1.846,1.846,0,0,0-1.434.521,1.923,1.923,0,0,0,2.719,2.719,1.846,1.846,0,0,0,.521-1.434l4.4-4.4a32.616,32.616,0,0,0,20.952,8.677V547.2a1.9,1.9,0,0,0-.644,1.413,1.922,1.922,0,1,0,3.844,0,1.894,1.894,0,0,0-.644-1.413v-6.351a32.607,32.607,0,0,0,21.118-8.828l4.557,4.554a1.836,1.836,0,0,0,.521,1.434,1.922,1.922,0,0,0,2.717-2.719,1.84,1.84,0,0,0-1.431-.521l-4.57-4.57a32.61,32.61,0,0,0,8.562-21.553h6.509a1.846,1.846,0,0,0,1.383.644,1.922,1.922,0,0,0,0-3.844Z" transform="translate(454.627 2068.467)" fill="#4ba7bc"/>
    <path id="Trazado_14340" data-name="Trazado 14340" d="M243.377,498.135h-1.845a27.015,27.015,0,0,0-7.371-16.985l1.533-1.536a1.278,1.278,0,0,0-1.807-1.807l-1.572,1.572a26.99,26.99,0,0,0-16.566-6.66v-1.981a1.278,1.278,0,1,0-2.556,0v1.981A27,27,0,0,0,195.83,480.1l-1.541-1.533a1.279,1.279,0,0,0-1.8,1.812l1.572,1.567a27,27,0,0,0-6.642,16.186H185.26a1.278,1.278,0,1,0,0,2.556h2.116a27,27,0,0,0,6.678,16.95l-1.569,1.569a1.279,1.279,0,0,0,1.807,1.81l1.533-1.536a27.012,27.012,0,0,0,17.369,7.391v2.287a1.278,1.278,0,0,0,2.556,0v-2.287a27,27,0,0,0,16.643-6.729l1.5,1.49a1.279,1.279,0,0,0,1.8-1.812l-1.464-1.457a27.014,27.014,0,0,0,7.34-17.676h1.807a1.278,1.278,0,1,0,0-2.556Z" transform="translate(461.659 2076.65)" fill="#e3f4fc"/>
    <g id="Grupo_14158" data-name="Grupo 14158" transform="translate(654.969 2557.133)">
      <path id="Trazado_14341" data-name="Trazado 14341" d="M214.535,483.948c.192,2.338.455,4.677.549,7.018.11,2.76-.215,3.023-2.832,2.832-.468-.036-.935-.1-1.4-.171-3.913-.565-3.913-.567-5.4,3.261-1.4,3.6-2.08,3.721-4.567.813a6.932,6.932,0,0,1-.872-1.109c-1.206-2.172-2.622-2.428-4.4-.613a5.744,5.744,0,0,1-1.6.966,1.014,1.014,0,0,1-1.26-.243,1.249,1.249,0,0,1-.233-1.689,19.172,19.172,0,0,1,5.124-4.053c.762-.455,1.5-.018,2.091.573.976.974,1.5,2.387,2.875,2.98,2.689-4.858,2.689-4.858,9.114-3.946.71-2-.182-3.966-.24-5.929-.056-1.827.606-2.643,2.418-2.52C214.826,482.483,214.747,483.191,214.535,483.948Z" transform="translate(-180.393 -460.813)" fill="#ea0a0a"/>
      <path id="Trazado_14342" data-name="Trazado 14342" d="M207.263,490.46c-2.037-.013-3.011-.672-1.585-2.694.5-.708,1.71-.785,1.766-1.927-1.015-1.666-4.248-1.585-4.13-3.269.225-3.256-1.648-2.471-3.251-2.359a2.783,2.783,0,0,1-3.169-2.057,2.155,2.155,0,0,1-.8-2.177c1.725-2.719,2.172-2.888,3.113-.693.831,1.94,1.986,2.1,3.644,1.9a15.5,15.5,0,0,1,2.356-.133c1.48.054,3.425-1.038,4.255.838.693,1.572-1.349,2.259-1.976,3.489.261,1.283,1.5,1.431,2.39,1.958,3.621,2.139,3.632,2.252.164,5.025a12.8,12.8,0,0,0-.994.979C208.835,490.324,208.081,490.444,207.263,490.46Z" transform="translate(-174.501 -473.773)" fill="#ea0909"/>
      <path id="Trazado_14343" data-name="Trazado 14343" d="M202.522,477.574c.795,2.717-1.418,2.124-2.834,2.51a4.759,4.759,0,0,0,.276,1.319c1.858,3.4,1.955,3.644-1.47,4.853-2.653.938-2.594,2.454-2.252,4.687.394,2.566-.371,3.059-2.814,2.131-1.608-.611-3.164-1.355-4.723-2.086-.754-.353-1.306-.94-.976-1.845s1.114-1.017,1.932-.828c.9.207,1.648.946,2.814.769,1.137-.935-.266-2.653.941-3.691,1.091-.943,2.737-.79,3.762-2.083.1-1.321-1.109-2.045-1.689-3.072-1.49-2.64-1.191-3.294,1.707-3.407,1.094-.044,2.19-.023,3.287-.031C201.556,476.022,201.967,476.986,202.522,477.574Z" transform="translate(-187.632 -469.515)" fill="#ea0909"/>
      <path id="Trazado_14344" data-name="Trazado 14344" d="M194.7,481.153q-1.02-.387-2.039-.772c.57-2.011-.424-4.368,1.273-6.172,2.571.161,4.419,4.935,7.468,1.089a2.253,2.253,0,0,1,.8,2.177c-2.07,1.871-4.163,3.427-6.256.112C194.424,478.748,195.073,480.1,194.7,481.153Z" transform="translate(-179.809 -473.094)" fill="#2f89a5"/>
      <path id="Trazado_14345" data-name="Trazado 14345" d="M200.451,480.983a2.713,2.713,0,0,1,1.781-1.119c2.3,1.2,4.6,2.392,7.476,3.895-2.561,2.517-5.513,2.51-7.874,3.673-.21-.611-.419-1.219-.631-1.83.956-.478,1.912-.953,3.095-1.541C203.561,482.241,201.345,482.371,200.451,480.983Z" transform="translate(-167.689 -464.297)" fill="#338fab"/>
    </g>
  </g>
</svg>
