<svg xmlns="http://www.w3.org/2000/svg" width="77.895" height="73.366" viewBox="0 0 77.895 73.366">
  <g id="Grupo_14995" data-name="Grupo 14995" transform="translate(-661.552 -1851)">
    <g id="Grupo_14117" data-name="Grupo 14117" transform="translate(690.22 1851)">
      <g id="Grupo_14112" data-name="Grupo 14112" transform="translate(2.53 1.002)">
        <rect id="Rectángulo_3191" data-name="Rectángulo 3191" width="72.196" height="2.206" transform="translate(0 70.955) rotate(-79.36)" fill="#4ba7bc"/>
      </g>
      <g id="Grupo_14114" data-name="Grupo 14114" transform="translate(13.305)">
        <g id="Grupo_14113" data-name="Grupo 14113" transform="translate(0)">
          <rect id="Rectángulo_3192" data-name="Rectángulo 3192" width="1.104" height="7.174" transform="translate(0 1.085) rotate(-79.379)" fill="#4ba7bc"/>
        </g>
      </g>
      <g id="Grupo_14116" data-name="Grupo 14116" transform="translate(0 70.96)">
        <g id="Grupo_14115" data-name="Grupo 14115">
          <rect id="Rectángulo_3193" data-name="Rectángulo 3193" width="1.104" height="7.174" transform="translate(0 1.085) rotate(-79.379)" fill="#4ba7bc"/>
        </g>
      </g>
    </g>
    <g id="Grupo_14123" data-name="Grupo 14123" transform="translate(666.75 1859.182)">
      <g id="Grupo_14118" data-name="Grupo 14118" transform="translate(1.976 2.288)">
        <rect id="Rectángulo_3194" data-name="Rectángulo 3194" width="2.208" height="79.394" transform="translate(0 1.729) rotate(-51.547)" fill="#4ba7bc"/>
      </g>
      <g id="Grupo_14120" data-name="Grupo 14120" transform="translate(0 0)">
        <g id="Grupo_14119" data-name="Grupo 14119">
          <rect id="Rectángulo_3195" data-name="Rectángulo 3195" width="7.174" height="1.104" transform="translate(0 5.618) rotate(-51.549)" fill="#4ba7bc"/>
        </g>
      </g>
      <g id="Grupo_14122" data-name="Grupo 14122" transform="translate(62.175 49.374)">
        <g id="Grupo_14121" data-name="Grupo 14121" transform="translate(0 0)">
          <rect id="Rectángulo_3196" data-name="Rectángulo 3196" width="7.174" height="1.104" transform="translate(0 5.618) rotate(-51.549)" fill="#4ba7bc"/>
        </g>
      </g>
    </g>
    <g id="Grupo_14129" data-name="Grupo 14129" transform="translate(661.552 1865.34)">
      <g id="Grupo_14124" data-name="Grupo 14124" transform="translate(1.518 2.497)">
        <rect id="Rectángulo_3197" data-name="Rectángulo 3197" width="81.056" height="2.207" transform="translate(0 33.177) rotate(-24.161)" fill="#4ba7bc"/>
      </g>
      <g id="Grupo_14126" data-name="Grupo 14126" transform="translate(73.951 0)">
        <g id="Grupo_14125" data-name="Grupo 14125">
          <rect id="Rectángulo_3198" data-name="Rectángulo 3198" width="1.104" height="7.174" transform="translate(0 0.452) rotate(-24.168)" fill="#4ba7bc"/>
        </g>
      </g>
      <g id="Grupo_14128" data-name="Grupo 14128" transform="translate(0 33.186)">
        <g id="Grupo_14127" data-name="Grupo 14127" transform="translate(0 0)">
          <rect id="Rectángulo_3199" data-name="Rectángulo 3199" width="1.104" height="7.174" transform="translate(0 0.452) rotate(-24.168)" fill="#4ba7bc"/>
        </g>
      </g>
    </g>
    <g id="Grupo_14135" data-name="Grupo 14135" transform="translate(682.977 1855.643)">
      <g id="Grupo_14130" data-name="Grupo 14130" transform="translate(2.472 1.59)">
        <rect id="Rectángulo_3200" data-name="Rectángulo 3200" width="2.207" height="63.81" transform="matrix(0.898, -0.441, 0.441, 0.898, 0, 0.972)" fill="#4ba7bc"/>
      </g>
      <g id="Grupo_14132" data-name="Grupo 14132" transform="translate(0 0)">
        <g id="Grupo_14131" data-name="Grupo 14131">
          <rect id="Rectángulo_3201" data-name="Rectángulo 3201" width="7.174" height="1.104" transform="matrix(0.898, -0.441, 0.441, 0.898, 0, 3.161)" fill="#4ba7bc"/>
        </g>
      </g>
      <g id="Grupo_14134" data-name="Grupo 14134" transform="translate(28.12 57.281)">
        <g id="Grupo_14133" data-name="Grupo 14133" transform="translate(0 0)">
          <rect id="Rectángulo_3202" data-name="Rectángulo 3202" width="7.174" height="1.104" transform="matrix(0.898, -0.441, 0.441, 0.898, 0, 3.161)" fill="#4ba7bc"/>
        </g>
      </g>
    </g>
    <g id="Grupo_14141" data-name="Grupo 14141" transform="translate(666.729 1877.007)">
      <g id="Grupo_14136" data-name="Grupo 14136" transform="translate(1.001 2.543)">
        <rect id="Rectángulo_3203" data-name="Rectángulo 3203" width="2.206" height="66.274" transform="translate(0 2.168) rotate(-79.353)" fill="#4ba7bc"/>
      </g>
      <g id="Grupo_14138" data-name="Grupo 14138" transform="translate(0 0)">
        <g id="Grupo_14137" data-name="Grupo 14137">
          <rect id="Rectángulo_3204" data-name="Rectángulo 3204" width="7.174" height="1.104" transform="translate(0 7.05) rotate(-79.357)" fill="#4ba7bc"/>
        </g>
      </g>
      <g id="Grupo_14140" data-name="Grupo 14140" transform="translate(65.133 12.245)">
        <g id="Grupo_14139" data-name="Grupo 14139" transform="translate(0 0)">
          <rect id="Rectángulo_3205" data-name="Rectángulo 3205" width="7.174" height="1.104" transform="matrix(0.185, -0.983, 0.983, 0.185, 0, 7.05)" fill="#4ba7bc"/>
        </g>
      </g>
    </g>
    <g id="Grupo_14147" data-name="Grupo 14147" transform="translate(676.072 1859.641)">
      <g id="Grupo_14142" data-name="Grupo 14142" transform="translate(2.233 2.048)">
        <rect id="Rectángulo_3206" data-name="Rectángulo 3206" width="65.176" height="2.206" transform="matrix(0.656, -0.755, 0.755, 0.656, 0, 49.219)" fill="#4ba7bc"/>
      </g>
      <g id="Grupo_14144" data-name="Grupo 14144" transform="translate(42.715 0)">
        <g id="Grupo_14143" data-name="Grupo 14143" transform="translate(0)">
          <rect id="Rectángulo_3207" data-name="Rectángulo 3207" width="1.104" height="7.174" transform="matrix(0.655, -0.755, 0.755, 0.655, 0, 0.834)" fill="#4ba7bc"/>
        </g>
      </g>
      <g id="Grupo_14146" data-name="Grupo 14146" transform="translate(0 49.226)">
        <g id="Grupo_14145" data-name="Grupo 14145" transform="translate(0 0)">
          <rect id="Rectángulo_3208" data-name="Rectángulo 3208" width="1.104" height="7.174" transform="translate(0 0.834) rotate(-49.049)" fill="#4ba7bc"/>
        </g>
      </g>
    </g>
    <g id="Trazado_14321" data-name="Trazado 14321" transform="translate(380.149 1640.178)" fill="#e3f4fc" stroke-miterlimit="10">
      <path d="M 317.5419616699219 273.9672241210938 C 316.0328979492188 273.9672241210938 314.5465698242188 273.4572143554688 313.3568115234375 272.5311279296875 L 297.2396240234375 259.9808349609375 C 295.3250427246094 258.4906005859375 294.3433227539063 256.072509765625 294.6774597167969 253.6701965332031 L 297.4850463867188 233.4362487792969 C 297.8192749023438 231.0330963134766 299.4227294921875 228.9734039306641 301.6696166992188 228.0610809326172 L 320.5967407226563 220.3776702880859 C 321.4152526855469 220.0448760986328 322.2776184082031 219.8761901855469 323.1600952148438 219.8761901855469 C 324.6686096191406 219.8761901855469 326.1550903320313 220.3865509033203 327.3457336425781 221.3132629394531 L 343.4628601074219 233.8613586425781 C 345.3773498535156 235.3515167236328 346.3591003417969 237.7704620361328 346.0250549316406 240.1742553710938 L 343.2174987792969 260.4059143066406 C 342.883544921875 262.8082580566406 341.2799682617188 264.8688659667969 339.0325317382813 265.7834777832031 L 320.1057739257813 273.4667053222656 C 319.287109375 273.798828125 318.4244995117188 273.9672241210938 317.5419616699219 273.9672241210938 Z" stroke="none"/>
      <path d="M 317.5419616699219 273.4672241210938 C 318.3597717285156 273.4672241210938 319.1591491699219 273.3111572265625 319.917724609375 273.0034484863281 L 338.8440551757813 265.3203430175781 C 340.9267578125 264.4727783203125 342.4128112792969 262.5632629394531 342.7222290039063 260.3371887207031 L 345.5298156738281 240.1054229736328 C 345.83935546875 237.8780670166016 344.9296875 235.6366729736328 343.1557006835938 234.2558746337891 L 327.0386352539063 221.7078247070313 C 325.9353332519531 220.84912109375 324.5579223632813 220.3761901855469 323.1600952148438 220.3761901855469 C 322.3424682617188 220.3761901855469 321.54345703125 220.5325012207031 320.7847900390625 220.8409423828125 L 301.8577270507813 228.5243530273438 C 299.7757568359375 229.3696899414063 298.2899780273438 231.2782897949219 297.9802856445313 233.5049743652344 L 295.1726989746094 253.7390747070313 C 294.8630981445313 255.9649505615234 295.7727355957031 258.2054443359375 297.5468139648438 259.5863342285156 L 313.6639404296875 272.1365661621094 C 314.7663269042969 272.9946594238281 316.1435852050781 273.4672241210938 317.5419616699219 273.4672241210938 M 317.5419616699219 274.4672241210938 C 315.9399719238281 274.4672241210938 314.3546447753906 273.9414367675781 313.0496826171875 272.9256896972656 L 296.9324340820313 260.3753356933594 C 294.870849609375 258.7706604003906 293.8224182128906 256.1881713867188 294.1822204589844 253.601318359375 L 296.9897766113281 233.3675231933594 C 297.3495788574219 230.7806243896484 299.0624389648438 228.5800323486328 301.4815063476563 227.5978088378906 L 320.4086608886719 219.9143829345703 C 321.2971496582031 219.5531616210938 322.2314453125 219.3761901855469 323.1600952148438 219.3761901855469 C 324.7622375488281 219.3761901855469 326.3476867675781 219.9028625488281 327.65283203125 220.9186859130859 L 343.77001953125 233.4668273925781 C 345.8316650390625 235.071533203125 346.8800964355469 237.6539916992188 346.5202941894531 240.2430725097656 L 343.7127380371094 260.4746398925781 C 343.3528442382813 263.0637512207031 341.6400451660156 265.2621459960938 339.2210083007813 266.24658203125 L 320.2938537597656 273.9299926757813 C 319.4052429199219 274.2904968261719 318.4707946777344 274.4672241210938 317.5419616699219 274.4672241210938 Z" stroke="none" fill="#4ba7bc"/>
    </g>
    <g id="Grupo_14149" data-name="Grupo 14149" transform="translate(682.089 1869.667)">
      <path id="Trazado_14325" data-name="Trazado 14325" d="M334.16,242.206a9.368,9.368,0,0,0-3.026-4.538c-.942-.8-1.4-1.205-2.313-2.009a6.265,6.265,0,0,1-.852-.942l-1.94.984a8.491,8.491,0,0,0,1.362,1.576c.92.814,1.388,1.221,2.342,2.035a7.207,7.207,0,0,1,2.342,3.459,6.39,6.39,0,0,1,.108,3.064c-.508,2.227-3.238,3.587-6.207,3.1l-.115-.02a8.352,8.352,0,0,0-8.743,4.039A7.033,7.033,0,0,1,309.5,255.9a7.767,7.767,0,0,1-3.333-1.706,3.993,3.993,0,0,1-1.227-3.183l.086-2.516a6.927,6.927,0,0,0-2.223-5.361c-.7-.645-1.051-.967-1.728-1.611a3.966,3.966,0,0,1-1.245-3.22,9.449,9.449,0,0,1,2.326-5.313,5.423,5.423,0,0,1,4.072-1.951h.084l3.22.062a3.881,3.881,0,0,0,3.2-1.68c.393-.561.706-1.013,1-1.446l-.863-2.589c-.6.909-1.1,1.649-1.907,2.794a1.679,1.679,0,0,1-1.391.759l-3.227-.062a7.281,7.281,0,0,0-5.827,2.7,11.637,11.637,0,0,0-2.847,6.569,6.092,6.092,0,0,0,1.911,4.946c.689.656,1.04.982,1.755,1.638a4.76,4.76,0,0,1,1.525,3.691l-.086,2.523a6.12,6.12,0,0,0,1.938,4.858,9.916,9.916,0,0,0,4.253,2.2,9.132,9.132,0,0,0,2.229.274,9.023,9.023,0,0,0,7.86-4.362,6.182,6.182,0,0,1,6.5-2.847l.064.011c4.167.682,7.889-1.36,8.663-4.757A8.555,8.555,0,0,0,334.16,242.206Z" transform="translate(-297.659 -222.235)" fill="#1380a0"/>
      <path id="Trazado_14326" data-name="Trazado 14326" d="M307.142,227.1a1.477,1.477,0,0,1,.569-.556,5.338,5.338,0,0,1,5.529.909,7.7,7.7,0,0,1,2.613,4.516l.534,2.494a8.38,8.38,0,0,0,1.318,2.964l1.94-.984A6.242,6.242,0,0,1,318.5,234l-.532-2.479a9.836,9.836,0,0,0-3.395-5.772,7.424,7.424,0,0,0-7.725-1.19,3.517,3.517,0,0,0-1.521,1.362c-.291.448-.539.828-.775,1.185l.863,2.589C305.979,228.876,306.458,228.154,307.142,227.1Z" transform="translate(-289.336 -223.958)" fill="#eb0000"/>
    </g>
  </g>
</svg>
