<svg xmlns="http://www.w3.org/2000/svg" width="245.207" height="261.471" viewBox="0 0 245.207 261.471">
  <g id="Grupo_14229" data-name="Grupo 14229" transform="translate(-813.837 -440.65)">
    <circle id="Elipse_717" data-name="Elipse 717" cx="117.718" cy="117.718" r="117.718" transform="translate(822.441 458.235)" fill="#e1f5fb" opacity="0.5"/>
    <g id="Grupo_14217" data-name="Grupo 14217" transform="translate(813.837 466.598)">
      <g id="Grupo_14205" data-name="Grupo 14205" transform="translate(238.302 161.503)" opacity="0.2">
        <circle id="Elipse_718" data-name="Elipse 718" cx="2.944" cy="2.944" r="2.944" fill="#7c9af5"/>
      </g>
      <g id="Grupo_14206" data-name="Grupo 14206" transform="translate(241.246 166.05)" opacity="0.5">
        <path id="Trazado_14598" data-name="Trazado 14598" d="M996.544,584.887a1.981,1.981,0,1,1-1.981-1.98A1.981,1.981,0,0,1,996.544,584.887Z" transform="translate(-992.583 -582.907)" fill="#f5fcff"/>
      </g>
      <g id="Grupo_14207" data-name="Grupo 14207" transform="translate(224.548 92.439)" opacity="0.2">
        <path id="Trazado_14599" data-name="Trazado 14599" d="M985.892,531.207a2.84,2.84,0,1,1-2.84-2.84A2.84,2.84,0,0,1,985.892,531.207Z" transform="translate(-980.211 -528.367)" fill="#7c9af5"/>
      </g>
      <g id="Grupo_14208" data-name="Grupo 14208" transform="translate(39)" opacity="0.5">
        <path id="Trazado_14600" data-name="Trazado 14600" d="M848.412,462.716a2.84,2.84,0,1,1-2.84-2.84A2.84,2.84,0,0,1,848.412,462.716Z" transform="translate(-842.733 -459.876)" fill="#7c9af5"/>
      </g>
      <g id="Grupo_14209" data-name="Grupo 14209" transform="translate(204.748 85.715)">
        <path id="Trazado_14601" data-name="Trazado 14601" d="M971.22,526.226a2.84,2.84,0,1,1-2.84-2.841A2.84,2.84,0,0,1,971.22,526.226Z" transform="translate(-965.541 -523.385)" fill="#f5fcff"/>
      </g>
      <g id="Grupo_14210" data-name="Grupo 14210" transform="translate(0 130.528)">
        <circle id="Elipse_719" data-name="Elipse 719" cx="1.742" cy="1.742" r="1.742" fill="#f5fcff"/>
      </g>
      <g id="Grupo_14211" data-name="Grupo 14211" transform="translate(197.422 149.429)">
        <circle id="Elipse_720" data-name="Elipse 720" cx="1.742" cy="1.742" r="1.742" fill="#f5fcff"/>
      </g>
      <g id="Grupo_14212" data-name="Grupo 14212" transform="translate(212.906 51.9)">
        <path id="Trazado_14602" data-name="Trazado 14602" d="M976.407,500.74A2.411,2.411,0,1,1,974,498.33,2.411,2.411,0,0,1,976.407,500.74Z" transform="translate(-971.585 -498.33)" fill="#f5fcff"/>
      </g>
      <g id="Grupo_14213" data-name="Grupo 14213" transform="translate(32.78 155.027)">
        <path id="Trazado_14603" data-name="Trazado 14603" d="M842.949,577.15a2.412,2.412,0,1,1-2.412-2.411A2.412,2.412,0,0,1,842.949,577.15Z" transform="translate(-838.125 -574.74)" fill="#f5fcff"/>
      </g>
      <g id="Grupo_14214" data-name="Grupo 14214" transform="translate(46.62 51.9)">
        <path id="Trazado_14604" data-name="Trazado 14604" d="M853.2,500.74a2.412,2.412,0,1,1-2.412-2.411A2.412,2.412,0,0,1,853.2,500.74Z" transform="translate(-848.379 -498.33)" fill="#f5fcff"/>
      </g>
      <g id="Grupo_14215" data-name="Grupo 14215" transform="translate(34.793 81.509)" opacity="0.25">
        <path id="Trazado_14605" data-name="Trazado 14605" d="M848.03,524.475a4.207,4.207,0,1,1-4.207-4.207A4.207,4.207,0,0,1,848.03,524.475Z" transform="translate(-839.616 -520.268)" fill="#7c9af5"/>
      </g>
      <g id="Grupo_14216" data-name="Grupo 14216" transform="translate(181.221 32.725)" opacity="0.25">
        <path id="Trazado_14606" data-name="Trazado 14606" d="M956.523,488.33a4.207,4.207,0,1,1-4.207-4.207A4.207,4.207,0,0,1,956.523,488.33Z" transform="translate(-948.109 -484.123)" fill="#7c9af5"/>
      </g>
    </g>
    <g id="Grupo_14221" data-name="Grupo 14221" transform="translate(863.344 537.029)">
      <g id="Grupo_14218" data-name="Grupo 14218" transform="translate(139.182)">
        <path id="Trazado_14607" data-name="Trazado 14607" d="M974.068,525.472h0l-.093.051a20.066,20.066,0,0,0-9.137,10.5l-.983,2.591-.983-2.591a20.066,20.066,0,0,0-9.137-10.5l-.093-.051h0a20.072,20.072,0,0,0,9.2-10.67l1.01-2.741,1.01,2.741A20.072,20.072,0,0,0,974.068,525.472Z" transform="translate(-953.642 -512.06)" fill="#fff"/>
      </g>
      <g id="Grupo_14219" data-name="Grupo 14219" transform="translate(134.531 32.421)">
        <path id="Trazado_14608" data-name="Trazado 14608" d="M960.2,542.652h0l-.046.024a9.831,9.831,0,0,0-4.476,5.142l-.482,1.269-.48-1.269a9.83,9.83,0,0,0-4.476-5.142l-.046-.024h0a9.828,9.828,0,0,0,4.508-5.227l.494-1.343.5,1.343A9.828,9.828,0,0,0,960.2,542.652Z" transform="translate(-950.196 -536.082)" fill="#fff"/>
      </g>
      <g id="Grupo_14220" data-name="Grupo 14220" transform="translate(0 45.243)">
        <path id="Trazado_14609" data-name="Trazado 14609" d="M865.382,555.343h0l-.066.038a14.605,14.605,0,0,0-6.651,7.639l-.714,1.885-.715-1.885a14.6,14.6,0,0,0-6.65-7.639l-.067-.038h0a14.6,14.6,0,0,0,6.7-7.766l.736-1.995.734,1.995A14.609,14.609,0,0,0,865.382,555.343Z" transform="translate(-850.518 -545.582)" fill="#fff"/>
      </g>
    </g>
    <g id="Grupo_14228" data-name="Grupo 14228" transform="translate(887.665 440.651)">
      <path id="Trazado_14610" data-name="Trazado 14610" d="M967.535,515.779c-.026-9.314-22.207-16.8-49.545-16.728s-49.479,7.688-49.453,17c0,.019,0,.038.005.058h-.005l.517,152.3c1.54,7.482,23.09,13.36,49.442,13.287s47.868-6.071,49.366-13.561l-.328-152.3h0C967.531,515.817,967.535,515.8,967.535,515.779Z" transform="translate(-868.538 -420.23)" fill="#ddd"/>
      <path id="Trazado_14611" data-name="Trazado 14611" d="M968.172,531.385c.02,7.477-22.194,13.6-49.617,13.675s-49.673-5.922-49.693-13.4,22.194-13.6,49.618-13.676S968.152,523.908,968.172,531.385Z" transform="translate(-868.425 -413.61)" fill="#e8e8e8"/>
      <path id="Trazado_14612" data-name="Trazado 14612" d="M963.249,524.65c-5.916,2.555-21.559,5.983-37.211,6.872-20.489,1.165-39.485-.9-41.3-3.27h-.17l.331,119.3.094-.849c1.354,3.305,18.413,5.875,39.266,5.817,21.729-.061,39.324-7.6,39.314-11.109C963.562,637.608,963.249,524.65,963.249,524.65Z" transform="translate(-862.933 -411.279)" fill="#ff4a69"/>
      <path id="Trazado_14613" data-name="Trazado 14613" d="M960.267,621.069l-.224.452c-.81,1.141-15.351,7.291-33.438,7.339-18.171.1-29.742-1.873-31.165-3.294l-.166-81.239c4.9,1.267,18.309,2.548,32.872,1.863,12.244-.584,27.547-3.622,32.107-6.376l.433-.26-.949-1.574-.433.262c-3.925,2.37-18.122,5.486-31.246,6.111-16.752.8-30.612-.961-33.346-2.126l-1.281-.547.185,84.29.082.29c1.728,3.5,21.086,4.438,32.253,4.438h.659c17.564-.049,33.878-5.949,35.067-8.344l.225-.453Z" transform="translate(-859.834 -406.618)" fill="#fff"/>
      <g id="Grupo_14227" data-name="Grupo 14227" transform="translate(40.892 142.043)">
        <g id="Grupo_14222" data-name="Grupo 14222" transform="translate(0 0.055)">
          <path id="Trazado_14614" data-name="Trazado 14614" d="M901.3,547.163a1.232,1.232,0,1,1-1.236-1.228A1.235,1.235,0,0,1,901.3,547.163Z" transform="translate(-898.836 -545.935)" fill="#ffce00"/>
          <path id="Trazado_14615" data-name="Trazado 14615" d="M901.313,552.184a1.232,1.232,0,1,1-1.235-1.228A1.231,1.231,0,0,1,901.313,552.184Z" transform="translate(-898.831 -544.179)" fill="#ffce00"/>
          <path id="Trazado_14616" data-name="Trazado 14616" d="M901.327,557.205a1.232,1.232,0,1,1-1.235-1.228A1.231,1.231,0,0,1,901.327,557.205Z" transform="translate(-898.826 -542.424)" fill="#ffce00"/>
          <path id="Trazado_14617" data-name="Trazado 14617" d="M901.341,562.227a1.232,1.232,0,1,1-1.235-1.23A1.231,1.231,0,0,1,901.341,562.227Z" transform="translate(-898.821 -540.668)" fill="#ffce00"/>
          <path id="Trazado_14618" data-name="Trazado 14618" d="M901.355,567.246a1.232,1.232,0,1,1-1.235-1.228A1.232,1.232,0,0,1,901.355,567.246Z" transform="translate(-898.817 -538.913)" fill="#ffce00"/>
          <path id="Trazado_14619" data-name="Trazado 14619" d="M901.369,572.267a1.232,1.232,0,1,1-1.235-1.228A1.233,1.233,0,0,1,901.369,572.267Z" transform="translate(-898.812 -537.157)" fill="#ffce00"/>
          <path id="Trazado_14620" data-name="Trazado 14620" d="M901.383,577.288a1.232,1.232,0,1,1-1.235-1.228A1.234,1.234,0,0,1,901.383,577.288Z" transform="translate(-898.807 -535.401)" fill="#ffce00"/>
          <path id="Trazado_14621" data-name="Trazado 14621" d="M901.4,582.309a1.232,1.232,0,1,1-1.235-1.228A1.231,1.231,0,0,1,901.4,582.309Z" transform="translate(-898.802 -533.646)" fill="#ffce00"/>
          <path id="Trazado_14622" data-name="Trazado 14622" d="M901.411,587.331a1.232,1.232,0,1,1-1.236-1.229A1.231,1.231,0,0,1,901.411,587.331Z" transform="translate(-898.797 -531.891)" fill="#ffce00"/>
          <path id="Trazado_14623" data-name="Trazado 14623" d="M901.425,592.352a1.232,1.232,0,1,1-1.236-1.23A1.232,1.232,0,0,1,901.425,592.352Z" transform="translate(-898.792 -530.135)" fill="#ffce00"/>
          <path id="Trazado_14624" data-name="Trazado 14624" d="M901.439,597.371a1.232,1.232,0,1,1-1.236-1.228A1.234,1.234,0,0,1,901.439,597.371Z" transform="translate(-898.787 -528.379)" fill="#ffce00"/>
          <path id="Trazado_14625" data-name="Trazado 14625" d="M901.453,602.392a1.232,1.232,0,1,1-1.236-1.228A1.235,1.235,0,0,1,901.453,602.392Z" transform="translate(-898.782 -526.624)" fill="#ffce00"/>
        </g>
        <g id="Grupo_14223" data-name="Grupo 14223" transform="translate(9.857 0.028)">
          <path id="Trazado_14626" data-name="Trazado 14626" d="M908.6,547.143a1.232,1.232,0,1,1-1.236-1.228A1.233,1.233,0,0,1,908.6,547.143Z" transform="translate(-906.139 -545.915)" fill="#ffce00"/>
          <path id="Trazado_14627" data-name="Trazado 14627" d="M908.616,552.164a1.232,1.232,0,1,1-1.235-1.229A1.231,1.231,0,0,1,908.616,552.164Z" transform="translate(-906.134 -544.16)" fill="#ffce00"/>
          <path id="Trazado_14628" data-name="Trazado 14628" d="M908.63,557.185a1.232,1.232,0,1,1-1.235-1.23A1.231,1.231,0,0,1,908.63,557.185Z" transform="translate(-906.129 -542.404)" fill="#ffce00"/>
          <path id="Trazado_14629" data-name="Trazado 14629" d="M908.644,562.205a1.232,1.232,0,1,1-1.235-1.228A1.232,1.232,0,0,1,908.644,562.205Z" transform="translate(-906.124 -540.648)" fill="#ffce00"/>
          <path id="Trazado_14630" data-name="Trazado 14630" d="M908.658,567.226A1.232,1.232,0,1,1,907.423,566,1.233,1.233,0,0,1,908.658,567.226Z" transform="translate(-906.12 -538.893)" fill="#ffce00"/>
          <path id="Trazado_14631" data-name="Trazado 14631" d="M908.672,572.247a1.232,1.232,0,1,1-1.235-1.228A1.23,1.23,0,0,1,908.672,572.247Z" transform="translate(-906.115 -537.137)" fill="#ffce00"/>
          <path id="Trazado_14632" data-name="Trazado 14632" d="M908.686,577.269a1.232,1.232,0,1,1-1.235-1.23A1.231,1.231,0,0,1,908.686,577.269Z" transform="translate(-906.11 -535.382)" fill="#ffce00"/>
          <path id="Trazado_14633" data-name="Trazado 14633" d="M908.7,582.289a1.232,1.232,0,1,1-1.235-1.23A1.232,1.232,0,0,1,908.7,582.289Z" transform="translate(-906.105 -533.626)" fill="#ffce00"/>
          <path id="Trazado_14634" data-name="Trazado 14634" d="M908.714,587.309a1.232,1.232,0,1,1-1.236-1.228A1.232,1.232,0,0,1,908.714,587.309Z" transform="translate(-906.1 -531.871)" fill="#ffce00"/>
          <path id="Trazado_14635" data-name="Trazado 14635" d="M908.728,592.33a1.232,1.232,0,1,1-1.236-1.228A1.234,1.234,0,0,1,908.728,592.33Z" transform="translate(-906.095 -530.115)" fill="#ffce00"/>
          <path id="Trazado_14636" data-name="Trazado 14636" d="M908.742,597.351a1.232,1.232,0,1,1-1.236-1.228A1.234,1.234,0,0,1,908.742,597.351Z" transform="translate(-906.09 -528.359)" fill="#ffce00"/>
          <path id="Trazado_14637" data-name="Trazado 14637" d="M908.756,602.372a1.232,1.232,0,1,1-1.236-1.228A1.232,1.232,0,0,1,908.756,602.372Z" transform="translate(-906.085 -526.604)" fill="#ffce00"/>
        </g>
        <g id="Grupo_14224" data-name="Grupo 14224" transform="translate(19.713)">
          <path id="Trazado_14638" data-name="Trazado 14638" d="M915.906,547.123a1.232,1.232,0,1,1-1.236-1.23A1.233,1.233,0,0,1,915.906,547.123Z" transform="translate(-913.442 -545.894)" fill="#ffce00"/>
          <path id="Trazado_14639" data-name="Trazado 14639" d="M915.919,552.145a1.232,1.232,0,1,1-1.235-1.23A1.23,1.23,0,0,1,915.919,552.145Z" transform="translate(-913.437 -544.138)" fill="#ffce00"/>
          <path id="Trazado_14640" data-name="Trazado 14640" d="M915.933,557.164a1.232,1.232,0,1,1-1.235-1.228A1.232,1.232,0,0,1,915.933,557.164Z" transform="translate(-913.432 -542.383)" fill="#ffce00"/>
          <path id="Trazado_14641" data-name="Trazado 14641" d="M915.947,562.185a1.232,1.232,0,1,1-1.235-1.228A1.233,1.233,0,0,1,915.947,562.185Z" transform="translate(-913.427 -540.627)" fill="#ffce00"/>
          <path id="Trazado_14642" data-name="Trazado 14642" d="M915.961,567.206a1.232,1.232,0,1,1-1.235-1.228A1.231,1.231,0,0,1,915.961,567.206Z" transform="translate(-913.423 -538.871)" fill="#ffce00"/>
          <path id="Trazado_14643" data-name="Trazado 14643" d="M915.975,572.227A1.232,1.232,0,1,1,914.74,571,1.231,1.231,0,0,1,915.975,572.227Z" transform="translate(-913.418 -537.116)" fill="#ffce00"/>
          <path id="Trazado_14644" data-name="Trazado 14644" d="M915.989,577.248a1.232,1.232,0,1,1-1.235-1.23A1.232,1.232,0,0,1,915.989,577.248Z" transform="translate(-913.413 -535.36)" fill="#ffce00"/>
          <path id="Trazado_14645" data-name="Trazado 14645" d="M916,582.268a1.232,1.232,0,1,1-1.235-1.228A1.233,1.233,0,0,1,916,582.268Z" transform="translate(-913.408 -533.605)" fill="#ffce00"/>
          <path id="Trazado_14646" data-name="Trazado 14646" d="M916.018,587.289a1.232,1.232,0,1,1-1.236-1.228A1.234,1.234,0,0,1,916.018,587.289Z" transform="translate(-913.403 -531.849)" fill="#ffce00"/>
          <path id="Trazado_14647" data-name="Trazado 14647" d="M916.031,592.31a1.232,1.232,0,1,1-1.236-1.228A1.232,1.232,0,0,1,916.031,592.31Z" transform="translate(-913.398 -530.094)" fill="#ffce00"/>
          <path id="Trazado_14648" data-name="Trazado 14648" d="M916.045,597.331a1.232,1.232,0,1,1-1.236-1.228A1.232,1.232,0,0,1,916.045,597.331Z" transform="translate(-913.393 -528.338)" fill="#ffce00"/>
          <path id="Trazado_14649" data-name="Trazado 14649" d="M916.059,602.352a1.232,1.232,0,1,1-1.236-1.229A1.233,1.233,0,0,1,916.059,602.352Z" transform="translate(-913.388 -526.583)" fill="#ffce00"/>
        </g>
        <g id="Grupo_14225" data-name="Grupo 14225" transform="translate(4.938 3.737)">
          <path id="Trazado_14650" data-name="Trazado 14650" d="M904.959,549.893a1.232,1.232,0,1,1-1.236-1.23A1.233,1.233,0,0,1,904.959,549.893Z" transform="translate(-902.495 -548.663)" fill="#ffce00"/>
          <path id="Trazado_14651" data-name="Trazado 14651" d="M904.973,554.914a1.232,1.232,0,1,1-1.236-1.229A1.233,1.233,0,0,1,904.973,554.914Z" transform="translate(-902.49 -546.907)" fill="#ffce00"/>
          <path id="Trazado_14652" data-name="Trazado 14652" d="M904.986,559.933a1.232,1.232,0,1,1-1.235-1.228A1.232,1.232,0,0,1,904.986,559.933Z" transform="translate(-902.485 -545.152)" fill="#ffce00"/>
          <path id="Trazado_14653" data-name="Trazado 14653" d="M905,564.954a1.232,1.232,0,1,1-1.235-1.228A1.233,1.233,0,0,1,905,564.954Z" transform="translate(-902.48 -543.396)" fill="#ffce00"/>
          <path id="Trazado_14654" data-name="Trazado 14654" d="M905.014,569.975a1.231,1.231,0,1,1-1.235-1.228A1.23,1.23,0,0,1,905.014,569.975Z" transform="translate(-902.475 -541.64)" fill="#ffce00"/>
          <path id="Trazado_14655" data-name="Trazado 14655" d="M905.028,575a1.232,1.232,0,1,1-1.235-1.229A1.231,1.231,0,0,1,905.028,575Z" transform="translate(-902.471 -539.885)" fill="#ffce00"/>
          <path id="Trazado_14656" data-name="Trazado 14656" d="M905.042,580.017a1.232,1.232,0,1,1-1.235-1.229A1.231,1.231,0,0,1,905.042,580.017Z" transform="translate(-902.466 -538.129)" fill="#ffce00"/>
          <path id="Trazado_14657" data-name="Trazado 14657" d="M905.057,585.037a1.232,1.232,0,1,1-1.235-1.228A1.233,1.233,0,0,1,905.057,585.037Z" transform="translate(-902.461 -536.374)" fill="#ffce00"/>
          <path id="Trazado_14658" data-name="Trazado 14658" d="M905.07,590.058a1.232,1.232,0,1,1-1.235-1.228A1.233,1.233,0,0,1,905.07,590.058Z" transform="translate(-902.456 -534.618)" fill="#ffce00"/>
          <path id="Trazado_14659" data-name="Trazado 14659" d="M905.084,595.079a1.232,1.232,0,1,1-1.235-1.228A1.231,1.231,0,0,1,905.084,595.079Z" transform="translate(-902.451 -532.863)" fill="#ffce00"/>
          <path id="Trazado_14660" data-name="Trazado 14660" d="M905.1,600.1a1.232,1.232,0,1,1-1.236-1.228A1.232,1.232,0,0,1,905.1,600.1Z" transform="translate(-902.446 -531.107)" fill="#ffce00"/>
        </g>
        <g id="Grupo_14226" data-name="Grupo 14226" transform="translate(14.795 3.71)">
          <path id="Trazado_14661" data-name="Trazado 14661" d="M912.262,549.871a1.232,1.232,0,1,1-1.236-1.228A1.234,1.234,0,0,1,912.262,549.871Z" transform="translate(-909.798 -548.643)" fill="#ffce00"/>
          <path id="Trazado_14662" data-name="Trazado 14662" d="M912.276,554.892a1.232,1.232,0,1,1-1.236-1.228A1.235,1.235,0,0,1,912.276,554.892Z" transform="translate(-909.793 -546.887)" fill="#ffce00"/>
          <path id="Trazado_14663" data-name="Trazado 14663" d="M912.29,559.913a1.232,1.232,0,1,1-1.236-1.228A1.235,1.235,0,0,1,912.29,559.913Z" transform="translate(-909.788 -545.132)" fill="#ffce00"/>
          <path id="Trazado_14664" data-name="Trazado 14664" d="M912.3,564.934a1.232,1.232,0,1,1-1.235-1.228A1.231,1.231,0,0,1,912.3,564.934Z" transform="translate(-909.783 -543.376)" fill="#ffce00"/>
          <path id="Trazado_14665" data-name="Trazado 14665" d="M912.317,569.956a1.232,1.232,0,1,1-1.235-1.23A1.231,1.231,0,0,1,912.317,569.956Z" transform="translate(-909.778 -541.621)" fill="#ffce00"/>
          <path id="Trazado_14666" data-name="Trazado 14666" d="M912.331,574.977a1.232,1.232,0,1,1-1.235-1.229A1.231,1.231,0,0,1,912.331,574.977Z" transform="translate(-909.774 -539.865)" fill="#ffce00"/>
          <path id="Trazado_14667" data-name="Trazado 14667" d="M912.345,580a1.232,1.232,0,1,1-1.235-1.228A1.232,1.232,0,0,1,912.345,580Z" transform="translate(-909.769 -538.109)" fill="#ffce00"/>
          <path id="Trazado_14668" data-name="Trazado 14668" d="M912.359,585.017a1.232,1.232,0,1,1-1.235-1.228A1.233,1.233,0,0,1,912.359,585.017Z" transform="translate(-909.764 -536.354)" fill="#ffce00"/>
          <path id="Trazado_14669" data-name="Trazado 14669" d="M912.373,590.038a1.232,1.232,0,1,1-1.235-1.228A1.232,1.232,0,0,1,912.373,590.038Z" transform="translate(-909.759 -534.598)" fill="#ffce00"/>
          <path id="Trazado_14670" data-name="Trazado 14670" d="M912.388,595.06a1.232,1.232,0,1,1-1.236-1.23A1.231,1.231,0,0,1,912.388,595.06Z" transform="translate(-909.754 -532.843)" fill="#ffce00"/>
          <path id="Trazado_14671" data-name="Trazado 14671" d="M912.4,600.081a1.232,1.232,0,1,1-1.236-1.23A1.232,1.232,0,0,1,912.4,600.081Z" transform="translate(-909.749 -531.087)" fill="#ffce00"/>
        </g>
      </g>
      <path id="Trazado_14672" data-name="Trazado 14672" d="M880.993,481.611l.144,26.564c1.066,5.477,15.227,9.777,32.534,9.728s31.442-4.425,32.478-9.908h.07l-.074-26.565Z" transform="translate(-864.183 -426.392)" fill="#ff4a69"/>
      <path id="Trazado_14673" data-name="Trazado 14673" d="M872.457,455.32l.1,34.69c.022,7.477,19.737,13.483,44.037,13.417s43.981-6.184,43.961-13.66l-.1-34.692Z" transform="translate(-867.168 -435.606)" fill="#ddd"/>
      <ellipse id="Elipse_721" data-name="Elipse 721" cx="46.96" cy="13.538" rx="46.96" ry="13.538" transform="translate(2.274 0.26) rotate(-0.159)" fill="#3660fb"/>
      <path id="Trazado_14674" data-name="Trazado 14674" d="M964.22,471.924h0l-.051-18.615h-.1c-1.537-7.079-21.947-12.631-46.9-12.563s-45.328,5.735-46.825,12.822h-.1l0,.845h0l.049,17.767h0l0,.845h.1c1.537,7.078,21.947,12.632,46.9,12.563s45.327-5.736,46.825-12.822h.1Z" transform="translate(-867.94 -440.617)" fill="#ff4a69"/>
      <ellipse id="Elipse_722" data-name="Elipse 722" cx="46.96" cy="13.538" rx="46.96" ry="13.538" transform="translate(2.274 0.26) rotate(-0.159)" fill="#ff7a91"/>
      <path id="Trazado_14675" data-name="Trazado 14675" d="M936.805,445.773a98.021,98.021,0,0,0-46.266.128c-6.7,1.952-10.237,4.6-10.229,7.665.018,5.88,14.24,10.314,33.086,10.314h.327a87.125,87.125,0,0,0,23.125-2.833c6.7-1.952,10.239-4.6,10.229-7.665S943.516,447.688,936.805,445.773Zm-22.816-.509a84.585,84.585,0,0,1,22.214,2.621c5.347,1.525,8.671,3.633,8.677,5.5s-3.308,3.995-8.646,5.551a84.9,84.9,0,0,1-22.518,2.745c-17.8-.008-31.2-4.26-31.211-8.124,0-1.867,3.308-3.994,8.647-5.55a85.017,85.017,0,0,1,22.519-2.745Z" transform="translate(-864.422 -439.805)" fill="#fff"/>
    </g>
  </g>
</svg>
