<svg xmlns="http://www.w3.org/2000/svg" xmlns:xlink="http://www.w3.org/1999/xlink" width="610.075" height="266.116" viewBox="0 0 610.075 266.116">
  <defs>
    <linearGradient id="linear-gradient" y1="0.5" x2="1" y2="0.5" gradientUnits="objectBoundingBox">
      <stop offset="0" stop-color="#fff"/>
      <stop offset="0.517" stop-color="#5e83e8"/>
      <stop offset="1" stop-color="#eaeffc"/>
    </linearGradient>
  </defs>
  <g id="Grupo_14950" data-name="Grupo 14950" transform="translate(-1628.593 569.222)">
    <path id="Trazado_16417" data-name="Trazado 16417" d="M2204.771-361.447H1654.809c-37.722-49.774-31.045-107.994-3.305-137.269,0,0,39.708-57.937,116.987-51.5s94.444,47.4,169.576,50.9,144.406-55.272,223.578-33.709C2230.891-514.149,2271.25-423.838,2204.771-361.447Z" transform="translate(0 8.814)" fill="#f2f2f2"/>
    <path id="Trazado_16418" data-name="Trazado 16418" d="M2131.615-410.435c-14.905,0-28.7.555-40.007,1.5-25.973-2.851-63.117-4.635-104.373-4.635-42.753,0-81.094,1.916-107.16,4.95-16.21-2.523-58.659-4.322-108.471-4.322-63.792,0-115.505,2.951-115.505,6.591s51.713,6.591,115.505,6.591c28.678,0,54.912-.6,75.107-1.584-1.091.722-1.659,1.46-1.659,2.213,0,7.973,63.657,14.437,142.183,14.437,61.492,0,113.862-3.964,133.691-9.513q5.228.1,10.689.1c38.309,0,69.366-3.654,69.366-8.162S2169.924-410.435,2131.615-410.435Z" transform="translate(13.099 74.122)" opacity="0.5" fill="url(#linear-gradient)"/>
    <path id="Trazado_16419" data-name="Trazado 16419" d="M1996.189-460.455l-22.756,14.908-23.069-4.08,6.906,8.475s16.163,4.708,21.343,4.708,20.872-10.515,20.872-10.515" transform="translate(153.233 51.796)" fill="#c5d6ea"/>
    <g id="Grupo_14900" data-name="Grupo 14900" transform="translate(1849.141 -425.583)">
      <ellipse id="Elipse_820" data-name="Elipse 820" cx="131.85" cy="45.744" rx="131.85" ry="45.744" transform="translate(0 31.364) rotate(-5.185)" fill="#a3b7fc"/>
      <path id="Trazado_16420" data-name="Trazado 16420" d="M1929.083-373.624c-4.21.527-8.494.988-12.825,1.383a364.308,364.308,0,0,1-39.425,1.488c-20.038-.348-38.193-2.467-53.193-6.054-25.329-6.045-41.657-16.243-42.825-29.068-2.278-25.161,54.662-50.894,127.176-57.477q6.255-.565,12.372-.923a347.573,347.573,0,0,1,39.849-.094c17.081.989,32.44,3.333,45.179,6.808,22.589,6.148,36.948,15.858,38.041,27.853C2045.58-406.053,1995.372-381.892,1929.083-373.624Z" transform="translate(-1776.682 475.265)" fill="#d7e6fc"/>
      <path id="Trazado_16421" data-name="Trazado 16421" d="M1920.363-464.474c-24.256,22.053-73.333,66.62-96.723,87.467-25.329-6.045-41.657-16.243-42.825-29.068-2.278-25.161,54.662-50.894,127.176-57.477Q1914.246-464.116,1920.363-464.474Z" transform="translate(-1776.682 475.465)" fill="#fff"/>
      <path id="Trazado_16422" data-name="Trazado 16422" d="M1974.4-457.73c-19.228,21.271-54.1,59.765-76.309,83.936-4.21.527-8.494.988-12.825,1.383a364.308,364.308,0,0,1-39.425,1.488c21.139-23.8,63.605-71.44,83.38-93.616C1946.3-463.549,1961.655-461.2,1974.4-457.73Z" transform="translate(-1745.686 475.435)" fill="#fff"/>
      <ellipse id="Elipse_821" data-name="Elipse 821" cx="131.85" cy="45.744" rx="131.85" ry="45.744" transform="translate(0 23.831) rotate(-5.185)" fill="none" stroke="#bdceff" stroke-miterlimit="10" stroke-width="3"/>
    </g>
    <g id="Grupo_14902" data-name="Grupo 14902" transform="translate(2107.046 -444.113)">
      <path id="Trazado_16423" data-name="Trazado 16423" d="M1976.107-451.844s-.071.2-.182.573a37.622,37.622,0,0,0-1.231,15.434c1.255,8.319-4.238,23.854-4.238,23.854s14.282,7.691,22.6,7.533,7.533-24.638,7.533-24.638l-11.77-17.264" transform="translate(-1944.245 500.01)" fill="#c5d6ea"/>
      <path id="Trazado_16424" data-name="Trazado 16424" d="M1995.212-406.866l4.393.156a7.643,7.643,0,0,1,3.453-2.668c2.04-.627,2.355.629,5.964,3.924s10.2,3.453,10.2,3.453,2.511,1.1,1.727,2.04-8,0-12.713-1.256-6.433-1.882-6.433-1.882l-7.533-.158" transform="translate(-1932.904 520.159)" fill="#efa19d"/>
      <path id="Trazado_16425" data-name="Trazado 16425" d="M2017.212-402s-6.591-.158-10.2-3.453-3.924-4.551-5.964-3.924a6.52,6.52,0,0,0-2.557,1.637,16.225,16.225,0,0,1,3.549,4.387c.232.375.477.772.726,1.178.91.263,2.049.582,3.46.958,4.709,1.256,11.928,2.2,12.713,1.256S2017.212-402,2017.212-402Z" transform="translate(-1930.894 520.159)" fill="#6ba5b5"/>
      <path id="Trazado_16426" data-name="Trazado 16426" d="M1989.143-428.031s-23.7,19.93-24.8,22.441-2.669,7.69,2.04,11.771,44.726.471,44.726.471v-5.493l-24.01-2.825,26.207-10.2" transform="translate(-1947.708 511.35)" fill="#03173a"/>
      <path id="Trazado_16427" data-name="Trazado 16427" d="M1987.152-410.09l5.493,7.219-11.614,1.884s6.278-1.413,4.551-3.453a70.878,70.878,0,0,1-4.708-7.219" transform="translate(-1939.283 519.147)" fill="#efa19d"/>
      <path id="Trazado_16428" data-name="Trazado 16428" d="M1981.645-461.2l-5.964,5.65,1.883,2.668-4.237,2.982,4.551,13.026,6.277-23.227Z" transform="translate(-1942.878 495.554)" fill="#d7e6fc"/>
      <path id="Trazado_16429" data-name="Trazado 16429" d="M1991.058-458.019l-8.946,5.49-3.267-5.33-1.987-3.23-.235-.386,8.314-7.062Z" transform="translate(-1941.309 492.06)" fill="#efa19d"/>
      <path id="Trazado_16430" data-name="Trazado 16430" d="M1978.769-459.623l-1.987-3.23a15.676,15.676,0,0,0,4.529-1.817C1982.855-465.677,1980.322-461.789,1978.769-459.623Z" transform="translate(-1941.232 493.824)" fill="#d8807d"/>
      <path id="Trazado_16431" data-name="Trazado 16431" d="M1981.456-404.317a32.618,32.618,0,0,1,6.377-.458,3.723,3.723,0,0,0,1.46-.261,31.219,31.219,0,0,0,6.036-1.112q1.324,2.449,2.792,4.818-11.012-.044-22.021.245A8.668,8.668,0,0,1,1981.456-404.317Z" transform="translate(-1941.557 521.771)" fill="#6ba5b5"/>
      <path id="Trazado_16432" data-name="Trazado 16432" d="M1984.958-461.615c.367.645,1.354.1,1.8-.487a12.341,12.341,0,0,0,2.7-8.326,8.271,8.271,0,0,0-4.848-6.984,11.137,11.137,0,0,0-3.719-.653,11.31,11.31,0,0,0-4.535.567c-3.147,1.218-5.035,4.6-5.446,7.949s.39,6.717,1.184,10c.342,1.414.773,2.961,1.981,3.773,1.333.9,3.118.568,4.65.087,2.051-.645,4.313-1.848,4.635-3.974" transform="translate(-1944.082 487.515)" fill="#efa19d"/>
      <path id="Trazado_16433" data-name="Trazado 16433" d="M1974.094-430.576l1.265.512a30.61,30.61,0,0,1-5.028-1.487c-2.576-.75-4.744-.574-7.31-.7-2.623-.125-7.83-1.258-7.594-2.016s3.427-.177,3.427-.177-2.446-.9-3.876-1.357c-.848-.27-1.84-.706-1.956-1.587.186-.4.754-.385,1.187-.3a34.736,34.736,0,0,1,4.547,1.386s-3.019-1.593-5.223-2.673c-.449-.22-.982-.636-.793-1.1.176-.431.787-.409,1.24-.3a51.687,51.687,0,0,1,5.88,1.974s-2.087-1.456-3.669-2.434c-.5-.31-1.078-.833-.846-1.374.254-.593,1.128-.447,1.724-.2,2.108.871,5.675,2.415,5.675,2.415s-.715-2.186-1.113-3.5a.844.844,0,0,1,0-.7c.3-.456,1,.006,1.3.462a30.4,30.4,0,0,1,3.171,6.2l10.757,2.905" transform="translate(-1952.7 503.566)" fill="#efa19d"/>
      <path id="Trazado_16434" data-name="Trazado 16434" d="M1981.385-458.787s1.726.94,5.649-.158,4.551-.627,4.551-.627-6.906,29.033-5.65,33.113-.158,5.18-.158,5.18-11.614-16.165-10.515-24.012A28.412,28.412,0,0,1,1981.385-458.787Z" transform="translate(-1941.99 496.281)" fill="#fff"/>
      <path id="Trazado_16435" data-name="Trazado 16435" d="M2016.578-406.9a8.4,8.4,0,0,1-1.007,1.073c-3.324,3-8.324,2.787-12.985,1.563a49.175,49.175,0,0,1-11.3-4.793c-.385-.226-.6-.357-.6-.357l.123.151,8.041,10.518-6.592,1.572s-27.617-21.817-30.763-28.718,2.985-9.257,2.985-9.257l40.019,9.888,14.125,2.034S2023.8-416.008,2016.578-406.9Z" transform="translate(-1948.939 507.959)" fill="#0d2a5c"/>
      <path id="Trazado_16436" data-name="Trazado 16436" d="M2010.769-408.7c-3.324,3-8.324,2.787-12.985,1.563l-11.3-4.793-.48-.207-.48-.2a99.478,99.478,0,0,0-14.841-16.779,21.088,21.088,0,0,1,5.6,3.577c3.617,2.957,7.034,6.215,11.131,8.438,4.8,2.6,10.262,3.634,15.471,5.3A65.383,65.383,0,0,1,2010.769-408.7Z" transform="translate(-1944.136 510.833)" fill="#0d2a5c" opacity="0.5" style="mix-blend-mode: multiply;isolation: isolate"/>
      <g id="Grupo_14901" data-name="Grupo 14901" transform="translate(26.976)">
        <path id="Trazado_16437" data-name="Trazado 16437" d="M1993-463.911a39.311,39.311,0,0,1-3.314,2.628c-.133-.009-.273-.028-.406-.037a9.8,9.8,0,0,1-2.258-.443,30.325,30.325,0,0,1-3.871-1.875c.838-.338,3.183-1.544,1.808-3.869-1.649-2.806-3.051,1.639-3.051,1.639s-6.912-1.329-9.736-4.944a5.4,5.4,0,0,1-1.1-2.372c-.97-5.424,5.443-4.228,10.98-5.726a6.58,6.58,0,0,1,6.76,2.053c.18.188.359.376.518.574a13.591,13.591,0,0,1,1.346,1.921v.01c.189.31.359.63.518.931.3.593.546,1.168.754,1.676C1993.2-468.59,1995.085-465.851,1993-463.911Z" transform="translate(-1970.974 487)" fill="#03173a"/>
        <path id="Trazado_16438" data-name="Trazado 16438" d="M1995.006-476.937a5.279,5.279,0,0,1-2.806,5.151,6.788,6.788,0,0,1-2.523.48,15.485,15.485,0,0,1-4.559-.517v-.01a15.02,15.02,0,0,1-1.865-.611l.546-1.253-.028-.056c-.084-.151-.151-.3-.226-.452a8.931,8.931,0,0,1-.856-4.671,6.55,6.55,0,0,1,2.514-4.576,5.132,5.132,0,0,1,5.084-.593,7.023,7.023,0,0,1,2.053,1.6c.207.226.414.461.6.706A8.681,8.681,0,0,1,1995.006-476.937Z" transform="translate(-1965.416 484.472)" fill="#03173a"/>
        <path id="Trazado_16439" data-name="Trazado 16439" d="M1988.812-476.857c-.2-.084-.385-.17-.583-.245a.975.975,0,0,1,.207,1.385,1.563,1.563,0,0,1-1.619.385c-.678-.2-1.383-.716-2.024-.413s-.914,1.271-1.6,1.224c-.46-.038-.733-.537-1.157-.707-.649-.273-1.385.378-1.488,1.075a3.54,3.54,0,0,0,.546,2.015c-1.7-.679-3.522-1.365-5.329-1.036a2.373,2.373,0,0,1-.847.084c-.557-.093-1.073-.669-1.583-.432-.49.226-.432.923-.339,1.45s-.018,1.262-.555,1.3a.6.6,0,0,1-.263-.037,5.4,5.4,0,0,1-1.1-2.372c-.97-5.424,5.443-4.228,10.98-5.726A6.58,6.58,0,0,1,1988.812-476.857Z" transform="translate(-1970.974 487)" fill="#0d2a5c"/>
        <path id="Trazado_16440" data-name="Trazado 16440" d="M1992.943-481.74a.4.4,0,0,0-.094-.047,6.719,6.719,0,0,0-5.047.443,8.076,8.076,0,0,0-2.495,1.5,5.36,5.36,0,0,0-1.234,5.866c-.179-.075-.349-.151-.527-.226a8.931,8.931,0,0,1-.856-4.671,6.55,6.55,0,0,1,2.514-4.576,5.132,5.132,0,0,1,5.084-.593,7.023,7.023,0,0,1,2.053,1.6C1992.548-482.219,1992.755-481.985,1992.943-481.74Z" transform="translate(-1965.416 484.472)" fill="#0d2a5c"/>
        <path id="Trazado_16441" data-name="Trazado 16441" d="M1987.111-465.763a39.311,39.311,0,0,1-3.314,2.628c-.133-.009-.273-.028-.406-.037a1.115,1.115,0,0,1,.264-1.027,7.94,7.94,0,0,1,.895-.772c1.422-1.252,1.563-3.409,1.45-5.31a34.175,34.175,0,0,0-.7-4.991c.3.593.546,1.168.754,1.676C1987.309-470.443,1989.193-467.7,1987.111-465.763Z" transform="translate(-1965.082 488.853)" fill="#0d2a5c"/>
      </g>
      <path id="Trazado_16442" data-name="Trazado 16442" d="M1993.771-460.095a9.782,9.782,0,0,1,5.213,4.04c4.7,6.615,4.473,15.5,7.561,23,1.379,3.351,3.415,6.408,4.691,9.8,1.925,5.115,2.028,10.707,2.107,16.172l.217,14.947c-9.964.345-20.128-1.748-28.711-6.822-1.255-.741-2.573-1.68-2.9-3.1a5.578,5.578,0,0,1,.193-2.545c1.2-4.982,2.933-10.1,1.89-15.115-1.088-5.227-5.118-9.821-4.767-15.149,0,0,.2-25.587,14.006-25.274" transform="translate(-1940.062 496.06)" fill="#c5d6ea"/>
      <path id="Trazado_16443" data-name="Trazado 16443" d="M1988.707-429.36l-2.118,10.745s.235,2.388,5.3,4.246,8-.663,8.357-1.724,1.295-11.41,1.295-11.41Z" transform="translate(-1936.562 510.717)" fill="#d7e6fc"/>
      <path id="Trazado_16444" data-name="Trazado 16444" d="M1965.256-422.8c3.121,1.141,6.745,1.234,9.3,3.358a6.869,6.869,0,0,0,2.022,1.475,8.219,8.219,0,0,0,2.047.189,13.357,13.357,0,0,1,4.051,1.321c4.724,1.966,9.9,2.486,15,2.985,2.232.218,4.723.363,6.46-1.054a6.792,6.792,0,0,0,1.678-2.284c2.18-4.37,2.2-9.465,2.095-14.349a4.575,4.575,0,0,1,.111-1.383c.369-1.264,1.7-1.944,2.9-2.48a5.832,5.832,0,0,1-2.657-.029,36.2,36.2,0,0,0,3.35-2.7c-1-.369-2.152.323-3.161-.019-1.182-.4-1.478-1.907-1.6-3.15-.508-5.273-1.361-10.677-4.1-15.209l-6.828,30.7-3.884,3.531-18.127-2-8.658,1.1" transform="translate(-1946.721 497.966)" fill="#0d2a5c" opacity="0.5" style="mix-blend-mode: multiply;isolation: isolate"/>
      <path id="Trazado_16445" data-name="Trazado 16445" d="M1952.74-440.071c.176-.431.787-.409,1.24-.3a51.687,51.687,0,0,1,5.88,1.974s-2.087-1.456-3.669-2.434c-.5-.31-1.078-.833-.846-1.374.254-.593,1.128-.447,1.724-.2,2.108.871,5.675,2.415,5.675,2.415s-.715-2.186-1.113-3.5a.844.844,0,0,1,0-.7c.3-.456,1,.006,1.3.462a30.4,30.4,0,0,1,3.171,6.2l4.04,1.091c-.368,1.516-.737,3.044-1.091,4.579a41.412,41.412,0,0,0-6.032-.4c-2.623-.125-7.83-1.258-7.594-2.016s3.427-.177,3.427-.177-2.446-.9-3.876-1.357c-.848-.27-1.84-.706-1.956-1.587.186-.4.754-.385,1.187-.3a34.736,34.736,0,0,1,4.547,1.386s-3.019-1.593-5.223-2.673C1953.083-439.19,1952.551-439.606,1952.74-440.071Z" transform="translate(-1952.7 503.566)" fill="#6ba5b5"/>
      <path id="Trazado_16446" data-name="Trazado 16446" d="M1989.8-428.275a60.731,60.731,0,0,1,7.025-26.311c1.085-2.043,3.076-4.337,5.246-3.539a4.3,4.3,0,0,1,2.012,1.928c2.632,4.3,2.679,9.65,2.4,14.681-.359,6.515-1.184,13.186-4.258,18.938-2.051,3.837-5.5,7.371-9.832,7.734a17.515,17.515,0,0,1-6.206-.989l-22.4-6.405q1.36-4.1,2.716-8.2l27.7,1.373" transform="translate(-1947.419 496.941)" fill="#d7e6fc"/>
      <path id="Trazado_16447" data-name="Trazado 16447" d="M1988.987-462.962a25.351,25.351,0,0,1-3.971,1.953" transform="translate(-1937.311 494.715)" fill="none" stroke="#efa19d" stroke-miterlimit="10" stroke-width="1"/>
      <path id="Trazado_16448" data-name="Trazado 16448" d="M1979.609-440.486c-.544-3.336.033-6.743.7-10.057a32.487,32.487,0,0,1,2.188-7.476,12.31,12.31,0,0,1,5.09-5.747,40.682,40.682,0,0,1,9.321,6.181c-3.9-.211-7.671,1.25-11.3,2.687-.207.081-.438.19-.5.4-.094.337.3.592.62.725l3.339,1.36a.98.98,0,0,1,.433.272c.319.41-.135.963-.542,1.287A33.259,33.259,0,0,0,1980.2-440.2" transform="translate(-1939.989 494.332)" fill="#d7e6fc"/>
      <path id="Trazado_16449" data-name="Trazado 16449" d="M1971.077-465.037c4.256-.642,7.253-4.68,11.383-5.893-1.448,1.491-.744,4.2.951,5.4s3.959,1.222,6.008.871a37.7,37.7,0,0,0-7.98,4.219,12.062,12.062,0,0,1-3.862,2.129,5.4,5.4,0,0,1-6.3-3.942,10.163,10.163,0,0,0-.531-2.419" transform="translate(-1944.108 490.921)" fill="#6ba5b5"/>
    </g>
    <g id="Grupo_14914" data-name="Grupo 14914" transform="translate(1965.689 -424.583)">
      <g id="Grupo_14913" data-name="Grupo 14913">
        <circle id="Elipse_822" data-name="Elipse 822" cx="27.865" cy="27.865" r="27.865" transform="translate(10.498 12.371)" fill="#7dd3e9"/>
        <line id="Línea_586" data-name="Línea 586" x2="7.298" y2="6.944" transform="translate(14.713 15.923)" fill="none" stroke="#7dd3e9" stroke-miterlimit="10" stroke-width="2.646"/>
        <path id="Trazado_16450" data-name="Trazado 16450" d="M1891.31-455.641c-.118-.353,3.3-8,3.3-8" transform="translate(-1840.58 474.86)" fill="none" stroke="#7dd3e9" stroke-miterlimit="10" stroke-width="2.609"/>
        <line id="Línea_587" data-name="Línea 587" x1="12.594" y2="3.413" transform="translate(2.236 44.996)" fill="none" stroke="#7dd3e9" stroke-miterlimit="10" stroke-width="4.032"/>
        <line id="Línea_588" data-name="Línea 588" x2="8.121" y2="5.532" transform="translate(56.968 56.06)" fill="none" stroke="#7dd3e9" stroke-miterlimit="10" stroke-width="2.572"/>
        <circle id="Elipse_823" data-name="Elipse 823" cx="2.354" cy="2.354" r="2.354" transform="translate(0 46.173)" fill="#7dd3e9"/>
        <circle id="Elipse_824" data-name="Elipse 824" cx="2.119" cy="2.119" r="2.119" transform="translate(63.441 59.591)" fill="#7dd3e9"/>
        <g id="Grupo_14903" data-name="Grupo 14903" transform="translate(63.324 33.853)">
          <line id="Línea_589" data-name="Línea 589" y1="0.824" x2="9.652" transform="translate(0 2.08)" fill="none" stroke="#7dd3e9" stroke-miterlimit="10" stroke-width="2.968"/>
          <path id="Trazado_16451" data-name="Trazado 16451" d="M1909.78-446.406a2.117,2.117,0,0,0-2.322-1.893,2.117,2.117,0,0,0-1.892,2.322,2.117,2.117,0,0,0,2.322,1.893A2.117,2.117,0,0,0,1909.78-446.406Z" transform="translate(-1897.119 448.31)" fill="#7dd3e9"/>
        </g>
        <circle id="Elipse_825" data-name="Elipse 825" cx="2.119" cy="2.119" r="2.119" transform="translate(52.142 8.626)" fill="#7dd3e9"/>
        <circle id="Elipse_826" data-name="Elipse 826" cx="2.119" cy="2.119" r="2.119" transform="translate(12.751 13.334)" fill="#7dd3e9"/>
        <g id="Grupo_14904" data-name="Grupo 14904" transform="translate(16.401 61.15)">
          <line id="Línea_590" data-name="Línea 590" x1="5.417" y2="8.03" transform="translate(2.716)" fill="none" stroke="#7dd3e9" stroke-miterlimit="10" stroke-width="2.968"/>
          <path id="Trazado_16452" data-name="Trazado 16452" d="M1869.018-421.461a2.118,2.118,0,0,0,2.93-.62,2.117,2.117,0,0,0-.62-2.932,2.118,2.118,0,0,0-2.93.62A2.117,2.117,0,0,0,1869.018-421.461Z" transform="translate(-1868.054 431.945)" fill="#7dd3e9"/>
        </g>
        <g id="Grupo_14905" data-name="Grupo 14905" transform="translate(31.276)">
          <line id="Línea_591" data-name="Línea 591" x1="2.128" y1="13.073" transform="translate(2.938 4.132)" fill="none" stroke="#7dd3e9" stroke-miterlimit="10" stroke-width="2.968"/>
          <path id="Trazado_16453" data-name="Trazado 16453" d="M1880.515-471.2a2.9,2.9,0,0,0-2.338,3.364,2.9,2.9,0,0,0,3.365,2.338,2.9,2.9,0,0,0,2.338-3.364A2.9,2.9,0,0,0,1880.515-471.2Z" transform="translate(-1878.13 471.242)" fill="#7dd3e9"/>
        </g>
        <g id="Grupo_14906" data-name="Grupo 14906" transform="translate(60.802 47.268)">
          <line id="Línea_592" data-name="Línea 592" x2="12.682" y2="3.821" fill="none" stroke="#7dd3e9" stroke-miterlimit="10" stroke-width="2.968"/>
          <path id="Trazado_16454" data-name="Trazado 16454" d="M1911.208-434.568a2.9,2.9,0,0,0-2-3.577,2.9,2.9,0,0,0-3.577,2,2.9,2.9,0,0,0,2,3.577A2.9,2.9,0,0,0,1911.208-434.568Z" transform="translate(-1894.612 439.683)" fill="#7dd3e9"/>
        </g>
        <g id="Grupo_14907" data-name="Grupo 14907" transform="translate(50.318 61.677)">
          <line id="Línea_593" data-name="Línea 593" x2="6.815" y2="11.357" fill="none" stroke="#7dd3e9" stroke-miterlimit="10" stroke-width="2.968"/>
          <path id="Trazado_16455" data-name="Trazado 16455" d="M1898.448-417.608a2.9,2.9,0,0,0,.927-3.99,2.9,2.9,0,0,0-3.99-.927,2.9,2.9,0,0,0-.927,3.99A2.9,2.9,0,0,0,1898.448-417.608Z" transform="translate(-1889.607 432.556)" fill="#7dd3e9"/>
        </g>
        <g id="Grupo_14908" data-name="Grupo 14908" transform="translate(0.803 23.492)">
          <line id="Línea_594" data-name="Línea 594" x1="11.725" y1="6.16" transform="translate(3.908 3.608)" fill="none" stroke="#7dd3e9" stroke-miterlimit="10" stroke-width="2.968"/>
          <path id="Trazado_16456" data-name="Trazado 16456" d="M1857.8-453.735a2.9,2.9,0,0,0,1.281,3.89,2.9,2.9,0,0,0,3.891-1.281,2.9,2.9,0,0,0-1.281-3.891A2.9,2.9,0,0,0,1857.8-453.735Z" transform="translate(-1857.489 455.329)" fill="#7dd3e9"/>
        </g>
        <g id="Grupo_14909" data-name="Grupo 14909" transform="translate(59.229 17.022)">
          <line id="Línea_595" data-name="Línea 595" y1="7.296" x2="11.054" transform="translate(0 3.439)" fill="none" stroke="#7dd3e9" stroke-miterlimit="10" stroke-width="2.968"/>
          <path id="Trazado_16457" data-name="Trazado 16457" d="M1908.631-458.45a2.9,2.9,0,0,0-4.026-.754,2.9,2.9,0,0,0-.756,4.026,2.9,2.9,0,0,0,4.027.756A2.9,2.9,0,0,0,1908.631-458.45Z" transform="translate(-1894.077 459.711)" fill="#7dd3e9"/>
        </g>
        <g id="Grupo_14910" data-name="Grupo 14910" transform="translate(3.334 36.717)">
          <path id="Trazado_16458" data-name="Trazado 16458" d="M1869.651-444.951c-.281.245-8.656.059-8.656.059" transform="translate(-1858.35 447.046)" fill="none" stroke="#7dd3e9" stroke-miterlimit="10" stroke-width="2.609"/>
          <path id="Trazado_16459" data-name="Trazado 16459" d="M1862.142-442.3a2.119,2.119,0,0,0,1.134-2.774,2.12,2.12,0,0,0-2.774-1.134,2.119,2.119,0,0,0-1.134,2.774A2.119,2.119,0,0,0,1862.142-442.3Z" transform="translate(-1859.203 446.37)" fill="#7dd3e9"/>
        </g>
        <g id="Grupo_14911" data-name="Grupo 14911" transform="translate(9.63 53.368)">
          <path id="Trazado_16460" data-name="Trazado 16460" d="M1871.794-435.09c-.057.368-6.6,5.6-6.6,5.6" transform="translate(-1862.647 435.09)" fill="none" stroke="#7dd3e9" stroke-miterlimit="10" stroke-width="2.609"/>
          <path id="Trazado_16461" data-name="Trazado 16461" d="M1867.469-429.432a2.119,2.119,0,0,0-.909-2.855,2.119,2.119,0,0,0-2.855.909,2.119,2.119,0,0,0,.909,2.855A2.119,2.119,0,0,0,1867.469-429.432Z" transform="translate(-1863.467 436.312)" fill="#7dd3e9"/>
        </g>
        <g id="Grupo_14912" data-name="Grupo 14912" transform="translate(30.462 66.218)">
          <line id="Línea_596" data-name="Línea 596" x1="1.822" y2="13.119" transform="translate(3.222)" fill="none" stroke="#7dd3e9" stroke-miterlimit="10" stroke-width="2.968"/>
          <path id="Trazado_16462" data-name="Trazado 16462" d="M1880.125-412.882a2.9,2.9,0,0,0,3.227-2.524,2.9,2.9,0,0,0-2.526-3.227,2.9,2.9,0,0,0-3.226,2.526A2.9,2.9,0,0,0,1880.125-412.882Z" transform="translate(-1877.579 430.067)" fill="#7dd3e9"/>
        </g>
        <path id="Trazado_16463" data-name="Trazado 16463" d="M1896.858-453.521a2.416,2.416,0,0,1-3.313.747,2.418,2.418,0,0,1-1.275-3.147,2.418,2.418,0,0,1,3.313-.747A2.418,2.418,0,0,1,1896.858-453.521Z" transform="translate(-1840.224 478.02)" fill="#69bacc"/>
        <path id="Trazado_16464" data-name="Trazado 16464" d="M1874.693-432.471a2.418,2.418,0,0,1-3.312.745,2.417,2.417,0,0,1-1.277-3.147,2.418,2.418,0,0,1,3.313-.746A2.417,2.417,0,0,1,1874.693-432.471Z" transform="translate(-1850.781 488.045)" fill="#69bacc"/>
        <path id="Trazado_16465" data-name="Trazado 16465" d="M1877.911-453a2.418,2.418,0,0,1-1.346,3.118,2.417,2.417,0,0,1-3.295-.819,2.416,2.416,0,0,1,1.346-3.118A2.418,2.418,0,0,1,1877.911-453Z" transform="translate(-1849.264 479.39)" fill="#69bacc"/>
        <path id="Trazado_16466" data-name="Trazado 16466" d="M1877.051-430.942a1.322,1.322,0,0,1-1.2,1.416,1.321,1.321,0,0,1-1.592-.954,1.321,1.321,0,0,1,1.2-1.416A1.321,1.321,0,0,1,1877.051-430.942Z" transform="translate(-1848.705 489.969)" fill="#69bacc"/>
        <path id="Trazado_16467" data-name="Trazado 16467" d="M1876.983-432.768a1.322,1.322,0,0,1-1.851.123,1.321,1.321,0,0,1-.422-1.807,1.321,1.321,0,0,1,1.851-.123A1.322,1.322,0,0,1,1876.983-432.768Z" transform="translate(-1848.582 488.553)" fill="#69bacc"/>
        <path id="Trazado_16468" data-name="Trazado 16468" d="M1890.672-456.914a1.32,1.32,0,0,1-1.765.571,1.322,1.322,0,0,1-.85-1.649,1.322,1.322,0,0,1,1.766-.571A1.321,1.321,0,0,1,1890.672-456.914Z" transform="translate(-1842.165 477.221)" fill="#69bacc"/>
        <path id="Trazado_16469" data-name="Trazado 16469" d="M1895.74-434.09a1.32,1.32,0,0,1,.223,1.842,1.321,1.321,0,0,1-1.782.518,1.319,1.319,0,0,1-.221-1.841A1.319,1.319,0,0,1,1895.74-434.09Z" transform="translate(-1839.445 488.852)" fill="#69bacc"/>
        <path id="Trazado_16470" data-name="Trazado 16470" d="M1873.386-455.825a1.323,1.323,0,0,1-.249,1.839,1.323,1.323,0,0,1-1.856.052,1.322,1.322,0,0,1,.251-1.839A1.321,1.321,0,0,1,1873.386-455.825Z" transform="translate(-1850.246 478.415)" fill="#69bacc"/>
        <path id="Trazado_16471" data-name="Trazado 16471" d="M1872.853-452.6a1.94,1.94,0,0,1-.368,2.7,1.94,1.94,0,0,1-2.724.075,1.938,1.938,0,0,1,.369-2.7A1.938,1.938,0,0,1,1872.853-452.6Z" transform="translate(-1851.029 479.872)" fill="#69bacc"/>
      </g>
    </g>
    <g id="Grupo_14926" data-name="Grupo 14926" transform="translate(1910.39 -385.564)">
      <g id="Grupo_14925" data-name="Grupo 14925">
        <circle id="Elipse_827" data-name="Elipse 827" cx="17.467" cy="17.467" r="17.467" transform="translate(6.581 7.754)" fill="#7dd3e9"/>
        <line id="Línea_597" data-name="Línea 597" x2="4.574" y2="4.353" transform="translate(9.223 9.981)" fill="none" stroke="#7dd3e9" stroke-miterlimit="10" stroke-width="2.646"/>
        <path id="Trazado_16472" data-name="Trazado 16472" d="M1841.025-435.031c-.074-.221,2.065-5.018,2.065-5.018" transform="translate(-1809.226 447.078)" fill="none" stroke="#7dd3e9" stroke-miterlimit="10" stroke-width="2.609"/>
        <line id="Línea_598" data-name="Línea 598" x1="7.894" y2="2.14" transform="translate(1.402 28.204)" fill="none" stroke="#7dd3e9" stroke-miterlimit="10" stroke-width="4.032"/>
        <line id="Línea_599" data-name="Línea 599" x2="5.091" y2="3.468" transform="translate(35.709 35.14)" fill="none" stroke="#7dd3e9" stroke-miterlimit="10" stroke-width="2.572"/>
        <circle id="Elipse_828" data-name="Elipse 828" cx="1.476" cy="1.476" r="1.476" transform="translate(0 28.942)" fill="#7dd3e9"/>
        <circle id="Elipse_829" data-name="Elipse 829" cx="1.328" cy="1.328" r="1.328" transform="translate(39.767 37.353)" fill="#7dd3e9"/>
        <g id="Grupo_14915" data-name="Grupo 14915" transform="translate(39.694 21.219)">
          <line id="Línea_600" data-name="Línea 600" y1="0.516" x2="6.05" transform="translate(0 1.304)" fill="none" stroke="#7dd3e9" stroke-miterlimit="10" stroke-width="2.968"/>
          <path id="Trazado_16473" data-name="Trazado 16473" d="M1852.6-429.243a1.329,1.329,0,0,0-1.456-1.187,1.329,1.329,0,0,0-1.187,1.457,1.328,1.328,0,0,0,1.456,1.185A1.327,1.327,0,0,0,1852.6-429.243Z" transform="translate(-1844.667 430.437)" fill="#7dd3e9"/>
        </g>
        <circle id="Elipse_830" data-name="Elipse 830" cx="1.328" cy="1.328" r="1.328" transform="translate(32.685 5.406)" fill="#7dd3e9"/>
        <circle id="Elipse_831" data-name="Elipse 831" cx="1.328" cy="1.328" r="1.328" transform="translate(7.993 8.358)" fill="#7dd3e9"/>
        <g id="Grupo_14916" data-name="Grupo 14916" transform="translate(10.281 38.33)">
          <line id="Línea_601" data-name="Línea 601" x1="3.396" y2="5.034" transform="translate(1.702)" fill="none" stroke="#7dd3e9" stroke-miterlimit="10" stroke-width="2.968"/>
          <path id="Trazado_16474" data-name="Trazado 16474" d="M1827.052-413.607a1.329,1.329,0,0,0,1.838-.388,1.328,1.328,0,0,0-.39-1.838,1.327,1.327,0,0,0-1.836.388A1.329,1.329,0,0,0,1827.052-413.607Z" transform="translate(-1826.448 420.178)" fill="#7dd3e9"/>
        </g>
        <g id="Grupo_14917" data-name="Grupo 14917" transform="translate(19.605)">
          <line id="Línea_602" data-name="Línea 602" x1="1.334" y1="8.194" transform="translate(1.841 2.59)" fill="none" stroke="#7dd3e9" stroke-miterlimit="10" stroke-width="2.968"/>
          <path id="Trazado_16475" data-name="Trazado 16475" d="M1834.259-444.781a1.814,1.814,0,0,0-1.466,2.108,1.815,1.815,0,0,0,2.108,1.466,1.816,1.816,0,0,0,1.466-2.11A1.815,1.815,0,0,0,1834.259-444.781Z" transform="translate(-1832.764 444.811)" fill="#7dd3e9"/>
        </g>
        <g id="Grupo_14918" data-name="Grupo 14918" transform="translate(38.113 29.629)">
          <line id="Línea_603" data-name="Línea 603" x2="7.949" y2="2.395" fill="none" stroke="#7dd3e9" stroke-miterlimit="10" stroke-width="2.968"/>
          <path id="Trazado_16476" data-name="Trazado 16476" d="M1853.5-421.822a1.818,1.818,0,0,0-1.253-2.242,1.815,1.815,0,0,0-2.241,1.253,1.813,1.813,0,0,0,1.252,2.241A1.816,1.816,0,0,0,1853.5-421.822Z" transform="translate(-1843.095 425.029)" fill="#7dd3e9"/>
        </g>
        <g id="Grupo_14919" data-name="Grupo 14919" transform="translate(31.541 38.661)">
          <line id="Línea_604" data-name="Línea 604" x2="4.272" y2="7.119" fill="none" stroke="#7dd3e9" stroke-miterlimit="10" stroke-width="2.968"/>
          <path id="Trazado_16477" data-name="Trazado 16477" d="M1845.5-411.191a1.817,1.817,0,0,0,.582-2.5,1.817,1.817,0,0,0-2.5-.582,1.816,1.816,0,0,0-.58,2.5A1.816,1.816,0,0,0,1845.5-411.191Z" transform="translate(-1839.958 420.561)" fill="#7dd3e9"/>
        </g>
        <g id="Grupo_14920" data-name="Grupo 14920" transform="translate(0.503 14.725)">
          <line id="Línea_605" data-name="Línea 605" x1="7.35" y1="3.861" transform="translate(2.45 2.261)" fill="none" stroke="#7dd3e9" stroke-miterlimit="10" stroke-width="2.968"/>
          <path id="Trazado_16478" data-name="Trazado 16478" d="M1820.02-433.838a1.818,1.818,0,0,0,.8,2.44,1.817,1.817,0,0,0,2.44-.8,1.817,1.817,0,0,0-.8-2.439A1.816,1.816,0,0,0,1820.02-433.838Z" transform="translate(-1819.825 434.836)" fill="#7dd3e9"/>
        </g>
        <g id="Grupo_14921" data-name="Grupo 14921" transform="translate(37.127 10.67)">
          <line id="Línea_606" data-name="Línea 606" y1="4.574" x2="6.929" transform="translate(0 2.156)" fill="none" stroke="#7dd3e9" stroke-miterlimit="10" stroke-width="2.968"/>
          <path id="Trazado_16479" data-name="Trazado 16479" d="M1851.883-436.793a1.816,1.816,0,0,0-2.524-.472,1.817,1.817,0,0,0-.474,2.524,1.817,1.817,0,0,0,2.525.472A1.817,1.817,0,0,0,1851.883-436.793Z" transform="translate(-1842.76 437.583)" fill="#7dd3e9"/>
        </g>
        <g id="Grupo_14922" data-name="Grupo 14922" transform="translate(2.09 23.015)">
          <path id="Trazado_16480" data-name="Trazado 16480" d="M1827.448-428.331c-.176.154-5.425.037-5.425.037" transform="translate(-1820.365 429.644)" fill="none" stroke="#7dd3e9" stroke-miterlimit="10" stroke-width="2.609"/>
          <path id="Trazado_16481" data-name="Trazado 16481" d="M1822.742-426.667a1.329,1.329,0,0,0,.71-1.739,1.329,1.329,0,0,0-1.739-.71,1.329,1.329,0,0,0-.71,1.739A1.329,1.329,0,0,0,1822.742-426.667Z" transform="translate(-1820.9 429.22)" fill="#7dd3e9"/>
        </g>
        <g id="Grupo_14923" data-name="Grupo 14923" transform="translate(6.036 33.452)">
          <path id="Trazado_16482" data-name="Trazado 16482" d="M1828.792-422.15c-.035.232-4.139,3.509-4.139,3.509" transform="translate(-1823.058 422.15)" fill="none" stroke="#7dd3e9" stroke-miterlimit="10" stroke-width="2.609"/>
          <path id="Trazado_16483" data-name="Trazado 16483" d="M1826.081-418.6a1.328,1.328,0,0,0-.57-1.789,1.33,1.33,0,0,0-1.791.57,1.328,1.328,0,0,0,.57,1.789A1.327,1.327,0,0,0,1826.081-418.6Z" transform="translate(-1823.572 422.916)" fill="#7dd3e9"/>
        </g>
        <g id="Grupo_14924" data-name="Grupo 14924" transform="translate(19.095 41.507)">
          <line id="Línea_607" data-name="Línea 607" x1="1.142" y2="8.223" transform="translate(2.02)" fill="none" stroke="#7dd3e9" stroke-miterlimit="10" stroke-width="2.968"/>
          <path id="Trazado_16484" data-name="Trazado 16484" d="M1834.015-408.229a1.818,1.818,0,0,0,2.022-1.583,1.816,1.816,0,0,0-1.583-2.022,1.816,1.816,0,0,0-2.022,1.583A1.814,1.814,0,0,0,1834.015-408.229Z" transform="translate(-1832.419 419.002)" fill="#7dd3e9"/>
        </g>
        <path id="Trazado_16485" data-name="Trazado 16485" d="M1844.5-433.7a1.517,1.517,0,0,1-2.077.468,1.516,1.516,0,0,1-.8-1.972,1.515,1.515,0,0,1,2.077-.468A1.514,1.514,0,0,1,1844.5-433.7Z" transform="translate(-1809.004 449.06)" fill="#69bacc"/>
        <path id="Trazado_16486" data-name="Trazado 16486" d="M1830.61-420.509a1.514,1.514,0,0,1-2.077.468,1.515,1.515,0,0,1-.8-1.972,1.517,1.517,0,0,1,2.077-.468A1.515,1.515,0,0,1,1830.61-420.509Z" transform="translate(-1815.62 455.343)" fill="#69bacc"/>
        <path id="Trazado_16487" data-name="Trazado 16487" d="M1832.626-433.377a1.515,1.515,0,0,1-.844,1.954,1.516,1.516,0,0,1-2.065-.515,1.517,1.517,0,0,1,.844-1.954A1.516,1.516,0,0,1,1832.626-433.377Z" transform="translate(-1814.67 449.918)" fill="#69bacc"/>
        <path id="Trazado_16488" data-name="Trazado 16488" d="M1832.087-419.55a.828.828,0,0,1-.751.887.828.828,0,0,1-1-.6.828.828,0,0,1,.751-.887A.828.828,0,0,1,1832.087-419.55Z" transform="translate(-1814.319 456.549)" fill="#69bacc"/>
        <path id="Trazado_16489" data-name="Trazado 16489" d="M1832.044-420.695a.827.827,0,0,1-1.16.077.827.827,0,0,1-.264-1.132.827.827,0,0,1,1.16-.077A.826.826,0,0,1,1832.044-420.695Z" transform="translate(-1814.242 455.662)" fill="#69bacc"/>
        <path id="Trazado_16490" data-name="Trazado 16490" d="M1840.626-435.829a.828.828,0,0,1-1.107.357.829.829,0,0,1-.533-1.033.828.828,0,0,1,1.107-.357A.828.828,0,0,1,1840.626-435.829Z" transform="translate(-1810.22 448.559)" fill="#69bacc"/>
        <path id="Trazado_16491" data-name="Trazado 16491" d="M1843.8-421.523a.827.827,0,0,1,.14,1.154.828.828,0,0,1-1.118.325.827.827,0,0,1-.139-1.154A.827.827,0,0,1,1843.8-421.523Z" transform="translate(-1808.515 455.849)" fill="#69bacc"/>
        <path id="Trazado_16492" data-name="Trazado 16492" d="M1829.79-435.147a.827.827,0,0,1-.157,1.151.829.829,0,0,1-1.163.034.829.829,0,0,1,.158-1.153A.826.826,0,0,1,1829.79-435.147Z" transform="translate(-1815.285 449.307)" fill="#69bacc"/>
        <path id="Trazado_16493" data-name="Trazado 16493" d="M1829.456-433.125a1.216,1.216,0,0,1-.23,1.692,1.217,1.217,0,0,1-1.708.049,1.217,1.217,0,0,1,.232-1.693A1.215,1.215,0,0,1,1829.456-433.125Z" transform="translate(-1815.776 450.22)" fill="#69bacc"/>
      </g>
    </g>
    <g id="Grupo_14928" data-name="Grupo 14928" transform="translate(1676.988 -569.222)">
      <line id="Línea_608" data-name="Línea 608" x2="99.049" y2="56.68" transform="translate(210.947 136.418)" fill="none" stroke="#9aadef" stroke-miterlimit="10" stroke-width="4.141"/>
      <rect id="Rectángulo_3392" data-name="Rectángulo 3392" width="48.718" height="28.029" transform="translate(224.029 129.679) rotate(29.78)" fill="#fafdff"/>
      <path id="Trazado_16494" data-name="Trazado 16494" d="M1830.192-447.374c2.121-3.558,4.088-7.207,6.151-10.8,1.792-3.121,3.621-6.253,5.567-9.309l-24.284-13.9L1803.7-457.048l24.027,13.748C1828.515-444.676,1829.381-446.013,1830.192-447.374Z" transform="translate(-1593.597 611.055)" fill="#d7e6fc"/>
      <rect id="Rectángulo_3393" data-name="Rectángulo 3393" width="250.262" height="46.048" transform="translate(29.664 5.768) rotate(29.78)" fill="#fafdff"/>
      <rect id="Rectángulo_3394" data-name="Rectángulo 3394" width="123.372" height="23.952" transform="matrix(0.868, 0.497, -0.497, 0.868, 30.195, 17.842)" fill="#d7e6fc"/>
      <path id="Rectángulo_3395" data-name="Rectángulo 3395" d="M0,0H164.647a6.8,6.8,0,0,1,6.8,6.8V26.647a6.638,6.638,0,0,1-6.638,6.638H0a0,0,0,0,1,0,0V0A0,0,0,0,1,0,0Z" transform="translate(89.448 47.408) rotate(29.78)" fill="#ffcd0d"/>
      <path id="Trazado_16495" data-name="Trazado 16495" d="M1736.362-531.918c-4.688,8.465-11.544,20.884-16.045,29.161l-9.548-5.46,16.526-28.89Z" transform="translate(-1637.854 584.515)" fill="#e3edfc"/>
      <rect id="Rectángulo_3396" data-name="Rectángulo 3396" width="7.341" height="54.724" transform="translate(27.18 0) rotate(29.78)" fill="#d7e6fc"/>
      <g id="Grupo_14927" data-name="Grupo 14927" transform="translate(114.62 68.99)" opacity="0.5">
        <path id="Trazado_16496" data-name="Trazado 16496" d="M1750.555-515.913l-11.535-6.574" transform="translate(-1739.02 522.487)" fill="none" stroke="#fff" stroke-linecap="round" stroke-linejoin="round" stroke-width="2"/>
        <path id="Trazado_16497" data-name="Trazado 16497" d="M1847.949-460.408c-25.215-14.561-50.612-28.805-75.919-43.206q-10.768-6.127-21.509-12.3" transform="translate(-1733.543 525.616)" fill="none" stroke="#fff" stroke-linecap="round" stroke-linejoin="round" stroke-width="2"/>
      </g>
    </g>
    <g id="Grupo_14930" data-name="Grupo 14930" transform="translate(1692.687 -498.428)">
      <path id="Trazado_16498" data-name="Trazado 16498" d="M1719.441-421.085s-5.189,10.618-8.821,15.748a108.17,108.17,0,0,0,20.415.241c-2.627-2.823-6.469-4.176-10.245-4.954-.707-.146-1.593-.474-1.592-1.2a1.575,1.575,0,0,1,.362-.844l4.795-6.959" transform="translate(-1653.623 568.973)" fill="#efa19d"/>
      <path id="Trazado_16499" data-name="Trazado 16499" d="M1683.455-425.395s-7.577,4.219-10.2,5.422a2.031,2.031,0,0,0-1.007.744,1.971,1.971,0,0,0-.171.9,54.3,54.3,0,0,0,.084,6.982c.275,2.8,1.116,5.76,3.32,7.508a6.7,6.7,0,0,0,7.555.393l-2.992-2.663c-1.981-1.764-4.149-4.024-3.7-6.639a6.5,6.5,0,0,1,2.929-3.9c1.36-.968,4.945-2.983,4.945-2.983" transform="translate(-1672.01 566.92)" fill="#efa19d"/>
      <path id="Trazado_16500" data-name="Trazado 16500" d="M1720.791-413.281a2.932,2.932,0,0,1-1.242-.512,16.678,16.678,0,0,1-5.381-.511c-1.2,2.118-2.445,4.182-3.548,5.738a108.17,108.17,0,0,0,20.415.241C1728.408-411.148,1724.567-412.5,1720.791-413.281Z" transform="translate(-1653.623 572.202)" fill="#6ba5b5"/>
      <path id="Trazado_16501" data-name="Trazado 16501" d="M1676.348-414.187a5.432,5.432,0,0,1,1.805-2.985,19.558,19.558,0,0,1-2.947-5.2c-.771.4-1.45.737-1.949.965a2.031,2.031,0,0,0-1.007.744,1.971,1.971,0,0,0-.171.9,54.3,54.3,0,0,0,.084,6.982c.275,2.8,1.116,5.76,3.32,7.508a6.7,6.7,0,0,0,7.555.393q-1.495-1.333-2.992-2.663C1678.067-409.313,1675.9-411.573,1676.348-414.187Z" transform="translate(-1672.01 568.358)" fill="#6ba5b5"/>
      <path id="Trazado_16502" data-name="Trazado 16502" d="M1728.29-451.763l-2.854,6.159c-.819,1.779-1.647,3.559-2.467,5.338q-4.322,9.322-8.634,18.653c-1.554,3.344-3.164,6.78-5.847,9.294-2.327,2.176-5.284,3.522-8.193,4.821l-20.536,9.209c-1.206-2.8-2.374-6.176-.688-8.71a9.3,9.3,0,0,1,1.836-1.856q5.762-4.829,11.525-9.66a29.528,29.528,0,0,0,5.236-5.207,28.887,28.887,0,0,0,3.381-7.363q2.768-7.91,5.536-15.83l6.441-18.389,11.873,10.527Z" transform="translate(-1669.049 547.916)" fill="#03173a"/>
      <path id="Trazado_16503" data-name="Trazado 16503" d="M1743.906-427.485c-.481,3.785-2.232,7.288-4.116,10.6-3.719,6.535-8.079,12.673-12.43,18.813a6.988,6.988,0,0,1-1.817,1.978c-2.175,1.394-5.009.094-7.25-1.206q3.671-10.436,7.335-20.875a11.9,11.9,0,0,0,.988-5.264,11.2,11.2,0,0,0-1.581-4.077,123.621,123.621,0,0,0-7.533-11.929c-1.714-2.391-3.5-4.727-5.4-6.987q-2.81-3.419-5.886-6.619l5.348-2.552,15.744-7.514.952-.452c1.882,6.393,6.139,11.77,9.755,17.382S1744.753-434.106,1743.906-427.485Z" transform="translate(-1655.719 548.742)" fill="#0d2a5c"/>
      <path id="Trazado_16504" data-name="Trazado 16504" d="M1734.839-437.826a69.946,69.946,0,0,1-13.155-.791c-1.714-2.391-3.5-4.727-5.4-6.987-.819,1.779-1.647,3.559-2.467,5.338a71.935,71.935,0,0,1-16.385-6.647l6.441-18.389,11.873,10.527,15.744-7.514C1733.738-454.447,1732.08-445.6,1734.839-437.826Z" transform="translate(-1659.901 547.916)" fill="#0d2a5c" opacity="0.5" style="mix-blend-mode: multiply;isolation: isolate"/>
      <path id="Trazado_16505" data-name="Trazado 16505" d="M1712.722-492.19l-9.548-4.142c-.127-.862.108-8.4-.084-12.26l7.768-.028a.964.964,0,0,1,.63.142.968.968,0,0,1,.2.856c-.1,1.187-.17,2.372-.187,3.568-.019,1.036-.01,2.062.047,3.09A48.108,48.108,0,0,0,1712.722-492.19Z" transform="translate(-1657.21 527.287)" fill="#efa19d"/>
      <path id="Trazado_16506" data-name="Trazado 16506" d="M1706.889-502.479c-.187.719-1.28.455-1.867,0a12.345,12.345,0,0,1-4.773-7.337,8.265,8.265,0,0,1,2.859-8.006,11.173,11.173,0,0,1,3.419-1.6,11.334,11.334,0,0,1,4.528-.633c3.355.356,6.06,3.13,7.329,6.256s1.374,6.585,1.463,9.959c.037,1.456.025,3.06-.93,4.16-1.054,1.212-2.862,1.361-4.467,1.295-2.148-.087-4.646-.66-5.511-2.628" transform="translate(-1658.629 521.823)" fill="#efa19d"/>
      <path id="Trazado_16507" data-name="Trazado 16507" d="M1728.429-423.186a78.692,78.692,0,0,1-31.826-11.779c8-13.522,7.7-30.15,6.92-45.9-.019-.471-.047-.942-.066-1.413l-.056-1.214c-.1-2.3-.178-4.6-.348-6.884-.329-4.426-2.025-5.273,3.116-13.617,9.718,5.782,18.673,13.851,22.477,24.5a52.72,52.72,0,0,1,2.288,9.963c.075.565.159,1.12.235,1.686.565,4.218.989,8.473,1.2,12.749C1732.893-444.251,1732.007-433.374,1728.429-423.186Z" transform="translate(-1660.299 529.489)" fill="#c5d6ea"/>
      <path id="Trazado_16508" data-name="Trazado 16508" d="M1713.211-493.118a.783.783,0,0,1,.156,1.215c-.617.734-1.336,1.361-2.016,2.031a61.6,61.6,0,0,1,12.394,7.365c1.141.929,2.242,1.893,3.3,2.905-3.819-10.6-12.743-18.631-22.428-24.4a30.178,30.178,0,0,0-4.75,7.483A32.881,32.881,0,0,1,1713.211-493.118Z" transform="translate(-1658.745 529.488)" fill="#d7e6fc"/>
      <path id="Trazado_16509" data-name="Trazado 16509" d="M1732.611-482.537l-.87,1.054a30.759,30.759,0,0,0,3.716-3.7c1.909-1.887,3.9-2.763,6.1-4.092,2.248-1.36,6.289-4.833,5.72-5.388s-3.1,1.475-3.1,1.475,1.724-1.956,2.765-3.038c.616-.641,1.281-1.5.966-2.326-.354-.264-.847.021-1.185.3a34.641,34.641,0,0,0-3.339,3.383s1.9-2.837,3.32-4.838c.291-.407.561-1.027.174-1.345-.359-.3-.887.015-1.234.325a51.729,51.729,0,0,0-4.232,4.533s1.143-2.273,2.068-3.887c.294-.511.552-1.244.09-1.611-.507-.4-1.2.143-1.612.644-1.439,1.769-3.841,4.824-3.841,4.824s-.413-2.263-.685-3.6a.836.836,0,0,0-.336-.613c-.483-.258-.873.478-.923,1.023a30.392,30.392,0,0,0,.164,6.966l-8.078,7.675" transform="translate(-1645.225 530.522)" fill="#efa19d"/>
      <path id="Trazado_16510" data-name="Trazado 16510" d="M1742.523-493.189s1.724-1.956,2.765-3.038c.616-.641,1.281-1.5.966-2.326-.354-.264-.847.021-1.185.3a34.641,34.641,0,0,0-3.339,3.383s1.9-2.837,3.32-4.838c.291-.407.561-1.027.174-1.345-.359-.3-.887.015-1.234.325a51.729,51.729,0,0,0-4.232,4.533s1.143-2.273,2.068-3.887c.294-.511.552-1.244.09-1.611-.507-.4-1.2.143-1.612.644-1.439,1.769-3.841,4.824-3.841,4.824s-.413-2.263-.685-3.6a.836.836,0,0,0-.336-.613c-.483-.258-.873.478-.923,1.023a30.392,30.392,0,0,0,.164,6.966l-2.956,2.808a16.164,16.164,0,0,1,3.9,2.944c1.355-.961,2.766-1.667,4.275-2.579,2.248-1.36,6.289-4.833,5.72-5.388S1742.523-493.189,1742.523-493.189Z" transform="translate(-1643.573 530.522)" fill="#6ba5b5"/>
      <path id="Trazado_16511" data-name="Trazado 16511" d="M1730.171-461.711a11.609,11.609,0,0,1-3.983,1.912,10.351,10.351,0,0,1-8.135-2,25.928,25.928,0,0,1-5.8-6.348,110.277,110.277,0,0,1-10.922-19.331c-.019-.471-.047-.942-.066-1.413l-.056-1.214c2.684-.047,4.849,2.136,6.959,3.832,5.942,4.8,13.822,6.684,20.574,10.131.075.565.159,1.12.235,1.686C1729.541-470.242,1729.965-465.986,1730.171-461.711Z" transform="translate(-1658.106 536.102)" fill="#0d2a5c" opacity="0.5" style="mix-blend-mode: multiply;isolation: isolate"/>
      <path id="Trazado_16512" data-name="Trazado 16512" d="M1725.655-477.7a60.7,60.7,0,0,0-18.7-19.8c-1.925-1.28-4.77-2.35-6.3-.614a4.284,4.284,0,0,0-.852,2.651c-.272,5.032,2.233,9.764,4.871,14.057,3.416,5.558,7.315,11.033,12.756,14.631,3.629,2.4,8.342,3.868,12.327,2.124a17.508,17.508,0,0,0,4.988-3.822L1751.4-484.76l-6.29-5.917-23.711,14.39" transform="translate(-1658.782 531.862)" fill="#d7e6fc"/>
      <path id="Trazado_16513" data-name="Trazado 16513" d="M1710.346-501.575a29.466,29.466,0,0,1-4.737-5.763,8.869,8.869,0,0,0,4.69,2.673C1710.28-503.628,1710.289-502.6,1710.346-501.575Z" transform="translate(-1656.01 527.898)" fill="#dd8583"/>
      <g id="Grupo_14929" data-name="Grupo 14929" transform="translate(40.446)">
        <path id="Trazado_16514" data-name="Trazado 16514" d="M1718.327-517.419a3,3,0,0,1-1.045.706c-1.187.359-5.424-.112-5.424-.112a12.067,12.067,0,0,1,.244,3.172c-.121,1.649-2.353,1.884-2.353,1.884a13.484,13.484,0,0,1,.471,3.06,3.519,3.519,0,0,1-.83,2.826s-.828-2.118-1.3-3.654-2.467-1.29-2.7,1.3,2.824,3.531,2.824,3.531l-3.417,3.3s-.094-.122-.255-.32c-.592-.763-2.127-2.7-3.153-3.918-1.3-1.535-2.826-4.237-1.413-9.538s8.361-4.709,9.774-4.709,5.763-2,8.587-1.168C1720.464-520.451,1719.456-518.5,1718.327-517.419Z" transform="translate(-1699.409 521.265)" fill="#03173a"/>
        <path id="Trazado_16515" data-name="Trazado 16515" d="M1718.327-517.419c-.01-.084-.038-.17-.057-.254a3.285,3.285,0,0,0-2.542-2.232,5.5,5.5,0,0,0-3.445.565c-.847.413-1.62.96-2.505,1.29a9.216,9.216,0,0,1-3,.424,6.144,6.144,0,0,0-1.9.216,4.29,4.29,0,0,0-1.808,1.309,8.417,8.417,0,0,0-1.441,8.531c.819,2.024,2.458,3.738,2.918,5.838-.592-.763-2.127-2.7-3.153-3.918-1.3-1.535-2.826-4.237-1.413-9.538s8.361-4.709,9.774-4.709,5.763-2,8.587-1.168C1720.464-520.451,1719.456-518.5,1718.327-517.419Z" transform="translate(-1699.409 521.265)" fill="#0d2a5c"/>
      </g>
      <path id="Trazado_16516" data-name="Trazado 16516" d="M1705.713-513.324a3.774,3.774,0,0,1,2.567,3.6,2.637,2.637,0,0,1-3.366,2.294,8.018,8.018,0,0,0,3.725,4.216,11.371,11.371,0,0,0,5.537,1.3,4.591,4.591,0,0,0,1.922-.335,3.671,3.671,0,0,0,1.844-2.406,10.891,10.891,0,0,0,.24-3.107l-.075-4.111a.428.428,0,0,0-.084-.3.43.43,0,0,0-.335-.078,68.091,68.091,0,0,1-12.437-1" transform="translate(-1656.341 525.047)" fill="#6ba5b5"/>
      <path id="Trazado_16517" data-name="Trazado 16517" d="M1699.4-514.548a22.594,22.594,0,0,1,5.4,1.264" transform="translate(-1658.968 524.464)" fill="none" stroke="#6ba5b5" stroke-miterlimit="10" stroke-width="1"/>
      <path id="Trazado_16518" data-name="Trazado 16518" d="M1700.819-510.344a19.7,19.7,0,0,0,4.713,1.34,7.4,7.4,0,0,1,2.83.751" transform="translate(-1658.291 526.466)" fill="none" stroke="#6ba5b5" stroke-miterlimit="10" stroke-width="1"/>
      <path id="Trazado_16519" data-name="Trazado 16519" d="M1707.765-455.292l13.183,4.473,1.648-15.537-12.476,4.473Z" transform="translate(-1654.984 547.414)" fill="#d7e6fc"/>
    </g>
    <g id="Grupo_14932" data-name="Grupo 14932" transform="translate(1776.03 -497.738)">
      <path id="Trazado_16520" data-name="Trazado 16520" d="M1781.574-429.928l16.949-7.533-17.655-52.5-5.65,39.313Z" transform="translate(-1706.205 535.485)" fill="#b8cde0"/>
      <path id="Trazado_16521" data-name="Trazado 16521" d="M1781.574-429.928l16.949-7.533-17.655-52.5-5.65,39.313Z" transform="translate(-1706.205 535.485)" fill="#0d2a5c" opacity="0.5" style="mix-blend-mode: multiply;isolation: isolate"/>
      <path id="Trazado_16522" data-name="Trazado 16522" d="M1777.519-413.568a92.227,92.227,0,0,1-4.711,8.555q11.012-.047,22.021.244a8.667,8.667,0,0,0-5.355-3.233,32.622,32.622,0,0,0-6.377-.458,2.473,2.473,0,0,1-2.022-.683,2.278,2.278,0,0,1,.089-2.241,11.508,11.508,0,0,1,1.729-2.73" transform="translate(-1707.352 571.603)" fill="#ab6360"/>
      <path id="Trazado_16523" data-name="Trazado 16523" d="M1748.382-442.523c-5.691-3.195-5.09-5.179-7.989-7.357a59.141,59.141,0,0,0-11.925,18.735,7.067,7.067,0,0,0,4.948-2.783,29.54,29.54,0,0,0,3-5.006,3.918,3.918,0,0,1,2.2-2.216,4.08,4.08,0,0,1,2.942.861l4.55,2.755" transform="translate(-1728.468 554.57)" fill="#ab6360"/>
      <path id="Trazado_16524" data-name="Trazado 16524" d="M1789.473-409.383a32.622,32.622,0,0,0-6.377-.458,3.722,3.722,0,0,1-1.46-.261,31.125,31.125,0,0,1-6.036-1.112q-1.324,2.449-2.792,4.82,11.012-.047,22.021.244A8.667,8.667,0,0,0,1789.473-409.383Z" transform="translate(-1707.352 572.984)" fill="#6ba5b5"/>
      <path id="Trazado_16525" data-name="Trazado 16525" d="M1741.947-440.059a41.781,41.781,0,0,1,2.964-4.905c.148-.217.3-.444.452-.67a54.4,54.4,0,0,0-4.97-4.246,59.141,59.141,0,0,0-11.925,18.735,7.067,7.067,0,0,0,4.948-2.783,29.54,29.54,0,0,0,3-5.006,3.918,3.918,0,0,1,2.2-2.216,4.08,4.08,0,0,1,2.942.861Z" transform="translate(-1728.468 554.57)" fill="#6ba5b5"/>
      <path id="Trazado_16526" data-name="Trazado 16526" d="M1770.25-448.873a349.49,349.49,0,0,1,16.507,31.892,5.249,5.249,0,0,1,.611,2.07,5.41,5.41,0,0,1-.683,2.294,142.675,142.675,0,0,0-8.565,23.606c1.052,1.29,3.116,1.308,4.569.495a10.8,10.8,0,0,0,3.372-3.618,229.253,229.253,0,0,0,13.667-21.919,17.391,17.391,0,0,0,2.077-5.523,17.892,17.892,0,0,0-.7-6.659,182,182,0,0,0-12.9-36.184" transform="translate(-1708.571 548.599)" fill="#03173a"/>
      <path id="Trazado_16527" data-name="Trazado 16527" d="M1801.882-455.752c-.207.669-.424,1.327-.63,2a134.61,134.61,0,0,1-7.477,19.5c-.273.537-.546,1.075-.828,1.611-3.888,7.3-9.237,14.011-16.3,18.314a12.221,12.221,0,0,1-5.594,2.062c-2.712.133-5.245-1.224-7.628-2.532q-11.738-6.5-23.483-13c-.443-.254-.942-.593-.942-1.1a1.461,1.461,0,0,1,.329-.763c.754-1.082,1.507-2.157,2.251-3.239a5.448,5.448,0,0,1,2.551-2.335,5.367,5.367,0,0,1,3.258.4q7.586,2.6,15.161,5.187a2.724,2.724,0,0,0,1.92.17,2.784,2.784,0,0,0,1.131-1.129,67.468,67.468,0,0,0,5.159-10.208c.546-1.261,1.092-2.56,1.638-3.869,4.086-9.765,8.353-20.178,14.34-22.957l10.857,8.522,3.069,2.419Z" transform="translate(-1723.452 546.111)" fill="#0d2a5c"/>
      <path id="Trazado_16528" data-name="Trazado 16528" d="M1791.006-456.5a134.61,134.61,0,0,1-7.477,19.5,26.666,26.666,0,0,1-2.579-.819c-6.686-2.409-13.372-5.376-20.434-5.744.546-1.261,1.092-2.56,1.638-3.869l9.1-12.552a61.435,61.435,0,0,1,16.1-1.882c.641.009,1.271.028,1.9.056a.9.9,0,0,1,.471.112.944.944,0,0,1,.292.537c.151.565.282,1.14.4,1.714C1790.638-458.47,1790.827-457.49,1791.006-456.5Z" transform="translate(-1713.206 548.858)" fill="#0d2a5c" opacity="0.5" style="mix-blend-mode: multiply;isolation: isolate"/>
      <g id="Grupo_14931" data-name="Grupo 14931" transform="translate(59.052 17.977)">
        <path id="Trazado_16529" data-name="Trazado 16529" d="M1778.1-492.19l-9.548-4.142c-.131-.867.114-8.4-.084-12.26l7.768-.028a.968.968,0,0,1,.632.142.972.972,0,0,1,.2.856c-.057.63-.1,1.271-.122,1.9-.038.557-.056,1.112-.066,1.667-.019,1.036-.009,2.062.047,3.09v.009A48.268,48.268,0,0,0,1778.1-492.19Z" transform="translate(-1768.47 508.62)" fill="#ab6360"/>
        <path id="Trazado_16530" data-name="Trazado 16530" d="M1775.79-501.33v.009c-1.761-.951-4.172-2.673-4.849-5.226-.622-2.355,2.26-1.1,4.869.461-.038.557-.056,1.112-.066,1.667C1775.724-503.384,1775.734-502.358,1775.79-501.33Z" transform="translate(-1767.334 508.986)" fill="#823e3e"/>
      </g>
      <path id="Trazado_16531" data-name="Trazado 16531" d="M1770.164-501.863l7.219,2.9s8.24,7.14,9.024,22.834,3.531,28.8,4.237,30.838,1.1,3.451-3.451,4.708-18.99-30.211-18.99-30.211l1.884-30.758" transform="translate(-1709.546 529.815)" fill="#fff"/>
      <path id="Trazado_16532" data-name="Trazado 16532" d="M1772.27-502.479c-.187.719-1.281.455-1.867,0a12.348,12.348,0,0,1-4.774-7.337,8.272,8.272,0,0,1,2.859-8.006,11.164,11.164,0,0,1,3.42-1.6,11.328,11.328,0,0,1,4.526-.633c3.357.356,6.06,3.13,7.329,6.256s1.376,6.585,1.463,9.959c.039,1.456.025,3.06-.93,4.16-1.052,1.212-2.862,1.361-4.467,1.295-2.146-.087-4.646-.66-5.509-2.628" transform="translate(-1710.837 521.133)" fill="#ab6360"/>
      <path id="Trazado_16533" data-name="Trazado 16533" d="M1773.071-503.36c9.719,5.785,17.763,25.448,17.763,25.448l2.614,55.368s-18.647,3.234-34.656-6.135c10.477-24.482,3.779-69.009,14.278-74.682" transform="translate(-1714.027 529.102)" fill="#c5d6ea"/>
      <path id="Trazado_16534" data-name="Trazado 16534" d="M1790.03-471.2l-1.267.514a30.759,30.759,0,0,0,5.028-1.487c2.576-.751,4.745-.576,7.31-.7,2.624-.127,7.83-1.259,7.6-2.018s-3.428-.177-3.428-.177,2.446-.9,3.877-1.357c.847-.27,1.839-.706,1.957-1.587-.187-.4-.754-.384-1.187-.3a34.689,34.689,0,0,0-4.548,1.386s3.019-1.593,5.223-2.673c.449-.221.982-.638.793-1.1-.174-.431-.787-.409-1.24-.3a52.035,52.035,0,0,0-5.878,1.974s2.086-1.456,3.667-2.433c.5-.31,1.078-.833.846-1.374-.254-.593-1.128-.447-1.724-.2-2.108.871-5.673,2.417-5.673,2.417s.713-2.186,1.111-3.5a.834.834,0,0,0,0-.7c-.3-.456-.995,0-1.3.461a30.422,30.422,0,0,0-3.171,6.2l-10.756,2.907" transform="translate(-1700.468 537.844)" fill="#ab6360"/>
      <path id="Trazado_16535" data-name="Trazado 16535" d="M1809.218-480.7c-.174-.431-.787-.409-1.24-.3a52.035,52.035,0,0,0-5.878,1.974s2.086-1.456,3.667-2.433c.5-.31,1.078-.833.846-1.374-.254-.593-1.128-.447-1.724-.2-2.108.871-5.673,2.417-5.673,2.417s.713-2.186,1.111-3.5a.834.834,0,0,0,0-.7c-.3-.456-.995,0-1.3.461a30.422,30.422,0,0,0-3.171,6.2l-4.041,1.092c.367,1.515.738,3.044,1.091,4.579a41.425,41.425,0,0,1,6.032-.4c2.624-.127,7.83-1.259,7.6-2.018s-3.428-.177-3.428-.177,2.446-.9,3.877-1.357c.847-.27,1.839-.706,1.957-1.587-.187-.4-.754-.384-1.187-.3a34.689,34.689,0,0,0-4.548,1.386s3.019-1.593,5.223-2.673C1808.874-479.817,1809.406-480.234,1809.218-480.7Z" transform="translate(-1698.302 537.844)" fill="#6ba5b5"/>
      <path id="Trazado_16536" data-name="Trazado 16536" d="M1764.074-482.233c.22,4.469,1.537,8.8,2.876,13.07,1.3,4.154,2.926,8.668,6.7,10.84,3.317,1.909,7.5,1.476,11.14.3s7.056-3.042,10.785-3.908q-1.052-3.574-2.1-7.146a1.045,1.045,0,0,0-.2-.43,1.077,1.077,0,0,0-.718-.251,86.521,86.521,0,0,1-15.4-2.874,14.108,14.108,0,0,1-4.684-2.018c-2.681-2-3.747-5.452-4.654-8.668q-.512-1.809-1.022-3.618" transform="translate(-1711.512 536.921)" fill="#0d2a5c" opacity="0.5" style="mix-blend-mode: multiply;isolation: isolate"/>
      <path id="Trazado_16537" data-name="Trazado 16537" d="M1780.342-468.9a60.694,60.694,0,0,0-7.025-26.311c-1.083-2.042-3.076-4.336-5.246-3.537a4.29,4.29,0,0,0-2.012,1.928c-2.632,4.3-2.679,9.649-2.4,14.68.359,6.515,1.183,13.186,4.256,18.94,2.05,3.837,5.5,7.369,9.832,7.732a17.5,17.5,0,0,0,6.206-.988l22.4-6.407q-1.358-4.1-2.716-8.2l-27.7,1.373" transform="translate(-1711.764 531.22)" fill="#d7e6fc"/>
      <path id="Trazado_16538" data-name="Trazado 16538" d="M1771.608-508.3c-.856,3.135,3.06,3.295,3.06,3.295l1.808,6.826s-9.18-3.22-11.695-4.557-1.413-4.473-1.017-7.843a17.672,17.672,0,0,1,1.12-4.539c1.064-2.6,3.013-4.953,6.572-4.953,5.725,0,11.611-2.824,12.082,2.665.009.133.018.264.018.387.03,5.31-8.568,9.5-8.568,9.5S1772.475-511.446,1771.608-508.3Z" transform="translate(-1711.935 520.798)" fill="#03173a"/>
      <path id="Trazado_16539" data-name="Trazado 16539" d="M1769.883-504.2l-4.551,7.062s13.575,5.337,13.339,5.415-3.766,2.275-3.766,2.275l13.654,13.81S1780.162-496.512,1769.883-504.2Z" transform="translate(-1710.913 528.701)" fill="#d7e6fc"/>
      <path id="Trazado_16540" data-name="Trazado 16540" d="M1763.255-513.425a50.962,50.962,0,0,1,8.01,1.216" transform="translate(-1711.902 524.309)" fill="none" stroke="#6ba5b5" stroke-miterlimit="10" stroke-width="1"/>
      <path id="Trazado_16541" data-name="Trazado 16541" d="M1774.551-511.715c.834,1.156,1.219,2.958.132,3.881-.99.84-2.495.391-3.689-.12-2.787-1.191-5.595-2.56-7.636-4.8l6.579,6.447a18.6,18.6,0,0,0,2.266,1.991,18.474,18.474,0,0,0,6.088,2.39,13.2,13.2,0,0,0,3.851.6,4.483,4.483,0,0,0,3.429-1.6c.923-1.239.87-2.924.775-4.467q-.093-1.552-.187-3.106c-1.437.368-2.929-.162-4.354-.573a27.817,27.817,0,0,0-7.179-1.082" transform="translate(-1711.853 524.629)" fill="#6ba5b5"/>
      <path id="Trazado_16542" data-name="Trazado 16542" d="M1767.887-509.136a1.15,1.15,0,0,1-.819-.332,25.146,25.146,0,0,1-3.868-3.7" transform="translate(-1711.928 524.43)" fill="none" stroke="#6ba5b5" stroke-miterlimit="10" stroke-width="1"/>
      <path id="Trazado_16543" data-name="Trazado 16543" d="M1763.8-512.066a7.454,7.454,0,0,1-2.31-2.34,8.234,8.234,0,0,1,2.424,2.118,3.473,3.473,0,0,1-.27-2.734,5.366,5.366,0,0,1,.3,2.862" transform="translate(-1712.741 523.549)" fill="none" stroke="#6ba5b5" stroke-miterlimit="10" stroke-width="1"/>
      <path id="Trazado_16544" data-name="Trazado 16544" d="M1763.83-512.777a32.9,32.9,0,0,1-2.092,2.607" transform="translate(-1712.624 524.618)" fill="none" stroke="#6ba5b5" stroke-miterlimit="10" stroke-width="1"/>
      <path id="Trazado_16545" data-name="Trazado 16545" d="M1783.008-517.02a4.825,4.825,0,0,1-2.626,1.28c-.565.066-1.14.01-1.7.086a6.772,6.772,0,0,1-1.544.217c-.527-.047-1.073-.462-1-.98a.662.662,0,0,0,.009-.273c-.093-.217-.413-.112-.6.019-.63.462-1.271.914-1.9,1.374-.075.056-.179.114-.264.056s-.065-.16-.047-.254c.086-.5.17-1.007.264-1.506-1.658.8-3.314,1.591-4.963,2.391a1,1,0,0,1-.31.112c-.34.019-.585-.357-.585-.686a3.276,3.276,0,0,1,.283-.97,1.045,1.045,0,0,0-.056-.961.816.816,0,0,0-.83-.226,2.239,2.239,0,0,0-.791.424,10.1,10.1,0,0,0-2,1.8c1.064-2.6,3.013-4.953,6.572-4.953,5.725,0,11.611-2.824,12.082,2.665C1783-517.274,1783.008-517.143,1783.008-517.02Z" transform="translate(-1711.386 520.798)" fill="#0d2a5c"/>
    </g>
    <g id="Grupo_14945" data-name="Grupo 14945" transform="translate(1665.386 -568.676)">
      <g id="Grupo_14933" data-name="Grupo 14933" transform="translate(453.378 47.027)" opacity="0.2">
        <circle id="Elipse_832" data-name="Elipse 832" cx="4.653" cy="4.653" r="4.653" fill="#7c9af5"/>
      </g>
      <g id="Grupo_14934" data-name="Grupo 14934" transform="translate(323.498 97.101)" opacity="0.5">
        <path id="Trazado_16546" data-name="Trazado 16546" d="M1878.917-499.945a3.129,3.129,0,0,1-3.13,3.13,3.13,3.13,0,0,1-3.131-3.13,3.13,3.13,0,0,1,3.131-3.13A3.129,3.129,0,0,1,1878.917-499.945Z" transform="translate(-1872.657 503.075)" fill="#f5fcff"/>
      </g>
      <g id="Grupo_14935" data-name="Grupo 14935" transform="translate(541.014 109.94)" opacity="0.2">
        <path id="Trazado_16547" data-name="Trazado 16547" d="M2028.981-489.89a4.489,4.489,0,0,1-4.488,4.489A4.49,4.49,0,0,1,2020-489.89a4.489,4.489,0,0,1,4.489-4.488A4.487,4.487,0,0,1,2028.981-489.89Z" transform="translate(-2020.004 494.378)" fill="#7c9af5"/>
      </g>
      <g id="Grupo_14936" data-name="Grupo 14936" transform="translate(115.709)" opacity="0.5">
        <path id="Trazado_16548" data-name="Trazado 16548" d="M1740.876-564.363a4.489,4.489,0,0,1-4.489,4.488,4.488,4.488,0,0,1-4.488-4.488,4.488,4.488,0,0,1,4.488-4.489A4.489,4.489,0,0,1,1740.876-564.363Z" transform="translate(-1731.899 568.852)" fill="#7c9af5"/>
      </g>
      <g id="Grupo_14937" data-name="Grupo 14937" transform="translate(509.722 99.314)">
        <path id="Trazado_16549" data-name="Trazado 16549" d="M2007.783-497.088a4.488,4.488,0,0,1-4.489,4.489,4.488,4.488,0,0,1-4.488-4.489,4.487,4.487,0,0,1,4.488-4.488A4.488,4.488,0,0,1,2007.783-497.088Z" transform="translate(-1998.806 501.576)" fill="#f5fcff"/>
      </g>
      <g id="Grupo_14938" data-name="Grupo 14938" transform="translate(127.308 143.727)">
        <circle id="Elipse_833" data-name="Elipse 833" cx="2.754" cy="2.754" r="2.754" fill="#f5fcff"/>
      </g>
      <g id="Grupo_14939" data-name="Grupo 14939" transform="translate(386.049 91.494)">
        <circle id="Elipse_834" data-name="Elipse 834" cx="2.754" cy="2.754" r="2.754" fill="#f5fcff"/>
      </g>
      <g id="Grupo_14940" data-name="Grupo 14940" transform="translate(269.909 119.969)">
        <path id="Trazado_16550" data-name="Trazado 16550" d="M1843.978-483.774a3.812,3.812,0,0,1-3.812,3.812,3.812,3.812,0,0,1-3.812-3.812,3.811,3.811,0,0,1,3.812-3.81A3.811,3.811,0,0,1,1843.978-483.774Z" transform="translate(-1836.355 487.584)" fill="#f5fcff"/>
      </g>
      <g id="Grupo_14941" data-name="Grupo 14941" transform="translate(0 168.212)">
        <path id="Trazado_16551" data-name="Trazado 16551" d="M1661.139-451.094a3.811,3.811,0,0,1-3.81,3.812,3.812,3.812,0,0,1-3.812-3.812,3.81,3.81,0,0,1,3.812-3.81A3.81,3.81,0,0,1,1661.139-451.094Z" transform="translate(-1653.517 454.904)" fill="#f5fcff"/>
      </g>
      <g id="Grupo_14942" data-name="Grupo 14942" transform="translate(15.471 106.764)">
        <path id="Trazado_16552" data-name="Trazado 16552" d="M1671.619-492.719a3.812,3.812,0,0,1-3.812,3.812,3.81,3.81,0,0,1-3.81-3.812,3.809,3.809,0,0,1,3.81-3.81A3.81,3.81,0,0,1,1671.619-492.719Z" transform="translate(-1663.997 496.529)" fill="#f5fcff"/>
      </g>
      <g id="Grupo_14943" data-name="Grupo 14943" transform="translate(84.481 153.559)" opacity="0.25">
        <path id="Trazado_16553" data-name="Trazado 16553" d="M1724.043-458.181a6.649,6.649,0,0,1-6.649,6.649,6.648,6.648,0,0,1-6.649-6.649,6.649,6.649,0,0,1,6.649-6.649A6.65,6.65,0,0,1,1724.043-458.181Z" transform="translate(-1710.745 464.83)" fill="#7c9af5"/>
      </g>
      <g id="Grupo_14944" data-name="Grupo 14944" transform="translate(306.405 45.03)" opacity="0.25">
        <path id="Trazado_16554" data-name="Trazado 16554" d="M1874.376-531.7a6.649,6.649,0,0,1-6.649,6.649,6.648,6.648,0,0,1-6.649-6.649,6.649,6.649,0,0,1,6.649-6.649A6.65,6.65,0,0,1,1874.376-531.7Z" transform="translate(-1861.078 538.348)" fill="#7c9af5"/>
      </g>
    </g>
    <g id="Grupo_14949" data-name="Grupo 14949" transform="translate(2027.891 -482.967)">
      <g id="Grupo_14946" data-name="Grupo 14946" transform="translate(77.58)">
        <path id="Trazado_16555" data-name="Trazado 16555" d="M1973.973-496.121h0l-.1.055a21.954,21.954,0,0,0-9.994,11.482l-1.075,2.834-1.073-2.834a21.951,21.951,0,0,0-10-11.482l-.1-.055h0a21.95,21.95,0,0,0,10.065-11.672l1.1-3,1.1,3A21.958,21.958,0,0,0,1973.973-496.121Z" transform="translate(-1951.633 510.792)" fill="#fff"/>
      </g>
      <g id="Grupo_14947" data-name="Grupo 14947" transform="translate(72.493 35.463)">
        <path id="Trazado_16556" data-name="Trazado 16556" d="M1959.129-479.584h0l-.05.027a10.757,10.757,0,0,0-4.9,5.624l-.526,1.389-.526-1.389a10.753,10.753,0,0,0-4.9-5.624l-.049-.027h0a10.749,10.749,0,0,0,4.929-5.717l.542-1.467.54,1.467A10.751,10.751,0,0,0,1959.129-479.584Z" transform="translate(-1948.187 486.769)" fill="#fff"/>
      </g>
      <g id="Grupo_14948" data-name="Grupo 14948" transform="translate(0 32.007)">
        <path id="Trazado_16557" data-name="Trazado 16557" d="M1915.338-478.434h0l-.074.04a15.975,15.975,0,0,0-7.273,8.357l-.782,2.062-.781-2.062a15.981,15.981,0,0,0-7.273-8.357l-.074-.04h0a15.972,15.972,0,0,0,7.325-8.494l.8-2.182.8,2.182A15.973,15.973,0,0,0,1915.338-478.434Z" transform="translate(-1899.08 489.11)" fill="#fff"/>
      </g>
    </g>
  </g>
</svg>
