<svg xmlns="http://www.w3.org/2000/svg" width="266.591" height="161" viewBox="0 0 266.591 161">
  <g id="Grupo_11530" data-name="Grupo 11530" transform="translate(-103.471 -89.262)">
    <circle id="Elipse_623" data-name="Elipse 623" cx="68.879" cy="68.879" r="68.879" transform="translate(168.788 103.188)" fill="#e1f5fb" opacity="0.5"/>
    <g id="Grupo_11446" data-name="Grupo 11446" transform="translate(208.102 157.823)">
      <path id="Trazado_10953" data-name="Trazado 10953" d="M480.772,312.894l-3.368,6.8-7.816-4.71a.914.914,0,0,1-.348-1.189l1.892-3.821a.915.915,0,0,1,1.156-.444Z" transform="translate(-436.14 -295.147)" fill="#45adac"/>
      <path id="Trazado_10954" data-name="Trazado 10954" d="M493.51,308.271l-7.579,15.31-.721-.357a2.683,2.683,0,0,1-1.448-2.892l1.062-5.752a2.682,2.682,0,0,1,.624-1.285l4.165-4.734a2.683,2.683,0,0,1,3.205-.633Z" transform="translate(-445.227 -294.012)" fill="#5b418a"/>
      <path id="Trazado_10955" data-name="Trazado 10955" d="M554.414,324.448l-2.575.874a3.175,3.175,0,0,1-2.43-.161l-49.022-24.268a3.173,3.173,0,0,0-4.251,1.436l-9.087,18.356a3.172,3.172,0,0,0,1.436,4.251L537.508,349.2a3.178,3.178,0,0,1,1.6,1.835l.866,2.577a1.461,1.461,0,0,0,2.695.183l.811-1.638,11.9-24.043.811-1.638A1.461,1.461,0,0,0,554.414,324.448Z" transform="translate(-447.1 -289.593)" fill="#ddd" opacity="0.8"/>
      <path id="Trazado_10956" data-name="Trazado 10956" d="M526.039,316.318l-10.715,21.644-24.033-11.9a2.234,2.234,0,0,1-1.011-2.993l8.733-17.641a2.234,2.234,0,0,1,2.993-1.011Z" transform="translate(-449.176 -291.853)" fill="#45adac"/>
      <path id="Trazado_10957" data-name="Trazado 10957" d="M415.823,287.511l-.641,1.3-33.725-16.7,1.853-.7Z" transform="translate(-381.457 -271.416)" fill="#fff"/>
      <rect id="Rectángulo_2933" data-name="Rectángulo 2933" width="24.151" height="6.81" transform="translate(66.149 46.109) rotate(-63.663)" fill="#5b418a"/>
      <g id="Grupo_11444" data-name="Grupo 11444" transform="translate(72.252 27.486)">
        <path id="Trazado_10958" data-name="Trazado 10958" d="M582.128,348.486l-6.484,13.1-2.227,4.5,2.012,1a1.16,1.16,0,0,0,1.554-.525l1.713-3.46,41.291,20.441,6.484-13.1L585.179,350l1.488-3.007a1.159,1.159,0,0,0-.525-1.554l-2.012-1Z" transform="translate(-573.416 -344.44)" fill="#ddd"/>
        <path id="Trazado_10959" data-name="Trazado 10959" d="M704.584,396.637l-12.97,26.2a2.088,2.088,0,0,1-2.8.945h0a2.088,2.088,0,0,1-.945-2.8l12.97-26.2a2.088,2.088,0,0,1,2.8-.945h0A2.088,2.088,0,0,1,704.584,396.637Z" transform="translate(-644.657 -375.11)" fill="#ddd"/>
        <path id="Trazado_10960" data-name="Trazado 10960" d="M593.926,359.2l-2.674,5.4-1.137,2.3-2.674,5.4,1.457.721,2.674-5.4,39.835,19.72,1.137-2.3-39.835-19.72,2.674-5.4Z" transform="translate(-582.162 -353.646)" fill="#58ddda"/>
      </g>
      <g id="Grupo_11445" data-name="Grupo 11445" transform="translate(49.176 14.064)">
        <line id="Línea_132" data-name="Línea 132" y1="4.239" x2="2.098" fill="none" stroke="#e3ebed" stroke-linecap="round" stroke-miterlimit="10" stroke-width="1.513"/>
        <line id="Línea_133" data-name="Línea 133" y1="2.751" x2="1.362" transform="translate(2.413 0.83)" fill="none" stroke="#e3ebed" stroke-linecap="round" stroke-miterlimit="10" stroke-width="1.513"/>
        <line id="Línea_134" data-name="Línea 134" y1="2.751" x2="1.362" transform="translate(4.089 1.66)" fill="none" stroke="#e3ebed" stroke-linecap="round" stroke-miterlimit="10" stroke-width="1.513"/>
        <line id="Línea_135" data-name="Línea 135" y1="4.239" x2="2.098" transform="translate(5.03 2.49)" fill="none" stroke="#e3ebed" stroke-linecap="round" stroke-miterlimit="10" stroke-width="1.513"/>
        <line id="Línea_136" data-name="Línea 136" y1="2.751" x2="1.362" transform="translate(7.443 3.32)" fill="none" stroke="#e3ebed" stroke-linecap="round" stroke-miterlimit="10" stroke-width="1.513"/>
        <line id="Línea_137" data-name="Línea 137" y1="2.751" x2="1.362" transform="translate(9.119 4.15)" fill="none" stroke="#e3ebed" stroke-linecap="round" stroke-miterlimit="10" stroke-width="1.513"/>
        <line id="Línea_138" data-name="Línea 138" y1="4.239" x2="2.098" transform="translate(10.059 4.98)" fill="none" stroke="#e3ebed" stroke-linecap="round" stroke-miterlimit="10" stroke-width="1.513"/>
        <line id="Línea_139" data-name="Línea 139" y1="2.751" x2="1.362" transform="translate(12.472 5.81)" fill="none" stroke="#e3ebed" stroke-linecap="round" stroke-miterlimit="10" stroke-width="1.513"/>
        <line id="Línea_140" data-name="Línea 140" y1="2.751" x2="1.362" transform="translate(14.149 6.64)" fill="none" stroke="#e3ebed" stroke-linecap="round" stroke-miterlimit="10" stroke-width="1.513"/>
        <line id="Línea_141" data-name="Línea 141" y1="4.239" x2="2.098" transform="translate(15.089 7.47)" fill="none" stroke="#e3ebed" stroke-linecap="round" stroke-miterlimit="10" stroke-width="1.513"/>
        <line id="Línea_142" data-name="Línea 142" y1="2.751" x2="1.362" transform="translate(17.502 8.3)" fill="none" stroke="#e3ebed" stroke-linecap="round" stroke-miterlimit="10" stroke-width="1.513"/>
        <line id="Línea_143" data-name="Línea 143" y1="2.751" x2="1.362" transform="translate(19.179 9.13)" fill="none" stroke="#e3ebed" stroke-linecap="round" stroke-miterlimit="10" stroke-width="1.513"/>
        <line id="Línea_144" data-name="Línea 144" y1="4.239" x2="2.098" transform="translate(20.119 9.959)" fill="none" stroke="#e3ebed" stroke-linecap="round" stroke-miterlimit="10" stroke-width="1.513"/>
        <line id="Línea_145" data-name="Línea 145" y1="2.751" x2="1.362" transform="translate(22.532 10.789)" fill="none" stroke="#e3ebed" stroke-linecap="round" stroke-miterlimit="10" stroke-width="1.513"/>
        <line id="Línea_146" data-name="Línea 146" y1="2.751" x2="1.362" transform="translate(24.208 11.619)" fill="none" stroke="#e3ebed" stroke-linecap="round" stroke-miterlimit="10" stroke-width="1.513"/>
        <line id="Línea_147" data-name="Línea 147" y1="4.239" x2="2.098" transform="translate(25.149 12.449)" fill="none" stroke="#e3ebed" stroke-linecap="round" stroke-miterlimit="10" stroke-width="1.513"/>
        <line id="Línea_148" data-name="Línea 148" y1="2.751" x2="1.362" transform="translate(27.561 13.279)" fill="none" stroke="#e3ebed" stroke-linecap="round" stroke-miterlimit="10" stroke-width="1.513"/>
        <line id="Línea_149" data-name="Línea 149" y1="2.751" x2="1.362" transform="translate(29.238 14.109)" fill="none" stroke="#e3ebed" stroke-linecap="round" stroke-miterlimit="10" stroke-width="1.513"/>
        <line id="Línea_150" data-name="Línea 150" y1="4.239" x2="2.098" transform="translate(30.178 14.939)" fill="none" stroke="#e3ebed" stroke-linecap="round" stroke-miterlimit="10" stroke-width="1.513"/>
        <line id="Línea_151" data-name="Línea 151" y1="2.751" x2="1.362" transform="translate(32.591 15.769)" fill="none" stroke="#e3ebed" stroke-linecap="round" stroke-miterlimit="10" stroke-width="1.513"/>
        <line id="Línea_152" data-name="Línea 152" y1="2.751" x2="1.362" transform="translate(34.268 16.599)" fill="none" stroke="#e3ebed" stroke-linecap="round" stroke-miterlimit="10" stroke-width="1.513"/>
        <line id="Línea_153" data-name="Línea 153" y1="4.239" x2="2.098" transform="translate(35.208 17.429)" fill="none" stroke="#e3ebed" stroke-linecap="round" stroke-miterlimit="10" stroke-width="1.513"/>
        <line id="Línea_154" data-name="Línea 154" y1="2.751" x2="1.362" transform="translate(37.621 18.259)" fill="none" stroke="#e3ebed" stroke-linecap="round" stroke-miterlimit="10" stroke-width="1.513"/>
        <line id="Línea_155" data-name="Línea 155" y1="2.751" x2="1.362" transform="translate(39.297 19.089)" fill="none" stroke="#e3ebed" stroke-linecap="round" stroke-miterlimit="10" stroke-width="1.513"/>
        <line id="Línea_156" data-name="Línea 156" y1="4.239" x2="2.098" transform="translate(40.238 19.919)" fill="none" stroke="#e3ebed" stroke-linecap="round" stroke-miterlimit="10" stroke-width="1.513"/>
        <line id="Línea_157" data-name="Línea 157" y1="2.751" x2="1.362" transform="translate(42.65 20.749)" fill="none" stroke="#e3ebed" stroke-linecap="round" stroke-miterlimit="10" stroke-width="1.513"/>
        <line id="Línea_158" data-name="Línea 158" y1="2.751" x2="1.362" transform="translate(44.327 21.579)" fill="none" stroke="#e3ebed" stroke-linecap="round" stroke-miterlimit="10" stroke-width="1.513"/>
        <line id="Línea_159" data-name="Línea 159" y1="4.239" x2="2.098" transform="translate(45.267 22.409)" fill="none" stroke="#e3ebed" stroke-linecap="round" stroke-miterlimit="10" stroke-width="1.513"/>
        <line id="Línea_160" data-name="Línea 160" y1="2.751" x2="1.362" transform="translate(47.68 23.239)" fill="none" stroke="#e3ebed" stroke-linecap="round" stroke-miterlimit="10" stroke-width="1.513"/>
        <line id="Línea_161" data-name="Línea 161" y1="2.751" x2="1.362" transform="translate(49.357 24.069)" fill="none" stroke="#e3ebed" stroke-linecap="round" stroke-miterlimit="10" stroke-width="1.513"/>
        <line id="Línea_162" data-name="Línea 162" y1="4.239" x2="2.098" transform="translate(50.297 24.899)" fill="none" stroke="#e3ebed" stroke-linecap="round" stroke-miterlimit="10" stroke-width="1.513"/>
      </g>
    </g>
    <g id="Grupo_11453" data-name="Grupo 11453" transform="translate(141.76 108.96)">
      <g id="Grupo_11449" data-name="Grupo 11449" transform="translate(0 0)">
        <g id="Grupo_11447" data-name="Grupo 11447" transform="translate(5.247 8.433)">
          <path id="Trazado_10961" data-name="Trazado 10961" d="M255.62,176.705l33.46,17.1c3.3,1.676,4.907,5.11,3.6,7.69l-15.236,30.02c-1.31,2.581-5.03,3.312-8.331,1.637l-44.7-20.642a8.985,8.985,0,0,1-3.423-13.616c.257-.33.509-.675.753-1.035C227.322,189.584,251.194,184.993,255.62,176.705Z" transform="translate(-219.139 -171.923)" fill="#45adac"/>
          <path id="Rectángulo_2934" data-name="Rectángulo 2934" d="M0,0H4.477a9.17,9.17,0,0,1,9.17,9.17V47.637a9.17,9.17,0,0,1-9.17,9.17H0a0,0,0,0,1,0,0V0A0,0,0,0,1,0,0Z" transform="translate(14.253 12.168) rotate(-63.09)" fill="#fff" opacity="0.3"/>
        </g>
        <g id="Grupo_11448" data-name="Grupo 11448">
          <path id="Trazado_10962" data-name="Trazado 10962" d="M273.039,212.82l4.035-7.949,4.685,2.378,7.995-15.752-4.685-2.378,4.057-7.993a9.99,9.99,0,0,0-4.392-13.447L235.244,142.56a8.961,8.961,0,0,0-12.037,3.97l-17.029,33.551a8.961,8.961,0,0,0,3.9,12.058l49.489,25.118A10.033,10.033,0,0,0,273.039,212.82Zm-58.913-25.062a5.222,5.222,0,0,1-2.3-7.031l15.237-30.019a5.222,5.222,0,0,1,7.03-2.3l46.818,23.763a6.079,6.079,0,0,1,2.676,8.191l-14.455,28.48a6.111,6.111,0,0,1-8.191,2.675Z" transform="translate(-205.198 -141.595)" fill="#ddd"/>
        </g>
        <path id="Trazado_10963" data-name="Trazado 10963" d="M409.179,290.6l-5.841-2.964a1.127,1.127,0,0,1-.49-1.5l9.422-18.564a1.127,1.127,0,0,1,1.5-.491l5.841,2.964a1.69,1.69,0,0,1,.736,2.253l-8.917,17.568A1.69,1.69,0,0,1,409.179,290.6Z" transform="translate(-328.38 -219.775)" fill="#755cad"/>
        <path id="Trazado_10964" data-name="Trazado 10964" d="M428.348,277.776l-8.331-4.228,3.034-5.977a1.127,1.127,0,0,1,1.5-.491l5.841,2.964a1.69,1.69,0,0,1,.736,2.253Z" transform="translate(-339.161 -219.775)" fill="#5b418a"/>
        <path id="Trazado_10965" data-name="Trazado 10965" d="M409.179,320.267l-5.841-2.965a1.127,1.127,0,0,1-.49-1.5l.644-1.268,8.331,4.228-.391.77A1.69,1.69,0,0,1,409.179,320.267Z" transform="translate(-328.38 -249.441)" fill="#5b418a"/>
      </g>
      <rect id="Rectángulo_2935" data-name="Rectángulo 2935" width="42.496" height="45.69" transform="translate(71.407 31.632) rotate(116.932)" fill="#fff"/>
      <g id="Grupo_11450" data-name="Grupo 11450" transform="translate(28.955 21.942)">
        <path id="Trazado_10966" data-name="Trazado 10966" d="M285.974,200.2a2.429,2.429,0,0,1,1.392,2.592l-1.057-.544a1.3,1.3,0,0,0-.766-1.224,1.715,1.715,0,0,0-1.559,3.036,1.294,1.294,0,0,0,1.445-.1l1.058.543a2.42,2.42,0,0,1-2.917.378,2.633,2.633,0,0,1,2.406-4.684Z" transform="translate(-282.125 -199.89)" fill="#e23b59"/>
        <path id="Trazado_10967" data-name="Trazado 10967" d="M297.016,211.808a2.64,2.64,0,1,1,3.554-1.147A2.591,2.591,0,0,1,297.016,211.808Zm.422-.821a1.719,1.719,0,1,0-.62-2.253A1.559,1.559,0,0,0,297.438,210.987Z" transform="translate(-290.505 -204.201)" fill="#e23b59"/>
        <path id="Trazado_10968" data-name="Trazado 10968" d="M315.221,213.235l.979.5-4.038,3.722-1.117-.574.674-5.45.985.506-.612,4.294Z" transform="translate(-300.16 -207.09)" fill="#e23b59"/>
        <path id="Trazado_10969" data-name="Trazado 10969" d="M322.306,218.306l.92.472-2.355,4.586-.92-.473Z" transform="translate(-305.714 -211.374)" fill="#e23b59"/>
        <path id="Trazado_10970" data-name="Trazado 10970" d="M330,225.164a2.484,2.484,0,0,1-3.592,1.044l-1.6-.824,2.355-4.586,1.6.824A2.491,2.491,0,0,1,330,225.164Zm-3.223.245a1.542,1.542,0,0,0,2.284-.728,1.558,1.558,0,0,0-.728-2.3l-.65-.334-1.556,3.029Z" transform="translate(-308.74 -212.929)" fill="#e23b59"/>
        <path id="Trazado_10971" data-name="Trazado 10971" d="M344.582,234.3l2.786,1.431-.4.775-2.785-1.431Z" transform="translate(-320.826 -221.351)" fill="#e23b59"/>
        <path id="Trazado_10972" data-name="Trazado 10972" d="M358.952,237.065l-.637-.327.435-.847,1.583.813-2.46,4.789-.947-.486Z" transform="translate(-328.772 -222.34)" fill="#e23b59"/>
        <path id="Trazado_10973" data-name="Trazado 10973" d="M364.866,244.125a.765.765,0,0,0,.436.979c.539.277.981,0,1.535-1.08a1.393,1.393,0,0,1-1.241-.073,1.589,1.589,0,0,1-.705-2.3,1.675,1.675,0,0,1,2.433-.76c1.3.668,1.25,1.754.47,3.272-.837,1.629-1.65,2.324-2.918,1.672a1.606,1.606,0,0,1-.862-2.153ZM367.3,242.9a.864.864,0,1,0-1.134.4A.792.792,0,0,0,367.3,242.9Z" transform="translate(-333.102 -225.307)" fill="#e23b59"/>
      </g>
      <g id="Grupo_11451" data-name="Grupo 11451" transform="translate(24.333 31.967)">
        <path id="Trazado_10974" data-name="Trazado 10974" d="M272.006,226.694a1.373,1.373,0,0,1,.8,1.4l-.406-.209a.918.918,0,0,0-.546-.9,1.162,1.162,0,0,0-1.058,2.06.921.921,0,0,0,1.046-.075l.406.209a1.373,1.373,0,0,1-1.6.161,1.491,1.491,0,0,1,1.362-2.652Z" transform="translate(-269.847 -226.526)" fill="#203968"/>
        <path id="Trazado_10975" data-name="Trazado 10975" d="M278.285,233.283a1.491,1.491,0,1,1,1.984-.656A1.439,1.439,0,0,1,278.285,233.283Zm.151-.294a1.163,1.163,0,1,0-.428-1.524A1.066,1.066,0,0,0,278.436,232.989Z" transform="translate(-274.608 -228.979)" fill="#203968"/>
        <path id="Trazado_10976" data-name="Trazado 10976" d="M286.467,233.81a.872.872,0,0,1,.509,1.227.823.823,0,0,1-1,.427l.093,1.422-.406-.208-.073-1.379-.41-.211-.545,1.061-.339-.174,1.334-2.6Zm-.143.279-.5-.256-.5.983.5.256a.536.536,0,0,0,.808-.216C286.777,234.563,286.711,234.289,286.323,234.09Z" transform="translate(-278.857 -230.8)" fill="#203968"/>
        <path id="Trazado_10977" data-name="Trazado 10977" d="M292.07,240.364a1.491,1.491,0,1,1,1.984-.656A1.439,1.439,0,0,1,292.07,240.364Zm.151-.294a1.163,1.163,0,1,0-.428-1.524A1.066,1.066,0,0,0,292.221,240.07Z" transform="translate(-283.205 -233.395)" fill="#203968"/>
        <path id="Trazado_10978" data-name="Trazado 10978" d="M301.457,241.5l-1.335,2.6-.339-.174-.3-2.767-1.062,2.067-.339-.174,1.335-2.6.339.174.3,2.763,1.06-2.063Z" transform="translate(-287.454 -235.21)" fill="#203968"/>
        <path id="Trazado_10979" data-name="Trazado 10979" d="M306.592,247.522l-1.133-.582-.505.47-.357-.183,2.264-2.1.391.2-.391,3.061-.358-.184Zm.249-1.877-1.143,1.07.939.483Z" transform="translate(-291.517 -238.126)" fill="#203968"/>
        <path id="Trazado_10980" data-name="Trazado 10980" d="M316.1,248.2l.358.183-2.313,2.092-.391-.2.355-3.1.361.186-.334,2.657Z" transform="translate(-297.228 -239.403)" fill="#203968"/>
        <path id="Trazado_10981" data-name="Trazado 10981" d="M319.715,250.889l.34.174-1.334,2.6-.339-.174Z" transform="translate(-300.113 -241.719)" fill="#203968"/>
        <path id="Trazado_10982" data-name="Trazado 10982" d="M322.986,252.569a.872.872,0,0,1,.509,1.227.823.823,0,0,1-1,.428l.093,1.422-.406-.209-.073-1.379-.41-.21-.545,1.061-.339-.174,1.334-2.6Zm-.143.279-.5-.256-.505.983.5.256a.535.535,0,0,0,.807-.216C323.3,253.322,323.23,253.048,322.843,252.849Z" transform="translate(-301.631 -242.498)" fill="#203968"/>
        <path id="Trazado_10983" data-name="Trazado 10983" d="M328.7,255.217l.339.174-.843,1.642a.719.719,0,1,0,1.277.656l.844-1.643.339.174-.842,1.638a1.1,1.1,0,1,1-1.955-1Z" transform="translate(-305.93 -244.418)" fill="#203968"/>
        <path id="Trazado_10984" data-name="Trazado 10984" d="M334.644,262.092a.891.891,0,0,1-.529-1.18l.361.186a.541.541,0,0,0,.314.708.513.513,0,0,0,.744-.164c.359-.7-1.274-.974-.779-1.939a.851.851,0,0,1,1.23-.277.872.872,0,0,1,.518,1.108l-.372-.191a.528.528,0,0,0-.309-.635.482.482,0,0,0-.714.161c-.344.67,1.27.973.777,1.934A.874.874,0,0,1,334.644,262.092Z" transform="translate(-309.876 -246.954)" fill="#203968"/>
      </g>
      <g id="Grupo_11452" data-name="Grupo 11452" transform="translate(22.129 36.294)">
        <path id="Trazado_10985" data-name="Trazado 10985" d="M267.907,239.73l.6.306-3.861,3.493-.653-.335.591-5.174.6.31-.558,4.436Z" transform="translate(-263.99 -238.021)" fill="#203968"/>
        <path id="Trazado_10986" data-name="Trazado 10986" d="M274.323,250.051l-1.89-.971-.844.785-.6-.307,3.78-3.5.653.335-.653,5.11-.6-.306Zm.415-3.134-1.908,1.786,1.567.8Z" transform="translate(-268.357 -243.03)" fill="#203968"/>
        <path id="Trazado_10987" data-name="Trazado 10987" d="M288.057,251.993a2.293,2.293,0,0,1,1.334,2.343l-.678-.348a1.532,1.532,0,0,0-.912-1.5,1.939,1.939,0,0,0-1.766,3.438,1.537,1.537,0,0,0,1.745-.125l.678.348a2.291,2.291,0,0,1-2.675.268,2.489,2.489,0,0,1,2.274-4.427Z" transform="translate(-276.75 -246.559)" fill="#203968"/>
        <path id="Trazado_10988" data-name="Trazado 10988" d="M298.734,256.475l.566.291-1.408,2.742a1.2,1.2,0,1,0,2.132,1.1l1.408-2.742.566.291-1.405,2.735a1.835,1.835,0,1,1-3.264-1.676Z" transform="translate(-284.622 -249.529)" fill="#203968"/>
        <path id="Trazado_10989" data-name="Trazado 10989" d="M312.387,263.952l-2.229,4.34-.566-.291-.5-4.619-1.772,3.45-.566-.291,2.229-4.339.566.291.506,4.613,1.769-3.444Z" transform="translate(-290.656 -253.101)" fill="#203968"/>
        <path id="Trazado_10990" data-name="Trazado 10990" d="M320.966,274.011l-1.89-.971-.844.785-.6-.307,3.78-3.5.653.335-.653,5.11-.6-.306Zm.415-3.134-1.907,1.786,1.567.8Z" transform="translate(-297.444 -257.972)" fill="#203968"/>
      </g>
      <line id="Línea_163" data-name="Línea 163" x2="25.021" y2="12.852" transform="translate(27.192 28.58)" fill="none" stroke="#000" stroke-miterlimit="10" stroke-width="0.926"/>
    </g>
    <g id="Grupo_11529" data-name="Grupo 11529" transform="translate(103.471 89.262)">
      <g id="Grupo_11485" data-name="Grupo 11485">
        <g id="Grupo_11454" data-name="Grupo 11454" transform="translate(21.546 34.386)" opacity="0.5">
          <path id="Trazado_10991" data-name="Trazado 10991" d="M164.624,182.573a1.955,1.955,0,1,1-1.955-1.955A1.955,1.955,0,0,1,164.624,182.573Z" transform="translate(-160.714 -180.618)" fill="#f5fcff"/>
        </g>
        <g id="Grupo_11455" data-name="Grupo 11455" transform="translate(27.155 57.149)" opacity="0.5">
          <path id="Trazado_10992" data-name="Trazado 10992" d="M178.343,242.46a1.363,1.363,0,1,1-1.363-1.363A1.363,1.363,0,0,1,178.343,242.46Z" transform="translate(-175.617 -241.097)" fill="#f5fcff"/>
        </g>
        <g id="Grupo_11456" data-name="Grupo 11456" opacity="0.5">
          <path id="Trazado_10993" data-name="Trazado 10993" d="M106.2,90.625a1.363,1.363,0,1,1-1.363-1.363A1.363,1.363,0,0,1,106.2,90.625Z" transform="translate(-103.471 -89.262)" fill="#f5fcff"/>
        </g>
        <g id="Grupo_11457" data-name="Grupo 11457" transform="translate(190.906 90.116)" opacity="0.2">
          <circle id="Elipse_624" data-name="Elipse 624" cx="1.723" cy="1.723" r="1.723" fill="#7c9af5"/>
        </g>
        <g id="Grupo_11458" data-name="Grupo 11458" transform="translate(175.506 130.798)" opacity="0.5">
          <path id="Trazado_10994" data-name="Trazado 10994" d="M572.075,437.926a1.159,1.159,0,1,1-1.159-1.159A1.159,1.159,0,0,1,572.075,437.926Z" transform="translate(-569.757 -436.767)" fill="#f5fcff"/>
        </g>
        <g id="Grupo_11459" data-name="Grupo 11459" transform="translate(41.912 26.416)" opacity="0.5">
          <circle id="Elipse_625" data-name="Elipse 625" cx="1.955" cy="1.955" r="1.955" fill="#f5fcff"/>
        </g>
        <g id="Grupo_11460" data-name="Grupo 11460" transform="translate(263.267 157.677)" opacity="0.5">
          <path id="Trazado_10995" data-name="Trazado 10995" d="M806.248,509.842a1.662,1.662,0,1,1-1.662-1.662A1.662,1.662,0,0,1,806.248,509.842Z" transform="translate(-802.924 -508.18)" fill="#f5fcff"/>
        </g>
        <g id="Grupo_11461" data-name="Grupo 11461" transform="translate(206.558 137.635)" opacity="0.2">
          <path id="Trazado_10996" data-name="Trazado 10996" d="M655.581,456.594a1.662,1.662,0,1,1-1.661-1.662A1.662,1.662,0,0,1,655.581,456.594Z" transform="translate(-652.257 -454.932)" fill="#7c9af5"/>
        </g>
        <g id="Grupo_11462" data-name="Grupo 11462" transform="translate(83.102 18.82)" opacity="0.5">
          <path id="Trazado_10997" data-name="Trazado 10997" d="M327.581,140.924a1.662,1.662,0,1,1-1.661-1.662A1.662,1.662,0,0,1,327.581,140.924Z" transform="translate(-324.257 -139.262)" fill="#7c9af5"/>
        </g>
        <g id="Grupo_11463" data-name="Grupo 11463" transform="translate(253.127 147.403)" opacity="0.5">
          <path id="Trazado_10998" data-name="Trazado 10998" d="M778.008,481.9A1.012,1.012,0,1,1,777,480.885,1.012,1.012,0,0,1,778.008,481.9Z" transform="translate(-775.984 -480.885)" fill="#7c9af5"/>
        </g>
        <g id="Grupo_11464" data-name="Grupo 11464" transform="translate(99.184 115.042)" opacity="0.5">
          <path id="Trazado_10999" data-name="Trazado 10999" d="M369.008,395.919A1.012,1.012,0,1,1,368,394.907,1.012,1.012,0,0,1,369.008,395.919Z" transform="translate(-366.984 -394.907)" fill="#7c9af5"/>
        </g>
        <g id="Grupo_11465" data-name="Grupo 11465" transform="translate(8.28 20.096)" opacity="0.5">
          <path id="Trazado_11000" data-name="Trazado 11000" d="M127.851,143.845a1.19,1.19,0,1,1-1.191-1.191A1.19,1.19,0,0,1,127.851,143.845Z" transform="translate(-125.47 -142.654)" fill="#7c9af5"/>
        </g>
        <g id="Grupo_11466" data-name="Grupo 11466" transform="translate(142.845 139.891)" opacity="0.5">
          <path id="Trazado_11001" data-name="Trazado 11001" d="M485.008,461.94A1.012,1.012,0,1,1,484,460.928,1.012,1.012,0,0,1,485.008,461.94Z" transform="translate(-482.984 -460.928)" fill="#7c9af5"/>
        </g>
        <g id="Grupo_11467" data-name="Grupo 11467" transform="translate(233.487 140.858)" opacity="0.2">
          <path id="Trazado_11002" data-name="Trazado 11002" d="M727.125,465.157a1.662,1.662,0,1,1-1.662-1.662A1.662,1.662,0,0,1,727.125,465.157Z" transform="translate(-723.802 -463.495)" fill="#7c9af5"/>
        </g>
        <g id="Grupo_11468" data-name="Grupo 11468" transform="translate(215.967 106.739)">
          <path id="Trazado_11003" data-name="Trazado 11003" d="M680.581,374.509a1.662,1.662,0,1,1-1.662-1.662A1.662,1.662,0,0,1,680.581,374.509Z" transform="translate(-677.257 -372.847)" fill="#f5fcff"/>
        </g>
        <g id="Grupo_11469" data-name="Grupo 11469" transform="translate(180.085 68.974)">
          <path id="Trazado_11004" data-name="Trazado 11004" d="M585.248,274.175a1.662,1.662,0,1,1-1.662-1.662A1.661,1.661,0,0,1,585.248,274.175Z" transform="translate(-581.924 -272.513)" fill="#f5fcff"/>
        </g>
        <g id="Grupo_11470" data-name="Grupo 11470" transform="translate(28.942 5.034)">
          <circle id="Elipse_626" data-name="Elipse 626" cx="1.199" cy="1.199" r="1.199" fill="#f5fcff"/>
        </g>
        <g id="Grupo_11471" data-name="Grupo 11471" transform="translate(238.205 156.688)">
          <circle id="Elipse_627" data-name="Elipse 627" cx="1.02" cy="1.02" r="1.02" transform="translate(0)" fill="#f5fcff"/>
        </g>
        <g id="Grupo_11472" data-name="Grupo 11472" transform="translate(257.511 128.082)">
          <circle id="Elipse_628" data-name="Elipse 628" cx="1.02" cy="1.02" r="1.02" fill="#f5fcff"/>
        </g>
        <g id="Grupo_11473" data-name="Grupo 11473" transform="translate(4.296 34.993)">
          <circle id="Elipse_629" data-name="Elipse 629" cx="1.199" cy="1.199" r="1.199" fill="#f5fcff"/>
        </g>
        <g id="Grupo_11474" data-name="Grupo 11474" transform="translate(60.282 95.195)">
          <circle id="Elipse_630" data-name="Elipse 630" cx="1.02" cy="1.02" r="1.02" fill="#f5fcff"/>
        </g>
        <g id="Grupo_11475" data-name="Grupo 11475" transform="translate(190.263 53.039)">
          <circle id="Elipse_631" data-name="Elipse 631" cx="1.02" cy="1.02" r="1.02" fill="#f5fcff"/>
        </g>
        <g id="Grupo_11476" data-name="Grupo 11476" transform="translate(149.863 121.072)">
          <circle id="Elipse_632" data-name="Elipse 632" cx="1.02" cy="1.02" r="1.02" fill="#f5fcff"/>
        </g>
        <g id="Grupo_11477" data-name="Grupo 11477" transform="translate(109.825 96.952)">
          <path id="Trazado_11005" data-name="Trazado 11005" d="M398.079,348.257a1.411,1.411,0,1,1-1.411-1.411A1.411,1.411,0,0,1,398.079,348.257Z" transform="translate(-395.257 -346.846)" fill="#f5fcff"/>
        </g>
        <g id="Grupo_11478" data-name="Grupo 11478" transform="translate(79.463 109.53)">
          <path id="Trazado_11006" data-name="Trazado 11006" d="M317.412,381.673A1.411,1.411,0,1,1,316,380.262,1.411,1.411,0,0,1,317.412,381.673Z" transform="translate(-314.59 -380.262)" fill="#f5fcff"/>
        </g>
        <g id="Grupo_11479" data-name="Grupo 11479" transform="translate(114.091 27.32)">
          <path id="Trazado_11007" data-name="Trazado 11007" d="M409.412,163.257A1.411,1.411,0,1,1,408,161.846,1.411,1.411,0,0,1,409.412,163.257Z" transform="translate(-406.59 -161.846)" fill="#f5fcff"/>
        </g>
        <g id="Grupo_11480" data-name="Grupo 11480" transform="translate(26.267 75.247)" opacity="0.5">
          <path id="Trazado_11008" data-name="Trazado 11008" d="M176.079,290.591a1.411,1.411,0,1,1-1.411-1.411A1.411,1.411,0,0,1,176.079,290.591Z" transform="translate(-173.257 -289.18)" fill="#7c9af5"/>
        </g>
        <g id="Grupo_11481" data-name="Grupo 11481" transform="translate(240.809 123.832)" opacity="0.5">
          <path id="Trazado_11009" data-name="Trazado 11009" d="M746.581,419.924a1.662,1.662,0,1,1-1.662-1.662A1.662,1.662,0,0,1,746.581,419.924Z" transform="translate(-743.257 -418.262)" fill="#7c9af5"/>
        </g>
        <g id="Grupo_11482" data-name="Grupo 11482" transform="translate(116.052 100.042)" opacity="0.25">
          <path id="Trazado_11010" data-name="Trazado 11010" d="M416.722,357.517a2.462,2.462,0,1,1-2.462-2.462A2.462,2.462,0,0,1,416.722,357.517Z" transform="translate(-411.799 -355.055)" fill="#7c9af5"/>
        </g>
        <g id="Grupo_11483" data-name="Grupo 11483" transform="translate(221.629 81.222)" opacity="0.25">
          <path id="Trazado_11011" data-name="Trazado 11011" d="M697.222,307.517a2.462,2.462,0,1,1-2.462-2.462A2.462,2.462,0,0,1,697.222,307.517Z" transform="translate(-692.299 -305.055)" fill="#7c9af5"/>
        </g>
        <g id="Grupo_11484" data-name="Grupo 11484" transform="translate(168.433 43.332)" opacity="0.25">
          <path id="Trazado_11012" data-name="Trazado 11012" d="M555.889,206.85a2.462,2.462,0,1,1-2.462-2.462A2.462,2.462,0,0,1,555.889,206.85Z" transform="translate(-550.966 -204.388)" fill="#7c9af5"/>
        </g>
      </g>
      <g id="Grupo_11489" data-name="Grupo 11489" transform="translate(125.588 54.487)">
        <g id="Grupo_11486" data-name="Grupo 11486" transform="translate(20.485)">
          <path id="Trazado_11013" data-name="Trazado 11013" d="M503.512,241.873h0l-.054.03a11.742,11.742,0,0,0-5.347,6.142l-.575,1.516-.574-1.516a11.745,11.745,0,0,0-5.347-6.142l-.054-.03h0a11.746,11.746,0,0,0,5.385-6.244l.591-1.6.591,1.6A11.743,11.743,0,0,0,503.512,241.873Z" transform="translate(-491.561 -234.025)" fill="#fff"/>
        </g>
        <g id="Grupo_11487" data-name="Grupo 11487" transform="translate(18.189 12.561)">
          <path id="Trazado_11014" data-name="Trazado 11014" d="M491.314,271.242h0l-.027.014a5.756,5.756,0,0,0-2.619,3.008l-.281.743-.282-.743a5.753,5.753,0,0,0-2.619-3.008l-.027-.014h0a5.752,5.752,0,0,0,2.637-3.058l.289-.785.289.785A5.751,5.751,0,0,0,491.314,271.242Z" transform="translate(-485.46 -267.398)" fill="#fff"/>
        </g>
        <g id="Grupo_11488" data-name="Grupo 11488" transform="translate(0 42.663)">
          <path id="Trazado_11015" data-name="Trazado 11015" d="M445.833,353.084h0l-.04.021a8.546,8.546,0,0,0-3.891,4.47l-.418,1.1-.418-1.1a8.546,8.546,0,0,0-3.891-4.47l-.039-.021h0a8.548,8.548,0,0,0,3.919-4.544l.43-1.167.43,1.167A8.549,8.549,0,0,0,445.833,353.084Z" transform="translate(-437.136 -347.373)" fill="#fff"/>
        </g>
      </g>
      <g id="Grupo_11505" data-name="Grupo 11505" transform="translate(36.962 5.833)">
        <g id="Grupo_11494" data-name="Grupo 11494" transform="translate(106.832)">
          <g id="Grupo_11492" data-name="Grupo 11492" transform="translate(3.152 3.152)">
            <g id="Grupo_11490" data-name="Grupo 11490" transform="translate(4.648)">
              <rect id="Rectángulo_2936" data-name="Rectángulo 2936" width="3.847" height="13.143" fill="#589cef"/>
            </g>
            <g id="Grupo_11491" data-name="Grupo 11491" transform="translate(0 4.648)">
              <rect id="Rectángulo_2937" data-name="Rectángulo 2937" width="13.143" height="3.847" fill="#589cef"/>
            </g>
          </g>
          <g id="Grupo_11493" data-name="Grupo 11493" opacity="0.45">
            <circle id="Elipse_633" data-name="Elipse 633" cx="9.723" cy="9.723" r="9.723" fill="#e1f5fb"/>
          </g>
        </g>
        <g id="Grupo_11499" data-name="Grupo 11499" transform="translate(145.977 136.756)">
          <g id="Grupo_11497" data-name="Grupo 11497" transform="translate(2.969 2.969)">
            <g id="Grupo_11495" data-name="Grupo 11495" transform="translate(4.378)">
              <rect id="Rectángulo_2938" data-name="Rectángulo 2938" width="3.623" height="12.38" fill="#589cef"/>
            </g>
            <g id="Grupo_11496" data-name="Grupo 11496" transform="translate(0 4.378)">
              <rect id="Rectángulo_2939" data-name="Rectángulo 2939" width="12.38" height="3.623" fill="#589cef"/>
            </g>
          </g>
          <g id="Grupo_11498" data-name="Grupo 11498" opacity="0.45">
            <circle id="Elipse_634" data-name="Elipse 634" cx="9.159" cy="9.159" r="9.159" fill="#e1f5fb"/>
          </g>
        </g>
        <g id="Grupo_11504" data-name="Grupo 11504" transform="translate(0 79.356)">
          <g id="Grupo_11502" data-name="Grupo 11502" transform="translate(2.684 2.684)">
            <g id="Grupo_11500" data-name="Grupo 11500" transform="translate(3.958)">
              <rect id="Rectángulo_2940" data-name="Rectángulo 2940" width="3.276" height="11.192" fill="#589cef"/>
            </g>
            <g id="Grupo_11501" data-name="Grupo 11501" transform="translate(0 3.958)">
              <rect id="Rectángulo_2941" data-name="Rectángulo 2941" width="11.192" height="3.276" fill="#589cef"/>
            </g>
          </g>
          <g id="Grupo_11503" data-name="Grupo 11503" opacity="0.45">
            <circle id="Elipse_635" data-name="Elipse 635" cx="8.281" cy="8.281" r="8.281" fill="#e1f5fb"/>
          </g>
        </g>
      </g>
      <g id="Grupo_11528" data-name="Grupo 11528" transform="translate(107.918 29.145)">
        <g id="Grupo_11516" data-name="Grupo 11516" transform="translate(0 90.567)">
          <g id="Grupo_11506" data-name="Grupo 11506" transform="translate(4.057 2.287)">
            <path id="Trazado_11016" data-name="Trazado 11016" d="M400.967,425.333l6.4-11.942,8.212,11.332Zm6.465-10.936-5.551,10.362,12.677-.529Z" transform="translate(-400.967 -413.391)" fill="#ebf6f8"/>
          </g>
          <g id="Grupo_11509" data-name="Grupo 11509" transform="translate(14.706 9.945)">
            <g id="Grupo_11507" data-name="Grupo 11507">
              <path id="Trazado_11017" data-name="Trazado 11017" d="M430.9,440.112a3.441,3.441,0,1,1,4.733-1.135A3.441,3.441,0,0,1,430.9,440.112Z" transform="translate(-429.261 -433.736)" fill="#ebf6f8"/>
            </g>
            <g id="Grupo_11508" data-name="Grupo 11508" transform="translate(2.443 3.393)">
              <path id="Trazado_11018" data-name="Trazado 11018" d="M436.371,445.159a1.3,1.3,0,1,1,1.786-.428A1.3,1.3,0,0,1,436.371,445.159Z" transform="translate(-435.751 -442.752)" fill="#fff"/>
            </g>
          </g>
          <g id="Grupo_11512" data-name="Grupo 11512" transform="translate(7.698)">
            <g id="Grupo_11510" data-name="Grupo 11510">
              <path id="Trazado_11019" data-name="Trazado 11019" d="M411.972,412.483a2.789,2.789,0,1,1,3.836-.919A2.789,2.789,0,0,1,411.972,412.483Z" transform="translate(-410.64 -407.315)" fill="#ebf6f8"/>
            </g>
            <g id="Grupo_11511" data-name="Grupo 11511" transform="translate(1.98 2.75)">
              <path id="Trazado_11020" data-name="Trazado 11020" d="M416.4,416.573a1.053,1.053,0,1,1,1.448-.347A1.053,1.053,0,0,1,416.4,416.573Z" transform="translate(-415.9 -414.623)" fill="#fff"/>
            </g>
          </g>
          <g id="Grupo_11515" data-name="Grupo 11515" transform="translate(0 9.409)">
            <g id="Grupo_11513" data-name="Grupo 11513" transform="translate(0 0)">
              <circle id="Elipse_636" data-name="Elipse 636" cx="4.026" cy="4.026" r="4.026" transform="translate(0 7.969) rotate(-81.754)" fill="#ebf6f8"/>
            </g>
            <g id="Grupo_11514" data-name="Grupo 11514" transform="translate(3.393 4.505)">
              <path id="Trazado_11021" data-name="Trazado 11021" d="M399.928,447.1a1.519,1.519,0,1,1,2.09-.5A1.52,1.52,0,0,1,399.928,447.1Z" transform="translate(-399.202 -444.283)" fill="#fff"/>
            </g>
          </g>
        </g>
        <g id="Grupo_11527" data-name="Grupo 11527" transform="translate(19.046)">
          <g id="Grupo_11517" data-name="Grupo 11517" transform="translate(4.057 2.287)">
            <path id="Trazado_11022" data-name="Trazado 11022" d="M451.567,184.714l6.4-11.942,8.213,11.332Zm6.465-10.936-5.551,10.362,12.677-.529Z" transform="translate(-451.567 -172.772)" fill="#ebf6f8"/>
          </g>
          <g id="Grupo_11520" data-name="Grupo 11520" transform="translate(14.706 9.945)">
            <g id="Grupo_11518" data-name="Grupo 11518">
              <path id="Trazado_11023" data-name="Trazado 11023" d="M481.5,199.493a3.441,3.441,0,1,1,4.733-1.135A3.442,3.442,0,0,1,481.5,199.493Z" transform="translate(-479.861 -193.117)" fill="#ebf6f8"/>
            </g>
            <g id="Grupo_11519" data-name="Grupo 11519" transform="translate(2.443 3.393)">
              <path id="Trazado_11024" data-name="Trazado 11024" d="M486.971,204.54a1.3,1.3,0,1,1,1.786-.428A1.3,1.3,0,0,1,486.971,204.54Z" transform="translate(-486.351 -202.133)" fill="#fff"/>
            </g>
          </g>
          <g id="Grupo_11523" data-name="Grupo 11523" transform="translate(7.698)">
            <g id="Grupo_11521" data-name="Grupo 11521">
              <path id="Trazado_11025" data-name="Trazado 11025" d="M462.573,171.864a2.789,2.789,0,1,1,3.836-.92A2.789,2.789,0,0,1,462.573,171.864Z" transform="translate(-461.241 -166.696)" fill="#ebf6f8"/>
            </g>
            <g id="Grupo_11522" data-name="Grupo 11522" transform="translate(1.98 2.75)">
              <path id="Trazado_11026" data-name="Trazado 11026" d="M467,175.954a1.053,1.053,0,1,1,1.448-.347A1.053,1.053,0,0,1,467,175.954Z" transform="translate(-466.501 -174.004)" fill="#fff"/>
            </g>
          </g>
          <g id="Grupo_11526" data-name="Grupo 11526" transform="translate(0 9.409)">
            <g id="Grupo_11524" data-name="Grupo 11524" transform="translate(0 0)">
              <circle id="Elipse_637" data-name="Elipse 637" cx="4.026" cy="4.026" r="4.026" transform="matrix(0.143, -0.99, 0.99, 0.143, 0, 7.969)" fill="#ebf6f8"/>
            </g>
            <g id="Grupo_11525" data-name="Grupo 11525" transform="translate(3.393 4.505)">
              <path id="Trazado_11027" data-name="Trazado 11027" d="M450.529,206.479a1.52,1.52,0,1,1,2.09-.5A1.52,1.52,0,0,1,450.529,206.479Z" transform="translate(-449.803 -203.664)" fill="#fff"/>
            </g>
          </g>
        </g>
      </g>
    </g>
  </g>
</svg>
