<?xml version="1.0" encoding="utf-8"?>
<!-- Generator: Adobe Illustrator 25.2.0, SVG Export Plug-In . SVG Version: 6.00 Build 0)  -->
<svg version="1.1" id="Capa_1" xmlns="http://www.w3.org/2000/svg" xmlns:xlink="http://www.w3.org/1999/xlink" x="0px" y="0px"
	 viewBox="0 0 572.7 349.2" style="enable-background:new 0 0 572.7 349.2;" xml:space="preserve">
<style type="text/css">
	.st0{fill:#E9FBFF;}
	.st1{enable-background:new    ;}
	.st2{fill:#00223D;}
	.st3{fill:#7DD3E9;}
	.st4{fill:#1F353A;}
</style>
<rect class="st0" width="572.7" height="349.2"/>
<g class="st1">
	<path class="st2" d="M101.4,333.3h-1.6l-1.3-3.5h-5.3l-1.3,3.5h-1.6l4.8-12.6h1.5L101.4,333.3z M98,328.5l-2-5.4
		c-0.1-0.2-0.1-0.5-0.2-0.8l0,0c-0.1,0.4-0.1,0.6-0.2,0.8l-2,5.4H98z"/>
	<path class="st2" d="M104.5,333.3h-1.4V320h1.4V333.3z"/>
	<path class="st2" d="M120.2,333.3h-1.4v-5.2c0-1-0.2-1.7-0.5-2.2s-0.8-0.7-1.6-0.7c-0.6,0-1.1,0.3-1.6,0.8s-0.6,1.2-0.6,2v5.1h-1.4
		V328c0-1.8-0.7-2.7-2-2.7c-0.6,0-1.2,0.3-1.6,0.8s-0.6,1.2-0.6,2.1v5.1h-1.4v-9h1.4v1.4l0,0c0.6-1.1,1.6-1.6,2.8-1.6
		c0.6,0,1.2,0.2,1.6,0.5c0.5,0.3,0.8,0.8,0.9,1.3c0.7-1.2,1.7-1.9,3-1.9c2,0,3,1.2,3,3.7C120.2,327.7,120.2,333.3,120.2,333.3z"/>
	<path class="st2" d="M129.4,333.3H128v-1.4l0,0c-0.6,1.1-1.5,1.6-2.8,1.6c-0.9,0-1.6-0.2-2.1-0.7s-0.8-1.1-0.8-1.9
		c0-1.7,1-2.7,3-2.9l2.7-0.4c0-1.5-0.6-2.3-1.9-2.3c-1.1,0-2.1,0.4-2.9,1.1V325c0.9-0.6,1.9-0.8,3.1-0.8c2.1,0,3.2,1.1,3.2,3.4
		L129.4,333.3L129.4,333.3z M127.9,328.8l-2.2,0.3c-0.7,0.1-1.2,0.3-1.5,0.5s-0.5,0.7-0.5,1.3c0,0.4,0.2,0.8,0.5,1.1
		c0.3,0.3,0.7,0.4,1.3,0.4c0.7,0,1.3-0.2,1.8-0.8c0.5-0.5,0.7-1.1,0.7-1.9v-0.9H127.9z"/>
	<path class="st2" d="M138.2,332.9c-0.7,0.4-1.5,0.6-2.5,0.6c-1.3,0-2.3-0.4-3.1-1.3c-0.8-0.8-1.2-1.9-1.2-3.2
		c0-1.5,0.4-2.7,1.3-3.6c0.8-0.9,2-1.3,3.4-1.3c0.8,0,1.5,0.1,2.1,0.4v1.5c-0.7-0.5-1.4-0.7-2.1-0.7c-0.9,0-1.7,0.3-2.3,1
		s-0.9,1.5-0.9,2.6s0.3,1.9,0.8,2.5s1.3,0.9,2.2,0.9c0.8,0,1.5-0.3,2.2-0.8v1.4H138.2z"/>
	<path class="st2" d="M147.6,329.2h-6.4c0,1,0.3,1.8,0.8,2.3s1.2,0.8,2.1,0.8c1,0,1.9-0.3,2.8-1v1.4c-0.8,0.6-1.8,0.9-3.1,0.9
		s-2.3-0.4-3-1.2c-0.7-0.8-1.1-2-1.1-3.4s0.4-2.5,1.2-3.4s1.8-1.3,3-1.3s2.1,0.4,2.7,1.1s1,1.8,1,3.2V329.2z M146.2,328
		c0-0.8-0.2-1.5-0.6-1.9s-0.9-0.7-1.6-0.7c-0.7,0-1.3,0.2-1.7,0.7s-0.8,1.1-0.9,1.9H146.2z"/>
	<path class="st2" d="M157.3,333.3h-1.4v-5.1c0-1.9-0.7-2.9-2.1-2.9c-0.7,0-1.3,0.3-1.8,0.8s-0.7,1.2-0.7,2.1v5.1h-1.4v-9h1.4v1.5
		l0,0c0.7-1.1,1.7-1.7,3-1.7c1,0,1.7,0.3,2.3,1c0.5,0.6,0.8,1.6,0.8,2.8v5.4L157.3,333.3L157.3,333.3z"/>
	<path class="st2" d="M166.4,333.3H165v-1.4l0,0c-0.6,1.1-1.5,1.6-2.8,1.6c-0.9,0-1.6-0.2-2.1-0.7s-0.8-1.1-0.8-1.9
		c0-1.7,1-2.7,3-2.9l2.7-0.4c0-1.5-0.6-2.3-1.9-2.3c-1.1,0-2.1,0.4-2.9,1.1V325c0.9-0.6,1.9-0.8,3.1-0.8c2.1,0,3.2,1.1,3.2,3.4v5.7
		L166.4,333.3L166.4,333.3z M165,328.8l-2.2,0.3c-0.7,0.1-1.2,0.3-1.5,0.5s-0.5,0.7-0.5,1.3c0,0.4,0.2,0.8,0.5,1.1
		c0.3,0.3,0.7,0.4,1.3,0.4c0.7,0,1.3-0.2,1.8-0.8c0.5-0.5,0.7-1.1,0.7-1.9v-0.9H165z"/>
	<path class="st2" d="M173.9,325.8c-0.3-0.2-0.6-0.3-1.1-0.3c-0.6,0-1.1,0.3-1.5,0.9s-0.6,1.4-0.6,2.4v4.6h-1.4v-9h1.4v1.9l0,0
		c0.2-0.6,0.5-1.1,0.9-1.5s0.9-0.5,1.4-0.5c0.4,0,0.7,0,0.9,0.1L173.9,325.8L173.9,325.8z"/>
	<path class="st2" d="M181.8,333.3h-1.4V320h1.4V333.3z"/>
	<path class="st2" d="M188.5,333.5c-1.3,0-2.4-0.4-3.2-1.3c-0.8-0.8-1.2-2-1.2-3.3c0-1.5,0.4-2.7,1.2-3.5s1.9-1.3,3.3-1.3
		c1.3,0,2.4,0.4,3.1,1.2s1.1,2,1.1,3.4s-0.4,2.6-1.2,3.4C190.9,333.1,189.8,333.5,188.5,333.5z M188.6,325.3c-0.9,0-1.7,0.3-2.2,0.9
		s-0.8,1.5-0.8,2.6s0.3,1.9,0.8,2.5s1.3,0.9,2.2,0.9s1.6-0.3,2.1-0.9s0.8-1.5,0.8-2.6s-0.3-2-0.8-2.6S189.5,325.3,188.6,325.3z"/>
	<path class="st2" d="M194.7,333v-1.5c0.8,0.6,1.6,0.9,2.6,0.9c1.3,0,1.9-0.4,1.9-1.3c0-0.2-0.1-0.4-0.2-0.6
		c-0.1-0.2-0.3-0.3-0.4-0.4s-0.4-0.2-0.7-0.3c-0.2-0.1-0.5-0.2-0.8-0.3c-0.4-0.2-0.7-0.3-1.1-0.5c-0.3-0.2-0.6-0.3-0.8-0.5
		s-0.4-0.4-0.5-0.7s-0.2-0.6-0.2-0.9c0-0.4,0.1-0.8,0.3-1.1c0.2-0.3,0.5-0.6,0.8-0.8c0.3-0.2,0.7-0.4,1.1-0.5s0.8-0.2,1.3-0.2
		c0.8,0,1.5,0.1,2.1,0.4v1.5c-0.7-0.4-1.4-0.7-2.3-0.7c-0.3,0-0.5,0-0.7,0.1s-0.4,0.1-0.6,0.3s-0.3,0.2-0.4,0.4
		c-0.1,0.2-0.1,0.3-0.1,0.5s0,0.4,0.1,0.6s0.2,0.3,0.4,0.4s0.4,0.2,0.6,0.3s0.5,0.2,0.8,0.3c0.4,0.2,0.8,0.3,1.1,0.5
		s0.6,0.3,0.8,0.5s0.4,0.4,0.5,0.7s0.2,0.6,0.2,0.9c0,0.4-0.1,0.8-0.3,1.2s-0.5,0.6-0.8,0.8s-0.7,0.4-1.1,0.5s-0.9,0.2-1.3,0.2
		C196.2,333.5,195.4,333.4,194.7,333z"/>
	<path class="st2" d="M214,332.9c-0.7,0.4-1.5,0.6-2.5,0.6c-1.3,0-2.3-0.4-3.1-1.3c-0.8-0.8-1.2-1.9-1.2-3.2c0-1.5,0.4-2.7,1.3-3.6
		c0.8-0.9,2-1.3,3.4-1.3c0.8,0,1.5,0.1,2.1,0.4v1.5c-0.7-0.5-1.4-0.7-2.1-0.7c-0.9,0-1.7,0.3-2.3,1s-0.9,1.5-0.9,2.6
		s0.3,1.9,0.8,2.5s1.3,0.9,2.2,0.9c0.8,0,1.5-0.3,2.2-0.8v1.4H214z"/>
	<path class="st2" d="M219.9,333.5c-1.3,0-2.4-0.4-3.2-1.3c-0.8-0.8-1.2-2-1.2-3.3c0-1.5,0.4-2.7,1.2-3.5s1.9-1.3,3.3-1.3
		c1.3,0,2.4,0.4,3.1,1.2s1.1,2,1.1,3.4s-0.4,2.6-1.2,3.4C222.4,333.1,221.3,333.5,219.9,333.5z M220,325.3c-0.9,0-1.7,0.3-2.2,0.9
		s-0.8,1.5-0.8,2.6s0.3,1.9,0.8,2.5s1.3,0.9,2.2,0.9s1.6-0.3,2.1-0.9s0.8-1.5,0.8-2.6s-0.3-2-0.8-2.6S220.9,325.3,220,325.3z"/>
	<path class="st2" d="M234.2,333.3h-1.4v-5.1c0-1.9-0.7-2.9-2.1-2.9c-0.7,0-1.3,0.3-1.8,0.8s-0.7,1.2-0.7,2.1v5.1h-1.4v-9h1.4v1.5
		l0,0c0.7-1.1,1.7-1.7,3-1.7c1,0,1.7,0.3,2.3,1c0.5,0.6,0.8,1.6,0.8,2.8v5.4L234.2,333.3L234.2,333.3z"/>
	<path class="st2" d="M241,333.2c-0.3,0.2-0.8,0.3-1.3,0.3c-1.6,0-2.4-0.9-2.4-2.6v-5.3h-1.5v-1.2h1.5v-2.2l1.4-0.5v2.7h2.3v1.2
		h-2.3v5.1c0,0.6,0.1,1,0.3,1.3s0.5,0.4,1,0.4c0.4,0,0.7-0.1,0.9-0.3v1.1H241z"/>
	<path class="st2" d="M250.2,329.2h-6.4c0,1,0.3,1.8,0.8,2.3s1.2,0.8,2.1,0.8c1,0,1.9-0.3,2.8-1v1.4c-0.8,0.6-1.8,0.9-3.1,0.9
		s-2.3-0.4-3-1.2c-0.7-0.8-1.1-2-1.1-3.4s0.4-2.5,1.2-3.4s1.8-1.3,3-1.3s2.1,0.4,2.7,1.1s1,1.8,1,3.2V329.2z M248.7,328
		c0-0.8-0.2-1.5-0.6-1.9s-0.9-0.7-1.6-0.7c-0.7,0-1.3,0.2-1.7,0.7s-0.8,1.1-0.9,1.9H248.7z"/>
	<path class="st2" d="M259.9,333.3h-1.4v-5.1c0-1.9-0.7-2.9-2.1-2.9c-0.7,0-1.3,0.3-1.8,0.8s-0.7,1.2-0.7,2.1v5.1h-1.4v-9h1.4v1.5
		l0,0c0.7-1.1,1.7-1.7,3-1.7c1,0,1.7,0.3,2.3,1c0.5,0.6,0.8,1.6,0.8,2.8L259.9,333.3L259.9,333.3z"/>
	<path class="st2" d="M269.8,329.2h-6.4c0,1,0.3,1.8,0.8,2.3s1.2,0.8,2.1,0.8c1,0,1.9-0.3,2.8-1v1.4c-0.8,0.6-1.8,0.9-3.1,0.9
		c-1.3,0-2.3-0.4-3-1.2c-0.7-0.8-1.1-2-1.1-3.4s0.4-2.5,1.2-3.4c0.8-0.9,1.8-1.3,3-1.3s2.1,0.4,2.7,1.1s1,1.8,1,3.2V329.2z
		 M268.3,328c0-0.8-0.2-1.5-0.6-1.9s-0.9-0.7-1.6-0.7s-1.3,0.2-1.7,0.7s-0.8,1.1-0.9,1.9H268.3z"/>
	<path class="st2" d="M279.7,333.3h-1.4v-1.5l0,0c-0.7,1.2-1.7,1.7-3.1,1.7c-1.1,0-2-0.4-2.7-1.2c-0.7-0.8-1-1.9-1-3.3
		c0-1.5,0.4-2.7,1.1-3.6s1.7-1.3,3-1.3c1.2,0,2.1,0.5,2.7,1.5l0,0V320h1.4V333.3z M278.2,329.2v-1.3c0-0.7-0.2-1.3-0.7-1.8
		s-1.1-0.8-1.8-0.8c-0.9,0-1.6,0.3-2.1,1s-0.8,1.5-0.8,2.7c0,1,0.2,1.9,0.7,2.5s1.1,0.9,1.9,0.9s1.5-0.3,2-0.9
		S278.2,330.1,278.2,329.2z"/>
	<path class="st2" d="M286.3,333.5c-1.3,0-2.4-0.4-3.2-1.3c-0.8-0.8-1.2-2-1.2-3.3c0-1.5,0.4-2.7,1.2-3.5s1.9-1.3,3.3-1.3
		c1.3,0,2.4,0.4,3.1,1.2c0.8,0.8,1.1,2,1.1,3.4s-0.4,2.6-1.2,3.4C288.8,333.1,287.7,333.5,286.3,333.5z M286.5,325.3
		c-0.9,0-1.7,0.3-2.2,0.9s-0.8,1.5-0.8,2.6s0.3,1.9,0.8,2.5s1.3,0.9,2.2,0.9c0.9,0,1.6-0.3,2.1-0.9s0.8-1.5,0.8-2.6s-0.2-2-0.8-2.6
		C288.1,325.6,287.4,325.3,286.5,325.3z"/>
	<path class="st2" d="M297.8,325.8c-0.3-0.2-0.6-0.3-1.1-0.3c-0.6,0-1.1,0.3-1.5,0.9s-0.6,1.4-0.6,2.4v4.6h-1.4v-9h1.4v1.9l0,0
		c0.2-0.6,0.5-1.1,0.9-1.5s0.9-0.5,1.4-0.5c0.4,0,0.7,0,0.9,0.1L297.8,325.8L297.8,325.8z"/>
	<path class="st2" d="M306.6,329.2h-6.4c0,1,0.3,1.8,0.8,2.3s1.2,0.8,2.1,0.8c1,0,1.9-0.3,2.8-1v1.4c-0.8,0.6-1.8,0.9-3.1,0.9
		c-1.3,0-2.3-0.4-3-1.2c-0.7-0.8-1.1-2-1.1-3.4s0.4-2.5,1.2-3.4c0.8-0.9,1.8-1.3,3-1.3s2.1,0.4,2.7,1.1s1,1.8,1,3.2V329.2z
		 M305.1,328c0-0.8-0.2-1.5-0.6-1.9c-0.4-0.5-0.9-0.7-1.6-0.7s-1.3,0.2-1.7,0.7s-0.8,1.1-0.9,1.9H305.1z"/>
	<path class="st2" d="M308.3,333v-1.5c0.8,0.6,1.6,0.9,2.6,0.9c1.3,0,1.9-0.4,1.9-1.3c0-0.2-0.1-0.4-0.2-0.6s-0.3-0.3-0.4-0.4
		c-0.2-0.1-0.4-0.2-0.7-0.3c-0.2-0.1-0.5-0.2-0.8-0.3c-0.4-0.2-0.7-0.3-1.1-0.5c-0.3-0.2-0.6-0.3-0.8-0.5c-0.2-0.2-0.4-0.4-0.5-0.7
		c-0.1-0.3-0.2-0.6-0.2-0.9c0-0.4,0.1-0.8,0.3-1.1c0.2-0.3,0.5-0.6,0.8-0.8c0.3-0.2,0.7-0.4,1.1-0.5s0.8-0.2,1.3-0.2
		c0.8,0,1.5,0.1,2.1,0.4v1.5c-0.7-0.4-1.4-0.7-2.3-0.7c-0.3,0-0.5,0-0.7,0.1s-0.4,0.1-0.6,0.3c-0.2,0.1-0.3,0.2-0.4,0.4
		c-0.1,0.2-0.1,0.3-0.1,0.5s0,0.4,0.1,0.6s0.2,0.3,0.4,0.4s0.4,0.2,0.6,0.3s0.5,0.2,0.8,0.3c0.4,0.2,0.8,0.3,1.1,0.5
		c0.3,0.2,0.6,0.3,0.8,0.5c0.2,0.2,0.4,0.4,0.5,0.7c0.1,0.3,0.2,0.6,0.2,0.9c0,0.4-0.1,0.8-0.3,1.2c-0.2,0.3-0.5,0.6-0.8,0.8
		s-0.7,0.4-1.1,0.5s-0.9,0.2-1.3,0.2C309.7,333.5,308.9,333.4,308.3,333z"/>
	<path class="st2" d="M328.6,329.2h-6.4c0,1,0.3,1.8,0.8,2.3s1.2,0.8,2.1,0.8c1,0,1.9-0.3,2.8-1v1.4c-0.8,0.6-1.8,0.9-3.1,0.9
		c-1.3,0-2.3-0.4-3-1.2c-0.7-0.8-1.1-2-1.1-3.4s0.4-2.5,1.2-3.4c0.8-0.9,1.8-1.3,3-1.3s2.1,0.4,2.7,1.1s1,1.8,1,3.2V329.2z
		 M327.1,328c0-0.8-0.2-1.5-0.6-1.9c-0.4-0.5-0.9-0.7-1.6-0.7s-1.3,0.2-1.7,0.7s-0.8,1.1-0.9,1.9H327.1z"/>
	<path class="st2" d="M338.3,333.3h-1.4v-5.1c0-1.9-0.7-2.9-2.1-2.9c-0.7,0-1.3,0.3-1.8,0.8s-0.7,1.2-0.7,2.1v5.1h-1.4v-9h1.4v1.5
		l0,0c0.7-1.1,1.7-1.7,3-1.7c1,0,1.7,0.3,2.3,1c0.5,0.6,0.8,1.6,0.8,2.8L338.3,333.3L338.3,333.3z"/>
	<path class="st2" d="M353.1,329.2h-6.4c0,1,0.3,1.8,0.8,2.3s1.2,0.8,2.1,0.8c1,0,1.9-0.3,2.8-1v1.4c-0.8,0.6-1.8,0.9-3.1,0.9
		c-1.3,0-2.3-0.4-3-1.2c-0.7-0.8-1.1-2-1.1-3.4s0.4-2.5,1.2-3.4c0.8-0.9,1.8-1.3,3-1.3s2.1,0.4,2.7,1.1s1,1.8,1,3.2V329.2z
		 M351.7,328c0-0.8-0.2-1.5-0.6-1.9c-0.4-0.5-0.9-0.7-1.6-0.7s-1.3,0.2-1.7,0.7s-0.8,1.1-0.9,1.9H351.7z"/>
	<path class="st2" d="M356.8,333.3h-1.4V320h1.4V333.3z"/>
	<path class="st2" d="M364.1,333v-1.5c0.8,0.6,1.6,0.9,2.6,0.9c1.3,0,1.9-0.4,1.9-1.3c0-0.2-0.1-0.4-0.2-0.6s-0.3-0.3-0.4-0.4
		c-0.2-0.1-0.4-0.2-0.7-0.3c-0.2-0.1-0.5-0.2-0.8-0.3c-0.4-0.2-0.7-0.3-1-0.5s-0.6-0.3-0.8-0.5c-0.2-0.2-0.4-0.4-0.5-0.7
		c-0.1-0.3-0.2-0.6-0.2-0.9c0-0.4,0.1-0.8,0.3-1.1c0.2-0.3,0.5-0.6,0.8-0.8c0.3-0.2,0.7-0.4,1.1-0.5s0.8-0.2,1.3-0.2
		c0.8,0,1.5,0.1,2.1,0.4v1.5c-0.7-0.4-1.4-0.7-2.3-0.7c-0.3,0-0.5,0-0.7,0.1s-0.4,0.1-0.6,0.3c-0.2,0.1-0.3,0.2-0.4,0.4
		c-0.1,0.2-0.1,0.3-0.1,0.5s0,0.4,0.1,0.6s0.2,0.3,0.4,0.4s0.4,0.2,0.6,0.3s0.5,0.2,0.8,0.3c0.4,0.2,0.8,0.3,1.1,0.5
		c0.3,0.2,0.6,0.3,0.8,0.5c0.2,0.2,0.4,0.4,0.5,0.7c0.1,0.3,0.2,0.6,0.2,0.9c0,0.4-0.1,0.8-0.3,1.2c-0.2,0.3-0.5,0.6-0.8,0.8
		s-0.7,0.4-1.1,0.5s-0.9,0.2-1.3,0.2C365.5,333.5,364.7,333.4,364.1,333z"/>
	<path class="st2" d="M373,322c-0.3,0-0.5-0.1-0.7-0.3s-0.3-0.4-0.3-0.7s0.1-0.5,0.3-0.7c0.2-0.2,0.4-0.3,0.7-0.3
		c0.3,0,0.5,0.1,0.7,0.3c0.2,0.2,0.3,0.4,0.3,0.7c0,0.3-0.1,0.5-0.3,0.7C373.5,321.9,373.2,322,373,322z M373.7,333.3h-1.4v-9h1.4
		V333.3z"/>
	<path class="st2" d="M380.8,333.2c-0.3,0.2-0.8,0.3-1.3,0.3c-1.6,0-2.4-0.9-2.4-2.6v-5.3h-1.5v-1.2h1.5v-2.2l1.4-0.5v2.7h2.3v1.2
		h-2.3v5.1c0,0.6,0.1,1,0.3,1.3s0.5,0.4,1,0.4c0.4,0,0.7-0.1,0.9-0.3v1.1H380.8z"/>
	<path class="st2" d="M383.4,322c-0.3,0-0.5-0.1-0.7-0.3s-0.3-0.4-0.3-0.7s0.1-0.5,0.3-0.7c0.2-0.2,0.4-0.3,0.7-0.3
		c0.3,0,0.5,0.1,0.7,0.3c0.2,0.2,0.3,0.4,0.3,0.7c0,0.3-0.1,0.5-0.3,0.7C383.9,321.9,383.7,322,383.4,322z M384.1,333.3h-1.4v-9h1.4
		V333.3z"/>
	<path class="st2" d="M390.8,333.5c-1.3,0-2.4-0.4-3.2-1.3c-0.8-0.8-1.2-2-1.2-3.3c0-1.5,0.4-2.7,1.2-3.5s1.9-1.3,3.3-1.3
		c1.3,0,2.4,0.4,3.1,1.2c0.8,0.8,1.1,2,1.1,3.4s-0.4,2.6-1.2,3.4C393.3,333.1,392.2,333.5,390.8,333.5z M390.9,325.3
		c-0.9,0-1.7,0.3-2.2,0.9s-0.8,1.5-0.8,2.6s0.3,1.9,0.8,2.5s1.3,0.9,2.2,0.9c0.9,0,1.6-0.3,2.1-0.9s0.8-1.5,0.8-2.6s-0.3-2-0.8-2.6
		C392.6,325.6,391.9,325.3,390.9,325.3z"/>
	<path class="st2" d="M403.3,322c-0.3,0-0.5-0.1-0.7-0.3s-0.3-0.4-0.3-0.7s0.1-0.5,0.3-0.7c0.2-0.2,0.4-0.3,0.7-0.3
		c0.3,0,0.5,0.1,0.7,0.3c0.2,0.2,0.3,0.4,0.3,0.7c0,0.3-0.1,0.5-0.3,0.7C403.8,321.9,403.5,322,403.3,322z M404,333.3h-1.4v-9h1.4
		V333.3z"/>
	<path class="st2" d="M414.4,333.3H413v-5.1c0-1.9-0.7-2.9-2.1-2.9c-0.7,0-1.3,0.3-1.8,0.8s-0.7,1.2-0.7,2.1v5.1H407v-9h1.4v1.5l0,0
		c0.7-1.1,1.7-1.7,3-1.7c1,0,1.7,0.3,2.3,1c0.5,0.6,0.8,1.6,0.8,2.8L414.4,333.3L414.4,333.3z"/>
	<path class="st2" d="M424.8,333.3h-1.4v-1.5l0,0c-0.7,1.2-1.7,1.7-3.1,1.7c-1.1,0-2-0.4-2.7-1.2c-0.7-0.8-1-1.9-1-3.3
		c0-1.5,0.4-2.7,1.1-3.6s1.7-1.3,3-1.3c1.2,0,2.1,0.5,2.7,1.5l0,0V320h1.4V333.3z M423.3,329.2v-1.3c0-0.7-0.2-1.3-0.7-1.8
		s-1.1-0.8-1.8-0.8c-0.9,0-1.6,0.3-2.1,1s-0.8,1.5-0.8,2.7c0,1,0.2,1.9,0.7,2.5s1.1,0.9,1.9,0.9s1.5-0.3,2-0.9
		C423.1,330.9,423.3,330.1,423.3,329.2z"/>
	<path class="st2" d="M428.4,322c-0.3,0-0.5-0.1-0.7-0.3s-0.3-0.4-0.3-0.7s0.1-0.5,0.3-0.7c0.2-0.2,0.4-0.3,0.7-0.3
		c0.3,0,0.5,0.1,0.7,0.3c0.2,0.2,0.3,0.4,0.3,0.7c0,0.3-0.1,0.5-0.3,0.7C428.9,321.9,428.7,322,428.4,322z M429.1,333.3h-1.4v-9h1.4
		V333.3z"/>
	<path class="st2" d="M438.2,332.9c-0.7,0.4-1.5,0.6-2.5,0.6c-1.3,0-2.3-0.4-3.1-1.3c-0.8-0.8-1.2-1.9-1.2-3.2
		c0-1.5,0.4-2.7,1.3-3.6c0.8-0.9,2-1.3,3.4-1.3c0.8,0,1.5,0.1,2.1,0.4v1.5c-0.7-0.5-1.4-0.7-2.1-0.7c-0.9,0-1.7,0.3-2.3,1
		c-0.6,0.7-0.9,1.5-0.9,2.6s0.3,1.9,0.8,2.5c0.6,0.6,1.3,0.9,2.2,0.9c0.8,0,1.5-0.3,2.2-0.8v1.4H438.2z"/>
	<path class="st2" d="M446.8,333.3h-1.4v-1.4l0,0c-0.6,1.1-1.5,1.6-2.8,1.6c-0.9,0-1.6-0.2-2.1-0.7s-0.8-1.1-0.8-1.9
		c0-1.7,1-2.7,3-2.9l2.7-0.4c0-1.5-0.6-2.3-1.9-2.3c-1.1,0-2.1,0.4-2.9,1.1V325c0.9-0.6,1.9-0.8,3.1-0.8c2.1,0,3.2,1.1,3.2,3.4v5.7
		L446.8,333.3L446.8,333.3z M445.4,328.8l-2.2,0.3c-0.7,0.1-1.2,0.3-1.5,0.5s-0.5,0.7-0.5,1.3c0,0.4,0.2,0.8,0.5,1.1
		c0.3,0.3,0.7,0.4,1.3,0.4c0.7,0,1.3-0.2,1.8-0.8c0.5-0.5,0.7-1.1,0.7-1.9L445.4,328.8L445.4,328.8z"/>
	<path class="st2" d="M457.2,333.3h-1.4v-1.5l0,0c-0.7,1.2-1.7,1.7-3.1,1.7c-1.1,0-2-0.4-2.7-1.2c-0.7-0.8-1-1.9-1-3.3
		c0-1.5,0.4-2.7,1.1-3.6s1.7-1.3,3-1.3c1.2,0,2.1,0.5,2.7,1.5l0,0V320h1.4V333.3z M455.8,329.2v-1.3c0-0.7-0.2-1.3-0.7-1.8
		s-1.1-0.8-1.8-0.8c-0.9,0-1.6,0.3-2.1,1s-0.8,1.5-0.8,2.7c0,1,0.2,1.9,0.7,2.5s1.1,0.9,1.9,0.9s1.5-0.3,2-0.9
		C455.5,330.9,455.8,330.1,455.8,329.2z"/>
	<path class="st2" d="M463.9,333.5c-1.3,0-2.4-0.4-3.2-1.3c-0.8-0.8-1.2-2-1.2-3.3c0-1.5,0.4-2.7,1.2-3.5s1.9-1.3,3.3-1.3
		c1.3,0,2.4,0.4,3.1,1.2c0.8,0.8,1.1,2,1.1,3.4s-0.4,2.6-1.2,3.4C466.3,333.1,465.2,333.5,463.9,333.5z M464,325.3
		c-0.9,0-1.7,0.3-2.2,0.9s-0.8,1.5-0.8,2.6s0.3,1.9,0.8,2.5s1.3,0.9,2.2,0.9c0.9,0,1.6-0.3,2.1-0.9s0.8-1.5,0.8-2.6s-0.2-2-0.8-2.6
		C465.6,325.6,464.9,325.3,464,325.3z"/>
	<path class="st2" d="M471.2,333.5c-0.3,0-0.5-0.1-0.7-0.3s-0.3-0.4-0.3-0.7s0.1-0.5,0.3-0.7c0.2-0.2,0.4-0.3,0.7-0.3
		c0.3,0,0.5,0.1,0.7,0.3c0.2,0.2,0.3,0.4,0.3,0.7s-0.1,0.5-0.3,0.7S471.4,333.5,471.2,333.5z"/>
</g>
<g class="st1">
	<path class="st2" d="M49.9,203.6c0,3.5-1.6,5.3-4.8,5.3c-3.1,0-4.6-1.7-4.6-5.1v-7.7H42v7.6c0,2.6,1.1,3.9,3.3,3.9
		c2.1,0,3.2-1.2,3.2-3.7v-7.7H50L49.9,203.6L49.9,203.6z"/>
	<path class="st2" d="M54.3,207.4L54.3,207.4v1.3h-1.4v-13.3h1.4v5.9l0,0c0.7-1.2,1.7-1.8,3.1-1.8c1.2,0,2.1,0.4,2.7,1.2
		c0.7,0.8,1,1.9,1,3.2c0,1.5-0.4,2.7-1.1,3.6c-0.7,0.9-1.7,1.4-3,1.4C55.8,208.9,54.9,208.4,54.3,207.4z M54.3,203.8v1.3
		c0,0.7,0.2,1.4,0.7,1.9s1.1,0.8,1.8,0.8c0.9,0,1.6-0.3,2.1-1s0.7-1.6,0.7-2.8c0-1-0.2-1.8-0.7-2.4s-1.1-0.9-1.9-0.9
		c-0.8,0-1.5,0.3-2,0.9C54.5,202.2,54.3,202.9,54.3,203.8z"/>
	<path class="st2" d="M64.1,197.5c-0.3,0-0.5-0.1-0.7-0.3s-0.3-0.4-0.3-0.7s0.1-0.5,0.3-0.7s0.4-0.3,0.7-0.3c0.3,0,0.5,0.1,0.7,0.3
		s0.3,0.4,0.3,0.7s-0.1,0.5-0.3,0.7S64.4,197.5,64.1,197.5z M64.8,208.7h-1.4v-9h1.4V208.7z"/>
	<path class="st2" d="M73.9,208.3c-0.7,0.4-1.5,0.6-2.5,0.6c-1.3,0-2.3-0.4-3.1-1.3c-0.8-0.8-1.2-1.9-1.2-3.2c0-1.5,0.4-2.7,1.3-3.6
		c0.8-0.9,2-1.3,3.4-1.3c0.8,0,1.5,0.1,2.1,0.4v1.5c-0.7-0.5-1.4-0.7-2.1-0.7c-0.9,0-1.7,0.3-2.3,1c-0.6,0.7-0.9,1.5-0.9,2.6
		s0.3,1.9,0.8,2.5s1.3,0.9,2.2,0.9c0.8,0,1.5-0.3,2.2-0.8L73.9,208.3L73.9,208.3z"/>
	<path class="st2" d="M82.5,208.7h-1.4v-1.4l0,0c-0.6,1.1-1.5,1.6-2.8,1.6c-0.9,0-1.6-0.2-2.1-0.7s-0.8-1.1-0.8-1.9
		c0-1.7,1-2.7,3-2.9l2.7-0.4c0-1.5-0.6-2.3-1.9-2.3c-1.1,0-2.1,0.4-2.9,1.1v-1.5c0.9-0.6,1.9-0.8,3.1-0.8c2.1,0,3.2,1.1,3.2,3.4
		L82.5,208.7L82.5,208.7z M81.1,204.2l-2.2,0.3c-0.7,0.1-1.2,0.3-1.5,0.5s-0.5,0.7-0.5,1.3c0,0.4,0.2,0.8,0.5,1.1s0.7,0.4,1.3,0.4
		c0.7,0,1.3-0.2,1.8-0.8c0.5-0.5,0.7-1.1,0.7-1.9v-0.9L81.1,204.2L81.1,204.2z"/>
	<path class="st2" d="M89.9,201.2c-0.3-0.2-0.6-0.3-1.1-0.3c-0.6,0-1.1,0.3-1.5,0.9s-0.6,1.4-0.6,2.4v4.6h-1.4v-9h1.4v1.9l0,0
		c0.2-0.6,0.5-1.1,0.9-1.5s0.9-0.5,1.4-0.5c0.4,0,0.7,0,0.9,0.1C89.9,199.8,89.9,201.2,89.9,201.2z"/>
	<path class="st2" d="M103.7,204.6h-6.4c0,1,0.3,1.8,0.8,2.3s1.2,0.8,2.1,0.8c1,0,1.9-0.3,2.8-1v1.4c-0.8,0.6-1.8,0.9-3.1,0.9
		c-1.3,0-2.3-0.4-3-1.2s-1.1-2-1.1-3.4s0.4-2.5,1.2-3.4c0.8-0.9,1.8-1.3,3-1.3s2.1,0.4,2.7,1.1s1,1.8,1,3.2V204.6z M102.2,203.4
		c0-0.8-0.2-1.5-0.6-1.9s-0.9-0.7-1.6-0.7s-1.3,0.2-1.7,0.7s-0.8,1.1-0.9,1.9H102.2z"/>
	<path class="st2" d="M113.3,208.7h-1.4v-5.1c0-1.9-0.7-2.9-2.1-2.9c-0.7,0-1.3,0.3-1.8,0.8s-0.7,1.2-0.7,2.1v5.1h-1.4v-9h1.4v1.5
		l0,0c0.7-1.1,1.7-1.7,3-1.7c1,0,1.7,0.3,2.3,1c0.5,0.6,0.8,1.6,0.8,2.8v5.4L113.3,208.7L113.3,208.7z"/>
	<path class="st2" d="M128.2,204.6h-6.4c0,1,0.3,1.8,0.8,2.3s1.2,0.8,2.1,0.8c1,0,1.9-0.3,2.8-1v1.4c-0.8,0.6-1.8,0.9-3.1,0.9
		c-1.3,0-2.3-0.4-3-1.2s-1.1-2-1.1-3.4s0.4-2.5,1.2-3.4c0.8-0.9,1.8-1.3,3-1.3s2.1,0.4,2.7,1.1s1,1.8,1,3.2V204.6z M126.7,203.4
		c0-0.8-0.2-1.5-0.6-1.9s-0.9-0.7-1.6-0.7s-1.3,0.2-1.7,0.7s-0.8,1.1-0.9,1.9H126.7z"/>
	<path class="st2" d="M131.8,208.7h-1.4v-13.3h1.4V208.7z"/>
	<path class="st2" d="M141.1,208.7h-1.4v-13.3h1.4V208.7z"/>
	<path class="st2" d="M151.3,208.7h-1.4v-1.4l0,0c-0.6,1.1-1.5,1.6-2.8,1.6c-2.1,0-3.2-1.3-3.2-3.8v-5.4h1.4v5.2
		c0,1.9,0.7,2.8,2.2,2.8c0.7,0,1.3-0.3,1.7-0.8c0.5-0.5,0.7-1.2,0.7-2v-5.2h1.4L151.3,208.7L151.3,208.7z"/>
	<path class="st2" d="M161.9,208c0,3.3-1.6,5-4.7,5c-1.1,0-2.1-0.2-2.9-0.6V211c1,0.6,2,0.8,2.9,0.8c2.2,0,3.3-1.2,3.3-3.5v-1l0,0
		c-0.7,1.1-1.7,1.7-3.1,1.7c-1.1,0-2-0.4-2.7-1.2s-1-1.9-1-3.2c0-1.5,0.4-2.7,1.1-3.6s1.7-1.4,3-1.4c1.2,0,2.1,0.5,2.7,1.5l0,0v-1.2
		h1.4V208z M160.4,204.7v-1.3c0-0.7-0.2-1.3-0.7-1.8s-1.1-0.8-1.8-0.8c-0.9,0-1.6,0.3-2.1,1c-0.5,0.6-0.8,1.6-0.8,2.7
		c0,1,0.2,1.8,0.7,2.4c0.5,0.6,1.1,0.9,1.9,0.9c0.8,0,1.5-0.3,2-0.9S160.4,205.6,160.4,204.7z"/>
	<path class="st2" d="M171.2,208.7h-1.4v-1.4l0,0c-0.6,1.1-1.5,1.6-2.8,1.6c-0.9,0-1.6-0.2-2.1-0.7s-0.8-1.1-0.8-1.9
		c0-1.7,1-2.7,3-2.9l2.7-0.4c0-1.5-0.6-2.3-1.9-2.3c-1.1,0-2.1,0.4-2.9,1.1v-1.5c0.9-0.6,1.9-0.8,3.1-0.8c2.1,0,3.2,1.1,3.2,3.4v5.8
		L171.2,208.7L171.2,208.7z M169.8,204.2l-2.2,0.3c-0.7,0.1-1.2,0.3-1.5,0.5s-0.5,0.7-0.5,1.3c0,0.4,0.2,0.8,0.5,1.1
		s0.7,0.4,1.3,0.4c0.7,0,1.3-0.2,1.8-0.8c0.5-0.5,0.7-1.1,0.7-1.9v-0.9L169.8,204.2L169.8,204.2z"/>
	<path class="st2" d="M178.7,201.2c-0.3-0.2-0.6-0.3-1.1-0.3c-0.6,0-1.1,0.3-1.5,0.9s-0.6,1.4-0.6,2.4v4.6H174v-9h1.4v1.9l0,0
		c0.2-0.6,0.5-1.1,0.9-1.5s0.9-0.5,1.4-0.5c0.4,0,0.7,0,0.9,0.1v1.4L178.7,201.2L178.7,201.2z"/>
	<path class="st2" d="M192.8,208.7h-1.4v-1.5l0,0c-0.7,1.2-1.7,1.7-3.1,1.7c-1.1,0-2-0.4-2.7-1.2s-1-1.9-1-3.3
		c0-1.5,0.4-2.7,1.1-3.6s1.7-1.3,3-1.3c1.2,0,2.1,0.5,2.7,1.5l0,0v-5.6h1.4V208.7z M191.4,204.7v-1.3c0-0.7-0.2-1.3-0.7-1.8
		s-1.1-0.8-1.8-0.8c-0.9,0-1.6,0.3-2.1,1s-0.8,1.5-0.8,2.7c0,1,0.2,1.9,0.7,2.5s1.1,0.9,1.9,0.9c0.8,0,1.5-0.3,2-0.9
		S191.4,205.6,191.4,204.7z"/>
	<path class="st2" d="M199.5,208.9c-1.3,0-2.4-0.4-3.2-1.3c-0.8-0.8-1.2-2-1.2-3.3c0-1.5,0.4-2.7,1.2-3.5s1.9-1.3,3.3-1.3
		c1.3,0,2.4,0.4,3.1,1.2s1.1,2,1.1,3.4s-0.4,2.6-1.2,3.4C202,208.5,200.9,208.9,199.5,208.9z M199.6,200.7c-0.9,0-1.7,0.3-2.2,0.9
		c-0.5,0.6-0.8,1.5-0.8,2.6s0.3,1.9,0.8,2.5s1.3,0.9,2.2,0.9s1.6-0.3,2.1-0.9s0.8-1.5,0.8-2.6s-0.3-2-0.8-2.6
		S200.6,200.7,199.6,200.7z"/>
	<path class="st2" d="M213.8,208.7h-1.4v-5.1c0-1.9-0.7-2.9-2.1-2.9c-0.7,0-1.3,0.3-1.8,0.8s-0.7,1.2-0.7,2.1v5.1h-1.4v-9h1.4v1.5
		l0,0c0.7-1.1,1.7-1.7,3-1.7c1,0,1.7,0.3,2.3,1c0.5,0.6,0.8,1.6,0.8,2.8v5.4L213.8,208.7L213.8,208.7z"/>
	<path class="st2" d="M224.2,208.7h-1.4v-1.5l0,0c-0.7,1.2-1.7,1.7-3.1,1.7c-1.1,0-2-0.4-2.7-1.2s-1-1.9-1-3.3
		c0-1.5,0.4-2.7,1.1-3.6s1.7-1.3,3-1.3c1.2,0,2.1,0.5,2.7,1.5l0,0v-5.6h1.4V208.7z M222.7,204.7v-1.3c0-0.7-0.2-1.3-0.7-1.8
		s-1.1-0.8-1.8-0.8c-0.9,0-1.6,0.3-2.1,1s-0.8,1.5-0.8,2.7c0,1,0.2,1.9,0.7,2.5s1.1,0.9,1.9,0.9c0.8,0,1.5-0.3,2-0.9
		S222.7,205.6,222.7,204.7z"/>
	<path class="st2" d="M234.3,204.6H228c0,1,0.3,1.8,0.8,2.3s1.2,0.8,2.1,0.8c1,0,1.9-0.3,2.8-1v1.4c-0.8,0.6-1.8,0.9-3.1,0.9
		s-2.3-0.4-3-1.2s-1.1-2-1.1-3.4s0.4-2.5,1.2-3.4s1.8-1.3,3-1.3s2.1,0.4,2.7,1.1s1,1.8,1,3.2L234.3,204.6L234.3,204.6z M232.8,203.4
		c0-0.8-0.2-1.5-0.6-1.9s-0.9-0.7-1.6-0.7c-0.7,0-1.3,0.2-1.7,0.7s-0.8,1.1-0.9,1.9H232.8z"/>
</g>
<g class="st1">
	<path class="st2" d="M39.9,232.4v-1.5c0.8,0.6,1.6,0.9,2.6,0.9c1.3,0,1.9-0.4,1.9-1.3c0-0.2-0.1-0.4-0.2-0.6
		c-0.1-0.2-0.3-0.3-0.4-0.4s-0.4-0.2-0.7-0.3c-0.2-0.1-0.5-0.2-0.8-0.3c-0.4-0.2-0.7-0.3-1.1-0.5c-0.3-0.2-0.6-0.3-0.8-0.5
		s-0.4-0.4-0.5-0.7s-0.2-0.6-0.2-0.9c0-0.4,0.1-0.8,0.3-1.1s0.5-0.6,0.8-0.8s0.7-0.4,1.1-0.5s0.8-0.2,1.3-0.2c0.8,0,1.5,0.1,2.1,0.4
		v1.5c-0.7-0.4-1.4-0.7-2.3-0.7c-0.3,0-0.5,0-0.7,0.1s-0.4,0.1-0.6,0.3s-0.3,0.2-0.4,0.4c-0.1,0.2-0.1,0.3-0.1,0.5s0,0.4,0.1,0.6
		s0.2,0.3,0.4,0.4s0.4,0.2,0.6,0.3s0.5,0.2,0.8,0.3c0.4,0.2,0.8,0.3,1.1,0.5s0.6,0.3,0.8,0.5s0.4,0.4,0.5,0.7s0.2,0.6,0.2,0.9
		c0,0.4-0.1,0.8-0.3,1.2s-0.5,0.6-0.8,0.8s-0.7,0.4-1.1,0.5s-0.9,0.2-1.3,0.2C41.4,232.9,40.6,232.8,39.9,232.4z"/>
	<path class="st2" d="M55.3,228.6H49c0,1,0.3,1.8,0.8,2.3s1.2,0.8,2.1,0.8c1,0,1.9-0.3,2.8-1v1.4c-0.8,0.6-1.8,0.9-3.1,0.9
		s-2.3-0.4-3-1.2s-1.1-2-1.1-3.4s0.4-2.5,1.2-3.4s1.8-1.3,3-1.3s2.1,0.4,2.7,1.1s1,1.8,1,3.2v0.6L55.3,228.6L55.3,228.6z
		 M53.9,227.4c0-0.8-0.2-1.5-0.6-1.9s-0.9-0.7-1.6-0.7c-0.7,0-1.3,0.2-1.7,0.7s-0.8,1.1-0.9,1.9H53.9z"/>
	<path class="st2" d="M68.9,232.7h-1.4v-1.4l0,0c-0.6,1.1-1.5,1.6-2.8,1.6c-0.9,0-1.6-0.2-2.1-0.7s-0.8-1.1-0.8-1.9
		c0-1.7,1-2.7,3-2.9l2.7-0.4c0-1.5-0.6-2.3-1.9-2.3c-1.1,0-2.1,0.4-2.9,1.1v-1.5c0.9-0.6,1.9-0.8,3.1-0.8c2.1,0,3.2,1.1,3.2,3.4
		L68.9,232.7L68.9,232.7z M67.4,228.2l-2.2,0.3c-0.7,0.1-1.2,0.3-1.5,0.5c-0.3,0.2-0.5,0.7-0.5,1.3c0,0.4,0.2,0.8,0.5,1.1
		c0.3,0.3,0.7,0.4,1.3,0.4c0.7,0,1.3-0.2,1.8-0.8c0.5-0.5,0.7-1.1,0.7-1.9v-0.9L67.4,228.2L67.4,228.2z"/>
	<path class="st2" d="M79.3,232.7h-1.4v-1.5l0,0c-0.7,1.2-1.7,1.7-3.1,1.7c-1.1,0-2-0.4-2.7-1.2s-1-1.9-1-3.3c0-1.5,0.4-2.7,1.1-3.6
		s1.7-1.3,3-1.3c1.2,0,2.1,0.5,2.7,1.5l0,0v-5.6h1.4V232.7z M77.8,228.7v-1.3c0-0.7-0.2-1.3-0.7-1.8s-1.1-0.8-1.8-0.8
		c-0.9,0-1.6,0.3-2.1,1s-0.8,1.5-0.8,2.7c0,1,0.2,1.9,0.7,2.5s1.1,0.9,1.9,0.9s1.5-0.3,2-0.9S77.8,229.6,77.8,228.7z"/>
	<path class="st2" d="M95,232.7h-1.4v-5.2c0-1-0.2-1.7-0.5-2.2s-0.8-0.7-1.6-0.7c-0.6,0-1.1,0.3-1.6,0.8s-0.6,1.2-0.6,2v5.1h-1.4
		v-5.3c0-1.8-0.7-2.7-2-2.7c-0.6,0-1.2,0.3-1.6,0.8s-0.6,1.2-0.6,2.1v5.1h-1.4v-9h1.4v1.4l0,0c0.6-1.1,1.6-1.6,2.8-1.6
		c0.6,0,1.2,0.2,1.6,0.5c0.5,0.3,0.8,0.8,0.9,1.3c0.7-1.2,1.7-1.9,3-1.9c2,0,3,1.2,3,3.7C95,226.9,95,232.7,95,232.7z"/>
	<path class="st2" d="M98.4,221.5c-0.3,0-0.5-0.1-0.7-0.3s-0.3-0.4-0.3-0.7s0.1-0.5,0.3-0.7c0.2-0.2,0.4-0.3,0.7-0.3
		c0.3,0,0.5,0.1,0.7,0.3s0.3,0.4,0.3,0.7s-0.1,0.5-0.3,0.7S98.7,221.5,98.4,221.5z M99.1,232.7h-1.4v-9h1.4V232.7z"/>
	<path class="st2" d="M109.5,232.7h-1.4v-5.1c0-1.9-0.7-2.9-2.1-2.9c-0.7,0-1.3,0.3-1.8,0.8s-0.7,1.2-0.7,2.1v5.1h-1.4v-9h1.4v1.5
		l0,0c0.7-1.1,1.7-1.7,3-1.7c1,0,1.7,0.3,2.3,1c0.5,0.6,0.8,1.6,0.8,2.8v5.4L109.5,232.7L109.5,232.7z"/>
	<path class="st2" d="M113,221.5c-0.3,0-0.5-0.1-0.7-0.3s-0.3-0.4-0.3-0.7s0.1-0.5,0.3-0.7c0.2-0.2,0.4-0.3,0.7-0.3
		c0.3,0,0.5,0.1,0.7,0.3s0.3,0.4,0.3,0.7s-0.1,0.5-0.3,0.7S113.2,221.5,113,221.5z M113.7,232.7h-1.4v-9h1.4V232.7z"/>
	<path class="st2" d="M116.1,232.4v-1.5c0.8,0.6,1.6,0.9,2.6,0.9c1.3,0,1.9-0.4,1.9-1.3c0-0.2-0.1-0.4-0.2-0.6
		c-0.1-0.2-0.3-0.3-0.4-0.4s-0.4-0.2-0.7-0.3c-0.2-0.1-0.5-0.2-0.8-0.3c-0.4-0.2-0.7-0.3-1.1-0.5c-0.3-0.2-0.6-0.3-0.8-0.5
		c-0.2-0.2-0.4-0.4-0.5-0.7s-0.2-0.6-0.2-0.9c0-0.4,0.1-0.8,0.3-1.1c0.2-0.3,0.5-0.6,0.8-0.8s0.7-0.4,1.1-0.5s0.8-0.2,1.3-0.2
		c0.8,0,1.5,0.1,2.1,0.4v1.5c-0.7-0.4-1.4-0.7-2.3-0.7c-0.3,0-0.5,0-0.7,0.1s-0.4,0.1-0.6,0.3s-0.3,0.2-0.4,0.4s-0.1,0.3-0.1,0.5
		s0,0.4,0.1,0.6s0.2,0.3,0.4,0.4s0.4,0.2,0.6,0.3s0.5,0.2,0.8,0.3c0.4,0.2,0.8,0.3,1.1,0.5c0.3,0.2,0.6,0.3,0.8,0.5
		c0.2,0.2,0.4,0.4,0.5,0.7s0.2,0.6,0.2,0.9c0,0.4-0.1,0.8-0.3,1.2s-0.5,0.6-0.8,0.8s-0.7,0.4-1.1,0.5s-0.9,0.2-1.3,0.2
		C117.5,232.9,116.7,232.8,116.1,232.4z"/>
	<path class="st2" d="M128.4,232.7c-0.3,0.2-0.8,0.3-1.3,0.3c-1.6,0-2.4-0.9-2.4-2.6V225h-1.5v-1.2h1.5v-2.2l1.4-0.5v2.7h2.3v1.2
		h-2.3v5.1c0,0.6,0.1,1,0.3,1.3s0.5,0.4,1,0.4c0.4,0,0.7-0.1,0.9-0.3v1.2H128.4z"/>
	<path class="st2" d="M135,225.2c-0.3-0.2-0.6-0.3-1.1-0.3c-0.6,0-1.1,0.3-1.5,0.9s-0.6,1.4-0.6,2.4v4.6h-1.4v-9h1.4v1.9l0,0
		c0.2-0.6,0.5-1.1,0.9-1.5s0.9-0.5,1.4-0.5c0.4,0,0.7,0,0.9,0.1L135,225.2L135,225.2z"/>
	<path class="st2" d="M143,232.7h-1.4v-1.4l0,0c-0.6,1.1-1.5,1.6-2.8,1.6c-0.9,0-1.6-0.2-2.1-0.7s-0.8-1.1-0.8-1.9
		c0-1.7,1-2.7,3-2.9l2.7-0.4c0-1.5-0.6-2.3-1.9-2.3c-1.1,0-2.1,0.4-2.9,1.1v-1.5c0.9-0.6,1.9-0.8,3.1-0.8c2.1,0,3.2,1.1,3.2,3.4v5.8
		L143,232.7L143,232.7z M141.6,228.2l-2.2,0.3c-0.7,0.1-1.2,0.3-1.5,0.5s-0.5,0.7-0.5,1.3c0,0.4,0.2,0.8,0.5,1.1s0.7,0.4,1.3,0.4
		c0.7,0,1.3-0.2,1.8-0.8c0.5-0.5,0.7-1.1,0.7-1.9v-0.9L141.6,228.2L141.6,228.2z"/>
	<path class="st2" d="M152.1,232.7h-1.4v-13.3h1.4V232.7z"/>
	<path class="st2" d="M161.5,232.7h-1.4v-1.4l0,0c-0.6,1.1-1.5,1.6-2.8,1.6c-0.9,0-1.6-0.2-2.1-0.7s-0.8-1.1-0.8-1.9
		c0-1.7,1-2.7,3-2.9l2.7-0.4c0-1.5-0.6-2.3-1.9-2.3c-1.1,0-2.1,0.4-2.9,1.1v-1.5c0.9-0.6,1.9-0.8,3.1-0.8c2.1,0,3.2,1.1,3.2,3.4v5.8
		L161.5,232.7L161.5,232.7z M160.1,228.2l-2.2,0.3c-0.7,0.1-1.2,0.3-1.5,0.5s-0.5,0.7-0.5,1.3c0,0.4,0.2,0.8,0.5,1.1
		s0.7,0.4,1.3,0.4c0.7,0,1.3-0.2,1.8-0.8c0.5-0.5,0.7-1.1,0.7-1.9v-0.9L160.1,228.2L160.1,228.2z"/>
	<path class="st2" d="M176.2,223.7l-3.6,9h-1.4l-3.4-9h1.6l2.3,6.5c0.2,0.5,0.3,0.9,0.3,1.3l0,0c0.1-0.5,0.2-0.9,0.3-1.2l2.4-6.6
		H176.2z"/>
	<path class="st2" d="M184.2,232.7h-1.4v-1.4l0,0c-0.6,1.1-1.5,1.6-2.8,1.6c-0.9,0-1.6-0.2-2.1-0.7s-0.8-1.1-0.8-1.9
		c0-1.7,1-2.7,3-2.9l2.7-0.4c0-1.5-0.6-2.3-1.9-2.3c-1.1,0-2.1,0.4-2.9,1.1v-1.5c0.9-0.6,1.9-0.8,3.1-0.8c2.1,0,3.2,1.1,3.2,3.4v5.8
		L184.2,232.7L184.2,232.7z M182.8,228.2l-2.2,0.3c-0.7,0.1-1.2,0.3-1.5,0.5s-0.5,0.7-0.5,1.3c0,0.4,0.2,0.8,0.5,1.1
		s0.7,0.4,1.3,0.4c0.7,0,1.3-0.2,1.8-0.8c0.5-0.5,0.7-1.1,0.7-1.9v-0.9L182.8,228.2L182.8,228.2z"/>
	<path class="st2" d="M193.1,232.3c-0.7,0.4-1.5,0.6-2.5,0.6c-1.3,0-2.3-0.4-3.1-1.3c-0.8-0.8-1.2-1.9-1.2-3.2
		c0-1.5,0.4-2.7,1.3-3.6c0.8-0.9,2-1.3,3.4-1.3c0.8,0,1.5,0.1,2.1,0.4v1.5c-0.7-0.5-1.4-0.7-2.1-0.7c-0.9,0-1.7,0.3-2.3,1
		s-0.9,1.5-0.9,2.6s0.3,1.9,0.8,2.5s1.3,0.9,2.2,0.9c0.8,0,1.5-0.3,2.2-0.8v1.4L193.1,232.3L193.1,232.3z"/>
	<path class="st2" d="M202.5,232.7h-1.4v-1.4l0,0c-0.6,1.1-1.5,1.6-2.8,1.6c-2.1,0-3.2-1.3-3.2-3.8v-5.4h1.4v5.2
		c0,1.9,0.7,2.8,2.2,2.8c0.7,0,1.3-0.3,1.7-0.8c0.5-0.5,0.7-1.2,0.7-2v-5.2h1.4L202.5,232.7L202.5,232.7z"/>
	<path class="st2" d="M212.9,232.7h-1.4v-5.1c0-1.9-0.7-2.9-2.1-2.9c-0.7,0-1.3,0.3-1.8,0.8s-0.7,1.2-0.7,2.1v5.1h-1.4v-9h1.4v1.5
		l0,0c0.7-1.1,1.7-1.7,3-1.7c1,0,1.7,0.3,2.3,1c0.5,0.6,0.8,1.6,0.8,2.8v5.4L212.9,232.7L212.9,232.7z"/>
	<path class="st2" d="M222,232.7h-1.4v-1.4l0,0c-0.6,1.1-1.5,1.6-2.8,1.6c-0.9,0-1.6-0.2-2.1-0.7s-0.8-1.1-0.8-1.9
		c0-1.7,1-2.7,3-2.9l2.7-0.4c0-1.5-0.6-2.3-1.9-2.3c-1.1,0-2.1,0.4-2.9,1.1v-1.5c0.9-0.6,1.9-0.8,3.1-0.8c2.1,0,3.2,1.1,3.2,3.4v5.8
		L222,232.7L222,232.7z M220.6,228.2l-2.2,0.3c-0.7,0.1-1.2,0.3-1.5,0.5s-0.5,0.7-0.5,1.3c0,0.4,0.2,0.8,0.5,1.1s0.7,0.4,1.3,0.4
		c0.7,0,1.3-0.2,1.8-0.8c0.5-0.5,0.7-1.1,0.7-1.9v-0.9L220.6,228.2L220.6,228.2z"/>
	<path class="st2" d="M225.3,232.9c-0.3,0-0.5-0.1-0.7-0.3s-0.3-0.4-0.3-0.7s0.1-0.5,0.3-0.7s0.4-0.3,0.7-0.3s0.5,0.1,0.7,0.3
		s0.3,0.4,0.3,0.7s-0.1,0.5-0.3,0.7S225.5,232.9,225.3,232.9z"/>
</g>
<g class="st1">
	<path class="st2" d="M351.2,208.7h-6.5v-12.6h1.5v11.3h5.1v1.3H351.2z"/>
	<path class="st2" d="M354.4,208.7H353v-13.3h1.4V208.7z"/>
	<path class="st2" d="M364.5,204.6h-6.4c0,1,0.3,1.8,0.8,2.3s1.2,0.8,2.1,0.8c1,0,1.9-0.3,2.8-1v1.4c-0.8,0.6-1.8,0.9-3.1,0.9
		c-1.3,0-2.3-0.4-3-1.2s-1.1-2-1.1-3.4s0.4-2.5,1.2-3.4c0.8-0.9,1.8-1.3,3-1.3s2.1,0.4,2.7,1.1s1,1.8,1,3.2V204.6z M363,203.4
		c0-0.8-0.2-1.5-0.6-1.9c-0.4-0.5-0.9-0.7-1.6-0.7s-1.3,0.2-1.7,0.7s-0.8,1.1-0.9,1.9H363z"/>
	<path class="st2" d="M374.2,208.7h-1.4v-5.1c0-1.9-0.7-2.9-2.1-2.9c-0.7,0-1.3,0.3-1.8,0.8s-0.7,1.2-0.7,2.1v5.1h-1.4v-9h1.4v1.5
		l0,0c0.7-1.1,1.7-1.7,3-1.7c1,0,1.7,0.3,2.3,1c0.5,0.6,0.8,1.6,0.8,2.8L374.2,208.7L374.2,208.7z"/>
	<path class="st2" d="M383.3,208.7h-1.4v-1.4l0,0c-0.6,1.1-1.5,1.6-2.8,1.6c-0.9,0-1.6-0.2-2.1-0.7s-0.8-1.1-0.8-1.9
		c0-1.7,1-2.7,3-2.9l2.7-0.4c0-1.5-0.6-2.3-1.9-2.3c-1.1,0-2.1,0.4-2.9,1.1v-1.5c0.9-0.6,1.9-0.8,3.1-0.8c2.1,0,3.2,1.1,3.2,3.4v5.8
		L383.3,208.7L383.3,208.7z M381.9,204.2l-2.2,0.3c-0.7,0.1-1.2,0.3-1.5,0.5s-0.5,0.7-0.5,1.3c0,0.4,0.2,0.8,0.5,1.1
		s0.7,0.4,1.3,0.4c0.7,0,1.3-0.2,1.8-0.8c0.5-0.5,0.7-1.1,0.7-1.9L381.9,204.2L381.9,204.2z"/>
	<path class="st2" d="M390.7,201.2c-0.3-0.2-0.6-0.3-1.1-0.3c-0.6,0-1.1,0.3-1.5,0.9c-0.4,0.6-0.6,1.4-0.6,2.4v4.6H386v-9h1.4v1.9
		l0,0c0.2-0.6,0.5-1.1,0.9-1.5s0.9-0.5,1.4-0.5c0.4,0,0.7,0,0.9,0.1v1.4L390.7,201.2L390.7,201.2z"/>
	<path class="st2" d="M393.7,208.7h-1.4v-13.3h1.4V208.7z"/>
	<path class="st2" d="M403.1,208.7h-1.4v-1.4l0,0c-0.6,1.1-1.5,1.6-2.8,1.6c-0.9,0-1.6-0.2-2.1-0.7s-0.8-1.1-0.8-1.9
		c0-1.7,1-2.7,3-2.9l2.7-0.4c0-1.5-0.6-2.3-1.9-2.3c-1.1,0-2.1,0.4-2.9,1.1v-1.5c0.9-0.6,1.9-0.8,3.1-0.8c2.1,0,3.2,1.1,3.2,3.4v5.8
		L403.1,208.7L403.1,208.7z M401.7,204.2l-2.2,0.3c-0.7,0.1-1.2,0.3-1.5,0.5s-0.5,0.7-0.5,1.3c0,0.4,0.2,0.8,0.5,1.1
		s0.7,0.4,1.3,0.4c0.7,0,1.3-0.2,1.8-0.8c0.5-0.5,0.7-1.1,0.7-1.9L401.7,204.2L401.7,204.2z"/>
	<path class="st2" d="M405.3,208.4v-1.5c0.8,0.6,1.6,0.9,2.6,0.9c1.3,0,1.9-0.4,1.9-1.3c0-0.2-0.1-0.4-0.2-0.6
		c-0.1-0.2-0.3-0.3-0.4-0.4c-0.2-0.1-0.4-0.2-0.7-0.3c-0.2-0.1-0.5-0.2-0.8-0.3c-0.4-0.2-0.7-0.3-1-0.5s-0.6-0.3-0.8-0.5
		c-0.2-0.2-0.4-0.4-0.5-0.7s-0.2-0.6-0.2-0.9c0-0.4,0.1-0.8,0.3-1.1c0.2-0.3,0.5-0.6,0.8-0.8s0.7-0.4,1.1-0.5s0.8-0.2,1.3-0.2
		c0.8,0,1.5,0.1,2.1,0.4v1.5c-0.7-0.4-1.4-0.7-2.3-0.7c-0.3,0-0.5,0-0.7,0.1s-0.4,0.1-0.6,0.3c-0.2,0.1-0.3,0.2-0.4,0.4
		s-0.1,0.3-0.1,0.5s0,0.4,0.1,0.6c0.1,0.2,0.2,0.3,0.4,0.4s0.4,0.2,0.6,0.3s0.5,0.2,0.8,0.3c0.4,0.2,0.8,0.3,1.1,0.5
		c0.3,0.2,0.6,0.3,0.8,0.5c0.2,0.2,0.4,0.4,0.5,0.7s0.2,0.6,0.2,0.9c0,0.4-0.1,0.8-0.3,1.2c-0.2,0.3-0.5,0.6-0.8,0.8
		s-0.7,0.4-1.1,0.5s-0.9,0.2-1.3,0.2C406.8,208.9,406,208.8,405.3,208.4z"/>
	<path class="st2" d="M425.9,208.7h-1.4v-5.2c0-1.9-0.7-2.8-2.1-2.8c-0.7,0-1.3,0.3-1.8,0.8s-0.7,1.2-0.7,2.1v5.1h-1.4v-13.3h1.4
		v5.8l0,0c0.7-1.1,1.7-1.7,3-1.7c2,0,3,1.2,3,3.7V208.7z"/>
	<path class="st2" d="M435,208.7h-1.4v-1.4l0,0c-0.6,1.1-1.5,1.6-2.8,1.6c-0.9,0-1.6-0.2-2.1-0.7s-0.8-1.1-0.8-1.9
		c0-1.7,1-2.7,3-2.9l2.7-0.4c0-1.5-0.6-2.3-1.9-2.3c-1.1,0-2.1,0.4-2.9,1.1v-1.5c0.9-0.6,1.9-0.8,3.1-0.8c2.1,0,3.2,1.1,3.2,3.4v5.8
		L435,208.7L435,208.7z M433.6,204.2l-2.2,0.3c-0.7,0.1-1.2,0.3-1.5,0.5s-0.5,0.7-0.5,1.3c0,0.4,0.2,0.8,0.5,1.1s0.7,0.4,1.3,0.4
		c0.7,0,1.3-0.2,1.8-0.8c0.5-0.5,0.7-1.1,0.7-1.9L433.6,204.2L433.6,204.2z"/>
	<path class="st2" d="M437.2,208.4v-1.5c0.8,0.6,1.6,0.9,2.6,0.9c1.3,0,1.9-0.4,1.9-1.3c0-0.2-0.1-0.4-0.2-0.6
		c-0.1-0.2-0.3-0.3-0.4-0.4c-0.2-0.1-0.4-0.2-0.7-0.3c-0.2-0.1-0.5-0.2-0.8-0.3c-0.4-0.2-0.7-0.3-1.1-0.5c-0.3-0.2-0.6-0.3-0.8-0.5
		c-0.2-0.2-0.4-0.4-0.5-0.7s-0.2-0.6-0.2-0.9c0-0.4,0.1-0.8,0.3-1.1c0.2-0.3,0.5-0.6,0.8-0.8s0.7-0.4,1.1-0.5s0.8-0.2,1.3-0.2
		c0.8,0,1.5,0.1,2.1,0.4v1.5c-0.7-0.4-1.4-0.7-2.3-0.7c-0.3,0-0.5,0-0.7,0.1s-0.4,0.1-0.6,0.3c-0.2,0.1-0.3,0.2-0.4,0.4
		s-0.1,0.3-0.1,0.5s0,0.4,0.1,0.6c0.1,0.2,0.2,0.3,0.4,0.4s0.4,0.2,0.6,0.3s0.5,0.2,0.8,0.3c0.4,0.2,0.8,0.3,1.1,0.5
		c0.3,0.2,0.6,0.3,0.8,0.5c0.2,0.2,0.4,0.4,0.5,0.7s0.2,0.6,0.2,0.9c0,0.4-0.1,0.8-0.3,1.2c-0.2,0.3-0.5,0.6-0.8,0.8
		s-0.7,0.4-1.1,0.5s-0.9,0.2-1.3,0.2C438.7,208.9,437.9,208.8,437.2,208.4z"/>
	<path class="st2" d="M449.5,208.7c-0.3,0.2-0.8,0.3-1.3,0.3c-1.6,0-2.4-0.9-2.4-2.6V201h-1.5v-1.2h1.5v-2.2l1.4-0.5v2.7h2.3v1.2
		h-2.3v5.1c0,0.6,0.1,1,0.3,1.3s0.5,0.4,1,0.4c0.4,0,0.7-0.1,0.9-0.3v1.2H449.5z"/>
	<path class="st2" d="M457.9,208.7h-1.4v-1.4l0,0c-0.6,1.1-1.5,1.6-2.8,1.6c-0.9,0-1.6-0.2-2.1-0.7s-0.8-1.1-0.8-1.9
		c0-1.7,1-2.7,3-2.9l2.7-0.4c0-1.5-0.6-2.3-1.9-2.3c-1.1,0-2.1,0.4-2.9,1.1v-1.5c0.9-0.6,1.9-0.8,3.1-0.8c2.1,0,3.2,1.1,3.2,3.4v5.8
		L457.9,208.7L457.9,208.7z M456.5,204.2l-2.2,0.3c-0.7,0.1-1.2,0.3-1.5,0.5s-0.5,0.7-0.5,1.3c0,0.4,0.2,0.8,0.5,1.1
		s0.7,0.4,1.3,0.4c0.7,0,1.3-0.2,1.8-0.8c0.5-0.5,0.7-1.1,0.7-1.9L456.5,204.2L456.5,204.2z"/>
</g>
<g class="st1">
	<path class="st2" d="M344.1,227.3v-1.2c0.6,0.4,1.2,0.7,1.9,0.7c0.5,0,0.8-0.1,1.1-0.3c0.3-0.2,0.4-0.5,0.4-0.9
		c0-0.8-0.6-1.2-1.9-1.2h-0.7v-1h0.7c1.2,0,1.7-0.4,1.7-1.2c0-0.7-0.4-1-1.3-1c-0.6,0-1.1,0.2-1.6,0.6v-1.2c0.5-0.3,1.1-0.4,1.9-0.4
		c0.7,0,1.2,0.2,1.6,0.5s0.6,0.8,0.6,1.4c0,0.9-0.4,1.5-1.3,1.8l0,0c1,0.2,1.6,0.8,1.6,1.8c0,0.7-0.2,1.2-0.7,1.7s-1.2,0.7-2,0.7
		C345.2,227.8,344.6,227.6,344.1,227.3z M355.9,220.1l-7.5,12.6h-1.3l7.5-12.6H355.9z M358.6,230.9h-1v1.8h-1.2v-1.8H353v-0.8
		c0.6-0.7,1.2-1.5,1.7-2.3s1-1.7,1.5-2.6h1.4v4.7h1V230.9z M356.4,230v-3.3c-0.4,0.7-0.7,1.3-1.1,1.8s-0.8,1-1.1,1.5H356.4z"/>
	<path class="st2" d="M368,231.4L368,231.4v5.4h-1.4v-13.1h1.4v1.6l0,0c0.7-1.2,1.7-1.8,3.1-1.8c1.2,0,2.1,0.4,2.7,1.2
		c0.7,0.8,1,1.9,1,3.2c0,1.5-0.4,2.7-1.1,3.6c-0.7,0.9-1.7,1.4-3,1.4C369.5,232.9,368.6,232.4,368,231.4z M368,227.8v1.3
		c0,0.7,0.2,1.4,0.7,1.9s1.1,0.8,1.8,0.8c0.9,0,1.6-0.3,2.1-1s0.7-1.6,0.7-2.8c0-1-0.2-1.8-0.7-2.4s-1.1-0.9-1.9-0.9s-1.5,0.3-2,0.9
		S368,226.9,368,227.8z"/>
	<path class="st2" d="M383.6,232.7h-1.4v-1.4l0,0c-0.6,1.1-1.5,1.6-2.8,1.6c-0.9,0-1.6-0.2-2.1-0.7s-0.8-1.1-0.8-1.9
		c0-1.7,1-2.7,3-2.9l2.7-0.4c0-1.5-0.6-2.3-1.9-2.3c-1.1,0-2.1,0.4-2.9,1.1v-1.5c0.9-0.6,1.9-0.8,3.1-0.8c2.1,0,3.2,1.1,3.2,3.4v5.8
		L383.6,232.7L383.6,232.7z M382.1,228.2l-2.2,0.3c-0.7,0.1-1.2,0.3-1.5,0.5s-0.5,0.7-0.5,1.3c0,0.4,0.2,0.8,0.5,1.1
		s0.7,0.4,1.3,0.4c0.7,0,1.3-0.2,1.8-0.8c0.5-0.5,0.7-1.1,0.7-1.9L382.1,228.2L382.1,228.2z"/>
	<path class="st2" d="M391,225.2c-0.3-0.2-0.6-0.3-1.1-0.3c-0.6,0-1.1,0.3-1.5,0.9c-0.4,0.6-0.6,1.4-0.6,2.4v4.6h-1.4v-9h1.4v1.9
		l0,0c0.2-0.6,0.5-1.1,0.9-1.5s0.9-0.5,1.4-0.5c0.4,0,0.7,0,0.9,0.1L391,225.2L391,225.2z"/>
	<path class="st2" d="M396.7,232.7c-0.3,0.2-0.8,0.3-1.3,0.3c-1.6,0-2.4-0.9-2.4-2.6V225h-1.5v-1.2h1.5v-2.2l1.4-0.5v2.7h2.3v1.2
		h-2.3v5.1c0,0.6,0.1,1,0.3,1.3s0.5,0.4,1,0.4c0.4,0,0.7-0.1,0.9-0.3v1.2H396.7z"/>
	<path class="st2" d="M405.9,228.6h-6.4c0,1,0.3,1.8,0.8,2.3s1.2,0.8,2.1,0.8c1,0,1.9-0.3,2.8-1v1.4c-0.8,0.6-1.8,0.9-3.1,0.9
		c-1.3,0-2.3-0.4-3-1.2s-1.1-2-1.1-3.4s0.4-2.5,1.2-3.4c0.8-0.9,1.8-1.3,3-1.3s2.1,0.4,2.7,1.1s1,1.8,1,3.2V228.6z M404.4,227.4
		c0-0.8-0.2-1.5-0.6-1.9c-0.4-0.5-0.9-0.7-1.6-0.7s-1.3,0.2-1.7,0.7s-0.8,1.1-0.9,1.9H404.4z"/>
	<path class="st2" d="M407.5,232.4v-1.5c0.8,0.6,1.6,0.9,2.6,0.9c1.3,0,1.9-0.4,1.9-1.3c0-0.2-0.1-0.4-0.2-0.6
		c-0.1-0.2-0.3-0.3-0.4-0.4c-0.2-0.1-0.4-0.2-0.7-0.3c-0.2-0.1-0.5-0.2-0.8-0.3c-0.4-0.2-0.7-0.3-1-0.5s-0.6-0.3-0.8-0.5
		c-0.2-0.2-0.4-0.4-0.5-0.7s-0.2-0.6-0.2-0.9c0-0.4,0.1-0.8,0.3-1.1c0.2-0.3,0.5-0.6,0.8-0.8s0.7-0.4,1.1-0.5s0.8-0.2,1.3-0.2
		c0.8,0,1.5,0.1,2.1,0.4v1.5c-0.7-0.4-1.4-0.7-2.3-0.7c-0.3,0-0.5,0-0.7,0.1s-0.4,0.1-0.6,0.3c-0.2,0.1-0.3,0.2-0.4,0.4
		s-0.1,0.3-0.1,0.5s0,0.4,0.1,0.6c0.1,0.2,0.2,0.3,0.4,0.4s0.4,0.2,0.6,0.3s0.5,0.2,0.8,0.3c0.4,0.2,0.8,0.3,1.1,0.5
		c0.3,0.2,0.6,0.3,0.8,0.5c0.2,0.2,0.4,0.4,0.5,0.7s0.2,0.6,0.2,0.9c0,0.4-0.1,0.8-0.3,1.2c-0.2,0.3-0.5,0.6-0.8,0.8
		s-0.7,0.4-1.1,0.5s-0.9,0.2-1.3,0.2C409,232.9,408.2,232.8,407.5,232.4z"/>
	<path class="st2" d="M416.2,232.9c-0.3,0-0.5-0.1-0.7-0.3s-0.3-0.4-0.3-0.7s0.1-0.5,0.3-0.7c0.2-0.2,0.4-0.3,0.7-0.3
		c0.3,0,0.5,0.1,0.7,0.3s0.3,0.4,0.3,0.7s-0.1,0.5-0.3,0.7S416.5,232.9,416.2,232.9z"/>
</g>
<g class="st1">
	<path class="st2" d="M49.7,80.6h-1.8L45.8,77c-0.2-0.3-0.4-0.6-0.6-0.8c-0.2-0.2-0.4-0.4-0.6-0.6s-0.4-0.3-0.6-0.3
		s-0.5-0.1-0.7-0.1h-1.2v5.4h-1.5V68h3.8c0.6,0,1.1,0.1,1.5,0.2s0.9,0.3,1.2,0.6s0.6,0.6,0.8,1s0.3,0.9,0.3,1.5
		c0,0.4-0.1,0.8-0.2,1.2s-0.3,0.7-0.6,1s-0.5,0.5-0.9,0.7c-0.3,0.2-0.7,0.4-1.2,0.5l0,0c0.2,0.1,0.4,0.2,0.5,0.3
		c0.2,0.1,0.3,0.3,0.4,0.4s0.3,0.4,0.4,0.6c0.1,0.2,0.3,0.5,0.5,0.7L49.7,80.6z M42.1,69.3v4.6h2c0.4,0,0.7-0.1,1-0.2
		s0.6-0.3,0.8-0.5s0.4-0.5,0.5-0.8s0.2-0.6,0.2-1c0-0.7-0.2-1.2-0.7-1.6c-0.4-0.4-1.1-0.6-1.9-0.6L42.1,69.3L42.1,69.3z"/>
	<path class="st2" d="M54.5,80.8c-1.3,0-2.4-0.4-3.2-1.3c-0.8-0.8-1.2-2-1.2-3.3c0-1.5,0.4-2.7,1.2-3.5s1.9-1.3,3.3-1.3
		c1.3,0,2.4,0.4,3.1,1.2s1.1,2,1.1,3.4s-0.4,2.6-1.2,3.4C56.9,80.4,55.8,80.8,54.5,80.8z M54.6,72.6c-0.9,0-1.7,0.3-2.2,0.9
		s-0.8,1.5-0.8,2.6s0.3,1.9,0.8,2.5s1.3,0.9,2.2,0.9s1.6-0.3,2.1-0.9s0.8-1.5,0.8-2.6s-0.3-2-0.8-2.6S55.5,72.6,54.6,72.6z"/>
	<path class="st2" d="M65.4,80.5c-0.3,0.2-0.8,0.3-1.3,0.3c-1.6,0-2.4-0.9-2.4-2.6v-5.3h-1.5v-1.2h1.5v-2.2l1.4-0.5v2.7h2.3v1.2
		h-2.3V78c0,0.6,0.1,1,0.3,1.3s0.5,0.4,1,0.4c0.4,0,0.7-0.1,0.9-0.3L65.4,80.5L65.4,80.5z"/>
	<path class="st2" d="M74.6,80.6h-1.4v-1.4l0,0c-0.6,1.1-1.5,1.6-2.8,1.6c-2.1,0-3.2-1.3-3.2-3.8v-5.4h1.4v5.2
		c0,1.9,0.7,2.8,2.2,2.8c0.7,0,1.3-0.3,1.7-0.8c0.5-0.5,0.7-1.2,0.7-2v-5.2h1.4C74.6,71.6,74.6,80.6,74.6,80.6z"/>
	<path class="st2" d="M79,80.6h-1.4V67.3H79V80.6z"/>
	<path class="st2" d="M88.3,80.6h-1.4v-1.4l0,0c-0.6,1.1-1.5,1.6-2.8,1.6c-0.9,0-1.6-0.2-2.1-0.7s-0.8-1.1-0.8-1.9
		c0-1.7,1-2.7,3-2.9l2.7-0.4c0-1.5-0.6-2.3-1.9-2.3c-1.1,0-2.1,0.4-2.9,1.1v-1.5c0.9-0.6,1.9-0.8,3.1-0.8c2.1,0,3.2,1.1,3.2,3.4
		L88.3,80.6L88.3,80.6z M86.9,76l-2.2,0.3c-0.7,0.1-1.2,0.3-1.5,0.5s-0.5,0.7-0.5,1.3c0,0.4,0.2,0.8,0.5,1.1
		c0.3,0.3,0.7,0.4,1.3,0.4c0.7,0,1.3-0.2,1.8-0.8c0.5-0.5,0.7-1.1,0.7-1.9V76H86.9z"/>
	<path class="st2" d="M98.7,80.6h-1.4V79l0,0c-0.7,1.2-1.7,1.7-3.1,1.7c-1.1,0-2-0.4-2.7-1.2c-0.7-0.8-1-1.9-1-3.3
		c0-1.5,0.4-2.7,1.1-3.6s1.7-1.3,3-1.3c1.2,0,2.1,0.5,2.7,1.5l0,0v-5.6h1.4V80.6z M97.3,76.5v-1.3c0-0.7-0.2-1.3-0.7-1.8
		s-1.1-0.8-1.8-0.8c-0.9,0-1.6,0.3-2.1,1s-0.8,1.5-0.8,2.7c0,1,0.2,1.9,0.7,2.5s1.1,0.9,1.9,0.9s1.5-0.3,2-0.9S97.3,77.4,97.3,76.5z
		"/>
	<path class="st2" d="M105.4,80.8c-1.3,0-2.4-0.4-3.2-1.3c-0.8-0.8-1.2-2-1.2-3.3c0-1.5,0.4-2.7,1.2-3.5s1.9-1.3,3.3-1.3
		c1.3,0,2.4,0.4,3.1,1.2s1.1,2,1.1,3.4s-0.4,2.6-1.2,3.4C107.9,80.4,106.8,80.8,105.4,80.8z M105.5,72.6c-0.9,0-1.7,0.3-2.2,0.9
		s-0.8,1.5-0.8,2.6s0.3,1.9,0.8,2.5s1.3,0.9,2.2,0.9c0.9,0,1.6-0.3,2.1-0.9s0.8-1.5,0.8-2.6s-0.3-2-0.8-2.6S106.4,72.6,105.5,72.6z"
		/>
	<path class="st2" d="M124.8,80.6h-1.4V79l0,0c-0.7,1.2-1.7,1.7-3.1,1.7c-1.1,0-2-0.4-2.7-1.2c-0.7-0.8-1-1.9-1-3.3
		c0-1.5,0.4-2.7,1.1-3.6s1.7-1.3,3-1.3c1.2,0,2.1,0.5,2.7,1.5l0,0v-5.6h1.4V80.6z M123.4,76.5v-1.3c0-0.7-0.2-1.3-0.7-1.8
		s-1.1-0.8-1.8-0.8c-0.9,0-1.6,0.3-2.1,1s-0.8,1.5-0.8,2.7c0,1,0.2,1.9,0.7,2.5s1.1,0.9,1.9,0.9s1.5-0.3,2-0.9
		S123.4,77.4,123.4,76.5z"/>
	<path class="st2" d="M135,76.4h-6.4c0,1,0.3,1.8,0.8,2.3s1.2,0.8,2.1,0.8c1,0,1.9-0.3,2.8-1v1.4c-0.8,0.6-1.8,0.9-3.1,0.9
		s-2.3-0.4-3-1.2c-0.7-0.8-1.1-2-1.1-3.4s0.4-2.5,1.2-3.4s1.8-1.3,3-1.3s2.1,0.4,2.7,1.1s1,1.8,1,3.2L135,76.4L135,76.4z
		 M133.5,75.2c0-0.8-0.2-1.5-0.6-1.9s-0.9-0.7-1.6-0.7c-0.7,0-1.3,0.2-1.7,0.7s-0.8,1.1-0.9,1.9H133.5z"/>
	<path class="st2" d="M148.5,80.6h-1.4v-1.4l0,0c-0.6,1.1-1.5,1.6-2.8,1.6c-0.9,0-1.6-0.2-2.1-0.7s-0.8-1.1-0.8-1.9
		c0-1.7,1-2.7,3-2.9l2.7-0.4c0-1.5-0.6-2.3-1.9-2.3c-1.1,0-2.1,0.4-2.9,1.1v-1.5c0.9-0.6,1.9-0.8,3.1-0.8c2.1,0,3.2,1.1,3.2,3.4v5.8
		C148.6,80.6,148.5,80.6,148.5,80.6z M147.1,76l-2.2,0.3c-0.7,0.1-1.2,0.3-1.5,0.5s-0.5,0.7-0.5,1.3c0,0.4,0.2,0.8,0.5,1.1
		c0.3,0.3,0.7,0.4,1.3,0.4c0.7,0,1.3-0.2,1.8-0.8c0.5-0.5,0.7-1.1,0.7-1.9V76H147.1z"/>
	<path class="st2" d="M157.4,80.2c-0.7,0.4-1.5,0.6-2.5,0.6c-1.3,0-2.3-0.4-3.1-1.3c-0.8-0.8-1.2-1.9-1.2-3.2c0-1.5,0.4-2.7,1.3-3.6
		s2-1.3,3.4-1.3c0.8,0,1.5,0.1,2.1,0.4v1.5c-0.7-0.5-1.4-0.7-2.1-0.7c-0.9,0-1.7,0.3-2.3,1s-0.9,1.5-0.9,2.6s0.3,1.9,0.8,2.5
		s1.3,0.9,2.2,0.9c0.8,0,1.5-0.3,2.2-0.8v1.4H157.4z"/>
	<path class="st2" d="M166.8,80.6h-1.4v-1.4l0,0c-0.6,1.1-1.5,1.6-2.8,1.6c-2.1,0-3.2-1.3-3.2-3.8v-5.4h1.4v5.2
		c0,1.9,0.7,2.8,2.2,2.8c0.7,0,1.3-0.3,1.7-0.8c0.5-0.5,0.7-1.2,0.7-2v-5.2h1.4L166.8,80.6L166.8,80.6z"/>
	<path class="st2" d="M177,76.4h-6.4c0,1,0.3,1.8,0.8,2.3s1.2,0.8,2.1,0.8c1,0,1.9-0.3,2.8-1v1.4c-0.8,0.6-1.8,0.9-3.1,0.9
		s-2.3-0.4-3-1.2c-0.7-0.8-1.1-2-1.1-3.4s0.4-2.5,1.2-3.4s1.8-1.3,3-1.3s2.1,0.4,2.7,1.1s1,1.8,1,3.2V76.4z M175.5,75.2
		c0-0.8-0.2-1.5-0.6-1.9s-0.9-0.7-1.6-0.7c-0.7,0-1.3,0.2-1.7,0.7s-0.8,1.1-0.9,1.9H175.5z"/>
	<path class="st2" d="M183.8,73c-0.3-0.2-0.6-0.3-1.1-0.3c-0.6,0-1.1,0.3-1.5,0.9s-0.6,1.4-0.6,2.4v4.6h-1.4v-9h1.4v1.9l0,0
		c0.2-0.6,0.5-1.1,0.9-1.5s0.9-0.5,1.4-0.5c0.4,0,0.7,0,0.9,0.1L183.8,73L183.8,73z"/>
	<path class="st2" d="M193.1,80.6h-1.4V79l0,0c-0.7,1.2-1.7,1.7-3.1,1.7c-1.1,0-2-0.4-2.7-1.2c-0.7-0.8-1-1.9-1-3.3
		c0-1.5,0.4-2.7,1.1-3.6s1.7-1.3,3-1.3c1.2,0,2.1,0.5,2.7,1.5l0,0v-5.6h1.4V80.6z M191.6,76.5v-1.3c0-0.7-0.2-1.3-0.7-1.8
		s-1.1-0.8-1.8-0.8c-0.9,0-1.6,0.3-2.1,1s-0.8,1.5-0.8,2.7c0,1,0.2,1.9,0.7,2.5s1.1,0.9,1.9,0.9c0.8,0,1.5-0.3,2-0.9
		S191.6,77.4,191.6,76.5z"/>
	<path class="st2" d="M199.8,80.8c-1.3,0-2.4-0.4-3.2-1.3c-0.8-0.8-1.2-2-1.2-3.3c0-1.5,0.4-2.7,1.2-3.5s1.9-1.3,3.3-1.3
		c1.3,0,2.4,0.4,3.1,1.2s1.1,2,1.1,3.4s-0.4,2.6-1.2,3.4C202.2,80.4,201.1,80.8,199.8,80.8z M199.9,72.6c-0.9,0-1.7,0.3-2.2,0.9
		s-0.8,1.5-0.8,2.6s0.3,1.9,0.8,2.5s1.3,0.9,2.2,0.9s1.6-0.3,2.1-0.9s0.8-1.5,0.8-2.6s-0.3-2-0.8-2.6S200.8,72.6,199.9,72.6z"/>
	<path class="st2" d="M217.9,80.6h-1.4v-1.4l0,0c-0.6,1.1-1.5,1.6-2.8,1.6c-0.9,0-1.6-0.2-2.1-0.7s-0.8-1.1-0.8-1.9
		c0-1.7,1-2.7,3-2.9l2.7-0.4c0-1.5-0.6-2.3-1.9-2.3c-1.1,0-2.1,0.4-2.9,1.1v-1.5c0.9-0.6,1.9-0.8,3.1-0.8c2.1,0,3.2,1.1,3.2,3.4v5.8
		C218,80.6,217.9,80.6,217.9,80.6z M216.5,76l-2.2,0.3c-0.7,0.1-1.2,0.3-1.5,0.5s-0.5,0.7-0.5,1.3c0,0.4,0.2,0.8,0.5,1.1
		c0.3,0.3,0.7,0.4,1.3,0.4c0.7,0,1.3-0.2,1.8-0.8c0.5-0.5,0.7-1.1,0.7-1.9V76H216.5z"/>
</g>
<g class="st1">
	<path class="st2" d="M41.9,104.6h-1.4V91.3h1.4V104.6z"/>
	<path class="st2" d="M51.3,104.6h-1.4v-1.4l0,0c-0.6,1.1-1.5,1.6-2.8,1.6c-0.9,0-1.6-0.2-2.1-0.7s-0.8-1.1-0.8-1.9
		c0-1.7,1-2.7,3-2.9l2.7-0.4c0-1.5-0.6-2.3-1.9-2.3c-1.1,0-2.1,0.4-2.9,1.1v-1.5c0.9-0.6,1.9-0.8,3.1-0.8c2.1,0,3.2,1.1,3.2,3.4
		L51.3,104.6L51.3,104.6z M49.8,100l-2.2,0.3c-0.7,0.1-1.2,0.3-1.5,0.5s-0.5,0.7-0.5,1.3c0,0.4,0.2,0.8,0.5,1.1
		c0.3,0.3,0.7,0.4,1.3,0.4c0.7,0,1.3-0.2,1.8-0.8c0.5-0.5,0.7-1.1,0.7-1.9L49.8,100L49.8,100z"/>
	<path class="st2" d="M65,104.2c-0.7,0.4-1.5,0.6-2.5,0.6c-1.3,0-2.3-0.4-3.1-1.3c-0.8-0.8-1.2-1.9-1.2-3.2c0-1.5,0.4-2.7,1.3-3.6
		s2-1.3,3.4-1.3c0.8,0,1.5,0.1,2.1,0.4v1.5c-0.7-0.5-1.4-0.7-2.1-0.7c-0.9,0-1.7,0.3-2.3,1s-0.9,1.5-0.9,2.6s0.3,1.9,0.8,2.5
		s1.3,0.9,2.2,0.9c0.8,0,1.5-0.3,2.2-0.8L65,104.2L65,104.2z"/>
	<path class="st2" d="M68.7,104.6h-1.4V91.3h1.4V104.6z"/>
	<path class="st2" d="M78,104.6h-1.4v-1.4l0,0c-0.6,1.1-1.5,1.6-2.8,1.6c-0.9,0-1.6-0.2-2.1-0.7s-0.8-1.1-0.8-1.9c0-1.7,1-2.7,3-2.9
		l2.7-0.4c0-1.5-0.6-2.3-1.9-2.3c-1.1,0-2.1,0.4-2.9,1.1v-1.5c0.9-0.6,1.9-0.8,3.1-0.8c2.1,0,3.2,1.1,3.2,3.4L78,104.6L78,104.6z
		 M76.6,100l-2.2,0.3c-0.7,0.1-1.2,0.3-1.5,0.5s-0.5,0.7-0.5,1.3c0,0.4,0.2,0.8,0.5,1.1c0.3,0.3,0.7,0.4,1.3,0.4
		c0.7,0,1.3-0.2,1.8-0.8c0.5-0.5,0.7-1.1,0.7-1.9V100H76.6z"/>
	<path class="st2" d="M80.2,104.3v-1.5c0.8,0.6,1.6,0.9,2.6,0.9c1.3,0,1.9-0.4,1.9-1.3c0-0.2-0.1-0.4-0.2-0.6s-0.3-0.3-0.4-0.4
		s-0.4-0.2-0.7-0.3c-0.2-0.1-0.5-0.2-0.8-0.3c-0.4-0.2-0.7-0.3-1.1-0.5s-0.6-0.3-0.8-0.5c-0.2-0.2-0.4-0.4-0.5-0.7S80,98.5,80,98.2
		c0-0.4,0.1-0.8,0.3-1.1c0.2-0.3,0.5-0.6,0.8-0.8c0.3-0.2,0.7-0.4,1.1-0.5s0.8-0.2,1.3-0.2c0.8,0,1.5,0.1,2.1,0.4v1.5
		c-0.7-0.4-1.4-0.7-2.3-0.7c-0.3,0-0.5,0-0.7,0.1S82.2,97,82,97.2s-0.3,0.2-0.4,0.4s-0.1,0.3-0.1,0.5s0,0.4,0.1,0.6s0.2,0.3,0.4,0.4
		s0.4,0.2,0.6,0.3s0.5,0.2,0.8,0.3c0.4,0.2,0.8,0.3,1.1,0.5s0.6,0.3,0.8,0.5c0.2,0.2,0.4,0.4,0.5,0.7s0.2,0.6,0.2,0.9
		c0,0.4-0.1,0.8-0.3,1.2s-0.5,0.6-0.8,0.8s-0.7,0.4-1.1,0.5s-0.9,0.2-1.3,0.2C81.7,104.8,80.9,104.6,80.2,104.3z"/>
	<path class="st2" d="M95.6,100.4h-6.4c0,1,0.3,1.8,0.8,2.3s1.2,0.8,2.1,0.8c1,0,1.9-0.3,2.8-1v1.4c-0.8,0.6-1.8,0.9-3.1,0.9
		c-1.3,0-2.3-0.4-3-1.2c-0.7-0.8-1.1-2-1.1-3.4s0.4-2.5,1.2-3.4c0.8-0.9,1.8-1.3,3-1.3s2.1,0.4,2.7,1.1s1,1.8,1,3.2V100.4z
		 M94.1,99.2c0-0.8-0.2-1.5-0.6-1.9s-0.9-0.7-1.6-0.7s-1.3,0.2-1.7,0.7s-0.8,1.1-0.9,1.9H94.1z"/>
	<path class="st2" d="M110.4,104.6H109V103l0,0c-0.7,1.2-1.7,1.7-3.1,1.7c-1.1,0-2-0.4-2.7-1.2c-0.7-0.8-1-1.9-1-3.3
		c0-1.5,0.4-2.7,1.1-3.6s1.7-1.3,3-1.3c1.2,0,2.1,0.5,2.7,1.5l0,0v-5.6h1.4V104.6z M109,100.5v-1.3c0-0.7-0.2-1.3-0.7-1.8
		s-1.1-0.8-1.8-0.8c-0.9,0-1.6,0.3-2.1,1s-0.8,1.5-0.8,2.7c0,1,0.2,1.9,0.7,2.5s1.1,0.9,1.9,0.9s1.5-0.3,2-0.9S109,101.4,109,100.5z
		"/>
	<path class="st2" d="M120.6,100.4h-6.4c0,1,0.3,1.8,0.8,2.3s1.2,0.8,2.1,0.8c1,0,1.9-0.3,2.8-1v1.4c-0.8,0.6-1.8,0.9-3.1,0.9
		c-1.3,0-2.3-0.4-3-1.2c-0.7-0.8-1.1-2-1.1-3.4s0.4-2.5,1.2-3.4c0.8-0.9,1.8-1.3,3-1.3s2.1,0.4,2.7,1.1s1,1.8,1,3.2V100.4z
		 M119.1,99.2c0-0.8-0.2-1.5-0.6-1.9s-0.9-0.7-1.6-0.7s-1.3,0.2-1.7,0.7s-0.8,1.1-0.9,1.9H119.1z"/>
	<path class="st2" d="M132.4,97c-0.3-0.2-0.6-0.3-1.1-0.3c-0.6,0-1.1,0.3-1.5,0.9s-0.6,1.4-0.6,2.4v4.6h-1.4v-9h1.4v1.9l0,0
		c0.2-0.6,0.5-1.1,0.9-1.5s0.9-0.5,1.4-0.5c0.4,0,0.7,0,0.9,0.1L132.4,97L132.4,97z"/>
	<path class="st2" d="M141.2,100.4h-6.4c0,1,0.3,1.8,0.8,2.3s1.2,0.8,2.1,0.8c1,0,1.9-0.3,2.8-1v1.4c-0.8,0.6-1.8,0.9-3.1,0.9
		s-2.3-0.4-3-1.2c-0.7-0.8-1.1-2-1.1-3.4s0.4-2.5,1.2-3.4s1.8-1.3,3-1.3s2.1,0.4,2.7,1.1s1,1.8,1,3.2V100.4z M139.7,99.2
		c0-0.8-0.2-1.5-0.6-1.9s-0.9-0.7-1.6-0.7c-0.7,0-1.3,0.2-1.7,0.7s-0.8,1.1-0.9,1.9H139.7z"/>
	<path class="st2" d="M142.8,104.3v-1.5c0.8,0.6,1.6,0.9,2.6,0.9c1.3,0,1.9-0.4,1.9-1.3c0-0.2-0.1-0.4-0.2-0.6
		c-0.1-0.2-0.3-0.3-0.4-0.4s-0.4-0.2-0.7-0.3c-0.2-0.1-0.5-0.2-0.8-0.3c-0.4-0.2-0.7-0.3-1.1-0.5s-0.6-0.3-0.8-0.5s-0.4-0.4-0.5-0.7
		s-0.2-0.6-0.2-0.9c0-0.4,0.1-0.8,0.3-1.1c0.2-0.3,0.5-0.6,0.8-0.8c0.3-0.2,0.7-0.4,1.1-0.5s0.8-0.2,1.3-0.2c0.8,0,1.5,0.1,2.1,0.4
		v1.5c-0.7-0.4-1.4-0.7-2.3-0.7c-0.3,0-0.5,0-0.7,0.1s-0.4,0.1-0.6,0.3s-0.3,0.2-0.4,0.4s-0.1,0.3-0.1,0.5s0,0.4,0.1,0.6
		s0.2,0.3,0.4,0.4s0.4,0.2,0.6,0.3s0.5,0.2,0.8,0.3c0.4,0.2,0.8,0.3,1.1,0.5s0.6,0.3,0.8,0.5s0.4,0.4,0.5,0.7s0.2,0.6,0.2,0.9
		c0,0.4-0.1,0.8-0.3,1.2s-0.5,0.6-0.8,0.8s-0.7,0.4-1.1,0.5s-0.9,0.2-1.3,0.2C144.3,104.8,143.5,104.6,142.8,104.3z"/>
	<path class="st2" d="M151.7,93.3c-0.3,0-0.5-0.1-0.7-0.3s-0.3-0.4-0.3-0.7s0.1-0.5,0.3-0.7s0.4-0.3,0.7-0.3s0.5,0.1,0.7,0.3
		s0.3,0.4,0.3,0.7c0,0.3-0.1,0.5-0.3,0.7S152,93.3,151.7,93.3z M152.4,104.6H151v-9h1.4V104.6z"/>
	<path class="st2" d="M163,104.6h-1.4V103l0,0c-0.7,1.2-1.7,1.7-3.1,1.7c-1.1,0-2-0.4-2.7-1.2c-0.7-0.8-1-1.9-1-3.3
		c0-1.5,0.4-2.7,1.1-3.6s1.7-1.3,3-1.3c1.2,0,2.1,0.5,2.7,1.5l0,0v-5.6h1.4V104.6z M161.6,100.5v-1.3c0-0.7-0.2-1.3-0.7-1.8
		s-1.1-0.8-1.8-0.8c-0.9,0-1.6,0.3-2.1,1s-0.8,1.5-0.8,2.7c0,1,0.2,1.9,0.7,2.5s1.1,0.9,1.9,0.9c0.8,0,1.5-0.3,2-0.9
		S161.6,101.4,161.6,100.5z"/>
	<path class="st2" d="M173.2,104.6h-1.4v-1.4l0,0c-0.6,1.1-1.5,1.6-2.8,1.6c-2.1,0-3.2-1.3-3.2-3.8v-5.4h1.4v5.2
		c0,1.9,0.7,2.8,2.2,2.8c0.7,0,1.3-0.3,1.7-0.8c0.5-0.5,0.7-1.2,0.7-2v-5.2h1.4L173.2,104.6L173.2,104.6z"/>
	<path class="st2" d="M179.9,104.8c-1.3,0-2.4-0.4-3.2-1.3c-0.8-0.8-1.2-2-1.2-3.3c0-1.5,0.4-2.7,1.2-3.5s1.9-1.3,3.3-1.3
		c1.3,0,2.4,0.4,3.1,1.2s1.1,2,1.1,3.4s-0.4,2.6-1.2,3.4C182.3,104.4,181.2,104.8,179.9,104.8z M180,96.6c-0.9,0-1.7,0.3-2.2,0.9
		s-0.8,1.5-0.8,2.6s0.3,1.9,0.8,2.5s1.3,0.9,2.2,0.9s1.6-0.3,2.1-0.9s0.8-1.5,0.8-2.6s-0.3-2-0.8-2.6S180.9,96.6,180,96.6z"/>
	<path class="st2" d="M187.2,104.8c-0.3,0-0.5-0.1-0.7-0.3s-0.3-0.4-0.3-0.7s0.1-0.5,0.3-0.7s0.4-0.3,0.7-0.3s0.5,0.1,0.7,0.3
		c0.2,0.2,0.3,0.4,0.3,0.7s-0.1,0.5-0.3,0.7S187.4,104.8,187.2,104.8z"/>
</g>
<g class="st1">
	<path class="st2" d="M353.7,80.6h-1.8l-2.1-3.5c-0.2-0.3-0.4-0.6-0.6-0.8c-0.2-0.2-0.4-0.4-0.6-0.6c-0.2-0.1-0.4-0.3-0.6-0.3
		c-0.2-0.1-0.5-0.1-0.7-0.1h-1.2v5.4h-1.5V68h3.8c0.6,0,1.1,0.1,1.5,0.2c0.5,0.1,0.9,0.3,1.2,0.6c0.3,0.3,0.6,0.6,0.8,1
		c0.2,0.4,0.3,0.9,0.3,1.5c0,0.4-0.1,0.8-0.2,1.2c-0.1,0.4-0.3,0.7-0.6,1c-0.2,0.3-0.5,0.5-0.9,0.7c-0.3,0.2-0.7,0.4-1.2,0.5l0,0
		c0.2,0.1,0.4,0.2,0.5,0.3c0.2,0.1,0.3,0.3,0.4,0.4s0.3,0.4,0.4,0.6s0.3,0.5,0.5,0.7L353.7,80.6z M346.1,69.3v4.6h2
		c0.4,0,0.7-0.1,1-0.2s0.6-0.3,0.8-0.5c0.2-0.2,0.4-0.5,0.5-0.8s0.2-0.6,0.2-1c0-0.7-0.2-1.2-0.7-1.6c-0.4-0.4-1.1-0.6-1.9-0.6
		L346.1,69.3L346.1,69.3z"/>
	<path class="st2" d="M361.9,76.4h-6.4c0,1,0.3,1.8,0.8,2.3s1.2,0.8,2.1,0.8c1,0,1.9-0.3,2.8-1v1.4c-0.8,0.6-1.8,0.9-3.1,0.9
		c-1.3,0-2.3-0.4-3-1.2c-0.7-0.8-1.1-2-1.1-3.4s0.4-2.5,1.2-3.4c0.8-0.9,1.8-1.3,3-1.3s2.1,0.4,2.7,1.1s1,1.8,1,3.2V76.4z
		 M360.5,75.2c0-0.8-0.2-1.5-0.6-1.9c-0.4-0.5-0.9-0.7-1.6-0.7s-1.3,0.2-1.7,0.7s-0.8,1.1-0.9,1.9H360.5z"/>
	<path class="st2" d="M370.2,80.2c-0.7,0.4-1.5,0.6-2.5,0.6c-1.3,0-2.3-0.4-3.1-1.3c-0.8-0.8-1.2-1.9-1.2-3.2c0-1.5,0.4-2.7,1.3-3.6
		s2-1.3,3.4-1.3c0.8,0,1.5,0.1,2.1,0.4v1.5c-0.7-0.5-1.4-0.7-2.1-0.7c-0.9,0-1.7,0.3-2.3,1c-0.6,0.7-0.9,1.5-0.9,2.6
		s0.3,1.9,0.8,2.5c0.6,0.6,1.3,0.9,2.2,0.9c0.8,0,1.5-0.3,2.2-0.8v1.4H370.2z"/>
	<path class="st2" d="M373.2,69.3c-0.3,0-0.5-0.1-0.7-0.3s-0.3-0.4-0.3-0.7s0.1-0.5,0.3-0.7s0.4-0.3,0.7-0.3c0.3,0,0.5,0.1,0.7,0.3
		c0.2,0.2,0.3,0.4,0.3,0.7c0,0.3-0.1,0.5-0.3,0.7C373.7,69.2,373.4,69.3,373.2,69.3z M373.9,80.6h-1.4v-9h1.4V80.6z"/>
	<path class="st2" d="M378.3,79.3L378.3,79.3v5.4h-1.4V71.6h1.4v1.6l0,0c0.7-1.2,1.7-1.8,3.1-1.8c1.2,0,2.1,0.4,2.7,1.2s1,1.9,1,3.2
		c0,1.5-0.4,2.7-1.1,3.6s-1.7,1.4-3,1.4C379.8,80.8,378.9,80.3,378.3,79.3z M378.2,75.6v1.3c0,0.7,0.2,1.4,0.7,1.9s1.1,0.8,1.8,0.8
		c0.9,0,1.6-0.3,2.1-1s0.7-1.6,0.7-2.8c0-1-0.2-1.8-0.7-2.4s-1.1-0.9-1.9-0.9s-1.5,0.3-2,0.9S378.2,74.8,378.2,75.6z"/>
	<path class="st2" d="M388.1,69.3c-0.3,0-0.5-0.1-0.7-0.3s-0.3-0.4-0.3-0.7s0.1-0.5,0.3-0.7s0.4-0.3,0.7-0.3c0.3,0,0.5,0.1,0.7,0.3
		c0.2,0.2,0.3,0.4,0.3,0.7c0,0.3-0.1,0.5-0.3,0.7C388.6,69.2,388.4,69.3,388.1,69.3z M388.8,80.6h-1.4v-9h1.4V80.6z"/>
	<path class="st2" d="M399,76.4h-6.4c0,1,0.3,1.8,0.8,2.3s1.2,0.8,2.1,0.8c1,0,1.9-0.3,2.8-1v1.4c-0.8,0.6-1.8,0.9-3.1,0.9
		c-1.3,0-2.3-0.4-3-1.2c-0.7-0.8-1.1-2-1.1-3.4s0.4-2.5,1.2-3.4c0.8-0.9,1.8-1.3,3-1.3s2.1,0.4,2.7,1.1s1,1.8,1,3.2V76.4z
		 M397.5,75.2c0-0.8-0.2-1.5-0.6-1.9c-0.4-0.5-0.9-0.7-1.6-0.7s-1.3,0.2-1.7,0.7s-0.8,1.1-0.9,1.9H397.5z"/>
	<path class="st2" d="M408.6,80.6h-1.4v-5.1c0-1.9-0.7-2.9-2.1-2.9c-0.7,0-1.3,0.3-1.8,0.8s-0.7,1.2-0.7,2.1v5.1h-1.4v-9h1.4v1.5
		l0,0c0.7-1.1,1.7-1.7,3-1.7c1,0,1.7,0.3,2.3,1c0.5,0.6,0.8,1.6,0.8,2.8L408.6,80.6L408.6,80.6z"/>
	<path class="st2" d="M415.5,80.5c-0.3,0.2-0.8,0.3-1.3,0.3c-1.6,0-2.4-0.9-2.4-2.6v-5.3h-1.5v-1.2h1.5v-2.2l1.4-0.5v2.7h2.3v1.2
		h-2.3V78c0,0.6,0.1,1,0.3,1.3s0.5,0.4,1,0.4c0.4,0,0.7-0.1,0.9-0.3v1.1H415.5z"/>
	<path class="st2" d="M424.7,76.4h-6.4c0,1,0.3,1.8,0.8,2.3s1.2,0.8,2.1,0.8c1,0,1.9-0.3,2.8-1v1.4c-0.8,0.6-1.8,0.9-3.1,0.9
		c-1.3,0-2.3-0.4-3-1.2c-0.7-0.8-1.1-2-1.1-3.4s0.4-2.5,1.2-3.4c0.8-0.9,1.8-1.3,3-1.3s2.1,0.4,2.7,1.1s1,1.8,1,3.2V76.4z
		 M423.2,75.2c0-0.8-0.2-1.5-0.6-1.9c-0.4-0.5-0.9-0.7-1.6-0.7s-1.3,0.2-1.7,0.7s-0.8,1.1-0.9,1.9H423.2z"/>
	<path class="st2" d="M426.3,80.3v-1.5c0.8,0.6,1.6,0.9,2.6,0.9c1.3,0,1.9-0.4,1.9-1.3c0-0.2-0.1-0.4-0.2-0.6s-0.3-0.3-0.4-0.4
		c-0.2-0.1-0.4-0.2-0.7-0.3c-0.2-0.1-0.5-0.2-0.8-0.3c-0.4-0.2-0.7-0.3-1.1-0.5c-0.3-0.2-0.6-0.3-0.8-0.5c-0.2-0.2-0.4-0.4-0.5-0.7
		c-0.1-0.3-0.2-0.6-0.2-0.9c0-0.4,0.1-0.8,0.3-1.1c0.2-0.3,0.5-0.6,0.8-0.8c0.3-0.2,0.7-0.4,1.1-0.5s0.8-0.2,1.3-0.2
		c0.8,0,1.5,0.1,2.1,0.4v1.5c-0.7-0.4-1.4-0.7-2.3-0.7c-0.3,0-0.5,0-0.7,0.1s-0.4,0.1-0.6,0.3c-0.2,0.1-0.3,0.2-0.4,0.4
		c-0.1,0.2-0.1,0.3-0.1,0.5s0,0.4,0.1,0.6s0.2,0.3,0.4,0.4s0.4,0.2,0.6,0.3s0.5,0.2,0.8,0.3c0.4,0.2,0.8,0.3,1.1,0.5
		s0.6,0.3,0.8,0.5c0.2,0.2,0.4,0.4,0.5,0.7c0.1,0.3,0.2,0.6,0.2,0.9c0,0.4-0.1,0.8-0.3,1.2c-0.2,0.3-0.5,0.6-0.8,0.8
		s-0.7,0.4-1.1,0.5S429,81,428.6,81C427.8,80.8,427,80.6,426.3,80.3z"/>
	<path class="st2" d="M447.1,80.6h-1.4V79l0,0c-0.7,1.2-1.7,1.7-3.1,1.7c-1.1,0-2-0.4-2.7-1.2c-0.7-0.8-1-1.9-1-3.3
		c0-1.5,0.4-2.7,1.1-3.6s1.7-1.3,3-1.3c1.2,0,2.1,0.5,2.7,1.5l0,0v-5.6h1.4V80.6z M445.6,76.5v-1.3c0-0.7-0.2-1.3-0.7-1.8
		s-1.1-0.8-1.8-0.8c-0.9,0-1.6,0.3-2.1,1s-0.8,1.5-0.8,2.7c0,1,0.2,1.9,0.7,2.5s1.1,0.9,1.9,0.9s1.5-0.3,2-0.9
		C445.4,78.1,445.6,77.4,445.6,76.5z"/>
	<path class="st2" d="M457.2,76.4h-6.4c0,1,0.3,1.8,0.8,2.3s1.2,0.8,2.1,0.8c1,0,1.9-0.3,2.8-1v1.4c-0.8,0.6-1.8,0.9-3.1,0.9
		c-1.3,0-2.3-0.4-3-1.2c-0.7-0.8-1.1-2-1.1-3.4s0.4-2.5,1.2-3.4c0.8-0.9,1.8-1.3,3-1.3s2.1,0.4,2.7,1.1s1,1.8,1,3.2V76.4z
		 M455.8,75.2c0-0.8-0.2-1.5-0.6-1.9c-0.4-0.5-0.9-0.7-1.6-0.7s-1.3,0.2-1.7,0.7s-0.8,1.1-0.9,1.9H455.8z"/>
	<path class="st2" d="M465.8,79.3L465.8,79.3v1.3h-1.4V67.3h1.4v5.9l0,0c0.7-1.2,1.7-1.8,3.1-1.8c1.2,0,2.1,0.4,2.7,1.2
		c0.7,0.8,1,1.9,1,3.2c0,1.5-0.4,2.7-1.1,3.6s-1.7,1.4-3,1.4C467.3,80.8,466.4,80.3,465.8,79.3z M465.8,75.6v1.3
		c0,0.7,0.2,1.4,0.7,1.9s1.1,0.8,1.8,0.8c0.9,0,1.6-0.3,2.1-1s0.7-1.6,0.7-2.8c0-1-0.2-1.8-0.7-2.4s-1.1-0.9-1.9-0.9s-1.5,0.3-2,0.9
		S465.8,74.8,465.8,75.6z"/>
	<path class="st2" d="M478.7,80.8c-1.3,0-2.4-0.4-3.2-1.3c-0.8-0.8-1.2-2-1.2-3.3c0-1.5,0.4-2.7,1.2-3.5s1.9-1.3,3.3-1.3
		c1.3,0,2.4,0.4,3.1,1.2c0.8,0.8,1.1,2,1.1,3.4s-0.4,2.6-1.2,3.4C481.1,80.4,480.1,80.8,478.7,80.8z M478.8,72.6
		c-0.9,0-1.7,0.3-2.2,0.9s-0.8,1.5-0.8,2.6s0.3,1.9,0.8,2.5s1.3,0.9,2.2,0.9c0.9,0,1.6-0.3,2.1-0.9s0.8-1.5,0.8-2.6s-0.3-2-0.8-2.6
		C480.4,72.9,479.7,72.6,478.8,72.6z"/>
	<path class="st2" d="M491.6,80.2c-0.7,0.4-1.5,0.6-2.5,0.6c-1.3,0-2.3-0.4-3.1-1.3c-0.8-0.8-1.2-1.9-1.2-3.2c0-1.5,0.4-2.7,1.3-3.6
		s2-1.3,3.4-1.3c0.8,0,1.5,0.1,2.1,0.4v1.5c-0.7-0.5-1.4-0.7-2.1-0.7c-0.9,0-1.7,0.3-2.3,1c-0.6,0.7-0.9,1.5-0.9,2.6
		s0.3,1.9,0.8,2.5c0.6,0.6,1.3,0.9,2.2,0.9c0.8,0,1.5-0.3,2.2-0.8v1.4H491.6z"/>
	<path class="st2" d="M500.2,80.6h-1.4v-1.4l0,0c-0.6,1.1-1.5,1.6-2.8,1.6c-0.9,0-1.6-0.2-2.1-0.7s-0.8-1.1-0.8-1.9
		c0-1.7,1-2.7,3-2.9l2.7-0.4c0-1.5-0.6-2.3-1.9-2.3c-1.1,0-2.1,0.4-2.9,1.1v-1.5c0.9-0.6,1.9-0.8,3.1-0.8c2.1,0,3.2,1.1,3.2,3.4v5.8
		C500.3,80.6,500.2,80.6,500.2,80.6z M498.8,76l-2.2,0.3c-0.7,0.1-1.2,0.3-1.5,0.5s-0.5,0.7-0.5,1.3c0,0.4,0.2,0.8,0.5,1.1
		c0.3,0.3,0.7,0.4,1.3,0.4c0.7,0,1.3-0.2,1.8-0.8c0.5-0.5,0.7-1.1,0.7-1.9L498.8,76L498.8,76z"/>
</g>
<g class="st1">
	<path class="st2" d="M350.9,104.6h-1.4v-1.4l0,0c-0.6,1.1-1.5,1.6-2.8,1.6c-0.9,0-1.6-0.2-2.1-0.7s-0.8-1.1-0.8-1.9
		c0-1.7,1-2.7,3-2.9l2.7-0.4c0-1.5-0.6-2.3-1.9-2.3c-1.1,0-2.1,0.4-2.9,1.1v-1.5c0.9-0.6,1.9-0.8,3.1-0.8c2.1,0,3.2,1.1,3.2,3.4v5.8
		C351,104.6,350.9,104.6,350.9,104.6z M349.5,100l-2.2,0.3c-0.7,0.1-1.2,0.3-1.5,0.5s-0.5,0.7-0.5,1.3c0,0.4,0.2,0.8,0.5,1.1
		c0.3,0.3,0.7,0.4,1.3,0.4c0.7,0,1.3-0.2,1.8-0.8c0.5-0.5,0.7-1.1,0.7-1.9L349.5,100L349.5,100z"/>
	<path class="st2" d="M361.1,104.6h-1.4v-5.1c0-1.9-0.7-2.9-2.1-2.9c-0.7,0-1.3,0.3-1.8,0.8s-0.7,1.2-0.7,2.1v5.1h-1.4v-9h1.4v1.5
		l0,0c0.7-1.1,1.7-1.7,3-1.7c1,0,1.7,0.3,2.3,1c0.5,0.6,0.8,1.6,0.8,2.8L361.1,104.6L361.1,104.6z"/>
	<path class="st2" d="M369.9,104.2c-0.7,0.4-1.5,0.6-2.5,0.6c-1.3,0-2.3-0.4-3.1-1.3c-0.8-0.8-1.2-1.9-1.2-3.2
		c0-1.5,0.4-2.7,1.3-3.6s2-1.3,3.4-1.3c0.8,0,1.5,0.1,2.1,0.4v1.5c-0.7-0.5-1.4-0.7-2.1-0.7c-0.9,0-1.7,0.3-2.3,1
		c-0.6,0.7-0.9,1.5-0.9,2.6s0.3,1.9,0.8,2.5c0.6,0.6,1.3,0.9,2.2,0.9c0.8,0,1.5-0.3,2.2-0.8v1.4H369.9z"/>
	<path class="st2" d="M379.6,104.6h-1.4v-5.2c0-1.9-0.7-2.8-2.1-2.8c-0.7,0-1.3,0.3-1.8,0.8s-0.7,1.2-0.7,2.1v5.1h-1.4V91.3h1.4v5.8
		l0,0c0.7-1.1,1.7-1.7,3-1.7c2,0,3,1.2,3,3.7V104.6z"/>
	<path class="st2" d="M388.7,104.6h-1.4v-1.4l0,0c-0.6,1.1-1.5,1.6-2.8,1.6c-0.9,0-1.6-0.2-2.1-0.7s-0.8-1.1-0.8-1.9
		c0-1.7,1-2.7,3-2.9l2.7-0.4c0-1.5-0.6-2.3-1.9-2.3c-1.1,0-2.1,0.4-2.9,1.1v-1.5c0.9-0.6,1.9-0.8,3.1-0.8c2.1,0,3.2,1.1,3.2,3.4v5.8
		C388.8,104.6,388.7,104.6,388.7,104.6z M387.3,100l-2.2,0.3c-0.7,0.1-1.2,0.3-1.5,0.5s-0.5,0.7-0.5,1.3c0,0.4,0.2,0.8,0.5,1.1
		c0.3,0.3,0.7,0.4,1.3,0.4c0.7,0,1.3-0.2,1.8-0.8c0.5-0.5,0.7-1.1,0.7-1.9L387.3,100L387.3,100z"/>
	<path class="st2" d="M392,104.8c-0.3,0-0.5-0.1-0.7-0.3c-0.2-0.2-0.3-0.4-0.3-0.7s0.1-0.5,0.3-0.7c0.2-0.2,0.4-0.3,0.7-0.3
		c0.3,0,0.5,0.1,0.7,0.3c0.2,0.2,0.3,0.4,0.3,0.7s-0.1,0.5-0.3,0.7S392.2,104.8,392,104.8z"/>
</g>
<rect id="Rectngulo_2972" class="st3" width="572.7" height="46.2"/>
<rect id="Rectngulo_2973" y="128.6" class="st3" width="572.7" height="46.2"/>
<rect id="Rectngulo_2974" y="256.3" class="st3" width="572.7" height="46.2"/>
<g>
	<path class="st4" d="M71.9,24.3v4.3h-2.8V16.1h4.4c3.2,0,4.8,1.3,4.8,4c0,1.3-0.5,2.3-1.4,3.1s-2.1,1.2-3.7,1.2L71.9,24.3
		L71.9,24.3z M71.9,18.3v3.9H73c1.5,0,2.3-0.7,2.3-2s-0.8-1.9-2.3-1.9H71.9z"/>
	<path class="st4" d="M86.9,28.7h-2.6v-1.3l0,0c-0.6,1-1.5,1.5-2.7,1.5c-0.9,0-1.6-0.2-2.1-0.7s-0.8-1.2-0.8-2c0-1.7,1-2.8,3.1-3
		l2.4-0.3c0-1-0.5-1.5-1.6-1.5s-2.1,0.3-3.1,1v-2.1c0.4-0.2,0.9-0.4,1.6-0.5s1.3-0.2,1.8-0.2c2.6,0,3.8,1.3,3.8,3.8v5.3H86.9z
		 M84.3,25v-0.6l-1.6,0.2c-0.9,0.1-1.4,0.5-1.4,1.2c0,0.3,0.1,0.6,0.3,0.8c0.2,0.2,0.5,0.3,0.9,0.3c0.5,0,0.9-0.2,1.3-0.5
		C84.1,26,84.3,25.6,84.3,25z"/>
	<path class="st4" d="M95,22.2c-0.3-0.2-0.7-0.3-1.2-0.3c-0.6,0-1.1,0.2-1.4,0.7s-0.5,1-0.5,1.8v4.3h-2.8v-9h2.8v1.7l0,0
		c0.4-1.2,1.2-1.8,2.4-1.8c0.3,0,0.5,0,0.7,0.1V22.2z"/>
	<path class="st4" d="M104.3,25h-5.9c0.1,1.3,0.9,2,2.5,2c1,0,1.9-0.2,2.6-0.7v2c-0.8,0.4-1.9,0.7-3.2,0.7c-1.5,0-2.6-0.4-3.4-1.2
		c-0.8-0.8-1.2-1.9-1.2-3.4s0.4-2.7,1.3-3.6s1.9-1.3,3.2-1.3c1.3,0,2.3,0.4,3,1.2c0.7,0.8,1.1,1.8,1.1,3.2V25z M101.7,23.3
		c0-1.3-0.5-1.9-1.6-1.9c-0.4,0-0.8,0.2-1.2,0.6c-0.4,0.4-0.5,0.8-0.6,1.4L101.7,23.3L101.7,23.3z"/>
	<path class="st4" d="M114.7,28.7H112v-1.2l0,0c-0.6,1-1.6,1.5-2.8,1.5c-1.1,0-2-0.4-2.7-1.2c-0.7-0.8-1-1.9-1-3.3
		c0-1.5,0.4-2.7,1.1-3.6s1.7-1.3,3-1.3c1.2,0,2,0.4,2.4,1.2l0,0v-5.4h2.8v13.3H114.7z M112,24.3v-0.7c0-0.6-0.2-1.1-0.5-1.5
		s-0.8-0.6-1.3-0.6c-0.6,0-1.1,0.2-1.4,0.7s-0.5,1.1-0.5,2c0,0.8,0.2,1.4,0.5,1.8s0.8,0.6,1.4,0.6s1-0.2,1.4-0.7S112,25,112,24.3z"
		/>
	<path class="st4" d="M125.2,25h-5.9c0.1,1.3,0.9,2,2.5,2c1,0,1.9-0.2,2.6-0.7v2c-0.8,0.4-1.9,0.7-3.2,0.7c-1.5,0-2.6-0.4-3.4-1.2
		c-0.8-0.8-1.2-1.9-1.2-3.4s0.4-2.7,1.3-3.6s1.9-1.3,3.2-1.3c1.3,0,2.3,0.4,3,1.2c0.7,0.8,1.1,1.8,1.1,3.2V25z M122.6,23.3
		c0-1.3-0.5-1.9-1.6-1.9c-0.4,0-0.8,0.2-1.2,0.6c-0.4,0.4-0.5,0.8-0.6,1.4L122.6,23.3L122.6,23.3z"/>
	<path class="st4" d="M126.2,28.4v-2.2c0.5,0.3,0.9,0.5,1.4,0.6c0.5,0.1,0.9,0.2,1.3,0.2c0.5,0,0.9-0.1,1.2-0.2s0.4-0.3,0.4-0.6
		c0-0.2-0.1-0.3-0.2-0.4c-0.1-0.1-0.3-0.2-0.5-0.3s-0.4-0.2-0.7-0.2s-0.5-0.1-0.7-0.2c-0.4-0.1-0.7-0.3-0.9-0.4
		c-0.3-0.2-0.5-0.3-0.7-0.5s-0.3-0.4-0.4-0.7c-0.1-0.3-0.1-0.6-0.1-1c0-0.5,0.1-0.9,0.3-1.3c0.2-0.4,0.5-0.7,0.9-0.9
		c0.4-0.2,0.8-0.4,1.3-0.5s1-0.2,1.5-0.2c0.4,0,0.8,0,1.2,0.1s0.8,0.2,1.2,0.3v2.1c-0.4-0.2-0.7-0.4-1.1-0.5
		c-0.4-0.1-0.8-0.2-1.2-0.2c-0.2,0-0.4,0-0.5,0s-0.3,0.1-0.4,0.1c-0.1,0.1-0.2,0.1-0.3,0.2s-0.1,0.2-0.1,0.3c0,0.2,0.1,0.3,0.2,0.4
		c0.1,0.1,0.2,0.2,0.4,0.3c0.2,0.1,0.4,0.2,0.6,0.2c0.2,0.1,0.4,0.1,0.6,0.2c0.4,0.1,0.7,0.3,1,0.4s0.6,0.3,0.8,0.5s0.4,0.4,0.5,0.7
		c0.1,0.3,0.2,0.6,0.2,1c0,0.5-0.1,1-0.3,1.4s-0.5,0.7-0.9,0.9s-0.8,0.4-1.3,0.5s-1,0.2-1.6,0.2C128,28.9,127.1,28.7,126.2,28.4z"/>
	<path class="st4" d="M145.6,22.2c-0.3-0.2-0.7-0.3-1.2-0.3c-0.6,0-1.1,0.2-1.4,0.7s-0.5,1-0.5,1.8v4.3h-2.8v-9h2.8v1.7l0,0
		c0.4-1.2,1.2-1.8,2.4-1.8c0.3,0,0.5,0,0.7,0.1V22.2z"/>
	<path class="st4" d="M154.9,25H149c0.1,1.3,0.9,2,2.5,2c1,0,1.9-0.2,2.6-0.7v2c-0.8,0.4-1.9,0.7-3.2,0.7c-1.5,0-2.6-0.4-3.4-1.2
		c-0.8-0.8-1.2-1.9-1.2-3.4s0.4-2.7,1.3-3.6c0.9-0.9,1.9-1.3,3.2-1.3s2.3,0.4,3,1.2c0.7,0.8,1.1,1.8,1.1,3.2L154.9,25L154.9,25z
		 M152.3,23.3c0-1.3-0.5-1.9-1.6-1.9c-0.4,0-0.8,0.2-1.2,0.6s-0.5,0.8-0.6,1.4L152.3,23.3L152.3,23.3z"/>
	<path class="st4" d="M155.9,28.4v-2.2c0.5,0.3,0.9,0.5,1.4,0.6s0.9,0.2,1.3,0.2c0.5,0,0.9-0.1,1.2-0.2s0.4-0.3,0.4-0.6
		c0-0.2-0.1-0.3-0.2-0.4c-0.1-0.1-0.3-0.2-0.5-0.3s-0.4-0.2-0.7-0.2s-0.5-0.1-0.7-0.2c-0.4-0.1-0.7-0.3-0.9-0.4
		c-0.3-0.2-0.5-0.3-0.7-0.5s-0.3-0.4-0.4-0.7c-0.1-0.3-0.1-0.6-0.1-1c0-0.5,0.1-0.9,0.3-1.3s0.5-0.7,0.9-0.9
		c0.4-0.2,0.8-0.4,1.3-0.5s1-0.2,1.5-0.2c0.4,0,0.8,0,1.2,0.1s0.8,0.2,1.2,0.3v2.1c-0.4-0.2-0.7-0.4-1.1-0.5
		c-0.4-0.1-0.8-0.2-1.2-0.2c-0.2,0-0.4,0-0.5,0s-0.3,0.1-0.4,0.1c-0.1,0.1-0.2,0.1-0.3,0.2s-0.1,0.2-0.1,0.3c0,0.2,0.1,0.3,0.2,0.4
		c0.1,0.1,0.2,0.2,0.4,0.3c0.2,0.1,0.4,0.2,0.6,0.2c0.2,0.1,0.4,0.1,0.6,0.2c0.4,0.1,0.7,0.3,1,0.4s0.6,0.3,0.8,0.5s0.4,0.4,0.5,0.7
		c0.1,0.3,0.2,0.6,0.2,1c0,0.5-0.1,1-0.3,1.4s-0.5,0.7-0.9,0.9s-0.8,0.4-1.3,0.5s-1,0.2-1.6,0.2C157.7,28.9,156.8,28.7,155.9,28.4z"
		/>
	<path class="st4" d="M165.9,18.3c-0.5,0-0.9-0.1-1.2-0.4s-0.4-0.6-0.4-1s0.1-0.8,0.4-1c0.3-0.2,0.7-0.4,1.2-0.4s0.9,0.1,1.2,0.4
		s0.4,0.6,0.4,1s-0.1,0.8-0.4,1S166.3,18.3,165.9,18.3z M167.2,28.7h-2.8v-9h2.8V28.7z"/>
	<path class="st4" d="M169,28.4v-2.2c0.5,0.3,0.9,0.5,1.4,0.6s0.9,0.2,1.3,0.2c0.5,0,0.9-0.1,1.2-0.2s0.4-0.3,0.4-0.6
		c0-0.2-0.1-0.3-0.2-0.4c-0.1-0.1-0.3-0.2-0.5-0.3s-0.4-0.2-0.7-0.2s-0.5-0.1-0.7-0.2c-0.4-0.1-0.7-0.3-0.9-0.4
		c-0.3-0.2-0.5-0.3-0.7-0.5s-0.3-0.4-0.4-0.7c-0.1-0.3-0.1-0.6-0.1-1c0-0.5,0.1-0.9,0.3-1.3s0.5-0.7,0.9-0.9
		c0.4-0.2,0.8-0.4,1.3-0.5s1-0.2,1.5-0.2c0.4,0,0.8,0,1.2,0.1s0.8,0.2,1.2,0.3v2.1c-0.4-0.2-0.7-0.4-1.1-0.5
		c-0.4-0.1-0.8-0.2-1.2-0.2c-0.2,0-0.4,0-0.5,0s-0.3,0.1-0.4,0.1c-0.1,0.1-0.2,0.1-0.3,0.2s-0.1,0.2-0.1,0.3c0,0.2,0.1,0.3,0.2,0.4
		c0.1,0.1,0.2,0.2,0.4,0.3c0.2,0.1,0.4,0.2,0.6,0.2c0.2,0.1,0.4,0.1,0.6,0.2c0.4,0.1,0.7,0.3,1,0.4s0.6,0.3,0.8,0.5s0.4,0.4,0.5,0.7
		c0.1,0.3,0.2,0.6,0.2,1c0,0.5-0.1,1-0.3,1.4s-0.5,0.7-0.9,0.9s-0.8,0.4-1.3,0.5s-1,0.2-1.6,0.2C170.7,28.9,169.8,28.7,169,28.4z"/>
	<path class="st4" d="M182.9,28.6c-0.4,0.2-1,0.3-1.9,0.3c-2,0-2.9-1-2.9-3v-4.1h-1.5v-2h1.5v-1.9l2.8-0.8v2.7h2v2h-2v3.6
		c0,0.9,0.4,1.4,1.1,1.4c0.3,0,0.6-0.1,0.9-0.3L182.9,28.6L182.9,28.6z"/>
	<path class="st4" d="M192.5,25h-5.9c0.1,1.3,0.9,2,2.5,2c1,0,1.9-0.2,2.6-0.7v2c-0.8,0.4-1.9,0.7-3.2,0.7c-1.5,0-2.6-0.4-3.4-1.2
		c-0.8-0.8-1.2-1.9-1.2-3.4s0.4-2.7,1.3-3.6c0.9-0.9,1.9-1.3,3.2-1.3s2.3,0.4,3,1.2c0.7,0.8,1.1,1.8,1.1,3.2L192.5,25L192.5,25z
		 M189.9,23.3c0-1.3-0.5-1.9-1.6-1.9c-0.4,0-0.8,0.2-1.2,0.6s-0.5,0.8-0.6,1.4L189.9,23.3L189.9,23.3z"/>
	<path class="st4" d="M202.9,28.7h-2.8v-5c0-1.4-0.5-2.1-1.5-2.1c-0.5,0-0.9,0.2-1.2,0.6s-0.5,0.8-0.5,1.4v5.1h-2.8v-9h2.8v1.4l0,0
		c0.7-1.1,1.6-1.6,2.9-1.6c2,0,3,1.2,3,3.7v5.5H202.9z"/>
	<path class="st4" d="M210.5,28.6c-0.4,0.2-1,0.3-1.9,0.3c-2,0-2.9-1-2.9-3v-4.1h-1.5v-2h1.5v-1.9l2.8-0.8v2.7h2v2h-2v3.6
		c0,0.9,0.4,1.4,1.1,1.4c0.3,0,0.6-0.1,0.9-0.3L210.5,28.6L210.5,28.6z"/>
	<path class="st4" d="M220.1,25h-5.9c0.1,1.3,0.9,2,2.5,2c1,0,1.9-0.2,2.6-0.7v2c-0.8,0.4-1.9,0.7-3.2,0.7c-1.5,0-2.6-0.4-3.4-1.2
		c-0.8-0.8-1.2-1.9-1.2-3.4s0.4-2.7,1.3-3.6c0.9-0.9,1.9-1.3,3.2-1.3s2.3,0.4,3,1.2c0.7,0.8,1.1,1.8,1.1,3.2L220.1,25L220.1,25z
		 M217.5,23.3c0-1.3-0.5-1.9-1.6-1.9c-0.4,0-0.8,0.2-1.2,0.6s-0.5,0.8-0.6,1.4L217.5,23.3L217.5,23.3z"/>
	<path class="st4" d="M221.1,28.4v-2.2c0.5,0.3,0.9,0.5,1.4,0.6s0.9,0.2,1.3,0.2c0.5,0,0.9-0.1,1.2-0.2s0.4-0.3,0.4-0.6
		c0-0.2-0.1-0.3-0.2-0.4c-0.1-0.1-0.3-0.2-0.5-0.3s-0.4-0.2-0.7-0.2s-0.5-0.1-0.7-0.2c-0.4-0.1-0.7-0.3-0.9-0.4
		c-0.3-0.2-0.5-0.3-0.7-0.5s-0.3-0.4-0.4-0.7c-0.1-0.3-0.1-0.6-0.1-1c0-0.5,0.1-0.9,0.3-1.3s0.5-0.7,0.9-0.9
		c0.4-0.2,0.8-0.4,1.3-0.5s1-0.2,1.5-0.2c0.4,0,0.8,0,1.2,0.1s0.8,0.2,1.2,0.3v2.1c-0.4-0.2-0.7-0.4-1.1-0.5
		c-0.4-0.1-0.8-0.2-1.2-0.2c-0.2,0-0.4,0-0.5,0s-0.3,0.1-0.4,0.1c-0.1,0.1-0.2,0.1-0.3,0.2S224,21.9,224,22c0,0.2,0.1,0.3,0.2,0.4
		c0.1,0.1,0.2,0.2,0.4,0.3c0.2,0.1,0.4,0.2,0.6,0.2c0.2,0.1,0.4,0.1,0.6,0.2c0.4,0.1,0.7,0.3,1,0.4s0.6,0.3,0.8,0.5s0.4,0.4,0.5,0.7
		c0.1,0.3,0.2,0.6,0.2,1c0,0.5-0.1,1-0.3,1.4s-0.5,0.7-0.9,0.9s-0.8,0.4-1.3,0.5s-1,0.2-1.6,0.2C222.9,28.9,222,28.7,221.1,28.4z"/>
	<path class="st4" d="M242.1,28.7h-2.6v-1.3l0,0c-0.6,1-1.5,1.5-2.7,1.5c-0.9,0-1.6-0.2-2.1-0.7s-0.8-1.2-0.8-2c0-1.7,1-2.8,3.1-3
		l2.4-0.3c0-1-0.5-1.5-1.6-1.5s-2.1,0.3-3.1,1v-2.1c0.4-0.2,0.9-0.4,1.6-0.5c0.7-0.1,1.3-0.2,1.8-0.2c2.6,0,3.8,1.3,3.8,3.8v5.3
		H242.1z M239.5,25v-0.6l-1.6,0.2c-0.9,0.1-1.4,0.5-1.4,1.2c0,0.3,0.1,0.6,0.3,0.8s0.5,0.3,0.9,0.3c0.5,0,0.9-0.2,1.3-0.5
		C239.3,26,239.5,25.6,239.5,25z"/>
	<path class="st4" d="M252,28.7h-2.8V15.4h2.8V28.7z"/>
	<path class="st4" d="M261.9,28.7h-2.6v-1.3l0,0c-0.6,1-1.5,1.5-2.7,1.5c-0.9,0-1.6-0.2-2.1-0.7s-0.8-1.2-0.8-2c0-1.7,1-2.8,3.1-3
		l2.4-0.3c0-1-0.5-1.5-1.6-1.5s-2.1,0.3-3.1,1v-2.1c0.4-0.2,0.9-0.4,1.6-0.5s1.3-0.2,1.8-0.2c2.6,0,3.8,1.3,3.8,3.8v5.3H261.9z
		 M259.3,25v-0.6l-1.6,0.2c-0.9,0.1-1.4,0.5-1.4,1.2c0,0.3,0.1,0.6,0.3,0.8c0.2,0.2,0.5,0.3,0.9,0.3c0.5,0,0.9-0.2,1.3-0.5
		C259.1,26,259.3,25.6,259.3,25z"/>
	<path class="st4" d="M271.8,27.6L271.8,27.6v5.2H269V19.7h2.8v1.4l0,0c0.7-1,1.6-1.6,2.9-1.6c1.2,0,2.1,0.4,2.7,1.2s1,1.9,1,3.3
		c0,1.5-0.4,2.7-1.1,3.6s-1.7,1.4-3,1.4C273.2,28.9,272.4,28.5,271.8,27.6z M271.8,23.9v0.7c0,0.6,0.2,1.1,0.5,1.5s0.8,0.6,1.3,0.6
		c0.6,0,1.1-0.2,1.5-0.7s0.5-1.2,0.5-2.1c0-1.6-0.6-2.4-1.8-2.4c-0.6,0-1,0.2-1.4,0.6C271.9,22.7,271.8,23.2,271.8,23.9z"/>
	<path class="st4" d="M288.3,25h-5.9c0.1,1.3,0.9,2,2.5,2c1,0,1.9-0.2,2.6-0.7v2c-0.8,0.4-1.9,0.7-3.2,0.7c-1.5,0-2.6-0.4-3.4-1.2
		c-0.8-0.8-1.2-1.9-1.2-3.4s0.4-2.7,1.3-3.6s1.9-1.3,3.2-1.3c1.3,0,2.3,0.4,3,1.2c0.7,0.8,1.1,1.8,1.1,3.2V25z M285.7,23.3
		c0-1.3-0.5-1.9-1.6-1.9c-0.4,0-0.8,0.2-1.2,0.6c-0.4,0.4-0.5,0.8-0.6,1.4L285.7,23.3L285.7,23.3z"/>
	<path class="st4" d="M295.8,22.2c-0.3-0.2-0.7-0.3-1.2-0.3c-0.6,0-1.1,0.2-1.4,0.7s-0.5,1-0.5,1.8v4.3h-2.8v-9h2.8v1.7l0,0
		c0.4-1.2,1.2-1.8,2.4-1.8c0.3,0,0.5,0,0.7,0.1V22.2z"/>
	<path class="st4" d="M303.4,17.5c-0.4-0.1-0.7-0.2-1-0.2c-0.9,0-1.3,0.5-1.3,1.5v1h2.1v2H301v7h-2.8v-7h-1.5v-2h1.5v-1.1
		c0-1,0.3-1.9,1-2.5s1.6-0.9,2.7-0.9c0.6,0,1,0.1,1.4,0.2L303.4,17.5L303.4,17.5z"/>
	<path class="st4" d="M308.7,28.9c-1.5,0-2.7-0.4-3.5-1.3s-1.3-2-1.3-3.4c0-1.5,0.4-2.7,1.3-3.5s2.1-1.3,3.6-1.3s2.7,0.4,3.5,1.3
		c0.8,0.8,1.3,2,1.3,3.3c0,1.5-0.4,2.7-1.3,3.5S310.2,28.9,308.7,28.9z M308.8,21.6c-0.7,0-1.2,0.2-1.5,0.7s-0.5,1.1-0.5,1.9
		c0,1.7,0.7,2.6,2.1,2.6c1.3,0,2-0.9,2-2.7C310.8,22.4,310.1,21.6,308.8,21.6z"/>
	<path class="st4" d="M321.3,22.2c-0.3-0.2-0.7-0.3-1.2-0.3c-0.6,0-1.1,0.2-1.4,0.7s-0.5,1-0.5,1.8v4.3h-2.8v-9h2.8v1.7l0,0
		c0.4-1.2,1.2-1.8,2.4-1.8c0.3,0,0.5,0,0.7,0.1V22.2z"/>
	<path class="st4" d="M330.1,28.7h-2.6v-1.3l0,0c-0.6,1-1.5,1.5-2.7,1.5c-0.9,0-1.6-0.2-2.1-0.7s-0.8-1.2-0.8-2c0-1.7,1-2.8,3.1-3
		l2.4-0.3c0-1-0.5-1.5-1.6-1.5s-2.1,0.3-3.1,1v-2.1c0.4-0.2,0.9-0.4,1.6-0.5s1.3-0.2,1.8-0.2c2.6,0,3.8,1.3,3.8,3.8v5.3H330.1z
		 M327.5,25v-0.6l-1.6,0.2c-0.9,0.1-1.4,0.5-1.4,1.2c0,0.3,0.1,0.6,0.3,0.8c0.2,0.2,0.5,0.3,0.9,0.3c0.5,0,0.9-0.2,1.3-0.5
		C327.3,26,327.5,25.6,327.5,25z"/>
	<path class="st4" d="M339.1,28.4c-0.6,0.4-1.5,0.5-2.7,0.5c-1.4,0-2.5-0.4-3.4-1.3s-1.3-1.9-1.3-3.2c0-1.5,0.5-2.7,1.4-3.6
		s2.1-1.3,3.7-1.3c1.1,0,1.8,0.1,2.3,0.4v2.4c-0.6-0.4-1.2-0.7-1.9-0.7c-0.8,0-1.4,0.2-1.9,0.7s-0.7,1.1-0.7,1.9s0.2,1.4,0.7,1.9
		s1.1,0.7,1.8,0.7c0.7,0,1.4-0.2,2-0.7V28.4z"/>
	<path class="st4" d="M342.3,18.3c-0.5,0-0.9-0.1-1.2-0.4c-0.3-0.3-0.4-0.6-0.4-1s0.1-0.8,0.4-1c0.3-0.2,0.7-0.4,1.2-0.4
		s0.9,0.1,1.2,0.4c0.3,0.3,0.4,0.6,0.4,1s-0.1,0.8-0.4,1S342.8,18.3,342.3,18.3z M343.7,28.7h-2.8v-9h2.8V28.7z"/>
	<path class="st4" d="M350.3,28.9c-1.5,0-2.7-0.4-3.5-1.3s-1.3-2-1.3-3.4c0-1.5,0.4-2.7,1.3-3.5s2.1-1.3,3.6-1.3s2.7,0.4,3.5,1.3
		c0.8,0.8,1.3,2,1.3,3.3c0,1.5-0.4,2.7-1.3,3.5S351.9,28.9,350.3,28.9z M350.4,21.6c-0.7,0-1.2,0.2-1.5,0.7s-0.5,1.1-0.5,1.9
		c0,1.7,0.7,2.6,2.1,2.6c1.3,0,2-0.9,2-2.7C352.4,22.4,351.7,21.6,350.4,21.6z M353.4,15.4l-2.8,2.8h-2l2.3-2.8
		C350.9,15.4,353.4,15.4,353.4,15.4z"/>
	<path class="st4" d="M365.7,28.7H363v-5c0-1.4-0.5-2.1-1.5-2.1c-0.5,0-0.9,0.2-1.2,0.6c-0.3,0.4-0.5,0.8-0.5,1.4v5.1H357v-9h2.8
		v1.4l0,0c0.7-1.1,1.6-1.6,2.9-1.6c2,0,3,1.2,3,3.7L365.7,28.7L365.7,28.7z"/>
	<path class="st4" d="M381.5,19.7l-3.7,9.7c-0.9,2.3-2.2,3.5-4,3.5c-0.7,0-1.2-0.1-1.7-0.2v-2.2c0.4,0.2,0.8,0.3,1.2,0.3
		c0.7,0,1.2-0.3,1.5-1l0.5-1.1l-3.7-9h3.1l1.7,5.5c0.1,0.3,0.2,0.7,0.2,1.2l0,0c0.1-0.3,0.1-0.7,0.3-1.2l1.7-5.5
		C378.6,19.7,381.5,19.7,381.5,19.7z"/>
	<path class="st4" d="M393,28.6c-0.4,0.2-1,0.3-1.9,0.3c-2,0-2.9-1-2.9-3v-4.1h-1.5v-2h1.5v-1.9l2.8-0.8v2.7h2v2h-2v3.6
		c0,0.9,0.4,1.4,1.1,1.4c0.3,0,0.6-0.1,0.9-0.3V28.6z"/>
	<path class="st4" d="M402,28.7h-2.6v-1.3l0,0c-0.6,1-1.5,1.5-2.7,1.5c-0.9,0-1.6-0.2-2.1-0.7s-0.8-1.2-0.8-2c0-1.7,1-2.8,3.1-3
		l2.4-0.3c0-1-0.5-1.5-1.6-1.5s-2.1,0.3-3.1,1v-2.1c0.4-0.2,0.9-0.4,1.6-0.5s1.3-0.2,1.8-0.2c2.6,0,3.8,1.3,3.8,3.8v5.3H402z
		 M399.4,25v-0.6l-1.6,0.2c-0.9,0.1-1.4,0.5-1.4,1.2c0,0.3,0.1,0.6,0.3,0.8c0.2,0.2,0.5,0.3,0.9,0.3c0.5,0,0.9-0.2,1.3-0.5
		C399.3,26,399.4,25.6,399.4,25z"/>
	<path class="st4" d="M407,27.6L407,27.6v5.2h-2.8V19.7h2.8v1.4l0,0c0.7-1,1.6-1.6,2.9-1.6c1.2,0,2.1,0.4,2.7,1.2s1,1.9,1,3.3
		c0,1.5-0.4,2.7-1.1,3.6s-1.7,1.4-3,1.4C408.4,28.9,407.6,28.5,407,27.6z M407,23.9v0.7c0,0.6,0.2,1.1,0.5,1.5s0.8,0.6,1.3,0.6
		c0.6,0,1.1-0.2,1.5-0.7s0.5-1.2,0.5-2.1c0-1.6-0.6-2.4-1.8-2.4c-0.6,0-1,0.2-1.4,0.6C407.1,22.7,407,23.2,407,23.9z"/>
	<path class="st4" d="M422.7,28.7h-2.6v-1.3l0,0c-0.6,1-1.5,1.5-2.7,1.5c-0.9,0-1.6-0.2-2.1-0.7s-0.8-1.2-0.8-2c0-1.7,1-2.8,3.1-3
		l2.4-0.3c0-1-0.5-1.5-1.6-1.5s-2.1,0.3-3.1,1v-2.1c0.4-0.2,0.9-0.4,1.6-0.5s1.3-0.2,1.8-0.2c2.6,0,3.8,1.3,3.8,3.8v5.3H422.7z
		 M420.1,25v-0.6l-1.6,0.2c-0.9,0.1-1.4,0.5-1.4,1.2c0,0.3,0.1,0.6,0.3,0.8c0.2,0.2,0.5,0.3,0.9,0.3c0.5,0,0.9-0.2,1.3-0.5
		C419.9,26,420.1,25.6,420.1,25z"/>
	<path class="st4" d="M437.4,28.7h-2.6v-1.3l0,0c-0.6,1-1.5,1.5-2.7,1.5c-0.9,0-1.6-0.2-2.1-0.7s-0.8-1.2-0.8-2c0-1.7,1-2.8,3.1-3
		l2.4-0.3c0-1-0.5-1.5-1.6-1.5s-2.1,0.3-3.1,1v-2.1c0.4-0.2,0.9-0.4,1.6-0.5s1.3-0.2,1.8-0.2c2.6,0,3.8,1.3,3.8,3.8v5.3H437.4z
		 M434.8,25v-0.6l-1.6,0.2c-0.9,0.1-1.4,0.5-1.4,1.2c0,0.3,0.1,0.6,0.3,0.8c0.2,0.2,0.5,0.3,0.9,0.3c0.5,0,0.9-0.2,1.3-0.5
		C434.6,26,434.8,25.6,434.8,25z"/>
	<path class="st4" d="M442.3,28.5c0,1.3-0.3,2.4-1,3.2c-0.7,0.8-1.6,1.2-2.8,1.2c-0.4,0-0.8-0.1-1.3-0.3v-2.2c0.4,0.2,0.7,0.3,1,0.3
		c0.9,0,1.3-0.7,1.3-2.1v-9.1h2.8V28.5z M441,18.3c-0.5,0-0.9-0.1-1.2-0.4c-0.3-0.3-0.4-0.6-0.4-1s0.1-0.8,0.4-1
		c0.3-0.2,0.7-0.4,1.2-0.4s0.9,0.1,1.2,0.4c0.3,0.3,0.4,0.6,0.4,1s-0.1,0.8-0.4,1S441.4,18.3,441,18.3z"/>
	<path class="st4" d="M453.2,28.7h-2.8v-1.4l0,0c-0.7,1.1-1.6,1.6-2.8,1.6c-2.1,0-3.1-1.3-3.1-3.8v-5.4h2.8v5.2
		c0,1.3,0.5,1.9,1.5,1.9c0.5,0,0.9-0.2,1.2-0.5s0.4-0.8,0.4-1.4v-5.2h2.8V28.7z"/>
	<path class="st4" d="M455,28.4v-2.2c0.5,0.3,0.9,0.5,1.4,0.6s0.9,0.2,1.3,0.2c0.5,0,0.9-0.1,1.2-0.2c0.3-0.1,0.4-0.3,0.4-0.6
		c0-0.2-0.1-0.3-0.2-0.4s-0.3-0.2-0.5-0.3s-0.4-0.2-0.7-0.2s-0.5-0.1-0.7-0.2c-0.4-0.1-0.7-0.3-0.9-0.4c-0.3-0.2-0.5-0.3-0.7-0.5
		s-0.3-0.4-0.4-0.7s-0.1-0.6-0.1-1c0-0.5,0.1-0.9,0.3-1.3c0.2-0.4,0.5-0.7,0.9-0.9s0.8-0.4,1.3-0.5s1-0.2,1.5-0.2
		c0.4,0,0.8,0,1.2,0.1c0.4,0.1,0.8,0.2,1.2,0.3v2.1c-0.4-0.2-0.7-0.4-1.1-0.5s-0.8-0.2-1.2-0.2c-0.2,0-0.4,0-0.5,0s-0.3,0.1-0.4,0.1
		c-0.1,0.1-0.2,0.1-0.3,0.2c-0.1,0.1-0.1,0.2-0.1,0.3c0,0.2,0.1,0.3,0.2,0.4s0.2,0.2,0.4,0.3c0.2,0.1,0.4,0.2,0.6,0.2
		c0.2,0.1,0.4,0.1,0.6,0.2c0.4,0.1,0.7,0.3,1,0.4s0.6,0.3,0.8,0.5s0.4,0.4,0.5,0.7c0.1,0.3,0.2,0.6,0.2,1c0,0.5-0.1,1-0.3,1.4
		c-0.2,0.4-0.5,0.7-0.9,0.9s-0.8,0.4-1.3,0.5s-1,0.2-1.6,0.2C456.7,28.9,455.8,28.7,455,28.4z"/>
	<path class="st4" d="M468.9,28.6c-0.4,0.2-1,0.3-1.9,0.3c-2,0-2.9-1-2.9-3v-4.1h-1.5v-2h1.5v-1.9l2.8-0.8v2.7h2v2h-2v3.6
		c0,0.9,0.4,1.4,1.1,1.4c0.3,0,0.6-0.1,0.9-0.3V28.6z"/>
	<path class="st4" d="M478,28.7h-2.6v-1.3l0,0c-0.6,1-1.5,1.5-2.7,1.5c-0.9,0-1.6-0.2-2.1-0.7s-0.8-1.2-0.8-2c0-1.7,1-2.8,3.1-3
		l2.4-0.3c0-1-0.5-1.5-1.6-1.5s-2.1,0.3-3.1,1v-2.1c0.4-0.2,0.9-0.4,1.6-0.5s1.3-0.2,1.8-0.2c2.6,0,3.8,1.3,3.8,3.8v5.3H478z
		 M475.4,25v-0.6l-1.6,0.2c-0.9,0.1-1.4,0.5-1.4,1.2c0,0.3,0.1,0.6,0.3,0.8c0.2,0.2,0.5,0.3,0.9,0.3c0.5,0,0.9-0.2,1.3-0.5
		C475.2,26,475.4,25.6,475.4,25z"/>
	<path class="st4" d="M483,27.6L483,27.6v1h-2.8V15.4h2.8v5.7l0,0c0.7-1,1.7-1.6,2.9-1.6c1.2,0,2.1,0.4,2.7,1.2
		c0.6,0.8,0.9,1.9,0.9,3.3c0,1.5-0.4,2.7-1.1,3.6s-1.7,1.4-2.9,1.4C484.4,28.9,483.6,28.5,483,27.6z M482.9,23.8v0.9
		c0,0.6,0.2,1.1,0.5,1.4s0.8,0.6,1.3,0.6c0.6,0,1.1-0.2,1.5-0.7s0.5-1.2,0.5-2.1c0-0.7-0.2-1.3-0.5-1.7s-0.8-0.6-1.4-0.6
		s-1,0.2-1.4,0.6C483,22.6,482.9,23.2,482.9,23.8z"/>
	<path class="st4" d="M494.1,28.7h-2.8V15.4h2.8V28.7z"/>
	<path class="st4" d="M504.5,25h-5.9c0.1,1.3,0.9,2,2.5,2c1,0,1.9-0.2,2.6-0.7v2c-0.8,0.4-1.9,0.7-3.2,0.7c-1.5,0-2.6-0.4-3.4-1.2
		c-0.8-0.8-1.2-1.9-1.2-3.4s0.4-2.7,1.3-3.6s1.9-1.3,3.2-1.3c1.3,0,2.3,0.4,3,1.2c0.7,0.8,1.1,1.8,1.1,3.2V25z M502,23.3
		c0-1.3-0.5-1.9-1.6-1.9c-0.4,0-0.8,0.2-1.2,0.6c-0.3,0.4-0.5,0.8-0.6,1.4L502,23.3L502,23.3z"/>
</g>
<g>
	<path class="st4" d="M185.7,151.8c0,3.8-1.8,5.7-5.3,5.7c-3.4,0-5.1-1.8-5.1-5.5v-7.3h2.8v7.3c0,2,0.8,3.1,2.4,3.1
		c1.6,0,2.3-1,2.3-3v-7.4h2.8v7.1L185.7,151.8L185.7,151.8z"/>
	<path class="st4" d="M193.6,157.2c-0.4,0.2-1,0.3-1.9,0.3c-2,0-2.9-1-2.9-3v-4.1h-1.5v-2h1.5v-1.9l2.8-0.8v2.7h2v2h-2v3.6
		c0,0.9,0.4,1.4,1.1,1.4c0.3,0,0.6-0.1,0.9-0.3L193.6,157.2L193.6,157.2z"/>
	<path class="st4" d="M196.6,146.8c-0.5,0-0.9-0.1-1.2-0.4c-0.3-0.3-0.4-0.6-0.4-1s0.1-0.8,0.4-1s0.7-0.4,1.2-0.4s0.9,0.1,1.2,0.4
		s0.4,0.6,0.4,1s-0.1,0.8-0.4,1S197.1,146.8,196.6,146.8z M198,157.3h-2.8v-9h2.8V157.3z"/>
	<path class="st4" d="M203.1,157.3h-2.8V144h2.8V157.3z"/>
	<path class="st4" d="M206.8,146.8c-0.5,0-0.9-0.1-1.2-0.4c-0.3-0.3-0.4-0.6-0.4-1s0.1-0.8,0.4-1s0.7-0.4,1.2-0.4s0.9,0.1,1.2,0.4
		s0.4,0.6,0.4,1s-0.1,0.8-0.4,1S207.3,146.8,206.8,146.8z M208.2,157.3h-2.8v-9h2.8V157.3z"/>
	<path class="st4" d="M217.7,157.3h-8.1v-1.2l4.5-5.8H210v-2h7.6v1.4l-4.3,5.6h4.3L217.7,157.3L217.7,157.3z"/>
	<path class="st4" d="M226.6,157.3H224V156l0,0c-0.6,1-1.5,1.5-2.7,1.5c-0.9,0-1.6-0.2-2.1-0.7s-0.8-1.2-0.8-2c0-1.7,1-2.8,3.1-3
		l2.4-0.3c0-1-0.5-1.5-1.6-1.5s-2.1,0.3-3.1,1v-2.1c0.4-0.2,0.9-0.4,1.6-0.5s1.3-0.2,1.8-0.2c2.6,0,3.8,1.3,3.8,3.8v5.3H226.6z
		 M224,153.6V153l-1.6,0.2c-0.9,0.1-1.4,0.5-1.4,1.2c0,0.3,0.1,0.6,0.3,0.8s0.5,0.3,0.9,0.3c0.5,0,0.9-0.2,1.3-0.5
		C223.9,154.6,224,154.2,224,153.6z"/>
	<path class="st4" d="M234.7,150.8c-0.3-0.2-0.7-0.3-1.2-0.3c-0.6,0-1.1,0.2-1.4,0.7s-0.5,1-0.5,1.8v4.3h-2.8v-9h2.8v1.7l0,0
		c0.4-1.2,1.2-1.8,2.4-1.8c0.3,0,0.5,0,0.7,0.1V150.8z"/>
	<path class="st4" d="M249.5,157.3h-2.8v-1.4l0,0c-0.7,1.1-1.6,1.6-2.8,1.6c-2.1,0-3.1-1.3-3.1-3.8v-5.4h2.8v5.2
		c0,1.3,0.5,1.9,1.5,1.9c0.5,0,0.9-0.2,1.2-0.5s0.4-0.8,0.4-1.4v-5.2h2.8L249.5,157.3L249.5,157.3z"/>
	<path class="st4" d="M260.6,157.3h-2.8v-5c0-1.4-0.5-2.1-1.5-2.1c-0.5,0-0.9,0.2-1.2,0.6s-0.5,0.8-0.5,1.4v5.1h-2.8v-9h2.8v1.4l0,0
		c0.7-1.1,1.6-1.6,2.9-1.6c2,0,3,1.2,3,3.7L260.6,157.3L260.6,157.3z"/>
	<path class="st4" d="M270.2,157.3h-2.6V156l0,0c-0.6,1-1.5,1.5-2.7,1.5c-0.9,0-1.6-0.2-2.1-0.7s-0.8-1.2-0.8-2c0-1.7,1-2.8,3.1-3
		l2.4-0.3c0-1-0.5-1.5-1.6-1.5s-2.1,0.3-3.1,1v-2.1c0.4-0.2,0.9-0.4,1.6-0.5s1.3-0.2,1.8-0.2c2.6,0,3.8,1.3,3.8,3.8v5.3H270.2z
		 M267.6,153.6V153l-1.6,0.2c-0.9,0.1-1.4,0.5-1.4,1.2c0,0.3,0.1,0.6,0.3,0.8c0.2,0.2,0.5,0.3,0.9,0.3c0.5,0,0.9-0.2,1.3-0.5
		C267.5,154.6,267.6,154.2,267.6,153.6z"/>
	<path class="st4" d="M286,148.3l-3.3,9h-3.2l-3.2-9h3l1.6,5.5c0.2,0.6,0.3,1.2,0.3,1.6l0,0c0-0.4,0.1-0.9,0.3-1.5l1.6-5.6H286z"/>
	<path class="st4" d="M295.1,153.5h-5.9c0.1,1.3,0.9,2,2.5,2c1,0,1.9-0.2,2.6-0.7v2c-0.8,0.4-1.9,0.7-3.2,0.7
		c-1.5,0-2.6-0.4-3.4-1.2s-1.2-1.9-1.2-3.4s0.4-2.7,1.3-3.6s1.9-1.3,3.2-1.3c1.3,0,2.3,0.4,3,1.2s1.1,1.8,1.1,3.2V153.5z
		 M292.5,151.8c0-1.3-0.5-1.9-1.6-1.9c-0.4,0-0.8,0.2-1.2,0.6c-0.3,0.4-0.5,0.8-0.6,1.4h3.4L292.5,151.8L292.5,151.8z"/>
	<path class="st4" d="M303.9,157.3h-8.1v-1.2l4.5-5.8h-4.1v-2h7.6v1.4l-4.3,5.6h4.3v2H303.9z"/>
	<path class="st4" d="M318.9,148.3l-3.7,9.7c-0.9,2.3-2.2,3.5-4,3.5c-0.7,0-1.2-0.1-1.7-0.2v-2.2c0.4,0.2,0.8,0.3,1.2,0.3
		c0.7,0,1.2-0.3,1.5-1l0.5-1.1l-3.7-9h3.1l1.7,5.5c0.1,0.3,0.2,0.7,0.2,1.2l0,0c0.1-0.3,0.1-0.7,0.3-1.2l1.7-5.5H318.9z"/>
	<path class="st4" d="M333.8,157.3H331v-1.2l0,0c-0.6,1-1.6,1.5-2.8,1.5c-1.1,0-2-0.4-2.7-1.2s-1-1.9-1-3.3c0-1.5,0.4-2.7,1.1-3.6
		s1.7-1.3,3-1.3c1.2,0,2,0.4,2.4,1.2l0,0V144h2.8V157.3z M331,152.9v-0.7c0-0.6-0.2-1.1-0.5-1.5s-0.8-0.6-1.3-0.6
		c-0.6,0-1.1,0.2-1.4,0.7s-0.5,1.1-0.5,2c0,0.8,0.2,1.4,0.5,1.8s0.8,0.6,1.4,0.6s1-0.2,1.4-0.7C330.9,154.2,331,153.6,331,152.9z"/>
	<path class="st4" d="M344.2,153.5h-5.9c0.1,1.3,0.9,2,2.5,2c1,0,1.9-0.2,2.6-0.7v2c-0.8,0.4-1.9,0.7-3.2,0.7
		c-1.5,0-2.6-0.4-3.4-1.2s-1.2-1.9-1.2-3.4s0.4-2.7,1.3-3.6s1.9-1.3,3.2-1.3c1.3,0,2.3,0.4,3,1.2s1.1,1.8,1.1,3.2V153.5z
		 M341.6,151.8c0-1.3-0.5-1.9-1.6-1.9c-0.4,0-0.8,0.2-1.2,0.6c-0.3,0.4-0.5,0.8-0.6,1.4h3.4L341.6,151.8L341.6,151.8z"/>
	<path class="st4" d="M345.3,157v-2.2c0.5,0.3,0.9,0.5,1.4,0.6s0.9,0.2,1.3,0.2c0.5,0,0.9-0.1,1.2-0.2c0.3-0.1,0.4-0.3,0.4-0.6
		c0-0.2-0.1-0.3-0.2-0.4s-0.3-0.2-0.5-0.3s-0.4-0.2-0.7-0.2s-0.5-0.1-0.7-0.2c-0.4-0.1-0.7-0.3-0.9-0.4c-0.3-0.2-0.5-0.3-0.7-0.5
		s-0.3-0.4-0.4-0.7s-0.1-0.6-0.1-1c0-0.5,0.1-0.9,0.3-1.3c0.2-0.4,0.5-0.7,0.9-0.9s0.8-0.4,1.3-0.5s1-0.2,1.5-0.2
		c0.4,0,0.8,0,1.2,0.1c0.4,0.1,0.8,0.2,1.2,0.3v2.1c-0.4-0.2-0.7-0.4-1.1-0.5s-0.8-0.2-1.2-0.2c-0.2,0-0.4,0-0.5,0
		c-0.2,0-0.3,0.1-0.4,0.1c-0.1,0.1-0.2,0.1-0.3,0.2c-0.1,0.1-0.1,0.2-0.1,0.3c0,0.2,0.1,0.3,0.2,0.4s0.2,0.2,0.4,0.3
		c0.2,0.1,0.4,0.2,0.6,0.2c0.2,0.1,0.4,0.1,0.6,0.2c0.4,0.1,0.7,0.3,1,0.4s0.6,0.3,0.8,0.5c0.2,0.2,0.4,0.4,0.5,0.7s0.2,0.6,0.2,1
		c0,0.5-0.1,1-0.3,1.4c-0.2,0.4-0.5,0.7-0.9,0.9s-0.8,0.4-1.3,0.5s-1,0.2-1.6,0.2C347,157.5,346.1,157.3,345.3,157z"/>
	<path class="st4" d="M361.8,153.5H356c0.1,1.3,0.9,2,2.5,2c1,0,1.9-0.2,2.6-0.7v2c-0.8,0.4-1.9,0.7-3.2,0.7c-1.5,0-2.6-0.4-3.4-1.2
		s-1.2-1.9-1.2-3.4s0.4-2.7,1.3-3.6s1.9-1.3,3.2-1.3c1.3,0,2.3,0.4,3,1.2s1.1,1.8,1.1,3.2v1.1H361.8z M359.3,151.8
		c0-1.3-0.5-1.9-1.6-1.9c-0.4,0-0.8,0.2-1.2,0.6c-0.3,0.4-0.5,0.8-0.6,1.4h3.4L359.3,151.8L359.3,151.8z"/>
	<path class="st4" d="M370.3,156.9c-0.6,0.4-1.5,0.5-2.7,0.5c-1.4,0-2.5-0.4-3.4-1.3s-1.3-1.9-1.3-3.2c0-1.5,0.5-2.7,1.4-3.6
		c0.9-0.9,2.1-1.3,3.7-1.3c1.1,0,1.8,0.1,2.3,0.4v2.4c-0.6-0.4-1.2-0.7-1.9-0.7c-0.8,0-1.4,0.2-1.9,0.7s-0.7,1.1-0.7,1.9
		c0,0.8,0.2,1.4,0.7,1.9s1.1,0.7,1.8,0.7c0.7,0,1.4-0.2,2-0.7V156.9z"/>
	<path class="st4" d="M380.8,157.3H378v-5.2c0-1.3-0.5-2-1.4-2c-0.5,0-0.9,0.2-1.2,0.6s-0.5,0.8-0.5,1.4v5.1h-2.8v-13.3h2.8v5.7l0,0
		c0.7-1,1.6-1.6,2.8-1.6c2,0,3.1,1.2,3.1,3.7V157.3z"/>
	<path class="st4" d="M390.5,157.3h-2.6V156l0,0c-0.6,1-1.5,1.5-2.7,1.5c-0.9,0-1.6-0.2-2.1-0.7s-0.8-1.2-0.8-2c0-1.7,1-2.8,3.1-3
		l2.4-0.3c0-1-0.5-1.5-1.6-1.5s-2.1,0.3-3.1,1v-2.1c0.4-0.2,0.9-0.4,1.6-0.5c0.7-0.2,1.3-0.2,1.8-0.2c2.6,0,3.8,1.3,3.8,3.8v5.3
		H390.5z M387.9,153.6V153l-1.6,0.2c-0.9,0.1-1.4,0.5-1.4,1.2c0,0.3,0.1,0.6,0.3,0.8c0.2,0.2,0.5,0.3,0.9,0.3c0.5,0,0.9-0.2,1.3-0.5
		C387.7,154.6,387.9,154.2,387.9,153.6z"/>
	<path class="st4" d="M398.5,150.8c-0.3-0.2-0.7-0.3-1.2-0.3c-0.6,0-1.1,0.2-1.4,0.7s-0.5,1-0.5,1.8v4.3h-2.8v-9h2.8v1.7l0,0
		c0.4-1.2,1.2-1.8,2.4-1.8c0.3,0,0.5,0,0.7,0.1V150.8z"/>
</g>
<g>
	<path class="st4" d="M149.9,284.4c-0.9,0.4-2.1,0.7-3.6,0.7c-1.9,0-3.5-0.6-4.6-1.7s-1.7-2.7-1.7-4.5c0-2,0.6-3.7,1.9-4.9
		s2.9-1.9,4.8-1.9c1.2,0,2.3,0.2,3.1,0.5v2.7c-0.8-0.5-1.8-0.8-2.9-0.8c-1.2,0-2.1,0.4-2.9,1.1s-1.1,1.8-1.1,3s0.3,2.2,1,2.9
		c0.7,0.7,1.6,1.1,2.8,1.1c1.1,0,2.1-0.3,3-0.8v2.6L149.9,284.4L149.9,284.4z"/>
	<path class="st4" d="M159.9,281.2H154c0.1,1.3,0.9,2,2.5,2c1,0,1.9-0.2,2.6-0.7v2c-0.8,0.4-1.9,0.7-3.2,0.7c-1.5,0-2.6-0.4-3.4-1.2
		c-0.8-0.8-1.2-1.9-1.2-3.4s0.4-2.7,1.3-3.6s1.9-1.3,3.2-1.3s2.3,0.4,3,1.2s1.1,1.8,1.1,3.2L159.9,281.2L159.9,281.2z M157.3,279.5
		c0-1.3-0.5-1.9-1.6-1.9c-0.4,0-0.8,0.2-1.2,0.6s-0.5,0.8-0.6,1.4h3.4L157.3,279.5L157.3,279.5z"/>
	<path class="st4" d="M167.4,278.4c-0.3-0.2-0.7-0.3-1.2-0.3c-0.6,0-1.1,0.2-1.4,0.7c-0.3,0.4-0.5,1-0.5,1.8v4.3h-2.8v-9h2.8v1.7
		l0,0c0.4-1.2,1.2-1.8,2.4-1.8c0.3,0,0.5,0,0.7,0.1V278.4z"/>
	<path class="st4" d="M174.6,278.4c-0.3-0.2-0.7-0.3-1.2-0.3c-0.6,0-1.1,0.2-1.4,0.7c-0.3,0.4-0.5,1-0.5,1.8v4.3h-2.8v-9h2.8v1.7
		l0,0c0.4-1.2,1.2-1.8,2.4-1.8c0.3,0,0.5,0,0.7,0.1V278.4z"/>
	<path class="st4" d="M183.4,284.9h-2.6v-1.3l0,0c-0.6,1-1.5,1.5-2.7,1.5c-0.9,0-1.6-0.2-2.1-0.7s-0.8-1.2-0.8-2c0-1.7,1-2.8,3.1-3
		l2.4-0.3c0-1-0.5-1.5-1.6-1.5s-2.1,0.3-3.1,1v-2.1c0.4-0.2,0.9-0.4,1.6-0.5s1.3-0.2,1.8-0.2c2.6,0,3.8,1.3,3.8,3.8v5.3L183.4,284.9
		L183.4,284.9z M180.8,281.2v-0.6l-1.6,0.2c-0.9,0.1-1.4,0.5-1.4,1.2c0,0.3,0.1,0.6,0.3,0.8c0.2,0.2,0.5,0.3,0.9,0.3
		c0.5,0,0.9-0.2,1.3-0.5C180.6,282.2,180.8,281.8,180.8,281.2z"/>
	<path class="st4" d="M191.4,278.4c-0.3-0.2-0.7-0.3-1.2-0.3c-0.6,0-1.1,0.2-1.4,0.7c-0.3,0.4-0.5,1-0.5,1.8v4.3h-2.8v-9h2.8v1.7
		l0,0c0.4-1.2,1.2-1.8,2.4-1.8c0.3,0,0.5,0,0.7,0.1V278.4z"/>
	<path class="st4" d="M206.3,275.9l-3.7,9.7c-0.9,2.3-2.2,3.5-4,3.5c-0.7,0-1.2-0.1-1.7-0.2v-2.2c0.4,0.2,0.8,0.3,1.2,0.3
		c0.7,0,1.2-0.3,1.5-1l0.5-1.1l-3.7-9h3.1l1.7,5.5c0.1,0.3,0.2,0.7,0.2,1.2l0,0c0.1-0.3,0.1-0.7,0.3-1.2l1.7-5.5L206.3,275.9
		L206.3,275.9z"/>
	<path class="st4" d="M211.8,284.8v-2.2c0.5,0.3,0.9,0.5,1.4,0.6s0.9,0.2,1.3,0.2c0.5,0,0.9-0.1,1.2-0.2s0.4-0.3,0.4-0.6
		c0-0.2-0.1-0.3-0.2-0.4s-0.3-0.2-0.5-0.3s-0.4-0.2-0.7-0.2s-0.5-0.1-0.7-0.2c-0.4-0.1-0.7-0.3-0.9-0.4c-0.3-0.2-0.5-0.3-0.7-0.5
		s-0.3-0.4-0.4-0.7s-0.1-0.6-0.1-1c0-0.5,0.1-0.9,0.3-1.3s0.5-0.7,0.9-0.9c0.4-0.2,0.8-0.4,1.3-0.5s1-0.2,1.5-0.2
		c0.4,0,0.8,0,1.2,0.1s0.8,0.2,1.2,0.3v2.1c-0.4-0.2-0.7-0.4-1.1-0.5c-0.4-0.1-0.8-0.2-1.2-0.2c-0.2,0-0.4,0-0.5,0
		c-0.2,0-0.3,0.1-0.4,0.1c-0.1,0.1-0.2,0.1-0.3,0.2s-0.1,0.2-0.1,0.3c0,0.2,0.1,0.3,0.2,0.4s0.2,0.2,0.4,0.3
		c0.2,0.1,0.4,0.2,0.6,0.2c0.2,0.1,0.4,0.1,0.6,0.2c0.4,0.1,0.7,0.3,1,0.4s0.6,0.3,0.8,0.5s0.4,0.4,0.5,0.7s0.2,0.6,0.2,1
		c0,0.5-0.1,1-0.3,1.4s-0.5,0.7-0.9,0.9c-0.4,0.2-0.8,0.4-1.3,0.5s-1,0.2-1.6,0.2C213.5,285.1,212.6,285,211.8,284.8z"/>
	<path class="st4" d="M228.4,281.2h-5.9c0.1,1.3,0.9,2,2.5,2c1,0,1.9-0.2,2.6-0.7v2c-0.8,0.4-1.9,0.7-3.2,0.7
		c-1.5,0-2.6-0.4-3.4-1.2c-0.8-0.8-1.2-1.9-1.2-3.4s0.4-2.7,1.3-3.6s1.9-1.3,3.2-1.3s2.3,0.4,3,1.2s1.1,1.8,1.1,3.2L228.4,281.2
		L228.4,281.2z M225.8,279.5c0-1.3-0.5-1.9-1.6-1.9c-0.4,0-0.8,0.2-1.2,0.6s-0.5,0.8-0.6,1.4h3.4L225.8,279.5L225.8,279.5z"/>
	<path class="st4" d="M232.8,284.9H230v-13.3h2.8V284.9z"/>
	<path class="st4" d="M237.9,284.9h-2.8v-13.3h2.8V284.9z"/>
	<path class="st4" d="M247.7,284.9h-2.6v-1.3l0,0c-0.6,1-1.5,1.5-2.7,1.5c-0.9,0-1.6-0.2-2.1-0.7s-0.8-1.2-0.8-2c0-1.7,1-2.8,3.1-3
		l2.4-0.3c0-1-0.5-1.5-1.6-1.5s-2.1,0.3-3.1,1v-2.1c0.4-0.2,0.9-0.4,1.6-0.5s1.3-0.2,1.8-0.2c2.6,0,3.8,1.3,3.8,3.8v5.3L247.7,284.9
		L247.7,284.9z M245.1,281.2v-0.6l-1.6,0.2c-0.9,0.1-1.4,0.5-1.4,1.2c0,0.3,0.1,0.6,0.3,0.8c0.2,0.2,0.5,0.3,0.9,0.3
		c0.5,0,0.9-0.2,1.3-0.5C245,282.2,245.1,281.8,245.1,281.2z"/>
	<path class="st4" d="M255.8,278.4c-0.3-0.2-0.7-0.3-1.2-0.3c-0.6,0-1.1,0.2-1.4,0.7c-0.3,0.4-0.5,1-0.5,1.8v4.3h-2.8v-9h2.8v1.7
		l0,0c0.4-1.2,1.2-1.8,2.4-1.8c0.3,0,0.5,0,0.7,0.1V278.4z"/>
	<path class="st4" d="M269.5,284.9h-2.6v-1.3l0,0c-0.6,1-1.5,1.5-2.7,1.5c-0.9,0-1.6-0.2-2.1-0.7s-0.8-1.2-0.8-2c0-1.7,1-2.8,3.1-3
		l2.4-0.3c0-1-0.5-1.5-1.6-1.5s-2.1,0.3-3.1,1v-2.1c0.4-0.2,0.9-0.4,1.6-0.5s1.3-0.2,1.8-0.2c2.6,0,3.8,1.3,3.8,3.8v5.3L269.5,284.9
		L269.5,284.9z M266.9,281.2v-0.6l-1.6,0.2c-0.9,0.1-1.4,0.5-1.4,1.2c0,0.3,0.1,0.6,0.3,0.8c0.2,0.2,0.5,0.3,0.9,0.3
		c0.5,0,0.9-0.2,1.3-0.5C266.8,282.2,266.9,281.8,266.9,281.2z"/>
	<path class="st4" d="M280.4,284.9h-2.8v-5c0-1.4-0.5-2.1-1.5-2.1c-0.5,0-0.9,0.2-1.2,0.6s-0.5,0.8-0.5,1.4v5.1h-2.8v-9h2.8v1.4l0,0
		c0.7-1.1,1.6-1.6,2.9-1.6c2,0,3,1.2,3,3.7v5.5H280.4z"/>
	<path class="st4" d="M288.1,284.8c-0.4,0.2-1,0.3-1.9,0.3c-2,0-2.9-1-2.9-3V278h-1.5v-2h1.5v-2l2.8-0.8v2.7h2v2h-2v3.6
		c0,0.9,0.4,1.4,1.1,1.4c0.3,0,0.6-0.1,0.9-0.3V284.8z"/>
	<path class="st4" d="M297.7,281.2h-5.9c0.1,1.3,0.9,2,2.5,2c1,0,1.9-0.2,2.6-0.7v2c-0.8,0.4-1.9,0.7-3.2,0.7
		c-1.5,0-2.6-0.4-3.4-1.2c-0.8-0.8-1.2-1.9-1.2-3.4s0.4-2.7,1.3-3.6s1.9-1.3,3.2-1.3c1.3,0,2.3,0.4,3,1.2s1.1,1.8,1.1,3.2V281.2z
		 M295.1,279.5c0-1.3-0.5-1.9-1.6-1.9c-0.4,0-0.8,0.2-1.2,0.6s-0.5,0.8-0.6,1.4h3.4L295.1,279.5L295.1,279.5z"/>
	<path class="st4" d="M298.7,284.8v-2.2c0.5,0.3,0.9,0.5,1.4,0.6s0.9,0.2,1.3,0.2c0.5,0,0.9-0.1,1.2-0.2s0.4-0.3,0.4-0.6
		c0-0.2-0.1-0.3-0.2-0.4s-0.3-0.2-0.5-0.3s-0.4-0.2-0.7-0.2s-0.5-0.1-0.7-0.2c-0.4-0.1-0.7-0.3-0.9-0.4c-0.3-0.2-0.5-0.3-0.7-0.5
		s-0.3-0.4-0.4-0.7s-0.1-0.6-0.1-1c0-0.5,0.1-0.9,0.3-1.3s0.5-0.7,0.9-0.9c0.4-0.2,0.8-0.4,1.3-0.5s1-0.2,1.5-0.2
		c0.4,0,0.8,0,1.2,0.1c0.4,0.1,0.8,0.2,1.2,0.3v2.1c-0.4-0.2-0.7-0.4-1.1-0.5s-0.8-0.2-1.2-0.2c-0.2,0-0.4,0-0.5,0
		c-0.2,0-0.3,0.1-0.4,0.1c-0.1,0.1-0.2,0.1-0.3,0.2c-0.1,0.1-0.1,0.2-0.1,0.3c0,0.2,0.1,0.3,0.2,0.4s0.2,0.2,0.4,0.3
		c0.2,0.1,0.4,0.2,0.6,0.2c0.2,0.1,0.4,0.1,0.6,0.2c0.4,0.1,0.7,0.3,1,0.4s0.6,0.3,0.8,0.5s0.4,0.4,0.5,0.7s0.2,0.6,0.2,1
		c0,0.5-0.1,1-0.3,1.4c-0.2,0.4-0.5,0.7-0.9,0.9c-0.4,0.2-0.8,0.4-1.3,0.5s-1,0.2-1.6,0.2C300.5,285.1,299.6,285,298.7,284.8z"/>
	<path class="st4" d="M321,284.9h-2.8v-1.2l0,0c-0.6,1-1.6,1.5-2.8,1.5c-1.1,0-2-0.4-2.7-1.2c-0.7-0.8-1-1.9-1-3.3
		c0-1.5,0.4-2.7,1.1-3.6s1.7-1.3,3-1.3c1.2,0,2,0.4,2.4,1.2l0,0v-5.4h2.8V284.9z M318.3,280.5v-0.7c0-0.6-0.2-1.1-0.5-1.5
		s-0.8-0.6-1.3-0.6c-0.6,0-1.1,0.2-1.4,0.7s-0.5,1.1-0.5,2c0,0.8,0.2,1.4,0.5,1.8s0.8,0.6,1.4,0.6s1-0.2,1.4-0.7
		S318.3,281.3,318.3,280.5z"/>
	<path class="st4" d="M331.4,281.2h-5.9c0.1,1.3,0.9,2,2.5,2c1,0,1.9-0.2,2.6-0.7v2c-0.8,0.4-1.9,0.7-3.2,0.7
		c-1.5,0-2.6-0.4-3.4-1.2c-0.8-0.8-1.2-1.9-1.2-3.4s0.4-2.7,1.3-3.6s1.9-1.3,3.2-1.3c1.3,0,2.3,0.4,3,1.2s1.1,1.8,1.1,3.2V281.2z
		 M328.8,279.5c0-1.3-0.5-1.9-1.6-1.9c-0.4,0-0.8,0.2-1.2,0.6s-0.5,0.8-0.6,1.4h3.4L328.8,279.5L328.8,279.5z"/>
	<path class="st4" d="M343.5,284.8c-0.4,0.2-1,0.3-1.9,0.3c-2,0-2.9-1-2.9-3V278h-1.5v-2h1.5v-2l2.8-0.8v2.7h2v2h-2v3.6
		c0,0.9,0.4,1.4,1.1,1.4c0.3,0,0.6-0.1,0.9-0.3V284.8z"/>
	<path class="st4" d="M350.9,278.4c-0.3-0.2-0.7-0.3-1.2-0.3c-0.6,0-1.1,0.2-1.4,0.7c-0.3,0.4-0.5,1-0.5,1.8v4.3H345v-9h2.8v1.7l0,0
		c0.4-1.2,1.2-1.8,2.4-1.8c0.3,0,0.5,0,0.7,0.1V278.4z"/>
	<path class="st4" d="M359.7,284.9h-2.6v-1.3l0,0c-0.6,1-1.5,1.5-2.7,1.5c-0.9,0-1.6-0.2-2.1-0.7s-0.8-1.2-0.8-2c0-1.7,1-2.8,3.1-3
		l2.4-0.3c0-1-0.5-1.5-1.6-1.5s-2.1,0.3-3.1,1v-2.1c0.4-0.2,0.9-0.4,1.6-0.5s1.3-0.2,1.8-0.2c2.6,0,3.8,1.3,3.8,3.8v5.3L359.7,284.9
		L359.7,284.9z M357.1,281.2v-0.6l-1.6,0.2c-0.9,0.1-1.4,0.5-1.4,1.2c0,0.3,0.1,0.6,0.3,0.8c0.2,0.2,0.5,0.3,0.9,0.3
		c0.5,0,0.9-0.2,1.3-0.5C356.9,282.2,357.1,281.8,357.1,281.2z"/>
	<path class="st4" d="M370.6,284.9h-2.8v-5c0-1.4-0.5-2.1-1.5-2.1c-0.5,0-0.9,0.2-1.2,0.6s-0.5,0.8-0.5,1.4v5.1h-2.8v-9h2.8v1.4l0,0
		c0.7-1.1,1.6-1.6,2.9-1.6c2,0,3,1.2,3,3.7v5.5H370.6z"/>
	<path class="st4" d="M372.2,284.8v-2.2c0.5,0.3,0.9,0.5,1.4,0.6s0.9,0.2,1.3,0.2c0.5,0,0.9-0.1,1.2-0.2s0.4-0.3,0.4-0.6
		c0-0.2-0.1-0.3-0.2-0.4s-0.3-0.2-0.5-0.3s-0.4-0.2-0.7-0.2s-0.5-0.1-0.7-0.2c-0.4-0.1-0.7-0.3-0.9-0.4c-0.3-0.2-0.5-0.3-0.7-0.5
		s-0.3-0.4-0.4-0.7s-0.1-0.6-0.1-1c0-0.5,0.1-0.9,0.3-1.3s0.5-0.7,0.9-0.9c0.4-0.2,0.8-0.4,1.3-0.5s1-0.2,1.5-0.2
		c0.4,0,0.8,0,1.2,0.1c0.4,0.1,0.8,0.2,1.2,0.3v2.1c-0.4-0.2-0.7-0.4-1.1-0.5s-0.8-0.2-1.2-0.2c-0.2,0-0.4,0-0.5,0
		c-0.2,0-0.3,0.1-0.4,0.1c-0.1,0.1-0.2,0.1-0.3,0.2c-0.1,0.1-0.1,0.2-0.1,0.3c0,0.2,0.1,0.3,0.2,0.4s0.2,0.2,0.4,0.3
		c0.2,0.1,0.4,0.2,0.6,0.2c0.2,0.1,0.4,0.1,0.6,0.2c0.4,0.1,0.7,0.3,1,0.4s0.6,0.3,0.8,0.5s0.4,0.4,0.5,0.7s0.2,0.6,0.2,1
		c0,0.5-0.1,1-0.3,1.4c-0.2,0.4-0.5,0.7-0.9,0.9c-0.4,0.2-0.8,0.4-1.3,0.5s-1,0.2-1.6,0.2C374,285.1,373,285,372.2,284.8z"/>
	<path class="st4" d="M383.5,283.9L383.5,283.9v5.2h-2.8V276h2.8v1.4l0,0c0.7-1,1.6-1.6,2.9-1.6c1.2,0,2.1,0.4,2.7,1.2
		c0.6,0.8,1,1.9,1,3.3c0,1.5-0.4,2.7-1.1,3.6s-1.7,1.4-3,1.4C384.9,285.1,384.1,284.8,383.5,283.9z M383.4,280.2v0.7
		c0,0.6,0.2,1.1,0.5,1.5s0.8,0.6,1.3,0.6c0.6,0,1.1-0.2,1.5-0.7c0.3-0.5,0.5-1.2,0.5-2.1c0-1.6-0.6-2.4-1.8-2.4
		c-0.6,0-1,0.2-1.4,0.6C383.6,278.9,383.4,279.5,383.4,280.2z"/>
	<path class="st4" d="M396.2,285.1c-1.5,0-2.7-0.4-3.5-1.3c-0.9-0.8-1.3-2-1.3-3.4c0-1.5,0.4-2.7,1.3-3.5s2.1-1.3,3.6-1.3
		s2.7,0.4,3.5,1.3c0.8,0.8,1.3,2,1.3,3.3c0,1.5-0.4,2.7-1.3,3.5S397.7,285.1,396.2,285.1z M396.2,277.8c-0.7,0-1.2,0.2-1.5,0.7
		s-0.5,1.1-0.5,1.9c0,1.7,0.7,2.6,2.1,2.6c1.3,0,2-0.9,2-2.7C398.2,278.6,397.6,277.8,396.2,277.8z"/>
	<path class="st4" d="M408.7,278.4c-0.3-0.2-0.7-0.3-1.2-0.3c-0.6,0-1.1,0.2-1.4,0.7c-0.3,0.4-0.5,1-0.5,1.8v4.3h-2.8v-9h2.8v1.7
		l0,0c0.4-1.2,1.2-1.8,2.4-1.8c0.3,0,0.5,0,0.7,0.1V278.4z"/>
	<path class="st4" d="M416,284.8c-0.4,0.2-1,0.3-1.9,0.3c-2,0-2.9-1-2.9-3V278h-1.5v-2h1.5v-2l2.8-0.8v2.7h2v2h-2v3.6
		c0,0.9,0.4,1.4,1.1,1.4c0.3,0,0.6-0.1,0.9-0.3V284.8z"/>
	<path class="st4" d="M425,284.9h-2.6v-1.3l0,0c-0.6,1-1.5,1.5-2.7,1.5c-0.9,0-1.6-0.2-2.1-0.7s-0.8-1.2-0.8-2c0-1.7,1-2.8,3.1-3
		l2.4-0.3c0-1-0.5-1.5-1.6-1.5s-2.1,0.3-3.1,1v-2.1c0.4-0.2,0.9-0.4,1.6-0.5s1.3-0.2,1.8-0.2c2.6,0,3.8,1.3,3.8,3.8v5.3L425,284.9
		L425,284.9z M422.4,281.2v-0.6l-1.6,0.2c-0.9,0.1-1.4,0.5-1.4,1.2c0,0.3,0.1,0.6,0.3,0.8c0.2,0.2,0.5,0.3,0.9,0.3
		c0.5,0,0.9-0.2,1.3-0.5C422.3,282.2,422.4,281.8,422.4,281.2z"/>
	<path class="st4" d="M433.1,278.4c-0.3-0.2-0.7-0.3-1.2-0.3c-0.6,0-1.1,0.2-1.4,0.7c-0.3,0.4-0.5,1-0.5,1.8v4.3h-2.8v-9h2.8v1.7
		l0,0c0.4-1.2,1.2-1.8,2.4-1.8c0.3,0,0.5,0,0.7,0.1V278.4z"/>
</g>
<path id="Trazado_16387" class="st3" d="M274,68.5l12.4,16.7l12.4-16.7h-8.5V40.6h-7.5v27.9H274z"/>
<path id="Trazado_16388" class="st3" d="M274,197.1l12.4,16.7l12.4-16.7h-8.5v-27.9h-7.5v27.9H274z"/>
</svg>
