<svg xmlns="http://www.w3.org/2000/svg" width="84.411" height="86.333" viewBox="0 0 84.411 86.333">
  <g id="Grupo_14994" data-name="Grupo 14994" transform="translate(-634.089 -2431)">
    <path id="Trazado_14337" data-name="Trazado 14337" d="M261.994,465.665a1.846,1.846,0,0,0-1.383.644h-6.586a32.593,32.593,0,0,0-8.636-20.185l4.4-4.406a1.831,1.831,0,0,0,1.431-.521,1.922,1.922,0,0,0-2.717-2.717,1.834,1.834,0,0,0-.521,1.431l-4.406,4.406a32.6,32.6,0,0,0-20.952-8.677v-7.884a1.9,1.9,0,0,0,.644-1.413,1.922,1.922,0,1,0-3.2,1.413v7.884a32.591,32.591,0,0,0-20.786,8.526l-4.253-4.255a1.843,1.843,0,0,0-.521-1.431,1.922,1.922,0,0,0-2.719,2.717,1.837,1.837,0,0,0,1.434.521l4.237,4.24a32.6,32.6,0,0,0-8.787,20.351h-5.955a1.837,1.837,0,0,0-1.38-.644,1.922,1.922,0,0,0,0,3.844,1.837,1.837,0,0,0,1.38-.644H188.6a32.623,32.623,0,0,0,8.715,21.719l-4.4,4.4a1.846,1.846,0,0,0-1.434.521,1.923,1.923,0,0,0,2.719,2.719,1.846,1.846,0,0,0,.521-1.434l4.4-4.4a32.616,32.616,0,0,0,20.952,8.677v6.351a1.9,1.9,0,0,0-.644,1.413,1.922,1.922,0,0,0,3.844,0,1.894,1.894,0,0,0-.644-1.413v-6.351a32.607,32.607,0,0,0,21.118-8.828l4.557,4.554a1.836,1.836,0,0,0,.521,1.434,1.922,1.922,0,0,0,2.717-2.719,1.84,1.84,0,0,0-1.431-.521l-4.57-4.57a32.611,32.611,0,0,0,8.562-21.553h6.509a1.846,1.846,0,0,0,1.383.644,1.922,1.922,0,0,0,0-3.844Z" transform="translate(454.627 2006.58)" fill="#4ba7bc"/>
    <path id="Trazado_14338" data-name="Trazado 14338" d="M243.377,458.355h-1.845a27.015,27.015,0,0,0-7.371-16.985l1.533-1.536a1.278,1.278,0,0,0-1.807-1.807l-1.572,1.572a26.99,26.99,0,0,0-16.566-6.66v-1.981a1.278,1.278,0,0,0-2.556,0v1.981a27,27,0,0,0-17.364,7.386l-1.541-1.533a1.279,1.279,0,0,0-1.8,1.812l1.572,1.567a27,27,0,0,0-6.642,16.186H185.26a1.278,1.278,0,0,0,0,2.556h2.116a27,27,0,0,0,6.678,16.95l-1.569,1.569a1.279,1.279,0,0,0,1.807,1.809l1.533-1.536a27.012,27.012,0,0,0,17.369,7.391v2.287a1.278,1.278,0,0,0,2.556,0v-2.287a27,27,0,0,0,16.643-6.729l1.5,1.49a1.279,1.279,0,0,0,1.8-1.812l-1.464-1.457a27.014,27.014,0,0,0,7.34-17.676h1.807a1.278,1.278,0,0,0,0-2.556Z" transform="translate(461.659 2014.763)" fill="#e3f4fc"/>
    <g id="Capa_2" data-name="Capa 2" transform="translate(656.623 2464.677)">
      <g id="Grupo_14159" data-name="Grupo 14159">
        <path id="Trazado_14346" data-name="Trazado 14346" d="M226.671,442.435c-.455,0-.9-1.03-1.273-1.866-.58-1.324-1.3-2.972-2.965-2.972s-2.382,1.648-2.962,2.972c-.365.833-.818,1.866-1.27,1.866s-.9-1.03-1.27-1.866c-.578-1.324-1.3-2.972-2.962-2.972s-2.382,1.648-2.962,2.972c-.36.831-.813,1.866-1.265,1.866s-.9-1.033-1.268-1.866c-.58-1.324-1.3-2.972-2.962-2.972s-2.382,1.648-2.962,2.975c-.363.831-.815,1.863-1.268,1.863s-.9-1.033-1.265-1.866c-.58-1.324-1.3-2.972-2.962-2.972s-2.382,1.648-2.965,2.975c-.363.831-.813,1.863-1.265,1.863s-.9-1.033-1.265-1.866c-.58-1.324-1.3-2.972-2.962-2.972h-.319v1.85h.319c.45,0,.9,1.027,1.268,1.868.58,1.321,1.3,2.97,2.96,2.97s2.382-1.646,2.962-2.975c.363-.831.815-1.863,1.268-1.863s.9,1.03,1.268,1.868c.58,1.321,1.3,2.97,2.96,2.97s2.385-1.648,2.965-2.98c.363-.828.813-1.858,1.265-1.858s.9,1.033,1.27,1.868c.578,1.324,1.3,2.97,2.96,2.97s2.382-1.648,2.962-2.975c.363-.831.815-1.863,1.265-1.863s.9,1.033,1.27,1.868c.58,1.321,1.3,2.97,2.962,2.97s2.385-1.648,2.967-2.98c.363-.828.815-1.858,1.265-1.858s.9,1.03,1.27,1.866c.58,1.324,1.3,2.972,2.967,2.972h.319v-1.85Z" transform="translate(-188.279 -437.597)" fill="#eb0000"/>
        <path id="Trazado_14347" data-name="Trazado 14347" d="M225.4,445.977c-.58-1.324-1.3-2.97-2.965-2.97s-2.382,1.646-2.962,2.972c-.365.831-.818,1.863-1.27,1.863s-.9-1.03-1.27-1.863c-.578-1.324-1.3-2.972-2.962-2.972s-2.382,1.648-2.962,2.972c-.36.831-.81,1.863-1.265,1.863s-.9-1.033-1.268-1.863c-.58-1.324-1.3-2.972-2.962-2.972s-2.382,1.648-2.962,2.972c-.363.831-.813,1.863-1.268,1.863s-.9-1.033-1.265-1.863c-.58-1.324-1.3-2.972-2.962-2.972s-2.382,1.648-2.965,2.972c-.36.831-.813,1.863-1.265,1.863s-.9-1.033-1.265-1.863c-.58-1.324-1.3-2.972-2.962-2.972h-.319v1.848h.319c.452,0,.9,1.032,1.268,1.868.578,1.321,1.3,2.97,2.96,2.97s2.382-1.648,2.962-2.972c.363-.831.813-1.866,1.268-1.866s.9,1.035,1.268,1.868c.578,1.321,1.3,2.97,2.96,2.97s2.385-1.648,2.965-2.972c.36-.831.813-1.866,1.265-1.866s.9,1.035,1.268,1.868c.58,1.321,1.3,2.97,2.962,2.97s2.382-1.648,2.962-2.972c.36-.831.813-1.866,1.265-1.866s.907,1.035,1.268,1.866c.58,1.324,1.3,2.972,2.965,2.972s2.385-1.648,2.965-2.977c.363-.828.815-1.861,1.268-1.861s.907,1.032,1.27,1.866c.58,1.324,1.3,2.972,2.967,2.972h.319v-1.85h-.319C226.216,447.842,225.767,446.813,225.4,445.977Z" transform="translate(-188.279 -429.181)" fill="#eb0000"/>
      </g>
    </g>
  </g>
</svg>
