<svg xmlns="http://www.w3.org/2000/svg" width="70.521" height="71.117" viewBox="0 0 70.521 71.117">
  <g id="Grupo_14996" data-name="Grupo 14996" transform="translate(-665.239 -1936.883)">
    <path id="Trazado_14322" data-name="Trazado 14322" d="M359.443,286.382v2.483h-28.7L354.2,278.9l.971,2.285,1.016-.431-2.8-6.6-1.016.432.971,2.285-23.492,9.978L350.591,266.7l1.73,1.781.792-.769-5-5.146-.792.769,1.73,1.781-21.082,20.477,9.452-24.189,2.312.9.4-1.028-6.682-2.611-.4,1.028,2.313.9-8.878,22.72v-27.8h2.483v-1.1H321.8v1.1h2.483V285L313.53,260.539l2.273-1-.444-1.01-6.567,2.887.444,1.01,2.274-1,9.964,22.667-20.022-19.761,1.744-1.767-.786-.775-5.039,5.106.786.775L299.9,265.9l23.265,22.962H291.129v-2.483h-1.1v7.173h1.1v-2.483H319.9l-23.926,10.162L295,298.95l-1.016.431,2.8,6.6,1.016-.432-.971-2.285,22.991-9.766-19.913,19.341-1.73-1.782-.792.769,5,5.146.792-.769-1.73-1.781,20.76-20.164-9.175,23.479-2.312-.9-.4,1.028,6.681,2.611.4-1.028-2.313-.9,9.187-23.511v29.391H321.8v1.1h7.173v-1.1h-2.483V295.5l10.156,23.1-2.273,1,.444,1.01,6.567-2.887-.444-1.01-2.274,1-10.526-23.945,20.914,20.642-1.744,1.767.786.775,5.039-5.106-.785-.775-1.745,1.768-22.058-21.77h30.9v2.483h1.1v-7.173Z" transform="translate(375.214 1682.473)" fill="#4ba7bc"/>
    <g id="Elipse_713" data-name="Elipse 713" transform="translate(674.013 1945.425)" fill="#e3f4fc" stroke="#4ba7bc" stroke-miterlimit="10" stroke-width="1">
      <circle cx="26.487" cy="26.487" r="26.487" stroke="none"/>
      <circle cx="26.487" cy="26.487" r="25.987" fill="none"/>
    </g>
    <g id="Grupo_14148" data-name="Grupo 14148" transform="translate(683.785 1963.743)">
      <path id="Trazado_14323" data-name="Trazado 14323" d="M331.582,270.757c-.391,0-.781-.889-1.1-1.611-.5-1.143-1.124-2.567-2.56-2.567s-2.059,1.424-2.56,2.569c-.313.717-.7,1.609-1.1,1.609s-.779-.889-1.095-1.609c-.5-1.146-1.121-2.569-2.558-2.569s-2.057,1.424-2.558,2.569c-.313.715-.7,1.609-1.093,1.609s-.781-.892-1.095-1.611c-.5-1.143-1.123-2.567-2.56-2.567s-2.057,1.424-2.556,2.569c-.313.717-.7,1.609-1.095,1.609s-.779-.892-1.093-1.611c-.5-1.143-1.123-2.567-2.56-2.567s-2.057,1.424-2.558,2.569c-.313.717-.7,1.609-1.093,1.609s-.779-.892-1.095-1.609c-.5-1.146-1.119-2.569-2.556-2.569h-.276v1.6h.276c.388,0,.777.887,1.095,1.613.5,1.141,1.121,2.565,2.556,2.565s2.055-1.421,2.558-2.569c.313-.717.7-1.609,1.093-1.609s.781.889,1.1,1.613c.5,1.141,1.121,2.565,2.556,2.565s2.057-1.424,2.56-2.574c.311-.715.7-1.6,1.09-1.6s.781.894,1.1,1.616c.5,1.141,1.121,2.563,2.556,2.563s2.057-1.424,2.556-2.569c.313-.717.7-1.609,1.095-1.609s.781.894,1.1,1.613c.5,1.141,1.121,2.565,2.556,2.565s2.059-1.424,2.563-2.574c.313-.715.7-1.6,1.095-1.6s.781.889,1.1,1.611c.5,1.143,1.123,2.567,2.56,2.567h.276v-1.6Z" transform="translate(-298.427 -266.579)" fill="#eb0000"/>
      <path id="Trazado_14324" data-name="Trazado 14324" d="M330.485,274.554c-.5-1.143-1.124-2.565-2.56-2.565s-2.059,1.421-2.56,2.567c-.313.717-.7,1.609-1.1,1.609s-.779-.89-1.095-1.609c-.5-1.143-1.121-2.567-2.558-2.567s-2.057,1.424-2.558,2.567c-.313.717-.7,1.609-1.093,1.609s-.781-.892-1.095-1.609c-.5-1.143-1.123-2.567-2.56-2.567s-2.057,1.424-2.556,2.567c-.313.717-.7,1.609-1.095,1.609s-.781-.892-1.093-1.609c-.5-1.143-1.123-2.567-2.56-2.567s-2.057,1.424-2.558,2.567c-.311.717-.7,1.609-1.093,1.609s-.781-.892-1.095-1.609c-.5-1.143-1.119-2.567-2.556-2.567h-.276v1.6h.276c.391,0,.779.892,1.093,1.613.5,1.141,1.123,2.565,2.558,2.565s2.057-1.424,2.558-2.567c.311-.717.7-1.611,1.093-1.611s.781.894,1.095,1.613c.5,1.141,1.123,2.565,2.558,2.565s2.057-1.424,2.558-2.567c.313-.717.7-1.611,1.093-1.611s.784.894,1.1,1.613c.5,1.141,1.121,2.565,2.558,2.565s2.057-1.424,2.556-2.567c.313-.717.7-1.611,1.095-1.611s.781.894,1.095,1.611c.5,1.143,1.124,2.567,2.558,2.567s2.059-1.424,2.563-2.571c.313-.715.7-1.607,1.095-1.607s.784.892,1.1,1.611c.5,1.143,1.123,2.567,2.56,2.567h.276v-1.6h-.276C331.191,276.165,330.8,275.276,330.485,274.554Z" transform="translate(-298.427 -260.048)" fill="#eb0000"/>
    </g>
  </g>
</svg>
