<svg id="Capa_2" data-name="Capa 2" xmlns="http://www.w3.org/2000/svg" width="77.395" height="77.4" viewBox="0 0 77.395 77.4">
  <g id="Grupo_14152" data-name="Grupo 14152">
    <circle id="Elipse_714" data-name="Elipse 714" cx="36.314" cy="36.314" r="36.314" transform="translate(2.388 2.388)" fill="#e3f4fc"/>
    <path id="Trazado_14329" data-name="Trazado 14329" d="M439.031,349.841a39.443,39.443,0,0,0-5.071.329,1.194,1.194,0,0,0,.153,2.378,1.146,1.146,0,0,0,.155-.01l.019,0,.014,0,.012,0,.014,0h.017l.012,0,.012,0,.017,0h.014l.012,0,.014,0,.017,0h.014l.012,0,.019,0,.012,0h.012l.012,0,.022,0,.01,0h.014l.01,0,.022,0h.012l.014,0,.014,0,.017,0h.01l.017,0,.014,0,.017,0h.01l.022,0,.007,0h.017l.01,0,.021,0h.01l.017,0,.01,0,.021,0h.01l.017,0h.007l.022,0,.01,0,.019,0h.01l.019,0h.01l.022,0,.007,0,.019,0h.009l.022,0h.007l.019,0,.007,0,.024,0h.007l.019,0h.007l.021,0h.01l.019,0,.007,0,.022,0h.01l.022,0h.007l.019,0h.007l.024,0,.007,0h.019l.007,0,.024,0h.007l.019,0h0l.024,0h.01l.021,0h0l.024,0,.007,0,.024,0h0l.022,0h.007l.024,0h0l.021,0h.007l.024,0h0l.022,0h0l.026,0,0,0h.024l0,0,.026,0h0l.026,0h0l.021,0h.007l.024,0h0l.022,0h.007l.024,0h.007l.022,0h0l.024,0h.007l.022,0h0l.026,0h.007l.05,0h0l.026,0h0l.024,0h0l.026,0h0l.024,0h0l.026,0h0l.024,0h.029l0,0,.053,0h0l.026,0h0l.024,0h0l.026,0h0l.024,0h0l.026,0h.031l.026,0h0l.053,0h0l.053,0,0,0h.029l.024,0h0l.026,0h0l.026,0h.031l.055,0h0l.026,0h.031l.026,0h0l.024,0h.036l.024,0h0l.026,0h0l.053,0h0l.026,0h.031l.026,0h.031l.026,0h.029l0,0h.031l.026,0h.031l.055,0h0l.026,0h.031l.026,0h.031l.026,0h.031l.026,0h0l.053,0h.033l.026,0h.062l.026,0h.031l.026,0h.062l.026,0h.062l.024,0h.062l.026,0h.091l.026,0h.093l.024,0h.093l.052,0h.21l.053,0h.239a1.194,1.194,0,1,0,0-2.387Zm-9.75,1.28a1.257,1.257,0,0,0-.31.041,38.908,38.908,0,0,0-4.816,1.643,1.194,1.194,0,1,0,.919,2.2q1.175-.487,2.39-.9h0l.053-.017v0l.026-.007h0l.026-.01h0l.022-.007,0,0,.022-.007.007,0,.019,0,0,0,.022-.007.007,0,.017,0,.007,0,.021-.007.01,0,.014,0,.01,0,.019,0,.012,0,.012,0,.01,0,.019-.007.012,0,.012,0,.012,0,.017-.007.014,0,.007,0,.048-.014,0,0,.05-.014,0,0c.523-.165,1.053-.32,1.585-.463a1.195,1.195,0,0,0-.313-2.347ZM420.2,354.9a1.185,1.185,0,0,0-.6.162,38.794,38.794,0,0,0-4.219,2.839,1.194,1.194,0,1,0,1.461,1.889,36.15,36.15,0,0,1,3.956-2.664h0a1.194,1.194,0,0,0-.6-2.225Zm-7.781,6.014a1.186,1.186,0,0,0-.848.353,38.878,38.878,0,0,0-3.338,3.832,1.193,1.193,0,1,0,1.9,1.447l.012-.014.007-.01.007-.01.007-.01.012-.017.01-.01,0-.007.007-.012,0,0,.019-.024,0,0,.01-.012,0,0,.019-.024,0,0,.01-.014,0,0,.019-.026,0,0,.01-.012,0,0,.033-.043h0l.033-.045h0l.036-.043h0a36.244,36.244,0,0,1,2.863-3.247,1.194,1.194,0,0,0-.85-2.032Zm-5.959,7.821a1.191,1.191,0,0,0-1.036.6,38.507,38.507,0,0,0-2.232,4.572,1.193,1.193,0,0,0,2.208.9c.076-.184.155-.37.232-.554l0,0,.007-.017h0l.014-.031v0l.007-.017,0,0,.012-.026,0,0,0-.014,0-.007.007-.022,0-.01,0-.012,0-.01.007-.014,0-.017,0-.01.007-.012,0-.01.01-.019,0-.01.007-.014,0-.007.007-.022,0-.007.007-.017,0,0,.01-.022,0,0,.007-.019,0,0,.01-.024,0,0,.01-.019v0l.012-.024h0l.01-.024,0,0,.021-.048v0l.022-.05h0l.024-.05h0c.351-.778.731-1.545,1.134-2.292v0l.024-.045,0,0,.012-.024h0l.012-.022,0,0,.012-.021h0l.012-.021,0,0,.012-.021h0l.012-.022,0-.007.01-.017v0l.012-.019,0-.007.007-.017,0,0,.01-.019,0-.01.007-.012,0-.01.01-.017,0-.01.007-.012.007-.012.007-.014.007-.012,0-.007.024-.043,0,0,.024-.045,0,0,.026-.045v0c.05-.086.1-.172.148-.26a1.2,1.2,0,0,0-1.036-1.786Zm-3.722,9.108a1.192,1.192,0,0,0-1.153.893,38.388,38.388,0,0,0-.957,4.995,1.2,1.2,0,0,0,1.039,1.332c.048,0,.1.01.148.01a1.194,1.194,0,0,0,1.182-1.048c.026-.208.055-.415.083-.623h0l.007-.055v0l.01-.055v0l.007-.053v0l.007-.05,0-.007,0-.024v0l0-.024v0l0-.026v0l0-.022,0-.007,0-.024,0,0,0-.019v-.01l0-.022v-.007l0-.019v-.007l0-.024v0l0-.021,0,0,0-.024,0-.007,0-.019v-.007l0-.024v-.007l0-.019v-.007l0-.021v-.007l0-.019,0-.007,0-.024,0-.007,0-.019,0,0,0-.024,0-.007,0-.021v0l0-.022,0-.01,0-.019v-.007l0-.021v-.007l0-.021v0l0-.022v-.01l0-.021v0l0-.021v-.007l0-.024v0l0-.021v-.007l0-.024v0l0-.021v-.007l0-.024v0l0-.019v-.007l0-.024,0,0,0-.022v0l0-.024,0,0,0-.022,0,0,0-.026,0,0,0-.021,0,0,0-.024v0l0-.024v0l0-.026v0l.01-.053v0l.01-.053,0,0,.01-.053v0l.01-.053v0l.012-.055h0l.01-.055h0q.2-1.017.446-2.01h0l.012-.055v0l.014-.05v0l.007-.024v0l.007-.022v-.007l.007-.024v0l0-.019,0-.007.007-.022v-.007l0-.017,0-.01,0-.019,0-.012,0-.007a1.193,1.193,0,0,0-.852-1.456,1.211,1.211,0,0,0-.3-.038Zm-1.213,9.76h-.007a1.2,1.2,0,0,0-1.187,1.2,39.428,39.428,0,0,0,.365,5.071,1.2,1.2,0,0,0,1.182,1.031,1.267,1.267,0,0,0,.165-.012,1.2,1.2,0,0,0,1.019-1.347q-.175-1.253-.26-2.533v0l0-.055v0l0-.029h0V390.9l0-.024v-.007l0-.021v0l0-.024v-.033l0-.024v-.01l0-.019v-.029l0-.01v-.031l0-.014v-.012l0-.021v-.036l0-.019v-.024l0-.026V390.5l0-.014v-.043l0-.017v0l0-.033v0l0-.053v0l0-.053v0l0-.055h0c-.019-.437-.031-.874-.036-1.316v-.062l0-.05v0a1.193,1.193,0,0,0-1.194-1.187Zm1.349,9.741a1.121,1.121,0,0,0-.318.045,1.192,1.192,0,0,0-.833,1.468,38.674,38.674,0,0,0,1.676,4.8,1.193,1.193,0,0,0,2.2-.933,36.155,36.155,0,0,1-1.571-4.508,1.2,1.2,0,0,0-1.151-.876Zm3.844,9.056a1.181,1.181,0,0,0-.6.165,1.2,1.2,0,0,0-.423,1.635,39.145,39.145,0,0,0,2.87,4.2,1.194,1.194,0,1,0,1.879-1.473l-.007-.01,0,0-.012-.019,0,0-.012-.014,0,0-.014-.019,0,0-.012-.014,0,0-.014-.019,0,0-.012-.014,0-.007-.014-.017,0,0-.012-.014,0-.007-.029-.038,0,0-.012-.017,0,0-.014-.019,0,0-.012-.017,0,0-.014-.019,0,0-.012-.017,0,0-.014-.019,0,0-.012-.017,0,0-.014-.019,0,0-.012-.017,0,0-.014-.019,0,0-.014-.019,0,0-.014-.019,0,0-.012-.019,0,0-.014-.019h0l-.014-.019,0,0-.012-.017,0,0-.014-.019,0,0-.012-.017,0,0-.014-.019,0,0-.012-.014,0,0-.014-.019,0,0-.012-.017,0,0-.017-.019,0,0-.012-.017,0,0-.014-.019,0,0-.012-.017,0-.007-.014-.019h0l-.014-.019,0,0-.012-.019h0l-.014-.019,0,0-.012-.019,0,0-.014-.019,0,0-.012-.017,0,0-.014-.022,0,0-.012-.017,0,0-.012-.019,0,0-.012-.017,0,0-.014-.019,0,0-.012-.017,0,0-.014-.019,0,0-.012-.017,0,0-.012-.017,0,0-.012-.017,0-.007-.012-.014,0,0-.012-.019,0-.007-.012-.012,0-.007-.014-.019,0,0-.01-.014,0-.007-.012-.017,0-.007-.01-.014,0-.007-.014-.017,0-.007-.007-.012-.007-.007-.012-.017,0-.01-.01-.012,0-.007-.012-.017,0,0-.01-.017,0-.007-.01-.014-.007-.007-.01-.017-.007-.007-.007-.012-.007-.007-.012-.017,0-.01-.01-.012,0-.007-.012-.017,0-.01-.01-.012,0-.007-.012-.017,0-.01-.01-.012,0-.007-.012-.017,0-.007-.01-.012-.007-.01-.01-.014-.007-.01-.007-.012-.007-.009-.007-.012-.007-.012-.01-.012-.007-.01-.007-.012-.007-.01-.009-.014-.007-.01-.007-.012,0-.007-.014-.017,0-.01-.007-.012-.007-.007-.012-.019,0-.007-.007-.012-.007-.007L409,408.96l0-.007-.007-.012-.007-.01-.01-.014-.007-.01-.007-.012-.007-.01-.007-.012-.01-.012-.007-.012-.007-.01-.007-.012-.007-.01-.01-.014,0-.01-.01-.012,0-.007-.012-.019,0-.007-.01-.012,0-.007-.012-.019,0-.007-.01-.012,0-.007-.012-.019,0-.007-.01-.014,0,0-.014-.019,0-.007-.01-.014,0-.007-.014-.019,0,0-.01-.017,0-.007-.012-.019h0l-.014-.022,0,0-.012-.019h0l-.014-.021,0,0-.012-.019,0,0-.012-.019,0,0-.014-.019v0l-.014-.021,0,0-.012-.019,0,0-.014-.022h0l-.014-.021v0l-.031-.045h0l-.029-.045h0q-.387-.6-.752-1.218a1.2,1.2,0,0,0-1.029-.585Zm6.069,7.74a1.193,1.193,0,0,0-.833,2.046,38.892,38.892,0,0,0,3.856,3.311,1.2,1.2,0,0,0,1.671-.236,1.193,1.193,0,0,0-.239-1.671q-1-.756-1.953-1.576v0l-.041-.033,0,0-.038-.033,0,0-.019-.017h0l-.019-.017,0,0-.017-.014,0,0-.017-.017,0,0-.014-.014,0,0-.019-.014,0,0-.014-.012-.007,0-.017-.014,0,0-.012-.012-.007,0-.014-.012-.007-.007-.014-.012-.007-.007-.012-.01-.007-.007-.014-.012-.007-.007-.01-.01-.007-.007-.017-.012-.007-.007-.01-.01-.009-.007-.014-.014-.01-.007-.007-.007-.01-.007-.012-.012-.012-.012-.007,0-.01-.01-.007,0-.019-.017,0-.007-.012-.01,0,0-.019-.017,0,0-.012-.01,0,0-.024-.021h0l-.012-.012,0,0-.038-.036,0,0-.038-.036h0l-.038-.036,0,0-.041-.036,0,0-.012-.012h0l-.079-.074,0,0-.041-.036v0l-.041-.036h0l-.136-.129h0l-.041-.038h0l-.041-.036,0,0-.038-.036,0,0-.038-.038h0l-.055-.052h0l-.024-.024,0,0-.012-.01,0,0-.022-.021,0,0-.012-.01,0,0-.022-.022,0,0-.01-.01-.007-.007-.01-.007-.01-.01-.014-.014-.007-.007-.007-.007-.012-.012-.012-.01-.01-.01-.007-.007-.012-.012-.007-.01-.012-.01-.007-.007-.012-.012-.007-.007-.014-.014,0,0-.014-.012,0,0-.017-.017,0,0-.014-.014,0,0,0,0a1.187,1.187,0,0,0-.836-.339Zm7.867,5.9a1.195,1.195,0,0,0-.587,2.235,38.639,38.639,0,0,0,4.586,2.2,1.212,1.212,0,0,0,.444.086,1.194,1.194,0,0,0,.447-2.3q-.767-.308-1.516-.647h0l-.048-.024h0l-.048-.022,0,0-.045-.021-.007,0-.012-.007-.01,0-.019-.007-.01,0-.012,0-.012-.007-.017-.007-.012,0-.01,0-.014-.007-.012,0-.014-.007-.01,0-.014-.007-.01,0-.017-.01-.007,0-.019-.01,0,0-.022-.01,0,0-.019-.01h0l-.022-.012,0,0-.019-.01h0l-.024-.012,0,0-.021-.01h0l-.024-.012h0l-.024-.012h0l-.05-.024h0q-.906-.433-1.783-.914h0l-.045-.026,0,0-.045-.024,0,0-.022-.012h0l-.022-.012,0,0-.019-.01,0,0-.022-.012-.007,0-.014-.007-.007,0-.019-.01-.007,0-.012-.007-.01,0-.019-.01-.01-.007-.01,0-.012-.007-.007,0-.022-.012-.007,0-.012-.007h0a1.187,1.187,0,0,0-.585-.155Zm9.13,3.658a1.193,1.193,0,0,0-.294,2.349,38.949,38.949,0,0,0,5,.924,1.313,1.313,0,0,0,.138.007,1.194,1.194,0,0,0,.139-2.38q-.981-.115-1.941-.279h0l-.055-.009h0l-.055-.01h0l-.053-.01h0l-.029,0h0l-.026,0,0,0-.026,0h0l-.024,0h0l-.026,0h0l-.024,0h0l-.024,0h0l-.024,0h0l-.026,0,0,0-.024,0,0,0-.026,0h0l-.024,0h0l-.026,0h0l-.024,0h0l-.024,0,0,0-.026,0h0l-.024,0h-.007l-.024,0h0l-.019,0-.007,0-.024,0h0l-.024,0h0l-.024,0h0l-.021,0,0,0-.026,0h0l-.019,0h-.007l-.021,0-.007,0-.019,0-.007,0-.024,0h0l-.022,0h0l-.024,0-.007,0-.019,0h0l-.024,0-.007,0-.019,0,0,0-.024,0h-.007l-.022,0h0l-.024-.007h-.007l-.024,0h0l-.024,0-.007,0-.05-.01,0,0-.05-.01h0l-.05-.012h0l-.053-.012h0l-.053-.012h0l-.053-.012h0c-.4-.088-.8-.181-1.194-.282a1.234,1.234,0,0,0-.294-.036Zm14.683.757a1.354,1.354,0,0,0-.17.012q-1.443.211-2.917.306h0l-.053,0h0l-.052,0h0l-.031,0H441.2l-.026,0h-.024l-.007,0h-.026l-.01,0h-.029l-.017,0h-.024l-.022,0h-.036l-.022,0h-.026l-.012,0H440.9l-.021,0h-.029l-.007,0h-.029l-.022,0h-.036l-.024,0H440.7l-.055,0h0c-.365.017-.733.026-1.1.033a1.194,1.194,0,0,0,.017,2.388h.017a38.965,38.965,0,0,0,5.066-.4,1.194,1.194,0,0,0-.169-2.376Zm9.462-2.684a1.171,1.171,0,0,0-.47.1q-.58.251-1.17.482h0l-.031.012,0,0-.014,0-.007,0-.024.01-.007,0-.014.007-.007,0-.021.007-.01,0-.012,0-.012,0-.014,0-.014,0-.01,0-.014,0-.009,0-.019.007-.01,0-.014.007-.007,0-.021.007-.007,0-.019.007,0,0-.022.01,0,0-.022.007h0l-.024.01,0,0-.021.007h0l-.024.01,0,0q-1.407.53-2.87.945a1.194,1.194,0,1,0,.652,2.3,38.4,38.4,0,0,0,4.792-1.709,1.194,1.194,0,0,0-.475-2.29Zm8.433-5.061a1.193,1.193,0,0,0-.742.26,36.02,36.02,0,0,1-3.1,2.213l0,0-.021.014h0l-.021.012,0,0-.024.014h0l-.019.012,0,0-.043.026,0,0-.019.012,0,0-.019.012-.007,0-.014.007,0,0-.019.012-.01,0-.012.007-.007,0-.017.012-.012.007-.01,0-.01.007-.017.01-.012.007-.007,0-.012.007,0,0-.024.014,0,0-.014.01h0l-.029.017,0,0-.014.01h0l-.048.029h0c-.107.067-.215.131-.322.2a1.194,1.194,0,0,0,1.232,2.046,38.789,38.789,0,0,0,4.178-2.9,1.194,1.194,0,0,0-.745-2.127Zm6.835-7.072a1.193,1.193,0,0,0-.96.482c-.614.828-1.263,1.631-1.941,2.4l0,0-.033.038,0,0-.033.038,0,0-.017.019h0l-.019.019v0l-.017.019h0l-.017.019,0,0-.014.017,0,0-.017.017,0,0-.014.017,0,0-.017.017,0,0-.014.014,0,0-.017.019h0l-.014.017,0,0-.014.017,0,0-.017.017,0,0-.012.017,0,0-.014.017,0,.007-.012.012,0,0-.014.017-.007.007-.01.01-.007.007-.014.017,0,.007-.012.012,0,0-.014.017-.007.007-.01.01-.007.007-.012.014-.007.007-.012.012-.007.007-.01.012-.01.01-.01.012-.007.01-.01.01-.007.007-.014.014-.007.01-.007.007-.01.009-.012.014-.01.007-.007.01-.007.01-.014.014-.009.01-.007.007-.007.01-.01.01-.012.012-.007.01-.01.01-.01.01-.012.012-.007.01-.01.01-.007.007-.012.014-.01.01-.01.007-.007.01-.014.014-.007.007-.007.01-.01.007-.007.01-.014.014-.01.01,0,.007-.01.01-.007.007-.017.017,0,.007-.01.01-.007.007-.014.017-.007.007-.01.01,0,0-.017.019-.007,0-.01.01-.007.007-.014.017-.007.007-.01.01-.007.007-.014.017-.007.007-.01.009-.007.007-.007.01-.014.012-.01.01-.007.007-.01.01-.01.012,0,0a1.194,1.194,0,1,0,1.717,1.659,38.867,38.867,0,0,0,3.285-3.88,1.192,1.192,0,0,0-.957-1.9Zm4.765-8.6a1.2,1.2,0,0,0-1.113.757q-.5,1.278-1.1,2.509v0l-.024.048v0l-.024.045v0l-.024.045,0,0-.01.019v0l-.012.024,0,0-.01.019v0l-.012.021,0,.007-.007.017,0,0-.01.021,0,.007-.007.014,0,.007-.01.019,0,.01-.007.012,0,.01-.007.019-.007.012,0,.007,0,.012-.007.014-.007.014,0,.009-.007.012,0,.007-.012.024,0,0-.007.014,0,0-.014.031v0c-.215.423-.435.838-.664,1.251a1.2,1.2,0,0,0,.468,1.619,1.18,1.18,0,0,0,.578.15,1.192,1.192,0,0,0,1.046-.616,38.8,38.8,0,0,0,2.165-4.6,1.192,1.192,0,0,0-1.11-1.631Zm2.352-9.552a1.2,1.2,0,0,0-1.187,1.065,36.256,36.256,0,0,1-.831,4.7,1.192,1.192,0,0,0,.874,1.444,1.3,1.3,0,0,0,.284.034,1.2,1.2,0,0,0,1.16-.907,38.58,38.58,0,0,0,.886-5.009,1.2,1.2,0,0,0-1.055-1.318,1.239,1.239,0,0,0-.131-.007Zm-.2-9.832a1.2,1.2,0,0,0-1.182,1.37q.226,1.479.329,2.992h0l0,.055,0,0,0,.036h0v.022l0,.031v0l0,.017v.033l0,.01v.029l0,.017v.012l0,.012v.033l0,.014v.031l0,.01v.026l0,.024v.007l0,.024v.033l0,.024v0l0,.026v.031h0l0,.029h0l0,.029h0c.019.38.033.762.041,1.144a1.191,1.191,0,0,0,1.191,1.167h.026a1.194,1.194,0,0,0,1.17-1.218,39.39,39.39,0,0,0-.435-5.064,1.194,1.194,0,0,0-1.179-1.015Zm-2.753-9.445a1.2,1.2,0,0,0-1.091,1.674c.062.143.124.284.184.427h0l.021.05,0,0,.012.029,0,0,0,.014,0,.007.01.022,0,.01,0,.012,0,.01,0,.014.007.017,0,.01,0,.012,0,.01.007.019,0,.01,0,.014,0,.007.01.022,0,.007.007.017,0,0,.01.024,0,0,.007.019,0,0,.01.021,0,0,.007.021,0,0,.01.024v0l.01.022,0,0,.01.026h0l.01.024v0l.021.05h0q.222.552.43,1.11v0l.019.05v0l.019.05h0l.019.05v0l.019.05v0l.017.048,0,0,.01.024h0l.007.024,0,0,.01.024h0l.007.021,0,.007.007.021,0,0,.007.021,0,.007.007.021,0,0,0,.019,0,.007,0,.019,0,.007.007.019,0,.007.007.017,0,.01.007.019,0,.01,0,.014,0,.012,0,.017,0,.01,0,.014,0,.01.007.019,0,.01,0,.012.007.017,0,.012,0,.014,0,.01.007.021,0,.007,0,.014,0,.007.01.031h0l0,.017,0,0,.014.048,0,0,.017.048v0l.017.05,0,0,.017.053h0c.143.432.279.867.408,1.308a1.193,1.193,0,0,0,1.144.857,1.144,1.144,0,0,0,.334-.048,1.194,1.194,0,0,0,.814-1.48,38.791,38.791,0,0,0-1.743-4.78,1.2,1.2,0,0,0-1.094-.711Zm-5.119-8.4a1.191,1.191,0,0,0-.931,1.939c.339.423.671.85.991,1.287h0l.033.045v0l.033.043h0l.031.043,0,0,.031.041,0,0,.01.014v0l.021.026v0l.012.014v0l.019.026,0,0,.009.012,0,0,.019.026,0,0,.01.012,0,0,.029.041,0,0,.029.041,0,0,.01.012,0,0,.017.024,0,0,.007.012,0,0,.014.024,0,0,.01.012,0,.007.012.019.007.007.007.012,0,.007.012.017.007.01.007.012.007.01.012.014,0,.01.01.012,0,.007.007.012.012.014.007.012,0,.007.007.012.012.014.007.012.007.007.007.01,0,.01.012.017.007.01.007.012.007.007.01.017.007.01.007.01.007.012.01.014.007.01.007.01.007.01.01.014.007.012.007.01.007.01.007.012.012.014,0,.01.007.009.007.012.012.014,0,.01.007.012.007.01.012.017,0,.007.007.012.007.01.01.012.007.012.007.012.007.01.007.012.01.014.007.01.007.01.007.01.01.014.007.012.007.01.007.012,0,.01.012.014.007.01.007.012,0,.01.012.017,0,.007.01.012,0,.01.012.017,0,.01.007.01.007.01.012.017,0,.007.007.014,0,.007.01.014.007.01.01.014,0,.007.01.014,0,.01.012.014,0,.01.007.012.007.007.01.019.007.007.007.014,0,0,.012.019,0,.007.01.014,0,.007.012.017,0,.007.007.014,0,.007.012.019,0,0,.01.014,0,.007.012.019,0,.007.007.014.007.007.01.017,0,0,.012.017,0,.007.01.014,0,.007.014.017,0,.01.007.012,0,.007.012.019,0,.007.01.012,0,.01.012.017,0,.007.01.014,0,.007.012.019,0,.007.01.014,0,0,.012.019,0,.007.01.014,0,.007.012.019,0,0,.01.019,0,0,.01.017,0,0,.012.019,0,.007.01.014,0,.007.012.019,0,0,.01.017,0,0,.012.019,0,.007.01.014,0,.007.012.019,0,0,.01.017,0,0,.012.021,0,0,.01.017,0,.007.012.019,0,0,.01.017,0,.007.012.017v0l.012.019,0,0,.01.017,0,0,.014.019,0,.007.01.017,0,0,.014.019,0,.007.01.014,0,0,.012.019a1.2,1.2,0,0,0,1.02.573,1.178,1.178,0,0,0,.621-.177,1.192,1.192,0,0,0,.4-1.64,38.992,38.992,0,0,0-2.927-4.157,1.186,1.186,0,0,0-.929-.444Zm-7.119-6.785a1.194,1.194,0,0,0-.707,2.156q1.483,1.081,2.844,2.3h0l.055.05h0l.043.038h0l.041.036,0,0,.038.036,0,0,.038.033,0,0,.012.01v0l.024.021,0,0,.01.01.007,0,.017.017.007.007.01.007.01.007.014.014.007.007.01.01.01.007.01.01.014.012.007.007.01.01.007.007.017.014.007.007.01.01.007,0,.017.017,0,0,.012.012.007,0,.017.014,0,0,.012.012,0,.007.019.014v0l.017.014,0,0,.036.033,0,0,.038.036,0,0,.017.017h0l.019.019h0l.019.019h0l.041.036v0l.038.036h0l.033.031a1.194,1.194,0,0,0,1.647-1.728,39.394,39.394,0,0,0-3.9-3.259,1.187,1.187,0,0,0-.7-.229Zm-8.638-4.706a1.194,1.194,0,0,0-.432,2.306,36.3,36.3,0,0,1,4.106,1.879h0l.048.026,0,0,.043.024.007,0,.019.012.01,0,.012.007.01,0,.01,0,.019.01.01,0,.012.007.007,0,.019.01a1.173,1.173,0,0,0,.571.146,1.194,1.194,0,0,0,.573-2.242,39.008,39.008,0,0,0-4.617-2.134,1.178,1.178,0,0,0-.43-.079Zm-9.569-2.287a1.195,1.195,0,0,0-.119,2.383h.014l.01,0,.024,0h.01l.014,0h.012l.019,0,.012,0h.014l.012,0,.019,0h.012l.012,0,.014,0h.019l.012,0h.012l.017,0,.017,0h.012l.012,0,.019,0,.012,0h.012l.014,0,.019,0h.012l.012,0h.012l.021,0,.01,0,.014,0h.012l.021,0,.01,0h.014l.012,0,.019,0h.012l.014,0,.012,0,.019,0h.01l.017,0,.014,0,.017,0h.01l.017,0,.014,0,.014,0h.012l.017,0,.014,0h.014l.012,0,.017,0,.014,0h.014l.01,0,.019,0,.014,0h.012l.012,0,.021,0,.01,0h.014l.01,0,.022,0,.012,0,.014,0h.01l.021,0,.01,0,.017,0h.01l.019,0,.012,0,.014,0h.01l.022,0h.01l.017,0,.01,0,.021,0H444l.017,0,.01,0,.019,0,.012,0,.017,0h.012l.017,0,.01,0,.019,0,.012,0,.014,0h.012l.019,0,.01,0,.017,0,.01,0,.021,0h.01l.017,0,.01,0,.022,0,.01,0,.014,0h.01l.021,0h.01l.017,0,.01,0,.021,0,.01,0,.017,0h.007l.022,0h.01l.017,0,.01,0,.021,0,.01,0,.017,0,.01,0,.019,0h.01l.019,0h.01l.019,0,.01,0,.019,0,.01,0,.017,0,.01,0,.024,0,0,0,.019,0h.01l.022,0h.007l.017,0h.01l.021,0h.007l.019,0,.007,0,.024,0,.007,0,.017,0,.01,0,.022,0,.007,0,.019,0,.007,0,.024,0,.007,0,.019,0h0l.024,0,.007,0,.021,0h0l.024,0h.007l.024,0h0l.024,0h.007l.024,0h0l.024,0h.007l.024,0h0l.024,0h0l.026,0h0l.024,0,.007,0,.024,0,0,0,.024,0,0,0,.024,0,0,0,.022,0,0,0,.026,0h0l.024,0h0l.026,0h0l.024,0h0l.026,0h0l.029,0h0l.026,0,0,0,.053.01h0l.055.01h0l.055.01,0,0,.053.01h0l.055.01h0c.525.1,1.048.215,1.564.339a1.236,1.236,0,0,0,.279.031,1.193,1.193,0,0,0,.275-2.354,38.917,38.917,0,0,0-5.014-.852,1.077,1.077,0,0,0-.124-.007Z" transform="translate(-400.33 -349.841)" fill="#1380a1"/>
  </g>
  <g id="Grupo_14153" data-name="Grupo 14153" transform="translate(11.62 23.089)">
    <path id="Trazado_14330" data-name="Trazado 14330" d="M423.268,371.434c-1.344-1.48-2.867-3.347-5.2-2.906s-3.092,2.736-3.818,4.606c-.454,1.172-1.084,2.631-1.829,2.676s-1.545-1.33-2.137-2.44c-.95-1.776-1.97-3.963-4.414-4.135-.186-.012-.282-.019-.468-.036-.081,1-.119,1.5-.2,2.5.2.014.3.024.494.036.7.05,1.32,1.478,1.877,2.626.879,1.819,2.142,4.118,5,3.951s3.808-2.6,4.455-4.508c.4-1.2.838-2.688,1.509-2.815s1.619,1.105,2.428,2.077c1,1.2,2.3,2.6,4.075,2.772l-.752-3.383C423.929,372.133,423.581,371.778,423.268,371.434Z" transform="translate(-405.197 -347.094)" fill="#1380a1"/>
    <path id="Trazado_14331" data-name="Trazado 14331" d="M432.771,359.512c-.1.189-.15.284-.253.47-.363.666-1.953.633-3.221.552-2.01-.124-4.414-.406-5.828,1.542s-.384,4.126.375,5.985a9.455,9.455,0,0,1,.666,2.228l2.2,1.977c1.182-1.893.349-3.989-.4-5.625-.525-1.148-1.222-2.535-.817-3.094s1.943-.329,3.206-.189c2.008.222,4.62.384,6.014-2.177.107-.2.16-.3.265-.494C434.1,360.216,433.655,359.982,432.771,359.512Z" transform="translate(-380.82 -359.512)" fill="#1380a1"/>
    <path id="Trazado_14332" data-name="Trazado 14332" d="M437.643,365.126c-.5.535-2.017.081-3.209-.327-1.9-.652-4.133-1.552-5.957-.05s-1.358,3.863-1.079,5.847c.177,1.239.344,2.81-.275,3.2s-1.965-.435-3.011-1.127c-1.667-1.1-3.6-2.535-5.735-1.537s-2.268,3.4-2.488,5.393c-.136,1.246-.37,2.81-1.067,3.037-.437.141-1.039-.272-1.633-.819l.752,3.383a4.072,4.072,0,0,0,1.652-.181c2.672-.864,2.977-3.45,3.111-5.453.084-1.256.127-2.805.738-3.092s1.831.671,2.853,1.413c1.621,1.177,3.8,2.6,6.167,1.1s2.02-4.073,1.654-6.048c-.232-1.239-.571-2.753-.048-3.182s1.946.193,3.118.654c1.869.733,4.338,1.564,6.279-.494a4.4,4.4,0,0,0,.535-.707l-2.2-1.977A1.229,1.229,0,0,1,437.643,365.126Z" transform="translate(-394.107 -353.382)" fill="#eb0000"/>
  </g>
</svg>
