<svg xmlns="http://www.w3.org/2000/svg" width="475" height="300.099" viewBox="0 0 475 300.099">
  <g id="Grupo_12449" data-name="Grupo 12449" transform="translate(-1134.246 -333.927)">
    <path id="Trazado_13916" data-name="Trazado 13916" d="M1150.431,584.451a29.459,29.459,0,0,0,9.375,5.1h436.217c.778-1.637,1.483-3.3,2.124-4.937,8.872-22.658,13.232-47.393,10.075-71.52S1594,465.526,1575.666,449.53c-22.375-19.519-53.542-26.807-75.438-46.861-16.406-15.026-26.393-36.168-43.344-50.575a77.651,77.651,0,0,0-62.789-17.058c-30.368,5.335-54.329,28.07-75.759,50.239-15.242,15.766-30.622,32.081-49.56,43.482-20.057,12.073-43.18,16.234-65.228,23.3-19.34,6.2-38.957,14.59-51.948,30.2-19.955,23.979-23.773,70.7-5.824,97.067A24.675,24.675,0,0,0,1150.431,584.451Z" transform="translate(0 0)" fill="#e1f5fb" opacity="0.5"/>
    <g id="Grupo_12437" data-name="Grupo 12437" transform="translate(1382.975 380.946)">
      <path id="Trazado_13917" data-name="Trazado 13917" d="M1402.734,567.713c-.229-.058-.45-.121-.65-.168a45.164,45.164,0,0,1-4.974-1.5c-1.212-.44-7.229-2.381-6.129-4.566.89-1.764,9.4-.279,11.143-.1q2.977.3,5.929.8c1.107.187,4.488,1.5,5.444,1.1-2.044.854-4,1.9-5.987,2.876a17.08,17.08,0,0,1-3.494,1.686A3.066,3.066,0,0,1,1402.734,567.713Z" transform="translate(-1335.549 -339.046)" fill="#e8a38c"/>
      <path id="Trazado_13918" data-name="Trazado 13918" d="M1428.419,580.813a64.023,64.023,0,0,0-29.214,7.669,31.952,31.952,0,0,1-6.393,2.993c-.714.2-2.39.762-2.926-.065-.519-.8.919-2.2,1.369-2.752a21.762,21.762,0,0,1,2.752-2.823,18.241,18.241,0,0,1,6.6-3.7l-18.529,6.212a4.31,4.31,0,0,1-1.694.325,1.473,1.473,0,0,1-1.332-.943c-.268-.925.711-1.7,1.556-2.161,5.7-3.121,11.115-6.835,17.135-9.289l-21.379,7.682c-1.123.4-2.649.68-3.276-.335a1.8,1.8,0,0,1,.292-2.023,5.234,5.234,0,0,1,1.794-1.214c6.75-3.3,13.768-7,20.7-9.9l-17.761,5.054c-.864.245-2.023.379-2.449-.412-.487-.9.551-1.854,1.453-2.347a87.45,87.45,0,0,1,47.632-10.46C1425.389,568.009,1427.455,575.172,1428.419,580.813Z" transform="translate(-1338.868 -338.77)" fill="#e8a38c"/>
      <path id="Trazado_13919" data-name="Trazado 13919" d="M1399.424,497.349a528.091,528.091,0,0,1-23.827,67.195h-31.422q13.16-47.529,29.041-94.246c.446-1.309,3.232-1.572,4.556-1.174a9.354,9.354,0,0,1,3.44,2.254C1389.292,478.7,1394.813,487.466,1399.424,497.349Z" transform="translate(-1344.175 -355.99)" fill="#e8a38c"/>
      <path id="Trazado_13920" data-name="Trazado 13920" d="M1422.938,449.595a6.16,6.16,0,0,0,1.7-3.184,92.794,92.794,0,0,0,.369-9.844,201.148,201.148,0,0,0-.424-21.813c3.289,11.3,12.622,20.6,23.672,24.646-.423,1.8-.806,3.617-1.07,5.45a6.481,6.481,0,0,0,2.933,6.6,19.847,19.847,0,0,0,6.174,2.614,57.641,57.641,0,0,1-4.673,10.2,17.1,17.1,0,0,1-20.262,8.468,28.368,28.368,0,0,1-19.006-15.48c-1.044-2.258-1.517-2.79,1.173-3.283a21.9,21.9,0,0,0,5.95-1.812A12.639,12.639,0,0,0,1422.938,449.595Z" transform="translate(-1331.726 -366.007)" fill="#e8a38c"/>
      <path id="Trazado_13921" data-name="Trazado 13921" d="M1459.711,446.2c.111.024.235.058.366.09.862.207,1.737.371,2.6.563q2.6.574,5.184,1.2,5.172,1.244,10.3,2.68t10.188,3.06l1.164.375c6.185,2.014,12.587,4.428,16.845,9.345,4.42,5.1,5.829,12.073,7.082,18.707L1527.6,557.27c1.358,7.2-3.713,9.3-9.027,14.342s-12.111,8.172-18.776,11.213c-19.787,9.026-36.365,12.808-73.635,20.979-4.345-4.306-7.9-15.162-8.8-20.522,18.641-10.591,21.622-11.935,28.231-14.5h-59.352c.853-20.556,1.1-29.1,3.364-42.981a132.827,132.827,0,0,1,5-20.3c4.325-14.2-11.9-27.967-24.644-35.569,16.384-9.775,34.712-19.23,53.527-22.381a18.036,18.036,0,0,0,25.79,11.839,19.036,19.036,0,0,0,5.941-4.693,17.48,17.48,0,0,0,3.528-6.679c.121-.449.214-.9.306-1.357C1459.147,446.166,1459.383,446.137,1459.711,446.2Z" transform="translate(-1339.41 -360.199)" fill="#f8e6e0"/>
      <path id="Trazado_13922" data-name="Trazado 13922" d="M1465.558,419.816a36.851,36.851,0,0,1-4.717,16.32,23.693,23.693,0,0,1-12.929,10.673,17.546,17.546,0,0,1-16.2-2.835c-3.431-2.853-5.437-7.059-6.9-11.276a44.666,44.666,0,0,1-2.716-14.713,27.632,27.632,0,0,1,3.814-14.347,22.975,22.975,0,0,1,33.314-6.428,17.813,17.813,0,0,1,4.892,4.821c1.127,1.934,1.031,4.7,1.226,6.851A68.489,68.489,0,0,1,1465.558,419.816Z" transform="translate(-1329.772 -370.091)" fill="#e8a38c"/>
      <path id="Trazado_13923" data-name="Trazado 13923" d="M1446.738,415.061q.521,5.088.843,10.2a4.866,4.866,0,0,1-.4,2.853,2.547,2.547,0,0,1-3.829.429" transform="translate(-1325.846 -365.951)" fill="none" stroke="#b67b60" stroke-miterlimit="10" stroke-width="0.75"/>
      <path id="Trazado_13924" data-name="Trazado 13924" d="M1422.76,412.787c2.789.606,6.379-1.534,8.32-3.3,2.266-2.055,4.435-4.532,7.421-5.191a10.429,10.429,0,0,1,6.336.955c1.989.873,3.825,2.064,5.8,2.979a22.729,22.729,0,0,0,20.116-.568,21.649,21.649,0,0,0,11.071-16.712,13.029,13.029,0,0,0-1.231-7.362,7.522,7.522,0,0,0-5.981-4.086c-3.936-.192-7.377,3.39-11.3,3-2.85-.282-5.018-2.558-7.229-4.383-3.714-3.065-8.572-5.192-13.307-4.31-5.339.994-9.283,5.483-12.282,10.011-.645.973-1.391-1.365-2.314-2.079s-1.794-1.638-2.95-1.8c-5.5-.755-7.557,11.24-7.891,14.819-.474,5.069,0,11.82,2.877,16.217A3.985,3.985,0,0,0,1422.76,412.787Z" transform="translate(-1330.682 -373.611)" fill="#2c4162"/>
      <path id="Trazado_13925" data-name="Trazado 13925" d="M1425.158,404.042a8.16,8.16,0,0,0-2.662-2.6,3.928,3.928,0,0,0-3.6-.2c-1.6.819-2.153,2.822-2.269,4.614a18.017,18.017,0,0,0,6.084,14.541,2.545,2.545,0,0,0,1.924.828c.786-.12,1.293-.878,1.653-1.586A14.258,14.258,0,0,0,1425.158,404.042Z" transform="translate(-1330.791 -368.569)" fill="#e8a38c"/>
      <path id="Trazado_13926" data-name="Trazado 13926" d="M1452.9,418.79c-.287.335-.73.648-1.136.479-1.326-.552.082-3.341.612-4,.717-.891,1.926-.432,2.823-.037a.449.449,0,0,1,.221.16.3.3,0,0,1-.036.331.63.63,0,0,1-.288.194,4.566,4.566,0,0,0-.8.243c-.494.3-.4.665-.551,1.133A4.427,4.427,0,0,1,1452.9,418.79Z" transform="translate(-1324.392 -366.007)" fill="#3b365b"/>
      <path id="Trazado_13927" data-name="Trazado 13927" d="M1440.392,416.049c-.286.335-.728.648-1.135.479-1.326-.552.081-3.341.611-4,.717-.891,1.927-.432,2.824-.038a.464.464,0,0,1,.221.161.3.3,0,0,1-.035.331.643.643,0,0,1-.289.194,4.716,4.716,0,0,0-.8.242c-.494.3-.4.666-.55,1.133A4.413,4.413,0,0,1,1440.392,416.049Z" transform="translate(-1326.703 -366.514)" fill="#3b365b"/>
      <path id="Trazado_13928" data-name="Trazado 13928" d="M1425.487,405.122a74.4,74.4,0,0,0,11.246,12.249c4.242,3.719,9.5,6.539,15.13,6.866s11.6-2.2,14.433-7.082l.672.085a36.417,36.417,0,0,1-13.172,26.7,21.437,21.437,0,0,1-9.723,4.933c-8.746,1.553-15.2-6.361-18.3-13.586a78.279,78.279,0,0,1-4.75-16.469,4.047,4.047,0,0,0,3.645,1.052,3.6,3.6,0,0,0,2.265-2.276,8.721,8.721,0,0,0,.4-3.288A29.527,29.527,0,0,0,1425.487,405.122Z" transform="translate(-1329.971 -367.788)" fill="#f8e6e0"/>
      <path id="Trazado_13929" data-name="Trazado 13929" d="M1457.089,412.213a1.7,1.7,0,0,1,.546.472.612.612,0,0,1,.026.681c-.2.276-.624.232-.96.153a27.37,27.37,0,0,1-5.639-2c-.368-.179-.784-.445-.784-.854C1450.279,408.343,1456.414,411.787,1457.089,412.213Z" transform="translate(-1324.564 -366.911)" fill="#3b365b"/>
      <path id="Trazado_13930" data-name="Trazado 13930" d="M1437.64,408a1.7,1.7,0,0,0-.706.146.614.614,0,0,0-.354.583c.045.341.434.507.764.6a27.3,27.3,0,0,0,5.9.994c.407.024.9-.007,1.1-.364C1445.474,407.936,1438.438,407.962,1437.64,408Z" transform="translate(-1327.097 -367.257)" fill="#3b365b"/>
      <path id="Trazado_13931" data-name="Trazado 13931" d="M1418.389,405.711a2.515,2.515,0,0,1,2.427-1.716,3.607,3.607,0,0,1,2.727,1.447,6.552,6.552,0,0,1,1.2,2.928" transform="translate(-1330.458 -367.996)" fill="none" stroke="#b67b60" stroke-miterlimit="10" stroke-width="0.75"/>
      <path id="Trazado_13932" data-name="Trazado 13932" d="M1421.553,404.186a6.563,6.563,0,0,0-1.646,4,19.539,19.539,0,0,0,.268,4.39" transform="translate(-1330.185 -367.961)" fill="none" stroke="#b67b60" stroke-miterlimit="10" stroke-width="0.75"/>
      <path id="Trazado_13933" data-name="Trazado 13933" d="M1435.766,452.184a36.7,36.7,0,0,1,7.146-2.57" transform="translate(-1327.247 -359.564)" fill="none" stroke="#b67b60" stroke-miterlimit="10" stroke-width="0.75"/>
      <path id="Trazado_13934" data-name="Trazado 13934" d="M1431.058,452.373a39.338,39.338,0,0,0-9.925-2.823" transform="translate(-1329.951 -359.576)" fill="none" stroke="#b67b60" stroke-miterlimit="10" stroke-width="0.75"/>
      <path id="Trazado_13935" data-name="Trazado 13935" d="M1429.6,424.451a26.257,26.257,0,0,0,20.7,11.028" transform="translate(-1328.386 -364.215)" fill="none" stroke="#3b365b" stroke-miterlimit="10" stroke-width="0.75"/>
      <path id="Trazado_13936" data-name="Trazado 13936" d="M1429.4,429.955a26.66,26.66,0,0,0,14.654,8.471" transform="translate(-1328.423 -363.198)" fill="none" stroke="#3b365b" stroke-miterlimit="10" stroke-width="0.75"/>
      <path id="Trazado_13937" data-name="Trazado 13937" d="M1433.983,421.422a24.471,24.471,0,0,0,24.1,4.684" transform="translate(-1327.576 -364.775)" fill="none" stroke="#3b365b" stroke-miterlimit="10" stroke-width="0.75"/>
      <path id="Trazado_13938" data-name="Trazado 13938" d="M1395.385,483.493c-2.649-7.65-7.5-14.33-12.661-20.57-.915-1.107-2.059-2.3-3.492-2.225-1.743.095-2.762,1.968-4.226,2.917a12.158,12.158,0,0,1-4.194,1.223c-1.434.306-2.964.942-3.57,2.277-.726,1.6.181,3.447.2,5.207.033,3.867-4.153,6.678-4.486,10.531a1.911,1.911,0,0,0,.653,1.84,2.406,2.406,0,0,0,1.3.219c6.135-.026,11.918,3.264,16.171,7.687s7.2,9.912,9.987,15.377a1.869,1.869,0,0,0,2.719.841,4.61,4.61,0,0,0,1.556-1.936,25.985,25.985,0,0,0,2.028-18.274C1396.9,486.862,1395.982,485.22,1395.385,483.493Z" transform="translate(-1340.707 -357.516)" fill="#f8e6e0"/>
      <path id="Trazado_13939" data-name="Trazado 13939" d="M1368,472.569a33.575,33.575,0,0,1,14.443,13.043" transform="translate(-1339.772 -355.321)" fill="none" stroke="#2c4162" stroke-miterlimit="10" stroke-width="0.75"/>
      <path id="Trazado_13940" data-name="Trazado 13940" d="M1379.948,475.373a56.779,56.779,0,0,1,7.412,20.612" transform="translate(-1337.563 -354.803)" fill="none" stroke="#2c4162" stroke-miterlimit="10" stroke-width="0.75"/>
      <path id="Trazado_13941" data-name="Trazado 13941" d="M1374.654,463.938a23.526,23.526,0,0,1,4.915,5.838" transform="translate(-1338.542 -356.917)" fill="none" stroke="#2c4162" stroke-miterlimit="10" stroke-width="0.75"/>
      <path id="Trazado_13942" data-name="Trazado 13942" d="M1379.086,463.4a75.843,75.843,0,0,1,8.183,18.4" transform="translate(-1337.722 -357.016)" fill="none" stroke="#2c4162" stroke-miterlimit="10" stroke-width="0.75"/>
      <path id="Trazado_13943" data-name="Trazado 13943" d="M1390.777,488.227a58.533,58.533,0,0,1-1.017,9.7" transform="translate(-1335.749 -352.428)" fill="none" stroke="#2c4162" stroke-miterlimit="10" stroke-width="0.75"/>
      <path id="Trazado_13944" data-name="Trazado 13944" d="M1397.332,492a16.2,16.2,0,0,0-6.468,6.921" transform="translate(-1335.546 -351.73)" fill="none" stroke="#2c4162" stroke-miterlimit="10" stroke-width="0.75"/>
      <path id="Trazado_13945" data-name="Trazado 13945" d="M1469.422,492.755c1.434,14.009,4.37,30.474,5.8,44.483-12.975,5.39-22.231,11.5-39.844,21.724" transform="translate(-1327.318 -351.591)" fill="none" stroke="#2c4162" stroke-miterlimit="10" stroke-width="0.75"/>
      <path id="Trazado_13946" data-name="Trazado 13946" d="M1456.168,447.929s-3.22,18.163-22.384,17.788-21.557-14.6-21.557-14.6" transform="translate(-1331.597 -359.876)" fill="none" stroke="#2c4162" stroke-miterlimit="10" stroke-width="0.75"/>
      <path id="Trazado_13947" data-name="Trazado 13947" d="M1440.23,461.853l-8.606,11.036-7.7-10.718" transform="translate(-1329.436 -357.302)" fill="none" stroke="#2c4162" stroke-miterlimit="10" stroke-width="0.75"/>
      <path id="Trazado_13948" data-name="Trazado 13948" d="M1469.071,532.733l6.019,7.051" transform="translate(-1321.091 -344.202)" fill="none" stroke="#2c4162" stroke-miterlimit="10" stroke-width="0.75"/>
      <path id="Trazado_13949" data-name="Trazado 13949" d="M1471.734,529.619a32.622,32.622,0,0,1,13.98,4.405" transform="translate(-1320.599 -344.777)" fill="none" stroke="#2c4162" stroke-miterlimit="10" stroke-width="0.75"/>
    </g>
    <g id="Grupo_12443" data-name="Grupo 12443" transform="translate(1164.677 365.235)">
      <path id="Trazado_13950" data-name="Trazado 13950" d="M1295.417,412.023a29.27,29.27,0,0,1,1.566,7.744,9.382,9.382,0,0,1-2.742,7.179c-1.2,1.07-2.782,1.726-3.745,3.014a12.925,12.925,0,0,0-1.468,3.493,4.547,4.547,0,0,1-2.3,2.883c-1.636.643-3.554-.412-5.218.16-1.43.493-2.2,2-3.3,3.039-2.34,2.2-6.186,2.079-8.993.515a10.345,10.345,0,0,1-5.114-6.9,9.08,9.08,0,0,1,2.463-8.137c2.609-2.525,6.486-3.084,9.786-4.6a22.56,22.56,0,0,0,8.3-6.945,40.049,40.049,0,0,0,3.292-5.135c.929-1.7,1.583-3.7,2.675-5.293,2.313-3.367,3.193.916,3.425,2.777A39.031,39.031,0,0,0,1295.417,412.023Z" transform="translate(-1140.707 -352.692)" fill="#2c4162"/>
      <path id="Trazado_13951" data-name="Trazado 13951" d="M1271.269,428.541a41.43,41.43,0,0,0-1.008,23.04,93.909,93.909,0,0,1-9.44,13.936,44.7,44.7,0,0,1-14.829-15.582c-3.293-5.8-6.665-13.447-3.172-19.681a84.9,84.9,0,0,0,4.084-8.583c2.5-5.949,4.529-12.088,6.491-18.233A58.466,58.466,0,0,0,1271.269,428.541Z" transform="translate(-1144.883 -352.388)" fill="#e8a38c"/>
      <path id="Trazado_13952" data-name="Trazado 13952" d="M1295.489,413.564a34.121,34.121,0,0,1-7.915,14.107,22.769,22.769,0,0,1-14.338,7.046,17.162,17.162,0,0,1-14.522-5.967c-2.566-3.2-3.7-7.287-4.636-11.281-1-4.288-1.838-8.723-1.161-13.073a22.162,22.162,0,0,1,5.7-11.415,31.405,31.405,0,0,1,10.55-7.335,30.039,30.039,0,0,1,13.66-2.767c3.832.211,10.8,1.534,12.315,5.736a48.733,48.733,0,0,1,1.318,5.931,35.208,35.208,0,0,1,.749,8.9A40.966,40.966,0,0,1,1295.489,413.564Z" transform="translate(-1142.789 -356.194)" fill="#e8a38c"/>
      <path id="Trazado_13953" data-name="Trazado 13953" d="M1318.544,514.4c1.186.034,2.786-2.142,3.43-2.973.976-1.258,1.779-2.637,2.659-3.962,1.1-1.665,2.391-3.456,4.288-4.242a14.846,14.846,0,0,1,6.415-.862c2.5.127,4.99.57,7.5.591a8.124,8.124,0,0,0,2.954-.406,3.637,3.637,0,0,0,2.154-1.96c.35-.891-.139-1.607-.264-2.472-.194-1.339.814-1.216,1.874-1.54,1.141-.348,2.343-.909,2.312-2.239a3.977,3.977,0,0,0-1.76-3.213c.441.283,2.1-1.113,2.389-1.392a6.28,6.28,0,0,0,1.533-2.405,3.357,3.357,0,0,0,.01-2.712,12.486,12.486,0,0,0-1.744-2.783,10.944,10.944,0,0,1,4.924-1.367c.928.05,1.846.241,2.775.243a2.218,2.218,0,0,0,2.043-.9,1.678,1.678,0,0,0-.135-1.632,3.757,3.757,0,0,0-1.255-1.145c-3.6-2.252-7.456-1.315-11.407-.818a113.882,113.882,0,0,0-12.182,2.1l9.4-9.457c.333-.335.693-.782.536-1.226-.178-.5-.851-.57-1.379-.518-5.421.541-9.785,4.513-13.721,8.278l-27,25.836A48.546,48.546,0,0,0,1317.75,514.1,1.488,1.488,0,0,0,1318.544,514.4Z" transform="translate(-1133.138 -340.623)" fill="#7db8b0"/>
      <path id="Trazado_13954" data-name="Trazado 13954" d="M1321.252,558.54a60.145,60.145,0,0,1,22.5-3.919c3.7.1,7.16,1.059,10.783,1.458a73.526,73.526,0,0,0,12.406.312c1.967-.116,3.936.142,5.868-.144a64.047,64.047,0,0,0,6.932-1.429,4.134,4.134,0,0,0,2.034-.992,1.826,1.826,0,0,0,.334-2.214,1.845,1.845,0,0,0-1.392-.506c-4.131-.293-8.757-1.3-12.888-1.592a50.678,50.678,0,0,0,19.314-4c.744-.312,1.617-.828,1.688-1.7a1.41,1.41,0,0,0-.825-1.352,3.485,3.485,0,0,0-1.563-.21c-5.277.1-11.4.135-16.676.236,7.122-.835,14.031-2.873,21.108-5.047.974-.3,2.055-1.409,1.729-2.437a1.681,1.681,0,0,0-1.626-.974,82.422,82.422,0,0,0-19.827,1.38,1.132,1.132,0,0,1-.864-.073.771.771,0,0,1-.1-1.025,2.232,2.232,0,0,1,.9-.678,126.787,126.787,0,0,0,11.94-6.511c.744-.49,1.613-1.269,1.434-2.173-.2-1.032-1.49-1.019-2.434-.783-6.539,1.631-13.047,3.48-19.554,5.329-2.213.628-4.761.189-4.9-2.692a7.307,7.307,0,0,1,.807-3.1c.405-.967,4.4-9.9,3.446-10.469s-3.743,2.367-4.317,2.956c-1.455,1.494-2.7,3.178-4.05,4.762a42.341,42.341,0,0,1-13.424,10.421c-5.013,2.47-11.611,2.986-17.179,2.858q-1.025-.025-2.048-.095C1318.407,542.123,1318.339,551.213,1321.252,558.54Z" transform="translate(-1130.523 -332.109)" fill="#7db8b0"/>
      <path id="Trazado_13955" data-name="Trazado 13955" d="M1159.93,572.937c7.884-30.167,11.026-47.534,21.439-75,6.671-17.594,13.546-35.547,25.59-50s32.472-26.1,51.151-23.835c.55,12.57,8.2,24.886,18.5,32.111a34.184,34.184,0,0,0,7.732-13.771c8.73,6.99,11.852,18.714,14.089,29.673a493.326,493.326,0,0,1,9.057,68.611,190.975,190.975,0,0,1,25.249-34.262,90.974,90.974,0,0,1,16.4,14.141,144.351,144.351,0,0,0-8.676,25.464c7.9,1.473,16.458,1.449,24.467,2.132-.276,8.486.219,16.76-.058,25.245-30.549,12.338-82.79,9.308-114.244-.493Z" transform="translate(-1159.93 -348.622)" fill="#86b9d6"/>
      <path id="Trazado_13956" data-name="Trazado 13956" d="M1194.869,468.954l28.356,61.952c3.14,6.859,6.3,13.756,10.567,19.976s9.742,11.788,16.522,15.09" transform="translate(-1153.472 -340.279)" fill="none" stroke="#2c4162" stroke-miterlimit="10" stroke-width="0.75"/>
      <path id="Trazado_13957" data-name="Trazado 13957" d="M1265.21,521.4s24.556,2.584,53.635,6.677" transform="translate(-1140.471 -330.586)" fill="none" stroke="#2c4162" stroke-miterlimit="10" stroke-width="0.75"/>
      <line id="Línea_428" data-name="Línea 428" x2="15.132" y2="12.862" transform="translate(170.305 162.773)" fill="none" stroke="#2c4162" stroke-miterlimit="10" stroke-width="0.75"/>
      <line id="Línea_429" data-name="Línea 429" x2="0.757" y2="24.362" transform="translate(199.509 200.45)" fill="none" stroke="#2c4162" stroke-miterlimit="10" stroke-width="0.75"/>
      <path id="Trazado_13958" data-name="Trazado 13958" d="M1267.979,464.525a45.955,45.955,0,0,1-12.9,42.439" transform="translate(-1142.343 -341.098)" fill="none" stroke="#2c4162" stroke-miterlimit="10" stroke-width="0.75"/>
      <path id="Trazado_13959" data-name="Trazado 13959" d="M1284.862,397.678c4.1,1.582,8.522,4.431,12.51,2.578,1.641-.762,2.978-2.279,4.775-2.483,1.633-.186,3.147.767,4.692,1.325,4.269,1.541,9.32-.1,12.354-3.472a16.086,16.086,0,0,0,3.589-12.7,25.75,25.75,0,0,0-5.486-12.287c-3.7-4.789-9.168-8.835-15.218-8.588-6.275.256-11.628,5-17.882,5.59-4.232.4-8.39-1.162-12.268-2.905s-7.749-3.725-11.967-4.258c-6.546-.828-12.2,2.605-15.218,8.28-1.6,3-2.649,6.259-4.245,9.256a17.922,17.922,0,0,1-7.463,7.52c-3.328,1.794-7.083,2.745-8.84,6.477-2.972,6.315,3.272,13.878,1.1,20.511-1.491,4.55-6.684,7.607-6.855,12.391-.243,6.746,7.858,11.148,13.172,13.206a19.855,19.855,0,0,0,13.358.7,16,16,0,0,0,10.116-10.892c.765-2.873,1.974-5.558,2.54-8.532.623-3.27.952-6.592,1.873-9.8C1262.623,398.7,1274.587,393.72,1284.862,397.678Z" transform="translate(-1149.117 -360.351)" fill="#2c4162"/>
      <path id="Trazado_13960" data-name="Trazado 13960" d="M1257.886,397.067a7.153,7.153,0,0,0-2.508-4.26,4.353,4.353,0,0,0-4.738-.416c-1.89,1.154-2.275,3.733-2.1,5.941a20.493,20.493,0,0,0,4.024,10.627c.581.771,1.454,1.582,2.38,1.307a2.5,2.5,0,0,0,1.349-1.594C1257.917,404.863,1258.789,401.2,1257.886,397.067Z" transform="translate(-1143.56 -354.526)" fill="#e8a38c"/>
      <path id="Trazado_13961" data-name="Trazado 13961" d="M1274.217,406.3c-.286.334-.729.647-1.135.478-1.326-.552.081-3.341.612-4,.718-.891,1.927-.432,2.823-.037a.448.448,0,0,1,.222.16.3.3,0,0,1-.036.331.633.633,0,0,1-.289.194,4.613,4.613,0,0,0-.8.243c-.494.3-.4.665-.55,1.133A4.424,4.424,0,0,1,1274.217,406.3Z" transform="translate(-1139.119 -352.604)" fill="#3b365b"/>
      <path id="Trazado_13962" data-name="Trazado 13962" d="M1285.584,408.791c-.287.334-.73.648-1.136.479-1.326-.552.082-3.342.613-4,.717-.891,1.925-.432,2.822-.038a.469.469,0,0,1,.223.161.305.305,0,0,1-.036.331.643.643,0,0,1-.289.194,4.564,4.564,0,0,0-.8.242c-.494.3-.4.666-.55,1.133A4.455,4.455,0,0,1,1285.584,408.791Z" transform="translate(-1137.018 -352.145)" fill="#3b365b"/>
      <path id="Trazado_13963" data-name="Trazado 13963" d="M1272.289,400.948a5.064,5.064,0,0,1-1.31-.028c-.563-.109-1.345-.693-.913-1.294.411-.572,1.764-.692,2.373-.767a15.726,15.726,0,0,1,3.655-.1c1.2.147,1.338,1.171.243,1.675a7.1,7.1,0,0,1-2.819.422C1273.134,400.866,1272.711,400.916,1272.289,400.948Z" transform="translate(-1139.597 -353.265)" fill="#3b365b"/>
      <path id="Trazado_13964" data-name="Trazado 13964" d="M1285.924,403.153a5.083,5.083,0,0,1-1.227-.463c-.494-.289-1.037-1.1-.431-1.524.578-.4,1.895-.066,2.493.066a15.642,15.642,0,0,1,3.481,1.121c1.084.537.873,1.549-.327,1.661a7.124,7.124,0,0,1-2.8-.539C1286.748,403.355,1286.333,403.262,1285.924,403.153Z" transform="translate(-1136.999 -352.843)" fill="#3b365b"/>
      <path id="Trazado_13965" data-name="Trazado 13965" d="M1281.462,405.9a59.142,59.142,0,0,1-.437,7.13,4.219,4.219,0,0,1-.892,2.367c-.955,1.012-2.56.929-3.943.771" transform="translate(-1138.442 -351.933)" fill="none" stroke="#b67b60" stroke-miterlimit="10" stroke-width="0.75"/>
      <path id="Trazado_13966" data-name="Trazado 13966" d="M1249.669,394.438a2.529,2.529,0,0,1,2.86-.775,4.147,4.147,0,0,1,2.223,2.161,12.253,12.253,0,0,1,.882,3.046" transform="translate(-1143.344 -354.223)" fill="none" stroke="#b67b60" stroke-miterlimit="10" stroke-width="0.75"/>
      <path id="Trazado_13967" data-name="Trazado 13967" d="M1252.975,394.073a9.476,9.476,0,0,0-1.682,7.781" transform="translate(-1143.087 -354.119)" fill="none" stroke="#b67b60" stroke-miterlimit="10" stroke-width="0.75"/>
      <path id="Trazado_13968" data-name="Trazado 13968" d="M1257.175,395.524A44.33,44.33,0,0,0,1278.35,411.7c5.469,1.963,11.632,2.8,17.041.675a35.2,35.2,0,0,1-8.7,15.21c-3.784,3.79-8.873,6.748-14.27,7.155a15.285,15.285,0,0,1-14.54-6.975,43.584,43.584,0,0,1-2.429-4.237,29.6,29.6,0,0,1-2.3-5.418,30.627,30.627,0,0,1-1.119-4.981c-.223-1.615-.608-3.364.251-4.839a8.631,8.631,0,0,0,2.98,1.72,3.5,3.5,0,0,0,3.241-.765,3.866,3.866,0,0,0,.966-2.487C1259.732,402.911,1257.017,399.376,1257.175,395.524Z" transform="translate(-1142.959 -353.851)" fill="#f8e6e0"/>
      <path id="Trazado_13969" data-name="Trazado 13969" d="M1280.992,411.966a8.989,8.989,0,0,1-.127,2.118,3.024,3.024,0,0,1-1.06,1.793,1.842,1.842,0,0,1-2,.178" transform="translate(-1138.143 -350.812)" fill="none" stroke="#3b365b" stroke-miterlimit="10" stroke-width="0.75"/>
      <path id="Trazado_13970" data-name="Trazado 13970" d="M1263.407,409.945a24.156,24.156,0,0,0,20.923,11.223" transform="translate(-1140.805 -351.185)" fill="none" stroke="#3b365b" stroke-miterlimit="10" stroke-width="0.75"/>
      <path id="Trazado_13971" data-name="Trazado 13971" d="M1260.606,411.409a20.713,20.713,0,0,0,17.736,14.207" transform="translate(-1141.322 -350.915)" fill="none" stroke="#3b365b" stroke-miterlimit="10" stroke-width="0.75"/>
      <path id="Trazado_13972" data-name="Trazado 13972" d="M1258.207,412.374a19.426,19.426,0,0,0,10.566,16.829" transform="translate(-1141.766 -350.736)" fill="none" stroke="#3b365b" stroke-miterlimit="10" stroke-width="0.75"/>
      <g id="Grupo_12440" data-name="Grupo 12440" transform="translate(93.265 73.058)">
        <path id="Trazado_13973" data-name="Trazado 13973" d="M1257.7,466.678c-1.539-7.584-9.058-12.179-13.711-18.362a27.442,27.442,0,0,1-3.43-26.3l1.571.033" transform="translate(-1238.646 -422.013)" fill="none" stroke="#2c4162" stroke-miterlimit="10" stroke-width="1"/>
        <g id="Grupo_12439" data-name="Grupo 12439" transform="translate(9.641 44.409)">
          <g id="Grupo_12438" data-name="Grupo 12438">
            <path id="Trazado_13974" data-name="Trazado 13974" d="M1278.626,487.748l-5.512-18.625a13.44,13.44,0,0,0-25.775,7.629l5.512,18.625" transform="translate(-1246.783 -459.495)" fill="none" stroke="#f8e6e0" stroke-miterlimit="10" stroke-width="2"/>
          </g>
          <path id="Trazado_13975" data-name="Trazado 13975" d="M1276.345,481.36a2.849,2.849,0,0,0-1.907-1.906,2.78,2.78,0,0,0-3.083,1.255,3.184,3.184,0,0,0-.315.752,2.706,2.706,0,0,0,.264,2.013,2.6,2.6,0,0,0,1.561,1.2l.056.012-.051-.021a2.732,2.732,0,0,0,3.476-3.3Z" transform="translate(-1242.315 -455.823)" fill="#2c4162"/>
          <path id="Trazado_13976" data-name="Trazado 13976" d="M1254.878,488.643a2.848,2.848,0,0,0-1.908-1.906,2.779,2.779,0,0,0-3.083,1.255,3.153,3.153,0,0,0-.314.752,2.7,2.7,0,0,0,.263,2.012,2.6,2.6,0,0,0,1.56,1.2l.056.012-.051-.021a2.732,2.732,0,0,0,3.476-3.3Z" transform="translate(-1246.283 -454.477)" fill="#2c4162"/>
        </g>
      </g>
      <path id="Trazado_13977" data-name="Trazado 13977" d="M1232.443,459.493a309.6,309.6,0,0,1,35.664,71.834" transform="translate(-1146.528 -342.028)" fill="none" stroke="#2c4162" stroke-miterlimit="10" stroke-width="0.75"/>
      <g id="Grupo_12441" data-name="Grupo 12441" transform="translate(124.072 89.35)">
        <circle id="Elipse_707" data-name="Elipse 707" cx="6.25" cy="6.25" r="6.25" transform="translate(2.447 72.055)" fill="#f8e6e0"/>
        <circle id="Elipse_708" data-name="Elipse 708" cx="2.78" cy="2.78" r="2.78" transform="translate(5.917 75.524)" fill="none" stroke="#2c4162" stroke-miterlimit="10" stroke-width="0.75"/>
        <path id="Trazado_13978" data-name="Trazado 13978" d="M1264.648,435.763c7.452,5.338,10.351,15.224,10.174,24.388s-2.884,18.067-4.374,27.112-1.634,18.836,2.9,26.8" transform="translate(-1264.648 -435.763)" fill="none" stroke="#2c4162" stroke-miterlimit="10" stroke-width="1"/>
      </g>
      <g id="Grupo_12442" data-name="Grupo 12442" transform="translate(204.819 127.278)">
        <rect id="Rectángulo_3130" data-name="Rectángulo 3130" width="6.837" height="35.272" transform="matrix(0.691, -0.722, 0.722, 0.691, 5.445, 10.211)" fill="#f8e6e0"/>
        <rect id="Rectángulo_3131" data-name="Rectángulo 3131" width="8.833" height="1.519" transform="matrix(0.691, -0.722, 0.722, 0.691, 0, 6.381)" fill="#e9d0c9"/>
        <rect id="Rectángulo_3132" data-name="Rectángulo 3132" width="5.156" height="1.519" transform="matrix(0.691, -0.722, 0.722, 0.691, 17.098, 20.199)" fill="#e9d0c9"/>
        <rect id="Rectángulo_3133" data-name="Rectángulo 3133" width="5.155" height="17.589" transform="matrix(0.691, -0.722, 0.722, 0.691, 18.195, 21.249)" fill="#f1cb66"/>
        <rect id="Rectángulo_3134" data-name="Rectángulo 3134" width="1.235" height="20.413" transform="matrix(0.691, -0.722, 0.722, 0.691, 3.706, 4.669)" fill="#e9d0c9"/>
        <rect id="Rectángulo_3135" data-name="Rectángulo 3135" width="8.833" height="1.519" transform="matrix(0.691, -0.722, 0.722, 0.691, 4.755, 10.932)" fill="#f8e6e0"/>
        <path id="Trazado_13979" data-name="Trazado 13979" d="M1363.694,496.512l-.852.89L1360.156,496l2.014-2.105Z" transform="translate(-1327.742 -462.948)" fill="#8aa8a5"/>
        <line id="Línea_430" data-name="Línea 430" x2="7.2" y2="6.891" transform="translate(35.526 34.009)" fill="none" stroke="#2c4162" stroke-miterlimit="10" stroke-width="0.75"/>
      </g>
      <path id="Trazado_13980" data-name="Trazado 13980" d="M1341.7,488.24a13.727,13.727,0,0,1-5.372-1.44,7.049,7.049,0,0,1-2.293-1.481,1.865,1.865,0,0,1,.166-1.946,3.058,3.058,0,0,1,1.617-1.142,19.981,19.981,0,0,1,3.718-.615c1.334-.165,2.678-.237,4.02-.292" transform="translate(-1127.791 -337.992)" fill="none" stroke="#2c4162" stroke-miterlimit="10" stroke-width="0.75"/>
      <path id="Trazado_13981" data-name="Trazado 13981" d="M1332.646,497.911a1.514,1.514,0,0,1-1.239-1.581,2.387,2.387,0,0,1,1.145-1.8,6.034,6.034,0,0,1,2.072-.751,27.063,27.063,0,0,1,6.437-.59c-2.539-.34-5.616-.859-7.746-2.28-.631-.421-1.266-1.1-1.076-1.835.17-.661.912-.975,1.568-1.162a21.423,21.423,0,0,1,4.255-.762,13.112,13.112,0,0,1,4.079.042" transform="translate(-1128.237 -336.943)" fill="none" stroke="#2c4162" stroke-miterlimit="10" stroke-width="0.75"/>
      <path id="Trazado_13982" data-name="Trazado 13982" d="M1260,523.59a56.225,56.225,0,0,0-9.96,7.711" transform="translate(-1143.276 -330.181)" fill="none" stroke="#2c4162" stroke-miterlimit="10" stroke-width="0.75"/>
      <path id="Trazado_13983" data-name="Trazado 13983" d="M1262.618,524.675a32.607,32.607,0,0,0-4.177,9" transform="translate(-1141.722 -329.98)" fill="none" stroke="#2c4162" stroke-miterlimit="10" stroke-width="0.75"/>
      <path id="Trazado_13984" data-name="Trazado 13984" d="M1335.671,535.02a81.1,81.1,0,0,1-.156,10.481" transform="translate(-1127.478 -328.068)" fill="none" stroke="#2c4162" stroke-miterlimit="10" stroke-width="0.75"/>
      <path id="Trazado_13985" data-name="Trazado 13985" d="M1337.528,531.053a54.891,54.891,0,0,1,1.167,15.641" transform="translate(-1127.105 -328.801)" fill="none" stroke="#2c4162" stroke-miterlimit="10" stroke-width="0.75"/>
    </g>
    <g id="Grupo_12446" data-name="Grupo 12446" transform="translate(1147.189 353.517)">
      <g id="Grupo_12445" data-name="Grupo 12445">
        <g id="Grupo_12444" data-name="Grupo 12444">
          <path id="Trazado_13986" data-name="Trazado 13986" d="M1517.534,406.879a1.468,1.468,0,0,0-1.393,1.034l-3.9-.275c0-.085.013-.168.013-.255a8.611,8.611,0,0,0-.846-3.714l2.19-1.152a.944.944,0,0,0,.614.238,1.142,1.142,0,1,0-.938-.861l-2.191,1.153a8.689,8.689,0,0,0-3.8-3.494l1.72-4.072a.831.831,0,1,0-.865-.827.821.821,0,0,0,.219.551l-1.721,4.075a8.3,8.3,0,0,0-4.241-.467l-.747-4.111a1.824,1.824,0,1,0-.692.127l.745,4.105a8.662,8.662,0,0,0-5.551,4.031l-4.512-2.437a1.361,1.361,0,0,0,.07-.347,1.453,1.453,0,1,0-1.452,1.453,1.437,1.437,0,0,0,1.064-.479l4.5,2.429a8.615,8.615,0,0,0-.887,3.8c0,.072.009.142.011.213l-3.167.207a.806.806,0,0,0-.7-.421.818.818,0,1,0,.756,1.121l3.148-.206a8.629,8.629,0,0,0,2.091,4.775l-3.414,3.231a1.442,1.442,0,0,0-.783-.256,1.481,1.481,0,1,0,1.481,1.481,1.434,1.434,0,0,0-.212-.717l3.409-3.226a8.634,8.634,0,0,0,6.044,2.462c.091,0,.18-.011.271-.013l.246,3.424a.932.932,0,1,0,.7-.047l-.246-3.422a8.633,8.633,0,0,0,5.266-2.6l2.5,2.216a.977.977,0,0,0-.071.354,1,1,0,1,0,1-1,.967.967,0,0,0-.458.126l-2.5-2.217a8.64,8.64,0,0,0,1.9-4.525l3.9.274a1.462,1.462,0,0,0,1.432,1.231,1.483,1.483,0,0,0,0-2.967Z" transform="translate(-1081.659 -342.936)" fill="#ff4a69"/>
          <path id="Trazado_13987" data-name="Trazado 13987" d="M1200.92,375.159a1.469,1.469,0,0,0-1.392,1.033l-3.9-.274c0-.085.013-.168.013-.255a8.609,8.609,0,0,0-.846-3.714l2.191-1.152a.945.945,0,0,0,.614.238.958.958,0,1,0-.957-.959.881.881,0,0,0,.019.1l-2.192,1.152a8.687,8.687,0,0,0-3.8-3.493l1.721-4.072a.844.844,0,1,0-.647-.276l-1.721,4.075a8.619,8.619,0,0,0-3.043-.56,8.72,8.72,0,0,0-1.2.092l-.746-4.11a1.823,1.823,0,1,0-.691.127l.745,4.1a8.661,8.661,0,0,0-5.551,4.032l-4.512-2.437a1.431,1.431,0,0,0,.069-.348,1.453,1.453,0,1,0-1.453,1.454,1.435,1.435,0,0,0,1.064-.479l4.5,2.429a8.608,8.608,0,0,0-.887,3.8c0,.072.01.142.012.213l-3.167.206a.809.809,0,0,0-.7-.419.818.818,0,1,0,.756,1.121l3.148-.206a8.612,8.612,0,0,0,2.091,4.775l-3.413,3.231a1.441,1.441,0,0,0-.784-.256,1.481,1.481,0,1,0,1.481,1.481,1.443,1.443,0,0,0-.211-.717l3.409-3.226a8.63,8.63,0,0,0,6.043,2.462c.092,0,.181-.011.271-.013l.248,3.424a.933.933,0,1,0,.7-.047l-.247-3.422a8.633,8.633,0,0,0,5.265-2.6l2.5,2.216a.983.983,0,0,0-.072.354,1,1,0,1,0,1-1,.988.988,0,0,0-.459.124l-2.5-2.217a8.61,8.61,0,0,0,1.9-4.525l3.9.275a1.463,1.463,0,0,0,1.432,1.231,1.483,1.483,0,1,0,0-2.967Z" transform="translate(-1140.177 -348.798)" fill="#ff4a69"/>
          <path id="Trazado_13988" data-name="Trazado 13988" d="M1389.275,366.163a1.469,1.469,0,0,0-1.394,1.033l-3.9-.274c0-.085.013-.168.013-.255a8.612,8.612,0,0,0-.846-3.714l2.19-1.152a.942.942,0,0,0,.614.237.957.957,0,1,0-.958-.957.972.972,0,0,0,.019.1l-2.19,1.152a8.693,8.693,0,0,0-3.8-3.493l1.721-4.073a.84.84,0,1,0-.647-.275l-1.72,4.075a8.329,8.329,0,0,0-4.242-.468l-.747-4.11a1.827,1.827,0,1,0-.692.126l.746,4.105a8.664,8.664,0,0,0-5.551,4.032l-4.512-2.437a1.386,1.386,0,0,0,.07-.348,1.453,1.453,0,1,0-1.453,1.454,1.436,1.436,0,0,0,1.064-.48l4.5,2.429a8.618,8.618,0,0,0-.888,3.8c0,.072.008.141.011.213l-3.167.206a.805.805,0,0,0-.7-.419.818.818,0,1,0,.756,1.121l3.148-.206a8.627,8.627,0,0,0,2.092,4.775l-3.414,3.231a1.443,1.443,0,0,0-.783-.256,1.481,1.481,0,1,0,1.481,1.481,1.439,1.439,0,0,0-.212-.718l3.409-3.225a8.631,8.631,0,0,0,6.044,2.462c.091,0,.18-.011.27-.014l.248,3.425a.932.932,0,1,0,.7-.047l-.246-3.422a8.632,8.632,0,0,0,5.266-2.6l2.5,2.217a.979.979,0,0,0-.071.354,1,1,0,1,0,1-1,.979.979,0,0,0-.457.124l-2.5-2.217a8.632,8.632,0,0,0,1.9-4.525l3.9.275a1.463,1.463,0,0,0,1.433,1.231,1.483,1.483,0,1,0,0-2.967Z" transform="translate(-1105.364 -350.461)" fill="#ff4a69"/>
          <path id="Trazado_13989" data-name="Trazado 13989" d="M1166.587,500.1a1.093,1.093,0,0,0-1.038.77l-2.907-.2c0-.064.009-.127.009-.191a6.408,6.408,0,0,0-.63-2.768l1.633-.859a.7.7,0,0,0,.457.178.714.714,0,1,0-.714-.713c0,.025.011.046.014.071l-1.633.859a6.47,6.47,0,0,0-2.834-2.6l1.282-3.035a.626.626,0,1,0-.482-.2l-1.282,3.037a6.434,6.434,0,0,0-2.268-.418,6.516,6.516,0,0,0-.893.069l-.557-3.066a1.356,1.356,0,1,0-.516.1l.556,3.06a6.461,6.461,0,0,0-4.137,3l-3.362-1.816a1.057,1.057,0,0,0,.052-.258,1.083,1.083,0,1,0-1.083,1.083,1.069,1.069,0,0,0,.793-.358l3.351,1.81a6.42,6.42,0,0,0-.661,2.833c0,.053.008.105.009.159l-2.36.154a.6.6,0,0,0-.521-.313.61.61,0,1,0,.564.835l2.346-.153a6.421,6.421,0,0,0,1.558,3.558l-2.544,2.408a1.078,1.078,0,0,0-.584-.191,1.1,1.1,0,1,0,1.1,1.1,1.072,1.072,0,0,0-.157-.534l2.54-2.4a6.431,6.431,0,0,0,4.5,1.834c.068,0,.134-.008.2-.009l.184,2.552a.7.7,0,1,0,.523-.036l-.184-2.55a6.434,6.434,0,0,0,3.924-1.94l1.862,1.652a.719.719,0,0,0-.054.263.772.772,0,1,0,.4-.653l-1.861-1.652a6.426,6.426,0,0,0,1.416-3.372l2.91.2a1.09,1.09,0,0,0,1.067.918,1.105,1.105,0,1,0,0-2.211Z" transform="translate(-1145.17 -324.967)" fill="#ff4a69"/>
          <path id="Trazado_13990" data-name="Trazado 13990" d="M1339.815,429a1.2,1.2,0,0,0-1.14.846l-3.194-.224c0-.07.01-.139.01-.208a7.049,7.049,0,0,0-.693-3.041l1.794-.943a.766.766,0,0,0,.5.194.784.784,0,1,0-.784-.783c0,.027.013.051.015.078l-1.793.944a7.11,7.11,0,0,0-3.114-2.86l1.408-3.335a.689.689,0,1,0-.529-.225l-1.409,3.336a7.042,7.042,0,0,0-2.492-.458,7.215,7.215,0,0,0-.981.075l-.613-3.37a1.488,1.488,0,1,0-.565.105l.61,3.364a7.1,7.1,0,0,0-4.545,3.3l-3.693-2a1.152,1.152,0,0,0,.057-.285,1.19,1.19,0,1,0-1.19,1.191,1.175,1.175,0,0,0,.871-.393l3.681,1.989a7.053,7.053,0,0,0-.726,3.113c0,.058.007.116.008.174l-2.593.169a.659.659,0,0,0-.572-.344.669.669,0,1,0,.62.917l2.577-.168a7.063,7.063,0,0,0,1.712,3.91l-2.795,2.644a1.182,1.182,0,0,0-.641-.21,1.213,1.213,0,1,0,1.212,1.213,1.176,1.176,0,0,0-.173-.588l2.79-2.641a7.069,7.069,0,0,0,4.948,2.015c.076,0,.148-.008.223-.011l.2,2.8a.753.753,0,0,0-.424.673.761.761,0,1,0,1.522,0,.753.753,0,0,0-.524-.713l-.2-2.8a7.067,7.067,0,0,0,4.311-2.13l2.045,1.814a.816.816,0,1,0,.76-.53.792.792,0,0,0-.374.1l-2.046-1.815a7.054,7.054,0,0,0,1.556-3.7l3.2.224a1.2,1.2,0,0,0,1.173,1.008,1.214,1.214,0,0,0,0-2.429Z" transform="translate(-1113.543 -338.321)" fill="#ff4a69"/>
        </g>
      </g>
    </g>
  </g>
</svg>
