<?xml version="1.0" encoding="utf-8"?>
<!-- Generator: Adobe Illustrator 25.2.0, SVG Export Plug-In . SVG Version: 6.00 Build 0)  -->
<svg version="1.1" id="Capa_1" xmlns="http://www.w3.org/2000/svg" xmlns:xlink="http://www.w3.org/1999/xlink" x="0px" y="0px"
	 viewBox="0 0 70.8 60.7" style="enable-background:new 0 0 70.8 60.7;" xml:space="preserve">
<style type="text/css">
	.st0{fill:#FFCD0D;}
	.st1{fill:#FFFFFF;}
	.st2{enable-background:new    ;}
	.st3{fill:#002B45;}
</style>
<g id="Grupo_14997" transform="translate(-796.532 -6563)">
	<g id="Grupo_14977" transform="translate(527.665 7888.022) rotate(-90)">
		<path id="Trazado_16389" class="st0" d="M1325,299.2c0-16.8-13.6-30.4-30.4-30.4s-30.4,13.6-30.4,30.4c0,14.4,10.1,26.8,24.2,29.7
			l3,5.3l3.2,5.5l3.2-5.5l3-5.3C1314.9,326,1325,313.6,1325,299.2z"/>
		<circle id="Elipse_816" class="st1" cx="1294.7" cy="299.2" r="21.9"/>
	</g>
	<g class="st2">
		<path class="st3" d="M820,6603.3c-4,0-6-2.8-6-8.4c0-2.9,0.5-5.1,1.6-6.7s2.7-2.3,4.7-2.3c3.9,0,5.9,2.9,5.9,8.6
			c0,2.8-0.5,5-1.6,6.5S822,6603.3,820,6603.3z M820.1,6588.7c-1.6,0-2.4,2-2.4,6c0,3.8,0.8,5.7,2.4,5.7c1.5,0,2.3-2,2.3-5.9
			S821.6,6588.7,820.1,6588.7z"/>
		<path class="st3" d="M836.7,6585.8v17.2H833v-13c-0.2,0.2-0.4,0.3-0.7,0.5c-0.3,0.2-0.6,0.3-0.9,0.4s-0.6,0.2-1,0.3
			s-0.7,0.2-1,0.2v-3.1c1-0.3,1.9-0.6,2.7-1.1c0.9-0.4,1.6-0.9,2.3-1.4H836.7z"/>
	</g>
</g>
</svg>
