<svg xmlns="http://www.w3.org/2000/svg" width="89" height="81.204" viewBox="0 0 89 81.204">
  <g id="Grupo_11775" data-name="Grupo 11775" transform="translate(-1481.684 -1124.099)">
    <path id="Trazado_11395" data-name="Trazado 11395" d="M1568.485,1182.413l-7.808-13.522q-10.7-18.53-21.4-37.058a15.116,15.116,0,0,0-13.139-7.734h-.018a14.926,14.926,0,0,0-12.979,7.591c-8.076,13.9-18.725,32.264-29.486,51.125a15.776,15.776,0,0,0-1.872,9.309c.9,7.75,7.167,13.166,15.237,13.173q5.986.006,11.973.005l9.9,0h23.921q6.224,0,12.449-.006a15.012,15.012,0,0,0,13.227-22.883Z" transform="translate(0 0)" fill="#fff"/>
    <g id="Grupo_11774" data-name="Grupo 11774" transform="translate(1488.278 1130.689)">
      <g id="Grupo_11773" data-name="Grupo 11773" transform="translate(0)">
        <g id="Grupo_11770" data-name="Grupo 11770">
          <path id="Trazado_11396" data-name="Trazado 11396" d="M1571.2,1194.118l-7.808-13.521q-10.7-18.53-21.4-37.057a8.594,8.594,0,0,0-7.44-4.44h-.01a8.4,8.4,0,0,0-7.282,4.311c-8.08,13.9-18.73,32.274-29.459,51.081a9.214,9.214,0,0,0-1.051,5.284c.519,4.456,3.932,7.339,8.7,7.343q5.984.006,11.966,0h26.7q9.781,0,19.561-.005a8.431,8.431,0,0,0,7.527-13Zm-5.091,5.712c-.419.729-1.414,1.133-2.8,1.137h-28.7q-8.769,0-17.537,0H1505.91c-1.441,0-2.465-.4-2.885-1.127-.411-.711-.253-1.766.442-2.969l28.589-49.5.12-.21c.072-.128.145-.255.22-.381a2.709,2.709,0,0,1,2.184-1.508h.019a2.65,2.65,0,0,1,2.159,1.543q4.862,8.394,9.709,16.8l7.745,13.41q5.745,9.943,11.486,19.89A2.994,2.994,0,0,1,1566.106,1199.83Z" transform="translate(-1496.694 -1139.099)" fill="#ff4a69"/>
        </g>
        <g id="Grupo_11771" data-name="Grupo 11771" transform="translate(34.177 21.584)">
          <path id="Trazado_11397" data-name="Trazado 11397" d="M1574.526,1195.357v.028c.054.859.105,1.755.159,2.678.138,2.387.282,4.856.488,7.368a30.949,30.949,0,0,0,.829,5.1,2.34,2.34,0,0,0,1.919,1.418h.013a2.945,2.945,0,0,0,2.094-1.146,4.734,4.734,0,0,0,.68-2.3c.361-3.5.77-7.459,1.056-11.319a37.593,37.593,0,0,0,.013-5.6c-.172-2.261-1.245-3.328-3.377-3.357h-.076a3.511,3.511,0,0,0-3.772,3.3,17.465,17.465,0,0,0-.047,2.406C1574.514,1194.365,1574.526,1194.836,1574.526,1195.357Z" transform="translate(-1574.486 -1188.226)" fill="#ff4a69"/>
        </g>
        <g id="Grupo_11772" data-name="Grupo 11772" transform="translate(34.13 48.46)">
          <path id="Trazado_11398" data-name="Trazado 11398" d="M1578.084,1249.4h-.03a3.634,3.634,0,0,0-3.675,3.684,3.677,3.677,0,0,0,1.01,2.682,3.744,3.744,0,0,0,2.721,1.052h.02a3.774,3.774,0,0,0,2.71-1.043,3.789,3.789,0,0,0-2.757-6.375Z" transform="translate(-1574.379 -1249.401)" fill="#ff4a69"/>
        </g>
      </g>
    </g>
  </g>
</svg>
