<?xml version="1.0" encoding="utf-8"?>
<!-- Generator: Adobe Illustrator 25.2.0, SVG Export Plug-In . SVG Version: 6.00 Build 0)  -->
<svg version="1.1" id="Capa_1" xmlns="http://www.w3.org/2000/svg" xmlns:xlink="http://www.w3.org/1999/xlink" x="0px" y="0px"
	 viewBox="0 0 539 438.8" style="enable-background:new 0 0 539 438.8;" xml:space="preserve">
<style type="text/css">
	.st0{fill:#41CFE9;}
	.st1{fill:#4B84E5;}
	.st2{fill:#F2F2F2;}
	.st3{fill:#471E89;}
	.st4{fill:#0F94A5;}
	.st5{fill:#FFA400;}
	.st6{fill:#FF4A69;}
	.st7{fill:#F2E6EC;}
	.st8{enable-background:new    ;}
	.st9{fill:#FFFFFF;}
</style>
<g id="Grupo_14697" transform="translate(-356 -12363.727)">
	<g id="Grupo_14696" transform="translate(-1576.69 11781.58)">
		<rect id="Rectángulo_3319" x="1972.2" y="913.9" class="st0" width="8.1" height="75.4"/>
		<rect id="Rectángulo_3320" x="1972.2" y="839" class="st1" width="8.1" height="74.9"/>
		<circle id="Elipse_762" class="st2" cx="1976.4" cy="990.1" r="30.9"/>
		<path id="Trazado_15666" class="st3" d="M1976.4,967.2h173.8c12.6,0,22.9,10.3,22.9,22.9l0,0c0,12.6-10.3,22.9-22.9,22.9h-173.8
			V967.2z"/>
		<circle id="Elipse_763" class="st3" cx="1976.4" cy="990.1" r="22.9"/>
		<circle id="Elipse_764" class="st2" cx="1976.4" cy="915.5" r="30.9"/>
		<path id="Trazado_15667" class="st0" d="M1976.4,892.6h212.3c12.6,0,22.9,10.3,22.9,22.9l0,0c0,12.6-10.3,22.9-22.9,22.9h-212.3
			V892.6z"/>
		<circle id="Elipse_765" class="st0" cx="1976.4" cy="915.5" r="22.9"/>
		<rect id="Rectángulo_3321" x="1972.2" y="763.6" class="st4" width="8.1" height="75.4"/>
		<rect id="Rectángulo_3322" x="1972.2" y="688.7" class="st5" width="8.1" height="74.9"/>
		<rect id="Rectángulo_3323" x="1972.2" y="593.9" class="st6" width="8.1" height="94.8"/>
		<circle id="Elipse_766" class="st2" cx="1976.4" cy="839.8" r="30.9"/>
		<path id="Trazado_15668" class="st1" d="M1976.4,816.9h223.7c12.6,0,22.9,10.3,22.9,22.9l0,0c0,12.6-10.3,22.9-22.9,22.9h-223.7
			V816.9z"/>
		<circle id="Elipse_767" class="st1" cx="1976.4" cy="839.8" r="22.9"/>
		<circle id="Elipse_768" class="st2" cx="1976.4" cy="613" r="30.9"/>
		<circle id="Elipse_769" class="st6" cx="1976.4" cy="613" r="22.9"/>
		<path id="Trazado_15669" class="st6" d="M1976.4,590.1h472.4c12.6,0,22.9,10.3,22.9,22.9l0,0c0,12.6-10.3,22.9-22.9,22.9h-472.4
			L1976.4,590.1z"/>
		<circle id="Elipse_770" class="st2" cx="1976.4" cy="687.6" r="30.9"/>
		<path id="Trazado_15670" class="st5" d="M1976.4,664.7h406.9c12.6,0,22.9,10.3,22.9,22.9l0,0c0,12.6-10.3,22.9-22.9,22.9h-406.8
			L1976.4,664.7z"/>
		<circle id="Elipse_771" class="st5" cx="1976.4" cy="687.6" r="22.9"/>
		<circle id="Elipse_772" class="st2" cx="1976.4" cy="765.2" r="30.9"/>
		<path id="Trazado_15671" class="st4" d="M1976.4,742.3h267.6c12.6,0,22.9,10.3,22.9,22.9l0,0c0,12.6-10.3,22.9-22.9,22.9h-267.6
			V742.3z"/>
		<circle id="Elipse_773" class="st4" cx="1976.4" cy="765.2" r="22.9"/>
		<circle id="Elipse_774" class="st2" cx="1977.1" cy="613" r="20.6"/>
		<circle id="Elipse_775" class="st7" cx="1977.1" cy="687.6" r="20.6"/>
		<circle id="Elipse_776" class="st2" cx="1977.1" cy="765.2" r="20.6"/>
		<circle id="Elipse_777" class="st2" cx="1977.1" cy="839.4" r="20.6"/>
		<circle id="Elipse_778" class="st2" cx="1977.1" cy="915.5" r="20.6"/>
		<circle id="Elipse_779" class="st2" cx="1977.1" cy="989" r="20.6"/>
	</g>
	<g class="st8">
		<path class="st9" d="M443.7,12402v-12.6h3.5c4.4,0,6.7,2,6.7,6.1c0,1.9-0.6,3.5-1.9,4.7c-1.2,1.2-2.9,1.8-5,1.8H443.7z
			 M445.1,12390.7v9.9h1.9c1.7,0,2.9-0.4,3.9-1.3s1.4-2.1,1.4-3.8c0-3.2-1.7-4.8-5.2-4.8H445.1z"/>
		<path class="st9" d="M459.8,12402.2c-1.3,0-2.4-0.4-3.2-1.3c-0.8-0.8-1.2-2-1.2-3.3c0-1.5,0.4-2.7,1.2-3.5s1.9-1.3,3.3-1.3
			c1.3,0,2.4,0.4,3.1,1.2s1.1,2,1.1,3.4c0,1.4-0.4,2.6-1.2,3.4C462.3,12401.8,461.2,12402.2,459.8,12402.2z M459.9,12394
			c-0.9,0-1.7,0.3-2.2,0.9s-0.8,1.5-0.8,2.6c0,1.1,0.3,1.9,0.8,2.5s1.3,0.9,2.2,0.9c0.9,0,1.6-0.3,2.1-0.9s0.8-1.5,0.8-2.6
			c0-1.1-0.3-2-0.8-2.6S460.9,12394,459.9,12394z"/>
		<path class="st9" d="M468.1,12402h-1.4v-13.3h1.4V12402z"/>
		<path class="st9" d="M474.7,12402.2c-1.3,0-2.4-0.4-3.2-1.3c-0.8-0.8-1.2-2-1.2-3.3c0-1.5,0.4-2.7,1.2-3.5s1.9-1.3,3.3-1.3
			c1.3,0,2.4,0.4,3.1,1.2s1.1,2,1.1,3.4c0,1.4-0.4,2.6-1.2,3.4C477.2,12401.8,476.1,12402.2,474.7,12402.2z M474.9,12394
			c-0.9,0-1.7,0.3-2.2,0.9s-0.8,1.5-0.8,2.6c0,1.1,0.3,1.9,0.8,2.5s1.3,0.9,2.2,0.9c0.9,0,1.6-0.3,2.1-0.9s0.8-1.5,0.8-2.6
			c0-1.1-0.3-2-0.8-2.6S475.8,12394,474.9,12394z"/>
		<path class="st9" d="M486.2,12394.5c-0.3-0.2-0.6-0.3-1.1-0.3c-0.6,0-1.1,0.3-1.5,0.9s-0.6,1.4-0.6,2.4v4.6h-1.4v-9h1.4v1.9h0
			c0.2-0.6,0.5-1.1,0.9-1.5c0.4-0.4,0.9-0.5,1.4-0.5c0.4,0,0.7,0,0.9,0.1V12394.5z"/>
		<path class="st9" d="M500,12397.9h-6.4c0,1,0.3,1.8,0.8,2.3s1.2,0.8,2.1,0.8c1,0,1.9-0.3,2.8-1v1.4c-0.8,0.6-1.8,0.9-3.1,0.9
			c-1.3,0-2.3-0.4-3-1.2c-0.7-0.8-1.1-2-1.1-3.4c0-1.4,0.4-2.5,1.2-3.4c0.8-0.9,1.8-1.3,3-1.3s2.1,0.4,2.7,1.1s1,1.8,1,3.2V12397.9z
			 M498.5,12396.6c0-0.8-0.2-1.5-0.6-1.9s-0.9-0.7-1.6-0.7c-0.7,0-1.3,0.2-1.7,0.7s-0.8,1.1-0.9,1.9H498.5z"/>
		<path class="st9" d="M509.6,12402h-1.4v-5.1c0-1.9-0.7-2.9-2.1-2.9c-0.7,0-1.3,0.3-1.8,0.8c-0.5,0.5-0.7,1.2-0.7,2.1v5.1h-1.4v-9
			h1.4v1.5h0c0.7-1.1,1.7-1.7,3-1.7c1,0,1.7,0.3,2.3,1c0.5,0.6,0.8,1.6,0.8,2.8V12402z"/>
		<path class="st9" d="M524.5,12397.9h-6.4c0,1,0.3,1.8,0.8,2.3s1.2,0.8,2.1,0.8c1,0,1.9-0.3,2.8-1v1.4c-0.8,0.6-1.8,0.9-3.1,0.9
			c-1.3,0-2.3-0.4-3-1.2c-0.7-0.8-1.1-2-1.1-3.4c0-1.4,0.4-2.5,1.2-3.4c0.8-0.9,1.8-1.3,3-1.3s2.1,0.4,2.7,1.1s1,1.8,1,3.2V12397.9z
			 M523,12396.6c0-0.8-0.2-1.5-0.6-1.9s-0.9-0.7-1.6-0.7c-0.7,0-1.3,0.2-1.7,0.7s-0.8,1.1-0.9,1.9H523z"/>
		<path class="st9" d="M528.1,12402h-1.4v-13.3h1.4V12402z"/>
		<path class="st9" d="M537.4,12402H536v-13.3h1.4V12402z"/>
		<path class="st9" d="M547.6,12402h-1.4v-1.4h0c-0.6,1.1-1.5,1.6-2.8,1.6c-2.1,0-3.2-1.3-3.2-3.8v-5.4h1.4v5.2
			c0,1.9,0.7,2.8,2.2,2.8c0.7,0,1.3-0.3,1.7-0.8c0.5-0.5,0.7-1.2,0.7-2v-5.2h1.4V12402z"/>
		<path class="st9" d="M558.2,12401.3c0,3.3-1.6,5-4.7,5c-1.1,0-2.1-0.2-2.9-0.6v-1.4c1,0.6,2,0.8,2.9,0.8c2.2,0,3.3-1.2,3.3-3.5v-1
			h0c-0.7,1.1-1.7,1.7-3.1,1.7c-1.1,0-2-0.4-2.7-1.2c-0.7-0.8-1-1.9-1-3.2c0-1.5,0.4-2.7,1.1-3.6s1.7-1.4,3-1.4
			c1.2,0,2.1,0.5,2.7,1.5h0v-1.2h1.4V12401.3z M556.7,12397.9v-1.3c0-0.7-0.2-1.3-0.7-1.8s-1.1-0.8-1.8-0.8c-0.9,0-1.6,0.3-2.1,1
			c-0.5,0.6-0.8,1.6-0.8,2.7c0,1,0.2,1.8,0.7,2.4s1.1,0.9,1.9,0.9c0.8,0,1.5-0.3,2-0.9S556.7,12398.8,556.7,12397.9z"/>
		<path class="st9" d="M567.5,12402h-1.4v-1.4h0c-0.6,1.1-1.5,1.6-2.8,1.6c-0.9,0-1.6-0.2-2.1-0.7s-0.8-1.1-0.8-1.9
			c0-1.7,1-2.7,3-2.9l2.7-0.4c0-1.5-0.6-2.3-1.9-2.3c-1.1,0-2.1,0.4-2.9,1.1v-1.5c0.9-0.6,1.9-0.8,3.1-0.8c2.1,0,3.2,1.1,3.2,3.4
			V12402z M566.1,12397.4l-2.2,0.3c-0.7,0.1-1.2,0.3-1.5,0.5c-0.3,0.2-0.5,0.7-0.5,1.3c0,0.4,0.2,0.8,0.5,1.1
			c0.3,0.3,0.7,0.4,1.3,0.4c0.7,0,1.3-0.2,1.8-0.8c0.5-0.5,0.7-1.1,0.7-1.9V12397.4z"/>
		<path class="st9" d="M575,12394.5c-0.3-0.2-0.6-0.3-1.1-0.3c-0.6,0-1.1,0.3-1.5,0.9s-0.6,1.4-0.6,2.4v4.6h-1.4v-9h1.4v1.9h0
			c0.2-0.6,0.5-1.1,0.9-1.5c0.4-0.4,0.9-0.5,1.4-0.5c0.4,0,0.7,0,0.9,0.1V12394.5z"/>
		<path class="st9" d="M589.1,12402h-1.4v-1.5h0c-0.7,1.2-1.7,1.7-3.1,1.7c-1.1,0-2-0.4-2.7-1.2c-0.7-0.8-1-1.9-1-3.3
			c0-1.5,0.4-2.7,1.1-3.6s1.7-1.3,3-1.3c1.2,0,2.1,0.5,2.7,1.5h0v-5.6h1.4V12402z M587.7,12397.9v-1.3c0-0.7-0.2-1.3-0.7-1.8
			s-1.1-0.8-1.8-0.8c-0.9,0-1.6,0.3-2.1,1s-0.8,1.5-0.8,2.7c0,1,0.2,1.9,0.7,2.5s1.1,0.9,1.9,0.9c0.8,0,1.5-0.3,2-0.9
			S587.7,12398.8,587.7,12397.9z"/>
		<path class="st9" d="M599.3,12397.9h-6.4c0,1,0.3,1.8,0.8,2.3s1.2,0.8,2.1,0.8c1,0,1.9-0.3,2.8-1v1.4c-0.8,0.6-1.8,0.9-3.1,0.9
			c-1.3,0-2.3-0.4-3-1.2c-0.7-0.8-1.1-2-1.1-3.4c0-1.4,0.4-2.5,1.2-3.4c0.8-0.9,1.8-1.3,3-1.3s2.1,0.4,2.7,1.1s1,1.8,1,3.2V12397.9z
			 M597.8,12396.6c0-0.8-0.2-1.5-0.6-1.9s-0.9-0.7-1.6-0.7c-0.7,0-1.3,0.2-1.7,0.7s-0.8,1.1-0.9,1.9H597.8z"/>
		<path class="st9" d="M607.8,12402h-1.4v-13.3h1.4V12402z"/>
		<path class="st9" d="M617.2,12402h-1.4v-1.4h0c-0.6,1.1-1.5,1.6-2.8,1.6c-0.9,0-1.6-0.2-2.1-0.7s-0.8-1.1-0.8-1.9
			c0-1.7,1-2.7,3-2.9l2.7-0.4c0-1.5-0.6-2.3-1.9-2.3c-1.1,0-2.1,0.4-2.9,1.1v-1.5c0.9-0.6,1.9-0.8,3.1-0.8c2.1,0,3.2,1.1,3.2,3.4
			V12402z M615.8,12397.4l-2.2,0.3c-0.7,0.1-1.2,0.3-1.5,0.5c-0.3,0.2-0.5,0.7-0.5,1.3c0,0.4,0.2,0.8,0.5,1.1
			c0.3,0.3,0.7,0.4,1.3,0.4c0.7,0,1.3-0.2,1.8-0.8c0.5-0.5,0.7-1.1,0.7-1.9V12397.4z"/>
		<path class="st9" d="M625.6,12390.7c-0.3,0-0.5-0.1-0.7-0.3s-0.3-0.4-0.3-0.7s0.1-0.5,0.3-0.7s0.4-0.3,0.7-0.3
			c0.3,0,0.5,0.1,0.7,0.3c0.2,0.2,0.3,0.4,0.3,0.7c0,0.3-0.1,0.5-0.3,0.7C626.1,12390.6,625.8,12390.7,625.6,12390.7z M626.3,12402
			h-1.4v-9h1.4V12402z"/>
		<path class="st9" d="M636.7,12402h-1.4v-5.1c0-1.9-0.7-2.9-2.1-2.9c-0.7,0-1.3,0.3-1.8,0.8c-0.5,0.5-0.7,1.2-0.7,2.1v5.1h-1.4v-9
			h1.4v1.5h0c0.7-1.1,1.7-1.7,3-1.7c1,0,1.7,0.3,2.3,1c0.5,0.6,0.8,1.6,0.8,2.8V12402z"/>
		<path class="st9" d="M646.5,12393l-4.1,10.4c-0.7,1.9-1.8,2.8-3.1,2.8c-0.4,0-0.7,0-0.9-0.1v-1.3c0.3,0.1,0.6,0.2,0.9,0.2
			c0.7,0,1.3-0.4,1.6-1.3l0.7-1.7l-3.5-9h1.6l2.4,6.9c0,0.1,0.1,0.3,0.2,0.7h0.1c0-0.1,0.1-0.4,0.2-0.7l2.6-6.9H646.5z"/>
		<path class="st9" d="M655.3,12397.9H649c0,1,0.3,1.8,0.8,2.3s1.2,0.8,2.1,0.8c1,0,1.9-0.3,2.8-1v1.4c-0.8,0.6-1.8,0.9-3.1,0.9
			c-1.3,0-2.3-0.4-3-1.2c-0.7-0.8-1.1-2-1.1-3.4c0-1.4,0.4-2.5,1.2-3.4c0.8-0.9,1.8-1.3,3-1.3s2.1,0.4,2.7,1.1s1,1.8,1,3.2V12397.9z
			 M653.9,12396.6c0-0.8-0.2-1.5-0.6-1.9c-0.4-0.5-0.9-0.7-1.6-0.7c-0.7,0-1.3,0.2-1.7,0.7s-0.8,1.1-0.9,1.9H653.9z"/>
		<path class="st9" d="M663.6,12401.6c-0.7,0.4-1.5,0.6-2.5,0.6c-1.3,0-2.3-0.4-3.1-1.3c-0.8-0.8-1.2-1.9-1.2-3.2
			c0-1.5,0.4-2.7,1.3-3.6s2-1.3,3.4-1.3c0.8,0,1.5,0.1,2.1,0.4v1.5c-0.7-0.5-1.4-0.7-2.1-0.7c-0.9,0-1.7,0.3-2.3,1
			c-0.6,0.7-0.9,1.5-0.9,2.6c0,1.1,0.3,1.9,0.8,2.5c0.6,0.6,1.3,0.9,2.2,0.9c0.8,0,1.5-0.3,2.2-0.8V12401.6z"/>
		<path class="st9" d="M672,12401.6c-0.7,0.4-1.5,0.6-2.5,0.6c-1.3,0-2.3-0.4-3.1-1.3c-0.8-0.8-1.2-1.9-1.2-3.2
			c0-1.5,0.4-2.7,1.3-3.6s2-1.3,3.4-1.3c0.8,0,1.5,0.1,2.1,0.4v1.5c-0.7-0.5-1.4-0.7-2.1-0.7c-0.9,0-1.7,0.3-2.3,1
			c-0.6,0.7-0.9,1.5-0.9,2.6c0,1.1,0.3,1.9,0.8,2.5c0.6,0.6,1.3,0.9,2.2,0.9c0.8,0,1.5-0.3,2.2-0.8V12401.6z"/>
		<path class="st9" d="M674.9,12390.7c-0.3,0-0.5-0.1-0.7-0.3s-0.3-0.4-0.3-0.7s0.1-0.5,0.3-0.7s0.4-0.3,0.7-0.3
			c0.3,0,0.5,0.1,0.7,0.3c0.2,0.2,0.3,0.4,0.3,0.7c0,0.3-0.1,0.5-0.3,0.7C675.4,12390.6,675.1,12390.7,674.9,12390.7z M675.6,12402
			h-1.4v-9h1.4V12402z"/>
		<path class="st9" d="M682.3,12402.2c-1.3,0-2.4-0.4-3.2-1.3c-0.8-0.8-1.2-2-1.2-3.3c0-1.5,0.4-2.7,1.2-3.5s1.9-1.3,3.3-1.3
			c1.3,0,2.4,0.4,3.1,1.2c0.8,0.8,1.1,2,1.1,3.4c0,1.4-0.4,2.6-1.2,3.4C684.7,12401.8,683.6,12402.2,682.3,12402.2z M682.4,12394
			c-0.9,0-1.7,0.3-2.2,0.9s-0.8,1.5-0.8,2.6c0,1.1,0.3,1.9,0.8,2.5s1.3,0.9,2.2,0.9c0.9,0,1.6-0.3,2.1-0.9c0.5-0.6,0.8-1.5,0.8-2.6
			c0-1.1-0.2-2-0.8-2.6C684,12394.3,683.3,12394,682.4,12394z M684.5,12388.4l-2.3,2.9h-1.1l2-2.9H684.5z"/>
		<path class="st9" d="M696.5,12402h-1.4v-5.1c0-1.9-0.7-2.9-2.1-2.9c-0.7,0-1.3,0.3-1.8,0.8c-0.5,0.5-0.7,1.2-0.7,2.1v5.1H689v-9
			h1.4v1.5h0c0.7-1.1,1.7-1.7,3-1.7c1,0,1.7,0.3,2.3,1c0.5,0.6,0.8,1.6,0.8,2.8V12402z"/>
	</g>
	<g class="st8">
		<path class="st9" d="M450.1,12464.7h-4.9v4.4h4.6v1.3h-4.6v5.6h-1.5v-12.6h6.4V12464.7z"/>
		<path class="st9" d="M458.1,12476h-1.4v-1.4h0c-0.6,1.1-1.5,1.6-2.8,1.6c-0.9,0-1.6-0.2-2.1-0.7s-0.8-1.1-0.8-1.9
			c0-1.7,1-2.7,3-2.9l2.7-0.4c0-1.5-0.6-2.3-1.9-2.3c-1.1,0-2.1,0.4-2.9,1.1v-1.5c0.9-0.6,1.9-0.8,3.1-0.8c2.1,0,3.2,1.1,3.2,3.4
			V12476z M456.6,12471.4l-2.2,0.3c-0.7,0.1-1.2,0.3-1.5,0.5c-0.3,0.2-0.5,0.7-0.5,1.3c0,0.4,0.2,0.8,0.5,1.1
			c0.3,0.3,0.7,0.4,1.3,0.4c0.7,0,1.3-0.2,1.8-0.8c0.5-0.5,0.7-1.1,0.7-1.9V12471.4z"/>
		<path class="st9" d="M465,12475.9c-0.3,0.2-0.8,0.3-1.3,0.3c-1.6,0-2.4-0.9-2.4-2.6v-5.3h-1.5v-1.2h1.5v-2.2l1.4-0.5v2.7h2.3v1.2
			h-2.3v5.1c0,0.6,0.1,1,0.3,1.3s0.5,0.4,1,0.4c0.4,0,0.7-0.1,0.9-0.3V12475.9z"/>
		<path class="st9" d="M467.6,12464.7c-0.3,0-0.5-0.1-0.7-0.3s-0.3-0.4-0.3-0.7s0.1-0.5,0.3-0.7s0.4-0.3,0.7-0.3
			c0.3,0,0.5,0.1,0.7,0.3s0.3,0.4,0.3,0.7c0,0.3-0.1,0.5-0.3,0.7S467.9,12464.7,467.6,12464.7z M468.3,12476h-1.4v-9h1.4V12476z"/>
		<path class="st9" d="M478.9,12475.3c0,3.3-1.6,5-4.7,5c-1.1,0-2.1-0.2-2.9-0.6v-1.4c1,0.6,2,0.8,2.9,0.8c2.2,0,3.3-1.2,3.3-3.5v-1
			h0c-0.7,1.1-1.7,1.7-3.1,1.7c-1.1,0-2-0.4-2.7-1.2c-0.7-0.8-1-1.9-1-3.2c0-1.5,0.4-2.7,1.1-3.6s1.7-1.4,3-1.4
			c1.2,0,2.1,0.5,2.7,1.5h0v-1.2h1.4V12475.3z M477.5,12471.9v-1.3c0-0.7-0.2-1.3-0.7-1.8s-1.1-0.8-1.8-0.8c-0.9,0-1.6,0.3-2.1,1
			c-0.5,0.6-0.8,1.6-0.8,2.7c0,1,0.2,1.8,0.7,2.4s1.1,0.9,1.9,0.9c0.8,0,1.5-0.3,2-0.9S477.5,12472.8,477.5,12471.9z"/>
		<path class="st9" d="M488.3,12476h-1.4v-1.4h0c-0.6,1.1-1.5,1.6-2.8,1.6c-0.9,0-1.6-0.2-2.1-0.7s-0.8-1.1-0.8-1.9
			c0-1.7,1-2.7,3-2.9l2.7-0.4c0-1.5-0.6-2.3-1.9-2.3c-1.1,0-2.1,0.4-2.9,1.1v-1.5c0.9-0.6,1.9-0.8,3.1-0.8c2.1,0,3.2,1.1,3.2,3.4
			V12476z M486.9,12471.4l-2.2,0.3c-0.7,0.1-1.2,0.3-1.5,0.5c-0.3,0.2-0.5,0.7-0.5,1.3c0,0.4,0.2,0.8,0.5,1.1
			c0.3,0.3,0.7,0.4,1.3,0.4c0.7,0,1.3-0.2,1.8-0.8c0.5-0.5,0.7-1.1,0.7-1.9V12471.4z"/>
	</g>
	<g class="st8">
		<path class="st9" d="M443.7,12556v-12.6h3.5c4.4,0,6.7,2,6.7,6.1c0,1.9-0.6,3.5-1.9,4.7c-1.2,1.2-2.9,1.8-5,1.8H443.7z
			 M445.1,12544.7v9.9h1.9c1.7,0,2.9-0.4,3.9-1.3s1.4-2.1,1.4-3.8c0-3.2-1.7-4.8-5.2-4.8H445.1z"/>
		<path class="st9" d="M459.8,12556.2c-1.3,0-2.4-0.4-3.2-1.3c-0.8-0.8-1.2-2-1.2-3.3c0-1.5,0.4-2.7,1.2-3.5s1.9-1.3,3.3-1.3
			c1.3,0,2.4,0.4,3.1,1.2s1.1,2,1.1,3.4c0,1.4-0.4,2.6-1.2,3.4C462.3,12555.8,461.2,12556.2,459.8,12556.2z M459.9,12548
			c-0.9,0-1.7,0.3-2.2,0.9s-0.8,1.5-0.8,2.6c0,1.1,0.3,1.9,0.8,2.5s1.3,0.9,2.2,0.9c0.9,0,1.6-0.3,2.1-0.9s0.8-1.5,0.8-2.6
			c0-1.1-0.3-2-0.8-2.6S460.9,12548,459.9,12548z"/>
		<path class="st9" d="M468.1,12556h-1.4v-13.3h1.4V12556z"/>
		<path class="st9" d="M474.7,12556.2c-1.3,0-2.4-0.4-3.2-1.3c-0.8-0.8-1.2-2-1.2-3.3c0-1.5,0.4-2.7,1.2-3.5s1.9-1.3,3.3-1.3
			c1.3,0,2.4,0.4,3.1,1.2s1.1,2,1.1,3.4c0,1.4-0.4,2.6-1.2,3.4C477.2,12555.8,476.1,12556.2,474.7,12556.2z M474.9,12548
			c-0.9,0-1.7,0.3-2.2,0.9s-0.8,1.5-0.8,2.6c0,1.1,0.3,1.9,0.8,2.5s1.3,0.9,2.2,0.9c0.9,0,1.6-0.3,2.1-0.9s0.8-1.5,0.8-2.6
			c0-1.1-0.3-2-0.8-2.6S475.8,12548,474.9,12548z"/>
		<path class="st9" d="M486.2,12548.5c-0.3-0.2-0.6-0.3-1.1-0.3c-0.6,0-1.1,0.3-1.5,0.9s-0.6,1.4-0.6,2.4v4.6h-1.4v-9h1.4v1.9h0
			c0.2-0.6,0.5-1.1,0.9-1.5c0.4-0.4,0.9-0.5,1.4-0.5c0.4,0,0.7,0,0.9,0.1V12548.5z"/>
		<path class="st9" d="M500.4,12556H499v-1.5h0c-0.7,1.2-1.7,1.7-3.1,1.7c-1.1,0-2-0.4-2.7-1.2c-0.7-0.8-1-1.9-1-3.3
			c0-1.5,0.4-2.7,1.1-3.6s1.7-1.3,3-1.3c1.2,0,2.1,0.5,2.7,1.5h0v-5.6h1.4V12556z M499,12551.9v-1.3c0-0.7-0.2-1.3-0.7-1.8
			s-1.1-0.8-1.8-0.8c-0.9,0-1.6,0.3-2.1,1s-0.8,1.5-0.8,2.7c0,1,0.2,1.9,0.7,2.5s1.1,0.9,1.9,0.9c0.8,0,1.5-0.3,2-0.9
			S499,12552.8,499,12551.9z"/>
		<path class="st9" d="M510.6,12551.9h-6.4c0,1,0.3,1.8,0.8,2.3s1.2,0.8,2.1,0.8c1,0,1.9-0.3,2.8-1v1.4c-0.8,0.6-1.8,0.9-3.1,0.9
			c-1.3,0-2.3-0.4-3-1.2c-0.7-0.8-1.1-2-1.1-3.4c0-1.4,0.4-2.5,1.2-3.4c0.8-0.9,1.8-1.3,3-1.3s2.1,0.4,2.7,1.1s1,1.8,1,3.2V12551.9z
			 M509.1,12550.6c0-0.8-0.2-1.5-0.6-1.9s-0.9-0.7-1.6-0.7c-0.7,0-1.3,0.2-1.7,0.7s-0.8,1.1-0.9,1.9H509.1z"/>
		<path class="st9" d="M523.8,12555.6c-0.7,0.4-1.5,0.6-2.5,0.6c-1.3,0-2.3-0.4-3.1-1.3c-0.8-0.8-1.2-1.9-1.2-3.2
			c0-1.5,0.4-2.7,1.3-3.6s2-1.3,3.4-1.3c0.8,0,1.5,0.1,2.1,0.4v1.5c-0.7-0.5-1.4-0.7-2.1-0.7c-0.9,0-1.7,0.3-2.3,1
			c-0.6,0.7-0.9,1.5-0.9,2.6c0,1.1,0.3,1.9,0.8,2.5s1.3,0.9,2.2,0.9c0.8,0,1.5-0.3,2.2-0.8V12555.6z"/>
		<path class="st9" d="M532.4,12556H531v-1.4h0c-0.6,1.1-1.5,1.6-2.8,1.6c-0.9,0-1.6-0.2-2.1-0.7s-0.8-1.1-0.8-1.9
			c0-1.7,1-2.7,3-2.9l2.7-0.4c0-1.5-0.6-2.3-1.9-2.3c-1.1,0-2.1,0.4-2.9,1.1v-1.5c0.9-0.6,1.9-0.8,3.1-0.8c2.1,0,3.2,1.1,3.2,3.4
			V12556z M531,12551.4l-2.2,0.3c-0.7,0.1-1.2,0.3-1.5,0.5c-0.3,0.2-0.5,0.7-0.5,1.3c0,0.4,0.2,0.8,0.5,1.1c0.3,0.3,0.7,0.4,1.3,0.4
			c0.7,0,1.3-0.2,1.8-0.8c0.5-0.5,0.7-1.1,0.7-1.9V12551.4z"/>
		<path class="st9" d="M536.6,12554.7L536.6,12554.7l0,1.3h-1.4v-13.3h1.4v5.9h0c0.7-1.2,1.7-1.8,3.1-1.8c1.2,0,2.1,0.4,2.7,1.2
			s1,1.9,1,3.2c0,1.5-0.4,2.7-1.1,3.6c-0.7,0.9-1.7,1.4-3,1.4C538.1,12556.2,537.2,12555.7,536.6,12554.7z M536.6,12551.1v1.3
			c0,0.7,0.2,1.4,0.7,1.9c0.5,0.5,1.1,0.8,1.8,0.8c0.9,0,1.6-0.3,2.1-1s0.7-1.6,0.7-2.8c0-1-0.2-1.8-0.7-2.4s-1.1-0.9-1.9-0.9
			c-0.8,0-1.5,0.3-2,0.9S536.6,12550.2,536.6,12551.1z"/>
		<path class="st9" d="M553,12551.9h-6.4c0,1,0.3,1.8,0.8,2.3s1.2,0.8,2.1,0.8c1,0,1.9-0.3,2.8-1v1.4c-0.8,0.6-1.8,0.9-3.1,0.9
			c-1.3,0-2.3-0.4-3-1.2c-0.7-0.8-1.1-2-1.1-3.4c0-1.4,0.4-2.5,1.2-3.4c0.8-0.9,1.8-1.3,3-1.3s2.1,0.4,2.7,1.1s1,1.8,1,3.2V12551.9z
			 M551.5,12550.6c0-0.8-0.2-1.5-0.6-1.9s-0.9-0.7-1.6-0.7c-0.7,0-1.3,0.2-1.7,0.7s-0.8,1.1-0.9,1.9H551.5z"/>
		<path class="st9" d="M561.4,12547.4l-5.3,7.4h5.3v1.2H554v-0.4l5.3-7.3h-4.8v-1.2h6.9V12547.4z"/>
		<path class="st9" d="M569.7,12556h-1.4v-1.4h0c-0.6,1.1-1.5,1.6-2.8,1.6c-0.9,0-1.6-0.2-2.1-0.7s-0.8-1.1-0.8-1.9
			c0-1.7,1-2.7,3-2.9l2.7-0.4c0-1.5-0.6-2.3-1.9-2.3c-1.1,0-2.1,0.4-2.9,1.1v-1.5c0.9-0.6,1.9-0.8,3.1-0.8c2.1,0,3.2,1.1,3.2,3.4
			V12556z M568.3,12551.4l-2.2,0.3c-0.7,0.1-1.2,0.3-1.5,0.5c-0.3,0.2-0.5,0.7-0.5,1.3c0,0.4,0.2,0.8,0.5,1.1
			c0.3,0.3,0.7,0.4,1.3,0.4c0.7,0,1.3-0.2,1.8-0.8c0.5-0.5,0.7-1.1,0.7-1.9V12551.4z"/>
	</g>
	<g class="st8">
		<path class="st9" d="M456.5,12630H455v-8.5c0-0.7,0-1.5,0.1-2.5h0c-0.1,0.6-0.3,1-0.4,1.2l-4.3,9.7h-0.7l-4.3-9.6
			c-0.1-0.3-0.2-0.7-0.4-1.3h0c0,0.5,0.1,1.3,0.1,2.5v8.4h-1.4v-12.6h2l3.9,8.8c0.3,0.7,0.5,1.2,0.6,1.5h0.1
			c0.3-0.7,0.5-1.2,0.6-1.5l3.9-8.8h1.8V12630z"/>
		<path class="st9" d="M460.4,12618.7c-0.3,0-0.5-0.1-0.7-0.3s-0.3-0.4-0.3-0.7s0.1-0.5,0.3-0.7s0.4-0.3,0.7-0.3
			c0.3,0,0.5,0.1,0.7,0.3s0.3,0.4,0.3,0.7c0,0.3-0.1,0.5-0.3,0.7S460.6,12618.7,460.4,12618.7z M461.1,12630h-1.4v-9h1.4V12630z"/>
		<path class="st9" d="M470.4,12630H469v-1.4h0c-0.6,1.1-1.5,1.6-2.8,1.6c-0.9,0-1.6-0.2-2.1-0.7s-0.8-1.1-0.8-1.9
			c0-1.7,1-2.7,3-2.9l2.7-0.4c0-1.5-0.6-2.3-1.9-2.3c-1.1,0-2.1,0.4-2.9,1.1v-1.5c0.9-0.6,1.9-0.8,3.1-0.8c2.1,0,3.2,1.1,3.2,3.4
			V12630z M469,12625.4l-2.2,0.3c-0.7,0.1-1.2,0.3-1.5,0.5c-0.3,0.2-0.5,0.7-0.5,1.3c0,0.4,0.2,0.8,0.5,1.1c0.3,0.3,0.7,0.4,1.3,0.4
			c0.7,0,1.3-0.2,1.8-0.8c0.5-0.5,0.7-1.1,0.7-1.9V12625.4z"/>
		<path class="st9" d="M474.6,12630h-1.4v-13.3h1.4V12630z"/>
		<path class="st9" d="M485.2,12629.3c0,3.3-1.6,5-4.7,5c-1.1,0-2.1-0.2-2.9-0.6v-1.4c1,0.6,2,0.8,2.9,0.8c2.2,0,3.3-1.2,3.3-3.5v-1
			h0c-0.7,1.1-1.7,1.7-3.1,1.7c-1.1,0-2-0.4-2.7-1.2c-0.7-0.8-1-1.9-1-3.2c0-1.5,0.4-2.7,1.1-3.6s1.7-1.4,3-1.4
			c1.2,0,2.1,0.5,2.7,1.5h0v-1.2h1.4V12629.3z M483.7,12625.9v-1.3c0-0.7-0.2-1.3-0.7-1.8s-1.1-0.8-1.8-0.8c-0.9,0-1.6,0.3-2.1,1
			c-0.5,0.6-0.8,1.6-0.8,2.7c0,1,0.2,1.8,0.7,2.4s1.1,0.9,1.9,0.9c0.8,0,1.5-0.3,2-0.9S483.7,12626.8,483.7,12625.9z"/>
		<path class="st9" d="M488.8,12618.7c-0.3,0-0.5-0.1-0.7-0.3s-0.3-0.4-0.3-0.7s0.1-0.5,0.3-0.7s0.4-0.3,0.7-0.3
			c0.3,0,0.5,0.1,0.7,0.3s0.3,0.4,0.3,0.7c0,0.3-0.1,0.5-0.3,0.7S489.1,12618.7,488.8,12618.7z M489.5,12630h-1.4v-9h1.4V12630z"/>
		<path class="st9" d="M498.9,12630h-1.4v-1.4h0c-0.6,1.1-1.5,1.6-2.8,1.6c-0.9,0-1.6-0.2-2.1-0.7s-0.8-1.1-0.8-1.9
			c0-1.7,1-2.7,3-2.9l2.7-0.4c0-1.5-0.6-2.3-1.9-2.3c-1.1,0-2.1,0.4-2.9,1.1v-1.5c0.9-0.6,1.9-0.8,3.1-0.8c2.1,0,3.2,1.1,3.2,3.4
			V12630z M497.5,12625.4l-2.2,0.3c-0.7,0.1-1.2,0.3-1.5,0.5c-0.3,0.2-0.5,0.7-0.5,1.3c0,0.4,0.2,0.8,0.5,1.1
			c0.3,0.3,0.7,0.4,1.3,0.4c0.7,0,1.3-0.2,1.8-0.8c0.5-0.5,0.7-1.1,0.7-1.9V12625.4z"/>
	</g>
	<g class="st8">
		<path class="st9" d="M450.3,12704h-6.7v-12.6h6.4v1.3h-4.9v4.2h4.6v1.3h-4.6v4.4h5.2V12704z"/>
		<path class="st9" d="M452,12703.7v-1.5c0.8,0.6,1.6,0.9,2.6,0.9c1.3,0,1.9-0.4,1.9-1.3c0-0.2-0.1-0.4-0.2-0.6
			c-0.1-0.2-0.3-0.3-0.4-0.4s-0.4-0.2-0.7-0.3c-0.2-0.1-0.5-0.2-0.8-0.3c-0.4-0.2-0.7-0.3-1.1-0.5s-0.6-0.3-0.8-0.5
			c-0.2-0.2-0.4-0.4-0.5-0.7s-0.2-0.6-0.2-0.9c0-0.4,0.1-0.8,0.3-1.1c0.2-0.3,0.5-0.6,0.8-0.8c0.3-0.2,0.7-0.4,1.1-0.5
			s0.8-0.2,1.3-0.2c0.8,0,1.5,0.1,2.1,0.4v1.5c-0.7-0.4-1.4-0.7-2.3-0.7c-0.3,0-0.5,0-0.7,0.1c-0.2,0.1-0.4,0.1-0.6,0.3
			s-0.3,0.2-0.4,0.4s-0.1,0.3-0.1,0.5c0,0.2,0,0.4,0.1,0.6s0.2,0.3,0.4,0.4s0.4,0.2,0.6,0.3s0.5,0.2,0.8,0.3
			c0.4,0.2,0.8,0.3,1.1,0.5s0.6,0.3,0.8,0.5c0.2,0.2,0.4,0.4,0.5,0.7s0.2,0.6,0.2,0.9c0,0.4-0.1,0.8-0.3,1.2s-0.5,0.6-0.8,0.8
			s-0.7,0.4-1.1,0.5s-0.9,0.2-1.3,0.2C453.5,12704.2,452.7,12704,452,12703.7z"/>
		<path class="st9" d="M466.3,12703.6c-0.7,0.4-1.5,0.6-2.5,0.6c-1.3,0-2.3-0.4-3.1-1.3c-0.8-0.8-1.2-1.9-1.2-3.2
			c0-1.5,0.4-2.7,1.3-3.6s2-1.3,3.4-1.3c0.8,0,1.5,0.1,2.1,0.4v1.5c-0.7-0.5-1.4-0.7-2.1-0.7c-0.9,0-1.7,0.3-2.3,1
			c-0.6,0.7-0.9,1.5-0.9,2.6c0,1.1,0.3,1.9,0.8,2.5s1.3,0.9,2.2,0.9c0.8,0,1.5-0.3,2.2-0.8V12703.6z"/>
		<path class="st9" d="M475,12704h-1.4v-1.4h0c-0.6,1.1-1.5,1.6-2.8,1.6c-0.9,0-1.6-0.2-2.1-0.7s-0.8-1.1-0.8-1.9c0-1.7,1-2.7,3-2.9
			l2.7-0.4c0-1.5-0.6-2.3-1.9-2.3c-1.1,0-2.1,0.4-2.9,1.1v-1.5c0.9-0.6,1.9-0.8,3.1-0.8c2.1,0,3.2,1.1,3.2,3.4V12704z
			 M473.5,12699.4l-2.2,0.3c-0.7,0.1-1.2,0.3-1.5,0.5c-0.3,0.2-0.5,0.7-0.5,1.3c0,0.4,0.2,0.8,0.5,1.1c0.3,0.3,0.7,0.4,1.3,0.4
			c0.7,0,1.3-0.2,1.8-0.8c0.5-0.5,0.7-1.1,0.7-1.9V12699.4z"/>
		<path class="st9" d="M479.1,12704h-1.4v-13.3h1.4V12704z"/>
		<path class="st9" d="M485.8,12704.2c-1.3,0-2.4-0.4-3.2-1.3c-0.8-0.8-1.2-2-1.2-3.3c0-1.5,0.4-2.7,1.2-3.5s1.9-1.3,3.3-1.3
			c1.3,0,2.4,0.4,3.1,1.2s1.1,2,1.1,3.4c0,1.4-0.4,2.6-1.2,3.4C488.2,12703.8,487.2,12704.2,485.8,12704.2z M485.9,12696
			c-0.9,0-1.7,0.3-2.2,0.9s-0.8,1.5-0.8,2.6c0,1.1,0.3,1.9,0.8,2.5s1.3,0.9,2.2,0.9c0.9,0,1.6-0.3,2.1-0.9s0.8-1.5,0.8-2.6
			c0-1.1-0.3-2-0.8-2.6S486.8,12696,485.9,12696z"/>
		<path class="st9" d="M497,12691.9c-0.3-0.2-0.6-0.2-1-0.2c-1,0-1.5,0.6-1.5,1.9v1.4h2.1v1.2h-2.1v7.8h-1.4v-7.8h-1.5v-1.2h1.5
			v-1.5c0-0.9,0.3-1.7,0.8-2.2s1.2-0.8,2-0.8c0.4,0,0.8,0.1,1,0.2V12691.9z"/>
		<path class="st9" d="M502.9,12696.5c-0.3-0.2-0.6-0.3-1.1-0.3c-0.6,0-1.1,0.3-1.5,0.9s-0.6,1.4-0.6,2.4v4.6h-1.4v-9h1.4v1.9h0
			c0.2-0.6,0.5-1.1,0.9-1.5c0.4-0.4,0.9-0.5,1.4-0.5c0.4,0,0.7,0,0.9,0.1V12696.5z"/>
		<path class="st9" d="M507.2,12690.4l-2.3,2.9h-1.1l2-2.9H507.2z M505.9,12704h-1.4v-9h1.4V12704z"/>
		<path class="st9" d="M512.6,12704.2c-1.3,0-2.4-0.4-3.2-1.3c-0.8-0.8-1.2-2-1.2-3.3c0-1.5,0.4-2.7,1.2-3.5s1.9-1.3,3.3-1.3
			c1.3,0,2.4,0.4,3.1,1.2s1.1,2,1.1,3.4c0,1.4-0.4,2.6-1.2,3.4C515,12703.8,514,12704.2,512.6,12704.2z M512.7,12696
			c-0.9,0-1.7,0.3-2.2,0.9s-0.8,1.5-0.8,2.6c0,1.1,0.3,1.9,0.8,2.5s1.3,0.9,2.2,0.9c0.9,0,1.6-0.3,2.1-0.9s0.8-1.5,0.8-2.6
			c0-1.1-0.3-2-0.8-2.6S513.6,12696,512.7,12696z"/>
		<path class="st9" d="M518.8,12703.7v-1.5c0.8,0.6,1.6,0.9,2.6,0.9c1.3,0,1.9-0.4,1.9-1.3c0-0.2-0.1-0.4-0.2-0.6
			c-0.1-0.2-0.3-0.3-0.4-0.4s-0.4-0.2-0.7-0.3c-0.2-0.1-0.5-0.2-0.8-0.3c-0.4-0.2-0.7-0.3-1.1-0.5s-0.6-0.3-0.8-0.5
			c-0.2-0.2-0.4-0.4-0.5-0.7s-0.2-0.6-0.2-0.9c0-0.4,0.1-0.8,0.3-1.1c0.2-0.3,0.5-0.6,0.8-0.8c0.3-0.2,0.7-0.4,1.1-0.5
			s0.8-0.2,1.3-0.2c0.8,0,1.5,0.1,2.1,0.4v1.5c-0.7-0.4-1.4-0.7-2.3-0.7c-0.3,0-0.5,0-0.7,0.1c-0.2,0.1-0.4,0.1-0.6,0.3
			s-0.3,0.2-0.4,0.4s-0.1,0.3-0.1,0.5c0,0.2,0,0.4,0.1,0.6s0.2,0.3,0.4,0.4s0.4,0.2,0.6,0.3s0.5,0.2,0.8,0.3
			c0.4,0.2,0.8,0.3,1.1,0.5s0.6,0.3,0.8,0.5c0.2,0.2,0.4,0.4,0.5,0.7s0.2,0.6,0.2,0.9c0,0.4-0.1,0.8-0.3,1.2s-0.5,0.6-0.8,0.8
			s-0.7,0.4-1.1,0.5s-0.9,0.2-1.3,0.2C520.3,12704.2,519.5,12704,518.8,12703.7z"/>
	</g>
	<g class="st8">
		<path class="st9" d="M450.1,12769.7h-4.9v4.4h4.6v1.3h-4.6v5.6h-1.5v-12.6h6.4V12769.7z"/>
		<path class="st9" d="M453,12769.7c-0.3,0-0.5-0.1-0.7-0.3s-0.3-0.4-0.3-0.7s0.1-0.5,0.3-0.7s0.4-0.3,0.7-0.3
			c0.3,0,0.5,0.1,0.7,0.3s0.3,0.4,0.3,0.7c0,0.3-0.1,0.5-0.3,0.7S453.2,12769.7,453,12769.7z M453.7,12781h-1.4v-9h1.4V12781z"/>
		<path class="st9" d="M463.8,12776.9h-6.4c0,1,0.3,1.8,0.8,2.3s1.2,0.8,2.1,0.8c1,0,1.9-0.3,2.8-1v1.4c-0.8,0.6-1.8,0.9-3.1,0.9
			c-1.3,0-2.3-0.4-3-1.2c-0.7-0.8-1.1-2-1.1-3.4c0-1.4,0.4-2.5,1.2-3.4c0.8-0.9,1.8-1.3,3-1.3s2.1,0.4,2.7,1.1s1,1.8,1,3.2V12776.9z
			 M462.4,12775.6c0-0.8-0.2-1.5-0.6-1.9s-0.9-0.7-1.6-0.7c-0.7,0-1.3,0.2-1.7,0.7s-0.8,1.1-0.9,1.9H462.4z"/>
		<path class="st9" d="M467.5,12779.7L467.5,12779.7l0,1.3H466v-13.3h1.4v5.9h0c0.7-1.2,1.7-1.8,3.1-1.8c1.2,0,2.1,0.4,2.7,1.2
			s1,1.9,1,3.2c0,1.5-0.4,2.7-1.1,3.6c-0.7,0.9-1.7,1.4-3,1.4C469,12781.2,468.1,12780.7,467.5,12779.7z M467.5,12776.1v1.3
			c0,0.7,0.2,1.4,0.7,1.9c0.5,0.5,1.1,0.8,1.8,0.8c0.9,0,1.6-0.3,2.1-1s0.7-1.6,0.7-2.8c0-1-0.2-1.8-0.7-2.4s-1.1-0.9-1.9-0.9
			c-0.8,0-1.5,0.3-2,0.9S467.5,12775.2,467.5,12776.1z"/>
		<path class="st9" d="M481.3,12773.5c-0.3-0.2-0.6-0.3-1.1-0.3c-0.6,0-1.1,0.3-1.5,0.9s-0.6,1.4-0.6,2.4v4.6h-1.4v-9h1.4v1.9h0
			c0.2-0.6,0.5-1.1,0.9-1.5c0.4-0.4,0.9-0.5,1.4-0.5c0.4,0,0.7,0,0.9,0.1V12773.5z"/>
		<path class="st9" d="M490.1,12776.9h-6.4c0,1,0.3,1.8,0.8,2.3s1.2,0.8,2.1,0.8c1,0,1.9-0.3,2.8-1v1.4c-0.8,0.6-1.8,0.9-3.1,0.9
			c-1.3,0-2.3-0.4-3-1.2c-0.7-0.8-1.1-2-1.1-3.4c0-1.4,0.4-2.5,1.2-3.4c0.8-0.9,1.8-1.3,3-1.3s2.1,0.4,2.7,1.1s1,1.8,1,3.2V12776.9z
			 M488.6,12775.6c0-0.8-0.2-1.5-0.6-1.9s-0.9-0.7-1.6-0.7c-0.7,0-1.3,0.2-1.7,0.7s-0.8,1.1-0.9,1.9H488.6z"/>
		<path class="st9" d="M501,12783.9h-1.3c-1.8-2.1-2.7-4.6-2.7-7.7c0-3.1,0.9-5.7,2.7-7.8h1.3c-1.8,2.2-2.8,4.8-2.8,7.8
			C498.2,12779.1,499.2,12781.7,501,12783.9z"/>
		<path class="st9" d="M516.1,12779.9l-7.6-3.8v-0.5l7.6-4.2v1.3l-5.6,3.1v0l5.6,2.8V12779.9z"/>
		<path class="st9" d="M526.8,12777.4c0,0.6-0.1,1.1-0.3,1.6c-0.2,0.5-0.5,0.9-0.9,1.2c-0.4,0.3-0.9,0.6-1.4,0.8s-1.1,0.3-1.8,0.3
			c-1.2,0-2.2-0.2-2.9-0.7v-1.5c0.8,0.7,1.8,1,2.9,1c0.4,0,0.8-0.1,1.2-0.2s0.7-0.3,0.9-0.5s0.5-0.5,0.6-0.8s0.2-0.6,0.2-1
			c0-1.6-1.2-2.5-3.5-2.5h-1v-1.2h1c2.1,0,3.1-0.8,3.1-2.3c0-1.4-0.8-2.1-2.4-2.1c-0.9,0-1.7,0.3-2.5,0.9v-1.4
			c0.8-0.5,1.8-0.7,2.9-0.7c0.5,0,1,0.1,1.4,0.2s0.8,0.4,1.1,0.6s0.5,0.6,0.7,0.9s0.3,0.8,0.3,1.2c0,1.7-0.8,2.7-2.5,3.2v0
			c0.4,0,0.8,0.2,1.2,0.3s0.7,0.4,0.9,0.6s0.5,0.6,0.6,0.9C526.7,12776.6,526.8,12777,526.8,12777.4z"/>
		<path class="st9" d="M528.9,12777.5c0-0.3,0.1-0.7,0.2-1s0.3-0.7,0.5-0.9s0.4-0.6,0.7-0.8s0.6-0.4,1-0.6c-0.5-0.3-1-0.7-1.3-1.2
			c-0.3-0.5-0.5-1-0.5-1.6c0-0.5,0.1-0.9,0.3-1.3s0.4-0.7,0.7-1s0.7-0.5,1.1-0.7s0.9-0.2,1.4-0.2c0.5,0,1,0.1,1.4,0.2
			s0.8,0.4,1.1,0.7s0.6,0.6,0.7,1s0.3,0.8,0.3,1.3c0,0.6-0.2,1.1-0.5,1.6c-0.3,0.5-0.8,0.9-1.3,1.2c0.4,0.1,0.7,0.3,1,0.6
			s0.5,0.5,0.7,0.8s0.3,0.6,0.5,0.9s0.2,0.7,0.2,1c0,0.6-0.1,1.1-0.3,1.5s-0.5,0.8-0.8,1.2c-0.4,0.3-0.8,0.6-1.3,0.8
			s-1.1,0.3-1.7,0.3c-0.6,0-1.1-0.1-1.6-0.3s-0.9-0.4-1.3-0.8c-0.4-0.3-0.6-0.7-0.8-1.2S528.9,12778,528.9,12777.5z M530.5,12777.4
			c0,0.4,0.1,0.7,0.2,1.1s0.3,0.6,0.5,0.8s0.5,0.4,0.8,0.5s0.7,0.2,1,0.2c0.4,0,0.7-0.1,1-0.2s0.6-0.3,0.8-0.5s0.4-0.5,0.5-0.8
			s0.2-0.7,0.2-1.1c0-0.4-0.1-0.7-0.2-1c-0.1-0.3-0.3-0.6-0.5-0.8s-0.5-0.4-0.8-0.6s-0.7-0.2-1-0.2c-0.4,0-0.7,0.1-1,0.2
			c-0.3,0.1-0.6,0.3-0.8,0.5c-0.2,0.2-0.4,0.5-0.5,0.8C530.5,12776.6,530.5,12777,530.5,12777.4z M530.9,12771.5
			c0,0.3,0.1,0.6,0.2,0.8c0.1,0.3,0.3,0.5,0.4,0.7s0.4,0.3,0.7,0.4c0.3,0.1,0.5,0.2,0.8,0.2s0.6-0.1,0.8-0.2s0.5-0.3,0.7-0.5
			c0.2-0.2,0.3-0.4,0.4-0.7c0.1-0.3,0.2-0.5,0.2-0.8c0-0.3-0.1-0.6-0.2-0.8s-0.3-0.5-0.4-0.7s-0.4-0.3-0.7-0.4
			c-0.3-0.1-0.5-0.2-0.8-0.2c-0.3,0-0.6,0.1-0.8,0.2s-0.5,0.3-0.7,0.5c-0.2,0.2-0.3,0.4-0.4,0.7S530.9,12771.2,530.9,12771.5z"/>
		<path class="st9" d="M539.8,12781.2c-0.3,0-0.5-0.1-0.7-0.3s-0.3-0.4-0.3-0.7s0.1-0.5,0.3-0.7c0.2-0.2,0.4-0.3,0.7-0.3
			c0.3,0,0.5,0.1,0.7,0.3c0.2,0.2,0.3,0.4,0.3,0.7s-0.1,0.5-0.3,0.7S540.1,12781.2,539.8,12781.2z"/>
		<path class="st9" d="M550.2,12777.2c0,0.6-0.1,1.2-0.3,1.7s-0.5,0.9-0.9,1.3s-0.9,0.6-1.4,0.8s-1.2,0.3-1.8,0.3
			c-1.2,0-2-0.2-2.6-0.5v-1.5c0.9,0.6,1.7,0.8,2.6,0.8c0.5,0,0.9-0.1,1.2-0.2s0.7-0.3,0.9-0.6s0.5-0.5,0.6-0.9s0.2-0.7,0.2-1.1
			c0-0.8-0.3-1.5-0.8-1.9c-0.6-0.5-1.4-0.7-2.4-0.7c-0.2,0-0.3,0-0.5,0s-0.4,0-0.6,0c-0.2,0-0.4,0-0.5,0s-0.3,0-0.5,0l0.4-6.3h5.8
			v1.3h-4.6l-0.3,3.7c0.2,0,0.4,0,0.6,0c0.2,0,0.4,0,0.6,0c0.7,0,1.3,0.1,1.8,0.3s1,0.4,1.3,0.8c0.4,0.3,0.6,0.7,0.8,1.2
			S550.2,12776.6,550.2,12777.2z"/>
		<path class="st9" d="M554.8,12773.1c-0.7,0-1.2-0.2-1.7-0.7s-0.7-1.1-0.7-1.7c0-0.7,0.2-1.2,0.7-1.7c0.5-0.5,1-0.7,1.7-0.7
			c0.7,0,1.3,0.2,1.7,0.7s0.7,1,0.7,1.7c0,0.7-0.2,1.3-0.7,1.7S555.5,12773.1,554.8,12773.1z M554.8,12769.3c-0.4,0-0.7,0.1-1,0.4
			s-0.4,0.6-0.4,1c0,0.4,0.1,0.7,0.4,1c0.3,0.3,0.6,0.4,1,0.4s0.7-0.1,1-0.4s0.4-0.6,0.4-1s-0.1-0.7-0.4-1
			C555.5,12769.4,555.2,12769.3,554.8,12769.3z"/>
		<path class="st9" d="M568.4,12780.5c-0.9,0.5-2.1,0.7-3.5,0.7c-1.8,0-3.2-0.6-4.3-1.7s-1.6-2.7-1.6-4.5c0-2,0.6-3.6,1.8-4.9
			s2.8-1.9,4.6-1.9c1.2,0,2.2,0.2,3,0.5v1.6c-0.9-0.5-1.9-0.8-3-0.8c-1.4,0-2.6,0.5-3.5,1.5s-1.3,2.3-1.3,3.9c0,1.5,0.4,2.8,1.3,3.7
			s1.9,1.4,3.3,1.4c1.3,0,2.4-0.3,3.3-0.8V12780.5z"/>
		<path class="st9" d="M570.9,12783.9h-1.3c1.8-2.2,2.7-4.8,2.7-7.7c0-3-0.9-5.6-2.8-7.8h1.3c1.8,2.1,2.7,4.7,2.7,7.8
			C573.6,12779.2,572.7,12781.8,570.9,12783.9z"/>
	</g>
	<g class="st8">
		<path class="st3" d="M392.5,12767.5v11.5H390v-8.7c-0.1,0.1-0.3,0.2-0.5,0.3c-0.2,0.1-0.4,0.2-0.6,0.3c-0.2,0.1-0.4,0.2-0.6,0.2
			c-0.2,0.1-0.4,0.1-0.7,0.1v-2.1c0.6-0.2,1.2-0.4,1.8-0.7c0.6-0.3,1.1-0.6,1.5-1H392.5z"/>
		<path class="st3" d="M399.7,12779.2c-2.7,0-4-1.9-4-5.6c0-1.9,0.4-3.4,1.1-4.4c0.7-1,1.8-1.5,3.1-1.5c2.6,0,3.9,1.9,3.9,5.7
			c0,1.9-0.4,3.3-1.1,4.4S401.1,12779.2,399.7,12779.2z M399.9,12769.5c-1.1,0-1.6,1.3-1.6,4c0,2.5,0.5,3.8,1.6,3.8
			c1,0,1.5-1.3,1.5-3.9S400.9,12769.5,399.9,12769.5z"/>
		<path class="st3" d="M407.8,12773.5c-0.8,0-1.4-0.3-1.9-0.8c-0.5-0.5-0.7-1.2-0.7-2c0-0.9,0.3-1.7,0.8-2.2
			c0.5-0.5,1.2-0.8,2.1-0.8c0.8,0,1.5,0.2,1.9,0.7c0.5,0.5,0.7,1.2,0.7,2.1c0,0.9-0.3,1.7-0.8,2.2S408.6,12773.5,407.8,12773.5z
			 M415.9,12767.8l-7.3,11.2h-1.9l7.3-11.2H415.9z M407.9,12769c-0.8,0-1.1,0.5-1.1,1.6c0,1,0.4,1.5,1.1,1.5c0.7,0,1.1-0.5,1.1-1.6
			C409,12769.5,408.6,12769,407.9,12769z M414.7,12779.2c-0.8,0-1.4-0.3-1.9-0.8c-0.5-0.5-0.7-1.2-0.7-2c0-0.9,0.3-1.7,0.8-2.2
			c0.5-0.5,1.2-0.8,2.1-0.8c0.8,0,1.5,0.2,1.9,0.7c0.5,0.5,0.7,1.2,0.7,2.1c0,0.9-0.3,1.7-0.8,2.2S415.6,12779.2,414.7,12779.2z
			 M414.9,12774.7c-0.8,0-1.1,0.5-1.1,1.6c0,1,0.4,1.5,1.1,1.5c0.7,0,1.1-0.5,1.1-1.6c0-0.5-0.1-0.9-0.3-1.1
			C415.5,12774.8,415.2,12774.7,414.9,12774.7z"/>
	</g>
	<g class="st8">
		<path class="st0" d="M386.9,12703.6v-2.1c0.8,0.5,1.6,0.8,2.6,0.8c0.6,0,1.1-0.1,1.5-0.4s0.5-0.6,0.5-1.1c0-0.5-0.2-0.9-0.7-1.2
			c-0.4-0.3-1-0.4-1.8-0.4h-1v-1.9h1c1.5,0,2.2-0.5,2.2-1.5c0-0.9-0.6-1.4-1.7-1.4c-0.8,0-1.5,0.2-2.2,0.7v-2
			c0.8-0.4,1.7-0.6,2.8-0.6c1.1,0,2,0.3,2.7,0.8c0.6,0.5,1,1.2,1,2c0,1.5-0.7,2.4-2.2,2.8v0c0.8,0.1,1.4,0.4,1.9,0.9
			c0.5,0.5,0.7,1.1,0.7,1.8c0,1-0.4,1.9-1.1,2.5s-1.8,0.9-3.2,0.9C388.6,12704.2,387.6,12704,386.9,12703.6z"/>
		<path class="st0" d="M399.7,12704.2c-2.7,0-4-1.9-4-5.6c0-1.9,0.4-3.4,1.1-4.4c0.7-1,1.8-1.5,3.1-1.5c2.6,0,3.9,1.9,3.9,5.7
			c0,1.9-0.4,3.3-1.1,4.4S401.1,12704.2,399.7,12704.2z M399.9,12694.5c-1.1,0-1.6,1.3-1.6,4c0,2.5,0.5,3.8,1.6,3.8
			c1,0,1.5-1.3,1.5-3.9S400.9,12694.5,399.9,12694.5z"/>
		<path class="st0" d="M407.8,12698.5c-0.8,0-1.4-0.3-1.9-0.8c-0.5-0.5-0.7-1.2-0.7-2c0-0.9,0.3-1.7,0.8-2.2
			c0.5-0.5,1.2-0.8,2.1-0.8c0.8,0,1.5,0.2,1.9,0.7c0.5,0.5,0.7,1.2,0.7,2.1c0,0.9-0.3,1.7-0.8,2.2S408.6,12698.5,407.8,12698.5z
			 M415.9,12692.8l-7.3,11.2h-1.9l7.3-11.2H415.9z M407.9,12694c-0.8,0-1.1,0.5-1.1,1.6c0,1,0.4,1.5,1.1,1.5c0.7,0,1.1-0.5,1.1-1.6
			C409,12694.5,408.6,12694,407.9,12694z M414.7,12704.2c-0.8,0-1.4-0.3-1.9-0.8c-0.5-0.5-0.7-1.2-0.7-2c0-0.9,0.3-1.7,0.8-2.2
			c0.5-0.5,1.2-0.8,2.1-0.8c0.8,0,1.5,0.2,1.9,0.7c0.5,0.5,0.7,1.2,0.7,2.1c0,0.9-0.3,1.7-0.8,2.2S415.6,12704.2,414.7,12704.2z
			 M414.9,12699.7c-0.8,0-1.1,0.5-1.1,1.6c0,1,0.4,1.5,1.1,1.5c0.7,0,1.1-0.5,1.1-1.6c0-0.5-0.1-0.9-0.3-1.1
			C415.5,12699.8,415.2,12699.7,414.9,12699.7z"/>
	</g>
	<g class="st8">
		<path class="st1" d="M386.9,12627.6v-2.1c0.8,0.5,1.6,0.8,2.6,0.8c0.6,0,1.1-0.1,1.5-0.4s0.5-0.6,0.5-1.1c0-0.5-0.2-0.9-0.7-1.2
			c-0.4-0.3-1-0.4-1.8-0.4h-1v-1.9h1c1.5,0,2.2-0.5,2.2-1.5c0-0.9-0.6-1.4-1.7-1.4c-0.8,0-1.5,0.2-2.2,0.7v-2
			c0.8-0.4,1.7-0.6,2.8-0.6c1.1,0,2,0.3,2.7,0.8c0.6,0.5,1,1.2,1,2c0,1.5-0.7,2.4-2.2,2.8v0c0.8,0.1,1.4,0.4,1.9,0.9
			c0.5,0.5,0.7,1.1,0.7,1.8c0,1-0.4,1.9-1.1,2.5s-1.8,0.9-3.2,0.9C388.6,12628.2,387.6,12628,386.9,12627.6z"/>
		<path class="st1" d="M399.7,12628.2c-2.7,0-4-1.9-4-5.6c0-1.9,0.4-3.4,1.1-4.4c0.7-1,1.8-1.5,3.1-1.5c2.6,0,3.9,1.9,3.9,5.7
			c0,1.9-0.4,3.3-1.1,4.4S401.1,12628.2,399.7,12628.2z M399.9,12618.5c-1.1,0-1.6,1.3-1.6,4c0,2.5,0.5,3.8,1.6,3.8
			c1,0,1.5-1.3,1.5-3.9S400.9,12618.5,399.9,12618.5z"/>
		<path class="st1" d="M407.8,12622.5c-0.8,0-1.4-0.3-1.9-0.8c-0.5-0.5-0.7-1.2-0.7-2c0-0.9,0.3-1.7,0.8-2.2
			c0.5-0.5,1.2-0.8,2.1-0.8c0.8,0,1.5,0.2,1.9,0.7c0.5,0.5,0.7,1.2,0.7,2.1c0,0.9-0.3,1.7-0.8,2.2S408.6,12622.5,407.8,12622.5z
			 M415.9,12616.8l-7.3,11.2h-1.9l7.3-11.2H415.9z M407.9,12618c-0.8,0-1.1,0.5-1.1,1.6c0,1,0.4,1.5,1.1,1.5c0.7,0,1.1-0.5,1.1-1.6
			C409,12618.5,408.6,12618,407.9,12618z M414.7,12628.2c-0.8,0-1.4-0.3-1.9-0.8c-0.5-0.5-0.7-1.2-0.7-2c0-0.9,0.3-1.7,0.8-2.2
			c0.5-0.5,1.2-0.8,2.1-0.8c0.8,0,1.5,0.2,1.9,0.7c0.5,0.5,0.7,1.2,0.7,2.1c0,0.9-0.3,1.7-0.8,2.2S415.6,12628.2,414.7,12628.2z
			 M414.9,12623.7c-0.8,0-1.1,0.5-1.1,1.6c0,1,0.4,1.5,1.1,1.5c0.7,0,1.1-0.5,1.1-1.6c0-0.5-0.1-0.9-0.3-1.1
			C415.5,12623.8,415.2,12623.7,414.9,12623.7z"/>
	</g>
	<g class="st8">
		<path class="st4" d="M387.1,12552.7v-2.1c0.8,0.5,1.6,0.7,2.4,0.7c0.7,0,1.2-0.2,1.5-0.5s0.6-0.7,0.6-1.3c0-1.1-0.8-1.7-2.4-1.7
			c-0.6,0-1.2,0-2,0.1l0.4-6.2h5.9v2h-4l-0.2,2.2c0.4,0,0.7,0,1,0c1.2,0,2.1,0.3,2.7,0.9c0.7,0.6,1,1.4,1,2.4c0,1.1-0.4,2.1-1.2,2.8
			c-0.8,0.7-1.8,1.1-3.2,1.1C388.8,12553.2,387.8,12553,387.1,12552.7z"/>
		<path class="st4" d="M399.7,12553.2c-2.7,0-4-1.9-4-5.6c0-1.9,0.4-3.4,1.1-4.4c0.7-1,1.8-1.5,3.1-1.5c2.6,0,3.9,1.9,3.9,5.7
			c0,1.9-0.4,3.3-1.1,4.4S401.1,12553.2,399.7,12553.2z M399.9,12543.5c-1.1,0-1.6,1.3-1.6,4c0,2.5,0.5,3.8,1.6,3.8
			c1,0,1.5-1.3,1.5-3.9S400.9,12543.5,399.9,12543.5z"/>
		<path class="st4" d="M407.8,12547.5c-0.8,0-1.4-0.3-1.9-0.8c-0.5-0.5-0.7-1.2-0.7-2c0-0.9,0.3-1.7,0.8-2.2
			c0.5-0.5,1.2-0.8,2.1-0.8c0.8,0,1.5,0.2,1.9,0.7c0.5,0.5,0.7,1.2,0.7,2.1c0,0.9-0.3,1.7-0.8,2.2S408.6,12547.5,407.8,12547.5z
			 M415.9,12541.8l-7.3,11.2h-1.9l7.3-11.2H415.9z M407.9,12543c-0.8,0-1.1,0.5-1.1,1.6c0,1,0.4,1.5,1.1,1.5c0.7,0,1.1-0.5,1.1-1.6
			C409,12543.5,408.6,12543,407.9,12543z M414.7,12553.2c-0.8,0-1.4-0.3-1.9-0.8c-0.5-0.5-0.7-1.2-0.7-2c0-0.9,0.3-1.7,0.8-2.2
			c0.5-0.5,1.2-0.8,2.1-0.8c0.8,0,1.5,0.2,1.9,0.7c0.5,0.5,0.7,1.2,0.7,2.1c0,0.9-0.3,1.7-0.8,2.2S415.6,12553.2,414.7,12553.2z
			 M414.9,12548.7c-0.8,0-1.1,0.5-1.1,1.6c0,1,0.4,1.5,1.1,1.5c0.7,0,1.1-0.5,1.1-1.6c0-0.5-0.1-0.9-0.3-1.1
			C415.5,12548.8,415.2,12548.7,414.9,12548.7z"/>
	</g>
	<g class="st8">
		<path class="st5" d="M394.7,12470.3c0,0.6-0.1,1.1-0.3,1.5c-0.2,0.5-0.5,0.9-0.8,1.2s-0.8,0.6-1.2,0.8c-0.5,0.2-1,0.3-1.6,0.3
			c-0.6,0-1.2-0.1-1.7-0.4c-0.5-0.2-0.9-0.6-1.3-1s-0.6-1-0.8-1.6c-0.2-0.6-0.3-1.4-0.3-2.2c0-1,0.1-1.8,0.4-2.6
			c0.2-0.8,0.6-1.5,1-2c0.4-0.6,1-1,1.6-1.3s1.3-0.5,2.1-0.5c0.9,0,1.5,0.1,2,0.3v2.1c-0.6-0.3-1.2-0.5-1.9-0.5
			c-0.4,0-0.8,0.1-1.1,0.2c-0.3,0.2-0.6,0.4-0.9,0.7s-0.4,0.7-0.6,1.1c-0.1,0.4-0.2,0.9-0.2,1.4h0c0.5-0.7,1.3-1.1,2.4-1.1
			c0.5,0,0.9,0.1,1.3,0.2s0.7,0.4,1,0.7s0.5,0.7,0.6,1.1C394.6,12469.3,394.7,12469.8,394.7,12470.3z M392.3,12470.4
			c0-1.2-0.5-1.8-1.5-1.8c-0.2,0-0.4,0-0.6,0.1c-0.2,0.1-0.3,0.2-0.5,0.4c-0.1,0.2-0.2,0.3-0.3,0.5s-0.1,0.4-0.1,0.7
			c0,0.3,0,0.5,0.1,0.8c0.1,0.2,0.2,0.4,0.3,0.6s0.3,0.3,0.5,0.4c0.2,0.1,0.4,0.2,0.6,0.2c0.2,0,0.4,0,0.6-0.1s0.3-0.2,0.5-0.4
			c0.1-0.2,0.2-0.4,0.3-0.6C392.2,12471,392.3,12470.7,392.3,12470.4z"/>
		<path class="st5" d="M399.7,12474.2c-2.7,0-4-1.9-4-5.6c0-1.9,0.4-3.4,1.1-4.4c0.7-1,1.8-1.5,3.1-1.5c2.6,0,3.9,1.9,3.9,5.7
			c0,1.9-0.4,3.3-1.1,4.4S401.1,12474.2,399.7,12474.2z M399.9,12464.5c-1.1,0-1.6,1.3-1.6,4c0,2.5,0.5,3.8,1.6,3.8
			c1,0,1.5-1.3,1.5-3.9S400.9,12464.5,399.9,12464.5z"/>
		<path class="st5" d="M407.8,12468.5c-0.8,0-1.4-0.3-1.9-0.8c-0.5-0.5-0.7-1.2-0.7-2c0-0.9,0.3-1.7,0.8-2.2
			c0.5-0.5,1.2-0.8,2.1-0.8c0.8,0,1.5,0.2,1.9,0.7c0.5,0.5,0.7,1.2,0.7,2.1c0,0.9-0.3,1.7-0.8,2.2S408.6,12468.5,407.8,12468.5z
			 M415.9,12462.8l-7.3,11.2h-1.9l7.3-11.2H415.9z M407.9,12464c-0.8,0-1.1,0.5-1.1,1.6c0,1,0.4,1.5,1.1,1.5c0.7,0,1.1-0.5,1.1-1.6
			C409,12464.5,408.6,12464,407.9,12464z M414.7,12474.2c-0.8,0-1.4-0.3-1.9-0.8c-0.5-0.5-0.7-1.2-0.7-2c0-0.9,0.3-1.7,0.8-2.2
			c0.5-0.5,1.2-0.8,2.1-0.8c0.8,0,1.5,0.2,1.9,0.7c0.5,0.5,0.7,1.2,0.7,2.1c0,0.9-0.3,1.7-0.8,2.2S415.6,12474.2,414.7,12474.2z
			 M414.9,12469.7c-0.8,0-1.1,0.5-1.1,1.6c0,1,0.4,1.5,1.1,1.5c0.7,0,1.1-0.5,1.1-1.6c0-0.5-0.1-0.9-0.3-1.1
			C415.5,12469.8,415.2,12469.7,414.9,12469.7z"/>
	</g>
	<g class="st8">
		<path class="st6" d="M386.6,12398c0-0.3,0-0.6,0.1-0.9c0.1-0.3,0.2-0.6,0.4-0.8c0.2-0.2,0.4-0.5,0.7-0.7s0.6-0.4,1-0.5
			c-0.6-0.3-1-0.6-1.3-1.1s-0.5-0.9-0.5-1.5c0-0.4,0.1-0.8,0.3-1.2s0.4-0.7,0.7-0.9c0.3-0.3,0.7-0.5,1.1-0.6
			c0.4-0.1,0.9-0.2,1.4-0.2c0.5,0,1,0.1,1.5,0.2c0.4,0.1,0.8,0.4,1.1,0.6s0.6,0.6,0.7,0.9c0.2,0.4,0.3,0.8,0.3,1.2
			c0,0.5-0.2,1-0.5,1.4c-0.3,0.4-0.8,0.8-1.4,1.1c0.4,0.1,0.7,0.3,1,0.5c0.3,0.2,0.5,0.4,0.7,0.7s0.3,0.5,0.4,0.8s0.1,0.6,0.1,0.9
			c0,0.5-0.1,0.9-0.3,1.3c-0.2,0.4-0.5,0.7-0.8,1s-0.8,0.5-1.3,0.7c-0.5,0.2-1,0.2-1.6,0.2c-0.6,0-1.1-0.1-1.6-0.2
			c-0.5-0.2-0.9-0.4-1.3-0.7s-0.6-0.6-0.8-1C386.7,12398.9,386.6,12398.5,386.6,12398z M389,12397.8c0,0.3,0,0.5,0.1,0.7
			s0.2,0.4,0.3,0.5c0.1,0.1,0.3,0.2,0.5,0.3c0.2,0.1,0.4,0.1,0.7,0.1c0.2,0,0.5,0,0.7-0.1c0.2-0.1,0.4-0.2,0.5-0.3
			c0.1-0.1,0.3-0.3,0.3-0.5c0.1-0.2,0.1-0.4,0.1-0.7c0-0.2,0-0.4-0.1-0.6s-0.2-0.4-0.3-0.5c-0.1-0.1-0.3-0.3-0.5-0.4
			c-0.2-0.1-0.4-0.1-0.7-0.1c-0.2,0-0.5,0-0.7,0.1s-0.4,0.2-0.5,0.3c-0.1,0.1-0.3,0.3-0.3,0.5C389,12397.3,389,12397.5,389,12397.8z
			 M389.3,12392.8c0,0.2,0,0.4,0.1,0.6s0.2,0.3,0.3,0.5c0.1,0.1,0.3,0.2,0.4,0.3s0.3,0.1,0.5,0.1c0.2,0,0.4,0,0.5-0.1
			c0.2-0.1,0.3-0.2,0.4-0.3c0.1-0.1,0.2-0.3,0.3-0.5s0.1-0.4,0.1-0.6c0-0.2,0-0.4-0.1-0.6c-0.1-0.2-0.2-0.3-0.3-0.5
			c-0.1-0.1-0.3-0.2-0.4-0.3s-0.3-0.1-0.5-0.1c-0.2,0-0.4,0-0.5,0.1s-0.3,0.2-0.4,0.3s-0.2,0.3-0.3,0.5
			C389.3,12392.4,389.3,12392.6,389.3,12392.8z"/>
		<path class="st6" d="M399.7,12401.2c-2.7,0-4-1.9-4-5.6c0-1.9,0.4-3.4,1.1-4.4c0.7-1,1.8-1.5,3.1-1.5c2.6,0,3.9,1.9,3.9,5.7
			c0,1.9-0.4,3.3-1.1,4.4S401.1,12401.2,399.7,12401.2z M399.9,12391.5c-1.1,0-1.6,1.3-1.6,4c0,2.5,0.5,3.8,1.6,3.8
			c1,0,1.5-1.3,1.5-3.9S400.9,12391.5,399.9,12391.5z"/>
		<path class="st6" d="M407.8,12395.5c-0.8,0-1.4-0.3-1.9-0.8c-0.5-0.5-0.7-1.2-0.7-2c0-0.9,0.3-1.7,0.8-2.2
			c0.5-0.5,1.2-0.8,2.1-0.8c0.8,0,1.5,0.2,1.9,0.7c0.5,0.5,0.7,1.2,0.7,2.1c0,0.9-0.3,1.7-0.8,2.2S408.6,12395.5,407.8,12395.5z
			 M415.9,12389.8l-7.3,11.2h-1.9l7.3-11.2H415.9z M407.9,12391c-0.8,0-1.1,0.5-1.1,1.6c0,1,0.4,1.5,1.1,1.5c0.7,0,1.1-0.5,1.1-1.6
			C409,12391.5,408.6,12391,407.9,12391z M414.7,12401.2c-0.8,0-1.4-0.3-1.9-0.8c-0.5-0.5-0.7-1.2-0.7-2c0-0.9,0.3-1.7,0.8-2.2
			c0.5-0.5,1.2-0.8,2.1-0.8c0.8,0,1.5,0.2,1.9,0.7c0.5,0.5,0.7,1.2,0.7,2.1c0,0.9-0.3,1.7-0.8,2.2S415.6,12401.2,414.7,12401.2z
			 M414.9,12396.7c-0.8,0-1.1,0.5-1.1,1.6c0,1,0.4,1.5,1.1,1.5c0.7,0,1.1-0.5,1.1-1.6c0-0.5-0.1-0.9-0.3-1.1
			C415.5,12396.8,415.2,12396.7,414.9,12396.7z"/>
	</g>
</g>
</svg>
