<svg xmlns="http://www.w3.org/2000/svg" xmlns:xlink="http://www.w3.org/1999/xlink" width="343" height="343" viewBox="0 0 343 343">
  <defs>
    <clipPath id="clip-path">
      <rect id="Rectángulo_3231" data-name="Rectángulo 3231" width="343" height="343" transform="translate(-0.001 -0.001)" fill="none"/>
    </clipPath>
    <clipPath id="clip-path-2">
      <rect id="Rectángulo_3225" data-name="Rectángulo 3225" width="18.3" height="157.721" fill="none"/>
    </clipPath>
  </defs>
  <g id="Grupo_14195" data-name="Grupo 14195" transform="translate(-1544.567 -508.86)">
    <g id="Grupo_14194" data-name="Grupo 14194" transform="translate(1544.568 508.861)">
      <g id="Grupo_14193" data-name="Grupo 14193" transform="translate(0 0)" clip-path="url(#clip-path)">
        <path id="Trazado_14358" data-name="Trazado 14358" d="M1823.872,681.3a128.132,128.132,0,0,1-13.761,38.354,110.571,110.571,0,0,1-22.713,28.331,102.985,102.985,0,0,1-30.567,19.071,85.051,85.051,0,0,1-35.3,6.194c-11.723-.57-23.7-3.992-32.989-11.387-10.07-8.014-15.49-20.348-15.791-33.1-.315-13.4,4.953-26.287,13.014-36.817,8.272-10.8,19.5-18.645,29.868-27.269a103.488,103.488,0,0,0,14.352-14.015c.088-.11.178-.227.266-.343.069-.124.145-.247.214-.378,6.722-12.882,7.23-27.946,5.1-42.051a192.753,192.753,0,0,0-5.166-22.742c-1.866-6.716-3.848-14.083-.926-20.806,2.312-5.316,7.2-9.226,12.559-11.215,6.71-2.491,14.174-1.928,21-.213a80.031,80.031,0,0,1,32.208,16.971,82.229,82.229,0,0,1,21.437,28.5c5.871,13.049,8.327,27.707,9.391,41.894a155.967,155.967,0,0,1-2.195,41.016" transform="translate(-1511.244 -497.79)" fill="#c6bdef"/>
        <path id="Trazado_14359" data-name="Trazado 14359" d="M1719.4,665.77c-10.133,7.307-22.2,10.894-33.915,14.777a148.5,148.5,0,0,0-18.029,7.018,109.223,109.223,0,0,0-16.875,10.09c-5.041,3.658-9.679,7.862-14.865,11.32a38.741,38.741,0,0,1-15.325,6.324c-10.207,1.648-20.812-1.283-29.436-6.778a51.234,51.234,0,0,1-20.127-25.313c-4.248-11.113-5.262-23.256-4.26-35.04a113.8,113.8,0,0,1,8.314-33.539,120.3,120.3,0,0,1,11.483-21.348A114.877,114.877,0,0,1,1602.58,572.5a113,113,0,0,1,25.828-19.661,102.343,102.343,0,0,1,30.342-11.038c12.294-2.332,25.313-2.4,37.394,1.084a72.071,72.071,0,0,1,27.145,14.838,73.046,73.046,0,0,1,18.612,24.689,65.222,65.222,0,0,1,5.831,30.177,71.256,71.256,0,0,1-8.225,29.814A68.041,68.041,0,0,1,1719.4,665.77" transform="translate(-1538.941 -500.727)" fill="#c6bdef"/>
        <path id="Trazado_14360" data-name="Trazado 14360" d="M1860.1,763.532c0,5.662-67.365,10.252-150.464,10.252s-150.465-4.59-150.465-10.252,67.366-10.253,150.465-10.253,150.464,4.59,150.464,10.253" transform="translate(-1540.771 -445.314)" fill="#c6bdef"/>
        <path id="Trazado_14361" data-name="Trazado 14361" d="M1714.769,675.456c.872.374,1.739.765,2.589,1.188a1.348,1.348,0,1,0,1.144-2.442c-.834-.416-1.685-.8-2.542-1.168a13.7,13.7,0,0,0,.651-7.361c1.629-.63,3.276-1.21,4.949-1.726,2.655-.82,1.179-4.873-1.468-4.056-1.665.514-3.3,1.09-4.924,1.716a13.71,13.71,0,0,0-4.4-4.817c.714-1.391,1.45-2.771,2.235-4.124a1.357,1.357,0,0,0-.649-1.793,1.386,1.386,0,0,0-1.794.65c-.758,1.308-1.471,2.642-2.165,3.987a13.75,13.75,0,1,0,6.375,19.946" transform="translate(-1506.928 -471.97)" fill="#8c85e5"/>
        <path id="Trazado_14362" data-name="Trazado 14362" d="M1718.116,665.174a4.946,4.946,0,1,1,3.508-6.053,4.946,4.946,0,0,1-3.508,6.053" transform="translate(-1501.063 -470.75)" fill="#6958e0"/>
        <path id="Trazado_14363" data-name="Trazado 14363" d="M1709.141,655.137a3.148,3.148,0,1,1,2.233-3.85,3.148,3.148,0,0,1-2.233,3.85" transform="translate(-1502.809 -472.44)" fill="#6958e0"/>
        <path id="Trazado_14364" data-name="Trazado 14364" d="M1714.581,674.89a3.335,3.335,0,1,1,2.365-4.08,3.333,3.333,0,0,1-2.365,4.08" transform="translate(-1501.455 -467.4)" fill="#6958e0"/>
        <path id="Trazado_14365" data-name="Trazado 14365" d="M1707.073,670.04a3.429,3.429,0,1,1,2.43-4.2,3.431,3.431,0,0,1-2.43,4.2" transform="translate(-1503.439 -468.709)" fill="#6958e0"/>
        <path id="Trazado_14366" data-name="Trazado 14366" d="M1698.389,667.036a1.747,1.747,0,1,1,1.238-2.137,1.748,1.748,0,0,1-1.238,2.137" transform="translate(-1505.146 -468.63)" fill="#6958e0"/>
        <path id="Trazado_14367" data-name="Trazado 14367" d="M1703.691,663.823a2.7,2.7,0,1,1,1.913-3.3,2.7,2.7,0,0,1-1.913,3.3" transform="translate(-1504.078 -469.952)" fill="#6958e0"/>
        <path id="Trazado_14368" data-name="Trazado 14368" d="M1699.834,659.477a1.379,1.379,0,0,0,.32-1.879q-1.007-1.635-2.019-3.265a1.356,1.356,0,0,0-1.879-.32,1.378,1.378,0,0,0-.321,1.879q1.013,1.631,2.02,3.265a1.347,1.347,0,0,0,1.88.32" transform="translate(-1505.274 -471.186)" fill="#4b35b5"/>
        <path id="Trazado_14369" data-name="Trazado 14369" d="M1695.151,665.612a1.349,1.349,0,0,0-.536-2.427l-3.689-.572a1.406,1.406,0,0,0-1.023.226,1.347,1.347,0,0,0,.537,2.425q1.844.287,3.689.573a1.411,1.411,0,0,0,1.022-.225" transform="translate(-1506.927 -468.891)" fill="#4b35b5"/>
        <path id="Trazado_14370" data-name="Trazado 14370" d="M1697.293,674.565q.99-1.253,1.854-2.6a1.031,1.031,0,0,0,.238-.455,1.02,1.02,0,0,0,.071-.513,1.351,1.351,0,0,0-1.45-1.24,1.306,1.306,0,0,0-.93.483q-.862,1.344-1.855,2.6a1.413,1.413,0,0,0-.308.969,1.378,1.378,0,0,0,.481.93,1.358,1.358,0,0,0,.97.309,1.386,1.386,0,0,0,.93-.481" transform="translate(-1505.48 -467.031)" fill="#4b35b5"/>
        <path id="Trazado_14371" data-name="Trazado 14371" d="M1705.975,676.119a1.358,1.358,0,0,0,.545-.857,1.481,1.481,0,0,0-.225-1.022c-.139-.227-.267-.46-.393-.693a14.637,14.637,0,0,1-.75-1.749,1.348,1.348,0,1,0-2.535.917,16.24,16.24,0,0,0,1.478,3.083,1.357,1.357,0,0,0,.857.546,1.376,1.376,0,0,0,1.023-.226" transform="translate(-1503.496 -466.73)" fill="#4b35b5"/>
        <path id="Trazado_14372" data-name="Trazado 14372" d="M1697.9,658.191a4.6,4.6,0,1,1,3.262-5.63,4.6,4.6,0,0,1-3.262,5.63" transform="translate(-1506.206 -472.389)" fill="#6958e0"/>
        <path id="Trazado_14373" data-name="Trazado 14373" d="M1688.524,660.536a3.635,3.635,0,1,1-2.576,4.448,3.635,3.635,0,0,1,2.576-4.448" transform="translate(-1507.842 -469.459)" fill="#6958e0"/>
        <path id="Trazado_14374" data-name="Trazado 14374" d="M1696.8,679.1a3.99,3.99,0,1,1,2.83-4.884,3.991,3.991,0,0,1-2.83,4.884" transform="translate(-1506.293 -466.64)" fill="#6958e0"/>
        <path id="Trazado_14375" data-name="Trazado 14375" d="M1707.216,681.968a4.647,4.647,0,1,1,3.295-5.686,4.647,4.647,0,0,1-3.295,5.686" transform="translate(-1503.799 -466.231)" fill="#6958e0"/>
        <path id="Trazado_14376" data-name="Trazado 14376" d="M1669.225,698.63c.746-.951,1.509-1.889,2.308-2.795a1.715,1.715,0,1,0-2.627-2.2c-.785.89-1.535,1.809-2.268,2.742a17.4,17.4,0,0,0-8.837-3.209c-.241-2.209-.415-4.425-.5-6.65-.138-3.532-5.606-3.045-5.467.478.088,2.215.259,4.419.5,6.616a17.448,17.448,0,0,0-7.363,3.836c-1.478-1.333-2.932-2.69-4.339-4.1a1.721,1.721,0,0,0-2.416.21,1.76,1.76,0,0,0,.212,2.417c1.361,1.361,2.767,2.675,4.193,3.968a17.493,17.493,0,1,0,26.609-1.311" transform="translate(-1520.321 -463.302)" fill="#8c85e5"/>
        <path id="Trazado_14377" data-name="Trazado 14377" d="M1658.894,685.586a6.293,6.293,0,1,1-6.294-6.294,6.293,6.293,0,0,1,6.294,6.294" transform="translate(-1518.116 -464.55)" fill="#6958e0"/>
        <path id="Trazado_14378" data-name="Trazado 14378" d="M1643.722,692.529a4,4,0,1,1-4-4,4,4,0,0,1,4,4" transform="translate(-1520.87 -462.15)" fill="#6958e0"/>
        <path id="Trazado_14379" data-name="Trazado 14379" d="M1669.777,692.39a4.243,4.243,0,1,1-4.243-4.243,4.243,4.243,0,0,1,4.243,4.243" transform="translate(-1514.22 -462.249)" fill="#6958e0"/>
        <path id="Trazado_14380" data-name="Trazado 14380" d="M1661.351,700.076a4.363,4.363,0,1,1-4.362-4.362,4.362,4.362,0,0,1,4.362,4.362" transform="translate(-1516.473 -460.281)" fill="#6958e0"/>
        <path id="Trazado_14381" data-name="Trazado 14381" d="M1654.914,709.015a2.223,2.223,0,1,1-2.223-2.223,2.222,2.222,0,0,1,2.223,2.223" transform="translate(-1517.034 -457.401)" fill="#6958e0"/>
        <path id="Trazado_14382" data-name="Trazado 14382" d="M1652.642,701.87a3.432,3.432,0,1,1-3.432-3.432,3.432,3.432,0,0,1,3.432,3.432" transform="translate(-1518.254 -459.572)" fill="#6958e0"/>
        <path id="Trazado_14383" data-name="Trazado 14383" d="M1646.12,704.87a1.755,1.755,0,0,0-2.2-1.009q-2.338.7-4.675,1.415a1.725,1.725,0,0,0-1.009,2.2,1.754,1.754,0,0,0,2.206,1.009q2.336-.711,4.673-1.414a1.715,1.715,0,0,0,1.009-2.206" transform="translate(-1520.245 -458.185)" fill="#4b35b5"/>
        <path id="Trazado_14384" data-name="Trazado 14384" d="M1652.127,713.243a1.714,1.714,0,0,0-3.157-.135l-1.912,4.348a1.787,1.787,0,0,0-.057,1.33,1.715,1.715,0,0,0,3.159.136l1.911-4.35a1.791,1.791,0,0,0,.057-1.33" transform="translate(-1517.963 -456.009)" fill="#4b35b5"/>
        <path id="Trazado_14385" data-name="Trazado 14385" d="M1663.709,713.116q-1.215-1.627-2.587-3.129a1.908,1.908,0,0,0-1.09-.7,1.749,1.749,0,0,0-1.3.287,1.722,1.722,0,0,0-.7,1.09,1.663,1.663,0,0,0,.287,1.3q1.37,1.5,2.587,3.129a1.8,1.8,0,0,0,1.089.7,1.75,1.75,0,0,0,1.3-.287,1.732,1.732,0,0,0,.7-1.09,1.76,1.76,0,0,0-.287-1.3" transform="translate(-1515.073 -456.757)" fill="#4b35b5"/>
        <path id="Trazado_14386" data-name="Trazado 14386" d="M1668.588,702.625a1.731,1.731,0,0,0-.873-.952,1.894,1.894,0,0,0-1.332-.057c-.324.1-.651.177-.98.256a18.686,18.686,0,0,1-2.4.35,1.761,1.761,0,0,0-1.164.6,1.716,1.716,0,0,0,1.463,2.812,20.744,20.744,0,0,0,4.274-.808,1.716,1.716,0,0,0,1.008-2.206" transform="translate(-1514.182 -458.771)" fill="#4b35b5"/>
        <path id="Trazado_14387" data-name="Trazado 14387" d="M1643.712,708a5.853,5.853,0,1,1-5.853-5.853,5.853,5.853,0,0,1,5.853,5.853" transform="translate(-1521.834 -458.608)" fill="#6958e0"/>
        <path id="Trazado_14388" data-name="Trazado 14388" d="M1643.583,719.862a4.624,4.624,0,1,1,4.625,4.624,4.624,4.624,0,0,1-4.625-4.624" transform="translate(-1518.824 -455.205)" fill="#6958e0"/>
        <path id="Trazado_14389" data-name="Trazado 14389" d="M1669.1,715.927a5.078,5.078,0,1,1-5.078-5.078,5.077,5.077,0,0,1,5.078,5.078" transform="translate(-1514.83 -456.346)" fill="#6958e0"/>
        <path id="Trazado_14390" data-name="Trazado 14390" d="M1675.991,704.35a5.912,5.912,0,1,1-5.912-5.912,5.912,5.912,0,0,1,5.912,5.912" transform="translate(-1513.473 -459.572)" fill="#6958e0"/>
        <path id="Trazado_14391" data-name="Trazado 14391" d="M1670.43,735.712a9.98,9.98,0,1,1-9.98-9.98,9.981,9.981,0,0,1,9.98,9.98" transform="translate(-1517.034 -452.476)" fill="#6958e0"/>
        <path id="Trazado_14392" data-name="Trazado 14392" d="M1660.93,723.155a2.67,2.67,0,1,0-3.483,2.53c.057,1.018.1,2.039.118,3.058a1.034,1.034,0,0,0,1.115.935,1.054,1.054,0,0,0,.935-1.115c-.018-1.019-.062-2.037-.117-3.056a2.662,2.662,0,0,0,1.431-2.352" transform="translate(-1515.703 -453.841)" fill="#8c85e5"/>
        <path id="Trazado_14393" data-name="Trazado 14393" d="M1654.087,728.764a2.225,2.225,0,1,1-2.225-2.225,2.224,2.224,0,0,1,2.225,2.225" transform="translate(-1517.25 -452.267)" fill="#8c85e5"/>
        <path id="Trazado_14394" data-name="Trazado 14394" d="M1650.237,734.81a2.066,2.066,0,1,1-2.066-2.066,2.067,2.067,0,0,1,2.066,2.066" transform="translate(-1518.168 -450.653)" fill="#8c85e5"/>
        <path id="Trazado_14395" data-name="Trazado 14395" d="M1654.458,738.837a1.994,1.994,0,1,0-1.995,1.995,1.994,1.994,0,0,0,1.995-1.995" transform="translate(-1517.034 -449.587)" fill="#8c85e5"/>
        <path id="Trazado_14396" data-name="Trazado 14396" d="M1655.636,741.293a3.655,3.655,0,1,1,3.656,3.655,3.656,3.656,0,0,1-3.656-3.655" transform="translate(-1515.69 -449.381)" fill="#8c85e5"/>
        <path id="Trazado_14397" data-name="Trazado 14397" d="M1669.869,737.714a2.447,2.447,0,1,1-2.447-2.447,2.447,2.447,0,0,1,2.447,2.447" transform="translate(-1513.263 -449.997)" fill="#8c85e5"/>
        <path id="Trazado_14398" data-name="Trazado 14398" d="M1673.283,730.289a3.751,3.751,0,1,1-3.751-3.75,3.751,3.751,0,0,1,3.751,3.75" transform="translate(-1513.053 -452.267)" fill="#8c85e5"/>
        <path id="Trazado_14399" data-name="Trazado 14399" d="M1666.19,727.122a2.7,2.7,0,1,1-2.7-2.7,2.7,2.7,0,0,1,2.7,2.7" transform="translate(-1514.351 -452.817)" fill="#8c85e5"/>
        <path id="Trazado_14400" data-name="Trazado 14400" d="M1654.479,729.033l-2.146-1.048a1.062,1.062,0,0,0-.8-.034,1.029,1.029,0,0,0-.081,1.9l2.146,1.048a1.07,1.07,0,0,0,.8.034,1.03,1.03,0,0,0,.08-1.9" transform="translate(-1516.929 -451.915)" fill="#8c85e5"/>
        <path id="Trazado_14401" data-name="Trazado 14401" d="M1653.753,733.944a1.035,1.035,0,0,0-.363-.7.983.983,0,0,0-.751-.237q-1.922.427-3.861.769a1.051,1.051,0,0,0-.936,1.115,1.04,1.04,0,0,0,1.115.935q1.937-.342,3.861-.769a1.137,1.137,0,0,0,.7-.363,1.049,1.049,0,0,0,.236-.752" transform="translate(-1517.719 -450.588)" fill="#8c85e5"/>
        <path id="Trazado_14402" data-name="Trazado 14402" d="M1655.574,736.608a.777.777,0,0,0-.155-.37,1.041,1.041,0,0,0-.654-.417,1.009,1.009,0,0,0-.781.173q-.722.61-1.443,1.223a1.162,1.162,0,0,0-.418.654.8.8,0,0,0,.018.411.76.76,0,0,0,.155.37,1.038,1.038,0,0,0,.654.417,1.009,1.009,0,0,0,.78-.171q.724-.612,1.444-1.225a.783.783,0,0,0,.264-.288.761.761,0,0,0,.152-.365.77.77,0,0,0-.016-.411" transform="translate(-1516.609 -449.857)" fill="#8c85e5"/>
        <path id="Trazado_14403" data-name="Trazado 14403" d="M1659.657,736.663a1.03,1.03,0,0,0-2.051.18l.269,3.148a1.029,1.029,0,1,0,2.05-.179l-.268-3.149" transform="translate(-1515.18 -449.879)" fill="#8c85e5"/>
        <path id="Trazado_14404" data-name="Trazado 14404" d="M1667.4,736.393l-.177-.193a1.02,1.02,0,0,0-.476-.224q-1.338-.427-2.714-.724a1.039,1.039,0,0,0-1.2.826,1.052,1.052,0,0,0,.827,1.2q1.374.295,2.714.724a1.038,1.038,0,0,0,.781-.173,1.051,1.051,0,0,0,.417-.654,1.038,1.038,0,0,0-.173-.781" transform="translate(-1513.822 -450.006)" fill="#8c85e5"/>
        <path id="Trazado_14405" data-name="Trazado 14405" d="M1668.58,730.382a1.04,1.04,0,0,0-.524-.571,1,1,0,0,0-.8-.034q-1.7.849-3.393,1.7a1.115,1.115,0,0,0-.571.524,1.053,1.053,0,0,0-.035.8,1.035,1.035,0,0,0,.525.571.992.992,0,0,0,.8.035l3.393-1.7a1.119,1.119,0,0,0,.571-.525,1.05,1.05,0,0,0,.034-.8" transform="translate(-1513.725 -451.443)" fill="#8c85e5"/>
        <path id="Trazado_14406" data-name="Trazado 14406" d="M1663.767,727.265a1.029,1.029,0,0,0-1.895-.081q-.58,1.2-1.243,2.36a1.027,1.027,0,0,0,.491,1.37,1.033,1.033,0,0,0,.8.034,1.153,1.153,0,0,0,.572-.524q.661-1.158,1.242-2.36a1.062,1.062,0,0,0,.034-.8" transform="translate(-1514.418 -452.249)" fill="#8c85e5"/>
        <path id="Trazado_14407" data-name="Trazado 14407" d="M1660.4,730.687a1.978,1.978,0,1,1-1.978-1.979,1.977,1.977,0,0,1,1.978,1.979" transform="translate(-1515.479 -451.702)" fill="#8c85e5"/>
        <path id="Trazado_14408" data-name="Trazado 14408" d="M1656,733.7a1,1,0,1,1-1-1,1,1,0,0,1,1,1" transform="translate(-1516.117 -450.665)" fill="#8c85e5"/>
        <path id="Trazado_14409" data-name="Trazado 14409" d="M1659.9,734.591a1.1,1.1,0,1,1-1.1-1.1,1.1,1.1,0,0,1,1.1,1.1" transform="translate(-1515.152 -450.458)" fill="#8c85e5"/>
        <path id="Trazado_14410" data-name="Trazado 14410" d="M1699.786,688.25a7.348,7.348,0,1,1-10.206,1.957,7.347,7.347,0,0,1,10.206-1.957" transform="translate(-1507.195 -462.551)" fill="#6958e0"/>
        <path id="Trazado_14411" data-name="Trazado 14411" d="M1688.642,687.443a1.966,1.966,0,1,0,.1,3.168c.644.387,1.283.781,1.912,1.191a.759.759,0,0,0,1.029-.293.776.776,0,0,0-.292-1.03c-.629-.411-1.268-.8-1.91-1.191a1.96,1.96,0,0,0-.841-1.844" transform="translate(-1507.907 -462.519)" fill="#8c85e5"/>
        <path id="Trazado_14412" data-name="Trazado 14412" d="M1689.258,693.844a1.638,1.638,0,1,1-2.275.438,1.639,1.639,0,0,1,2.275-.437" transform="translate(-1507.614 -460.84)" fill="#8c85e5"/>
        <path id="Trazado_14413" data-name="Trazado 14413" d="M1691.361,698.658a1.521,1.521,0,1,1-2.113.406,1.522,1.522,0,0,1,2.113-.406" transform="translate(-1507.02 -459.583)" fill="#8c85e5"/>
        <path id="Trazado_14414" data-name="Trazado 14414" d="M1695.563,697.737a1.468,1.468,0,1,0,.391,2.039,1.467,1.467,0,0,0-.391-2.039" transform="translate(-1505.906 -459.82)" fill="#8c85e5"/>
        <path id="Trazado_14415" data-name="Trazado 14415" d="M1697.449,698.353a2.691,2.691,0,1,1,3.737-.717,2.689,2.689,0,0,1-3.737.717" transform="translate(-1505.127 -460.874)" fill="#8c85e5"/>
        <path id="Trazado_14416" data-name="Trazado 14416" d="M1701.22,687.969a1.8,1.8,0,1,1-2.5.48,1.8,1.8,0,0,1,2.5-.48" transform="translate(-1504.571 -462.375)" fill="#8c85e5"/>
        <path id="Trazado_14417" data-name="Trazado 14417" d="M1698.029,683.071a2.762,2.762,0,1,1-3.836.736,2.762,2.762,0,0,1,3.836-.736" transform="translate(-1505.79 -463.691)" fill="#8c85e5"/>
        <path id="Trazado_14418" data-name="Trazado 14418" d="M1693.23,685.883a1.989,1.989,0,1,1-2.762.529,1.986,1.986,0,0,1,2.762-.529" transform="translate(-1506.724 -462.926)" fill="#8c85e5"/>
        <path id="Trazado_14419" data-name="Trazado 14419" d="M1689.654,693.665q-.761.438-1.524.874a.785.785,0,0,0-.352.474.759.759,0,0,0,1.122.833l1.524-.876a.758.758,0,1,0-.77-1.305" transform="translate(-1507.339 -460.84)" fill="#8c85e5"/>
        <path id="Trazado_14420" data-name="Trazado 14420" d="M1692.247,696.443a.776.776,0,0,0-.577-.067.723.723,0,0,0-.453.36q-.535,1.348-1.128,2.67a.758.758,0,0,0,1.324.738q.592-1.323,1.127-2.67a.831.831,0,0,0,.066-.577.765.765,0,0,0-.359-.455" transform="translate(-1506.755 -460.116)" fill="#8c85e5"/>
        <path id="Trazado_14421" data-name="Trazado 14421" d="M1694.6,696.132a.573.573,0,0,0-.291-.059.771.771,0,0,0-.524.227.744.744,0,0,0-.217.547q.074.691.15,1.386a.729.729,0,0,0,.482.683.586.586,0,0,0,.29.059.767.767,0,0,0,.524-.227.747.747,0,0,0,.218-.547c-.049-.461-.1-.924-.15-1.385a.853.853,0,0,0-.225-.526.562.562,0,0,0-.257-.159" transform="translate(-1505.829 -460.188)" fill="#8c85e5"/>
        <path id="Trazado_14422" data-name="Trazado 14422" d="M1696.441,693.484a.757.757,0,0,0-.737,1.323l2.03,1.136a.757.757,0,1,0,.737-1.323q-1.013-.569-2.03-1.137" transform="translate(-1505.373 -460.884)" fill="#8c85e5"/>
        <path id="Trazado_14423" data-name="Trazado 14423" d="M1699.479,688.932l-.191.029a.759.759,0,0,0-.334.2q-.813.638-1.562,1.356a.763.763,0,0,0,.009,1.071.772.772,0,0,0,1.071-.009q.748-.715,1.563-1.355a.752.752,0,0,0,.217-.547.757.757,0,0,0-.772-.742" transform="translate(-1504.89 -462.044)" fill="#8c85e5"/>
        <path id="Trazado_14424" data-name="Trazado 14424" d="M1696.088,685.877a.767.767,0,0,0-.565.083.734.734,0,0,0-.352.474q-.183,1.384-.365,2.77a.825.825,0,0,0,.083.566.76.76,0,0,0,1.039.267.737.737,0,0,0,.35-.474q.183-1.383.367-2.769a.824.824,0,0,0-.084-.564.772.772,0,0,0-.472-.352" transform="translate(-1505.51 -462.843)" fill="#8c85e5"/>
        <path id="Trazado_14425" data-name="Trazado 14425" d="M1692.309,687.253a.758.758,0,0,0-.833,1.121q.494.849.925,1.731a.758.758,0,0,0,1.389-.2.844.844,0,0,0-.084-.566q-.431-.882-.924-1.733a.786.786,0,0,0-.473-.35" transform="translate(-1506.399 -462.486)" fill="#8c85e5"/>
        <path id="Trazado_14426" data-name="Trazado 14426" d="M1693.054,690.742a1.457,1.457,0,1,1-2.024.388,1.457,1.457,0,0,1,2.024-.388" transform="translate(-1506.554 -461.639)" fill="#8c85e5"/>
        <path id="Trazado_14427" data-name="Trazado 14427" d="M1693.131,694.482a.739.739,0,1,1-1.027.2.738.738,0,0,1,1.027-.2" transform="translate(-1506.242 -460.634)" fill="#8c85e5"/>
        <path id="Trazado_14428" data-name="Trazado 14428" d="M1695.278,692.492a.807.807,0,1,1-1.121.215.808.808,0,0,1,1.121-.215" transform="translate(-1505.712 -461.155)" fill="#8c85e5"/>
        <path id="Trazado_14429" data-name="Trazado 14429" d="M1693.057,706.633a4.486,4.486,0,1,1-4.486-4.487,4.485,4.485,0,0,1,4.486,4.487" transform="translate(-1508.294 -458.608)" fill="#8c85e5"/>
        <path id="Trazado_14430" data-name="Trazado 14430" d="M1698.4,706.773a1.981,1.981,0,1,1-1.981-1.981,1.981,1.981,0,0,1,1.981,1.981" transform="translate(-1505.603 -457.921)" fill="#8c85e5"/>
        <path id="Trazado_14431" data-name="Trazado 14431" d="M1657.39,672.071a4.444,4.444,0,1,1-4.444-4.444,4.444,4.444,0,0,1,4.444,4.444" transform="translate(-1517.545 -467.583)" fill="#8c85e5"/>
        <path id="Trazado_14432" data-name="Trazado 14432" d="M1646.38,671.161a2.841,2.841,0,1,1-2.841-2.841,2.841,2.841,0,0,1,2.841,2.841" transform="translate(-1519.574 -467.403)" fill="#8c85e5"/>
        <path id="Trazado_14433" data-name="Trazado 14433" d="M1653.6,663.719a4.2,4.2,0,1,1-4.2-4.2,4.195,4.195,0,0,1,4.2,4.2" transform="translate(-1518.402 -469.69)" fill="#8c85e5"/>
        <path id="Trazado_14434" data-name="Trazado 14434" d="M1672.685,721.48a2.459,2.459,0,1,1-2.458-2.458,2.459,2.459,0,0,1,2.458,2.458" transform="translate(-1512.537 -454.221)" fill="#8c85e5"/>
        <path id="Trazado_14435" data-name="Trazado 14435" d="M1710.934,688.794a2.937,2.937,0,1,1-2.936-2.936,2.936,2.936,0,0,1,2.936,2.936" transform="translate(-1502.84 -462.843)" fill="#8c85e5"/>
        <path id="Trazado_14436" data-name="Trazado 14436" d="M1706.81,696.013a2.064,2.064,0,1,1-2.064-2.065,2.065,2.065,0,0,1,2.064,2.065" transform="translate(-1503.46 -460.74)" fill="#8c85e5"/>
        <path id="Trazado_14437" data-name="Trazado 14437" d="M1619.583,685.183l-.084,7.686q-7.935,40.82-15.858,81.653c-.658.031-1.316.052-1.976.064a91.784,91.784,0,0,1-14.941-.93c-.717-.1-1.44-.219-2.157-.342q3.148-19.767,6.3-39.526c1.782-11.18,3.564-22.388,4.773-33.639.593-5.452,1.047-10.91,1.3-16.381,5.516.588,13.778,1.3,22.641,1.415" transform="translate(-1534.168 -463.387)" fill="#1a233d"/>
        <path id="Trazado_14438" data-name="Trazado 14438" d="M1633.05,707.54q-.686,28.824-1.375,57.662c-.749.084-1.493.155-2.241.213a84.814,84.814,0,0,1-13.436.012c-.594-.045-1.181-.1-1.776-.155q.136-32.612-1.537-65.187-.183-3.642-.394-7.286l.085-7.686c.336.006.677.013,1.02.013h.381a134.742,134.742,0,0,0,18.952-1.06c.078-.006.155-.019.233-.033.465,7.817.277,15.671.089,23.506" transform="translate(-1526.96 -463.317)" fill="#1a233d"/>
        <path id="Trazado_14439" data-name="Trazado 14439" d="M1645.887,757.872a13.7,13.7,0,0,1,.084,2.306q-15.309.572-30.63-.226c-.007-.742-.019-1.493-.026-2.235q15.26.079,30.526.163Z" transform="translate(-1526.174 -444.16)" fill="#fff"/>
        <path id="Trazado_14440" data-name="Trazado 14440" d="M1605.179,763.74c.452,1.278.743,2.712-.039,3.765a4.019,4.019,0,0,1-1.859,1.2,21.631,21.631,0,0,1-13.2.71c-1.692-.446-3.455-1.216-4.3-2.752a7.2,7.2,0,0,1-.562-3.863c0-.045.007-.1.007-.142h.026a16.584,16.584,0,0,0,19.927,1.086" transform="translate(-1534.006 -442.877)" fill="#fff"/>
        <path id="Trazado_14441" data-name="Trazado 14441" d="M1645.887,757.872a13.7,13.7,0,0,1,.084,2.306q-15.309.572-30.63-.226c-.007-.742-.019-1.493-.026-2.235q15.26.079,30.526.163Z" transform="translate(-1526.174 -444.16)" fill="#fff"/>
        <path id="Trazado_14442" data-name="Trazado 14442" d="M1645.914,760.236l-.045.008q-15.26-.077-30.526-.162-.068-5.56-.13-11.116l.027-.33a84.789,84.789,0,0,0,13.435-.013,11.715,11.715,0,0,0,3.333,2.281c3,1.459,6.291,2.254,9.243,3.8a8.521,8.521,0,0,1,4.4,4.4,6.531,6.531,0,0,1,.265,1.124" transform="translate(-1526.2 -446.525)" fill="#4b35b5"/>
        <path id="Trazado_14443" data-name="Trazado 14443" d="M1632.728,684.06q-10.162,7.84-20.043,16.02-.183-3.642-.394-7.287.747-3.837,1.486-7.673a134.558,134.558,0,0,0,18.952-1.06" transform="translate(-1526.96 -463.311)" fill="#0b1328"/>
        <path id="Trazado_14444" data-name="Trazado 14444" d="M1618.32,685.2a86.6,86.6,0,0,1-9.929,5.82q-7.741,4.2-15.037,9.134c.595-5.452,1.047-10.91,1.3-16.381,5.73.614,14.418,1.351,23.661,1.428" transform="translate(-1531.883 -463.387)" fill="#0b1328"/>
        <path id="Trazado_14445" data-name="Trazado 14445" d="M1605.179,763.74c.452,1.278.743,2.712-.039,3.765a4.019,4.019,0,0,1-1.859,1.2,21.631,21.631,0,0,1-13.2.71c-1.692-.446-3.455-1.216-4.3-2.752a7.2,7.2,0,0,1-.562-3.863c0-.045.007-.1.007-.142h.026a16.584,16.584,0,0,0,19.927,1.086" transform="translate(-1534.006 -442.877)" fill="#fff"/>
        <path id="Trazado_14446" data-name="Trazado 14446" d="M1605,765.217c.06.161.124.323.175.485a16.583,16.583,0,0,1-19.927-1.086h-.026a56.855,56.855,0,0,1,1.338-9.508,91.775,91.775,0,0,0,14.939.93c1.169,3.055,2.332,6.124,3.5,9.179" transform="translate(-1533.999 -444.839)" fill="#4b35b5"/>
        <path id="Trazado_14447" data-name="Trazado 14447" d="M1623.282,643.634l-12.293-38.8v-.006a5.975,5.975,0,0,1,1.2-1.254,6.155,6.155,0,0,1,3.752-1.291H1616c-.006.013-.013.02-.019.032.031.026.058.053.089.084a8.543,8.543,0,0,1,3.05.382,4.526,4.526,0,0,1,1.052.523,3.593,3.593,0,0,1,1.2,1.221c.027-.872.091-1.737.161-2.609Z" transform="translate(-1527.299 -484.667)" fill="#08aebf"/>
        <path id="Trazado_14448" data-name="Trazado 14448" d="M1646.861,707.836c-2.047.479-4.2.867-6.44,1.177,0-.045-.006-.1-.006-.142a1.836,1.836,0,0,0-.227.174,134.571,134.571,0,0,1-18.952,1.06c.027-.11.045-.226.071-.336-.147.117-.3.227-.451.336-9.243-.078-17.931-.814-23.66-1.428-4.264-.452-6.892-.84-6.892-.84l5.387-45.808c-1.033-.065-1.938-.117-2.68-.161-7.26-.446-6.842-4.489-6.842-4.489s-4.056-45.429-1.975-51.352,18.221-9.4,18.221-9.4l.045.008a3.911,3.911,0,0,1,.473-1.622,65.423,65.423,0,0,1,5.968-7.048c-.09,1.208-.187,2.41-.291,3.617l-.155-.174q.038.465.1.93a31.863,31.863,0,0,0,8.591,18.216,5.87,5.87,0,0,1,.969-2.086l2.9,9.14,9.392,29.655-1.221-29.023v-.006l-.537-12.686a47.062,47.062,0,0,0,.252-5.225,11.683,11.683,0,0,0-2.118-6.834c-.066-.737-.142-1.46-.272-2.184a29.784,29.784,0,0,1,5.7,4.244h.006c.362.052,13.978,1.971,17.524,5.084,3.372,2.951,6.272,36.579,6.615,40.7l-10.807,5.787c.006,0,.019.006.026.006l-.743.394c-.077,13.925,2.035,60.316,2.035,60.316" transform="translate(-1534.42 -488.295)" fill="#fff"/>
        <path id="Trazado_14449" data-name="Trazado 14449" d="M1617.916,605.168a6.16,6.16,0,0,0-3.753,1.292,6.013,6.013,0,0,0-1.2,1.252v.008a5.874,5.874,0,0,0-.969,2.087,31.864,31.864,0,0,1-8.591-18.216l.058-.755a148.542,148.542,0,0,0,14.456,14.333" transform="translate(-1529.271 -487.548)" fill="#2ecee8"/>
        <path id="Trazado_14450" data-name="Trazado 14450" d="M1615.729,602.244a9.071,9.071,0,0,1,3.138.465,4.591,4.591,0,0,1,1.053.523l-.626,5.07h-4.761l-2.591-4.8a6.16,6.16,0,0,1,3.753-1.292c.013.013.019.026.033.033.031.025-.033-.033,0,0" transform="translate(-1527.051 -484.591)" fill="#4b35b5"/>
        <path id="Trazado_14451" data-name="Trazado 14451" d="M1667.231,621.63l-6.007,11.375h-.006l-29.81,17.491-11.278,6.446L1628,642.888l.245-.439,1.233-.653,11.8-6.227,5.568-2.99Z" transform="translate(-1524.922 -479.542)" fill="#7891ce"/>
        <path id="Trazado_14452" data-name="Trazado 14452" d="M1624.738,629.468l4.779,3.578q-1.423.164-2.835.408c-.355.064-.717.128-1.066.207h-.006l-2.707-1.978Z" transform="translate(-1524.201 -477.504)" fill="#1a233d"/>
        <path id="Trazado_14453" data-name="Trazado 14453" d="M1621.462,613.278l1.22,29.022-9.391-29.655.891-5.6h4.761l2.519,6.227Z" transform="translate(-1526.7 -483.334)" fill="#5846d3"/>
        <path id="Trazado_14454" data-name="Trazado 14454" d="M1652.6,632.764a1.286,1.286,0,0,1,.136.748,7.277,7.277,0,0,1-1.86,3.967,21.673,21.673,0,0,0-2.681,3.547c-.4.781-.659,1.633-1.054,2.422a8.858,8.858,0,0,1-4.812,4.179,12.446,12.446,0,0,1-6.433.51,9.456,9.456,0,0,1-2.409-.692,4.5,4.5,0,0,1-1.866-1.492l-.053.031a3.071,3.071,0,0,1-.347-.8,2.279,2.279,0,0,1-.006-1.3,2.312,2.312,0,0,1,1.73-1.389,6.791,6.791,0,0,1,2.313.02,5.876,5.876,0,0,1-.569-1.88,2.228,2.228,0,0,1,.607-1.8,2.29,2.29,0,0,1,2.125-.394,6.724,6.724,0,0,1,1.983,1.06,6.8,6.8,0,0,1-.413-1.822,2.268,2.268,0,0,1,.606-1.712,2.2,2.2,0,0,1,1.758-.5c1.524.161,2.68,1.395,3.681,2.558,1.983-1.609,3.436-3.831,5.574-5.233a2.38,2.38,0,0,1,1.014-.432,1.147,1.147,0,0,1,.471.038.886.886,0,0,1,.5.369" transform="translate(-1522.065 -476.756)" fill="#76e5ff"/>
        <path id="Trazado_14455" data-name="Trazado 14455" d="M1630.818,609.27l7.687,29.513-5.214,2.8a2.426,2.426,0,0,0-.742-.1c.349-.433.826-.75,1.176-1.176a1.412,1.412,0,0,0,.291-1.537,1.741,1.741,0,0,0-1.409-.64q-.3-.029-.6-.038Z" transform="translate(-1522.143 -482.756)" fill="#d3d9ed"/>
        <path id="Trazado_14456" data-name="Trazado 14456" d="M1636.01,632.15c.2.006.4.02.6.041a1.736,1.736,0,0,1,1.409.639,1.412,1.412,0,0,1-.291,1.537c-.349.426-.826.742-1.176,1.176a2.475,2.475,0,0,1,.743.1,1.632,1.632,0,0,1,1.3,1.33,1.667,1.667,0,0,1-.7,1.37,4.9,4.9,0,0,1-1.435.684c.729-.147,1.337.743,1.182,1.473a2.79,2.79,0,0,1-1.434,1.628,9.34,9.34,0,0,1-2.641,1.078,1.805,1.805,0,0,1,.446,2.216,3.986,3.986,0,0,1-1.783,1.647,16.248,16.248,0,0,1-7.771,1.647c-.278,0-.563-.006-.84-.013-2.739-.059-5.471-.4-8.2-.316l1.246-8.7a10.536,10.536,0,0,0,3.205-1.523,25.526,25.526,0,0,0,2.492-2.138,12.639,12.639,0,0,1,3.423-2.506,9.085,9.085,0,0,1,1.771-.556h.006c.349-.078.711-.142,1.066-.207q1.414-.244,2.835-.408c.3-.031.588-.064.886-.091a24.025,24.025,0,0,1,3.662-.116" transform="translate(-1526.147 -476.814)" fill="#76e5ff"/>
        <path id="Trazado_14457" data-name="Trazado 14457" d="M1630.889,606.55l-5.931,1.221,5.692,4.031-9.1,34.771-1.219-29.023v-.006l-.537-12.686a47.146,47.146,0,0,0,.252-5.225,11.681,11.681,0,0,0-2.118-6.834c-.065-.737-.143-1.46-.271-2.184a29.784,29.784,0,0,1,5.7,4.244h.006a19.268,19.268,0,0,1,2.616,3.055,69.182,69.182,0,0,1,4.916,8.636" transform="translate(-1525.566 -487.606)" fill="#d3d9ed"/>
        <path id="Trazado_14458" data-name="Trazado 14458" d="M1626.52,641.386l.232.252a25.516,25.516,0,0,1-2.492,2.138,10.547,10.547,0,0,1-3.2,1.523l.194-1.337-22.718-3.411,1.93-29.99,4.633,26.4Z" transform="translate(-1530.537 -482.42)" fill="#d3d9ed"/>
        <path id="Trazado_14459" data-name="Trazado 14459" d="M1604.668,592.337a31.859,31.859,0,0,0,8.591,18.216,5.875,5.875,0,0,1,.969-2.086l2.9,9.14,9.392,29.655-25.139-38.8,3.475-3.572-5.214-.6s-1.375-4.69-1.065-7.653a3.908,3.908,0,0,1,.471-1.623,65.544,65.544,0,0,1,5.967-7.047c-.089,1.208-.186,2.41-.29,3.617l-.155-.174q.038.465.1.93" transform="translate(-1530.537 -488.295)" fill="#d3d9ed"/>
        <path id="Trazado_14460" data-name="Trazado 14460" d="M1620.5,604.407c-.07.872-.136,1.738-.161,2.61a3.593,3.593,0,0,0-1.2-1.221,4.551,4.551,0,0,0-1.052-.523,9.1,9.1,0,0,0-3.138-.466c-.033-.031.031.027,0,0,.006-.011.013-.019.019-.031a61.649,61.649,0,0,0,4.006-7.686c-.033-.434-.066-.859-.091-1.293-.052-.678-.1-1.356-.149-2.035-.033-.471-.066-.942-.1-1.414a11.68,11.68,0,0,1,2.118,6.833,47.169,47.169,0,0,1-.252,5.226" transform="translate(-1526.271 -487.155)" fill="#2ecee8"/>
        <path id="Trazado_14461" data-name="Trazado 14461" d="M1613.875,658.736v13.739a3.149,3.149,0,0,1-1.816,2.849l-6.537,3.048a3.135,3.135,0,0,1-2.957-.155l-5.9-3.558a3.15,3.15,0,0,1-1.518-2.817l.529-13.583Z" transform="translate(-1531.418 -470.019)" fill="#d3d9ed"/>
        <path id="Trazado_14462" data-name="Trazado 14462" d="M1621.03,645.127a.327.327,0,0,0-.377.26,12.819,12.819,0,0,1-.469,2.085l-20.555-.1-5.879-.028c-.415,0-.355.642.056.644l20.7.1,5.712.026a.3.3,0,0,0,.053.039.324.324,0,0,0,.429-.154,13.566,13.566,0,0,0,.591-2.5.329.329,0,0,0-.258-.377" transform="translate(-1531.854 -473.434)" fill="#d3d9ed"/>
        <path id="Trazado_14463" data-name="Trazado 14463" d="M1622.525,675.825q-.125-8.38-.351-16.758-.127-4.712-.286-9.422c-.014-.417-.657-.359-.644.055q.282,8.337.464,16.675.181,8.376.263,16.757.045,4.713.059,9.428c0,.416.645.357.644-.057q-.026-8.339-.149-16.679" transform="translate(-1524.632 -472.333)" fill="#d3d9ed"/>
        <path id="Trazado_14464" data-name="Trazado 14464" d="M1633.007,634.483q-2.02.269-4.046.492a.323.323,0,0,0,.057.644q2.026-.225,4.046-.492c.41-.056.357-.7-.057-.644" transform="translate(-1522.699 -476.201)" fill="#2ecee8"/>
        <path id="Trazado_14465" data-name="Trazado 14465" d="M1633.153,637.078q-1.769.274-3.548.481c-.412.048-.358.69.056.642q1.779-.208,3.549-.48c.408-.063.355-.707-.057-.644" transform="translate(-1522.532 -475.527)" fill="#2ecee8"/>
        <path id="Trazado_14466" data-name="Trazado 14466" d="M1630.269,640.592l-1.479.243a.331.331,0,0,0-.294.35.326.326,0,0,0,.35.292l1.478-.242a.33.33,0,0,0,.293-.35.325.325,0,0,0-.349-.293" transform="translate(-1522.747 -474.613)" fill="#2ecee8"/>
        <path id="Trazado_14467" data-name="Trazado 14467" d="M1638.8,643.243a11.528,11.528,0,0,1-4.143-2.833.324.324,0,0,0-.455.039.332.332,0,0,0,.039.455,11.947,11.947,0,0,0,4.283,2.922c.385.154.663-.429.276-.583" transform="translate(-1521.282 -474.679)" fill="#2ecee8"/>
        <path id="Trazado_14468" data-name="Trazado 14468" d="M1641.1,640.568a3.939,3.939,0,0,1-.757-.558q-.4-.35-.793-.708-.769-.709-1.5-1.458a.327.327,0,0,0-.455.04.332.332,0,0,0,.039.455q.756.769,1.549,1.5a8.049,8.049,0,0,0,1.646,1.315c.37.192.645-.394.276-.583" transform="translate(-1520.402 -475.346)" fill="#2ecee8"/>
        <path id="Trazado_14469" data-name="Trazado 14469" d="M1634.192,643l-14.063,8.286c-.359.21.016.737.373.527l14.063-8.285c.358-.212-.017-.737-.373-.528" transform="translate(-1524.96 -473.999)" fill="#4063a8"/>
        <path id="Trazado_14470" data-name="Trazado 14470" d="M1653.817,630.526q-2.622,1.631-5.346,3.088c-.366.2.011.722.374.528q2.722-1.455,5.345-3.089c.354-.219-.02-.747-.373-.526" transform="translate(-1517.592 -477.243)" fill="#4063a8"/>
        <path id="Trazado_14471" data-name="Trazado 14471" d="M1596.563,680.6l-2.418-2.031a1.028,1.028,0,0,0-1.449.127,1.047,1.047,0,0,0,.126,1.449l2.418,2.032a1.067,1.067,0,0,0,.751.237,1.03,1.03,0,0,0,.572-1.815" transform="translate(-1532.115 -464.8)" fill="#d3d9ed"/>
        <path id="Trazado_14472" data-name="Trazado 14472" d="M1599.442,676.662a1.035,1.035,0,0,0-.654-.417.99.99,0,0,0-.781.173q-1.13,1.032-2.259,2.065a1.148,1.148,0,0,0-.417.654,1.054,1.054,0,0,0,.171.781,1.042,1.042,0,0,0,.654.417,1,1,0,0,0,.781-.171q1.13-1.034,2.259-2.066a.768.768,0,0,0,.264-.29.758.758,0,0,0,.153-.364,1.052,1.052,0,0,0-.172-.781" transform="translate(-1531.374 -465.346)" fill="#d3d9ed"/>
        <path id="Trazado_14473" data-name="Trazado 14473" d="M1601.015,682.556,1600,680.013a1.071,1.071,0,0,0-.525-.571,1.028,1.028,0,0,0-1.4,1.289l1.017,2.543a1.074,1.074,0,0,0,.526.571,1.028,1.028,0,0,0,1.4-1.289" transform="translate(-1530.675 -464.537)" fill="#d3d9ed"/>
        <path id="Trazado_14474" data-name="Trazado 14474" d="M1605.423,678.924a1.042,1.042,0,0,0-.525-.572,1,1,0,0,0-.8-.034l-2.286,1.149a1.128,1.128,0,0,0-.571.526,1.03,1.03,0,0,0,.49,1.371,1,1,0,0,0,.8.033q1.143-.573,2.286-1.149a1.117,1.117,0,0,0,.571-.525,1.051,1.051,0,0,0,.035-.8" transform="translate(-1529.858 -464.822)" fill="#d3d9ed"/>
        <path id="Trazado_14475" data-name="Trazado 14475" d="M1595.677,673.614a1.029,1.029,0,0,0-1.852.409q-.2,1.333-.41,2.666a1.077,1.077,0,0,0,.174.78,1.029,1.029,0,0,0,1.852-.408c.135-.888.272-1.777.407-2.666a1.071,1.071,0,0,0-.172-.781" transform="translate(-1531.871 -466.138)" fill="#d3d9ed"/>
        <path id="Trazado_14476" data-name="Trazado 14476" d="M1608.955,682.308a1.181,1.181,0,0,0-.654-.417l-3.44-.994a1.038,1.038,0,0,0-.781.173,1.052,1.052,0,0,0-.417.654,1.032,1.032,0,0,0,.173.781,1.179,1.179,0,0,0,.654.417l3.438.993a1.029,1.029,0,0,0,1.027-1.606" transform="translate(-1529.206 -464.139)" fill="#d3d9ed"/>
        <path id="Trazado_14477" data-name="Trazado 14477" d="M1631.114,656.665a1.03,1.03,0,0,0-1.435-.245,1.181,1.181,0,0,0-.417.654l-.884,3.052a1.038,1.038,0,0,0,.172.781,1.029,1.029,0,0,0,1.435.245,1.18,1.18,0,0,0,.417-.653l.884-3.053a1.03,1.03,0,0,0-.172-.781" transform="translate(-1522.783 -470.545)" fill="#d3d9ed"/>
        <path id="Trazado_14478" data-name="Trazado 14478" d="M1628.294,656.646l-3.319-1.882a1.031,1.031,0,0,0-1.371.49,1.056,1.056,0,0,0,.49,1.371l3.32,1.882a1.029,1.029,0,0,0,.88-1.861" transform="translate(-1524.043 -470.953)" fill="#d3d9ed"/>
        <path id="Trazado_14479" data-name="Trazado 14479" d="M1630.792,651.51a1.053,1.053,0,0,0-.526-.572,1.04,1.04,0,0,0-.8-.034l-.235.125a1.052,1.052,0,0,0-.337.4q-.826,1.334-1.654,2.669a1.029,1.029,0,0,0,1.289,1.4c.078-.042.156-.083.235-.123a1.038,1.038,0,0,0,.336-.4q.829-1.332,1.656-2.667a1.036,1.036,0,0,0,.034-.8" transform="translate(-1523.099 -471.948)" fill="#d3d9ed"/>
        <path id="Trazado_14480" data-name="Trazado 14480" d="M1627.775,648.191a1.029,1.029,0,0,0-1.852.41q-.185,1.78-.373,3.561a1.1,1.1,0,0,0,.173.781,1.029,1.029,0,0,0,1.852-.409q.187-1.781.373-3.561a1.1,1.1,0,0,0-.173-.781" transform="translate(-1523.515 -472.747)" fill="#d3d9ed"/>
        <path id="Trazado_14481" data-name="Trazado 14481" d="M1626.631,659.395a1.038,1.038,0,0,0-1.114-.936,1.049,1.049,0,0,0-.936,1.115l.252,3.305a1.029,1.029,0,0,0,2.05-.179Z" transform="translate(-1523.766 -469.969)" fill="#d3d9ed"/>
        <path id="Trazado_14482" data-name="Trazado 14482" d="M1632.242,663.012a1.044,1.044,0,0,0-1.115-.935l-2.924.384a1.029,1.029,0,1,0,.18,2.05l2.923-.384a1.047,1.047,0,0,0,.936-1.115" transform="translate(-1523.068 -469.028)" fill="#d3d9ed"/>
        <path id="Trazado_14483" data-name="Trazado 14483" d="M1636.1,601.064a1.065,1.065,0,0,0-.364-.7l-2.161-1.78a1.063,1.063,0,0,0-.751-.236,1.027,1.027,0,0,0-.935,1.114,1.057,1.057,0,0,0,.364.7l2.161,1.78a1.071,1.071,0,0,0,.751.237,1.047,1.047,0,0,0,.7-.364,1.03,1.03,0,0,0,.237-.751" transform="translate(-1521.866 -485.596)" fill="#d3d9ed"/>
        <path id="Trazado_14484" data-name="Trazado 14484" d="M1634.5,602.936a1.055,1.055,0,0,0-.525-.571,1.04,1.04,0,0,0-.8-.034,1.009,1.009,0,0,0-.572.524l-.77,2.16a1.119,1.119,0,0,0-.034.8,1.055,1.055,0,0,0,.525.571,1.04,1.04,0,0,0,.8.035,1.011,1.011,0,0,0,.572-.525l.768-2.158a1.119,1.119,0,0,0,.036-.8" transform="translate(-1521.905 -484.577)" fill="#d3d9ed"/>
        <path id="Trazado_14485" data-name="Trazado 14485" d="M1638.065,608.149a1,1,0,0,0-.363-.7l-2.289-1.526a1.113,1.113,0,0,0-.751-.237,1.049,1.049,0,0,0-.7.364,1.032,1.032,0,0,0-.237.751,1,1,0,0,0,.364.7q1.144.764,2.288,1.526a1.107,1.107,0,0,0,.751.237,1.042,1.042,0,0,0,.7-.364,1.03,1.03,0,0,0,.237-.751" transform="translate(-1521.388 -483.688)" fill="#d3d9ed"/>
        <path id="Trazado_14486" data-name="Trazado 14486" d="M1637.277,601.891a1.027,1.027,0,0,0-1.449.127c-.048.073-.095.147-.143.22a1.036,1.036,0,0,0-.094.53l-.028,2.287a1.033,1.033,0,0,0,.364.7,1.03,1.03,0,0,0,1.451-.127l.141-.221a1.022,1.022,0,0,0,.1-.531l.027-2.287a1.026,1.026,0,0,0-.364-.7" transform="translate(-1520.909 -484.737)" fill="#d3d9ed"/>
        <path id="Trazado_14487" data-name="Trazado 14487" d="M1633.5,564.18c-.032.265-.071.536-.128.8a8.232,8.232,0,0,1-3.347,5.361,5.6,5.6,0,0,1-1.433.673,10.149,10.149,0,0,1-4.954-.072c-1.376-.277-2.732-.62-4.076-1.027a18.017,18.017,0,0,0-3.436-.846,4.806,4.806,0,0,0-3.372.775,5.855,5.855,0,0,0-1.9,3.494,16.971,16.971,0,0,1-1.092,3.9,3.861,3.861,0,0,1-2.492,2.074,2.9,2.9,0,0,0-1.105-1.13,3.122,3.122,0,0,0-1.975-.568,1.984,1.984,0,0,0-.227.045,2.217,2.217,0,0,0-1.312,1.021,12.171,12.171,0,0,1-2.487-5.174,6.153,6.153,0,0,1,2.107-6.015,7.133,7.133,0,0,1,3.8-1.136,6.272,6.272,0,0,1,2.668-6.621,8.882,8.882,0,0,1,5.988-.949c2.048.3,4,1,6.013,1.486a28.656,28.656,0,0,0,6.383.781c1.265.014,2.525-.058,3.785.058a3.01,3.01,0,0,1,2.234.969,2.97,2.97,0,0,1,.355,2.1" transform="translate(-1530.139 -495.916)" fill="#2a1f7f"/>
        <path id="Trazado_14488" data-name="Trazado 14488" d="M1629.325,584.593c-.633,3.469-1.763,7.086-4.49,9.315a8.992,8.992,0,0,1-3.262,1.686c.11.394.188.788.259,1.188.129.723.206,1.446.271,2.182.039.472.07.944.1,1.416.052.678.1,1.356.148,2.034.026.432.059.859.091,1.293a61.425,61.425,0,0,1-4,7.686h-.052a148.531,148.531,0,0,1-14.456-14.332c.1-1.208.2-2.41.291-3.617q.369-4.642.711-9.289a4.707,4.707,0,0,1-2.572-2.041,5.874,5.874,0,0,1-.678-4.07,4.1,4.1,0,0,1,.575-1.506,2.224,2.224,0,0,1,1.312-1.019,1.973,1.973,0,0,1,.226-.045,3.116,3.116,0,0,1,1.976.568,2.914,2.914,0,0,1,1.1,1.13,3.865,3.865,0,0,0,2.494-2.073,17.066,17.066,0,0,0,1.091-3.9,5.861,5.861,0,0,1,1.9-3.5,4.806,4.806,0,0,1,3.372-.774,18.009,18.009,0,0,1,3.436.846c1.344.407,2.7.75,4.076,1.027a10.149,10.149,0,0,0,4.954.072,5.617,5.617,0,0,0,1.434-.673,51.127,51.127,0,0,1-.31,16.394" transform="translate(-1529.744 -493.773)" fill="#ffc255"/>
        <path id="Trazado_14489" data-name="Trazado 14489" d="M1620.734,594.1c.038.471.07.942.1,1.414.052.679.1,1.357.148,2.035a18.7,18.7,0,0,1-6.57-3.056c-3.287-2.215-6.415-5.077-7.564-8.868a15.152,15.152,0,0,0,6.556,4.845,11.3,11.3,0,0,0,6.8.257c.111.394.188.789.258,1.189.13.723.208,1.446.273,2.184" transform="translate(-1528.374 -488.904)" fill="#ef9d1b"/>
        <path id="Trazado_14490" data-name="Trazado 14490" d="M1621.885,579.345c.374.26.788.6.75,1.054a1.244,1.244,0,0,1-.485.762,9.788,9.788,0,0,1-5.891,2.473,54.781,54.781,0,0,1,1.673-8.7l.033-.006a4.657,4.657,0,0,0,1.374,2.487,16.144,16.144,0,0,0,2.545,1.93" transform="translate(-1525.929 -491.684)" fill="#ef9d1b"/>
        <path id="Trazado_14491" data-name="Trazado 14491" d="M1629.334,569.283a5.57,5.57,0,0,1-1.434.672,10.139,10.139,0,0,1-4.954-.071q-2.064-.416-4.076-1.027a18,18,0,0,0-3.436-.845,4.812,4.812,0,0,0-3.372.775,5.856,5.856,0,0,0-1.9,3.494,16.979,16.979,0,0,1-1.092,3.9,3.858,3.858,0,0,1-2.493,2.074,2.9,2.9,0,0,0-1.1-1.13,3.123,3.123,0,0,0-1.977-.568,5.873,5.873,0,0,1-.749-3.231,3.357,3.357,0,0,1,1.311-2.647,4.694,4.694,0,0,1,3.456-.213,6.167,6.167,0,0,1,6.259-7.733c1.893.091,3.616,1.033,5.348,1.8a17.039,17.039,0,0,0,7.719,1.687,9.57,9.57,0,0,0,5.839-2.3,8.223,8.223,0,0,1-3.345,5.36" transform="translate(-1529.444 -494.857)" fill="#4b35b5"/>
        <path id="Trazado_14492" data-name="Trazado 14492" d="M1621.081,575.926c.061.945.692,1.675,1.409,1.629a1.555,1.555,0,0,0,1.19-1.8c-.061-.945-.692-1.675-1.409-1.628a1.553,1.553,0,0,0-1.19,1.8" transform="translate(-1524.676 -491.892)" fill="#2a1f7f"/>
        <path id="Trazado_14493" data-name="Trazado 14493" d="M1611.981,575.5c.06.946.692,1.674,1.409,1.629a1.552,1.552,0,0,0,1.189-1.8c-.06-.946-.691-1.674-1.409-1.629a1.553,1.553,0,0,0-1.189,1.8" transform="translate(-1527.042 -492.003)" fill="#2a1f7f"/>
        <path id="Trazado_14494" data-name="Trazado 14494" d="M1611.678,571.84a4.7,4.7,0,0,1,2.8-.555,1.056,1.056,0,0,1,.679.3.969.969,0,0,1-.031,1.371.94.94,0,0,1-.692.267,3.812,3.812,0,0,0-.767-.015,3.862,3.862,0,0,0-.753.188c-.1.044-.2.088-.3.14a1,1,0,0,1-.748.081.969.969,0,0,1-.192-1.775" transform="translate(-1527.247 -492.64)" fill="#2a1f7f"/>
        <path id="Trazado_14495" data-name="Trazado 14495" d="M1621.121,572.269a.944.944,0,0,1,.588-.432,3.87,3.87,0,0,1,1.564.064,3.969,3.969,0,0,1,.711.275,2.814,2.814,0,0,1,.491.3,1.057,1.057,0,0,1,.432.59,1,1,0,0,1-.116.745.978.978,0,0,1-.589.431.947.947,0,0,1-.745-.115,2.719,2.719,0,0,0-.442-.267,2.832,2.832,0,0,0-.421-.123,2.73,2.73,0,0,0-.574,0,.967.967,0,0,1-.584-.131.968.968,0,0,1-.316-1.333" transform="translate(-1524.701 -492.501)" fill="#2a1f7f"/>
        <path id="Trazado_14496" data-name="Trazado 14496" d="M1605.325,576.484c-.233-.689-.737-1.765-1.63-1.658a1.384,1.384,0,0,0-1.011.907,2.061,2.061,0,0,0-.049,1.425c.126.4.731.171.6-.224a1.366,1.366,0,0,1,.06-1c.125-.268.386-.607.707-.408a1.724,1.724,0,0,1,.565.8,4.3,4.3,0,0,1,.307,1.008,3.968,3.968,0,0,1-.18,2.074c-.04.1-.111.333-.229.381s-.189-.066-.25-.143c-.147-.189-.428-.736-.055-.833.4-.106.175-.711-.226-.606-.963.253-.595,1.6-.015,2.055a.77.77,0,0,0,1.053-.064,2.435,2.435,0,0,0,.5-1.137,4.8,4.8,0,0,0-.15-2.58" transform="translate(-1529.497 -491.713)" fill="#ef9d1b"/>
        <path id="Trazado_14497" data-name="Trazado 14497" d="M1603.631,588.1c2.1.183,5.916.455,8.023.52l1.3-6.471c-1.966-2.392-4.74-5.736-6.821-8.023-.29-.317.13-.839.422-.519,2.07,2.274,4.835,5.6,6.791,7.977,1.66-.944,9.627-5.048,15.043-.2a13.883,13.883,0,0,1,.816,6.484c-.574,2.911-6.295,5.544-8.122,6.207a5.461,5.461,0,0,1-4.874-.441l-4.23-4.328c-2.255-.063-6.219-.344-8.468-.539-.424-.038-.306-.7.115-.669" transform="translate(-1529.311 -492.053)" fill="#fff"/>
        <path id="Trazado_14498" data-name="Trazado 14498" d="M1613.266,580.916a15.456,15.456,0,0,1,11.735.252.337.337,0,0,1-.279.614,14.781,14.781,0,0,0-11.222-.227c-.4.155-.631-.484-.234-.639" transform="translate(-1526.761 -490.397)" fill="#d3d9ed"/>
        <path id="Trazado_14499" data-name="Trazado 14499" d="M1613.284,583.335a18.406,18.406,0,0,1,11.76-.119c.4.131.291.8-.116.669a17.816,17.816,0,0,0-11.409.088c-.4.141-.636-.5-.235-.639" transform="translate(-1526.756 -489.765)" fill="#d3d9ed"/>
        <path id="Trazado_14500" data-name="Trazado 14500" d="M1675.51,695.933l2.677,85.175,2.678-4.672-1.105-80.5Z" transform="translate(-1510.524 -460.224)" fill="#aca7d3"/>
        <path id="Trazado_14501" data-name="Trazado 14501" d="M1678.476,701.315h0a6.214,6.214,0,0,1-6.2-6.2V682.911a6.2,6.2,0,0,1,12.392,0V695.12a6.214,6.214,0,0,1-6.2,6.2" transform="translate(-1511.364 -465.22)" fill="#46468e"/>
        <rect id="Rectángulo_3222" data-name="Rectángulo 3222" width="49.182" height="157.798" transform="translate(142.242 53.456)" fill="#e1f8f9"/>
        <rect id="Rectángulo_3223" data-name="Rectángulo 3223" width="46.113" height="95.197" transform="translate(143.502 113.734)" fill="#ff4a69"/>
        <path id="Trazado_14502" data-name="Trazado 14502" d="M1704.573,611.139V670.26a10.317,10.317,0,0,0-3.411-2,12.722,12.722,0,0,0-7.739.258c-2.538.8-4.779,2.293-7.312,3.094a11.71,11.71,0,0,1-7.609-.342c-4.947-1.789-8.824-5.826-13.952-7.182a9.919,9.919,0,0,0-6.092.244V653.182c.815-.271,1.628-.524,2.443-.781,3.035-.956,6.167-1.919,8.791-3.779a14.758,14.758,0,0,0,5.612-8.683c1-3.94.789-7.957,1.008-11.981.206-3.76,1.008-7.815,3.778-10.58,2.558-2.552,6.233-3.4,9.721-3.689,4.011-.335,8.172.059,12.047-1.24a11.84,11.84,0,0,0,2.714-1.31" transform="translate(-1514.957 -482.27)" fill="#d33759"/>
        <path id="Trazado_14503" data-name="Trazado 14503" d="M1672.693,634.047a5.574,5.574,0,1,1-5.574-5.576,5.574,5.574,0,0,1,5.574,5.576" transform="translate(-1514.155 -477.763)" fill="#d33759"/>
        <path id="Trazado_14504" data-name="Trazado 14504" d="M1670.522,622.759a1.971,1.971,0,1,1-1.971-1.971,1.972,1.972,0,0,1,1.971,1.971" transform="translate(-1512.846 -479.761)" fill="#d33759"/>
        <path id="Trazado_14505" data-name="Trazado 14505" d="M1668.464,616.794a2.652,2.652,0,1,1-2.652-2.652,2.653,2.653,0,0,1,2.652,2.652" transform="translate(-1513.735 -481.489)" fill="#d33759"/>
        <path id="Trazado_14506" data-name="Trazado 14506" d="M1672.461,662.587a3.891,3.891,0,1,1-3.891-3.89,3.891,3.891,0,0,1,3.891,3.89" transform="translate(-1513.339 -469.905)" fill="#d33759"/>
        <path id="Trazado_14507" data-name="Trazado 14507" d="M1682.458,665.143a2.741,2.741,0,1,1-2.742-2.74,2.741,2.741,0,0,1,2.742,2.74" transform="translate(-1510.143 -468.942)" fill="#d33759"/>
        <path id="Trazado_14508" data-name="Trazado 14508" d="M1674.2,669.875a2.247,2.247,0,1,1-2.247-2.248,2.246,2.246,0,0,1,2.247,2.248" transform="translate(-1512.032 -467.583)" fill="#d33759"/>
        <path id="Trazado_14509" data-name="Trazado 14509" d="M1688.234,625.488a5.079,5.079,0,1,1-5.079-5.08,5.078,5.078,0,0,1,5.079,5.08" transform="translate(-1509.857 -479.86)" fill="#ff4a69"/>
        <path id="Trazado_14510" data-name="Trazado 14510" d="M1683.77,638.124a4.13,4.13,0,1,1-4.129-4.13,4.129,4.129,0,0,1,4.129,4.13" transform="translate(-1510.524 -476.328)" fill="#ff4a69"/>
        <path id="Trazado_14511" data-name="Trazado 14511" d="M1695.243,642.863a4.309,4.309,0,1,1-4.308-4.308,4.308,4.308,0,0,1,4.308,4.308" transform="translate(-1507.633 -475.142)" fill="#ff4a69"/>
        <path id="Trazado_14512" data-name="Trazado 14512" d="M1690.7,631.279a2.035,2.035,0,1,1-2.035-2.035,2.035,2.035,0,0,1,2.035,2.035" transform="translate(-1507.633 -477.562)" fill="#ff4a69"/>
        <path id="Trazado_14513" data-name="Trazado 14513" d="M1680.536,648.033a3.112,3.112,0,1,1-3.113-3.113,3.113,3.113,0,0,1,3.113,3.113" transform="translate(-1510.835 -473.487)" fill="#ff4a69"/>
        <g id="Grupo_14192" data-name="Grupo 14192" transform="translate(165.562 53.456)" style="mix-blend-mode: soft-light;isolation: isolate">
          <g id="Grupo_14191" data-name="Grupo 14191">
            <g id="Grupo_14190" data-name="Grupo 14190" clip-path="url(#clip-path-2)">
              <rect id="Rectángulo_3224" data-name="Rectángulo 3224" width="18.299" height="157.721" fill="#b8edf4"/>
            </g>
          </g>
        </g>
        <rect id="Rectángulo_3226" data-name="Rectángulo 3226" width="10.415" height="60.278" transform="translate(160.983 53.456)" fill="#aca7d3"/>
        <rect id="Rectángulo_3227" data-name="Rectángulo 3227" width="69.177" height="8.231" transform="translate(130.974 45.225)" fill="#6561aa"/>
        <path id="Trazado_14514" data-name="Trazado 14514" d="M1658.459,600.8h45.376s-3.69-8.093-22.321-8.093-23.055,8.093-23.055,8.093" transform="translate(-1514.957 -487.063)" fill="#6561aa"/>
        <rect id="Rectángulo_3228" data-name="Rectángulo 3228" width="20.889" height="20.321" transform="translate(155.745 24.905)" fill="#6561aa"/>
        <rect id="Rectángulo_3229" data-name="Rectángulo 3229" width="8.704" height="20.321" transform="translate(161.756 24.905)" fill="#46468e"/>
        <path id="Trazado_14515" data-name="Trazado 14515" d="M1713.728,530.331H1652.8a8.26,8.26,0,0,1,8.261-8.26h44.411a8.26,8.26,0,0,1,8.26,8.26" transform="translate(-1516.429 -505.427)" fill="#46468e"/>
        <path id="Trazado_14516" data-name="Trazado 14516" d="M1657.458,676.525l15.074,8.541h19.034l15.074-8.541Z" transform="translate(-1515.217 -465.27)" fill="#6561aa"/>
        <rect id="Rectángulo_3230" data-name="Rectángulo 3230" width="23.762" height="2.035" transform="translate(155.231 219.796)" fill="#46468e"/>
        <path id="Trazado_14517" data-name="Trazado 14517" d="M1784.3,774c-.391.025-.783.043-1.173.062q-5.548.28-11.1.167-.745-.01-1.489-.037c-5.107-14.2-8.383-29.009-11.652-43.751q-3.788-17.108-7.57-34.2c-.212-.949-.422-1.9-.633-2.841q-1.119-5.075-2.247-10.139a94.643,94.643,0,0,0,24.132-1.464c.278-.055.552-.112.819-.161A455.809,455.809,0,0,0,1784.3,774" transform="translate(-1491.562 -463.941)" fill="#1a233d"/>
        <path id="Trazado_14518" data-name="Trazado 14518" d="M1754.555,693.672q-.234,1.8-.478,3.593c-3.1,23.349-6.013,46.78-5.932,70.32-.1.006-.217.006-.322.013-2.836.068-5.678.206-8.507.409q-1.629.111-3.252.261c-3.139-16.965-2.544-34.388-2.27-51.65q.166-10.416.168-20.83,0-7.605-.087-15.208a99.146,99.146,0,0,0,18.174,2.935,1.815,1.815,0,0,0,.26.019q1.125,5.073,2.247,10.138" transform="translate(-1495.431 -464.215)" fill="#1a233d"/>
        <path id="Trazado_14519" data-name="Trazado 14519" d="M1775.178,765.689c1.829-.223,3.666-.441,5.5-.664a11.907,11.907,0,0,1-.547,1.768,1.758,1.758,0,0,1-.471.745,1.813,1.813,0,0,1-.7.28,38.751,38.751,0,0,1-4.622.688,31.834,31.834,0,0,1-6.963.256,5.563,5.563,0,0,1-3.562-1.434,3.9,3.9,0,0,1-.98-2.693c2,1.477,4.7,1.669,7.2,1.545,1.719-.081,3.437-.286,5.151-.49" transform="translate(-1487.821 -442.362)" fill="#fff"/>
        <path id="Trazado_14520" data-name="Trazado 14520" d="M1750.819,756.419c.1,1.124.2,2.246.3,3.37-8.861,1.172-17.746,2.332-26.674,2.642a5.746,5.746,0,0,1,.035-1.377q13.209-2.047,26.335-4.635" transform="translate(-1497.807 -444.498)" fill="#fff"/>
        <path id="Trazado_14521" data-name="Trazado 14521" d="M1780.935,761.86a16.856,16.856,0,0,1-.261,5.671c-1.829.223-3.666.441-5.5.663-1.713.206-3.431.41-5.15.492-2.5.123-5.2-.068-7.2-1.545a6.2,6.2,0,0,1,.558-2.525,27.7,27.7,0,0,1,3.165-4.549,10.509,10.509,0,0,0,1.353-2.408,5.424,5.424,0,0,0,.384-2.5q5.557.112,11.1-.168a38.681,38.681,0,0,1,1.545,6.869" transform="translate(-1487.821 -444.869)" fill="#4b35b5"/>
        <path id="Trazado_14522" data-name="Trazado 14522" d="M1775.178,765.689c1.829-.223,3.666-.441,5.5-.664a11.907,11.907,0,0,1-.547,1.768,1.758,1.758,0,0,1-.471.745,1.813,1.813,0,0,1-.7.28,38.751,38.751,0,0,1-4.622.688,31.834,31.834,0,0,1-6.963.256,5.563,5.563,0,0,1-3.562-1.434,3.9,3.9,0,0,1-.98-2.693c2,1.477,4.7,1.669,7.2,1.545,1.719-.081,3.437-.286,5.151-.49" transform="translate(-1487.821 -442.362)" fill="#fff"/>
        <path id="Trazado_14523" data-name="Trazado 14523" d="M1750.687,693.365q-1.119-5.073-2.247-10.138a94.635,94.635,0,0,0,24.131-1.464q-10.628,7.222-21.251,14.445c-.212-.949-.422-1.9-.633-2.843" transform="translate(-1491.562 -463.908)" fill="#0b1328"/>
        <path id="Trazado_14524" data-name="Trazado 14524" d="M1751.983,683.516q-9.047,6.135-18.087,12.273,0-7.605-.087-15.208a99.142,99.142,0,0,0,18.174,2.935" transform="translate(-1495.367 -464.215)" fill="#0b1328"/>
        <path id="Trazado_14525" data-name="Trazado 14525" d="M1750.819,756.419c.1,1.124.2,2.246.3,3.37-8.861,1.172-17.746,2.332-26.674,2.642a5.746,5.746,0,0,1,.035-1.377q13.209-2.047,26.335-4.635" transform="translate(-1497.807 -444.498)" fill="#fff"/>
        <path id="Trazado_14526" data-name="Trazado 14526" d="M1750.184,749.643c.167,2.848.379,5.7.62,8.538q-13.113,2.587-26.333,4.635a5.845,5.845,0,0,1,1.488-3.1,10.912,10.912,0,0,1,2.775-1.979c4.374-2.446,8.941-4.612,12.944-7.639v-.042c2.829-.205,5.671-.342,8.506-.411" transform="translate(-1497.794 -446.26)" fill="#4b35b5"/>
        <path id="Trazado_14527" data-name="Trazado 14527" d="M1791.531,701.673a56.638,56.638,0,0,1-7.967,2.153c-.006-.131-.006-.261-.006-.392-.273.186-.541.372-.814.553a94.627,94.627,0,0,1-24.13,1.464c-.012-.057-.025-.118-.038-.174-.074.055-.149.106-.223.155a99.149,99.149,0,0,1-18.174-2.935c-1.006-.255-2.017-.527-3.041-.825,0,0,5.957-36.076,11.3-56.515.558-2.147,1.112-4.12,1.652-5.858-10.686-2.334-26.9-6.193-26.9-6.193l.106-.465,1.744-7.472.564-2.413,10.642.949,15.9,1.421,3.071-3.531c-3.878.242-15.693.95-18.49.906a2.951,2.951,0,0,1-.373-.032c-4.473-.607-27.054-9.456-27.054-9.456l.044-1.086.359-8.513.055-1.409,25.3,6.7,33.781-2.762-2.768,3.184-.037.037-2.408,2.767-.006.006-4.387,8.278c2.849-3.084,6.59-7.067,10.046-10.474a68.493,68.493,0,0,1,6.949-6.212,7.888,7.888,0,0,1,3.532-1.433l5.938-4.759,1.315-1.055,1.893,7.762s5.262,7.937.862,18.628S1779,648.807,1779,648.807s12.3,24.924,12.534,52.866" transform="translate(-1501.736 -486.132)" fill="#fff"/>
        <path id="Trazado_14528" data-name="Trazado 14528" d="M1756.472,608.219l14.86-13.689.4-.372a5.065,5.065,0,0,1,1.707,3.73l-5.938,4.759a7.853,7.853,0,0,0-3.531,1.434,68.142,68.142,0,0,0-6.95,6.21,2.991,2.991,0,0,0-.552-2.073" transform="translate(-1489.474 -486.684)" fill="#76e5ff"/>
        <path id="Trazado_14529" data-name="Trazado 14529" d="M1740.368,641.5c.558-2.147,1.112-4.12,1.651-5.858,4.561,1,8.117,1.719,8.979,1.744,2.892.086,21.655-18.293,27.326-27.055-.583.956-19.211,31.69-27.984,32.261a27.227,27.227,0,0,1-9.972-1.092" transform="translate(-1493.661 -482.478)" fill="#d3d9ed"/>
        <path id="Trazado_14530" data-name="Trazado 14530" d="M1754.364,607.133l2.767-3.184-.111,1.726a4.825,4.825,0,0,0-2.656,1.458" transform="translate(-1490.022 -484.139)" fill="#76e5ff"/>
        <path id="Trazado_14531" data-name="Trazado 14531" d="M1758.431,605.318a2.993,2.993,0,0,1,.552,2.073c-3.455,3.407-7.2,7.39-10.046,10.474l4.387-8.278.006-.006,2.408-2.767.037-.038a4.832,4.832,0,0,1,2.656-1.458" transform="translate(-1491.433 -483.783)" fill="#2ecee8"/>
        <path id="Trazado_14532" data-name="Trazado 14532" d="M1767.449,653.185v12.522a3.3,3.3,0,0,1-1.769,2.923l-5.523,2.885a3.268,3.268,0,0,1-3.108-.032l-5.6-3.072a3.288,3.288,0,0,1-1.713-2.885V653.185Z" transform="translate(-1491.224 -471.338)" fill="#d3d9ed"/>
        <path id="Trazado_14533" data-name="Trazado 14533" d="M1709.353,610.748l.359-8.512.055-1.409,25.3,6.7,33.781-2.762-2.768,3.184-.037.037-2.408,2.767-.006.006-8.4,9.662c-3.878.242-15.693.95-18.49.906a2.94,2.94,0,0,1-.373-.032c-4.473-.607-27.054-9.456-27.054-9.456Z" transform="translate(-1501.736 -484.951)" fill="#fff"/>
        <path id="Trazado_14534" data-name="Trazado 14534" d="M1712.366,603.809l-.359,8.514a10.01,10.01,0,0,1-6.653-1.7,7.893,7.893,0,0,0,1.627-2.3c.242-.527.391-1.228-.044-1.606a1.371,1.371,0,0,0-1.278-.118,8.261,8.261,0,0,0-1.241.454,3.978,3.978,0,0,0,.83-1.415,1.579,1.579,0,0,0-.117-1.483,1.306,1.306,0,0,0-1.173-.391,3.911,3.911,0,0,0-1.2.433,3.867,3.867,0,0,0,.937-1.935.917.917,0,0,0-.229-.745c-.417-.385-1.067-.025-1.633.006a1.386,1.386,0,0,0,.689-1.105.983.983,0,0,0-.683-.788,2.439,2.439,0,0,0-1.086-.087c-.111.006-.23.019-.341.037a7.707,7.707,0,0,1-1.3-3.834,1.006,1.006,0,0,1,.174-.769.919.919,0,0,1,.948-.131,4.812,4.812,0,0,1,1.707,1.036c1.118.95,2.109,2.043,3.172,3.059a29.587,29.587,0,0,0,6.47,4.667,1.238,1.238,0,0,0,.782.2" transform="translate(-1504.389 -486.524)" fill="#2ecee8"/>
        <path id="Trazado_14535" data-name="Trazado 14535" d="M1746.153,634.749q-1.6,11.391-3.046,22.8-1.44,11.336-2.736,22.689-.734,6.445-1.424,12.892c-.042.4.568.51.611.112q1.223-11.438,2.59-22.861,1.357-11.344,2.861-22.672.855-6.43,1.754-12.852c.055-.4-.555-.508-.611-.112" transform="translate(-1494.031 -476.195)" fill="#d3d9ed"/>
        <path id="Trazado_14536" data-name="Trazado 14536" d="M1749.99,615.6q-1.813,2.527-3.857,4.875-1.252-.3-2.494-.649a.313.313,0,0,0-.36.25.317.317,0,0,0,.249.361c.876.248,1.76.478,2.646.689a.3.3,0,0,0,.32-.15.316.316,0,0,0,.082-.063q2.06-2.364,3.89-4.915c.231-.323-.244-.723-.477-.4" transform="translate(-1492.906 -481.142)" fill="#d3d9ed"/>
        <path id="Trazado_14537" data-name="Trazado 14537" d="M1767.075,677.2q-1.784-1.071-3.57-2.142a1.031,1.031,0,0,0-1.371.49,1.058,1.058,0,0,0,.491,1.371l3.571,2.142a1.04,1.04,0,0,0,.8.034,1.03,1.03,0,0,0,.08-1.9" transform="translate(-1488.026 -465.677)" fill="#d3d9ed"/>
        <path id="Trazado_14538" data-name="Trazado 14538" d="M1769.932,671.643a1.027,1.027,0,0,0-1.323-.606l-.236.125a1.034,1.034,0,0,0-.336.4l-1.527,2.413a1.031,1.031,0,0,0-.034.8,1.03,1.03,0,0,0,1.323.606c.078-.043.157-.084.236-.126a1.032,1.032,0,0,0,.336-.4l1.527-2.414a1.032,1.032,0,0,0,.034-.8" transform="translate(-1486.89 -466.714)" fill="#d3d9ed"/>
        <path id="Trazado_14539" data-name="Trazado 14539" d="M1765.407,672.466l-.635-2.544a1.03,1.03,0,0,0-.524-.571,1.054,1.054,0,0,0-.8-.034,1.038,1.038,0,0,0-.571.524l-.082.255a1.028,1.028,0,0,0,.048.544l.634,2.543a1.031,1.031,0,0,0,.526.572,1.03,1.03,0,0,0,1.371-.491l.081-.253a1.043,1.043,0,0,0-.046-.545" transform="translate(-1487.834 -467.16)" fill="#d3d9ed"/>
        <path id="Trazado_14540" data-name="Trazado 14540" d="M1771.021,667.592a1.054,1.054,0,0,0-1.324-.606l-2.925.887a1.036,1.036,0,0,0-.6,1.324,1.053,1.053,0,0,0,1.323.606l2.925-.888a1.035,1.035,0,0,0,.606-1.323" transform="translate(-1486.971 -467.764)" fill="#d3d9ed"/>
        <path id="Trazado_14541" data-name="Trazado 14541" d="M1773.961,673.453q-.506-1.463-1.017-2.925a1.029,1.029,0,1,0-1.929.718q.507,1.461,1.017,2.923a1.029,1.029,0,1,0,1.929-.717" transform="translate(-1485.708 -467.004)" fill="#d3d9ed"/>
        <path id="Trazado_14542" data-name="Trazado 14542" d="M1772.509,675.253a1.044,1.044,0,0,0-.751-.238,1.02,1.02,0,0,0-.7.364l-1.775,2.545a1.1,1.1,0,0,0-.238.751,1.053,1.053,0,0,0,.364.7,1.04,1.04,0,0,0,.751.237,1.01,1.01,0,0,0,.7-.364l1.777-2.545a1.105,1.105,0,0,0,.235-.75,1.038,1.038,0,0,0-.363-.7" transform="translate(-1486.206 -465.664)" fill="#d3d9ed"/>
        <path id="Trazado_14543" data-name="Trazado 14543" d="M1763.632,678.136a1.048,1.048,0,0,0-1.449.126l-2.02,2.3a1.056,1.056,0,0,0-.237.751,1.03,1.03,0,0,0,1.813.572q1.011-1.149,2.02-2.3a1.057,1.057,0,0,0,.237-.751,1.046,1.046,0,0,0-.364-.7" transform="translate(-1488.577 -464.912)" fill="#d3d9ed"/>
        <path id="Trazado_14544" data-name="Trazado 14544" d="M1761.847,673.264a1.027,1.027,0,0,0-1.323-.606,1,1,0,0,0-.571.525q-.438,1.21-.876,2.42a1.113,1.113,0,0,0-.034.8,1.052,1.052,0,0,0,.525.571,1.029,1.029,0,0,0,.8.034,1.006,1.006,0,0,0,.572-.524q.437-1.21.873-2.42a1.1,1.1,0,0,0,.034-.8" transform="translate(-1488.821 -466.292)" fill="#d3d9ed"/>
        <path id="Trazado_14545" data-name="Trazado 14545" d="M1758.713,680.247l-.06-.269a1.038,1.038,0,0,0-.3-.429l-1.653-1.78a1.129,1.129,0,0,0-.751-.237,1.046,1.046,0,0,0-.7.363,1.035,1.035,0,0,0-.237.752l.061.27a1.016,1.016,0,0,0,.3.428l1.654,1.781a.763.763,0,0,0,.349.182.771.771,0,0,0,.4.054,1.028,1.028,0,0,0,.934-1.115" transform="translate(-1489.856 -465.01)" fill="#d3d9ed"/>
        <path id="Trazado_14546" data-name="Trazado 14546" d="M1754.668,677.11a1.03,1.03,0,0,0-1.9-.081q-.584,1.2-1.168,2.4a1.065,1.065,0,0,0-.034.8,1.028,1.028,0,0,0,1.894.081l1.171-2.4a1.061,1.061,0,0,0,.034-.8" transform="translate(-1490.765 -465.289)" fill="#d3d9ed"/>
        <path id="Trazado_14547" data-name="Trazado 14547" d="M1750.468,608.48l-.06-.27a1.056,1.056,0,0,0-.3-.43q-.952-1.017-1.9-2.036a1.027,1.027,0,0,0-.751-.237,1.03,1.03,0,0,0-.937,1.115l.061.268a1.025,1.025,0,0,0,.3.43l1.9,2.037a1.027,1.027,0,0,0,.751.237,1.045,1.045,0,0,0,.7-.364,1.034,1.034,0,0,0,.238-.751" transform="translate(-1492.065 -483.734)" fill="#d3d9ed"/>
        <path id="Trazado_14548" data-name="Trazado 14548" d="M1749.234,610.389a1.049,1.049,0,0,0-.524-.571,1.034,1.034,0,0,0-.8-.034l-.235.125a1.041,1.041,0,0,0-.335.4l-1.017,1.78a1.033,1.033,0,0,0-.034.8,1.056,1.056,0,0,0,.524.572,1.041,1.041,0,0,0,.8.034l.235-.125a1.041,1.041,0,0,0,.337-.4q.508-.89,1.016-1.779a1.036,1.036,0,0,0,.034-.8" transform="translate(-1492.138 -482.639)" fill="#d3d9ed"/>
        <path id="Trazado_14549" data-name="Trazado 14549" d="M1745.57,608.508a.771.771,0,0,0-.154-.37,1.032,1.032,0,0,0-1.436-.246.989.989,0,0,0-.417.654q-.062,1.272-.126,2.544a.774.774,0,0,0,.017.41.751.751,0,0,0,.156.37,1.031,1.031,0,0,0,1.434.246.992.992,0,0,0,.418-.654l.126-2.544a.78.78,0,0,0-.018-.41" transform="translate(-1492.868 -483.162)" fill="#d3d9ed"/>
        <path id="Trazado_14550" data-name="Trazado 14550" d="M1745.368,614.773a.993.993,0,0,0-.363-.7l-2.584-1.719a1.119,1.119,0,0,0-.751-.237,1.052,1.052,0,0,0-.7.364,1.034,1.034,0,0,0-.235.751,1,1,0,0,0,.363.7l2.584,1.719a1.113,1.113,0,0,0,.751.237,1.046,1.046,0,0,0,.7-.364,1.026,1.026,0,0,0,.237-.751" transform="translate(-1493.568 -482.016)" fill="#d3d9ed"/>
        <path id="Trazado_14551" data-name="Trazado 14551" d="M1781.862,575.159c-.093,2.221-.832,4.424-.584,6.633.044.348.106.7.155,1.056a4.936,4.936,0,0,1,.057,1.626,3.093,3.093,0,0,1-2.681,2.476,13.8,13.8,0,0,1-2.307,6.552c-1.162,1.712-2.787,3.35-3.034,5.349q-.467-1.527-.932-3.053a6.679,6.679,0,0,0,2.153-4.237,4.291,4.291,0,0,0-.3-2.253,2.6,2.6,0,0,0-1.676-1.47,2.528,2.528,0,0,0-2.29.707,3.479,3.479,0,0,0-.832,1.371,5.518,5.518,0,0,1-2.824-2.035c-.818-1.029-1.432-2.209-2.245-3.245a10.316,10.316,0,0,0-4.381-3.3,10.841,10.841,0,0,0-5.795-.49,13.68,13.68,0,0,0-4.76,1.886c-.043.025-.087.057-.136.087a8.113,8.113,0,0,1-4.865-4.349c-.1-.223-.185-.509-.025-.7a.7.7,0,0,1,.4-.185c1.358-.286,2.761-.335,4.114-.67,2.449-.609,4.566-2.092,6.788-3.289a16.427,16.427,0,0,1,3.009-1.322,15.857,15.857,0,0,1,8.626.136c.13.031.255.063.385.1a19.272,19.272,0,0,1,3.9,1.5,6.744,6.744,0,0,1-1.551-2.389,5.15,5.15,0,0,1,.03-4.1,4.6,4.6,0,0,1,3.519-2.408,6.032,6.032,0,0,1,4.182,1.135,8.889,8.889,0,0,1,2.767,3.407,11.573,11.573,0,0,1,1.136,5.485" transform="translate(-1492.595 -494.242)" fill="#2a1f7f"/>
        <path id="Trazado_14552" data-name="Trazado 14552" d="M1771.5,592.585q.465,1.525.931,3.053.493,1.62.986,3.239l-14.86,13.687.111-1.725.143-2.239.3-4.772a7.68,7.68,0,0,1-4.531-2.3,15.524,15.524,0,0,1-3.021-4.666,36.676,36.676,0,0,1-3.016-17.225.8.8,0,0,1,.006-.123,13.68,13.68,0,0,1,4.76-1.886,10.841,10.841,0,0,1,5.795.49,10.321,10.321,0,0,1,4.381,3.3c.813,1.036,1.427,2.215,2.245,3.244a5.515,5.515,0,0,0,2.824,2.035,3.479,3.479,0,0,1,.832-1.371,2.528,2.528,0,0,1,2.291-.707,2.6,2.6,0,0,1,1.675,1.47,4.279,4.279,0,0,1,.3,2.252,6.677,6.677,0,0,1-2.153,4.239" transform="translate(-1491.555 -491.03)" fill="#ffc255"/>
        <path id="Trazado_14553" data-name="Trazado 14553" d="M1749.583,581.013c-.042.025-.085.057-.136.087a8.109,8.109,0,0,1-4.865-4.349c-.1-.224-.186-.509-.023-.7a.7.7,0,0,1,.4-.185c1.359-.286,2.761-.335,4.114-.67,2.451-.609,4.566-2.092,6.788-3.289a7.208,7.208,0,0,1,3-.1,7.335,7.335,0,0,1,4.163,2.327,27.293,27.293,0,0,1,2.427,3.784,14.276,14.276,0,0,0,8,6.118,7.887,7.887,0,0,0,5.393-.173,11.184,11.184,0,0,1-.044,1.371,13.8,13.8,0,0,1-2.308,6.552c-1.16,1.712-2.786,3.352-3.034,5.349q-.465-1.525-.932-3.053a6.676,6.676,0,0,0,2.154-4.237,4.279,4.279,0,0,0-.3-2.253,2.6,2.6,0,0,0-1.674-1.47,2.529,2.529,0,0,0-2.291.707,3.477,3.477,0,0,0-.831,1.372,5.528,5.528,0,0,1-2.824-2.036c-.818-1.03-1.432-2.208-2.245-3.245a10.33,10.33,0,0,0-4.381-3.3,10.843,10.843,0,0,0-5.795-.49,13.688,13.688,0,0,0-4.76,1.886" transform="translate(-1492.595 -492.525)" fill="#4b35b5"/>
        <path id="Trazado_14554" data-name="Trazado 14554" d="M1766.639,592.386a9.413,9.413,0,0,1-.961,3.221,20.113,20.113,0,0,1-6.572,7.812,9.284,9.284,0,0,1-2.432,1.3l.3-4.772c.136.018.267.024.4.03a7.976,7.976,0,0,0,5.7-2.525,22.56,22.56,0,0,0,3.568-5.064" transform="translate(-1489.422 -487.145)" fill="#ef9d1b"/>
        <path id="Trazado_14555" data-name="Trazado 14555" d="M1760.933,586.4a2.429,2.429,0,1,1-2.433,2.427,2.431,2.431,0,0,1,2.433-2.427" transform="translate(-1488.947 -488.701)" fill="#ef9d1b"/>
        <path id="Trazado_14556" data-name="Trazado 14556" d="M1755.576,588.531a3.09,3.09,0,0,1,.093,1.167,2.423,2.423,0,0,1-.552,1.135,4.044,4.044,0,0,1-3.214,1.47.964.964,0,0,1-.7-.248.692.692,0,0,1-.112-.615,1.69,1.69,0,0,1,.292-.571c.875-1.252,2.065-2.271,2.911-3.542a2.336,2.336,0,0,0,.452-1.161,11.866,11.866,0,0,1,.831,2.364" transform="translate(-1490.88 -488.762)" fill="#ef9d1b"/>
        <path id="Trazado_14557" data-name="Trazado 14557" d="M1767.028,572.521c.322.166.632.348.936.539a13.465,13.465,0,0,1,5.9,8.656c.011.05.017.1.024.149a6.054,6.054,0,0,1-3.692-.41,8.372,8.372,0,0,1-3.574-3.232c-1-1.582-1.556-3.394-2.4-5.064a10.664,10.664,0,0,0-1.477-2.24c.129.031.254.062.384.1a19.21,19.21,0,0,1,3.9,1.5c-.006.006,0,.006,0,.006" transform="translate(-1487.843 -492.726)" fill="#4b35b5"/>
        <path id="Trazado_14558" data-name="Trazado 14558" d="M1752.241,586.043a1.3,1.3,0,1,1-1.25-1.648,1.49,1.49,0,0,1,1.25,1.648" transform="translate(-1491.224 -489.223)" fill="#2a1f7f"/>
        <path id="Trazado_14559" data-name="Trazado 14559" d="M1758.973,585.2a1.3,1.3,0,1,1-1.251-1.648,1.491,1.491,0,0,1,1.251,1.648" transform="translate(-1489.474 -489.443)" fill="#2a1f7f"/>
        <path id="Trazado_14560" data-name="Trazado 14560" d="M1759.369,581.655a4.51,4.51,0,0,0-2.719-.359,1,1,0,0,0-.631.329.93.93,0,0,0,.114,1.312.9.9,0,0,0,.679.213,2.78,2.78,0,0,1,1.468.072c.1.037.2.072.294.117a.977.977,0,0,0,.723.03.931.931,0,0,0,.072-1.714" transform="translate(-1489.649 -490.048)" fill="#2a1f7f"/>
        <path id="Trazado_14561" data-name="Trazado 14561" d="M1752.247,582.538a.911.911,0,0,0-.591-.377,3.735,3.735,0,0,0-1.5.157,3.809,3.809,0,0,0-.664.308,2.618,2.618,0,0,0-.453.317,1.015,1.015,0,0,0-.377.592.946.946,0,0,0,.156.706.935.935,0,0,0,.591.378.909.909,0,0,0,.706-.156,2.539,2.539,0,0,1,.409-.282,2.743,2.743,0,0,1,.4-.145,2.677,2.677,0,0,1,.55-.039.924.924,0,0,0,.552-.16.932.932,0,0,0,.222-1.3" transform="translate(-1491.507 -489.808)" fill="#2a1f7f"/>
        <path id="Trazado_14562" data-name="Trazado 14562" d="M1766.811,586.813c-.02.005-.035.057,0,0" transform="translate(-1486.792 -488.594)" fill="#ef9d1b"/>
        <path id="Trazado_14563" data-name="Trazado 14563" d="M1767.708,587.136a.624.624,0,0,0-1,.122c-.188.353.374.617.562.265a.192.192,0,0,1-.018.028c.008,0,.013,0,.018.018.008.033.035.07.045.106a1.131,1.131,0,0,1,.007.437.444.444,0,0,1-.446.406c-.612.034-.935-.712-1.067-1.2a2.921,2.921,0,0,1,.14-1.894,1.6,1.6,0,0,1,.533-.737.411.411,0,0,1,.588.074c.213.339.718-.02.508-.358a.972.972,0,0,0-.9-.423,1.366,1.366,0,0,0-.95.587,3.444,3.444,0,0,0-.618,2.314,2.684,2.684,0,0,0,1.04,2.05,1.15,1.15,0,0,0,1.755-.576,1.346,1.346,0,0,0-.2-1.221" transform="translate(-1487.232 -489.331)" fill="#ef9d1b"/>
        <path id="Trazado_14564" data-name="Trazado 14564" d="M1772.395,594.748q-2.871.744-5.778,1.327l-2.262-5.6q2.142-3.687,4.462-7.269c.216-.332-.257-.733-.476-.4q-2.315,3.553-4.44,7.224c-1.688-.585-9.727-3.009-13.944,2.2a12.289,12.289,0,0,0,.3,5.951c1.006,2.523,6.727,3.982,8.524,4.286a5.243,5.243,0,0,0,4.436-1.167l3.207-4.555q3.113-.622,6.188-1.417c.385-.1.167-.681-.217-.581" transform="translate(-1491.231 -489.669)" fill="#fff"/>
        <path id="Trazado_14565" data-name="Trazado 14565" d="M1761.55,589.577a14.878,14.878,0,0,0-10.815,2.084c-.335.215.024.722.359.506a14.221,14.221,0,0,1,10.344-1.98.311.311,0,0,0,.112-.611" transform="translate(-1491 -487.945)" fill="#d3d9ed"/>
        <path id="Trazado_14566" data-name="Trazado 14566" d="M1761.954,591.744a17.732,17.732,0,0,0-10.9,1.755c-.349.181-.137.766.217.582a17.172,17.172,0,0,1,10.568-1.727.31.31,0,0,0,.112-.61" transform="translate(-1490.928 -487.369)" fill="#d3d9ed"/>
        <path id="Trazado_14567" data-name="Trazado 14567" d="M1727.364,591.555a.93.93,0,0,0-1.3-.222.925.925,0,0,0-.377.592,2.549,2.549,0,0,1-.065.292,2.4,2.4,0,0,1-.157.329,2.2,2.2,0,0,1-.25.3c-.028.023-.054.047-.083.068a.93.93,0,0,0-.222,1.3.936.936,0,0,0,.591.377.962.962,0,0,0,.706-.155,3.4,3.4,0,0,0,.928-1.046,2.245,2.245,0,0,0,.2-.432,3.4,3.4,0,0,0,.181-.7.99.99,0,0,0-.156-.706" transform="translate(-1497.723 -487.463)" fill="#8c85e5"/>
        <path id="Trazado_14568" data-name="Trazado 14568" d="M1706.854,596.648q-3.8-7.845-6.818-16.04a.931.931,0,0,0-1.744.649q3.008,8.186,6.816,16.041c.518,1.067,2.269.432,1.745-.65" transform="translate(-1504.616 -490.36)" fill="#3c2744"/>
        <path id="Trazado_14569" data-name="Trazado 14569" d="M1712.412,577.348q-2.3,9.112-5.042,18.1c-.349,1.145,1.486,1.469,1.832.337q2.743-8.987,5.041-18.1c.292-1.164-1.541-1.493-1.832-.336" transform="translate(-1502.252 -491.242)" fill="#3c2744"/>
        <path id="Trazado_14570" data-name="Trazado 14570" d="M1723.523,590.49q-6.218,1.646-12.438,3.291c-1.155.306-.5,2.05.649,1.745l12.439-3.291c1.156-.306.5-2.05-.649-1.745" transform="translate(-1501.432 -487.647)" fill="#3c2744"/>
        <path id="Trazado_14571" data-name="Trazado 14571" d="M1707.935,603.431c-.149-1.185-2-1.028-1.853.163q.878,7.008,1.212,14.067c.056,1.2,1.91,1.033,1.855-.163q-.333-7.055-1.214-14.067" transform="translate(-1502.578 -484.485)" fill="#3c2744"/>
        <path id="Trazado_14572" data-name="Trazado 14572" d="M1707.436,616.536l-13.969.595c-1.2.05-1.033,1.905.161,1.853q6.985-.295,13.968-.593c1.2-.051,1.033-1.905-.161-1.855" transform="translate(-1506.068 -480.867)" fill="#3c2744"/>
        <path id="Trazado_14573" data-name="Trazado 14573" d="M1689.127,604.671a.931.931,0,0,0-1.853.161q.5,5.647,1,11.293a.931.931,0,0,0,1.854-.161q-.5-5.647-1-11.293" transform="translate(-1507.466 -484.164)" fill="#3c2744"/>
        <path id="Trazado_14574" data-name="Trazado 14574" d="M1718.289,619.2a8.558,8.558,0,1,1-8.559-8.558,8.558,8.558,0,0,1,8.559,8.558" transform="translate(-1503.851 -482.399)" fill="#ff4a69"/>
        <path id="Trazado_14575" data-name="Trazado 14575" d="M1719.875,600.093a11.386,11.386,0,1,1-11.387-11.387,11.387,11.387,0,0,1,11.387,11.387" transform="translate(-1504.909 -488.102)" fill="#6958e0"/>
        <path id="Trazado_14576" data-name="Trazado 14576" d="M1706.283,609.643a8.006,8.006,0,0,1-3.691,2.085,1.616,1.616,0,0,1-1.558-.224c-.447-.471-.254-1.228-.03-1.842a8.871,8.871,0,0,1-1.614.125,1.671,1.671,0,0,1-.868-.193,1.267,1.267,0,0,1-.392-1.458,3.751,3.751,0,0,1,.95-1.3l-1.135-.092a2.124,2.124,0,0,1-1.421-.485,1.463,1.463,0,0,1-.323-1.06,2.421,2.421,0,0,1,1.123-1.905c-.732-.175-1.588-.466-1.77-1.2a1.742,1.742,0,0,1,.615-1.52,6.562,6.562,0,0,1,3.674-1.719,11.064,11.064,0,0,1,1.5-.256c.111-.018.229-.03.341-.036a2.439,2.439,0,0,1,1.086.087.986.986,0,0,1,.683.788,1.381,1.381,0,0,1-.689,1.1c.565-.029,1.216-.389,1.631-.005a.914.914,0,0,1,.23.745,3.847,3.847,0,0,1-.937,1.935,3.907,3.907,0,0,1,1.2-.433,1.308,1.308,0,0,1,1.172.391,1.578,1.578,0,0,1,.118,1.483,4,4,0,0,1-.831,1.415,8.266,8.266,0,0,1,1.241-.453,1.378,1.378,0,0,1,1.279.118c.433.378.284,1.079.042,1.607a7.86,7.86,0,0,1-1.627,2.3" transform="translate(-1505.319 -485.545)" fill="#76e5ff"/>
        <path id="Trazado_14577" data-name="Trazado 14577" d="M1702.408,599.784q-2.808,1.331-5.517,2.855c-.348.194.014.7.358.505q2.641-1.482,5.375-2.78c.358-.169.146-.753-.216-.581" transform="translate(-1505.001 -485.23)" fill="#2ecee8"/>
        <path id="Trazado_14578" data-name="Trazado 14578" d="M1703.237,602.044q-2.429,1.856-4.984,3.533c-.334.219.024.726.358.507q2.555-1.675,4.984-3.534c.316-.241-.04-.75-.358-.505" transform="translate(-1504.645 -484.651)" fill="#2ecee8"/>
        <path id="Trazado_14579" data-name="Trazado 14579" d="M1704.176,604.368l-4.262,3.5c-.306.252.049.761.359.506l4.262-3.5c.306-.252-.049-.761-.359-.507" transform="translate(-1504.21 -484.048)" fill="#2ecee8"/>
        <path id="Trazado_14580" data-name="Trazado 14580" d="M1707.394,581.36a7.393,7.393,0,1,1-7.392-7.392,7.393,7.393,0,0,1,7.392,7.392" transform="translate(-1506.078 -491.934)" fill="#ff4a69"/>
        <path id="Trazado_14581" data-name="Trazado 14581" d="M1716.975,577.867a3.352,3.352,0,1,1-3.352-3.352,3.353,3.353,0,0,1,3.352,3.352" transform="translate(-1501.485 -491.792)" fill="#ff4a69"/>
        <path id="Trazado_14582" data-name="Trazado 14582" d="M1698.89,619.06a7.028,7.028,0,1,1-7.028-7.028,7.029,7.029,0,0,1,7.028,7.028" transform="translate(-1508.099 -482.037)" fill="#6958e0"/>
        <path id="Trazado_14583" data-name="Trazado 14583" d="M1730.977,592.832a7.029,7.029,0,1,1-7.028-7.028,7.03,7.03,0,0,1,7.028,7.028" transform="translate(-1499.758 -488.857)" fill="#6958e0"/>
        <path id="Trazado_14584" data-name="Trazado 14584" d="M1691.836,604.322a3.352,3.352,0,1,1-3.352-3.352,3.352,3.352,0,0,1,3.352,3.352" transform="translate(-1508.022 -484.914)" fill="#ff4a69"/>
        <path id="Trazado_14585" data-name="Trazado 14585" d="M1710.114,616.652a8.29,8.29,0,0,1-1.465-2.618,2.26,2.26,0,0,1-.162-.942.9.9,0,0,1,.522-.751,1.238,1.238,0,0,1,.961.161,12.359,12.359,0,0,1,2.172,1.538c1.2,1,2.4,1.992,3.6,2.991-.433-.541-.831-1.112-1.222-1.681a4.585,4.585,0,0,1-.887-1.868,1,1,0,0,1,.216-.888c.385-.359,1.018-.111,1.452.193,1.322.919,2.378,2.2,3.774,3,.993.577,2.122.887,3.1,1.5a11.6,11.6,0,0,1,2.047,1.774c.645.652,1.284,1.3,1.918,1.949l-1.744,7.471c-4.642-.56-9.214-1.534-13.782-2.508a27.992,27.992,0,0,1-3.176-.813,3.415,3.415,0,0,1-1.539-.906.523.523,0,0,1-.142-.272c-.025-.268.291-.423.552-.485a6.736,6.736,0,0,1,2.414-.117v-.025a10.494,10.494,0,0,1-3.146-2.582,2.206,2.206,0,0,1-.435-.713.853.853,0,0,1,.106-.794.9.9,0,0,1,.707-.292,2.718,2.718,0,0,1,.763.168c.943.324,1.88.664,2.8,1.043a8.569,8.569,0,0,1-3.127-4.028,1.841,1.841,0,0,1-.15-.788.721.721,0,0,1,.453-.621,1.058,1.058,0,0,1,.769.188,21.644,21.644,0,0,1,2.644,1.717" transform="translate(-1502.832 -481.969)" fill="#76e5ff"/>
        <path id="Trazado_14586" data-name="Trazado 14586" d="M1712.562,622.136a41.668,41.668,0,0,1-4.157-1.163.319.319,0,0,0-.411.147.311.311,0,0,0,.147.413,43.358,43.358,0,0,0,4.309,1.213c.39.087.5-.523.113-.611" transform="translate(-1502.086 -479.719)" fill="#2ecee8"/>
        <path id="Trazado_14587" data-name="Trazado 14587" d="M1713.054,620.773q-2.187-1.106-4.3-2.354c-.345-.2-.606.359-.266.561q2.112,1.247,4.3,2.354c.359.181.622-.381.266-.561" transform="translate(-1501.99 -480.388)" fill="#2ecee8"/>
        <path id="Trazado_14588" data-name="Trazado 14588" d="M1713.929,619.337a29.214,29.214,0,0,1-4.43-3.464c-.291-.275-.688.2-.4.476a30.049,30.049,0,0,0,4.565,3.548.313.313,0,0,0,.413-.147.318.318,0,0,0-.149-.413" transform="translate(-1501.817 -481.06)" fill="#2ecee8"/>
        <path id="Trazado_14589" data-name="Trazado 14589" d="M1692.834,613.569a5.669,5.669,0,0,0-6.417,4.963.932.932,0,0,0,1.833.338,5.7,5.7,0,0,1,.169-.848v-.009l.014-.035c.031-.077.058-.154.091-.229.053-.126.112-.251.176-.372.033-.062.066-.121.1-.18.015-.025.031-.053.044-.072.078-.116.16-.229.248-.338s.178-.209.272-.309l.1-.1c.009-.005.108-.093.117-.1a4.513,4.513,0,0,1,.666-.451l.139-.069c.066-.029.131-.058.2-.084.134-.054.268-.1.406-.144.069-.021.138-.039.206-.059l.042-.01.052-.008c.143-.024.284-.045.426-.059s.287-.019.431-.019c.025,0,.292.024.094,0,.086.01.172.016.257.026a.931.931,0,1,0,.337-1.831" transform="translate(-1507.689 -481.65)" fill="#8c85e5"/>
        <path id="Trazado_14590" data-name="Trazado 14590" d="M1695.5,616.506a2.346,2.346,0,0,0-.179-.238,4.453,4.453,0,0,0-.357-.381,2.462,2.462,0,0,0-.224-.186,4.518,4.518,0,0,0-.445-.287.961.961,0,0,0-1.24.444l-.074.231a.935.935,0,0,0,.044.493c.036.07.074.142.112.213a.952.952,0,0,0,.3.267,2.473,2.473,0,0,1,.382.319,2.239,2.239,0,0,1,.158.2.706.706,0,0,0,.262.238.962.962,0,0,0,1.035-.018l.175-.161a.928.928,0,0,0,.2-.43q.006-.125.012-.25a.928.928,0,0,0-.168-.457" transform="translate(-1505.986 -481.181)" fill="#8c85e5"/>
        <path id="Trazado_14591" data-name="Trazado 14591" d="M1713.489,592.157a9.185,9.185,0,0,0-14.927,6.168c-.129,1.186,1.7,1.528,1.832.336a7.325,7.325,0,0,1,11.9-5.078c.94.741,2.139-.683,1.2-1.426" transform="translate(-1504.532 -487.734)" fill="#8c85e5"/>
        <path id="Trazado_14592" data-name="Trazado 14592" d="M1713.759,596.951a6.775,6.775,0,0,0-1.246-2.858.981.981,0,0,0-.592-.378.931.931,0,0,0-.927,1.454,4.94,4.94,0,0,1,.924,1.995.97.97,0,0,0,.316.581.928.928,0,0,0,1.312-.115.9.9,0,0,0,.214-.679" transform="translate(-1501.343 -486.803)" fill="#8c85e5"/>
        <path id="Trazado_14593" data-name="Trazado 14593" d="M1726.64,595.671a.94.94,0,0,0-1.2-.547,4.313,4.313,0,0,1-3.969-.307,4.249,4.249,0,0,1-1.292-1.343,4.292,4.292,0,0,1-.6-1.734.932.932,0,0,0-1.856.162,6.061,6.061,0,0,0,8.363,4.966.951.951,0,0,0,.548-1.2" transform="translate(-1499.548 -487.534)" fill="#8c85e5"/>
        <path id="Trazado_14594" data-name="Trazado 14594" d="M1699.506,575.492a.955.955,0,0,0-1.2-.548c-2.275.552-3.926,2.914-4.465,5.079a5.889,5.889,0,0,0,1.963,6.032c.946.732,2.147-.692,1.2-1.425a4.06,4.06,0,0,1-1.328-4.271,5,5,0,0,1,3.282-3.669.937.937,0,0,0,.548-1.2" transform="translate(-1505.803 -491.69)" fill="#ff809b"/>
        <path id="Trazado_14595" data-name="Trazado 14595" d="M1699.042,584a.7.7,0,0,0-.218-.282l-.2-.128a.937.937,0,0,0-.48-.086l-.242.055a.922.922,0,0,0-.388.273l-.087.087a.687.687,0,0,0-.166.315.716.716,0,0,0-.048.364.7.7,0,0,0,.111.35.693.693,0,0,0,.218.281l.2.13a.948.948,0,0,0,.479.086l.243-.055a.931.931,0,0,0,.389-.275l.086-.086a1.021,1.021,0,0,0,.214-.679.693.693,0,0,0-.111-.35" transform="translate(-1504.883 -489.456)" fill="#ff809b"/>
        <path id="Trazado_14596" data-name="Trazado 14596" d="M1713.658,575.643a.952.952,0,0,0-.592-.378,1.05,1.05,0,0,0-.706.156,2.818,2.818,0,0,0-.714,4.181,1,1,0,0,0,.592.378.931.931,0,0,0,.927-1.454,1.148,1.148,0,0,1-.256-.491,1.965,1.965,0,0,1-.022-.257,1.81,1.81,0,0,1,.041-.233,1.922,1.922,0,0,1,.115-.242,1.88,1.88,0,0,1,.155-.185,1.98,1.98,0,0,1,.238-.176.947.947,0,0,0,.378-.592.964.964,0,0,0-.156-.706" transform="translate(-1501.293 -491.599)" fill="#ff809b"/>
        <path id="Trazado_14597" data-name="Trazado 14597" d="M1706.954,612.811a.956.956,0,0,0-1.3-.222,6.955,6.955,0,0,0-3.353,5.289.931.931,0,1,0,1.832.335,6.36,6.36,0,0,1,.1-.7c.024-.115.051-.229.082-.342.013-.045.025-.091.038-.136l.006-.022.006-.018a6.932,6.932,0,0,1,.589-1.226l.012-.016c.027-.038.053-.077.08-.116.068-.095.14-.188.214-.28a6.063,6.063,0,0,1,.472-.523l.091-.083.047-.04c.088-.076.18-.149.273-.219a5.96,5.96,0,0,1,.589-.388.935.935,0,0,0,.222-1.3" transform="translate(-1503.559 -481.934)" fill="#ff809b"/>
      </g>
    </g>
    <rect id="Rectángulo_3232" data-name="Rectángulo 3232" width="343" height="343" transform="translate(1544.567 508.861)" fill="none"/>
  </g>
</svg>
