<svg xmlns="http://www.w3.org/2000/svg" width="102" height="102" viewBox="0 0 102 102">
  <g id="Grupo_15001" data-name="Grupo 15001" transform="translate(-738 -10322)">
    <g id="Elipse_782" data-name="Elipse 782" transform="translate(738 10322)" fill="#f8f8f8" stroke="#7dd3e9" stroke-width="5">
      <circle cx="51" cy="51" r="51" stroke="none"/>
      <circle cx="51" cy="51" r="48.5" fill="none"/>
    </g>
    <g id="Grupo_14713" data-name="Grupo 14713" transform="translate(-103.416 10027.065)">
      <circle id="Elipse_786" data-name="Elipse 786" cx="12.17" cy="12.17" r="12.17" transform="translate(863.416 317.138)" fill="#ff496a" opacity="0.5"/>
      <circle id="Elipse_787" data-name="Elipse 787" cx="6.842" cy="6.842" r="6.842" transform="translate(868.743 322.142)" fill="#ff496a"/>
      <circle id="Elipse_788" data-name="Elipse 788" cx="12.17" cy="12.17" r="12.17" transform="translate(903.955 347.091)" fill="#ff496a" opacity="0.5"/>
      <circle id="Elipse_789" data-name="Elipse 789" cx="6.842" cy="6.842" r="6.842" transform="translate(909.283 352.095)" fill="#ff496a"/>
      <g id="Grupo_14712" data-name="Grupo 14712" transform="translate(866.837 351.788)">
        <circle id="Elipse_790" data-name="Elipse 790" cx="8.749" cy="8.749" r="8.749" transform="translate(0 0)" fill="#ff496a" opacity="0.5"/>
        <circle id="Elipse_791" data-name="Elipse 791" cx="4.919" cy="4.919" r="4.919" transform="translate(3.83 3.597)" fill="#ff496a"/>
      </g>
      <circle id="Elipse_792" data-name="Elipse 792" cx="3.485" cy="3.485" r="3.485" transform="translate(889.298 361.738)" fill="#ff496a" opacity="0.5"/>
      <circle id="Elipse_793" data-name="Elipse 793" cx="1.96" cy="1.96" r="1.96" transform="translate(890.824 363.171)" fill="#ff496a"/>
      <circle id="Elipse_794" data-name="Elipse 794" cx="3.485" cy="3.485" r="3.485" transform="translate(894.252 327.272)" fill="#ff496a" opacity="0.5"/>
      <circle id="Elipse_795" data-name="Elipse 795" cx="1.96" cy="1.96" r="1.96" transform="translate(895.778 328.705)" fill="#ff496a"/>
      <circle id="Elipse_796" data-name="Elipse 796" cx="6.389" cy="6.389" r="6.389" transform="translate(887.755 340.912)" fill="#ff496a" opacity="0.5"/>
      <circle id="Elipse_797" data-name="Elipse 797" cx="3.592" cy="3.592" r="3.592" transform="translate(890.552 343.539)" fill="#ff496a"/>
    </g>
  </g>
</svg>
