<?xml version="1.0" encoding="utf-8"?>
<!-- Generator: Adobe Illustrator 25.2.0, SVG Export Plug-In . SVG Version: 6.00 Build 0)  -->
<svg version="1.1" id="Capa_1" xmlns="http://www.w3.org/2000/svg" xmlns:xlink="http://www.w3.org/1999/xlink" x="0px" y="0px"
	 viewBox="0 0 56 15.5" style="enable-background:new 0 0 56 15.5;" xml:space="preserve">
<style type="text/css">
	.st0{fill:#F2F2F2;}
	.st1{fill:#FF4A69;}
</style>
<g id="Grupo_14672" transform="translate(-2311.681 -1360.245)">
	<circle id="Elipse_754" class="st0" cx="2319.4" cy="1368" r="7.8"/>
	<path id="Trazado_15644" class="st1" d="M2319.4,1364.5c-2,0-3.5,1.6-3.5,3.5s1.6,3.5,3.5,3.5s3.5-1.6,3.5-3.5c0,0,0,0,0,0
		C2323,1366.1,2321.4,1364.5,2319.4,1364.5z"/>
	<rect id="Rectángulo_3303" x="2324.2" y="1366.9" class="st0" width="36.1" height="2.7"/>
	<path id="Trazado_15645" class="st1" d="M2359.1,1364.4c-2,2-2,5.1,0,7.1s5.1,2,7.1,0c2-2,2-5.1,0-7.1l0,0
		C2364.2,1362.5,2361,1362.5,2359.1,1364.4z"/>
</g>
</svg>
