<svg xmlns="http://www.w3.org/2000/svg" width="294" height="385.235" viewBox="0 0 294 385.235">
  <g id="Grupo_11762" data-name="Grupo 11762" transform="translate(-766.48 -601.14)">
    <path id="Trazado_11135" data-name="Trazado 11135" d="M818.9,642.34l211.053-31.114-9.033,345.855L831.693,938.6Z" transform="translate(1.667 0.321)" fill="#ff4a69"/>
    <g id="Grupo_11623" data-name="Grupo 11623" transform="translate(806.433 663.639)">
      <g id="Grupo_11611" data-name="Grupo 11611" transform="translate(0 226.514)">
        <g id="Grupo_11601" data-name="Grupo 11601" transform="translate(10.67 10.422)">
          <path id="Trazado_11136" data-name="Trazado 11136" d="M815.543,891.346l35.567,10.683-25.972,28.234Zm32.9,11.413-30.862-9.27,8.325,33.771Z" transform="translate(-815.543 -891.346)" fill="#ebf6f8"/>
        </g>
        <g id="Grupo_11604" data-name="Grupo 11604" transform="translate(11.169 38.386)">
          <g id="Grupo_11602" data-name="Grupo 11602">
            <path id="Trazado_11137" data-name="Trazado 11137" d="M816.6,924.648a9.434,9.434,0,1,1,5.626,12.1A9.435,9.435,0,0,1,816.6,924.648Z" transform="translate(-816.027 -918.448)" fill="#ebf6f8"/>
          </g>
          <g id="Grupo_11603" data-name="Grupo 11603" transform="translate(2.678 7.362)">
            <path id="Trazado_11138" data-name="Trazado 11138" d="M818.84,927.923a3.561,3.561,0,1,1,2.123,4.566A3.56,3.56,0,0,1,818.84,927.923Z" transform="translate(-818.623 -925.583)" fill="#fff"/>
          </g>
        </g>
        <g id="Grupo_11607" data-name="Grupo 11607" transform="translate(37.256 13.821)">
          <g id="Grupo_11605" data-name="Grupo 11605">
            <path id="Trazado_11139" data-name="Trazado 11139" d="M841.775,899.667a7.647,7.647,0,1,1,4.561,9.805A7.646,7.646,0,0,1,841.775,899.667Z" transform="translate(-841.31 -894.64)" fill="#ebf6f8"/>
          </g>
          <g id="Grupo_11606" data-name="Grupo 11606" transform="translate(2.171 5.967)">
            <path id="Trazado_11140" data-name="Trazado 11140" d="M843.589,902.32a2.886,2.886,0,1,1,1.721,3.7A2.886,2.886,0,0,1,843.589,902.32Z" transform="translate(-843.414 -900.424)" fill="#fff"/>
          </g>
        </g>
        <g id="Grupo_11610" data-name="Grupo 11610">
          <g id="Grupo_11608" data-name="Grupo 11608">
            <circle id="Elipse_643" data-name="Elipse 643" cx="11.036" cy="11.036" r="11.036" transform="matrix(0.998, -0.056, 0.056, 0.998, 0, 1.237)" fill="#ebf6f8"/>
          </g>
          <g id="Grupo_11609" data-name="Grupo 11609" transform="translate(3.731 9.21)">
            <path id="Trazado_11141" data-name="Trazado 11141" d="M809.072,892.909a4.165,4.165,0,1,1,2.484,5.342A4.165,4.165,0,0,1,809.072,892.909Z" transform="translate(-808.818 -890.172)" fill="#fff"/>
          </g>
        </g>
      </g>
      <g id="Grupo_11622" data-name="Grupo 11622" transform="translate(194.862)">
        <g id="Grupo_11612" data-name="Grupo 11612" transform="translate(11.121 6.269)">
          <path id="Trazado_11142" data-name="Trazado 11142" d="M1004.836,700.524l17.535-32.736,22.514,31.064Zm17.722-29.979-15.216,28.407,34.752-1.451Z" transform="translate(-1004.836 -667.788)" fill="#ebf6f8"/>
        </g>
        <g id="Grupo_11615" data-name="Grupo 11615" transform="translate(40.314 27.261)">
          <g id="Grupo_11613" data-name="Grupo 11613">
            <path id="Trazado_11143" data-name="Trazado 11143" d="M1037.634,705.611a9.434,9.434,0,1,1,12.974-3.11A9.433,9.433,0,0,1,1037.634,705.611Z" transform="translate(-1033.13 -688.134)" fill="#ebf6f8"/>
          </g>
          <g id="Grupo_11614" data-name="Grupo 11614" transform="translate(6.696 9.303)">
            <path id="Trazado_11144" data-name="Trazado 11144" d="M1041.319,703.746a3.561,3.561,0,1,1,4.9-1.174A3.562,3.562,0,0,1,1041.319,703.746Z" transform="translate(-1039.62 -697.15)" fill="#fff"/>
          </g>
        </g>
        <g id="Grupo_11618" data-name="Grupo 11618" transform="translate(21.103)">
          <g id="Grupo_11616" data-name="Grupo 11616">
            <path id="Trazado_11145" data-name="Trazado 11145" d="M1018.16,675.879a7.646,7.646,0,1,1,10.515-2.522A7.648,7.648,0,0,1,1018.16,675.879Z" transform="translate(-1014.51 -661.712)" fill="#ebf6f8"/>
          </g>
          <g id="Grupo_11617" data-name="Grupo 11617" transform="translate(5.427 7.54)">
            <path id="Trazado_11146" data-name="Trazado 11146" d="M1021.147,674.367a2.886,2.886,0,1,1,3.969-.951A2.887,2.887,0,0,1,1021.147,674.367Z" transform="translate(-1019.77 -669.02)" fill="#fff"/>
          </g>
        </g>
        <g id="Grupo_11621" data-name="Grupo 11621" transform="translate(0 25.793)">
          <g id="Grupo_11619" data-name="Grupo 11619">
            <circle id="Elipse_644" data-name="Elipse 644" cx="11.036" cy="11.036" r="11.036" transform="translate(0 21.844) rotate(-81.754)" fill="#ebf6f8"/>
          </g>
          <g id="Grupo_11620" data-name="Grupo 11620" transform="translate(9.3 12.35)">
            <path id="Trazado_11147" data-name="Trazado 11147" d="M1005.06,706.4a4.165,4.165,0,1,1,5.729-1.373A4.165,4.165,0,0,1,1005.06,706.4Z" transform="translate(-1003.072 -698.68)" fill="#fff"/>
          </g>
        </g>
      </g>
    </g>
    <g id="Grupo_11682" data-name="Grupo 11682" transform="translate(766.48 601.14)">
      <g id="Grupo_11649" data-name="Grupo 11649" transform="translate(35.617 37.731)">
        <path id="Trazado_11148" data-name="Trazado 11148" d="M839.932,686.686s3.129-2.243,4.824-.928-.437,3.687-3.958,6.854-7.532,7.286-7.532,7.286l-8.07-.277Z" transform="translate(-800.231 -636.194)" fill="#dda885"/>
        <g id="Grupo_11639" data-name="Grupo 11639" transform="translate(25.329)">
          <line id="Línea_165" data-name="Línea 165" y1="18.355" x2="6.28" transform="translate(29.853)" fill="none" stroke="#bac3fd" stroke-linecap="round" stroke-linejoin="round" stroke-width="0.181"/>
          <g id="Grupo_11624" data-name="Grupo 11624" transform="translate(0 68.091)">
            <path id="Trazado_11149" data-name="Trazado 11149" d="M838.16,723.926l-12.278-4.2a.492.492,0,0,1-.306-.624h0a.493.493,0,0,1,.625-.306l12.278,4.2a.491.491,0,0,1,.305.624h0A.492.492,0,0,1,838.16,723.926Z" transform="translate(-825.548 -703.222)" fill="#eff2fb"/>
            <path id="Trazado_11150" data-name="Trazado 11150" d="M834.088,703.7l-2.343,6.847.021,2.564.009,0-2.483,7.257,5.855,2,2.483-7.257.009,0,1.587-2.013,2.343-6.848Z" transform="translate(-825.429 -703.701)" fill="#e2e6fb" stroke="#eff2fb" stroke-miterlimit="10" stroke-width="0.201"/>
            <rect id="Rectángulo_2948" data-name="Rectángulo 2948" width="17.326" height="2.807" transform="translate(6.032 17.413) rotate(-71.112)" fill="#eff2fb" stroke="#fcfcfc" stroke-miterlimit="10" stroke-width="0.201"/>
            <rect id="Rectángulo_2949" data-name="Rectángulo 2949" width="6.188" height="0.319" transform="matrix(0.946, 0.324, -0.324, 0.946, 3.966, 16.368)" fill="#b7bedc"/>
          </g>
          <rect id="Rectángulo_2950" data-name="Rectángulo 2950" width="10.828" height="45.673" transform="translate(22.321 23.646) rotate(18.887)" fill="#d3dafb"/>
          <path id="Trazado_11151" data-name="Trazado 11151" d="M845.448,707.851l-15.385-5.264a.492.492,0,0,1-.306-.624h0a.492.492,0,0,1,.624-.306l15.385,5.264a.492.492,0,0,1,.306.624h0A.492.492,0,0,1,845.448,707.851Z" transform="translate(-825.415 -635.676)" fill="#eff2fb"/>
          <rect id="Rectángulo_2951" data-name="Rectángulo 2951" width="7.906" height="0.464" transform="translate(8.6 68.263) rotate(18.888)" fill="#b7bedc"/>
          <path id="Trazado_11152" data-name="Trazado 11152" d="M850.6,680.191l-7.48-2.559-2.606,7.618a1.1,1.1,0,0,0-.005.7l.412,1.26-1.1.743a1.106,1.106,0,0,0-.426.557l-4.83,14.116,7.481,2.559,4.83-14.116a1.1,1.1,0,0,0,0-.7l-.412-1.259,1.1-.743a1.1,1.1,0,0,0,.426-.558Z" transform="translate(-825.261 -636.439)" fill="#e2e6fb" stroke="#eff2fb" stroke-miterlimit="10" stroke-width="0.201"/>
          <rect id="Rectángulo_2952" data-name="Rectángulo 2952" width="10.828" height="1.209" transform="translate(22.321 23.646) rotate(18.887)" fill="#b7bedc"/>
          <path id="Trazado_11153" data-name="Trazado 11153" d="M857.423,664.129l-10.245-3.505,4.014.1,3,1.026Z" transform="translate(-824.861 -636.98)" fill="#d3dafb"/>
          <rect id="Rectángulo_2953" data-name="Rectángulo 2953" width="2.807" height="26.418" transform="matrix(0.946, 0.324, -0.324, 0.946, 20.843, 42.213)" fill="#eff2fb" stroke="#fcfcfc" stroke-miterlimit="10" stroke-width="0.201"/>
          <rect id="Rectángulo_2954" data-name="Rectángulo 2954" width="10.828" height="1.209" transform="translate(7.928 65.715) rotate(18.887)" fill="#b7bedc"/>
          <g id="Grupo_11629" data-name="Grupo 11629" transform="translate(16.705 38.48)">
            <g id="Grupo_11625" data-name="Grupo 11625" transform="translate(0 1.779)">
              <path id="Trazado_11154" data-name="Trazado 11154" d="M851.323,680.545l-9.376-3.208a.309.309,0,0,1-.192-.392l0-.008a.31.31,0,0,1,.393-.193l9.375,3.208a.309.309,0,0,1,.193.392l0,.008A.309.309,0,0,1,851.323,680.545Z" transform="translate(-841.739 -676.726)" fill="#383748"/>
              <path id="Trazado_11155" data-name="Trazado 11155" d="M841.756,677.073a.308.308,0,0,1,.389-.2l9.384,3.211a.3.3,0,0,1,.192.226.305.305,0,0,0-.192-.359l-9.383-3.21a.309.309,0,0,0-.39.2.315.315,0,0,0-.005.169C841.754,677.1,841.752,677.084,841.756,677.073Z" transform="translate(-841.738 -676.726)" fill="#555571"/>
            </g>
            <g id="Grupo_11626" data-name="Grupo 11626" transform="translate(0.203 1.186)">
              <path id="Trazado_11156" data-name="Trazado 11156" d="M851.519,679.97l-9.375-3.208a.309.309,0,0,1-.193-.392l0-.008a.308.308,0,0,1,.392-.192l9.376,3.207a.31.31,0,0,1,.192.393l0,.008A.308.308,0,0,1,851.519,679.97Z" transform="translate(-841.935 -676.151)" fill="#383748"/>
              <path id="Trazado_11157" data-name="Trazado 11157" d="M841.953,676.5a.308.308,0,0,1,.389-.2l9.384,3.21a.3.3,0,0,1,.192.226.3.3,0,0,0-.192-.358l-9.384-3.211a.308.308,0,0,0-.389.2.3.3,0,0,0-.005.168A.154.154,0,0,1,841.953,676.5Z" transform="translate(-841.935 -676.151)" fill="#555571"/>
            </g>
            <g id="Grupo_11627" data-name="Grupo 11627" transform="translate(0.406 0.593)">
              <path id="Trazado_11158" data-name="Trazado 11158" d="M851.716,679.395l-9.376-3.207a.31.31,0,0,1-.192-.393l0-.008a.308.308,0,0,1,.392-.192l9.375,3.208a.309.309,0,0,1,.193.392l0,.008A.308.308,0,0,1,851.716,679.395Z" transform="translate(-842.132 -675.577)" fill="#383748"/>
              <path id="Trazado_11159" data-name="Trazado 11159" d="M842.149,675.924a.309.309,0,0,1,.39-.2l9.383,3.21a.3.3,0,0,1,.192.227.305.305,0,0,0-.192-.359l-9.383-3.21a.31.31,0,0,0-.39.2.316.316,0,0,0-.005.169C842.147,675.947,842.145,675.935,842.149,675.924Z" transform="translate(-842.131 -675.577)" fill="#555571"/>
            </g>
            <g id="Grupo_11628" data-name="Grupo 11628" transform="translate(0.608)">
              <path id="Trazado_11160" data-name="Trazado 11160" d="M851.912,678.821l-9.375-3.208a.309.309,0,0,1-.193-.392l0-.008a.309.309,0,0,1,.392-.193l9.376,3.208a.308.308,0,0,1,.192.392l0,.008A.31.31,0,0,1,851.912,678.821Z" transform="translate(-842.328 -675.002)" fill="#383748"/>
              <path id="Trazado_11161" data-name="Trazado 11161" d="M842.346,675.349a.308.308,0,0,1,.389-.2l9.384,3.211a.3.3,0,0,1,.192.226.3.3,0,0,0-.192-.358l-9.384-3.211a.308.308,0,0,0-.389.2.312.312,0,0,0-.005.168A.216.216,0,0,1,842.346,675.349Z" transform="translate(-842.328 -675.002)" fill="#555571"/>
            </g>
          </g>
          <rect id="Rectángulo_2955" data-name="Rectángulo 2955" width="9.399" height="13.879" transform="translate(22.606 25.021) rotate(18.887)" fill="#8693ea"/>
          <g id="Grupo_11630" data-name="Grupo 11630" transform="translate(22.724 27.314)">
            <path id="Trazado_11162" data-name="Trazado 11162" d="M850.824,674.923a.477.477,0,1,1-.3-.6A.476.476,0,0,1,850.824,674.923Z" transform="translate(-847.498 -663.859)" fill="#bac3fd"/>
            <path id="Trazado_11163" data-name="Trazado 11163" d="M854.095,667.274a.476.476,0,1,1-.3-.6A.476.476,0,0,1,854.095,667.274Z" transform="translate(-847.394 -664.102)" fill="#bac3fd"/>
            <path id="Trazado_11164" data-name="Trazado 11164" d="M850.358,670.808a1.015,1.015,0,1,1-.631-1.289A1.015,1.015,0,0,1,850.358,670.808Z" transform="translate(-847.546 -664.013)" fill="#bac3fd"/>
            <path id="Trazado_11165" data-name="Trazado 11165" d="M849.547,665.524a1.015,1.015,0,1,1-.631-1.289A1.016,1.016,0,0,1,849.547,665.524Z" transform="translate(-847.572 -664.181)" fill="#bac3fd"/>
          </g>
          <g id="Grupo_11638" data-name="Grupo 11638" transform="translate(10.047 26.31)">
            <g id="Grupo_11631" data-name="Grupo 11631" transform="translate(11.37)">
              <line id="Línea_166" data-name="Línea 166" x2="2.671" y2="0.914" transform="translate(0.851)" fill="none" stroke="#383748" stroke-linecap="round" stroke-linejoin="round" stroke-width="0.189"/>
              <line id="Línea_167" data-name="Línea 167" x2="4.55" y2="1.557" transform="translate(0 2.489)" fill="none" stroke="#383748" stroke-linecap="round" stroke-linejoin="round" stroke-width="0.189"/>
            </g>
            <g id="Grupo_11632" data-name="Grupo 11632" transform="translate(9.475 5.539)">
              <line id="Línea_168" data-name="Línea 168" x2="2.671" y2="0.914" transform="translate(0.851)" fill="none" stroke="#383748" stroke-linecap="round" stroke-linejoin="round" stroke-width="0.189"/>
              <line id="Línea_169" data-name="Línea 169" x2="4.55" y2="1.557" transform="translate(0 2.489)" fill="none" stroke="#383748" stroke-linecap="round" stroke-linejoin="round" stroke-width="0.189"/>
            </g>
            <g id="Grupo_11633" data-name="Grupo 11633" transform="translate(7.58 11.077)">
              <line id="Línea_170" data-name="Línea 170" x2="2.67" y2="0.914" transform="translate(0.852)" fill="none" stroke="#383748" stroke-linecap="round" stroke-linejoin="round" stroke-width="0.189"/>
              <line id="Línea_171" data-name="Línea 171" x2="4.55" y2="1.557" transform="translate(0 2.489)" fill="none" stroke="#383748" stroke-linecap="round" stroke-linejoin="round" stroke-width="0.189"/>
            </g>
            <g id="Grupo_11634" data-name="Grupo 11634" transform="translate(5.685 16.616)">
              <line id="Línea_172" data-name="Línea 172" x2="2.67" y2="0.914" transform="translate(0.852)" fill="none" stroke="#383748" stroke-linecap="round" stroke-linejoin="round" stroke-width="0.189"/>
              <line id="Línea_173" data-name="Línea 173" x2="4.55" y2="1.557" transform="translate(0 2.489)" fill="none" stroke="#383748" stroke-linecap="round" stroke-linejoin="round" stroke-width="0.189"/>
            </g>
            <g id="Grupo_11635" data-name="Grupo 11635" transform="translate(3.79 22.154)">
              <line id="Línea_174" data-name="Línea 174" x2="2.67" y2="0.914" transform="translate(0.852)" fill="none" stroke="#383748" stroke-linecap="round" stroke-linejoin="round" stroke-width="0.189"/>
              <line id="Línea_175" data-name="Línea 175" x2="4.55" y2="1.557" transform="translate(0 2.489)" fill="none" stroke="#383748" stroke-linecap="round" stroke-linejoin="round" stroke-width="0.189"/>
            </g>
            <g id="Grupo_11636" data-name="Grupo 11636" transform="translate(1.895 27.693)">
              <line id="Línea_176" data-name="Línea 176" x2="2.67" y2="0.914" transform="translate(0.852)" fill="none" stroke="#383748" stroke-linecap="round" stroke-linejoin="round" stroke-width="0.189"/>
              <line id="Línea_177" data-name="Línea 177" x2="4.55" y2="1.557" transform="translate(0 2.489)" fill="none" stroke="#383748" stroke-linecap="round" stroke-linejoin="round" stroke-width="0.189"/>
            </g>
            <g id="Grupo_11637" data-name="Grupo 11637" transform="translate(0 33.232)">
              <line id="Línea_178" data-name="Línea 178" x2="2.67" y2="0.914" transform="translate(0.852)" fill="none" stroke="#383748" stroke-linecap="round" stroke-linejoin="round" stroke-width="0.189"/>
              <line id="Línea_179" data-name="Línea 179" x2="4.55" y2="1.557" transform="translate(0 2.489)" fill="none" stroke="#383748" stroke-linecap="round" stroke-linejoin="round" stroke-width="0.189"/>
            </g>
          </g>
          <rect id="Rectángulo_2956" data-name="Rectángulo 2956" width="2.362" height="42.252" transform="translate(27.248 26.61) rotate(18.887)" fill="#fff" opacity="0.32" style="mix-blend-mode: screen;isolation: isolate"/>
          <rect id="Rectángulo_2957" data-name="Rectángulo 2957" width="3.196" height="0.652" transform="translate(26.534 23.12) rotate(18.887)" fill="#eff2fb"/>
          <path id="Trazado_11166" data-name="Trazado 11166" d="M854.288,661.3l-3.023-1.035,2.387-4.512a.643.643,0,0,1,.776-.306l.314.107a.641.641,0,0,1,.424.717Z" transform="translate(-824.731 -637.145)" fill="#8693ea"/>
          <line id="Línea_180" data-name="Línea 180" x1="2.072" y2="4.158" transform="translate(27.072 18.814)" fill="none" stroke="#bac3fd" stroke-linecap="round" stroke-linejoin="round" stroke-width="0.181"/>
        </g>
        <g id="Grupo_11648" data-name="Grupo 11648" transform="translate(0 45.251)">
          <path id="Trazado_11167" data-name="Trazado 11167" d="M845.088,704.516c-.774-3-17.168-6.152-17.168-6.152l9.97-7.579c3.079-2.341,4.334-7.691,2.686-9.1s-15.115,9.639-18.857,12.02-12.745,11.539-14.68,14.167S801,736.758,801,736.758c2.375,2.821,12.529,6.438,12.529,6.438s3.719-3.173,5.968-5.217,8.618-12.117,11.736-15.7,5.5-8.518,7.626-10.632.67-3.946.67-3.946S845.863,707.514,845.088,704.516Zm-19.953,10.425c-1.807-.247-.5-5.457-.5-5.457l5.348.728S826.94,715.187,825.135,714.942Z" transform="translate(-801 -681.564)" fill="#f0bf9c"/>
          <g id="Grupo_11647" data-name="Grupo 11647" transform="translate(17.87 16.294)">
            <g id="Grupo_11646" data-name="Grupo 11646">
              <g id="Grupo_11640" data-name="Grupo 11640" transform="translate(1.754 11.627)">
                <path id="Trazado_11168" data-name="Trazado 11168" d="M824.033,708.624a5.152,5.152,0,0,1-1.654,1.928,5.008,5.008,0,0,1-2.36.943c.361-.234.725-.423,1.067-.651a10.915,10.915,0,0,0,1.009-.686C822.772,709.7,823.372,709.162,824.033,708.624Z" transform="translate(-820.019 -708.624)" fill="#dda885"/>
              </g>
              <g id="Grupo_11641" data-name="Grupo 11641" transform="translate(0 14.965)">
                <path id="Trazado_11169" data-name="Trazado 11169" d="M823.632,711.86a27.26,27.26,0,0,1-.606,3.383,33.328,33.328,0,0,1-.988,3.3,20.019,20.019,0,0,1-1.457,3.134,7.644,7.644,0,0,1-2.262,2.589,9.772,9.772,0,0,0,1.935-2.769,24.675,24.675,0,0,0,1.328-3.12C822.387,716.252,822.988,714.057,823.632,711.86Z" transform="translate(-818.319 -711.86)" fill="#dda885"/>
              </g>
              <g id="Grupo_11642" data-name="Grupo 11642" transform="translate(11.116 12.355)">
                <path id="Trazado_11170" data-name="Trazado 11170" d="M837.966,710.764a41.668,41.668,0,0,1-8.874-1.434,38.892,38.892,0,0,1,4.473.477A39.477,39.477,0,0,1,837.966,710.764Z" transform="translate(-829.092 -709.33)" fill="#dda885"/>
              </g>
              <g id="Grupo_11643" data-name="Grupo 11643" transform="translate(0.527 5.197)">
                <path id="Trazado_11171" data-name="Trazado 11171" d="M838.961,707.039c-3.384-1.006-6.714-2.164-10.082-3.181a15.291,15.291,0,0,0-5.074-1.056,12.168,12.168,0,0,0-4.975,1.494,10.679,10.679,0,0,1,4.951-1.868,7.358,7.358,0,0,1,2.683.254q1.292.325,2.559.711C832.388,704.471,835.712,705.655,838.961,707.039Z" transform="translate(-818.83 -702.393)" fill="#dda885"/>
              </g>
              <g id="Grupo_11644" data-name="Grupo 11644" transform="translate(1.99)">
                <path id="Trazado_11172" data-name="Trazado 11172" d="M827.308,697.863c-1.219.091-2.423,0-3.617-.016a5.345,5.345,0,0,0-.863,0,8.617,8.617,0,0,0-.85.183c-.573.152-1.143.344-1.729.514a8.005,8.005,0,0,1,1.612-.869,4.183,4.183,0,0,1,1.845-.314A18.53,18.53,0,0,1,827.308,697.863Z" transform="translate(-820.248 -697.356)" fill="#dda885"/>
              </g>
              <g id="Grupo_11645" data-name="Grupo 11645" transform="translate(6.799 17.024)">
                <path id="Trazado_11173" data-name="Trazado 11173" d="M824.908,713.855a10.219,10.219,0,0,1,1.611,2.282,11.068,11.068,0,0,1,.551,1.292,4.11,4.11,0,0,1,.251,1.389c-.181-.433-.387-.838-.6-1.244s-.408-.815-.637-1.211C825.69,715.537,825.236,714.74,824.908,713.855Z" transform="translate(-824.908 -713.855)" fill="#dda885"/>
              </g>
            </g>
          </g>
        </g>
      </g>
      <path id="Trazado_11174" data-name="Trazado 11174" d="M1017.412,892.473c-10.873,42.081-24.334,89.787-24.334,89.787H845.187V835.983S815.677,887.7,793.86,886.491s-30.708-36.773-26.269-71.922,30.316-84.041,30.316-84.041l21.817,11.7-2.422,51.98s34.744-40.846,43.635-43.991c7.834-2.766,37.273-4.8,47.505-9.057l22.411,25.723L968.733,735.5c8.665,5.686,24.192,11.147,36.62,16.037-21.259,23.847-28.845,92.932-28.845,92.932S902.567,778.2,899.576,778.2s-20.049,19.4-20.049,19.4S948.22,910.338,975.3,914.778,1017.412,892.473,1017.412,892.473Z" transform="translate(-766.48 -597.026)" fill="#fff"/>
      <path id="Trazado_11175" data-name="Trazado 11175" d="M926.479,767.746l-22.411-25.723a8.178,8.178,0,0,0,3-1.852c4.855-5.567,3.643-28.761,3.643-28.761l44.859-7.917s-4.049,17.009,3.229,27.895a19.408,19.408,0,0,0,5.555,4.973Z" transform="translate(-762.105 -597.885)" fill="#f0bf9c"/>
      <path id="Trazado_11176" data-name="Trazado 11176" d="M816.106,792.52s-.4,21.969-12.123,63.994c0,0,20.522-45.74,19.757-72.775Z" transform="translate(-765.288 -595.334)" fill="#eff2fb" opacity="0.68"/>
      <path id="Trazado_11177" data-name="Trazado 11177" d="M843.07,834.256l5.657-49.472L832.87,850.15Z" transform="translate(-764.369 -595.3)" fill="#eff2fb" opacity="0.68"/>
      <path id="Trazado_11178" data-name="Trazado 11178" d="M955.407,703.49s-8.064,36.068-46.26,31.571l1.405-23.654Z" transform="translate(-761.944 -597.885)" fill="#422c4f"/>
      <path id="Trazado_11179" data-name="Trazado 11179" d="M962.571,692.286a56.8,56.8,0,0,1-5.119,12.235c-4.708,8.289-13.7,20.3-27.2,22.636-21.013,3.636-31.39-16.972-34.385-31.722s-5.217-43.036,5.29-61.422,37.985-15.962,51.32-7.678,11.719,42.632,11.719,42.632,4.445-6.87,9.7-3.233,3.03,21.416-10.708,24.447Z" transform="translate(-762.445 -600.538)" fill="#f0bf9c"/>
      <path id="Trazado_11180" data-name="Trazado 11180" d="M964.143,669.668s1.516-4.546,4.647-3.435,3.233,14.143-5.657,16.77" transform="translate(-760.227 -599.076)" fill="none" stroke="#dda885" stroke-miterlimit="10" stroke-width="0.731"/>
      <path id="Trazado_11181" data-name="Trazado 11181" d="M913.389,661.724s.607,11.922-2.425,20.407,7.274,5.455,7.274,5.455" transform="translate(-761.904 -599.214)" fill="none" stroke="#dda885" stroke-miterlimit="10" stroke-width="0.731"/>
      <g id="Grupo_11655" data-name="Grupo 11655" transform="translate(130.503 67.397)">
        <path id="Trazado_11182" data-name="Trazado 11182" d="M893.586,675.445a46.628,46.628,0,0,0,13.238-3.228c5.86-2.636,13.74-1.4,16.77,0s27.074,1.342,27.074,1.342,0,22.894,6.87,30.975c0,0-12.124,28.287-33.742,25.256-18.907-2.651-28.884-27.365-30.577-43.913a31.528,31.528,0,0,1,.367-10.432" transform="translate(-892.962 -666.326)" fill="#7dd3e9"/>
        <path id="Trazado_11183" data-name="Trazado 11183" d="M947.3,677.153s.22,20.154,6.1,27.579" transform="translate(-891.234 -666.12)" fill="none" stroke="#b7bedc" stroke-miterlimit="10" stroke-width="0.731" opacity="0.41"/>
        <g id="Grupo_11650" data-name="Grupo 11650" transform="translate(8.054 21.56)">
          <path id="Trazado_11184" data-name="Trazado 11184" d="M945.167,689.708c-3.762-.062-7.441.028-11.106.2-3.663.217-7.3.506-10.915.978-1.786.242-3.637.51-5.518.72-1.873.187-3.75.348-5.641.36a48.588,48.588,0,0,1-5.666-.188,22.381,22.381,0,0,1-5.554-1.164,85.507,85.507,0,0,0,11.023-1.056l5.444-.863,2.718-.459,2.8-.421a56.8,56.8,0,0,1,11.334-.315A39.983,39.983,0,0,1,945.167,689.708Z" transform="translate(-900.767 -687.356)" fill="#6bc5ff"/>
          <path id="Trazado_11185" data-name="Trazado 11185" d="M945.955,697.567c-3.317,1.432-6.678,2.615-10.053,3.731-3.368,1.136-6.759,2.157-10.146,3.17-1.718.489-3.328,1.017-5.173,1.459a24.813,24.813,0,0,1-5.525.713,20.509,20.509,0,0,1-5.53-.6,12.71,12.71,0,0,1-4.941-2.36,18.026,18.026,0,0,0,5.168.857,27.184,27.184,0,0,0,5.107-.3,36.083,36.083,0,0,0,4.965-1.143c1.59-.48,3.351-1.1,5.051-1.589,3.433-1.012,6.9-1.866,10.417-2.531A76.489,76.489,0,0,1,945.955,697.567Z" transform="translate(-900.646 -687.031)" fill="#6bc5ff"/>
          <path id="Trazado_11186" data-name="Trazado 11186" d="M948.236,703.882a37.825,37.825,0,0,1-5.252,5.132,55.93,55.93,0,0,1-5.928,4.229,45.552,45.552,0,0,1-6.494,3.376,20.7,20.7,0,0,1-7.178,1.81c2.109-1.3,4.051-2.634,6.039-3.96s3.981-2.6,6.006-3.858,4.089-2.461,6.2-3.61A57.454,57.454,0,0,1,948.236,703.882Z" transform="translate(-900.048 -686.83)" fill="#6bc5ff"/>
        </g>
        <g id="Grupo_11654" data-name="Grupo 11654" transform="translate(55.21)">
          <g id="Grupo_11653" data-name="Grupo 11653">
            <g id="Grupo_11651" data-name="Grupo 11651">
              <path id="Trazado_11187" data-name="Trazado 11187" d="M947.5,678.524a1.032,1.032,0,0,1-.457-1.957c.1-.047,9.759-4.835,14.729-9.8a1.032,1.032,0,0,1,1.459,1.459c-5.214,5.213-14.867,10-15.276,10.2A1.04,1.04,0,0,1,947.5,678.524Z" transform="translate(-946.47 -666.46)" fill="#7dd3e9"/>
            </g>
            <g id="Grupo_11652" data-name="Grupo 11652" transform="translate(5.455 21.215)">
              <path id="Trazado_11188" data-name="Trazado 11188" d="M952.788,703.934a1.032,1.032,0,0,1-.894-1.546l8.536-14.851a1.032,1.032,0,1,1,1.789,1.029l-8.535,14.85A1.033,1.033,0,0,1,952.788,703.934Z" transform="translate(-951.757 -687.021)" fill="#7dd3e9"/>
            </g>
          </g>
        </g>
      </g>
      <path id="Trazado_11189" data-name="Trazado 11189" d="M922.318,656.3s11.539-4.646,18,0c0,0,2.424,4.27,0,3.752s-16.613.1-18,.092S920.668,656.878,922.318,656.3Z" transform="translate(-761.561 -599.452)" fill="#383748"/>
      <path id="Trazado_11190" data-name="Trazado 11190" d="M908.483,657.128c-.451-.069-9.03-1.788-12.774,0s-2.324,6.182-2.324,6.182,15.322-1.666,16.27-2.425A2.1,2.1,0,0,0,908.483,657.128Z" transform="translate(-762.453 -599.386)" fill="#383748"/>
      <ellipse id="Elipse_645" data-name="Elipse 645" cx="2.345" cy="3.153" rx="2.345" ry="3.153" transform="translate(166.646 66.228)" fill="#383748"/>
      <ellipse id="Elipse_646" data-name="Elipse 646" cx="2.345" cy="3.153" rx="2.345" ry="3.153" transform="translate(136.986 67.339)" fill="#383748"/>
      <path id="Trazado_11191" data-name="Trazado 11191" d="M971.24,665.281s7.524-34.443-12-44.606c0,0-18.52-23.5-47.966-18.951S885.2,621.968,886.848,626.09s-4.354,2.975-3.626,10.609c2.568,26.952,62.5,0,62.5,0L962.2,671.632Z" transform="translate(-762.77 -601.14)" fill="#383748"/>
      <path id="Trazado_11192" data-name="Trazado 11192" d="M925.788,766.733l17.62,10.443,28.365-37.385-8.107-4.443Z" transform="translate(-761.414 -596.872)" fill="#eff2fb" opacity="0.68"/>
      <path id="Trazado_11193" data-name="Trazado 11193" d="M904.341,740.836l22.411,25.723-15.01,7.867-16.272-31.119Z" transform="translate(-762.378 -596.698)" fill="#eff2fb" opacity="0.68"/>
      <line id="Línea_181" data-name="Línea 181" x1="11.112" y2="194.748" transform="translate(148.503 183.335)" fill="none" stroke="#eff2fb" stroke-linecap="round" stroke-linejoin="round" stroke-width="1.048"/>
      <g id="Grupo_11679" data-name="Grupo 11679" transform="translate(69.054 131.238)">
        <circle id="Elipse_647" data-name="Elipse 647" cx="12.341" cy="12.341" r="12.341" transform="translate(11.448 11.447)" fill="#8693ea"/>
        <path id="Trazado_11194" data-name="Trazado 11194" d="M866.368,743.813a12.341,12.341,0,0,1-21.121,12.111,12.342,12.342,0,1,0,21.121-12.111Z" transform="translate(-833.03 -727.841)" fill="#6b7be9"/>
        <g id="Grupo_11665" data-name="Grupo 11665">
          <g id="Grupo_11657" data-name="Grupo 11657" transform="translate(21.195)">
            <path id="Trazado_11195" data-name="Trazado 11195" d="M857.73,739.589l-.516-9.653h-1.3l-.509,9.512a2.125,2.125,0,0,1-.788,1.515l-.324.269a5.2,5.2,0,0,0,4.331,0l-.3-.31A2.092,2.092,0,0,1,857.73,739.589Z" transform="translate(-853.937 -728.282)" fill="#6b7be9"/>
            <path id="Trazado_11196" data-name="Trazado 11196" d="M857.167,729.936h-1.3l-.089,1.656h1.479Z" transform="translate(-853.89 -728.282)" fill="#5460b4"/>
            <g id="Grupo_11656" data-name="Grupo 11656">
              <path id="Trazado_11197" data-name="Trazado 11197" d="M858.988,729.391c0,.585-1.128,1.059-2.52,1.059s-2.521-.474-2.521-1.059,1.129-1.058,2.521-1.058S858.988,728.807,858.988,729.391Z" transform="translate(-853.948 -728.333)" fill="#8693ea"/>
              <path id="Trazado_11198" data-name="Trazado 11198" d="M856.822,728.851c.046.252-.4.526-1,.612s-1.125-.049-1.171-.3.4-.525,1-.611S856.776,728.6,856.822,728.851Z" transform="translate(-853.926 -728.327)" fill="#bac3fd"/>
            </g>
          </g>
          <g id="Grupo_11658" data-name="Grupo 11658" transform="translate(29.869 5.73)">
            <path id="Trazado_11199" data-name="Trazado 11199" d="M865.948,743.906l6.461-7.19-.92-.92-7.085,6.366a2.125,2.125,0,0,1-1.628.513l-.421-.037a5.208,5.208,0,0,0,3.062,3.061l.009-.429A2.1,2.1,0,0,1,865.948,743.906Z" transform="translate(-862.354 -733.826)" fill="#6b7be9"/>
            <path id="Trazado_11200" data-name="Trazado 11200" d="M872.165,736.716l-.92-.92-1.234,1.108,1.046,1.045Z" transform="translate(-862.111 -733.826)" fill="#5460b4"/>
            <path id="Trazado_11201" data-name="Trazado 11201" d="M873.831,737.6c-.414.413-1.547-.049-2.531-1.034s-1.447-2.117-1.034-2.531,1.547.049,2.531,1.034S874.243,737.189,873.831,737.6Z" transform="translate(-862.107 -733.887)" fill="#8693ea"/>
            <path id="Trazado_11202" data-name="Trazado 11202" d="M872.667,735.7c-.145.211-.655.089-1.14-.275s-.76-.829-.616-1.04.656-.088,1.141.275S872.812,735.485,872.667,735.7Z" transform="translate(-862.083 -733.874)" fill="#bac3fd"/>
          </g>
          <g id="Grupo_11659" data-name="Grupo 11659" transform="translate(34.154 21.194)">
            <path id="Trazado_11203" data-name="Trazado 11203" d="M868.623,752.656l9.653-.515v-1.3l-9.511-.508a2.128,2.128,0,0,1-1.515-.789l-.27-.324a5.2,5.2,0,0,0,0,4.33l.31-.3A2.092,2.092,0,0,1,868.623,752.656Z" transform="translate(-866.507 -748.863)" fill="#6b7be9"/>
            <path id="Trazado_11204" data-name="Trazado 11204" d="M877.964,752.094v-1.3l-1.656-.089v1.479Z" transform="translate(-866.196 -748.816)" fill="#5460b4"/>
            <path id="Trazado_11205" data-name="Trazado 11205" d="M878.524,753.914c-.585,0-1.059-1.128-1.059-2.52s.474-2.521,1.059-2.521,1.059,1.129,1.059,2.521S879.108,753.914,878.524,753.914Z" transform="translate(-866.159 -748.874)" fill="#8693ea"/>
            <path id="Trazado_11206" data-name="Trazado 11206" d="M879.028,751.748c-.252.047-.526-.4-.612-1s.05-1.125.3-1.171.525.4.612,1S879.279,751.7,879.028,751.748Z" transform="translate(-866.13 -748.852)" fill="#bac3fd"/>
          </g>
          <g id="Grupo_11660" data-name="Grupo 11660" transform="translate(29.973 29.869)">
            <path id="Trazado_11207" data-name="Trazado 11207" d="M864.248,760.874l7.19,6.461.92-.92-6.366-7.085a2.125,2.125,0,0,1-.513-1.628l.038-.42a5.2,5.2,0,0,0-3.062,3.061l.429.009A2.1,2.1,0,0,1,864.248,760.874Z" transform="translate(-862.455 -757.281)" fill="#6b7be9"/>
            <path id="Trazado_11208" data-name="Trazado 11208" d="M871.2,767.091l.92-.92-1.108-1.234-1.045,1.046Z" transform="translate(-862.216 -757.038)" fill="#5460b4"/>
            <path id="Trazado_11209" data-name="Trazado 11209" d="M870.367,768.757c-.414-.414.048-1.547,1.033-2.531s2.117-1.447,2.531-1.034-.049,1.547-1.034,2.531S870.779,769.169,870.367,768.757Z" transform="translate(-862.208 -757.034)" fill="#8693ea"/>
            <path id="Trazado_11210" data-name="Trazado 11210" d="M872.2,767.593c-.212-.146-.088-.655.275-1.14s.83-.76,1.04-.615.089.655-.275,1.14S872.412,767.738,872.2,767.593Z" transform="translate(-862.148 -757.01)" fill="#bac3fd"/>
          </g>
          <g id="Grupo_11661" data-name="Grupo 11661" transform="translate(21.342 34.153)">
            <path id="Trazado_11211" data-name="Trazado 11211" d="M855.327,763.549l.516,9.652h1.3l.509-9.511a2.123,2.123,0,0,1,.788-1.515l.324-.27a5.2,5.2,0,0,0-4.33,0l.3.311A2.09,2.09,0,0,1,855.327,763.549Z" transform="translate(-854.079 -761.433)" fill="#6b7be9"/>
            <path id="Trazado_11212" data-name="Trazado 11212" d="M855.8,772.89h1.3l.089-1.656h-1.479Z" transform="translate(-854.038 -761.122)" fill="#5460b4"/>
            <path id="Trazado_11213" data-name="Trazado 11213" d="M854.09,773.45c0-.585,1.129-1.059,2.521-1.059s2.52.474,2.52,1.059-1.128,1.059-2.52,1.059S854.09,774.035,854.09,773.45Z" transform="translate(-854.09 -761.085)" fill="#8693ea"/>
            <path id="Trazado_11214" data-name="Trazado 11214" d="M856.168,773.954c-.047-.252.4-.525,1-.612s1.125.049,1.171.3-.4.526-1,.612S856.216,774.205,856.168,773.954Z" transform="translate(-854.024 -761.056)" fill="#bac3fd"/>
          </g>
          <g id="Grupo_11662" data-name="Grupo 11662" transform="translate(5.238 29.972)">
            <path id="Trazado_11215" data-name="Trazado 11215" d="M847.285,759.174l-6.461,7.19.92.92,7.085-6.366a2.126,2.126,0,0,1,1.628-.513l.421.038a5.207,5.207,0,0,0-3.062-3.062l-.009.429A2.088,2.088,0,0,1,847.285,759.174Z" transform="translate(-838.408 -757.381)" fill="#6b7be9"/>
            <path id="Trazado_11216" data-name="Trazado 11216" d="M840.824,766.125l.92.92,1.234-1.108-1.045-1.045Z" transform="translate(-838.408 -757.142)" fill="#5460b4"/>
            <ellipse id="Elipse_648" data-name="Elipse 648" cx="1.059" cy="2.52" rx="1.059" ry="2.52" transform="translate(0 8.907) rotate(-45)" fill="#8693ea"/>
            <path id="Trazado_11217" data-name="Trazado 11217" d="M840.312,767.126c.146-.211.656-.088,1.141.276s.759.83.615,1.041-.656.088-1.141-.275S840.168,767.338,840.312,767.126Z" transform="translate(-838.425 -757.074)" fill="#bac3fd"/>
          </g>
          <g id="Grupo_11663" data-name="Grupo 11663" transform="translate(0 21.341)">
            <path id="Trazado_11218" data-name="Trazado 11218" d="M844.663,750.253l-9.652.516v1.3l9.511.509a2.128,2.128,0,0,1,1.515.788l.27.324a5.2,5.2,0,0,0,0-4.33l-.31.3A2.087,2.087,0,0,1,844.663,750.253Z" transform="translate(-833.355 -749.005)" fill="#6b7be9"/>
            <path id="Trazado_11219" data-name="Trazado 11219" d="M835.01,750.728v1.3l1.656.089v-1.479Z" transform="translate(-833.355 -748.964)" fill="#5460b4"/>
            <path id="Trazado_11220" data-name="Trazado 11220" d="M834.465,749.016c.585,0,1.059,1.129,1.059,2.521s-.474,2.52-1.059,2.52-1.059-1.128-1.059-2.52S833.881,749.016,834.465,749.016Z" transform="translate(-833.406 -749.016)" fill="#8693ea"/>
            <path id="Trazado_11221" data-name="Trazado 11221" d="M833.925,751.094c.252-.046.526.4.612,1s-.049,1.124-.3,1.17-.525-.4-.611-1S833.673,751.142,833.925,751.094Z" transform="translate(-833.4 -748.95)" fill="#bac3fd"/>
          </g>
          <g id="Grupo_11664" data-name="Grupo 11664" transform="translate(5.731 5.834)">
            <path id="Trazado_11222" data-name="Trazado 11222" d="M848.98,742.211l-7.19-6.461-.92.92,6.366,7.085a2.127,2.127,0,0,1,.513,1.629l-.038.42a5.207,5.207,0,0,0,3.062-3.062l-.429-.009A2.085,2.085,0,0,1,848.98,742.211Z" transform="translate(-838.899 -733.931)" fill="#6b7be9"/>
            <path id="Trazado_11223" data-name="Trazado 11223" d="M841.79,735.75l-.92.92,1.108,1.234,1.045-1.045Z" transform="translate(-838.899 -733.931)" fill="#5460b4"/>
            <path id="Trazado_11224" data-name="Trazado 11224" d="M842.675,734.139c.414.413-.048,1.546-1.033,2.53s-2.117,1.448-2.531,1.034.05-1.547,1.034-2.53S842.263,733.725,842.675,734.139Z" transform="translate(-838.96 -733.987)" fill="#8693ea"/>
            <path id="Trazado_11225" data-name="Trazado 11225" d="M840.77,735.238c.212.146.089.656-.276,1.141s-.828.76-1.04.615-.088-.656.276-1.14S840.559,735.094,840.77,735.238Z" transform="translate(-838.948 -733.949)" fill="#bac3fd"/>
          </g>
        </g>
        <g id="Grupo_11674" data-name="Grupo 11674" transform="translate(5.889 5.888)">
          <g id="Grupo_11666" data-name="Grupo 11666" transform="translate(19.226)">
            <path id="Trazado_11226" data-name="Trazado 11226" d="M860.745,742.986l2.276-7.291-.964-.358-3,6.9a1.681,1.681,0,0,1-1,.9l-.314.11a4.115,4.115,0,0,0,3.207,1.193l-.135-.312A1.651,1.651,0,0,1,860.745,742.986Z" transform="translate(-857.747 -733.998)" fill="#6b7be9"/>
            <path id="Trazado_11227" data-name="Trazado 11227" d="M862.9,735.7l-.964-.358-.522,1.2,1.095.408Z" transform="translate(-857.63 -733.998)" fill="#5460b4"/>
            <path id="Trazado_11228" data-name="Trazado 11228" d="M864.4,735.781c-.161.433-1.127.474-2.158.09s-1.735-1.044-1.575-1.478,1.127-.474,2.158-.09S864.56,735.347,864.4,735.781Z" transform="translate(-857.655 -734.04)" fill="#8693ea"/>
            <path id="Trazado_11229" data-name="Trazado 11229" d="M862.939,734.79c-.035.2-.443.279-.91.177s-.819-.346-.784-.546.442-.279.91-.176S862.973,734.59,862.939,734.79Z" transform="translate(-857.636 -734.034)" fill="#bac3fd"/>
          </g>
          <g id="Grupo_11667" data-name="Grupo 11667" transform="translate(24.948 8.527)">
            <path id="Trazado_11230" data-name="Trazado 11230" d="M865.6,748.382l6.764-3.546-.428-.935-7,2.764a1.679,1.679,0,0,1-1.348-.069l-.3-.143a4.111,4.111,0,0,0,1.424,3.111l.126-.316A1.648,1.648,0,0,1,865.6,748.382Z" transform="translate(-863.293 -742.253)" fill="#6b7be9"/>
            <path id="Trazado_11231" data-name="Trazado 11231" d="M872.14,744.836l-.428-.935-1.219.482c.156.338.323.7.486,1.062Z" transform="translate(-863.064 -742.253)" fill="#5460b4"/>
            <path id="Trazado_11232" data-name="Trazado 11232" d="M873.126,745.958c-.42.192-1.132-.462-1.589-1.462s-.489-1.967-.069-2.159,1.132.462,1.59,1.462S873.546,745.765,873.126,745.958Z" transform="translate(-863.042 -742.303)" fill="#8693ea"/>
            <path id="Trazado_11233" data-name="Trazado 11233" d="M872.786,744.228c-.165.117-.51-.116-.769-.518s-.334-.823-.169-.94.51.116.769.518S872.951,744.111,872.786,744.228Z" transform="translate(-863.024 -742.289)" fill="#bac3fd"/>
          </g>
          <g id="Grupo_11668" data-name="Grupo 11668" transform="translate(25.34 19.226)">
            <path id="Trazado_11234" data-name="Trazado 11234" d="M865.144,755.671l7.291,2.276.358-.964-6.9-3a1.683,1.683,0,0,1-.9-1l-.112-.315a4.11,4.11,0,0,0-1.192,3.207l.31-.135A1.657,1.657,0,0,1,865.144,755.671Z" transform="translate(-863.673 -752.673)" fill="#6b7be9"/>
            <path id="Trazado_11235" data-name="Trazado 11235" d="M872.2,757.831l.358-.964-1.2-.522-.406,1.1Z" transform="translate(-863.442 -752.556)" fill="#5460b4"/>
            <path id="Trazado_11236" data-name="Trazado 11236" d="M872.133,759.325c-.432-.161-.473-1.127-.09-2.157s1.045-1.736,1.478-1.575.474,1.127.091,2.157S872.566,759.486,872.133,759.325Z" transform="translate(-863.415 -752.581)" fill="#8693ea"/>
            <path id="Trazado_11237" data-name="Trazado 11237" d="M873.084,757.865c-.2-.035-.279-.443-.176-.91s.346-.819.545-.784.279.442.177.91S873.284,757.9,873.084,757.865Z" transform="translate(-863.381 -752.562)" fill="#bac3fd"/>
          </g>
          <g id="Grupo_11669" data-name="Grupo 11669" transform="translate(19.962 24.948)">
            <path id="Trazado_11238" data-name="Trazado 11238" d="M859.643,760.531l3.545,6.763.935-.428-2.763-7a1.674,1.674,0,0,1,.068-1.347l.143-.3a4.113,4.113,0,0,0-3.111,1.424l.316.126A1.651,1.651,0,0,1,859.643,760.531Z" transform="translate(-858.46 -758.219)" fill="#6b7be9"/>
            <path id="Trazado_11239" data-name="Trazado 11239" d="M863.061,767.066l.935-.428-.481-1.219-1.063.487Z" transform="translate(-858.333 -757.99)" fill="#5460b4"/>
            <path id="Trazado_11240" data-name="Trazado 11240" d="M862.006,768.052c-.193-.42.462-1.132,1.462-1.589s1.966-.489,2.159-.069-.462,1.132-1.462,1.59S862.2,768.472,862.006,768.052Z" transform="translate(-858.348 -757.969)" fill="#8693ea"/>
            <path id="Trazado_11241" data-name="Trazado 11241" d="M863.669,767.712c-.117-.165.115-.51.518-.769s.823-.334.94-.169-.116.51-.518.769S863.785,767.878,863.669,767.712Z" transform="translate(-858.295 -757.95)" fill="#bac3fd"/>
          </g>
          <g id="Grupo_11670" data-name="Grupo 11670" transform="translate(9.806 25.34)">
            <path id="Trazado_11242" data-name="Trazado 11242" d="M852.34,760.071l-2.276,7.29.964.358,3-6.9a1.685,1.685,0,0,1,1-.9l.314-.111a4.109,4.109,0,0,0-3.207-1.192l.135.311A1.653,1.653,0,0,1,852.34,760.071Z" transform="translate(-848.572 -758.599)" fill="#6b7be9"/>
            <path id="Trazado_11243" data-name="Trazado 11243" d="M850.064,767.13l.964.358.522-1.2-1.095-.407Z" transform="translate(-848.572 -758.367)" fill="#5460b4"/>
            <path id="Trazado_11244" data-name="Trazado 11244" d="M848.641,767.059c.161-.432,1.127-.472,2.158-.09s1.737,1.045,1.576,1.478-1.128.474-2.159.091S848.48,767.492,848.641,767.059Z" transform="translate(-848.618 -758.341)" fill="#8693ea"/>
            <path id="Trazado_11245" data-name="Trazado 11245" d="M850.036,768.011c.035-.2.443-.28.91-.178s.819.346.784.545-.442.279-.91.177S850,768.21,850.036,768.011Z" transform="translate(-848.573 -758.307)" fill="#bac3fd"/>
          </g>
          <g id="Grupo_11671" data-name="Grupo 11671" transform="translate(0.471 19.962)">
            <path id="Trazado_11246" data-name="Trazado 11246" d="M847.6,754.568l-6.765,3.545.428.935,7-2.763a1.679,1.679,0,0,1,1.348.068l.3.143a4.114,4.114,0,0,0-1.424-3.111l-.125.316A1.659,1.659,0,0,1,847.6,754.568Z" transform="translate(-839.53 -753.386)" fill="#6b7be9"/>
            <path id="Trazado_11247" data-name="Trazado 11247" d="M840.834,757.987l.428.935,1.219-.481c-.155-.34-.322-.7-.486-1.062Z" transform="translate(-839.53 -753.259)" fill="#5460b4"/>
            <path id="Trazado_11248" data-name="Trazado 11248" d="M839.866,756.932c.42-.193,1.132.462,1.59,1.462s.488,1.966.068,2.159-1.132-.462-1.589-1.462S839.446,757.124,839.866,756.932Z" transform="translate(-839.57 -753.274)" fill="#8693ea"/>
            <path id="Trazado_11249" data-name="Trazado 11249" d="M840.172,758.595c.166-.117.51.115.769.518s.334.823.169.94-.51-.116-.769-.518S840.007,758.712,840.172,758.595Z" transform="translate(-839.554 -753.221)" fill="#bac3fd"/>
          </g>
          <g id="Grupo_11672" data-name="Grupo 11672" transform="translate(0 9.806)">
            <path id="Trazado_11250" data-name="Trazado 11250" d="M848.06,747.266l-7.291-2.276-.358.965,6.9,3a1.679,1.679,0,0,1,.9,1l.11.314a4.113,4.113,0,0,0,1.193-3.207l-.312.135A1.65,1.65,0,0,1,848.06,747.266Z" transform="translate(-839.072 -743.498)" fill="#6b7be9"/>
            <path id="Trazado_11251" data-name="Trazado 11251" d="M840.769,744.99l-.358.965,1.2.521.408-1.095Z" transform="translate(-839.072 -743.498)" fill="#5460b4"/>
            <path id="Trazado_11252" data-name="Trazado 11252" d="M840.855,743.567c.433.161.474,1.127.09,2.157s-1.045,1.737-1.478,1.576-.474-1.128-.09-2.159S840.421,743.406,840.855,743.567Z" transform="translate(-839.114 -743.544)" fill="#8693ea"/>
            <path id="Trazado_11253" data-name="Trazado 11253" d="M839.864,744.962c.2.035.279.443.176.91s-.346.819-.545.784-.279-.442-.177-.909S839.664,744.928,839.864,744.962Z" transform="translate(-839.109 -743.499)" fill="#bac3fd"/>
          </g>
          <g id="Grupo_11673" data-name="Grupo 11673" transform="translate(8.526 0.471)">
            <path id="Trazado_11254" data-name="Trazado 11254" d="M853.456,742.524l-3.546-6.764-.935.428,2.764,7a1.679,1.679,0,0,1-.069,1.348l-.143.3a4.111,4.111,0,0,0,3.111-1.424l-.316-.125A1.653,1.653,0,0,1,853.456,742.524Z" transform="translate(-847.326 -734.456)" fill="#6b7be9"/>
            <path id="Trazado_11255" data-name="Trazado 11255" d="M849.91,735.76l-.935.428.481,1.219,1.063-.486Z" transform="translate(-847.326 -734.456)" fill="#5460b4"/>
            <path id="Trazado_11256" data-name="Trazado 11256" d="M851.032,734.792c.192.42-.463,1.132-1.463,1.59s-1.966.488-2.159.068.462-1.132,1.462-1.589S850.839,734.372,851.032,734.792Z" transform="translate(-847.377 -734.496)" fill="#8693ea"/>
            <path id="Trazado_11257" data-name="Trazado 11257" d="M849.3,735.1c.117.166-.116.51-.518.769s-.823.335-.94.169.115-.51.518-.769S849.185,734.933,849.3,735.1Z" transform="translate(-847.363 -734.48)" fill="#bac3fd"/>
          </g>
        </g>
        <g id="Grupo_11675" data-name="Grupo 11675" transform="translate(20.485 16.785)">
          <path id="Trazado_11258" data-name="Trazado 11258" d="M858.3,746.616a2.583,2.583,0,1,1-2.521-2.015A2.311,2.311,0,0,1,858.3,746.616Z" transform="translate(-853.26 -744.601)" fill="#6b7be9"/>
          <path id="Trazado_11259" data-name="Trazado 11259" d="M856.134,745.588a1.254,1.254,0,0,1-1,1.165c-.6.163-1.125-.094-1.171-.573a1.254,1.254,0,0,1,1-1.165C855.563,744.853,856.088,745.108,856.134,745.588Z" transform="translate(-853.238 -744.589)" fill="#8693ea"/>
        </g>
        <g id="Grupo_11676" data-name="Grupo 11676" transform="translate(21.974 24.921)">
          <path id="Trazado_11260" data-name="Trazado 11260" d="M859.743,754.5a2.583,2.583,0,1,1-2.52-2.015A2.31,2.31,0,0,1,859.743,754.5Z" transform="translate(-854.703 -752.486)" fill="#6b7be9"/>
          <path id="Trazado_11261" data-name="Trazado 11261" d="M857.577,753.473a1.252,1.252,0,0,1-1,1.165c-.6.163-1.124-.094-1.171-.573a1.253,1.253,0,0,1,1-1.165C857.006,752.738,857.531,752.993,857.577,753.473Z" transform="translate(-854.681 -752.474)" fill="#8693ea"/>
        </g>
        <g id="Grupo_11677" data-name="Grupo 11677" transform="translate(16.375 22.482)">
          <path id="Trazado_11262" data-name="Trazado 11262" d="M852.726,751.5A1.768,1.768,0,1,1,851,750.122,1.582,1.582,0,0,1,852.726,751.5Z" transform="translate(-849.276 -750.122)" fill="#6b7be9"/>
          <path id="Trazado_11263" data-name="Trazado 11263" d="M851.244,750.8a.856.856,0,0,1-.685.8c-.411.112-.77-.064-.8-.392a.856.856,0,0,1,.685-.8C850.853,750.294,851.212,750.47,851.244,750.8Z" transform="translate(-849.261 -750.114)" fill="#8693ea"/>
        </g>
        <g id="Grupo_11678" data-name="Grupo 11678" transform="translate(27.922 22.188)">
          <path id="Trazado_11264" data-name="Trazado 11264" d="M862.538,750.664a1.062,1.062,0,1,1-1.035-.828A.949.949,0,0,1,862.538,750.664Z" transform="translate(-860.467 -749.837)" fill="#6b7be9"/>
          <path id="Trazado_11265" data-name="Trazado 11265" d="M861.648,750.243a.512.512,0,0,1-.411.478c-.247.067-.462-.038-.481-.235a.514.514,0,0,1,.411-.479C861.413,749.94,861.629,750.045,861.648,750.243Z" transform="translate(-860.458 -749.832)" fill="#8693ea"/>
        </g>
      </g>
      <g id="Grupo_11680" data-name="Grupo 11680" transform="translate(81.596 141.262)">
        <path id="Trazado_11266" data-name="Trazado 11266" d="M895.233,789s-3.338-5.427-5.959-10.294-4.96-15.253-7.393-17.592-8.983-12.353-11.323-13.756-13.849-10.014-16-9.265-.561,3.649,2.06,6.55,11.884,9.078,11.884,9.545-18.435-10.277-21.616-10.1,0,4.068,4.4,7.645,13.195,9,13.195,9a33.915,33.915,0,0,0-7.486-.748c-3.182.187-12.03,2.082-11.4,4.737a2.056,2.056,0,0,0,2.974,1.594s-1.517.708-.151,3.223,6.514,1.861,8.385,5.324,14.786,18.435,16.657,20.4,10.387,4.3,10.387,4.3Z" transform="translate(-845.562 -738.048)" fill="#f0bf9c"/>
        <path id="Trazado_11267" data-name="Trazado 11267" d="M848.475,765.464s2.058-.873,7.018,0,6.925,3.775,6.925,3.775" transform="translate(-845.469 -737.189)" fill="none" stroke="#dda885" stroke-miterlimit="10" stroke-width="0.471"/>
      </g>
      <g id="Grupo_11681" data-name="Grupo 11681" transform="translate(113.047 154.513)">
        <path id="Trazado_11268" data-name="Trazado 11268" d="M1026.771,836.95c-1.851,11.051-6.968,32.145-12.844,54.875,0,0-15.04,26.756-42.115,22.3s-95.77-117.183-95.77-117.183,17.058-19.4,20.049-19.4,76.931,66.271,76.931,66.271,7.586-69.085,28.845-92.932c7.431,2.92,13.746,5.638,16.82,8.072C1028.386,766.642,1032.031,805.434,1026.771,836.95Z" transform="translate(-876.043 -750.891)" fill="#fff"/>
        <path id="Trazado_11269" data-name="Trazado 11269" d="M895.47,776.952l76.939,66.272s8.5-53.274,17.456-73.578c0,0-15.031,26.445-20.689,58.093Z" transform="translate(-875.425 -750.295)" fill="#eff2fb" opacity="0.68"/>
        <path id="Trazado_11270" data-name="Trazado 11270" d="M901.657,834.992s39.009,68.071,68.913,73.728,41.891-17.05,41.891-17.05-6.435,28.839-8.527,32.21c-1.552,2.5-16.606,5.206-48.125-14.869S901.657,834.992,901.657,834.992Z" transform="translate(-875.229 -748.217)" fill="#eff2fb" opacity="0.68"/>
      </g>
    </g>
  </g>
</svg>
